<svg xmlns="http://www.w3.org/2000/svg" viewBox="0 0 512 768" role="img" aria-label="丛林龙 original portrait">
  
  <defs>
    <linearGradient id="bgp102" x1="0" y1="0" x2="1" y2="1">
      <stop offset="0" stop-color="#c7f7a4"/>
      <stop offset=".55" stop-color="#43b957"/>
      <stop offset="1" stop-color="#1f6f43"/>
    </linearGradient>
    <radialGradient id="body" cx=".36" cy=".25" r=".76">
      <stop offset="0" stop-color="#c7f7a4"/>
      <stop offset=".6" stop-color="#43b957"/>
      <stop offset="1" stop-color="#1f6f43"/>
    </radialGradient>
    <radialGradient id="head" cx=".36" cy=".26" r=".72">
      <stop offset="0" stop-color="#ffffff" stop-opacity=".85"/>
      <stop offset=".2" stop-color="#c7f7a4"/>
      <stop offset=".72" stop-color="#43b957"/>
      <stop offset="1" stop-color="#1f6f43"/>
    </radialGradient>
    <filter id="softShadow" x="-30%" y="-30%" width="160%" height="160%">
      <feDropShadow dx="0" dy="8" stdDeviation="8" flood-color="#1f6f43" flood-opacity=".35"/>
    </filter>
  </defs>
  <rect width="512" height="768" rx="48" fill="url(#bgp102)"/>
  <rect x="24" y="24" width="464" height="720" rx="40" fill="#ffffff" opacity=".08"/>
  <g opacity=".42"><circle cx="322" cy="305" r="1.6" fill="#fff" opacity="0.63"/><circle cx="6" cy="658" r="2.1" fill="#fff" opacity="0.28"/><circle cx="146" cy="625" r="2.2" fill="#fff" opacity="0.62"/><circle cx="467" cy="627" r="2.1" fill="#fff" opacity="0.48"/><circle cx="184" cy="579" r="0.8" fill="#fff" opacity="0.54"/><circle cx="403" cy="495" r="2.4" fill="#fff" opacity="0.69"/><circle cx="468" cy="311" r="2.1" fill="#fff" opacity="0.26"/><circle cx="87" cy="364" r="2.7" fill="#fff" opacity="0.65"/><circle cx="488" cy="669" r="1.2" fill="#fff" opacity="0.52"/><circle cx="424" cy="225" r="1.0" fill="#fff" opacity="0.44"/><circle cx="143" cy="621" r="1.1" fill="#fff" opacity="0.37"/><circle cx="120" cy="497" r="1.4" fill="#fff" opacity="0.61"/><circle cx="60" cy="18" r="0.9" fill="#fff" opacity="0.43"/><circle cx="14" cy="763" r="0.8" fill="#fff" opacity="0.62"/><circle cx="119" cy="720" r="1.9" fill="#fff" opacity="0.53"/><circle cx="461" cy="662" r="1.2" fill="#fff" opacity="0.27"/><circle cx="221" cy="453" r="1.8" fill="#fff" opacity="0.43"/><circle cx="188" cy="496" r="1.7" fill="#fff" opacity="0.47"/><circle cx="150" cy="704" r="2.8" fill="#fff" opacity="0.38"/><circle cx="8" cy="245" r="1.5" fill="#fff" opacity="0.45"/><circle cx="430" cy="33" r="1.1" fill="#fff" opacity="0.42"/><circle cx="37" cy="251" r="2.4" fill="#fff" opacity="0.67"/><circle cx="402" cy="460" r="1.7" fill="#fff" opacity="0.52"/><circle cx="284" cy="258" r="1.5" fill="#fff" opacity="0.25"/><circle cx="31" cy="691" r="3.1" fill="#fff" opacity="0.36"/><circle cx="295" cy="83" r="1.9" fill="#fff" opacity="0.53"/><circle cx="358" cy="648" r="1.0" fill="#fff" opacity="0.39"/><circle cx="284" cy="637" r="0.9" fill="#fff" opacity="0.47"/></g>
  <path d="M70 600 C142 504 297 500 443 610" fill="#1f6f43" opacity=".18"/><path d="M52 642 C146 578 341 580 471 650" fill="#1f6f43" opacity=".16"/>
  <ellipse cx="256" cy="662" rx="150" ry="34" fill="#1f6f43" opacity=".28"/>
  <g transform="translate(0 122)">
    <path d="M108.4 347.4 C161.7 224.4 292.9 175.20000000000002 389.25 253.1 C325.7 249 276.5 285.9 247.8 376.1" fill="#1f6f43" opacity=".45"/><ellipse cx="256" cy="335.1" rx="110.69999999999999" ry="92.24999999999999" fill="url(#body)" filter="url(#softShadow)"/><path d="M167.85000000000002 253.1 L219.1 130.10000000000002 L249.85 244.9 Z" fill="#43b957"/><path d="M344.15 253.1 L292.9 130.10000000000002 L262.15 244.9 Z" fill="#43b957"/><ellipse cx="256" cy="267.45" rx="96.35" ry="86.1" fill="url(#head)"/><path d="M151.45 292.05 Q87.9 298.2 63.30000000000001 253.1" stroke="#c7f7a4" stroke-width="10.25" fill="none" stroke-linecap="round" opacity=".85"/><path d="M360.55 292.05 Q424.1 298.2 448.7 253.1" stroke="#c7f7a4" stroke-width="10.25" fill="none" stroke-linecap="round" opacity=".85"/><ellipse cx="223.2" cy="253.1" rx="14.349999999999998" ry="16.4" fill="#14213d"/><ellipse cx="288.8" cy="253.1" rx="14.349999999999998" ry="16.4" fill="#14213d"/><circle cx="229.35" cy="244.9" r="4.714999999999999" fill="#fff"/><circle cx="294.95" cy="244.9" r="4.714999999999999" fill="#fff"/><circle cx="256" cy="210.05" r="14.349999999999998" fill="#c7f7a4" opacity=".9"/>
  </g>
  <path d="M74 126 C170 65 334 65 438 126" stroke="#fff" stroke-width="16" stroke-linecap="round" opacity=".16"/>
  <path d="M63 676 C162 718 344 718 449 662" stroke="#fff" stroke-width="14" stroke-linecap="round" opacity=".16"/>
</svg>