<svg xmlns="http://www.w3.org/2000/svg" viewBox="0 0 512 768" role="img" aria-label="森林霸主 original portrait">
  
  <defs>
    <linearGradient id="bgp103" x1="0" y1="0" x2="1" y2="1">
      <stop offset="0" stop-color="#c7f7a4"/>
      <stop offset=".55" stop-color="#43b957"/>
      <stop offset="1" stop-color="#1f6f43"/>
    </linearGradient>
    <radialGradient id="body" cx=".36" cy=".25" r=".76">
      <stop offset="0" stop-color="#c7f7a4"/>
      <stop offset=".6" stop-color="#43b957"/>
      <stop offset="1" stop-color="#1f6f43"/>
    </radialGradient>
    <radialGradient id="head" cx=".36" cy=".26" r=".72">
      <stop offset="0" stop-color="#ffffff" stop-opacity=".85"/>
      <stop offset=".2" stop-color="#c7f7a4"/>
      <stop offset=".72" stop-color="#43b957"/>
      <stop offset="1" stop-color="#1f6f43"/>
    </radialGradient>
    <filter id="softShadow" x="-30%" y="-30%" width="160%" height="160%">
      <feDropShadow dx="0" dy="8" stdDeviation="8" flood-color="#1f6f43" flood-opacity=".35"/>
    </filter>
  </defs>
  <rect width="512" height="768" rx="48" fill="url(#bgp103)"/>
  <rect x="24" y="24" width="464" height="720" rx="40" fill="#ffffff" opacity=".08"/>
  <g opacity=".42"><circle cx="83" cy="253" r="2.1" fill="#fff" opacity="0.48"/><circle cx="105" cy="176" r="2.8" fill="#fff" opacity="0.35"/><circle cx="12" cy="367" r="0.9" fill="#fff" opacity="0.47"/><circle cx="148" cy="631" r="2.0" fill="#fff" opacity="0.44"/><circle cx="106" cy="316" r="2.7" fill="#fff" opacity="0.29"/><circle cx="311" cy="414" r="1.3" fill="#fff" opacity="0.33"/><circle cx="295" cy="152" r="2.4" fill="#fff" opacity="0.69"/><circle cx="102" cy="419" r="3.1" fill="#fff" opacity="0.49"/><circle cx="472" cy="570" r="2.3" fill="#fff" opacity="0.65"/><circle cx="223" cy="737" r="2.5" fill="#fff" opacity="0.61"/><circle cx="314" cy="51" r="2.5" fill="#fff" opacity="0.35"/><circle cx="347" cy="359" r="2.4" fill="#fff" opacity="0.39"/><circle cx="201" cy="723" r="1.2" fill="#fff" opacity="0.64"/><circle cx="198" cy="594" r="3.1" fill="#fff" opacity="0.27"/><circle cx="472" cy="696" r="3.1" fill="#fff" opacity="0.65"/><circle cx="181" cy="734" r="1.2" fill="#fff" opacity="0.53"/><circle cx="73" cy="432" r="1.1" fill="#fff" opacity="0.28"/><circle cx="424" cy="688" r="2.5" fill="#fff" opacity="0.37"/><circle cx="389" cy="597" r="1.5" fill="#fff" opacity="0.52"/><circle cx="165" cy="745" r="1.7" fill="#fff" opacity="0.45"/><circle cx="291" cy="420" r="2.0" fill="#fff" opacity="0.30"/><circle cx="87" cy="676" r="2.4" fill="#fff" opacity="0.56"/><circle cx="439" cy="188" r="3.1" fill="#fff" opacity="0.27"/><circle cx="325" cy="85" r="2.7" fill="#fff" opacity="0.33"/><circle cx="267" cy="625" r="2.8" fill="#fff" opacity="0.41"/><circle cx="93" cy="73" r="2.0" fill="#fff" opacity="0.65"/><circle cx="475" cy="544" r="2.3" fill="#fff" opacity="0.61"/><circle cx="185" cy="464" r="3.1" fill="#fff" opacity="0.30"/></g>
  <path d="M18 704 C124 595 205 659 256 580 C314 666 392 596 494 704 V768 H18Z" fill="#1f6f43" opacity=".18"/>
  <ellipse cx="256" cy="662" rx="150" ry="34" fill="#1f6f43" opacity=".28"/>
  <g transform="translate(0 122)">
    <path d="M231.4 400.7 C128.9 376.1 83.80000000000001 265.4 198.60000000000002 275.65" fill="#43b957" opacity=".82"/><path d="M280.6 400.7 C383.1 376.1 428.2 265.4 313.4 275.65" fill="#43b957" opacity=".82"/><ellipse cx="256" cy="339.2" rx="98.39999999999999" ry="116.85" fill="url(#body)" filter="url(#softShadow)"/><path d="M256 138.3 C169.9 175.20000000000002 161.7 259.25 256 251.05 C350.3 259.25 342.1 175.20000000000002 256 138.3Z" fill="#c7f7a4"/><circle cx="256" cy="253.1" r="77.89999999999999" fill="url(#head)"/><ellipse cx="223.2" cy="253.1" rx="14.349999999999998" ry="16.4" fill="#14213d"/><ellipse cx="288.8" cy="253.1" rx="14.349999999999998" ry="16.4" fill="#14213d"/><circle cx="229.35" cy="244.9" r="4.714999999999999" fill="#fff"/><circle cx="294.95" cy="244.9" r="4.714999999999999" fill="#fff"/><path d="M215 201.85000000000002 Q256 224.4 297 201.85000000000002" stroke="#c7f7a4" stroke-width="10.25" fill="none" stroke-linecap="round" opacity=".8"/>
  </g>
  <path d="M74 126 C170 65 334 65 438 126" stroke="#fff" stroke-width="16" stroke-linecap="round" opacity=".16"/>
  <path d="M63 676 C162 718 344 718 449 662" stroke="#fff" stroke-width="14" stroke-linecap="round" opacity=".16"/>
</svg>