<svg xmlns="http://www.w3.org/2000/svg" viewBox="0 0 512 768" role="img" aria-label="火花猴 original portrait">
  
  <defs>
    <linearGradient id="bgp104" x1="0" y1="0" x2="1" y2="1">
      <stop offset="0" stop-color="#ffd166"/>
      <stop offset=".55" stop-color="#ff6b35"/>
      <stop offset="1" stop-color="#a92d1d"/>
    </linearGradient>
    <radialGradient id="body" cx=".36" cy=".25" r=".76">
      <stop offset="0" stop-color="#ffd166"/>
      <stop offset=".6" stop-color="#ff6b35"/>
      <stop offset="1" stop-color="#a92d1d"/>
    </radialGradient>
    <radialGradient id="head" cx=".36" cy=".26" r=".72">
      <stop offset="0" stop-color="#ffffff" stop-opacity=".85"/>
      <stop offset=".2" stop-color="#ffd166"/>
      <stop offset=".72" stop-color="#ff6b35"/>
      <stop offset="1" stop-color="#a92d1d"/>
    </radialGradient>
    <filter id="softShadow" x="-30%" y="-30%" width="160%" height="160%">
      <feDropShadow dx="0" dy="8" stdDeviation="8" flood-color="#a92d1d" flood-opacity=".35"/>
    </filter>
  </defs>
  <rect width="512" height="768" rx="48" fill="url(#bgp104)"/>
  <rect x="24" y="24" width="464" height="720" rx="40" fill="#ffffff" opacity=".08"/>
  <g opacity=".42"><circle cx="119" cy="721" r="3.0" fill="#fff" opacity="0.48"/><circle cx="476" cy="536" r="2.0" fill="#fff" opacity="0.52"/><circle cx="89" cy="58" r="2.4" fill="#fff" opacity="0.62"/><circle cx="196" cy="655" r="1.0" fill="#fff" opacity="0.36"/><circle cx="248" cy="186" r="1.4" fill="#fff" opacity="0.53"/><circle cx="166" cy="737" r="3.0" fill="#fff" opacity="0.46"/><circle cx="377" cy="506" r="1.5" fill="#fff" opacity="0.66"/><circle cx="294" cy="758" r="2.6" fill="#fff" opacity="0.30"/><circle cx="5" cy="239" r="2.0" fill="#fff" opacity="0.26"/><circle cx="327" cy="318" r="1.0" fill="#fff" opacity="0.44"/><circle cx="89" cy="757" r="1.2" fill="#fff" opacity="0.48"/><circle cx="34" cy="116" r="2.3" fill="#fff" opacity="0.44"/><circle cx="334" cy="181" r="2.9" fill="#fff" opacity="0.45"/><circle cx="40" cy="331" r="1.6" fill="#fff" opacity="0.65"/><circle cx="216" cy="218" r="2.4" fill="#fff" opacity="0.56"/><circle cx="407" cy="380" r="1.0" fill="#fff" opacity="0.55"/><circle cx="460" cy="591" r="1.9" fill="#fff" opacity="0.62"/><circle cx="354" cy="525" r="2.7" fill="#fff" opacity="0.39"/><circle cx="149" cy="613" r="2.8" fill="#fff" opacity="0.50"/><circle cx="360" cy="722" r="1.6" fill="#fff" opacity="0.60"/><circle cx="121" cy="524" r="2.0" fill="#fff" opacity="0.56"/><circle cx="497" cy="356" r="1.0" fill="#fff" opacity="0.36"/><circle cx="61" cy="576" r="1.1" fill="#fff" opacity="0.45"/><circle cx="382" cy="528" r="1.2" fill="#fff" opacity="0.67"/><circle cx="174" cy="448" r="2.3" fill="#fff" opacity="0.59"/><circle cx="135" cy="270" r="1.5" fill="#fff" opacity="0.62"/><circle cx="37" cy="666" r="2.7" fill="#fff" opacity="0.59"/><circle cx="92" cy="269" r="1.8" fill="#fff" opacity="0.35"/></g>
  <path d="M18 704 C124 595 205 659 256 580 C314 666 392 596 494 704 V768 H18Z" fill="#a92d1d" opacity=".18"/>
  <ellipse cx="256" cy="662" rx="150" ry="34" fill="#a92d1d" opacity=".28"/>
  <g transform="translate(0 122)">
    <path d="M231.4 400.7 C128.9 376.1 83.80000000000001 265.4 198.60000000000002 275.65" fill="#ff6b35" opacity=".82"/><path d="M280.6 400.7 C383.1 376.1 428.2 265.4 313.4 275.65" fill="#ff6b35" opacity=".82"/><ellipse cx="256" cy="339.2" rx="98.39999999999999" ry="116.85" fill="url(#body)" filter="url(#softShadow)"/><path d="M256 138.3 C169.9 175.20000000000002 161.7 259.25 256 251.05 C350.3 259.25 342.1 175.20000000000002 256 138.3Z" fill="#ffd166"/><circle cx="256" cy="253.1" r="77.89999999999999" fill="url(#head)"/><ellipse cx="223.2" cy="253.1" rx="14.349999999999998" ry="16.4" fill="#14213d"/><ellipse cx="288.8" cy="253.1" rx="14.349999999999998" ry="16.4" fill="#14213d"/><circle cx="229.35" cy="244.9" r="4.714999999999999" fill="#fff"/><circle cx="294.95" cy="244.9" r="4.714999999999999" fill="#fff"/><circle cx="256" cy="210.05" r="14.349999999999998" fill="#ffd166" opacity=".9"/>
  </g>
  <path d="M74 126 C170 65 334 65 438 126" stroke="#fff" stroke-width="16" stroke-linecap="round" opacity=".16"/>
  <path d="M63 676 C162 718 344 718 449 662" stroke="#fff" stroke-width="14" stroke-linecap="round" opacity=".16"/>
</svg>