<svg xmlns="http://www.w3.org/2000/svg" viewBox="0 0 512 768" role="img" aria-label="斗战胜佛 original portrait">
  
  <defs>
    <linearGradient id="bgp106" x1="0" y1="0" x2="1" y2="1">
      <stop offset="0" stop-color="#ffd166"/>
      <stop offset=".55" stop-color="#ff6b35"/>
      <stop offset="1" stop-color="#a92d1d"/>
    </linearGradient>
    <radialGradient id="body" cx=".36" cy=".25" r=".76">
      <stop offset="0" stop-color="#ffd166"/>
      <stop offset=".6" stop-color="#ff6b35"/>
      <stop offset="1" stop-color="#a92d1d"/>
    </radialGradient>
    <radialGradient id="head" cx=".36" cy=".26" r=".72">
      <stop offset="0" stop-color="#ffffff" stop-opacity=".85"/>
      <stop offset=".2" stop-color="#ffd166"/>
      <stop offset=".72" stop-color="#ff6b35"/>
      <stop offset="1" stop-color="#a92d1d"/>
    </radialGradient>
    <filter id="softShadow" x="-30%" y="-30%" width="160%" height="160%">
      <feDropShadow dx="0" dy="8" stdDeviation="8" flood-color="#a92d1d" flood-opacity=".35"/>
    </filter>
  </defs>
  <rect width="512" height="768" rx="48" fill="url(#bgp106)"/>
  <rect x="24" y="24" width="464" height="720" rx="40" fill="#ffffff" opacity=".08"/>
  <g opacity=".42"><circle cx="253" cy="715" r="1.7" fill="#fff" opacity="0.63"/><circle cx="304" cy="673" r="2.8" fill="#fff" opacity="0.39"/><circle cx="464" cy="23" r="1.8" fill="#fff" opacity="0.28"/><circle cx="305" cy="454" r="1.7" fill="#fff" opacity="0.63"/><circle cx="289" cy="741" r="1.6" fill="#fff" opacity="0.39"/><circle cx="505" cy="301" r="0.9" fill="#fff" opacity="0.26"/><circle cx="292" cy="718" r="1.5" fill="#fff" opacity="0.61"/><circle cx="42" cy="159" r="1.3" fill="#fff" opacity="0.69"/><circle cx="334" cy="449" r="2.1" fill="#fff" opacity="0.37"/><circle cx="357" cy="131" r="2.0" fill="#fff" opacity="0.63"/><circle cx="148" cy="493" r="2.0" fill="#fff" opacity="0.43"/><circle cx="166" cy="407" r="1.6" fill="#fff" opacity="0.28"/><circle cx="466" cy="542" r="3.1" fill="#fff" opacity="0.55"/><circle cx="95" cy="234" r="0.8" fill="#fff" opacity="0.53"/><circle cx="179" cy="626" r="1.5" fill="#fff" opacity="0.48"/><circle cx="384" cy="495" r="2.1" fill="#fff" opacity="0.66"/><circle cx="375" cy="259" r="2.4" fill="#fff" opacity="0.52"/><circle cx="77" cy="592" r="1.6" fill="#fff" opacity="0.25"/><circle cx="383" cy="60" r="2.4" fill="#fff" opacity="0.36"/><circle cx="176" cy="527" r="0.9" fill="#fff" opacity="0.51"/><circle cx="366" cy="182" r="1.5" fill="#fff" opacity="0.43"/><circle cx="257" cy="512" r="2.9" fill="#fff" opacity="0.59"/><circle cx="380" cy="178" r="2.8" fill="#fff" opacity="0.64"/><circle cx="103" cy="216" r="1.7" fill="#fff" opacity="0.57"/><circle cx="365" cy="560" r="1.5" fill="#fff" opacity="0.67"/><circle cx="187" cy="20" r="1.0" fill="#fff" opacity="0.66"/><circle cx="366" cy="488" r="1.3" fill="#fff" opacity="0.38"/><circle cx="508" cy="368" r="1.1" fill="#fff" opacity="0.66"/></g>
  <path d="M38 684 C128 596 386 596 475 684 V768 H38Z" fill="#a92d1d" opacity=".17"/>
  <ellipse cx="256" cy="662" rx="150" ry="34" fill="#a92d1d" opacity=".28"/>
  <g transform="translate(0 122)">
    <ellipse cx="256" cy="359.7" rx="110.69999999999999" ry="100.44999999999999" fill="url(#body)" filter="url(#softShadow)"/><circle cx="256" cy="232.60000000000002" r="86.1" fill="url(#head)"/><path d="M149.4 322.8 C51.00000000000003 304.35 85.85000000000002 423.25 165.8 402.75" fill="#a92d1d"/><path d="M362.6 322.8 C461 304.35 426.15 423.25 346.2 402.75" fill="#a92d1d"/><path d="M200.65 148.55 H311.35 L331.85 195.7 Q256 224.4 180.15 195.7 Z" fill="#ffd166" opacity=".85"/><ellipse cx="223.2" cy="253.1" rx="14.349999999999998" ry="16.4" fill="#14213d"/><ellipse cx="288.8" cy="253.1" rx="14.349999999999998" ry="16.4" fill="#14213d"/><circle cx="229.35" cy="244.9" r="4.714999999999999" fill="#fff"/><circle cx="294.95" cy="244.9" r="4.714999999999999" fill="#fff"/><circle cx="256" cy="210.05" r="14.349999999999998" fill="#ffd166" opacity=".9"/>
  </g>
  <path d="M74 126 C170 65 334 65 438 126" stroke="#fff" stroke-width="16" stroke-linecap="round" opacity=".16"/>
  <path d="M63 676 C162 718 344 718 449 662" stroke="#fff" stroke-width="14" stroke-linecap="round" opacity=".16"/>
</svg>