<svg xmlns="http://www.w3.org/2000/svg" viewBox="0 0 512 768" role="img" aria-label="大嘴蝠 original portrait">
  
  <defs>
    <linearGradient id="bgp114" x1="0" y1="0" x2="1" y2="1">
      <stop offset="0" stop-color="#efb2ff"/>
      <stop offset=".55" stop-color="#9b5de5"/>
      <stop offset="1" stop-color="#4f2378"/>
    </linearGradient>
    <radialGradient id="body" cx=".36" cy=".25" r=".76">
      <stop offset="0" stop-color="#efb2ff"/>
      <stop offset=".6" stop-color="#9b5de5"/>
      <stop offset="1" stop-color="#4f2378"/>
    </radialGradient>
    <radialGradient id="head" cx=".36" cy=".26" r=".72">
      <stop offset="0" stop-color="#ffffff" stop-opacity=".85"/>
      <stop offset=".2" stop-color="#efb2ff"/>
      <stop offset=".72" stop-color="#9b5de5"/>
      <stop offset="1" stop-color="#4f2378"/>
    </radialGradient>
    <filter id="softShadow" x="-30%" y="-30%" width="160%" height="160%">
      <feDropShadow dx="0" dy="8" stdDeviation="8" flood-color="#4f2378" flood-opacity=".35"/>
    </filter>
  </defs>
  <rect width="512" height="768" rx="48" fill="url(#bgp114)"/>
  <rect x="24" y="24" width="464" height="720" rx="40" fill="#ffffff" opacity=".08"/>
  <g opacity=".42"><circle cx="435" cy="281" r="2.2" fill="#fff" opacity="0.29"/><circle cx="34" cy="106" r="2.3" fill="#fff" opacity="0.48"/><circle cx="288" cy="684" r="2.3" fill="#fff" opacity="0.41"/><circle cx="185" cy="568" r="1.1" fill="#fff" opacity="0.55"/><circle cx="451" cy="230" r="0.9" fill="#fff" opacity="0.43"/><circle cx="400" cy="180" r="2.7" fill="#fff" opacity="0.40"/><circle cx="308" cy="321" r="3.2" fill="#fff" opacity="0.65"/><circle cx="484" cy="396" r="3.1" fill="#fff" opacity="0.59"/><circle cx="271" cy="127" r="3.2" fill="#fff" opacity="0.36"/><circle cx="44" cy="565" r="1.2" fill="#fff" opacity="0.48"/><circle cx="58" cy="706" r="1.9" fill="#fff" opacity="0.42"/><circle cx="265" cy="82" r="1.0" fill="#fff" opacity="0.45"/><circle cx="47" cy="258" r="1.2" fill="#fff" opacity="0.33"/><circle cx="121" cy="681" r="2.7" fill="#fff" opacity="0.68"/><circle cx="77" cy="469" r="2.0" fill="#fff" opacity="0.59"/><circle cx="130" cy="416" r="3.1" fill="#fff" opacity="0.51"/><circle cx="127" cy="517" r="2.3" fill="#fff" opacity="0.63"/><circle cx="79" cy="270" r="2.5" fill="#fff" opacity="0.59"/><circle cx="264" cy="461" r="1.1" fill="#fff" opacity="0.59"/><circle cx="113" cy="544" r="2.1" fill="#fff" opacity="0.64"/><circle cx="144" cy="739" r="3.1" fill="#fff" opacity="0.46"/><circle cx="371" cy="566" r="1.2" fill="#fff" opacity="0.35"/><circle cx="342" cy="767" r="1.5" fill="#fff" opacity="0.45"/><circle cx="146" cy="422" r="2.2" fill="#fff" opacity="0.48"/><circle cx="196" cy="304" r="2.1" fill="#fff" opacity="0.67"/><circle cx="482" cy="460" r="2.6" fill="#fff" opacity="0.32"/><circle cx="185" cy="179" r="2.8" fill="#fff" opacity="0.35"/><circle cx="314" cy="659" r="1.5" fill="#fff" opacity="0.70"/></g>
  <path d="M0 620 C92 590 171 620 259 600 C357 577 432 594 512 565 V768 H0Z" fill="#fff" opacity=".18"/>
  <ellipse cx="256" cy="662" rx="150" ry="34" fill="#4f2378" opacity=".28"/>
  <g transform="translate(0 122)">
    <path d="M219.1 306.4 C65.35000000000002 187.5 67.4 392.5 206.8 400.7" fill="#9b5de5" opacity=".78"/><path d="M292.9 306.4 C446.65 187.5 444.6 392.5 305.2 400.7" fill="#9b5de5" opacity=".78"/><ellipse cx="256" cy="343.3" rx="86.1" ry="110.69999999999999" fill="url(#body)" filter="url(#softShadow)"/><circle cx="256" cy="228.5" r="77.89999999999999" fill="url(#head)"/><path d="M245.75 226.45 L331.85 249 L249.85 269.5 Z" fill="#efb2ff"/><path d="M210.9 154.70000000000002 C239.6 89.10000000000002 280.6 109.60000000000002 260.1 167" fill="#4f2378" opacity=".85"/><ellipse cx="223.2" cy="253.1" rx="14.349999999999998" ry="16.4" fill="#14213d"/><ellipse cx="288.8" cy="253.1" rx="14.349999999999998" ry="16.4" fill="#14213d"/><circle cx="229.35" cy="244.9" r="4.714999999999999" fill="#fff"/><circle cx="294.95" cy="244.9" r="4.714999999999999" fill="#fff"/><path d="M256 183.4 L278.55 212.10000000000002 L256 242.85 L233.45 212.10000000000002 Z" fill="#efb2ff" opacity=".92"/>
  </g>
  <path d="M74 126 C170 65 334 65 438 126" stroke="#fff" stroke-width="16" stroke-linecap="round" opacity=".16"/>
  <path d="M63 676 C162 718 344 718 449 662" stroke="#fff" stroke-width="14" stroke-linecap="round" opacity=".16"/>
</svg>