<svg xmlns="http://www.w3.org/2000/svg" viewBox="0 0 512 768" role="img" aria-label="臭臭花 original portrait">
  
  <defs>
    <linearGradient id="bgp116" x1="0" y1="0" x2="1" y2="1">
      <stop offset="0" stop-color="#efb2ff"/>
      <stop offset=".55" stop-color="#9b5de5"/>
      <stop offset="1" stop-color="#4f2378"/>
    </linearGradient>
    <radialGradient id="body" cx=".36" cy=".25" r=".76">
      <stop offset="0" stop-color="#efb2ff"/>
      <stop offset=".6" stop-color="#9b5de5"/>
      <stop offset="1" stop-color="#4f2378"/>
    </radialGradient>
    <radialGradient id="head" cx=".36" cy=".26" r=".72">
      <stop offset="0" stop-color="#ffffff" stop-opacity=".85"/>
      <stop offset=".2" stop-color="#efb2ff"/>
      <stop offset=".72" stop-color="#9b5de5"/>
      <stop offset="1" stop-color="#4f2378"/>
    </radialGradient>
    <filter id="softShadow" x="-30%" y="-30%" width="160%" height="160%">
      <feDropShadow dx="0" dy="8" stdDeviation="8" flood-color="#4f2378" flood-opacity=".35"/>
    </filter>
  </defs>
  <rect width="512" height="768" rx="48" fill="url(#bgp116)"/>
  <rect x="24" y="24" width="464" height="720" rx="40" fill="#ffffff" opacity=".08"/>
  <g opacity=".42"><circle cx="205" cy="630" r="2.2" fill="#fff" opacity="0.63"/><circle cx="33" cy="218" r="2.1" fill="#fff" opacity="0.69"/><circle cx="88" cy="96" r="2.6" fill="#fff" opacity="0.67"/><circle cx="105" cy="328" r="2.0" fill="#fff" opacity="0.55"/><circle cx="202" cy="93" r="1.7" fill="#fff" opacity="0.38"/><circle cx="12" cy="593" r="1.3" fill="#fff" opacity="0.38"/><circle cx="394" cy="651" r="1.2" fill="#fff" opacity="0.66"/><circle cx="301" cy="448" r="0.9" fill="#fff" opacity="0.68"/><circle cx="19" cy="690" r="1.5" fill="#fff" opacity="0.47"/><circle cx="92" cy="286" r="2.7" fill="#fff" opacity="0.31"/><circle cx="432" cy="235" r="1.6" fill="#fff" opacity="0.67"/><circle cx="84" cy="125" r="2.1" fill="#fff" opacity="0.43"/><circle cx="95" cy="13" r="1.0" fill="#fff" opacity="0.70"/><circle cx="160" cy="357" r="2.9" fill="#fff" opacity="0.63"/><circle cx="478" cy="428" r="2.0" fill="#fff" opacity="0.55"/><circle cx="464" cy="80" r="1.6" fill="#fff" opacity="0.45"/><circle cx="59" cy="51" r="2.9" fill="#fff" opacity="0.27"/><circle cx="259" cy="560" r="1.5" fill="#fff" opacity="0.34"/><circle cx="25" cy="246" r="3.0" fill="#fff" opacity="0.35"/><circle cx="424" cy="534" r="1.1" fill="#fff" opacity="0.50"/><circle cx="212" cy="243" r="1.0" fill="#fff" opacity="0.35"/><circle cx="200" cy="594" r="2.8" fill="#fff" opacity="0.44"/><circle cx="311" cy="226" r="1.5" fill="#fff" opacity="0.51"/><circle cx="119" cy="723" r="3.1" fill="#fff" opacity="0.68"/><circle cx="142" cy="464" r="2.6" fill="#fff" opacity="0.36"/><circle cx="196" cy="714" r="2.6" fill="#fff" opacity="0.39"/><circle cx="278" cy="84" r="2.3" fill="#fff" opacity="0.55"/><circle cx="286" cy="624" r="3.0" fill="#fff" opacity="0.70"/></g>
  <path d="M18 704 C124 595 205 659 256 580 C314 666 392 596 494 704 V768 H18Z" fill="#4f2378" opacity=".18"/>
  <ellipse cx="256" cy="662" rx="150" ry="34" fill="#4f2378" opacity=".28"/>
  <g transform="translate(0 122)">
    <path d="M231.4 400.7 C128.9 376.1 83.80000000000001 265.4 198.60000000000002 275.65" fill="#9b5de5" opacity=".82"/><path d="M280.6 400.7 C383.1 376.1 428.2 265.4 313.4 275.65" fill="#9b5de5" opacity=".82"/><ellipse cx="256" cy="339.2" rx="98.39999999999999" ry="116.85" fill="url(#body)" filter="url(#softShadow)"/><path d="M256 138.3 C169.9 175.20000000000002 161.7 259.25 256 251.05 C350.3 259.25 342.1 175.20000000000002 256 138.3Z" fill="#efb2ff"/><circle cx="256" cy="253.1" r="77.89999999999999" fill="url(#head)"/><ellipse cx="223.2" cy="253.1" rx="14.349999999999998" ry="16.4" fill="#14213d"/><ellipse cx="288.8" cy="253.1" rx="14.349999999999998" ry="16.4" fill="#14213d"/><circle cx="229.35" cy="244.9" r="4.714999999999999" fill="#fff"/><circle cx="294.95" cy="244.9" r="4.714999999999999" fill="#fff"/><path d="M256 183.4 L278.55 212.10000000000002 L256 242.85 L233.45 212.10000000000002 Z" fill="#efb2ff" opacity=".92"/>
  </g>
  <path d="M74 126 C170 65 334 65 438 126" stroke="#fff" stroke-width="16" stroke-linecap="round" opacity=".16"/>
  <path d="M63 676 C162 718 344 718 449 662" stroke="#fff" stroke-width="14" stroke-linecap="round" opacity=".16"/>
</svg>