<svg xmlns="http://www.w3.org/2000/svg" viewBox="0 0 512 768" role="img" aria-label="烈焰巡狼 unique portrait">
  <defs>
    <linearGradient id="bg12" x1="0" y1="0" x2="1" y2="1"><stop offset="0" stop-color="#ffd166"/><stop offset=".55" stop-color="#ff6b35"/><stop offset="1" stop-color="#a92d1d"/></linearGradient>
    <radialGradient id="body12" cx=".35" cy=".24" r=".78"><stop offset="0" stop-color="#fff" stop-opacity=".88"/><stop offset=".18" stop-color="#ffd166"/><stop offset=".68" stop-color="#ff6b35"/><stop offset="1" stop-color="#a92d1d"/></radialGradient>
    <filter id="shadow12" x="-30%" y="-30%" width="160%" height="160%"><feDropShadow dx="0" dy="10" stdDeviation="9" flood-color="#a92d1d" flood-opacity=".36"/></filter>
  </defs>
  <rect width="512" height="768" rx="48" fill="url(#bg12)"/>
  <rect x="24" y="24" width="464" height="720" rx="40" fill="#fff" opacity=".08"/>
  <g opacity=".46"><circle cx="447" cy="585" r="4.8" fill="#fff" opacity="0.27"/><circle cx="200" cy="317" r="3.3" fill="#fff" opacity="0.45"/><circle cx="304" cy="204" r="4.5" fill="#fff" opacity="0.53"/><circle cx="397" cy="369" r="1.7" fill="#fff" opacity="0.31"/><circle cx="425" cy="311" r="1.9" fill="#fff" opacity="0.45"/><circle cx="132" cy="473" r="2.1" fill="#fff" opacity="0.57"/><circle cx="334" cy="363" r="1.4" fill="#fff" opacity="0.39"/><circle cx="205" cy="528" r="5.3" fill="#fff" opacity="0.45"/><circle cx="159" cy="290" r="3.4" fill="#fff" opacity="0.27"/><circle cx="387" cy="435" r="3.2" fill="#fff" opacity="0.33"/><circle cx="151" cy="76" r="1.9" fill="#fff" opacity="0.63"/><circle cx="329" cy="597" r="3.1" fill="#fff" opacity="0.40"/><circle cx="346" cy="574" r="3.3" fill="#fff" opacity="0.46"/><circle cx="328" cy="430" r="3.0" fill="#fff" opacity="0.49"/><circle cx="308" cy="290" r="3.9" fill="#fff" opacity="0.27"/><circle cx="100" cy="164" r="1.2" fill="#fff" opacity="0.26"/><circle cx="380" cy="456" r="2.2" fill="#fff" opacity="0.43"/><circle cx="275" cy="369" r="2.4" fill="#fff" opacity="0.51"/><circle cx="400" cy="296" r="5.1" fill="#fff" opacity="0.52"/></g>
  <path d="M0 596 C80 558 128 616 202 584 C281 550 332 618 418 582 C464 563 492 570 512 586 V768 H0Z" fill="#a92d1d" opacity=".22"/>
  <ellipse cx="256" cy="664" rx="154" ry="36" fill="#a92d1d" opacity=".3"/>
  <g transform="translate(0 84)"><path d="M316 492 C426 508 425 604 334 594 C391 562 368 528 302 536" fill="none" stroke="#ff6b35" stroke-width="34" stroke-linecap="round" opacity=".72"/><path d="M178 196 L133 114 L221 170 Z" fill="#ff6b35" opacity=".8"/><path d="M334 196 L379 114 L291 170 Z" fill="#ff6b35" opacity=".8"/><path d="M151 500 C116 338 160 190 256 170 C352 190 396 338 361 500 C320 466 291 532 256 490 C221 532 192 466 151 500Z" fill="url(#body12)" filter="url(#shadow12)"/>
    <circle cx="214" cy="327" r="17" fill="#101827"/><circle cx="298" cy="327" r="17" fill="#101827"/>
    <circle cx="208" cy="321" r="5" fill="#fff" opacity=".75"/><circle cx="292" cy="321" r="5" fill="#fff" opacity=".75"/>
    <path d="M206 410 Q256 442 306 410" stroke="#a92d1d" stroke-width="12" fill="none" stroke-linecap="round" opacity=".72"/>
    <path d="M188 560 C228 600 288 600 326 560" stroke="#fff" stroke-width="12" stroke-linecap="round" opacity=".18" fill="none"/>
  </g>
  <path d="M72 128 C168 68 334 66 440 128" stroke="#fff" stroke-width="16" stroke-linecap="round" opacity=".16"/>
  <path d="M60 678 C164 722 348 718 452 662" stroke="#fff" stroke-width="14" stroke-linecap="round" opacity=".16"/>
</svg>