<svg xmlns="http://www.w3.org/2000/svg" viewBox="0 0 512 768" role="img" aria-label="可达鸭 original portrait">
  
  <defs>
    <linearGradient id="bgp120" x1="0" y1="0" x2="1" y2="1">
      <stop offset="0" stop-color="#9ee8ff"/>
      <stop offset=".55" stop-color="#2397d5"/>
      <stop offset="1" stop-color="#0b4f8f"/>
    </linearGradient>
    <radialGradient id="body" cx=".36" cy=".25" r=".76">
      <stop offset="0" stop-color="#9ee8ff"/>
      <stop offset=".6" stop-color="#2397d5"/>
      <stop offset="1" stop-color="#0b4f8f"/>
    </radialGradient>
    <radialGradient id="head" cx=".36" cy=".26" r=".72">
      <stop offset="0" stop-color="#ffffff" stop-opacity=".85"/>
      <stop offset=".2" stop-color="#9ee8ff"/>
      <stop offset=".72" stop-color="#2397d5"/>
      <stop offset="1" stop-color="#0b4f8f"/>
    </radialGradient>
    <filter id="softShadow" x="-30%" y="-30%" width="160%" height="160%">
      <feDropShadow dx="0" dy="8" stdDeviation="8" flood-color="#0b4f8f" flood-opacity=".35"/>
    </filter>
  </defs>
  <rect width="512" height="768" rx="48" fill="url(#bgp120)"/>
  <rect x="24" y="24" width="464" height="720" rx="40" fill="#ffffff" opacity=".08"/>
  <g opacity=".42"><circle cx="130" cy="314" r="3.2" fill="#fff" opacity="0.64"/><circle cx="206" cy="437" r="1.9" fill="#fff" opacity="0.63"/><circle cx="219" cy="33" r="1.8" fill="#fff" opacity="0.46"/><circle cx="393" cy="655" r="2.6" fill="#fff" opacity="0.69"/><circle cx="359" cy="511" r="1.0" fill="#fff" opacity="0.49"/><circle cx="31" cy="482" r="2.8" fill="#fff" opacity="0.52"/><circle cx="450" cy="442" r="2.8" fill="#fff" opacity="0.46"/><circle cx="136" cy="760" r="2.9" fill="#fff" opacity="0.47"/><circle cx="222" cy="220" r="1.5" fill="#fff" opacity="0.48"/><circle cx="435" cy="91" r="2.6" fill="#fff" opacity="0.45"/><circle cx="104" cy="581" r="3.0" fill="#fff" opacity="0.33"/><circle cx="252" cy="203" r="1.6" fill="#fff" opacity="0.69"/><circle cx="224" cy="382" r="1.5" fill="#fff" opacity="0.34"/><circle cx="344" cy="225" r="3.0" fill="#fff" opacity="0.55"/><circle cx="363" cy="225" r="1.7" fill="#fff" opacity="0.48"/><circle cx="70" cy="160" r="3.1" fill="#fff" opacity="0.41"/><circle cx="416" cy="285" r="2.0" fill="#fff" opacity="0.39"/><circle cx="465" cy="387" r="1.4" fill="#fff" opacity="0.39"/><circle cx="426" cy="87" r="2.2" fill="#fff" opacity="0.62"/><circle cx="153" cy="105" r="1.9" fill="#fff" opacity="0.51"/><circle cx="380" cy="730" r="2.2" fill="#fff" opacity="0.45"/><circle cx="356" cy="190" r="2.1" fill="#fff" opacity="0.66"/><circle cx="41" cy="227" r="2.3" fill="#fff" opacity="0.33"/><circle cx="401" cy="685" r="2.0" fill="#fff" opacity="0.58"/><circle cx="510" cy="174" r="3.0" fill="#fff" opacity="0.27"/><circle cx="181" cy="740" r="0.9" fill="#fff" opacity="0.48"/><circle cx="292" cy="85" r="2.7" fill="#fff" opacity="0.53"/><circle cx="89" cy="224" r="1.7" fill="#fff" opacity="0.58"/></g>
  <path d="M0 670 C96 613 167 665 256 620 C337 660 421 608 512 662 V768 H0Z" fill="#0b4f8f" opacity=".15"/>
  <ellipse cx="256" cy="662" rx="150" ry="34" fill="#0b4f8f" opacity=".28"/>
  <g transform="translate(0 122)">
    <path d="M352.35 347.4 C442.54999999999995 322.8 420 222.35000000000002 346.2 263.35" stroke="#2397d5" stroke-width="28.699999999999996" fill="none" stroke-linecap="round" opacity=".76"/><ellipse cx="256" cy="353.55" rx="108.64999999999999" ry="102.49999999999999" fill="url(#body)" filter="url(#softShadow)"/><path d="M184.25 212.10000000000002 L137.10000000000002 115.75000000000003 L231.4 175.20000000000002 Z" fill="#2397d5"/><path d="M327.75 212.10000000000002 L374.9 115.75000000000003 L280.6 175.20000000000002 Z" fill="#2397d5"/><circle cx="256" cy="234.65" r="92.24999999999999" fill="url(#head)"/><ellipse cx="221.15" cy="251.05" rx="16.4" ry="20.5" fill="#182033"/><ellipse cx="290.85" cy="251.05" rx="16.4" ry="20.5" fill="#182033"/><ellipse cx="223.2" cy="253.1" rx="14.349999999999998" ry="16.4" fill="#14213d"/><ellipse cx="288.8" cy="253.1" rx="14.349999999999998" ry="16.4" fill="#14213d"/><circle cx="229.35" cy="244.9" r="4.714999999999999" fill="#fff"/><circle cx="294.95" cy="244.9" r="4.714999999999999" fill="#fff"/><path d="M215 201.85000000000002 Q256 224.4 297 201.85000000000002" stroke="#9ee8ff" stroke-width="10.25" fill="none" stroke-linecap="round" opacity=".8"/>
  </g>
  <path d="M74 126 C170 65 334 65 438 126" stroke="#fff" stroke-width="16" stroke-linecap="round" opacity=".16"/>
  <path d="M63 676 C162 718 344 718 449 662" stroke="#fff" stroke-width="14" stroke-linecap="round" opacity=".16"/>
</svg>