<svg xmlns="http://www.w3.org/2000/svg" viewBox="0 0 512 768" role="img" aria-label="火伊布 original portrait">
  
  <defs>
    <linearGradient id="bgp128" x1="0" y1="0" x2="1" y2="1">
      <stop offset="0" stop-color="#ffd166"/>
      <stop offset=".55" stop-color="#ff6b35"/>
      <stop offset="1" stop-color="#a92d1d"/>
    </linearGradient>
    <radialGradient id="body" cx=".36" cy=".25" r=".76">
      <stop offset="0" stop-color="#ffd166"/>
      <stop offset=".6" stop-color="#ff6b35"/>
      <stop offset="1" stop-color="#a92d1d"/>
    </radialGradient>
    <radialGradient id="head" cx=".36" cy=".26" r=".72">
      <stop offset="0" stop-color="#ffffff" stop-opacity=".85"/>
      <stop offset=".2" stop-color="#ffd166"/>
      <stop offset=".72" stop-color="#ff6b35"/>
      <stop offset="1" stop-color="#a92d1d"/>
    </radialGradient>
    <filter id="softShadow" x="-30%" y="-30%" width="160%" height="160%">
      <feDropShadow dx="0" dy="8" stdDeviation="8" flood-color="#a92d1d" flood-opacity=".35"/>
    </filter>
  </defs>
  <rect width="512" height="768" rx="48" fill="url(#bgp128)"/>
  <rect x="24" y="24" width="464" height="720" rx="40" fill="#ffffff" opacity=".08"/>
  <g opacity=".42"><circle cx="112" cy="166" r="2.0" fill="#fff" opacity="0.50"/><circle cx="412" cy="580" r="1.5" fill="#fff" opacity="0.52"/><circle cx="148" cy="125" r="3.0" fill="#fff" opacity="0.37"/><circle cx="411" cy="236" r="2.0" fill="#fff" opacity="0.47"/><circle cx="55" cy="528" r="3.1" fill="#fff" opacity="0.26"/><circle cx="225" cy="36" r="2.0" fill="#fff" opacity="0.33"/><circle cx="30" cy="365" r="2.2" fill="#fff" opacity="0.35"/><circle cx="368" cy="133" r="1.8" fill="#fff" opacity="0.53"/><circle cx="503" cy="454" r="1.3" fill="#fff" opacity="0.49"/><circle cx="360" cy="621" r="2.1" fill="#fff" opacity="0.33"/><circle cx="272" cy="137" r="1.1" fill="#fff" opacity="0.46"/><circle cx="68" cy="294" r="1.3" fill="#fff" opacity="0.29"/><circle cx="36" cy="93" r="3.0" fill="#fff" opacity="0.51"/><circle cx="365" cy="78" r="2.4" fill="#fff" opacity="0.68"/><circle cx="5" cy="715" r="2.4" fill="#fff" opacity="0.44"/><circle cx="310" cy="509" r="2.1" fill="#fff" opacity="0.68"/><circle cx="190" cy="326" r="2.8" fill="#fff" opacity="0.43"/><circle cx="63" cy="758" r="0.8" fill="#fff" opacity="0.69"/><circle cx="86" cy="625" r="1.2" fill="#fff" opacity="0.68"/><circle cx="407" cy="531" r="2.7" fill="#fff" opacity="0.29"/><circle cx="331" cy="52" r="2.0" fill="#fff" opacity="0.68"/><circle cx="161" cy="380" r="1.4" fill="#fff" opacity="0.52"/><circle cx="105" cy="45" r="1.0" fill="#fff" opacity="0.41"/><circle cx="125" cy="438" r="2.5" fill="#fff" opacity="0.63"/><circle cx="312" cy="604" r="1.7" fill="#fff" opacity="0.64"/><circle cx="177" cy="591" r="2.9" fill="#fff" opacity="0.51"/><circle cx="124" cy="213" r="0.9" fill="#fff" opacity="0.38"/><circle cx="170" cy="516" r="1.4" fill="#fff" opacity="0.52"/></g>
  <path d="M0 670 C96 613 167 665 256 620 C337 660 421 608 512 662 V768 H0Z" fill="#a92d1d" opacity=".15"/>
  <ellipse cx="256" cy="662" rx="150" ry="34" fill="#a92d1d" opacity=".28"/>
  <g transform="translate(0 122)">
    <path d="M159.65 347.4 C69.45000000000002 322.8 92 222.35000000000002 165.8 263.35" stroke="#ff6b35" stroke-width="28.699999999999996" fill="none" stroke-linecap="round" opacity=".76"/><ellipse cx="256" cy="353.55" rx="108.64999999999999" ry="102.49999999999999" fill="url(#body)" filter="url(#softShadow)"/><path d="M184.25 212.10000000000002 L137.10000000000002 115.75000000000003 L231.4 175.20000000000002 Z" fill="#ff6b35"/><path d="M327.75 212.10000000000002 L374.9 115.75000000000003 L280.6 175.20000000000002 Z" fill="#ff6b35"/><circle cx="256" cy="234.65" r="92.24999999999999" fill="url(#head)"/><ellipse cx="221.15" cy="251.05" rx="16.4" ry="20.5" fill="#182033"/><ellipse cx="290.85" cy="251.05" rx="16.4" ry="20.5" fill="#182033"/><ellipse cx="223.2" cy="253.1" rx="14.349999999999998" ry="16.4" fill="#14213d"/><ellipse cx="288.8" cy="253.1" rx="14.349999999999998" ry="16.4" fill="#14213d"/><circle cx="229.35" cy="244.9" r="4.714999999999999" fill="#fff"/><circle cx="294.95" cy="244.9" r="4.714999999999999" fill="#fff"/><path d="M215 201.85000000000002 Q256 224.4 297 201.85000000000002" stroke="#ffd166" stroke-width="10.25" fill="none" stroke-linecap="round" opacity=".8"/>
  </g>
  <path d="M74 126 C170 65 334 65 438 126" stroke="#fff" stroke-width="16" stroke-linecap="round" opacity=".16"/>
  <path d="M63 676 C162 718 344 718 449 662" stroke="#fff" stroke-width="14" stroke-linecap="round" opacity=".16"/>
</svg>