<svg xmlns="http://www.w3.org/2000/svg" viewBox="0 0 512 768" role="img" aria-label="太阳伊布 original portrait">
  
  <defs>
    <linearGradient id="bgp129" x1="0" y1="0" x2="1" y2="1">
      <stop offset="0" stop-color="#ffd0ec"/>
      <stop offset=".55" stop-color="#e056a7"/>
      <stop offset="1" stop-color="#6d327d"/>
    </linearGradient>
    <radialGradient id="body" cx=".36" cy=".25" r=".76">
      <stop offset="0" stop-color="#ffd0ec"/>
      <stop offset=".6" stop-color="#e056a7"/>
      <stop offset="1" stop-color="#6d327d"/>
    </radialGradient>
    <radialGradient id="head" cx=".36" cy=".26" r=".72">
      <stop offset="0" stop-color="#ffffff" stop-opacity=".85"/>
      <stop offset=".2" stop-color="#ffd0ec"/>
      <stop offset=".72" stop-color="#e056a7"/>
      <stop offset="1" stop-color="#6d327d"/>
    </radialGradient>
    <filter id="softShadow" x="-30%" y="-30%" width="160%" height="160%">
      <feDropShadow dx="0" dy="8" stdDeviation="8" flood-color="#6d327d" flood-opacity=".35"/>
    </filter>
  </defs>
  <rect width="512" height="768" rx="48" fill="url(#bgp129)"/>
  <rect x="24" y="24" width="464" height="720" rx="40" fill="#ffffff" opacity=".08"/>
  <g opacity=".42"><circle cx="112" cy="80" r="3.0" fill="#fff" opacity="0.32"/><circle cx="436" cy="406" r="1.3" fill="#fff" opacity="0.48"/><circle cx="83" cy="536" r="1.5" fill="#fff" opacity="0.37"/><circle cx="438" cy="339" r="2.9" fill="#fff" opacity="0.30"/><circle cx="328" cy="690" r="2.6" fill="#fff" opacity="0.46"/><circle cx="122" cy="397" r="1.6" fill="#fff" opacity="0.34"/><circle cx="147" cy="210" r="1.1" fill="#fff" opacity="0.25"/><circle cx="171" cy="458" r="3.2" fill="#fff" opacity="0.64"/><circle cx="283" cy="149" r="1.6" fill="#fff" opacity="0.49"/><circle cx="451" cy="447" r="1.4" fill="#fff" opacity="0.32"/><circle cx="232" cy="152" r="2.8" fill="#fff" opacity="0.39"/><circle cx="192" cy="514" r="2.9" fill="#fff" opacity="0.68"/><circle cx="482" cy="361" r="2.2" fill="#fff" opacity="0.38"/><circle cx="252" cy="311" r="1.7" fill="#fff" opacity="0.46"/><circle cx="459" cy="724" r="1.7" fill="#fff" opacity="0.58"/><circle cx="118" cy="637" r="2.7" fill="#fff" opacity="0.59"/><circle cx="201" cy="502" r="2.4" fill="#fff" opacity="0.50"/><circle cx="327" cy="738" r="1.0" fill="#fff" opacity="0.43"/><circle cx="57" cy="585" r="1.1" fill="#fff" opacity="0.28"/><circle cx="144" cy="166" r="2.6" fill="#fff" opacity="0.33"/><circle cx="252" cy="618" r="1.5" fill="#fff" opacity="0.28"/><circle cx="143" cy="593" r="2.1" fill="#fff" opacity="0.49"/><circle cx="275" cy="512" r="2.6" fill="#fff" opacity="0.62"/><circle cx="467" cy="683" r="2.9" fill="#fff" opacity="0.46"/><circle cx="78" cy="451" r="0.8" fill="#fff" opacity="0.53"/><circle cx="147" cy="640" r="1.4" fill="#fff" opacity="0.62"/><circle cx="212" cy="324" r="0.9" fill="#fff" opacity="0.62"/><circle cx="40" cy="137" r="2.8" fill="#fff" opacity="0.68"/></g>
  <circle cx="256" cy="294" r="211" fill="#ffd0ec" opacity=".12"/><circle cx="256" cy="294" r="169" fill="#fff" opacity=".1"/>
  <ellipse cx="256" cy="662" rx="150" ry="34" fill="#6d327d" opacity=".28"/>
  <g transform="translate(0 122)">
    <ellipse cx="256" cy="339.2" rx="100.44999999999999" ry="112.74999999999999" fill="url(#body)" filter="url(#softShadow)"/><circle cx="256" cy="226.45" r="79.94999999999999" fill="url(#head)"/><ellipse cx="256" cy="214.15" rx="139.39999999999998" ry="36.9" fill="none" stroke="#ffd0ec" stroke-width="14.349999999999998" opacity=".75" transform="rotate(-12 256 214.15)"/><path d="M256 103.45000000000002 L276.5 154.70000000000002 L333.9 156.75 L286.75 187.5 L303.15 242.85 L256 208 L208.85 242.85 L225.25 187.5 L178.10000000000002 156.75 L235.5 154.70000000000002 Z" fill="#e056a7"/><ellipse cx="223.2" cy="253.1" rx="14.349999999999998" ry="16.4" fill="#14213d"/><ellipse cx="288.8" cy="253.1" rx="14.349999999999998" ry="16.4" fill="#14213d"/><circle cx="229.35" cy="244.9" r="4.714999999999999" fill="#fff"/><circle cx="294.95" cy="244.9" r="4.714999999999999" fill="#fff"/><path d="M256 183.4 L278.55 212.10000000000002 L256 242.85 L233.45 212.10000000000002 Z" fill="#ffd0ec" opacity=".92"/>
  </g>
  <path d="M74 126 C170 65 334 65 438 126" stroke="#fff" stroke-width="16" stroke-linecap="round" opacity=".16"/>
  <path d="M63 676 C162 718 344 718 449 662" stroke="#fff" stroke-width="14" stroke-linecap="round" opacity=".16"/>
</svg>