<svg xmlns="http://www.w3.org/2000/svg" viewBox="0 0 512 768" role="img" aria-label="灾焰魔狼 unique portrait">
  <defs>
    <linearGradient id="bg13" x1="0" y1="0" x2="1" y2="1"><stop offset="0" stop-color="#ffd166"/><stop offset=".55" stop-color="#ff6b35"/><stop offset="1" stop-color="#a92d1d"/></linearGradient>
    <radialGradient id="body13" cx=".35" cy=".24" r=".78"><stop offset="0" stop-color="#fff" stop-opacity=".88"/><stop offset=".18" stop-color="#ffd166"/><stop offset=".68" stop-color="#ff6b35"/><stop offset="1" stop-color="#a92d1d"/></radialGradient>
    <filter id="shadow13" x="-30%" y="-30%" width="160%" height="160%"><feDropShadow dx="0" dy="10" stdDeviation="9" flood-color="#a92d1d" flood-opacity=".36"/></filter>
  </defs>
  <rect width="512" height="768" rx="48" fill="url(#bg13)"/>
  <rect x="24" y="24" width="464" height="720" rx="40" fill="#fff" opacity=".08"/>
  <g opacity=".46"><circle cx="374" cy="437" r="1.7" fill="#fff" opacity="0.44"/><circle cx="51" cy="207" r="4.3" fill="#fff" opacity="0.54"/><circle cx="216" cy="327" r="2.7" fill="#fff" opacity="0.42"/><circle cx="200" cy="536" r="2.5" fill="#fff" opacity="0.26"/><circle cx="54" cy="605" r="3.4" fill="#fff" opacity="0.48"/><circle cx="457" cy="104" r="3.2" fill="#fff" opacity="0.61"/><circle cx="313" cy="565" r="2.7" fill="#fff" opacity="0.56"/><circle cx="364" cy="527" r="5.2" fill="#fff" opacity="0.24"/><circle cx="179" cy="424" r="1.8" fill="#fff" opacity="0.24"/><circle cx="177" cy="408" r="2.1" fill="#fff" opacity="0.41"/><circle cx="141" cy="496" r="4.3" fill="#fff" opacity="0.41"/><circle cx="297" cy="73" r="3.8" fill="#fff" opacity="0.22"/><circle cx="103" cy="520" r="3.4" fill="#fff" opacity="0.45"/><circle cx="243" cy="296" r="2.1" fill="#fff" opacity="0.40"/><circle cx="118" cy="203" r="3.3" fill="#fff" opacity="0.41"/><circle cx="388" cy="611" r="3.9" fill="#fff" opacity="0.49"/><circle cx="442" cy="300" r="2.4" fill="#fff" opacity="0.41"/><circle cx="359" cy="182" r="2.4" fill="#fff" opacity="0.37"/><circle cx="338" cy="292" r="2.0" fill="#fff" opacity="0.57"/><circle cx="450" cy="507" r="4.0" fill="#fff" opacity="0.25"/><circle cx="276" cy="407" r="4.2" fill="#fff" opacity="0.23"/></g>
  <path d="M0 596 C80 558 128 616 202 584 C281 550 332 618 418 582 C464 563 492 570 512 586 V768 H0Z" fill="#a92d1d" opacity=".22"/>
  <ellipse cx="256" cy="664" rx="154" ry="36" fill="#a92d1d" opacity=".3"/>
  <g transform="translate(0 84)"><path d="M151 500 C116 338 160 190 256 170 C352 190 396 338 361 500 C320 466 291 532 256 490 C221 532 192 466 151 500Z" fill="url(#body13)" filter="url(#shadow13)"/>
    <circle cx="210" cy="329" r="17" fill="#101827"/><circle cx="302" cy="329" r="17" fill="#101827"/>
    <circle cx="204" cy="323" r="5" fill="#fff" opacity=".75"/><circle cx="296" cy="323" r="5" fill="#fff" opacity=".75"/>
    <path d="M206 410 Q256 442 306 410" stroke="#a92d1d" stroke-width="12" fill="none" stroke-linecap="round" opacity=".72"/>
    <path d="M188 560 C228 600 288 600 326 560" stroke="#fff" stroke-width="12" stroke-linecap="round" opacity=".18" fill="none"/>
  </g>
  <path d="M72 128 C168 68 334 66 440 128" stroke="#fff" stroke-width="16" stroke-linecap="round" opacity=".16"/>
  <path d="M60 678 C164 722 348 718 452 662" stroke="#fff" stroke-width="14" stroke-linecap="round" opacity=".16"/>
</svg>