<svg xmlns="http://www.w3.org/2000/svg" viewBox="0 0 512 768" role="img" aria-label="月亮伊布 original portrait">
  
  <defs>
    <linearGradient id="bgp130" x1="0" y1="0" x2="1" y2="1">
      <stop offset="0" stop-color="#9ba0bb"/>
      <stop offset=".55" stop-color="#4a4b68"/>
      <stop offset="1" stop-color="#171728"/>
    </linearGradient>
    <radialGradient id="body" cx=".36" cy=".25" r=".76">
      <stop offset="0" stop-color="#9ba0bb"/>
      <stop offset=".6" stop-color="#4a4b68"/>
      <stop offset="1" stop-color="#171728"/>
    </radialGradient>
    <radialGradient id="head" cx=".36" cy=".26" r=".72">
      <stop offset="0" stop-color="#ffffff" stop-opacity=".85"/>
      <stop offset=".2" stop-color="#9ba0bb"/>
      <stop offset=".72" stop-color="#4a4b68"/>
      <stop offset="1" stop-color="#171728"/>
    </radialGradient>
    <filter id="softShadow" x="-30%" y="-30%" width="160%" height="160%">
      <feDropShadow dx="0" dy="8" stdDeviation="8" flood-color="#171728" flood-opacity=".35"/>
    </filter>
  </defs>
  <rect width="512" height="768" rx="48" fill="url(#bgp130)"/>
  <rect x="24" y="24" width="464" height="720" rx="40" fill="#ffffff" opacity=".08"/>
  <g opacity=".42"><circle cx="119" cy="205" r="1.8" fill="#fff" opacity="0.28"/><circle cx="477" cy="450" r="0.8" fill="#fff" opacity="0.54"/><circle cx="155" cy="753" r="2.3" fill="#fff" opacity="0.58"/><circle cx="343" cy="477" r="1.3" fill="#fff" opacity="0.34"/><circle cx="157" cy="59" r="3.2" fill="#fff" opacity="0.54"/><circle cx="336" cy="198" r="2.6" fill="#fff" opacity="0.40"/><circle cx="509" cy="70" r="1.9" fill="#fff" opacity="0.60"/><circle cx="485" cy="262" r="1.1" fill="#fff" opacity="0.35"/><circle cx="498" cy="374" r="0.8" fill="#fff" opacity="0.68"/><circle cx="390" cy="118" r="2.4" fill="#fff" opacity="0.63"/><circle cx="454" cy="246" r="1.1" fill="#fff" opacity="0.49"/><circle cx="91" cy="640" r="1.9" fill="#fff" opacity="0.45"/><circle cx="342" cy="137" r="2.9" fill="#fff" opacity="0.63"/><circle cx="92" cy="374" r="1.4" fill="#fff" opacity="0.44"/><circle cx="460" cy="37" r="2.1" fill="#fff" opacity="0.47"/><circle cx="188" cy="288" r="1.5" fill="#fff" opacity="0.68"/><circle cx="173" cy="706" r="1.7" fill="#fff" opacity="0.59"/><circle cx="154" cy="132" r="1.3" fill="#fff" opacity="0.60"/><circle cx="497" cy="664" r="2.2" fill="#fff" opacity="0.61"/><circle cx="507" cy="588" r="2.4" fill="#fff" opacity="0.43"/><circle cx="221" cy="133" r="2.8" fill="#fff" opacity="0.42"/><circle cx="424" cy="158" r="2.0" fill="#fff" opacity="0.68"/><circle cx="101" cy="80" r="1.9" fill="#fff" opacity="0.67"/><circle cx="185" cy="285" r="2.0" fill="#fff" opacity="0.29"/><circle cx="206" cy="521" r="1.4" fill="#fff" opacity="0.65"/><circle cx="79" cy="596" r="1.0" fill="#fff" opacity="0.60"/><circle cx="196" cy="494" r="2.2" fill="#fff" opacity="0.61"/><circle cx="103" cy="445" r="1.0" fill="#fff" opacity="0.33"/></g>
  <circle cx="256" cy="294" r="182" fill="#9ba0bb" opacity=".12"/><circle cx="256" cy="294" r="140" fill="#fff" opacity=".1"/>
  <ellipse cx="256" cy="662" rx="150" ry="34" fill="#171728" opacity=".28"/>
  <g transform="translate(0 122)">
    <ellipse cx="256" cy="339.2" rx="100.44999999999999" ry="112.74999999999999" fill="url(#body)" filter="url(#softShadow)"/><circle cx="256" cy="226.45" r="79.94999999999999" fill="url(#head)"/><ellipse cx="256" cy="214.15" rx="139.39999999999998" ry="36.9" fill="none" stroke="#9ba0bb" stroke-width="14.349999999999998" opacity=".75" transform="rotate(-12 256 214.15)"/><path d="M256 103.45000000000002 L276.5 154.70000000000002 L333.9 156.75 L286.75 187.5 L303.15 242.85 L256 208 L208.85 242.85 L225.25 187.5 L178.10000000000002 156.75 L235.5 154.70000000000002 Z" fill="#4a4b68"/><ellipse cx="223.2" cy="253.1" rx="14.349999999999998" ry="16.4" fill="#14213d"/><ellipse cx="288.8" cy="253.1" rx="14.349999999999998" ry="16.4" fill="#14213d"/><circle cx="229.35" cy="244.9" r="4.714999999999999" fill="#fff"/><circle cx="294.95" cy="244.9" r="4.714999999999999" fill="#fff"/><circle cx="256" cy="210.05" r="14.349999999999998" fill="#9ba0bb" opacity=".9"/>
  </g>
  <path d="M74 126 C170 65 334 65 438 126" stroke="#fff" stroke-width="16" stroke-linecap="round" opacity=".16"/>
  <path d="M63 676 C162 718 344 718 449 662" stroke="#fff" stroke-width="14" stroke-linecap="round" opacity=".16"/>
</svg>