<svg xmlns="http://www.w3.org/2000/svg" viewBox="0 0 512 768" role="img" aria-label="镰刀盔 original portrait">
  
  <defs>
    <linearGradient id="bgp136" x1="0" y1="0" x2="1" y2="1">
      <stop offset="0" stop-color="#ddd0b2"/>
      <stop offset=".55" stop-color="#8d7a5f"/>
      <stop offset="1" stop-color="#514438"/>
    </linearGradient>
    <radialGradient id="body" cx=".36" cy=".25" r=".76">
      <stop offset="0" stop-color="#ddd0b2"/>
      <stop offset=".6" stop-color="#8d7a5f"/>
      <stop offset="1" stop-color="#514438"/>
    </radialGradient>
    <radialGradient id="head" cx=".36" cy=".26" r=".72">
      <stop offset="0" stop-color="#ffffff" stop-opacity=".85"/>
      <stop offset=".2" stop-color="#ddd0b2"/>
      <stop offset=".72" stop-color="#8d7a5f"/>
      <stop offset="1" stop-color="#514438"/>
    </radialGradient>
    <filter id="softShadow" x="-30%" y="-30%" width="160%" height="160%">
      <feDropShadow dx="0" dy="8" stdDeviation="8" flood-color="#514438" flood-opacity=".35"/>
    </filter>
  </defs>
  <rect width="512" height="768" rx="48" fill="url(#bgp136)"/>
  <rect x="24" y="24" width="464" height="720" rx="40" fill="#ffffff" opacity=".08"/>
  <g opacity=".42"><circle cx="143" cy="162" r="1.8" fill="#fff" opacity="0.27"/><circle cx="509" cy="444" r="2.3" fill="#fff" opacity="0.28"/><circle cx="150" cy="327" r="2.3" fill="#fff" opacity="0.37"/><circle cx="261" cy="754" r="2.2" fill="#fff" opacity="0.50"/><circle cx="276" cy="483" r="2.6" fill="#fff" opacity="0.40"/><circle cx="335" cy="415" r="3.0" fill="#fff" opacity="0.70"/><circle cx="37" cy="520" r="2.6" fill="#fff" opacity="0.28"/><circle cx="184" cy="288" r="1.2" fill="#fff" opacity="0.68"/><circle cx="164" cy="362" r="1.2" fill="#fff" opacity="0.64"/><circle cx="300" cy="615" r="2.3" fill="#fff" opacity="0.30"/><circle cx="383" cy="327" r="2.0" fill="#fff" opacity="0.54"/><circle cx="266" cy="243" r="2.7" fill="#fff" opacity="0.44"/><circle cx="151" cy="455" r="1.6" fill="#fff" opacity="0.43"/><circle cx="262" cy="148" r="2.3" fill="#fff" opacity="0.38"/><circle cx="187" cy="609" r="1.3" fill="#fff" opacity="0.61"/><circle cx="335" cy="747" r="2.5" fill="#fff" opacity="0.52"/><circle cx="466" cy="254" r="1.2" fill="#fff" opacity="0.63"/><circle cx="112" cy="212" r="2.1" fill="#fff" opacity="0.67"/><circle cx="3" cy="682" r="2.9" fill="#fff" opacity="0.48"/><circle cx="179" cy="582" r="2.3" fill="#fff" opacity="0.32"/><circle cx="326" cy="235" r="1.5" fill="#fff" opacity="0.60"/><circle cx="114" cy="285" r="3.0" fill="#fff" opacity="0.33"/><circle cx="265" cy="224" r="1.4" fill="#fff" opacity="0.56"/><circle cx="357" cy="750" r="1.0" fill="#fff" opacity="0.37"/><circle cx="268" cy="449" r="2.8" fill="#fff" opacity="0.45"/><circle cx="247" cy="511" r="2.2" fill="#fff" opacity="0.66"/><circle cx="54" cy="15" r="1.6" fill="#fff" opacity="0.29"/><circle cx="470" cy="231" r="1.4" fill="#fff" opacity="0.58"/></g>
  <path d="M38 684 C128 596 386 596 475 684 V768 H38Z" fill="#514438" opacity=".17"/>
  <ellipse cx="256" cy="662" rx="150" ry="34" fill="#514438" opacity=".28"/>
  <g transform="translate(0 122)">
    <ellipse cx="256" cy="359.7" rx="110.69999999999999" ry="100.44999999999999" fill="url(#body)" filter="url(#softShadow)"/><circle cx="256" cy="232.60000000000002" r="86.1" fill="url(#head)"/><path d="M149.4 322.8 C51.00000000000003 304.35 85.85000000000002 423.25 165.8 402.75" fill="#514438"/><path d="M362.6 322.8 C461 304.35 426.15 423.25 346.2 402.75" fill="#514438"/><path d="M200.65 148.55 H311.35 L331.85 195.7 Q256 224.4 180.15 195.7 Z" fill="#ddd0b2" opacity=".85"/><ellipse cx="223.2" cy="253.1" rx="14.349999999999998" ry="16.4" fill="#14213d"/><ellipse cx="288.8" cy="253.1" rx="14.349999999999998" ry="16.4" fill="#14213d"/><circle cx="229.35" cy="244.9" r="4.714999999999999" fill="#fff"/><circle cx="294.95" cy="244.9" r="4.714999999999999" fill="#fff"/><path d="M215 201.85000000000002 Q256 224.4 297 201.85000000000002" stroke="#ddd0b2" stroke-width="10.25" fill="none" stroke-linecap="round" opacity=".8"/>
  </g>
  <path d="M74 126 C170 65 334 65 438 126" stroke="#fff" stroke-width="16" stroke-linecap="round" opacity=".16"/>
  <path d="M63 676 C162 718 344 718 449 662" stroke="#fff" stroke-width="14" stroke-linecap="round" opacity=".16"/>
</svg>