<svg xmlns="http://www.w3.org/2000/svg" viewBox="0 0 512 768" role="img" aria-label="水都守护 original portrait">
  
  <defs>
    <linearGradient id="bgp141" x1="0" y1="0" x2="1" y2="1">
      <stop offset="0" stop-color="#b8ffe2"/>
      <stop offset=".55" stop-color="#22a889"/>
      <stop offset="1" stop-color="#1d506d"/>
    </linearGradient>
    <radialGradient id="body" cx=".36" cy=".25" r=".76">
      <stop offset="0" stop-color="#b8ffe2"/>
      <stop offset=".6" stop-color="#22a889"/>
      <stop offset="1" stop-color="#1d506d"/>
    </radialGradient>
    <radialGradient id="head" cx=".36" cy=".26" r=".72">
      <stop offset="0" stop-color="#ffffff" stop-opacity=".85"/>
      <stop offset=".2" stop-color="#b8ffe2"/>
      <stop offset=".72" stop-color="#22a889"/>
      <stop offset="1" stop-color="#1d506d"/>
    </radialGradient>
    <filter id="softShadow" x="-30%" y="-30%" width="160%" height="160%">
      <feDropShadow dx="0" dy="8" stdDeviation="8" flood-color="#1d506d" flood-opacity=".35"/>
    </filter>
  </defs>
  <rect width="512" height="768" rx="48" fill="url(#bgp141)"/>
  <rect x="24" y="24" width="464" height="720" rx="40" fill="#ffffff" opacity=".08"/>
  <g opacity=".42"><circle cx="156" cy="639" r="1.9" fill="#fff" opacity="0.65"/><circle cx="387" cy="690" r="1.2" fill="#fff" opacity="0.39"/><circle cx="265" cy="76" r="3.1" fill="#fff" opacity="0.45"/><circle cx="305" cy="470" r="2.4" fill="#fff" opacity="0.58"/><circle cx="214" cy="225" r="1.6" fill="#fff" opacity="0.37"/><circle cx="95" cy="48" r="2.9" fill="#fff" opacity="0.67"/><circle cx="157" cy="711" r="1.0" fill="#fff" opacity="0.43"/><circle cx="369" cy="128" r="1.0" fill="#fff" opacity="0.44"/><circle cx="230" cy="618" r="2.1" fill="#fff" opacity="0.37"/><circle cx="426" cy="79" r="0.8" fill="#fff" opacity="0.37"/><circle cx="455" cy="634" r="1.2" fill="#fff" opacity="0.59"/><circle cx="430" cy="297" r="1.7" fill="#fff" opacity="0.32"/><circle cx="363" cy="7" r="1.8" fill="#fff" opacity="0.27"/><circle cx="432" cy="490" r="0.9" fill="#fff" opacity="0.34"/><circle cx="420" cy="562" r="2.5" fill="#fff" opacity="0.30"/><circle cx="293" cy="608" r="3.0" fill="#fff" opacity="0.47"/><circle cx="1" cy="717" r="1.0" fill="#fff" opacity="0.45"/><circle cx="124" cy="155" r="1.8" fill="#fff" opacity="0.35"/><circle cx="300" cy="414" r="1.0" fill="#fff" opacity="0.62"/><circle cx="17" cy="141" r="3.0" fill="#fff" opacity="0.54"/><circle cx="212" cy="371" r="3.1" fill="#fff" opacity="0.52"/><circle cx="392" cy="307" r="1.1" fill="#fff" opacity="0.64"/><circle cx="505" cy="445" r="1.0" fill="#fff" opacity="0.56"/><circle cx="26" cy="393" r="2.8" fill="#fff" opacity="0.29"/><circle cx="123" cy="262" r="1.3" fill="#fff" opacity="0.36"/><circle cx="483" cy="249" r="2.2" fill="#fff" opacity="0.51"/><circle cx="238" cy="279" r="1.0" fill="#fff" opacity="0.64"/><circle cx="4" cy="403" r="2.0" fill="#fff" opacity="0.63"/></g>
  <path d="M0 585 C86 541 164 618 248 574 C338 526 407 595 512 548 V768 H0Z" fill="#22a889" opacity=".2"/><path d="M0 650 C105 610 180 690 282 638 C370 594 426 650 512 618 V768 H0Z" fill="#b8ffe2" opacity=".18"/>
  <ellipse cx="256" cy="662" rx="150" ry="34" fill="#1d506d" opacity=".28"/>
  <g transform="translate(0 122)">
    <path d="M110.45000000000002 326.9 L40.75000000000003 240.8 L44.85000000000002 413 Z" fill="#22a889" opacity=".86"/><ellipse cx="247.8" cy="322.8" rx="139.39999999999998" ry="88.14999999999999" fill="url(#body)" filter="url(#softShadow)"/><path d="M243.7 242.85 C288.8 136.25 358.5 173.15 342.1 263.35" fill="#22a889" opacity=".72"/><path d="M301.1 384.3 C338 458.1 411.79999999999995 413 362.6 359.7" fill="#b8ffe2" opacity=".8"/><circle cx="329.8" cy="292.05" r="14.349999999999998" fill="#101828"/><circle cx="335.95" cy="285.9" r="4.714999999999999" fill="#fff"/><path d="M215 201.85000000000002 Q256 224.4 297 201.85000000000002" stroke="#b8ffe2" stroke-width="10.25" fill="none" stroke-linecap="round" opacity=".8"/>
  </g>
  <path d="M74 126 C170 65 334 65 438 126" stroke="#fff" stroke-width="16" stroke-linecap="round" opacity=".16"/>
  <path d="M63 676 C162 718 344 718 449 662" stroke="#fff" stroke-width="14" stroke-linecap="round" opacity=".16"/>
</svg>