<svg xmlns="http://www.w3.org/2000/svg" viewBox="0 0 512 768" role="img" aria-label="时空之神 original portrait">
  
  <defs>
    <linearGradient id="bgp142" x1="0" y1="0" x2="1" y2="1">
      <stop offset="0" stop-color="#b8ffe2"/>
      <stop offset=".55" stop-color="#22a889"/>
      <stop offset="1" stop-color="#1d506d"/>
    </linearGradient>
    <radialGradient id="body" cx=".36" cy=".25" r=".76">
      <stop offset="0" stop-color="#b8ffe2"/>
      <stop offset=".6" stop-color="#22a889"/>
      <stop offset="1" stop-color="#1d506d"/>
    </radialGradient>
    <radialGradient id="head" cx=".36" cy=".26" r=".72">
      <stop offset="0" stop-color="#ffffff" stop-opacity=".85"/>
      <stop offset=".2" stop-color="#b8ffe2"/>
      <stop offset=".72" stop-color="#22a889"/>
      <stop offset="1" stop-color="#1d506d"/>
    </radialGradient>
    <filter id="softShadow" x="-30%" y="-30%" width="160%" height="160%">
      <feDropShadow dx="0" dy="8" stdDeviation="8" flood-color="#1d506d" flood-opacity=".35"/>
    </filter>
  </defs>
  <rect width="512" height="768" rx="48" fill="url(#bgp142)"/>
  <rect x="24" y="24" width="464" height="720" rx="40" fill="#ffffff" opacity=".08"/>
  <g opacity=".42"><circle cx="100" cy="653" r="1.4" fill="#fff" opacity="0.39"/><circle cx="463" cy="593" r="2.2" fill="#fff" opacity="0.56"/><circle cx="401" cy="269" r="3.0" fill="#fff" opacity="0.60"/><circle cx="25" cy="46" r="2.8" fill="#fff" opacity="0.31"/><circle cx="308" cy="84" r="2.5" fill="#fff" opacity="0.38"/><circle cx="206" cy="256" r="2.1" fill="#fff" opacity="0.70"/><circle cx="83" cy="633" r="3.0" fill="#fff" opacity="0.61"/><circle cx="295" cy="95" r="0.9" fill="#fff" opacity="0.31"/><circle cx="124" cy="304" r="2.3" fill="#fff" opacity="0.54"/><circle cx="194" cy="685" r="0.8" fill="#fff" opacity="0.30"/><circle cx="180" cy="309" r="3.2" fill="#fff" opacity="0.68"/><circle cx="465" cy="526" r="2.6" fill="#fff" opacity="0.45"/><circle cx="318" cy="341" r="3.0" fill="#fff" opacity="0.48"/><circle cx="454" cy="344" r="2.1" fill="#fff" opacity="0.59"/><circle cx="284" cy="150" r="2.5" fill="#fff" opacity="0.51"/><circle cx="276" cy="553" r="2.3" fill="#fff" opacity="0.31"/><circle cx="285" cy="313" r="2.8" fill="#fff" opacity="0.35"/><circle cx="218" cy="241" r="1.6" fill="#fff" opacity="0.45"/><circle cx="52" cy="438" r="0.9" fill="#fff" opacity="0.68"/><circle cx="11" cy="545" r="1.4" fill="#fff" opacity="0.43"/><circle cx="410" cy="102" r="1.5" fill="#fff" opacity="0.70"/><circle cx="413" cy="290" r="1.8" fill="#fff" opacity="0.30"/><circle cx="21" cy="420" r="2.8" fill="#fff" opacity="0.40"/><circle cx="162" cy="665" r="2.1" fill="#fff" opacity="0.32"/><circle cx="347" cy="205" r="1.3" fill="#fff" opacity="0.26"/><circle cx="116" cy="741" r="1.2" fill="#fff" opacity="0.29"/><circle cx="80" cy="342" r="2.3" fill="#fff" opacity="0.31"/><circle cx="498" cy="758" r="1.4" fill="#fff" opacity="0.39"/></g>
  <circle cx="256" cy="294" r="206" fill="#b8ffe2" opacity=".12"/><circle cx="256" cy="294" r="164" fill="#fff" opacity=".1"/>
  <ellipse cx="256" cy="662" rx="150" ry="34" fill="#1d506d" opacity=".28"/>
  <g transform="translate(0 122)">
    <ellipse cx="256" cy="339.2" rx="100.44999999999999" ry="112.74999999999999" fill="url(#body)" filter="url(#softShadow)"/><circle cx="256" cy="226.45" r="79.94999999999999" fill="url(#head)"/><ellipse cx="256" cy="214.15" rx="139.39999999999998" ry="36.9" fill="none" stroke="#b8ffe2" stroke-width="14.349999999999998" opacity=".75" transform="rotate(-12 256 214.15)"/><path d="M256 103.45000000000002 L276.5 154.70000000000002 L333.9 156.75 L286.75 187.5 L303.15 242.85 L256 208 L208.85 242.85 L225.25 187.5 L178.10000000000002 156.75 L235.5 154.70000000000002 Z" fill="#22a889"/><ellipse cx="223.2" cy="253.1" rx="14.349999999999998" ry="16.4" fill="#14213d"/><ellipse cx="288.8" cy="253.1" rx="14.349999999999998" ry="16.4" fill="#14213d"/><circle cx="229.35" cy="244.9" r="4.714999999999999" fill="#fff"/><circle cx="294.95" cy="244.9" r="4.714999999999999" fill="#fff"/><path d="M256 183.4 L278.55 212.10000000000002 L256 242.85 L233.45 212.10000000000002 Z" fill="#b8ffe2" opacity=".92"/>
  </g>
  <path d="M74 126 C170 65 334 65 438 126" stroke="#fff" stroke-width="16" stroke-linecap="round" opacity=".16"/>
  <path d="M63 676 C162 718 344 718 449 662" stroke="#fff" stroke-width="14" stroke-linecap="round" opacity=".16"/>
</svg>