<svg xmlns="http://www.w3.org/2000/svg" viewBox="0 0 512 768" role="img" aria-label="空间之神 original portrait">
  
  <defs>
    <linearGradient id="bgp143" x1="0" y1="0" x2="1" y2="1">
      <stop offset="0" stop-color="#b8ffe2"/>
      <stop offset=".55" stop-color="#22a889"/>
      <stop offset="1" stop-color="#1d506d"/>
    </linearGradient>
    <radialGradient id="body" cx=".36" cy=".25" r=".76">
      <stop offset="0" stop-color="#b8ffe2"/>
      <stop offset=".6" stop-color="#22a889"/>
      <stop offset="1" stop-color="#1d506d"/>
    </radialGradient>
    <radialGradient id="head" cx=".36" cy=".26" r=".72">
      <stop offset="0" stop-color="#ffffff" stop-opacity=".85"/>
      <stop offset=".2" stop-color="#b8ffe2"/>
      <stop offset=".72" stop-color="#22a889"/>
      <stop offset="1" stop-color="#1d506d"/>
    </radialGradient>
    <filter id="softShadow" x="-30%" y="-30%" width="160%" height="160%">
      <feDropShadow dx="0" dy="8" stdDeviation="8" flood-color="#1d506d" flood-opacity=".35"/>
    </filter>
  </defs>
  <rect width="512" height="768" rx="48" fill="url(#bgp143)"/>
  <rect x="24" y="24" width="464" height="720" rx="40" fill="#ffffff" opacity=".08"/>
  <g opacity=".42"><circle cx="384" cy="206" r="1.1" fill="#fff" opacity="0.53"/><circle cx="54" cy="442" r="2.3" fill="#fff" opacity="0.51"/><circle cx="305" cy="514" r="1.0" fill="#fff" opacity="0.48"/><circle cx="264" cy="306" r="2.2" fill="#fff" opacity="0.65"/><circle cx="455" cy="550" r="0.8" fill="#fff" opacity="0.25"/><circle cx="154" cy="81" r="1.0" fill="#fff" opacity="0.45"/><circle cx="239" cy="104" r="0.9" fill="#fff" opacity="0.33"/><circle cx="39" cy="315" r="1.4" fill="#fff" opacity="0.27"/><circle cx="120" cy="668" r="1.5" fill="#fff" opacity="0.65"/><circle cx="216" cy="223" r="2.8" fill="#fff" opacity="0.44"/><circle cx="283" cy="463" r="3.1" fill="#fff" opacity="0.58"/><circle cx="272" cy="615" r="2.8" fill="#fff" opacity="0.38"/><circle cx="267" cy="101" r="1.9" fill="#fff" opacity="0.38"/><circle cx="450" cy="293" r="2.3" fill="#fff" opacity="0.52"/><circle cx="142" cy="288" r="1.7" fill="#fff" opacity="0.66"/><circle cx="213" cy="592" r="0.9" fill="#fff" opacity="0.40"/><circle cx="43" cy="384" r="1.2" fill="#fff" opacity="0.41"/><circle cx="160" cy="586" r="1.7" fill="#fff" opacity="0.52"/><circle cx="286" cy="652" r="2.1" fill="#fff" opacity="0.38"/><circle cx="62" cy="22" r="2.7" fill="#fff" opacity="0.59"/><circle cx="137" cy="535" r="2.7" fill="#fff" opacity="0.45"/><circle cx="211" cy="27" r="3.0" fill="#fff" opacity="0.34"/><circle cx="251" cy="702" r="1.8" fill="#fff" opacity="0.44"/><circle cx="247" cy="22" r="2.9" fill="#fff" opacity="0.48"/><circle cx="377" cy="357" r="2.0" fill="#fff" opacity="0.31"/><circle cx="52" cy="241" r="3.2" fill="#fff" opacity="0.50"/><circle cx="306" cy="708" r="3.1" fill="#fff" opacity="0.46"/><circle cx="266" cy="421" r="1.7" fill="#fff" opacity="0.69"/></g>
  <circle cx="256" cy="294" r="199" fill="#b8ffe2" opacity=".12"/><circle cx="256" cy="294" r="157" fill="#fff" opacity=".1"/>
  <ellipse cx="256" cy="662" rx="150" ry="34" fill="#1d506d" opacity=".28"/>
  <g transform="translate(0 122)">
    <ellipse cx="256" cy="339.2" rx="100.44999999999999" ry="112.74999999999999" fill="url(#body)" filter="url(#softShadow)"/><circle cx="256" cy="226.45" r="79.94999999999999" fill="url(#head)"/><ellipse cx="256" cy="214.15" rx="139.39999999999998" ry="36.9" fill="none" stroke="#b8ffe2" stroke-width="14.349999999999998" opacity=".75" transform="rotate(-12 256 214.15)"/><path d="M256 103.45000000000002 L276.5 154.70000000000002 L333.9 156.75 L286.75 187.5 L303.15 242.85 L256 208 L208.85 242.85 L225.25 187.5 L178.10000000000002 156.75 L235.5 154.70000000000002 Z" fill="#22a889"/><ellipse cx="223.2" cy="253.1" rx="14.349999999999998" ry="16.4" fill="#14213d"/><ellipse cx="288.8" cy="253.1" rx="14.349999999999998" ry="16.4" fill="#14213d"/><circle cx="229.35" cy="244.9" r="4.714999999999999" fill="#fff"/><circle cx="294.95" cy="244.9" r="4.714999999999999" fill="#fff"/><path d="M215 201.85000000000002 Q256 224.4 297 201.85000000000002" stroke="#b8ffe2" stroke-width="10.25" fill="none" stroke-linecap="round" opacity=".8"/>
  </g>
  <path d="M74 126 C170 65 334 65 438 126" stroke="#fff" stroke-width="16" stroke-linecap="round" opacity=".16"/>
  <path d="M63 676 C162 718 344 718 449 662" stroke="#fff" stroke-width="14" stroke-linecap="round" opacity=".16"/>
</svg>