<svg xmlns="http://www.w3.org/2000/svg" viewBox="0 0 512 768" role="img" aria-label="冥王龙 original portrait">
  
  <defs>
    <linearGradient id="bgp144" x1="0" y1="0" x2="1" y2="1">
      <stop offset="0" stop-color="#d5c6ff"/>
      <stop offset=".55" stop-color="#7367b8"/>
      <stop offset="1" stop-color="#2d2357"/>
    </linearGradient>
    <radialGradient id="body" cx=".36" cy=".25" r=".76">
      <stop offset="0" stop-color="#d5c6ff"/>
      <stop offset=".6" stop-color="#7367b8"/>
      <stop offset="1" stop-color="#2d2357"/>
    </radialGradient>
    <radialGradient id="head" cx=".36" cy=".26" r=".72">
      <stop offset="0" stop-color="#ffffff" stop-opacity=".85"/>
      <stop offset=".2" stop-color="#d5c6ff"/>
      <stop offset=".72" stop-color="#7367b8"/>
      <stop offset="1" stop-color="#2d2357"/>
    </radialGradient>
    <filter id="softShadow" x="-30%" y="-30%" width="160%" height="160%">
      <feDropShadow dx="0" dy="8" stdDeviation="8" flood-color="#2d2357" flood-opacity=".35"/>
    </filter>
  </defs>
  <rect width="512" height="768" rx="48" fill="url(#bgp144)"/>
  <rect x="24" y="24" width="464" height="720" rx="40" fill="#ffffff" opacity=".08"/>
  <g opacity=".42"><circle cx="422" cy="314" r="1.6" fill="#fff" opacity="0.63"/><circle cx="111" cy="218" r="1.1" fill="#fff" opacity="0.33"/><circle cx="446" cy="336" r="2.2" fill="#fff" opacity="0.56"/><circle cx="336" cy="720" r="1.4" fill="#fff" opacity="0.53"/><circle cx="208" cy="72" r="1.7" fill="#fff" opacity="0.60"/><circle cx="90" cy="63" r="1.2" fill="#fff" opacity="0.38"/><circle cx="348" cy="230" r="1.5" fill="#fff" opacity="0.56"/><circle cx="31" cy="279" r="2.6" fill="#fff" opacity="0.29"/><circle cx="337" cy="641" r="2.4" fill="#fff" opacity="0.31"/><circle cx="267" cy="736" r="2.9" fill="#fff" opacity="0.57"/><circle cx="327" cy="261" r="1.2" fill="#fff" opacity="0.57"/><circle cx="57" cy="684" r="1.1" fill="#fff" opacity="0.33"/><circle cx="99" cy="554" r="3.1" fill="#fff" opacity="0.60"/><circle cx="351" cy="287" r="2.0" fill="#fff" opacity="0.37"/><circle cx="356" cy="79" r="2.8" fill="#fff" opacity="0.63"/><circle cx="317" cy="520" r="2.3" fill="#fff" opacity="0.64"/><circle cx="223" cy="159" r="3.0" fill="#fff" opacity="0.41"/><circle cx="76" cy="665" r="1.8" fill="#fff" opacity="0.63"/><circle cx="421" cy="199" r="1.1" fill="#fff" opacity="0.36"/><circle cx="449" cy="735" r="1.0" fill="#fff" opacity="0.41"/><circle cx="58" cy="696" r="0.9" fill="#fff" opacity="0.51"/><circle cx="302" cy="374" r="2.1" fill="#fff" opacity="0.62"/><circle cx="455" cy="503" r="2.8" fill="#fff" opacity="0.48"/><circle cx="319" cy="727" r="2.7" fill="#fff" opacity="0.42"/><circle cx="0" cy="659" r="1.4" fill="#fff" opacity="0.49"/><circle cx="262" cy="474" r="2.7" fill="#fff" opacity="0.25"/><circle cx="70" cy="320" r="1.8" fill="#fff" opacity="0.34"/><circle cx="139" cy="248" r="2.5" fill="#fff" opacity="0.57"/></g>
  <path d="M70 600 C142 504 297 500 443 610" fill="#2d2357" opacity=".18"/><path d="M52 642 C146 578 341 580 471 650" fill="#2d2357" opacity=".16"/>
  <ellipse cx="256" cy="662" rx="150" ry="34" fill="#2d2357" opacity=".28"/>
  <g transform="translate(0 122)">
    <path d="M108.4 347.4 C161.7 224.4 292.9 175.20000000000002 389.25 253.1 C325.7 249 276.5 285.9 247.8 376.1" fill="#2d2357" opacity=".45"/><ellipse cx="256" cy="335.1" rx="110.69999999999999" ry="92.24999999999999" fill="url(#body)" filter="url(#softShadow)"/><path d="M167.85000000000002 253.1 L219.1 130.10000000000002 L249.85 244.9 Z" fill="#7367b8"/><path d="M344.15 253.1 L292.9 130.10000000000002 L262.15 244.9 Z" fill="#7367b8"/><ellipse cx="256" cy="267.45" rx="96.35" ry="86.1" fill="url(#head)"/><path d="M151.45 292.05 Q87.9 298.2 63.30000000000001 253.1" stroke="#d5c6ff" stroke-width="10.25" fill="none" stroke-linecap="round" opacity=".85"/><path d="M360.55 292.05 Q424.1 298.2 448.7 253.1" stroke="#d5c6ff" stroke-width="10.25" fill="none" stroke-linecap="round" opacity=".85"/><ellipse cx="223.2" cy="253.1" rx="14.349999999999998" ry="16.4" fill="#14213d"/><ellipse cx="288.8" cy="253.1" rx="14.349999999999998" ry="16.4" fill="#14213d"/><circle cx="229.35" cy="244.9" r="4.714999999999999" fill="#fff"/><circle cx="294.95" cy="244.9" r="4.714999999999999" fill="#fff"/><path d="M256 183.4 L278.55 212.10000000000002 L256 242.85 L233.45 212.10000000000002 Z" fill="#d5c6ff" opacity=".92"/>
  </g>
  <path d="M74 126 C170 65 334 65 438 126" stroke="#fff" stroke-width="16" stroke-linecap="round" opacity=".16"/>
  <path d="M63 676 C162 718 344 718 449 662" stroke="#fff" stroke-width="14" stroke-linecap="round" opacity=".16"/>
</svg>