<svg xmlns="http://www.w3.org/2000/svg" viewBox="0 0 512 768" role="img" aria-label="创世神 original portrait">
  
  <defs>
    <linearGradient id="bgp150" x1="0" y1="0" x2="1" y2="1">
      <stop offset="0" stop-color="#f4e8d8"/>
      <stop offset=".55" stop-color="#b78f68"/>
      <stop offset="1" stop-color="#6d4f3f"/>
    </linearGradient>
    <radialGradient id="body" cx=".36" cy=".25" r=".76">
      <stop offset="0" stop-color="#f4e8d8"/>
      <stop offset=".6" stop-color="#b78f68"/>
      <stop offset="1" stop-color="#6d4f3f"/>
    </radialGradient>
    <radialGradient id="head" cx=".36" cy=".26" r=".72">
      <stop offset="0" stop-color="#ffffff" stop-opacity=".85"/>
      <stop offset=".2" stop-color="#f4e8d8"/>
      <stop offset=".72" stop-color="#b78f68"/>
      <stop offset="1" stop-color="#6d4f3f"/>
    </radialGradient>
    <filter id="softShadow" x="-30%" y="-30%" width="160%" height="160%">
      <feDropShadow dx="0" dy="8" stdDeviation="8" flood-color="#6d4f3f" flood-opacity=".35"/>
    </filter>
  </defs>
  <rect width="512" height="768" rx="48" fill="url(#bgp150)"/>
  <rect x="24" y="24" width="464" height="720" rx="40" fill="#ffffff" opacity=".08"/>
  <g opacity=".42"><circle cx="113" cy="409" r="1.5" fill="#fff" opacity="0.67"/><circle cx="252" cy="405" r="1.6" fill="#fff" opacity="0.64"/><circle cx="125" cy="196" r="1.7" fill="#fff" opacity="0.37"/><circle cx="33" cy="643" r="0.9" fill="#fff" opacity="0.38"/><circle cx="0" cy="688" r="1.1" fill="#fff" opacity="0.50"/><circle cx="294" cy="411" r="2.1" fill="#fff" opacity="0.61"/><circle cx="335" cy="63" r="3.1" fill="#fff" opacity="0.27"/><circle cx="423" cy="663" r="1.9" fill="#fff" opacity="0.35"/><circle cx="330" cy="763" r="2.6" fill="#fff" opacity="0.26"/><circle cx="237" cy="533" r="1.9" fill="#fff" opacity="0.57"/><circle cx="494" cy="238" r="3.0" fill="#fff" opacity="0.60"/><circle cx="1" cy="505" r="3.1" fill="#fff" opacity="0.34"/><circle cx="187" cy="278" r="1.9" fill="#fff" opacity="0.70"/><circle cx="438" cy="213" r="2.6" fill="#fff" opacity="0.33"/><circle cx="331" cy="88" r="2.2" fill="#fff" opacity="0.40"/><circle cx="186" cy="340" r="2.0" fill="#fff" opacity="0.39"/><circle cx="70" cy="274" r="1.3" fill="#fff" opacity="0.51"/><circle cx="102" cy="254" r="2.9" fill="#fff" opacity="0.52"/><circle cx="334" cy="118" r="1.4" fill="#fff" opacity="0.26"/><circle cx="107" cy="126" r="2.6" fill="#fff" opacity="0.41"/><circle cx="25" cy="264" r="2.7" fill="#fff" opacity="0.52"/><circle cx="195" cy="266" r="1.1" fill="#fff" opacity="0.48"/><circle cx="234" cy="540" r="2.1" fill="#fff" opacity="0.41"/><circle cx="269" cy="233" r="2.7" fill="#fff" opacity="0.52"/><circle cx="73" cy="225" r="2.0" fill="#fff" opacity="0.62"/><circle cx="40" cy="231" r="1.9" fill="#fff" opacity="0.53"/><circle cx="145" cy="584" r="2.0" fill="#fff" opacity="0.65"/><circle cx="58" cy="585" r="3.1" fill="#fff" opacity="0.36"/></g>
  <circle cx="256" cy="294" r="212" fill="#f4e8d8" opacity=".12"/><circle cx="256" cy="294" r="170" fill="#fff" opacity=".1"/>
  <ellipse cx="256" cy="662" rx="150" ry="34" fill="#6d4f3f" opacity=".28"/>
  <g transform="translate(0 122)">
    <ellipse cx="256" cy="339.2" rx="100.44999999999999" ry="112.74999999999999" fill="url(#body)" filter="url(#softShadow)"/><circle cx="256" cy="226.45" r="79.94999999999999" fill="url(#head)"/><ellipse cx="256" cy="214.15" rx="139.39999999999998" ry="36.9" fill="none" stroke="#f4e8d8" stroke-width="14.349999999999998" opacity=".75" transform="rotate(-12 256 214.15)"/><path d="M256 103.45000000000002 L276.5 154.70000000000002 L333.9 156.75 L286.75 187.5 L303.15 242.85 L256 208 L208.85 242.85 L225.25 187.5 L178.10000000000002 156.75 L235.5 154.70000000000002 Z" fill="#b78f68"/><ellipse cx="223.2" cy="253.1" rx="14.349999999999998" ry="16.4" fill="#14213d"/><ellipse cx="288.8" cy="253.1" rx="14.349999999999998" ry="16.4" fill="#14213d"/><circle cx="229.35" cy="244.9" r="4.714999999999999" fill="#fff"/><circle cx="294.95" cy="244.9" r="4.714999999999999" fill="#fff"/><path d="M215 201.85000000000002 Q256 224.4 297 201.85000000000002" stroke="#f4e8d8" stroke-width="10.25" fill="none" stroke-linecap="round" opacity=".8"/>
  </g>
  <path d="M74 126 C170 65 334 65 438 126" stroke="#fff" stroke-width="16" stroke-linecap="round" opacity=".16"/>
  <path d="M63 676 C162 718 344 718 449 662" stroke="#fff" stroke-width="14" stroke-linecap="round" opacity=".16"/>
</svg>