<svg xmlns="http://www.w3.org/2000/svg" viewBox="0 0 512 768" role="img" aria-label="树林龟 original portrait">
  
  <defs>
    <linearGradient id="bgp153" x1="0" y1="0" x2="1" y2="1">
      <stop offset="0" stop-color="#c7f7a4"/>
      <stop offset=".55" stop-color="#43b957"/>
      <stop offset="1" stop-color="#1f6f43"/>
    </linearGradient>
    <radialGradient id="body" cx=".36" cy=".25" r=".76">
      <stop offset="0" stop-color="#c7f7a4"/>
      <stop offset=".6" stop-color="#43b957"/>
      <stop offset="1" stop-color="#1f6f43"/>
    </radialGradient>
    <radialGradient id="head" cx=".36" cy=".26" r=".72">
      <stop offset="0" stop-color="#ffffff" stop-opacity=".85"/>
      <stop offset=".2" stop-color="#c7f7a4"/>
      <stop offset=".72" stop-color="#43b957"/>
      <stop offset="1" stop-color="#1f6f43"/>
    </radialGradient>
    <filter id="softShadow" x="-30%" y="-30%" width="160%" height="160%">
      <feDropShadow dx="0" dy="8" stdDeviation="8" flood-color="#1f6f43" flood-opacity=".35"/>
    </filter>
  </defs>
  <rect width="512" height="768" rx="48" fill="url(#bgp153)"/>
  <rect x="24" y="24" width="464" height="720" rx="40" fill="#ffffff" opacity=".08"/>
  <g opacity=".42"><circle cx="355" cy="298" r="2.7" fill="#fff" opacity="0.43"/><circle cx="264" cy="38" r="1.3" fill="#fff" opacity="0.40"/><circle cx="210" cy="250" r="2.9" fill="#fff" opacity="0.51"/><circle cx="79" cy="563" r="1.3" fill="#fff" opacity="0.58"/><circle cx="40" cy="658" r="1.7" fill="#fff" opacity="0.40"/><circle cx="188" cy="2" r="2.9" fill="#fff" opacity="0.54"/><circle cx="320" cy="445" r="1.7" fill="#fff" opacity="0.43"/><circle cx="473" cy="148" r="2.5" fill="#fff" opacity="0.27"/><circle cx="37" cy="60" r="1.8" fill="#fff" opacity="0.40"/><circle cx="472" cy="472" r="1.4" fill="#fff" opacity="0.26"/><circle cx="321" cy="487" r="1.2" fill="#fff" opacity="0.53"/><circle cx="23" cy="591" r="1.0" fill="#fff" opacity="0.51"/><circle cx="232" cy="147" r="3.0" fill="#fff" opacity="0.46"/><circle cx="427" cy="181" r="2.4" fill="#fff" opacity="0.51"/><circle cx="110" cy="666" r="3.1" fill="#fff" opacity="0.37"/><circle cx="504" cy="553" r="1.2" fill="#fff" opacity="0.44"/><circle cx="161" cy="370" r="1.1" fill="#fff" opacity="0.25"/><circle cx="506" cy="548" r="1.8" fill="#fff" opacity="0.35"/><circle cx="366" cy="725" r="2.0" fill="#fff" opacity="0.32"/><circle cx="178" cy="315" r="3.1" fill="#fff" opacity="0.69"/><circle cx="447" cy="567" r="2.2" fill="#fff" opacity="0.55"/><circle cx="299" cy="156" r="2.9" fill="#fff" opacity="0.46"/><circle cx="249" cy="685" r="2.2" fill="#fff" opacity="0.35"/><circle cx="371" cy="427" r="2.5" fill="#fff" opacity="0.63"/><circle cx="385" cy="690" r="1.9" fill="#fff" opacity="0.33"/><circle cx="256" cy="418" r="1.3" fill="#fff" opacity="0.50"/><circle cx="348" cy="391" r="3.0" fill="#fff" opacity="0.60"/><circle cx="137" cy="508" r="1.1" fill="#fff" opacity="0.34"/></g>
  <path d="M0 585 C86 541 164 618 248 574 C338 526 407 595 512 548 V768 H0Z" fill="#43b957" opacity=".2"/><path d="M0 650 C105 610 180 690 282 638 C370 594 426 650 512 618 V768 H0Z" fill="#c7f7a4" opacity=".18"/>
  <ellipse cx="256" cy="662" rx="150" ry="34" fill="#1f6f43" opacity=".28"/>
  <g transform="translate(0 122)">
    <path d="M110.45000000000002 326.9 L40.75000000000003 240.8 L44.85000000000002 413 Z" fill="#43b957" opacity=".86"/><ellipse cx="247.8" cy="322.8" rx="139.39999999999998" ry="88.14999999999999" fill="url(#body)" filter="url(#softShadow)"/><path d="M243.7 242.85 C288.8 136.25 358.5 173.15 342.1 263.35" fill="#43b957" opacity=".72"/><path d="M301.1 384.3 C338 458.1 411.79999999999995 413 362.6 359.7" fill="#c7f7a4" opacity=".8"/><circle cx="329.8" cy="292.05" r="14.349999999999998" fill="#101828"/><circle cx="335.95" cy="285.9" r="4.714999999999999" fill="#fff"/><path d="M256 183.4 L278.55 212.10000000000002 L256 242.85 L233.45 212.10000000000002 Z" fill="#c7f7a4" opacity=".92"/>
  </g>
  <path d="M74 126 C170 65 334 65 438 126" stroke="#fff" stroke-width="16" stroke-linecap="round" opacity=".16"/>
  <path d="M63 676 C162 718 344 718 449 662" stroke="#fff" stroke-width="14" stroke-linecap="round" opacity=".16"/>
</svg>