<svg xmlns="http://www.w3.org/2000/svg" viewBox="0 0 512 768" role="img" aria-label="土台龟 original portrait">
  
  <defs>
    <linearGradient id="bgp154" x1="0" y1="0" x2="1" y2="1">
      <stop offset="0" stop-color="#e9c68f"/>
      <stop offset=".55" stop-color="#a0713d"/>
      <stop offset="1" stop-color="#5a3b22"/>
    </linearGradient>
    <radialGradient id="body" cx=".36" cy=".25" r=".76">
      <stop offset="0" stop-color="#e9c68f"/>
      <stop offset=".6" stop-color="#a0713d"/>
      <stop offset="1" stop-color="#5a3b22"/>
    </radialGradient>
    <radialGradient id="head" cx=".36" cy=".26" r=".72">
      <stop offset="0" stop-color="#ffffff" stop-opacity=".85"/>
      <stop offset=".2" stop-color="#e9c68f"/>
      <stop offset=".72" stop-color="#a0713d"/>
      <stop offset="1" stop-color="#5a3b22"/>
    </radialGradient>
    <filter id="softShadow" x="-30%" y="-30%" width="160%" height="160%">
      <feDropShadow dx="0" dy="8" stdDeviation="8" flood-color="#5a3b22" flood-opacity=".35"/>
    </filter>
  </defs>
  <rect width="512" height="768" rx="48" fill="url(#bgp154)"/>
  <rect x="24" y="24" width="464" height="720" rx="40" fill="#ffffff" opacity=".08"/>
  <g opacity=".42"><circle cx="174" cy="580" r="1.8" fill="#fff" opacity="0.65"/><circle cx="105" cy="175" r="2.5" fill="#fff" opacity="0.56"/><circle cx="129" cy="661" r="2.4" fill="#fff" opacity="0.60"/><circle cx="47" cy="394" r="1.0" fill="#fff" opacity="0.57"/><circle cx="252" cy="655" r="1.8" fill="#fff" opacity="0.39"/><circle cx="369" cy="733" r="1.3" fill="#fff" opacity="0.35"/><circle cx="294" cy="193" r="1.2" fill="#fff" opacity="0.69"/><circle cx="142" cy="646" r="1.8" fill="#fff" opacity="0.62"/><circle cx="181" cy="592" r="3.2" fill="#fff" opacity="0.35"/><circle cx="357" cy="274" r="1.9" fill="#fff" opacity="0.46"/><circle cx="434" cy="195" r="2.3" fill="#fff" opacity="0.55"/><circle cx="16" cy="340" r="3.2" fill="#fff" opacity="0.29"/><circle cx="133" cy="419" r="1.4" fill="#fff" opacity="0.69"/><circle cx="331" cy="144" r="1.3" fill="#fff" opacity="0.31"/><circle cx="254" cy="520" r="2.5" fill="#fff" opacity="0.50"/><circle cx="432" cy="768" r="2.6" fill="#fff" opacity="0.57"/><circle cx="37" cy="217" r="2.3" fill="#fff" opacity="0.52"/><circle cx="0" cy="698" r="2.6" fill="#fff" opacity="0.50"/><circle cx="306" cy="174" r="1.3" fill="#fff" opacity="0.35"/><circle cx="363" cy="697" r="1.7" fill="#fff" opacity="0.38"/><circle cx="286" cy="64" r="0.9" fill="#fff" opacity="0.61"/><circle cx="134" cy="96" r="2.0" fill="#fff" opacity="0.59"/><circle cx="169" cy="570" r="1.1" fill="#fff" opacity="0.68"/><circle cx="155" cy="226" r="2.1" fill="#fff" opacity="0.57"/><circle cx="492" cy="44" r="1.5" fill="#fff" opacity="0.47"/><circle cx="340" cy="617" r="1.3" fill="#fff" opacity="0.51"/><circle cx="163" cy="101" r="1.7" fill="#fff" opacity="0.40"/><circle cx="373" cy="94" r="1.9" fill="#fff" opacity="0.26"/></g>
  <path d="M0 585 C86 541 164 618 248 574 C338 526 407 595 512 548 V768 H0Z" fill="#a0713d" opacity=".2"/><path d="M0 650 C105 610 180 690 282 638 C370 594 426 650 512 618 V768 H0Z" fill="#e9c68f" opacity=".18"/>
  <ellipse cx="256" cy="662" rx="150" ry="34" fill="#5a3b22" opacity=".28"/>
  <g transform="translate(0 122)">
    <path d="M110.45000000000002 326.9 L40.75000000000003 240.8 L44.85000000000002 413 Z" fill="#a0713d" opacity=".86"/><ellipse cx="247.8" cy="322.8" rx="139.39999999999998" ry="88.14999999999999" fill="url(#body)" filter="url(#softShadow)"/><path d="M243.7 242.85 C288.8 136.25 358.5 173.15 342.1 263.35" fill="#a0713d" opacity=".72"/><path d="M301.1 384.3 C338 458.1 411.79999999999995 413 362.6 359.7" fill="#e9c68f" opacity=".8"/><circle cx="329.8" cy="292.05" r="14.349999999999998" fill="#101828"/><circle cx="335.95" cy="285.9" r="4.714999999999999" fill="#fff"/><path d="M256 183.4 L278.55 212.10000000000002 L256 242.85 L233.45 212.10000000000002 Z" fill="#e9c68f" opacity=".92"/>
  </g>
  <path d="M74 126 C170 65 334 65 438 126" stroke="#fff" stroke-width="16" stroke-linecap="round" opacity=".16"/>
  <path d="M63 676 C162 718 344 718 449 662" stroke="#fff" stroke-width="14" stroke-linecap="round" opacity=".16"/>
</svg>