<svg xmlns="http://www.w3.org/2000/svg" viewBox="0 0 512 768" role="img" aria-label="帝王拿波 original portrait">
  
  <defs>
    <linearGradient id="bgp160" x1="0" y1="0" x2="1" y2="1">
      <stop offset="0" stop-color="#e8edf2"/>
      <stop offset=".55" stop-color="#9aa8b7"/>
      <stop offset="1" stop-color="#536271"/>
    </linearGradient>
    <radialGradient id="body" cx=".36" cy=".25" r=".76">
      <stop offset="0" stop-color="#e8edf2"/>
      <stop offset=".6" stop-color="#9aa8b7"/>
      <stop offset="1" stop-color="#536271"/>
    </radialGradient>
    <radialGradient id="head" cx=".36" cy=".26" r=".72">
      <stop offset="0" stop-color="#ffffff" stop-opacity=".85"/>
      <stop offset=".2" stop-color="#e8edf2"/>
      <stop offset=".72" stop-color="#9aa8b7"/>
      <stop offset="1" stop-color="#536271"/>
    </radialGradient>
    <filter id="softShadow" x="-30%" y="-30%" width="160%" height="160%">
      <feDropShadow dx="0" dy="8" stdDeviation="8" flood-color="#536271" flood-opacity=".35"/>
    </filter>
  </defs>
  <rect width="512" height="768" rx="48" fill="url(#bgp160)"/>
  <rect x="24" y="24" width="464" height="720" rx="40" fill="#ffffff" opacity=".08"/>
  <g opacity=".42"><circle cx="134" cy="652" r="1.2" fill="#fff" opacity="0.69"/><circle cx="414" cy="415" r="2.4" fill="#fff" opacity="0.36"/><circle cx="26" cy="251" r="1.6" fill="#fff" opacity="0.52"/><circle cx="291" cy="265" r="2.3" fill="#fff" opacity="0.51"/><circle cx="456" cy="31" r="1.5" fill="#fff" opacity="0.27"/><circle cx="137" cy="716" r="2.0" fill="#fff" opacity="0.28"/><circle cx="136" cy="100" r="2.9" fill="#fff" opacity="0.32"/><circle cx="199" cy="486" r="2.9" fill="#fff" opacity="0.65"/><circle cx="182" cy="279" r="1.7" fill="#fff" opacity="0.30"/><circle cx="222" cy="48" r="2.1" fill="#fff" opacity="0.39"/><circle cx="402" cy="172" r="1.9" fill="#fff" opacity="0.60"/><circle cx="434" cy="305" r="1.4" fill="#fff" opacity="0.65"/><circle cx="158" cy="453" r="0.8" fill="#fff" opacity="0.48"/><circle cx="438" cy="730" r="3.2" fill="#fff" opacity="0.27"/><circle cx="50" cy="304" r="3.1" fill="#fff" opacity="0.33"/><circle cx="410" cy="744" r="1.0" fill="#fff" opacity="0.57"/><circle cx="242" cy="349" r="1.0" fill="#fff" opacity="0.29"/><circle cx="339" cy="85" r="1.3" fill="#fff" opacity="0.37"/><circle cx="343" cy="717" r="1.2" fill="#fff" opacity="0.41"/><circle cx="458" cy="663" r="1.9" fill="#fff" opacity="0.59"/><circle cx="66" cy="600" r="3.0" fill="#fff" opacity="0.64"/><circle cx="180" cy="616" r="1.9" fill="#fff" opacity="0.28"/><circle cx="396" cy="542" r="2.1" fill="#fff" opacity="0.58"/><circle cx="246" cy="520" r="2.4" fill="#fff" opacity="0.40"/><circle cx="6" cy="130" r="2.4" fill="#fff" opacity="0.57"/><circle cx="489" cy="558" r="2.0" fill="#fff" opacity="0.25"/><circle cx="353" cy="294" r="1.1" fill="#fff" opacity="0.49"/><circle cx="202" cy="662" r="0.9" fill="#fff" opacity="0.48"/></g>
  <path d="M38 684 C128 596 386 596 475 684 V768 H38Z" fill="#536271" opacity=".17"/>
  <ellipse cx="256" cy="662" rx="150" ry="34" fill="#536271" opacity=".28"/>
  <g transform="translate(0 122)">
    <ellipse cx="256" cy="359.7" rx="110.69999999999999" ry="100.44999999999999" fill="url(#body)" filter="url(#softShadow)"/><circle cx="256" cy="232.60000000000002" r="86.1" fill="url(#head)"/><path d="M149.4 322.8 C51.00000000000003 304.35 85.85000000000002 423.25 165.8 402.75" fill="#536271"/><path d="M362.6 322.8 C461 304.35 426.15 423.25 346.2 402.75" fill="#536271"/><path d="M200.65 148.55 H311.35 L331.85 195.7 Q256 224.4 180.15 195.7 Z" fill="#e8edf2" opacity=".85"/><ellipse cx="223.2" cy="253.1" rx="14.349999999999998" ry="16.4" fill="#14213d"/><ellipse cx="288.8" cy="253.1" rx="14.349999999999998" ry="16.4" fill="#14213d"/><circle cx="229.35" cy="244.9" r="4.714999999999999" fill="#fff"/><circle cx="294.95" cy="244.9" r="4.714999999999999" fill="#fff"/><path d="M215 201.85000000000002 Q256 224.4 297 201.85000000000002" stroke="#e8edf2" stroke-width="10.25" fill="none" stroke-linecap="round" opacity=".8"/>
  </g>
  <path d="M74 126 C170 65 334 65 438 126" stroke="#fff" stroke-width="16" stroke-linecap="round" opacity=".16"/>
  <path d="M63 676 C162 718 344 718 449 662" stroke="#fff" stroke-width="14" stroke-linecap="round" opacity=".16"/>
</svg>