<svg xmlns="http://www.w3.org/2000/svg" viewBox="0 0 512 768" role="img" aria-label="小猫怪 original portrait">
  
  <defs>
    <linearGradient id="bgp166" x1="0" y1="0" x2="1" y2="1">
      <stop offset="0" stop-color="#fff27a"/>
      <stop offset=".55" stop-color="#f9c80e"/>
      <stop offset="1" stop-color="#7a5200"/>
    </linearGradient>
    <radialGradient id="body" cx=".36" cy=".25" r=".76">
      <stop offset="0" stop-color="#fff27a"/>
      <stop offset=".6" stop-color="#f9c80e"/>
      <stop offset="1" stop-color="#7a5200"/>
    </radialGradient>
    <radialGradient id="head" cx=".36" cy=".26" r=".72">
      <stop offset="0" stop-color="#ffffff" stop-opacity=".85"/>
      <stop offset=".2" stop-color="#fff27a"/>
      <stop offset=".72" stop-color="#f9c80e"/>
      <stop offset="1" stop-color="#7a5200"/>
    </radialGradient>
    <filter id="softShadow" x="-30%" y="-30%" width="160%" height="160%">
      <feDropShadow dx="0" dy="8" stdDeviation="8" flood-color="#7a5200" flood-opacity=".35"/>
    </filter>
  </defs>
  <rect width="512" height="768" rx="48" fill="url(#bgp166)"/>
  <rect x="24" y="24" width="464" height="720" rx="40" fill="#ffffff" opacity=".08"/>
  <g opacity=".42"><circle cx="295" cy="221" r="1.7" fill="#fff" opacity="0.37"/><circle cx="437" cy="27" r="1.3" fill="#fff" opacity="0.32"/><circle cx="247" cy="266" r="2.4" fill="#fff" opacity="0.49"/><circle cx="162" cy="489" r="2.1" fill="#fff" opacity="0.30"/><circle cx="280" cy="182" r="2.7" fill="#fff" opacity="0.59"/><circle cx="133" cy="494" r="1.2" fill="#fff" opacity="0.44"/><circle cx="149" cy="491" r="1.7" fill="#fff" opacity="0.50"/><circle cx="399" cy="93" r="2.6" fill="#fff" opacity="0.66"/><circle cx="107" cy="354" r="3.0" fill="#fff" opacity="0.40"/><circle cx="128" cy="300" r="1.8" fill="#fff" opacity="0.68"/><circle cx="403" cy="154" r="2.4" fill="#fff" opacity="0.38"/><circle cx="274" cy="448" r="1.3" fill="#fff" opacity="0.25"/><circle cx="275" cy="195" r="2.0" fill="#fff" opacity="0.45"/><circle cx="32" cy="283" r="1.9" fill="#fff" opacity="0.46"/><circle cx="43" cy="321" r="1.7" fill="#fff" opacity="0.58"/><circle cx="306" cy="472" r="1.8" fill="#fff" opacity="0.55"/><circle cx="30" cy="569" r="1.9" fill="#fff" opacity="0.49"/><circle cx="200" cy="171" r="2.3" fill="#fff" opacity="0.56"/><circle cx="138" cy="50" r="2.2" fill="#fff" opacity="0.32"/><circle cx="223" cy="28" r="2.6" fill="#fff" opacity="0.49"/><circle cx="241" cy="260" r="1.3" fill="#fff" opacity="0.41"/><circle cx="285" cy="664" r="2.0" fill="#fff" opacity="0.41"/><circle cx="153" cy="517" r="2.8" fill="#fff" opacity="0.33"/><circle cx="86" cy="583" r="2.9" fill="#fff" opacity="0.56"/><circle cx="330" cy="30" r="0.9" fill="#fff" opacity="0.62"/><circle cx="395" cy="766" r="2.8" fill="#fff" opacity="0.59"/><circle cx="44" cy="212" r="1.5" fill="#fff" opacity="0.48"/><circle cx="418" cy="367" r="1.0" fill="#fff" opacity="0.42"/></g>
  <path d="M0 670 C96 613 167 665 256 620 C337 660 421 608 512 662 V768 H0Z" fill="#7a5200" opacity=".15"/>
  <ellipse cx="256" cy="662" rx="150" ry="34" fill="#7a5200" opacity=".28"/>
  <g transform="translate(0 122)">
    <path d="M159.65 347.4 C69.45000000000002 322.8 92 222.35000000000002 165.8 263.35" stroke="#f9c80e" stroke-width="28.699999999999996" fill="none" stroke-linecap="round" opacity=".76"/><ellipse cx="256" cy="353.55" rx="108.64999999999999" ry="102.49999999999999" fill="url(#body)" filter="url(#softShadow)"/><path d="M184.25 212.10000000000002 L137.10000000000002 115.75000000000003 L231.4 175.20000000000002 Z" fill="#f9c80e"/><path d="M327.75 212.10000000000002 L374.9 115.75000000000003 L280.6 175.20000000000002 Z" fill="#f9c80e"/><circle cx="256" cy="234.65" r="92.24999999999999" fill="url(#head)"/><ellipse cx="221.15" cy="251.05" rx="16.4" ry="20.5" fill="#182033"/><ellipse cx="290.85" cy="251.05" rx="16.4" ry="20.5" fill="#182033"/><ellipse cx="223.2" cy="253.1" rx="14.349999999999998" ry="16.4" fill="#14213d"/><ellipse cx="288.8" cy="253.1" rx="14.349999999999998" ry="16.4" fill="#14213d"/><circle cx="229.35" cy="244.9" r="4.714999999999999" fill="#fff"/><circle cx="294.95" cy="244.9" r="4.714999999999999" fill="#fff"/><path d="M256 183.4 L278.55 212.10000000000002 L256 242.85 L233.45 212.10000000000002 Z" fill="#fff27a" opacity=".92"/>
  </g>
  <path d="M74 126 C170 65 334 65 438 126" stroke="#fff" stroke-width="16" stroke-linecap="round" opacity=".16"/>
  <path d="M63 676 C162 718 344 718 449 662" stroke="#fff" stroke-width="14" stroke-linecap="round" opacity=".16"/>
</svg>