<svg xmlns="http://www.w3.org/2000/svg" viewBox="0 0 512 768" role="img" aria-label="伦琴猫 original portrait">
  
  <defs>
    <linearGradient id="bgp168" x1="0" y1="0" x2="1" y2="1">
      <stop offset="0" stop-color="#fff27a"/>
      <stop offset=".55" stop-color="#f9c80e"/>
      <stop offset="1" stop-color="#7a5200"/>
    </linearGradient>
    <radialGradient id="body" cx=".36" cy=".25" r=".76">
      <stop offset="0" stop-color="#fff27a"/>
      <stop offset=".6" stop-color="#f9c80e"/>
      <stop offset="1" stop-color="#7a5200"/>
    </radialGradient>
    <radialGradient id="head" cx=".36" cy=".26" r=".72">
      <stop offset="0" stop-color="#ffffff" stop-opacity=".85"/>
      <stop offset=".2" stop-color="#fff27a"/>
      <stop offset=".72" stop-color="#f9c80e"/>
      <stop offset="1" stop-color="#7a5200"/>
    </radialGradient>
    <filter id="softShadow" x="-30%" y="-30%" width="160%" height="160%">
      <feDropShadow dx="0" dy="8" stdDeviation="8" flood-color="#7a5200" flood-opacity=".35"/>
    </filter>
  </defs>
  <rect width="512" height="768" rx="48" fill="url(#bgp168)"/>
  <rect x="24" y="24" width="464" height="720" rx="40" fill="#ffffff" opacity=".08"/>
  <g opacity=".42"><circle cx="354" cy="732" r="3.1" fill="#fff" opacity="0.41"/><circle cx="434" cy="270" r="2.8" fill="#fff" opacity="0.40"/><circle cx="308" cy="500" r="2.5" fill="#fff" opacity="0.48"/><circle cx="164" cy="419" r="0.8" fill="#fff" opacity="0.57"/><circle cx="197" cy="705" r="1.0" fill="#fff" opacity="0.59"/><circle cx="169" cy="260" r="1.8" fill="#fff" opacity="0.68"/><circle cx="265" cy="362" r="1.2" fill="#fff" opacity="0.36"/><circle cx="487" cy="137" r="1.3" fill="#fff" opacity="0.56"/><circle cx="493" cy="550" r="1.0" fill="#fff" opacity="0.59"/><circle cx="415" cy="135" r="2.8" fill="#fff" opacity="0.41"/><circle cx="132" cy="123" r="1.6" fill="#fff" opacity="0.62"/><circle cx="302" cy="355" r="1.5" fill="#fff" opacity="0.39"/><circle cx="96" cy="360" r="0.9" fill="#fff" opacity="0.59"/><circle cx="42" cy="247" r="3.1" fill="#fff" opacity="0.68"/><circle cx="320" cy="340" r="0.8" fill="#fff" opacity="0.50"/><circle cx="76" cy="361" r="1.1" fill="#fff" opacity="0.66"/><circle cx="470" cy="525" r="1.2" fill="#fff" opacity="0.43"/><circle cx="338" cy="51" r="2.2" fill="#fff" opacity="0.29"/><circle cx="286" cy="571" r="2.3" fill="#fff" opacity="0.69"/><circle cx="30" cy="686" r="1.0" fill="#fff" opacity="0.60"/><circle cx="496" cy="168" r="1.9" fill="#fff" opacity="0.59"/><circle cx="31" cy="89" r="2.8" fill="#fff" opacity="0.41"/><circle cx="28" cy="713" r="3.0" fill="#fff" opacity="0.64"/><circle cx="110" cy="487" r="2.3" fill="#fff" opacity="0.41"/><circle cx="357" cy="154" r="2.8" fill="#fff" opacity="0.39"/><circle cx="150" cy="494" r="2.3" fill="#fff" opacity="0.27"/><circle cx="459" cy="568" r="1.8" fill="#fff" opacity="0.65"/><circle cx="152" cy="333" r="2.9" fill="#fff" opacity="0.59"/></g>
  <path d="M0 670 C96 613 167 665 256 620 C337 660 421 608 512 662 V768 H0Z" fill="#7a5200" opacity=".15"/>
  <ellipse cx="256" cy="662" rx="150" ry="34" fill="#7a5200" opacity=".28"/>
  <g transform="translate(0 122)">
    <path d="M159.65 347.4 C69.45000000000002 322.8 92 222.35000000000002 165.8 263.35" stroke="#f9c80e" stroke-width="28.699999999999996" fill="none" stroke-linecap="round" opacity=".76"/><ellipse cx="256" cy="353.55" rx="108.64999999999999" ry="102.49999999999999" fill="url(#body)" filter="url(#softShadow)"/><path d="M184.25 212.10000000000002 L137.10000000000002 115.75000000000003 L231.4 175.20000000000002 Z" fill="#f9c80e"/><path d="M327.75 212.10000000000002 L374.9 115.75000000000003 L280.6 175.20000000000002 Z" fill="#f9c80e"/><circle cx="256" cy="234.65" r="92.24999999999999" fill="url(#head)"/><ellipse cx="221.15" cy="251.05" rx="16.4" ry="20.5" fill="#182033"/><ellipse cx="290.85" cy="251.05" rx="16.4" ry="20.5" fill="#182033"/><ellipse cx="223.2" cy="253.1" rx="14.349999999999998" ry="16.4" fill="#14213d"/><ellipse cx="288.8" cy="253.1" rx="14.349999999999998" ry="16.4" fill="#14213d"/><circle cx="229.35" cy="244.9" r="4.714999999999999" fill="#fff"/><circle cx="294.95" cy="244.9" r="4.714999999999999" fill="#fff"/><path d="M215 201.85000000000002 Q256 224.4 297 201.85000000000002" stroke="#fff27a" stroke-width="10.25" fill="none" stroke-linecap="round" opacity=".8"/>
  </g>
  <path d="M74 126 C170 65 334 65 438 126" stroke="#fff" stroke-width="16" stroke-linecap="round" opacity=".16"/>
  <path d="M63 676 C162 718 344 718 449 662" stroke="#fff" stroke-width="14" stroke-linecap="round" opacity=".16"/>
</svg>