<svg xmlns="http://www.w3.org/2000/svg" viewBox="0 0 512 768" role="img" aria-label="浮潜鼬 original portrait">
  
  <defs>
    <linearGradient id="bgp174" x1="0" y1="0" x2="1" y2="1">
      <stop offset="0" stop-color="#9ee8ff"/>
      <stop offset=".55" stop-color="#2397d5"/>
      <stop offset="1" stop-color="#0b4f8f"/>
    </linearGradient>
    <radialGradient id="body" cx=".36" cy=".25" r=".76">
      <stop offset="0" stop-color="#9ee8ff"/>
      <stop offset=".6" stop-color="#2397d5"/>
      <stop offset="1" stop-color="#0b4f8f"/>
    </radialGradient>
    <radialGradient id="head" cx=".36" cy=".26" r=".72">
      <stop offset="0" stop-color="#ffffff" stop-opacity=".85"/>
      <stop offset=".2" stop-color="#9ee8ff"/>
      <stop offset=".72" stop-color="#2397d5"/>
      <stop offset="1" stop-color="#0b4f8f"/>
    </radialGradient>
    <filter id="softShadow" x="-30%" y="-30%" width="160%" height="160%">
      <feDropShadow dx="0" dy="8" stdDeviation="8" flood-color="#0b4f8f" flood-opacity=".35"/>
    </filter>
  </defs>
  <rect width="512" height="768" rx="48" fill="url(#bgp174)"/>
  <rect x="24" y="24" width="464" height="720" rx="40" fill="#ffffff" opacity=".08"/>
  <g opacity=".42"><circle cx="241" cy="152" r="2.1" fill="#fff" opacity="0.47"/><circle cx="159" cy="486" r="2.7" fill="#fff" opacity="0.69"/><circle cx="421" cy="172" r="1.3" fill="#fff" opacity="0.39"/><circle cx="481" cy="217" r="2.4" fill="#fff" opacity="0.27"/><circle cx="413" cy="73" r="1.8" fill="#fff" opacity="0.56"/><circle cx="221" cy="44" r="2.2" fill="#fff" opacity="0.36"/><circle cx="49" cy="606" r="2.5" fill="#fff" opacity="0.27"/><circle cx="153" cy="556" r="1.7" fill="#fff" opacity="0.36"/><circle cx="420" cy="153" r="2.8" fill="#fff" opacity="0.67"/><circle cx="228" cy="644" r="2.5" fill="#fff" opacity="0.49"/><circle cx="272" cy="759" r="1.0" fill="#fff" opacity="0.28"/><circle cx="50" cy="547" r="3.2" fill="#fff" opacity="0.47"/><circle cx="123" cy="25" r="1.8" fill="#fff" opacity="0.35"/><circle cx="155" cy="638" r="1.7" fill="#fff" opacity="0.55"/><circle cx="211" cy="74" r="3.1" fill="#fff" opacity="0.66"/><circle cx="82" cy="742" r="1.0" fill="#fff" opacity="0.31"/><circle cx="426" cy="188" r="1.1" fill="#fff" opacity="0.56"/><circle cx="281" cy="472" r="1.9" fill="#fff" opacity="0.55"/><circle cx="442" cy="474" r="1.9" fill="#fff" opacity="0.35"/><circle cx="145" cy="94" r="1.1" fill="#fff" opacity="0.66"/><circle cx="85" cy="711" r="1.9" fill="#fff" opacity="0.63"/><circle cx="3" cy="598" r="1.9" fill="#fff" opacity="0.66"/><circle cx="329" cy="301" r="2.2" fill="#fff" opacity="0.33"/><circle cx="107" cy="642" r="0.8" fill="#fff" opacity="0.38"/><circle cx="194" cy="419" r="2.9" fill="#fff" opacity="0.46"/><circle cx="235" cy="317" r="3.2" fill="#fff" opacity="0.56"/><circle cx="454" cy="734" r="1.3" fill="#fff" opacity="0.43"/><circle cx="461" cy="352" r="3.0" fill="#fff" opacity="0.50"/></g>
  <path d="M0 585 C86 541 164 618 248 574 C338 526 407 595 512 548 V768 H0Z" fill="#2397d5" opacity=".2"/><path d="M0 650 C105 610 180 690 282 638 C370 594 426 650 512 618 V768 H0Z" fill="#9ee8ff" opacity=".18"/>
  <ellipse cx="256" cy="662" rx="150" ry="34" fill="#0b4f8f" opacity=".28"/>
  <g transform="translate(0 122)">
    <path d="M110.45000000000002 326.9 L40.75000000000003 240.8 L44.85000000000002 413 Z" fill="#2397d5" opacity=".86"/><ellipse cx="247.8" cy="322.8" rx="139.39999999999998" ry="88.14999999999999" fill="url(#body)" filter="url(#softShadow)"/><path d="M243.7 242.85 C288.8 136.25 358.5 173.15 342.1 263.35" fill="#2397d5" opacity=".72"/><path d="M301.1 384.3 C338 458.1 411.79999999999995 413 362.6 359.7" fill="#9ee8ff" opacity=".8"/><circle cx="329.8" cy="292.05" r="14.349999999999998" fill="#101828"/><circle cx="335.95" cy="285.9" r="4.714999999999999" fill="#fff"/><circle cx="256" cy="210.05" r="14.349999999999998" fill="#9ee8ff" opacity=".9"/>
  </g>
  <path d="M74 126 C170 65 334 65 438 126" stroke="#fff" stroke-width="16" stroke-linecap="round" opacity=".16"/>
  <path d="M63 676 C162 718 344 718 449 662" stroke="#fff" stroke-width="14" stroke-linecap="round" opacity=".16"/>
</svg>