<svg xmlns="http://www.w3.org/2000/svg" viewBox="0 0 512 768" role="img" aria-label="海兔兽 original portrait">
  
  <defs>
    <linearGradient id="bgp176" x1="0" y1="0" x2="1" y2="1">
      <stop offset="0" stop-color="#e9c68f"/>
      <stop offset=".55" stop-color="#a0713d"/>
      <stop offset="1" stop-color="#5a3b22"/>
    </linearGradient>
    <radialGradient id="body" cx=".36" cy=".25" r=".76">
      <stop offset="0" stop-color="#e9c68f"/>
      <stop offset=".6" stop-color="#a0713d"/>
      <stop offset="1" stop-color="#5a3b22"/>
    </radialGradient>
    <radialGradient id="head" cx=".36" cy=".26" r=".72">
      <stop offset="0" stop-color="#ffffff" stop-opacity=".85"/>
      <stop offset=".2" stop-color="#e9c68f"/>
      <stop offset=".72" stop-color="#a0713d"/>
      <stop offset="1" stop-color="#5a3b22"/>
    </radialGradient>
    <filter id="softShadow" x="-30%" y="-30%" width="160%" height="160%">
      <feDropShadow dx="0" dy="8" stdDeviation="8" flood-color="#5a3b22" flood-opacity=".35"/>
    </filter>
  </defs>
  <rect width="512" height="768" rx="48" fill="url(#bgp176)"/>
  <rect x="24" y="24" width="464" height="720" rx="40" fill="#ffffff" opacity=".08"/>
  <g opacity=".42"><circle cx="204" cy="630" r="1.1" fill="#fff" opacity="0.33"/><circle cx="266" cy="346" r="2.4" fill="#fff" opacity="0.44"/><circle cx="509" cy="483" r="0.9" fill="#fff" opacity="0.70"/><circle cx="422" cy="714" r="0.8" fill="#fff" opacity="0.39"/><circle cx="416" cy="95" r="3.1" fill="#fff" opacity="0.63"/><circle cx="465" cy="600" r="2.5" fill="#fff" opacity="0.65"/><circle cx="347" cy="464" r="2.4" fill="#fff" opacity="0.59"/><circle cx="300" cy="534" r="1.3" fill="#fff" opacity="0.44"/><circle cx="335" cy="608" r="1.2" fill="#fff" opacity="0.38"/><circle cx="68" cy="272" r="0.9" fill="#fff" opacity="0.52"/><circle cx="481" cy="4" r="1.4" fill="#fff" opacity="0.49"/><circle cx="367" cy="188" r="3.0" fill="#fff" opacity="0.33"/><circle cx="189" cy="562" r="2.7" fill="#fff" opacity="0.27"/><circle cx="475" cy="622" r="2.0" fill="#fff" opacity="0.28"/><circle cx="276" cy="618" r="2.9" fill="#fff" opacity="0.32"/><circle cx="367" cy="311" r="1.4" fill="#fff" opacity="0.26"/><circle cx="269" cy="348" r="3.1" fill="#fff" opacity="0.45"/><circle cx="185" cy="170" r="1.4" fill="#fff" opacity="0.25"/><circle cx="233" cy="756" r="0.9" fill="#fff" opacity="0.42"/><circle cx="428" cy="28" r="2.9" fill="#fff" opacity="0.57"/><circle cx="503" cy="161" r="1.3" fill="#fff" opacity="0.46"/><circle cx="372" cy="88" r="0.9" fill="#fff" opacity="0.54"/><circle cx="168" cy="504" r="1.9" fill="#fff" opacity="0.38"/><circle cx="411" cy="479" r="2.0" fill="#fff" opacity="0.51"/><circle cx="456" cy="516" r="2.5" fill="#fff" opacity="0.43"/><circle cx="476" cy="274" r="1.6" fill="#fff" opacity="0.67"/><circle cx="505" cy="639" r="0.9" fill="#fff" opacity="0.64"/><circle cx="198" cy="472" r="2.1" fill="#fff" opacity="0.53"/></g>
  <path d="M0 585 C86 541 164 618 248 574 C338 526 407 595 512 548 V768 H0Z" fill="#a0713d" opacity=".2"/><path d="M0 650 C105 610 180 690 282 638 C370 594 426 650 512 618 V768 H0Z" fill="#e9c68f" opacity=".18"/>
  <ellipse cx="256" cy="662" rx="150" ry="34" fill="#5a3b22" opacity=".28"/>
  <g transform="translate(0 122)">
    <path d="M110.45000000000002 326.9 L40.75000000000003 240.8 L44.85000000000002 413 Z" fill="#a0713d" opacity=".86"/><ellipse cx="247.8" cy="322.8" rx="139.39999999999998" ry="88.14999999999999" fill="url(#body)" filter="url(#softShadow)"/><path d="M243.7 242.85 C288.8 136.25 358.5 173.15 342.1 263.35" fill="#a0713d" opacity=".72"/><path d="M301.1 384.3 C338 458.1 411.79999999999995 413 362.6 359.7" fill="#e9c68f" opacity=".8"/><circle cx="329.8" cy="292.05" r="14.349999999999998" fill="#101828"/><circle cx="335.95" cy="285.9" r="4.714999999999999" fill="#fff"/><path d="M215 201.85000000000002 Q256 224.4 297 201.85000000000002" stroke="#e9c68f" stroke-width="10.25" fill="none" stroke-linecap="round" opacity=".8"/>
  </g>
  <path d="M74 126 C170 65 334 65 438 126" stroke="#fff" stroke-width="16" stroke-linecap="round" opacity=".16"/>
  <path d="M63 676 C162 718 344 718 449 662" stroke="#fff" stroke-width="14" stroke-linecap="round" opacity=".16"/>
</svg>