<svg xmlns="http://www.w3.org/2000/svg" viewBox="0 0 512 768" role="img" aria-label="乌鸦头头 original portrait">
  
  <defs>
    <linearGradient id="bgp179" x1="0" y1="0" x2="1" y2="1">
      <stop offset="0" stop-color="#d9edff"/>
      <stop offset=".55" stop-color="#82b7ff"/>
      <stop offset="1" stop-color="#4260ad"/>
    </linearGradient>
    <radialGradient id="body" cx=".36" cy=".25" r=".76">
      <stop offset="0" stop-color="#d9edff"/>
      <stop offset=".6" stop-color="#82b7ff"/>
      <stop offset="1" stop-color="#4260ad"/>
    </radialGradient>
    <radialGradient id="head" cx=".36" cy=".26" r=".72">
      <stop offset="0" stop-color="#ffffff" stop-opacity=".85"/>
      <stop offset=".2" stop-color="#d9edff"/>
      <stop offset=".72" stop-color="#82b7ff"/>
      <stop offset="1" stop-color="#4260ad"/>
    </radialGradient>
    <filter id="softShadow" x="-30%" y="-30%" width="160%" height="160%">
      <feDropShadow dx="0" dy="8" stdDeviation="8" flood-color="#4260ad" flood-opacity=".35"/>
    </filter>
  </defs>
  <rect width="512" height="768" rx="48" fill="url(#bgp179)"/>
  <rect x="24" y="24" width="464" height="720" rx="40" fill="#ffffff" opacity=".08"/>
  <g opacity=".42"><circle cx="305" cy="339" r="1.2" fill="#fff" opacity="0.32"/><circle cx="148" cy="242" r="2.3" fill="#fff" opacity="0.49"/><circle cx="92" cy="62" r="1.0" fill="#fff" opacity="0.37"/><circle cx="500" cy="570" r="2.6" fill="#fff" opacity="0.53"/><circle cx="348" cy="219" r="2.4" fill="#fff" opacity="0.27"/><circle cx="285" cy="679" r="1.0" fill="#fff" opacity="0.33"/><circle cx="422" cy="49" r="2.5" fill="#fff" opacity="0.44"/><circle cx="243" cy="555" r="3.2" fill="#fff" opacity="0.27"/><circle cx="280" cy="472" r="3.2" fill="#fff" opacity="0.26"/><circle cx="451" cy="690" r="2.6" fill="#fff" opacity="0.31"/><circle cx="216" cy="136" r="1.3" fill="#fff" opacity="0.62"/><circle cx="176" cy="47" r="0.8" fill="#fff" opacity="0.56"/><circle cx="287" cy="616" r="2.7" fill="#fff" opacity="0.28"/><circle cx="105" cy="412" r="1.1" fill="#fff" opacity="0.58"/><circle cx="42" cy="155" r="2.0" fill="#fff" opacity="0.61"/><circle cx="20" cy="181" r="3.0" fill="#fff" opacity="0.26"/><circle cx="86" cy="303" r="2.2" fill="#fff" opacity="0.69"/><circle cx="103" cy="105" r="2.4" fill="#fff" opacity="0.58"/><circle cx="284" cy="647" r="1.4" fill="#fff" opacity="0.66"/><circle cx="311" cy="386" r="1.3" fill="#fff" opacity="0.52"/><circle cx="488" cy="322" r="2.9" fill="#fff" opacity="0.63"/><circle cx="174" cy="250" r="2.5" fill="#fff" opacity="0.59"/><circle cx="20" cy="697" r="1.8" fill="#fff" opacity="0.54"/><circle cx="171" cy="503" r="1.1" fill="#fff" opacity="0.59"/><circle cx="427" cy="733" r="2.2" fill="#fff" opacity="0.33"/><circle cx="47" cy="639" r="1.4" fill="#fff" opacity="0.65"/><circle cx="340" cy="1" r="2.0" fill="#fff" opacity="0.66"/><circle cx="413" cy="374" r="1.7" fill="#fff" opacity="0.47"/></g>
  <path d="M0 620 C92 590 171 620 259 600 C357 577 432 594 512 565 V768 H0Z" fill="#fff" opacity=".18"/>
  <ellipse cx="256" cy="662" rx="150" ry="34" fill="#4260ad" opacity=".28"/>
  <g transform="translate(0 122)">
    <path d="M219.1 306.4 C65.35000000000002 187.5 67.4 392.5 206.8 400.7" fill="#82b7ff" opacity=".78"/><path d="M292.9 306.4 C446.65 187.5 444.6 392.5 305.2 400.7" fill="#82b7ff" opacity=".78"/><ellipse cx="256" cy="343.3" rx="86.1" ry="110.69999999999999" fill="url(#body)" filter="url(#softShadow)"/><circle cx="256" cy="228.5" r="77.89999999999999" fill="url(#head)"/><path d="M245.75 226.45 L331.85 249 L249.85 269.5 Z" fill="#d9edff"/><path d="M210.9 154.70000000000002 C239.6 89.10000000000002 280.6 109.60000000000002 260.1 167" fill="#4260ad" opacity=".85"/><ellipse cx="223.2" cy="253.1" rx="14.349999999999998" ry="16.4" fill="#14213d"/><ellipse cx="288.8" cy="253.1" rx="14.349999999999998" ry="16.4" fill="#14213d"/><circle cx="229.35" cy="244.9" r="4.714999999999999" fill="#fff"/><circle cx="294.95" cy="244.9" r="4.714999999999999" fill="#fff"/><path d="M256 183.4 L278.55 212.10000000000002 L256 242.85 L233.45 212.10000000000002 Z" fill="#d9edff" opacity=".92"/>
  </g>
  <path d="M74 126 C170 65 334 65 438 126" stroke="#fff" stroke-width="16" stroke-linecap="round" opacity=".16"/>
  <path d="M63 676 C162 718 344 718 449 662" stroke="#fff" stroke-width="14" stroke-linecap="round" opacity=".16"/>
</svg>