<svg xmlns="http://www.w3.org/2000/svg" viewBox="0 0 512 768" role="img" aria-label="坦克臭鼬 original portrait">
  
  <defs>
    <linearGradient id="bgp181" x1="0" y1="0" x2="1" y2="1">
      <stop offset="0" stop-color="#efb2ff"/>
      <stop offset=".55" stop-color="#9b5de5"/>
      <stop offset="1" stop-color="#4f2378"/>
    </linearGradient>
    <radialGradient id="body" cx=".36" cy=".25" r=".76">
      <stop offset="0" stop-color="#efb2ff"/>
      <stop offset=".6" stop-color="#9b5de5"/>
      <stop offset="1" stop-color="#4f2378"/>
    </radialGradient>
    <radialGradient id="head" cx=".36" cy=".26" r=".72">
      <stop offset="0" stop-color="#ffffff" stop-opacity=".85"/>
      <stop offset=".2" stop-color="#efb2ff"/>
      <stop offset=".72" stop-color="#9b5de5"/>
      <stop offset="1" stop-color="#4f2378"/>
    </radialGradient>
    <filter id="softShadow" x="-30%" y="-30%" width="160%" height="160%">
      <feDropShadow dx="0" dy="8" stdDeviation="8" flood-color="#4f2378" flood-opacity=".35"/>
    </filter>
  </defs>
  <rect width="512" height="768" rx="48" fill="url(#bgp181)"/>
  <rect x="24" y="24" width="464" height="720" rx="40" fill="#ffffff" opacity=".08"/>
  <g opacity=".42"><circle cx="127" cy="54" r="1.2" fill="#fff" opacity="0.66"/><circle cx="338" cy="455" r="2.0" fill="#fff" opacity="0.46"/><circle cx="415" cy="595" r="2.6" fill="#fff" opacity="0.60"/><circle cx="204" cy="174" r="1.9" fill="#fff" opacity="0.31"/><circle cx="86" cy="68" r="1.1" fill="#fff" opacity="0.28"/><circle cx="96" cy="105" r="2.0" fill="#fff" opacity="0.61"/><circle cx="478" cy="554" r="1.3" fill="#fff" opacity="0.41"/><circle cx="156" cy="448" r="1.6" fill="#fff" opacity="0.43"/><circle cx="351" cy="399" r="1.6" fill="#fff" opacity="0.40"/><circle cx="484" cy="480" r="0.9" fill="#fff" opacity="0.58"/><circle cx="198" cy="361" r="3.0" fill="#fff" opacity="0.53"/><circle cx="42" cy="676" r="1.2" fill="#fff" opacity="0.35"/><circle cx="331" cy="203" r="2.1" fill="#fff" opacity="0.29"/><circle cx="169" cy="29" r="2.7" fill="#fff" opacity="0.47"/><circle cx="18" cy="234" r="1.3" fill="#fff" opacity="0.38"/><circle cx="402" cy="726" r="3.0" fill="#fff" opacity="0.39"/><circle cx="77" cy="137" r="1.1" fill="#fff" opacity="0.26"/><circle cx="200" cy="178" r="2.9" fill="#fff" opacity="0.29"/><circle cx="463" cy="657" r="1.6" fill="#fff" opacity="0.41"/><circle cx="453" cy="206" r="3.1" fill="#fff" opacity="0.51"/><circle cx="316" cy="559" r="0.8" fill="#fff" opacity="0.42"/><circle cx="260" cy="508" r="1.7" fill="#fff" opacity="0.56"/><circle cx="413" cy="690" r="1.2" fill="#fff" opacity="0.29"/><circle cx="489" cy="331" r="2.5" fill="#fff" opacity="0.44"/><circle cx="287" cy="555" r="1.2" fill="#fff" opacity="0.68"/><circle cx="151" cy="52" r="2.2" fill="#fff" opacity="0.36"/><circle cx="364" cy="460" r="1.4" fill="#fff" opacity="0.52"/><circle cx="270" cy="687" r="1.2" fill="#fff" opacity="0.53"/></g>
  <path d="M0 670 C96 613 167 665 256 620 C337 660 421 608 512 662 V768 H0Z" fill="#4f2378" opacity=".15"/>
  <ellipse cx="256" cy="662" rx="150" ry="34" fill="#4f2378" opacity=".28"/>
  <g transform="translate(0 122)">
    <path d="M159.65 347.4 C69.45000000000002 322.8 92 222.35000000000002 165.8 263.35" stroke="#9b5de5" stroke-width="28.699999999999996" fill="none" stroke-linecap="round" opacity=".76"/><ellipse cx="256" cy="353.55" rx="108.64999999999999" ry="102.49999999999999" fill="url(#body)" filter="url(#softShadow)"/><path d="M184.25 212.10000000000002 L137.10000000000002 115.75000000000003 L231.4 175.20000000000002 Z" fill="#9b5de5"/><path d="M327.75 212.10000000000002 L374.9 115.75000000000003 L280.6 175.20000000000002 Z" fill="#9b5de5"/><circle cx="256" cy="234.65" r="92.24999999999999" fill="url(#head)"/><ellipse cx="221.15" cy="251.05" rx="16.4" ry="20.5" fill="#182033"/><ellipse cx="290.85" cy="251.05" rx="16.4" ry="20.5" fill="#182033"/><ellipse cx="223.2" cy="253.1" rx="14.349999999999998" ry="16.4" fill="#14213d"/><ellipse cx="288.8" cy="253.1" rx="14.349999999999998" ry="16.4" fill="#14213d"/><circle cx="229.35" cy="244.9" r="4.714999999999999" fill="#fff"/><circle cx="294.95" cy="244.9" r="4.714999999999999" fill="#fff"/><circle cx="256" cy="210.05" r="14.349999999999998" fill="#efb2ff" opacity=".9"/>
  </g>
  <path d="M74 126 C170 65 334 65 438 126" stroke="#fff" stroke-width="16" stroke-linecap="round" opacity=".16"/>
  <path d="M63 676 C162 718 344 718 449 662" stroke="#fff" stroke-width="14" stroke-linecap="round" opacity=".16"/>
</svg>