<svg xmlns="http://www.w3.org/2000/svg" viewBox="0 0 512 768" role="img" aria-label="河马兽 original portrait">
  
  <defs>
    <linearGradient id="bgp184" x1="0" y1="0" x2="1" y2="1">
      <stop offset="0" stop-color="#e9c68f"/>
      <stop offset=".55" stop-color="#a0713d"/>
      <stop offset="1" stop-color="#5a3b22"/>
    </linearGradient>
    <radialGradient id="body" cx=".36" cy=".25" r=".76">
      <stop offset="0" stop-color="#e9c68f"/>
      <stop offset=".6" stop-color="#a0713d"/>
      <stop offset="1" stop-color="#5a3b22"/>
    </radialGradient>
    <radialGradient id="head" cx=".36" cy=".26" r=".72">
      <stop offset="0" stop-color="#ffffff" stop-opacity=".85"/>
      <stop offset=".2" stop-color="#e9c68f"/>
      <stop offset=".72" stop-color="#a0713d"/>
      <stop offset="1" stop-color="#5a3b22"/>
    </radialGradient>
    <filter id="softShadow" x="-30%" y="-30%" width="160%" height="160%">
      <feDropShadow dx="0" dy="8" stdDeviation="8" flood-color="#5a3b22" flood-opacity=".35"/>
    </filter>
  </defs>
  <rect width="512" height="768" rx="48" fill="url(#bgp184)"/>
  <rect x="24" y="24" width="464" height="720" rx="40" fill="#ffffff" opacity=".08"/>
  <g opacity=".42"><circle cx="201" cy="244" r="2.8" fill="#fff" opacity="0.59"/><circle cx="62" cy="336" r="0.9" fill="#fff" opacity="0.55"/><circle cx="155" cy="85" r="1.9" fill="#fff" opacity="0.40"/><circle cx="362" cy="55" r="1.7" fill="#fff" opacity="0.64"/><circle cx="510" cy="743" r="3.2" fill="#fff" opacity="0.29"/><circle cx="316" cy="278" r="1.7" fill="#fff" opacity="0.45"/><circle cx="475" cy="747" r="2.6" fill="#fff" opacity="0.56"/><circle cx="436" cy="703" r="1.6" fill="#fff" opacity="0.68"/><circle cx="242" cy="302" r="2.7" fill="#fff" opacity="0.43"/><circle cx="216" cy="71" r="3.2" fill="#fff" opacity="0.36"/><circle cx="444" cy="29" r="1.5" fill="#fff" opacity="0.28"/><circle cx="67" cy="449" r="2.2" fill="#fff" opacity="0.54"/><circle cx="70" cy="275" r="2.1" fill="#fff" opacity="0.35"/><circle cx="470" cy="738" r="0.9" fill="#fff" opacity="0.31"/><circle cx="29" cy="33" r="1.3" fill="#fff" opacity="0.67"/><circle cx="342" cy="343" r="2.0" fill="#fff" opacity="0.56"/><circle cx="266" cy="210" r="2.0" fill="#fff" opacity="0.70"/><circle cx="373" cy="414" r="2.4" fill="#fff" opacity="0.41"/><circle cx="27" cy="393" r="2.6" fill="#fff" opacity="0.68"/><circle cx="362" cy="561" r="2.1" fill="#fff" opacity="0.54"/><circle cx="241" cy="650" r="2.1" fill="#fff" opacity="0.56"/><circle cx="32" cy="173" r="2.8" fill="#fff" opacity="0.31"/><circle cx="243" cy="121" r="1.4" fill="#fff" opacity="0.36"/><circle cx="381" cy="190" r="1.9" fill="#fff" opacity="0.42"/><circle cx="468" cy="83" r="0.9" fill="#fff" opacity="0.62"/><circle cx="424" cy="326" r="1.3" fill="#fff" opacity="0.47"/><circle cx="438" cy="546" r="2.2" fill="#fff" opacity="0.47"/><circle cx="378" cy="509" r="3.0" fill="#fff" opacity="0.26"/></g>
  <path d="M0 670 C96 613 167 665 256 620 C337 660 421 608 512 662 V768 H0Z" fill="#5a3b22" opacity=".15"/>
  <ellipse cx="256" cy="662" rx="150" ry="34" fill="#5a3b22" opacity=".28"/>
  <g transform="translate(0 122)">
    <path d="M352.35 347.4 C442.54999999999995 322.8 420 222.35000000000002 346.2 263.35" stroke="#a0713d" stroke-width="28.699999999999996" fill="none" stroke-linecap="round" opacity=".76"/><ellipse cx="256" cy="353.55" rx="108.64999999999999" ry="102.49999999999999" fill="url(#body)" filter="url(#softShadow)"/><path d="M184.25 212.10000000000002 L137.10000000000002 115.75000000000003 L231.4 175.20000000000002 Z" fill="#a0713d"/><path d="M327.75 212.10000000000002 L374.9 115.75000000000003 L280.6 175.20000000000002 Z" fill="#a0713d"/><circle cx="256" cy="234.65" r="92.24999999999999" fill="url(#head)"/><ellipse cx="221.15" cy="251.05" rx="16.4" ry="20.5" fill="#182033"/><ellipse cx="290.85" cy="251.05" rx="16.4" ry="20.5" fill="#182033"/><ellipse cx="223.2" cy="253.1" rx="14.349999999999998" ry="16.4" fill="#14213d"/><ellipse cx="288.8" cy="253.1" rx="14.349999999999998" ry="16.4" fill="#14213d"/><circle cx="229.35" cy="244.9" r="4.714999999999999" fill="#fff"/><circle cx="294.95" cy="244.9" r="4.714999999999999" fill="#fff"/><path d="M215 201.85000000000002 Q256 224.4 297 201.85000000000002" stroke="#e9c68f" stroke-width="10.25" fill="none" stroke-linecap="round" opacity=".8"/>
  </g>
  <path d="M74 126 C170 65 334 65 438 126" stroke="#fff" stroke-width="16" stroke-linecap="round" opacity=".16"/>
  <path d="M63 676 C162 718 344 718 449 662" stroke="#fff" stroke-width="14" stroke-linecap="round" opacity=".16"/>
</svg>