<svg xmlns="http://www.w3.org/2000/svg" viewBox="0 0 512 768" role="img" aria-label="暴雪王 original portrait">
  
  <defs>
    <linearGradient id="bgp187" x1="0" y1="0" x2="1" y2="1">
      <stop offset="0" stop-color="#d7fbff"/>
      <stop offset=".55" stop-color="#71d6e8"/>
      <stop offset="1" stop-color="#318aa3"/>
    </linearGradient>
    <radialGradient id="body" cx=".36" cy=".25" r=".76">
      <stop offset="0" stop-color="#d7fbff"/>
      <stop offset=".6" stop-color="#71d6e8"/>
      <stop offset="1" stop-color="#318aa3"/>
    </radialGradient>
    <radialGradient id="head" cx=".36" cy=".26" r=".72">
      <stop offset="0" stop-color="#ffffff" stop-opacity=".85"/>
      <stop offset=".2" stop-color="#d7fbff"/>
      <stop offset=".72" stop-color="#71d6e8"/>
      <stop offset="1" stop-color="#318aa3"/>
    </radialGradient>
    <filter id="softShadow" x="-30%" y="-30%" width="160%" height="160%">
      <feDropShadow dx="0" dy="8" stdDeviation="8" flood-color="#318aa3" flood-opacity=".35"/>
    </filter>
  </defs>
  <rect width="512" height="768" rx="48" fill="url(#bgp187)"/>
  <rect x="24" y="24" width="464" height="720" rx="40" fill="#ffffff" opacity=".08"/>
  <g opacity=".42"><circle cx="128" cy="245" r="2.0" fill="#fff" opacity="0.43"/><circle cx="155" cy="347" r="1.4" fill="#fff" opacity="0.61"/><circle cx="181" cy="638" r="3.1" fill="#fff" opacity="0.59"/><circle cx="20" cy="100" r="2.9" fill="#fff" opacity="0.38"/><circle cx="6" cy="36" r="2.4" fill="#fff" opacity="0.50"/><circle cx="117" cy="94" r="1.6" fill="#fff" opacity="0.54"/><circle cx="354" cy="598" r="1.9" fill="#fff" opacity="0.63"/><circle cx="63" cy="249" r="3.2" fill="#fff" opacity="0.50"/><circle cx="416" cy="101" r="2.8" fill="#fff" opacity="0.57"/><circle cx="55" cy="621" r="1.1" fill="#fff" opacity="0.70"/><circle cx="360" cy="764" r="1.7" fill="#fff" opacity="0.69"/><circle cx="408" cy="721" r="2.8" fill="#fff" opacity="0.65"/><circle cx="238" cy="87" r="2.0" fill="#fff" opacity="0.49"/><circle cx="272" cy="386" r="1.8" fill="#fff" opacity="0.65"/><circle cx="97" cy="638" r="2.8" fill="#fff" opacity="0.44"/><circle cx="152" cy="132" r="2.3" fill="#fff" opacity="0.54"/><circle cx="140" cy="542" r="2.0" fill="#fff" opacity="0.34"/><circle cx="504" cy="201" r="0.8" fill="#fff" opacity="0.50"/><circle cx="395" cy="425" r="1.8" fill="#fff" opacity="0.30"/><circle cx="121" cy="131" r="1.6" fill="#fff" opacity="0.56"/><circle cx="130" cy="232" r="3.1" fill="#fff" opacity="0.67"/><circle cx="320" cy="48" r="2.3" fill="#fff" opacity="0.35"/><circle cx="338" cy="708" r="1.6" fill="#fff" opacity="0.41"/><circle cx="481" cy="167" r="2.7" fill="#fff" opacity="0.25"/><circle cx="43" cy="106" r="0.9" fill="#fff" opacity="0.33"/><circle cx="296" cy="234" r="3.1" fill="#fff" opacity="0.33"/><circle cx="380" cy="296" r="1.1" fill="#fff" opacity="0.69"/><circle cx="105" cy="553" r="2.2" fill="#fff" opacity="0.39"/></g>
  <path d="M38 684 C128 596 386 596 475 684 V768 H38Z" fill="#318aa3" opacity=".17"/>
  <ellipse cx="256" cy="662" rx="150" ry="34" fill="#318aa3" opacity=".28"/>
  <g transform="translate(0 122)">
    <ellipse cx="256" cy="359.7" rx="110.69999999999999" ry="100.44999999999999" fill="url(#body)" filter="url(#softShadow)"/><circle cx="256" cy="232.60000000000002" r="86.1" fill="url(#head)"/><path d="M149.4 322.8 C51.00000000000003 304.35 85.85000000000002 423.25 165.8 402.75" fill="#318aa3"/><path d="M362.6 322.8 C461 304.35 426.15 423.25 346.2 402.75" fill="#318aa3"/><path d="M200.65 148.55 H311.35 L331.85 195.7 Q256 224.4 180.15 195.7 Z" fill="#d7fbff" opacity=".85"/><ellipse cx="223.2" cy="253.1" rx="14.349999999999998" ry="16.4" fill="#14213d"/><ellipse cx="288.8" cy="253.1" rx="14.349999999999998" ry="16.4" fill="#14213d"/><circle cx="229.35" cy="244.9" r="4.714999999999999" fill="#fff"/><circle cx="294.95" cy="244.9" r="4.714999999999999" fill="#fff"/><path d="M215 201.85000000000002 Q256 224.4 297 201.85000000000002" stroke="#d7fbff" stroke-width="10.25" fill="none" stroke-linecap="round" opacity=".8"/>
  </g>
  <path d="M74 126 C170 65 334 65 438 126" stroke="#fff" stroke-width="16" stroke-linecap="round" opacity=".16"/>
  <path d="M63 676 C162 718 344 718 449 662" stroke="#fff" stroke-width="14" stroke-linecap="round" opacity=".16"/>
</svg>