<svg xmlns="http://www.w3.org/2000/svg" viewBox="0 0 512 768" role="img" aria-label="幽冥灯笼 original portrait">
  
  <defs>
    <linearGradient id="bgp19" x1="0" y1="0" x2="1" y2="1">
      <stop offset="0" stop-color="#d5c6ff"/>
      <stop offset=".55" stop-color="#7367b8"/>
      <stop offset="1" stop-color="#2d2357"/>
    </linearGradient>
    <radialGradient id="body" cx=".36" cy=".25" r=".76">
      <stop offset="0" stop-color="#d5c6ff"/>
      <stop offset=".6" stop-color="#7367b8"/>
      <stop offset="1" stop-color="#2d2357"/>
    </radialGradient>
    <radialGradient id="head" cx=".36" cy=".26" r=".72">
      <stop offset="0" stop-color="#ffffff" stop-opacity=".85"/>
      <stop offset=".2" stop-color="#d5c6ff"/>
      <stop offset=".72" stop-color="#7367b8"/>
      <stop offset="1" stop-color="#2d2357"/>
    </radialGradient>
    <filter id="softShadow" x="-30%" y="-30%" width="160%" height="160%">
      <feDropShadow dx="0" dy="8" stdDeviation="8" flood-color="#2d2357" flood-opacity=".35"/>
    </filter>
  </defs>
  <rect width="512" height="768" rx="48" fill="url(#bgp19)"/>
  <rect x="24" y="24" width="464" height="720" rx="40" fill="#ffffff" opacity=".08"/>
  <g opacity=".42"><circle cx="54" cy="274" r="2.1" fill="#fff" opacity="0.33"/><circle cx="86" cy="19" r="2.9" fill="#fff" opacity="0.26"/><circle cx="278" cy="336" r="2.3" fill="#fff" opacity="0.55"/><circle cx="262" cy="606" r="1.5" fill="#fff" opacity="0.30"/><circle cx="14" cy="602" r="1.1" fill="#fff" opacity="0.49"/><circle cx="99" cy="535" r="1.2" fill="#fff" opacity="0.52"/><circle cx="104" cy="129" r="2.6" fill="#fff" opacity="0.36"/><circle cx="350" cy="327" r="0.8" fill="#fff" opacity="0.61"/><circle cx="62" cy="767" r="1.7" fill="#fff" opacity="0.59"/><circle cx="346" cy="361" r="3.0" fill="#fff" opacity="0.64"/><circle cx="270" cy="429" r="2.1" fill="#fff" opacity="0.62"/><circle cx="234" cy="712" r="2.7" fill="#fff" opacity="0.68"/><circle cx="18" cy="283" r="1.4" fill="#fff" opacity="0.35"/><circle cx="417" cy="24" r="2.0" fill="#fff" opacity="0.70"/><circle cx="10" cy="221" r="1.9" fill="#fff" opacity="0.54"/><circle cx="19" cy="640" r="2.8" fill="#fff" opacity="0.63"/><circle cx="327" cy="742" r="1.6" fill="#fff" opacity="0.25"/><circle cx="195" cy="500" r="1.2" fill="#fff" opacity="0.32"/><circle cx="355" cy="696" r="1.9" fill="#fff" opacity="0.49"/><circle cx="155" cy="14" r="2.0" fill="#fff" opacity="0.48"/><circle cx="500" cy="138" r="1.1" fill="#fff" opacity="0.38"/><circle cx="329" cy="176" r="1.3" fill="#fff" opacity="0.69"/><circle cx="22" cy="732" r="1.8" fill="#fff" opacity="0.59"/><circle cx="446" cy="759" r="2.0" fill="#fff" opacity="0.54"/><circle cx="78" cy="442" r="3.0" fill="#fff" opacity="0.69"/><circle cx="79" cy="406" r="2.3" fill="#fff" opacity="0.28"/><circle cx="103" cy="73" r="1.1" fill="#fff" opacity="0.36"/><circle cx="155" cy="726" r="2.6" fill="#fff" opacity="0.60"/></g>
  <path d="M0 590 C76 555 120 612 197 582 C277 551 327 614 413 581 C462 562 489 570 512 585 V768 H0Z" fill="#2d2357" opacity=".22"/>
  <ellipse cx="256" cy="662" rx="150" ry="34" fill="#2d2357" opacity=".28"/>
  <g transform="translate(0 122)">
    <path d="M149.4 435.54999999999995 C100.20000000000002 304.35 167.85000000000002 156.75 264.2 154.70000000000002 C379 150.60000000000002 420 298.2 352.35 435.54999999999995 C317.5 400.7 288.8 458.1 256 419.15 C221.15 458.1 188.35000000000002 400.7 149.4 435.54999999999995Z" fill="url(#body)" filter="url(#softShadow)"/><circle cx="219.1" cy="253.1" r="16.4" fill="#1b1638"/><circle cx="292.9" cy="253.1" r="16.4" fill="#1b1638"/><path d="M239.6 312.55 Q256 331 280.6 310.5" stroke="#1b1638" stroke-width="10.25" fill="none" stroke-linecap="round"/><path d="M126.85000000000002 326.9 C40.75000000000003 296.15 83.80000000000001 201.85000000000002 137.10000000000002 238.75" fill="#7367b8" opacity=".35"/><path d="M385.15 326.9 C471.25 296.15 428.2 201.85000000000002 374.9 238.75" fill="#7367b8" opacity=".35"/><path d="M256 183.4 L278.55 212.10000000000002 L256 242.85 L233.45 212.10000000000002 Z" fill="#d5c6ff" opacity=".92"/>
  </g>
  <path d="M74 126 C170 65 334 65 438 126" stroke="#fff" stroke-width="16" stroke-linecap="round" opacity=".16"/>
  <path d="M63 676 C162 718 344 718 449 662" stroke="#fff" stroke-width="14" stroke-linecap="round" opacity=".16"/>
</svg>