<svg xmlns="http://www.w3.org/2000/svg" viewBox="0 0 512 768" role="img" aria-label="超甲狂犀 original portrait">
  
  <defs>
    <linearGradient id="bgp190" x1="0" y1="0" x2="1" y2="1">
      <stop offset="0" stop-color="#ddd0b2"/>
      <stop offset=".55" stop-color="#8d7a5f"/>
      <stop offset="1" stop-color="#514438"/>
    </linearGradient>
    <radialGradient id="body" cx=".36" cy=".25" r=".76">
      <stop offset="0" stop-color="#ddd0b2"/>
      <stop offset=".6" stop-color="#8d7a5f"/>
      <stop offset="1" stop-color="#514438"/>
    </radialGradient>
    <radialGradient id="head" cx=".36" cy=".26" r=".72">
      <stop offset="0" stop-color="#ffffff" stop-opacity=".85"/>
      <stop offset=".2" stop-color="#ddd0b2"/>
      <stop offset=".72" stop-color="#8d7a5f"/>
      <stop offset="1" stop-color="#514438"/>
    </radialGradient>
    <filter id="softShadow" x="-30%" y="-30%" width="160%" height="160%">
      <feDropShadow dx="0" dy="8" stdDeviation="8" flood-color="#514438" flood-opacity=".35"/>
    </filter>
  </defs>
  <rect width="512" height="768" rx="48" fill="url(#bgp190)"/>
  <rect x="24" y="24" width="464" height="720" rx="40" fill="#ffffff" opacity=".08"/>
  <g opacity=".42"><circle cx="180" cy="416" r="1.1" fill="#fff" opacity="0.57"/><circle cx="57" cy="294" r="1.5" fill="#fff" opacity="0.40"/><circle cx="189" cy="551" r="1.2" fill="#fff" opacity="0.32"/><circle cx="270" cy="602" r="2.1" fill="#fff" opacity="0.46"/><circle cx="266" cy="233" r="3.1" fill="#fff" opacity="0.44"/><circle cx="154" cy="183" r="1.4" fill="#fff" opacity="0.66"/><circle cx="66" cy="477" r="3.0" fill="#fff" opacity="0.65"/><circle cx="389" cy="635" r="2.5" fill="#fff" opacity="0.54"/><circle cx="136" cy="531" r="1.2" fill="#fff" opacity="0.66"/><circle cx="159" cy="96" r="3.1" fill="#fff" opacity="0.39"/><circle cx="248" cy="313" r="2.2" fill="#fff" opacity="0.51"/><circle cx="46" cy="445" r="1.7" fill="#fff" opacity="0.38"/><circle cx="306" cy="247" r="1.7" fill="#fff" opacity="0.34"/><circle cx="86" cy="310" r="0.8" fill="#fff" opacity="0.25"/><circle cx="281" cy="92" r="3.2" fill="#fff" opacity="0.69"/><circle cx="281" cy="692" r="1.8" fill="#fff" opacity="0.26"/><circle cx="188" cy="464" r="1.2" fill="#fff" opacity="0.52"/><circle cx="150" cy="109" r="1.2" fill="#fff" opacity="0.34"/><circle cx="416" cy="153" r="1.0" fill="#fff" opacity="0.56"/><circle cx="85" cy="159" r="2.7" fill="#fff" opacity="0.58"/><circle cx="377" cy="34" r="2.1" fill="#fff" opacity="0.48"/><circle cx="217" cy="755" r="1.0" fill="#fff" opacity="0.50"/><circle cx="188" cy="509" r="1.6" fill="#fff" opacity="0.59"/><circle cx="425" cy="8" r="3.1" fill="#fff" opacity="0.45"/><circle cx="64" cy="173" r="1.6" fill="#fff" opacity="0.40"/><circle cx="306" cy="654" r="2.1" fill="#fff" opacity="0.45"/><circle cx="288" cy="392" r="3.1" fill="#fff" opacity="0.64"/><circle cx="273" cy="1" r="1.6" fill="#fff" opacity="0.68"/></g>
  <path d="M69 625 C150 571 359 568 443 628" fill="#8d7a5f" opacity=".14"/>
  <ellipse cx="256" cy="662" rx="150" ry="34" fill="#514438" opacity=".28"/>
  <g transform="translate(0 122)">
    <ellipse cx="178.10000000000002" cy="257.2" rx="69.69999999999999" ry="100.44999999999999" fill="#ddd0b2" opacity=".55"/><ellipse cx="333.9" cy="257.2" rx="69.69999999999999" ry="100.44999999999999" fill="#ddd0b2" opacity=".55"/><ellipse cx="256" cy="331" rx="65.6" ry="122.99999999999999" fill="url(#body)" filter="url(#softShadow)"/><circle cx="256" cy="214.15" r="69.69999999999999" fill="url(#head)"/><path d="M219.1 160.85000000000002 Q174 93.20000000000002 118.65 117.80000000000001" stroke="#514438" stroke-width="10.25" fill="none" stroke-linecap="round"/><path d="M292.9 160.85000000000002 Q338 93.20000000000002 393.35 117.80000000000001" stroke="#514438" stroke-width="10.25" fill="none" stroke-linecap="round"/><path d="M198.60000000000002 322.8 H313.4 M206.8 376.1 H305.2" stroke="#514438" stroke-width="8.2" opacity=".35"/><ellipse cx="223.2" cy="253.1" rx="14.349999999999998" ry="16.4" fill="#14213d"/><ellipse cx="288.8" cy="253.1" rx="14.349999999999998" ry="16.4" fill="#14213d"/><circle cx="229.35" cy="244.9" r="4.714999999999999" fill="#fff"/><circle cx="294.95" cy="244.9" r="4.714999999999999" fill="#fff"/><path d="M215 201.85000000000002 Q256 224.4 297 201.85000000000002" stroke="#ddd0b2" stroke-width="10.25" fill="none" stroke-linecap="round" opacity=".8"/>
  </g>
  <path d="M74 126 C170 65 334 65 438 126" stroke="#fff" stroke-width="16" stroke-linecap="round" opacity=".16"/>
  <path d="M63 676 C162 718 344 718 449 662" stroke="#fff" stroke-width="14" stroke-linecap="round" opacity=".16"/>
</svg>