<svg xmlns="http://www.w3.org/2000/svg" viewBox="0 0 512 768" role="img" aria-label="波克基斯 original portrait">
  
  <defs>
    <linearGradient id="bgp194" x1="0" y1="0" x2="1" y2="1">
      <stop offset="0" stop-color="#ffd7f3"/>
      <stop offset=".55" stop-color="#f47ac2"/>
      <stop offset="1" stop-color="#8e3b89"/>
    </linearGradient>
    <radialGradient id="body" cx=".36" cy=".25" r=".76">
      <stop offset="0" stop-color="#ffd7f3"/>
      <stop offset=".6" stop-color="#f47ac2"/>
      <stop offset="1" stop-color="#8e3b89"/>
    </radialGradient>
    <radialGradient id="head" cx=".36" cy=".26" r=".72">
      <stop offset="0" stop-color="#ffffff" stop-opacity=".85"/>
      <stop offset=".2" stop-color="#ffd7f3"/>
      <stop offset=".72" stop-color="#f47ac2"/>
      <stop offset="1" stop-color="#8e3b89"/>
    </radialGradient>
    <filter id="softShadow" x="-30%" y="-30%" width="160%" height="160%">
      <feDropShadow dx="0" dy="8" stdDeviation="8" flood-color="#8e3b89" flood-opacity=".35"/>
    </filter>
  </defs>
  <rect width="512" height="768" rx="48" fill="url(#bgp194)"/>
  <rect x="24" y="24" width="464" height="720" rx="40" fill="#ffffff" opacity=".08"/>
  <g opacity=".42"><circle cx="329" cy="285" r="2.2" fill="#fff" opacity="0.36"/><circle cx="322" cy="327" r="1.8" fill="#fff" opacity="0.54"/><circle cx="10" cy="673" r="2.2" fill="#fff" opacity="0.42"/><circle cx="337" cy="307" r="2.7" fill="#fff" opacity="0.65"/><circle cx="238" cy="714" r="2.9" fill="#fff" opacity="0.32"/><circle cx="375" cy="205" r="1.5" fill="#fff" opacity="0.32"/><circle cx="421" cy="676" r="2.6" fill="#fff" opacity="0.40"/><circle cx="361" cy="545" r="3.0" fill="#fff" opacity="0.56"/><circle cx="182" cy="521" r="2.5" fill="#fff" opacity="0.47"/><circle cx="47" cy="359" r="2.6" fill="#fff" opacity="0.65"/><circle cx="220" cy="656" r="1.4" fill="#fff" opacity="0.52"/><circle cx="28" cy="378" r="1.0" fill="#fff" opacity="0.62"/><circle cx="307" cy="158" r="1.8" fill="#fff" opacity="0.64"/><circle cx="206" cy="648" r="3.2" fill="#fff" opacity="0.36"/><circle cx="10" cy="83" r="1.6" fill="#fff" opacity="0.34"/><circle cx="174" cy="550" r="2.0" fill="#fff" opacity="0.43"/><circle cx="234" cy="718" r="2.1" fill="#fff" opacity="0.66"/><circle cx="150" cy="287" r="1.0" fill="#fff" opacity="0.33"/><circle cx="88" cy="738" r="1.5" fill="#fff" opacity="0.64"/><circle cx="281" cy="343" r="1.2" fill="#fff" opacity="0.28"/><circle cx="275" cy="164" r="0.8" fill="#fff" opacity="0.40"/><circle cx="153" cy="44" r="1.8" fill="#fff" opacity="0.30"/><circle cx="308" cy="196" r="1.9" fill="#fff" opacity="0.32"/><circle cx="163" cy="678" r="3.2" fill="#fff" opacity="0.46"/><circle cx="218" cy="474" r="3.2" fill="#fff" opacity="0.64"/><circle cx="263" cy="238" r="2.0" fill="#fff" opacity="0.50"/><circle cx="82" cy="542" r="3.0" fill="#fff" opacity="0.50"/><circle cx="191" cy="180" r="1.9" fill="#fff" opacity="0.27"/></g>
  <circle cx="256" cy="294" r="217" fill="#ffd7f3" opacity=".12"/><circle cx="256" cy="294" r="175" fill="#fff" opacity=".1"/>
  <ellipse cx="256" cy="662" rx="150" ry="34" fill="#8e3b89" opacity=".28"/>
  <g transform="translate(0 122)">
    <ellipse cx="256" cy="339.2" rx="100.44999999999999" ry="112.74999999999999" fill="url(#body)" filter="url(#softShadow)"/><circle cx="256" cy="226.45" r="79.94999999999999" fill="url(#head)"/><ellipse cx="256" cy="214.15" rx="139.39999999999998" ry="36.9" fill="none" stroke="#ffd7f3" stroke-width="14.349999999999998" opacity=".75" transform="rotate(-12 256 214.15)"/><path d="M256 103.45000000000002 L276.5 154.70000000000002 L333.9 156.75 L286.75 187.5 L303.15 242.85 L256 208 L208.85 242.85 L225.25 187.5 L178.10000000000002 156.75 L235.5 154.70000000000002 Z" fill="#f47ac2"/><ellipse cx="223.2" cy="253.1" rx="14.349999999999998" ry="16.4" fill="#14213d"/><ellipse cx="288.8" cy="253.1" rx="14.349999999999998" ry="16.4" fill="#14213d"/><circle cx="229.35" cy="244.9" r="4.714999999999999" fill="#fff"/><circle cx="294.95" cy="244.9" r="4.714999999999999" fill="#fff"/><path d="M215 201.85000000000002 Q256 224.4 297 201.85000000000002" stroke="#ffd7f3" stroke-width="10.25" fill="none" stroke-linecap="round" opacity=".8"/>
  </g>
  <path d="M74 126 C170 65 334 65 438 126" stroke="#fff" stroke-width="16" stroke-linecap="round" opacity=".16"/>
  <path d="M63 676 C162 718 344 718 449 662" stroke="#fff" stroke-width="14" stroke-linecap="round" opacity=".16"/>
</svg>