<svg xmlns="http://www.w3.org/2000/svg" viewBox="0 0 512 768" role="img" aria-label="天蝎王 original portrait">
  
  <defs>
    <linearGradient id="bgp198" x1="0" y1="0" x2="1" y2="1">
      <stop offset="0" stop-color="#e9c68f"/>
      <stop offset=".55" stop-color="#a0713d"/>
      <stop offset="1" stop-color="#5a3b22"/>
    </linearGradient>
    <radialGradient id="body" cx=".36" cy=".25" r=".76">
      <stop offset="0" stop-color="#e9c68f"/>
      <stop offset=".6" stop-color="#a0713d"/>
      <stop offset="1" stop-color="#5a3b22"/>
    </radialGradient>
    <radialGradient id="head" cx=".36" cy=".26" r=".72">
      <stop offset="0" stop-color="#ffffff" stop-opacity=".85"/>
      <stop offset=".2" stop-color="#e9c68f"/>
      <stop offset=".72" stop-color="#a0713d"/>
      <stop offset="1" stop-color="#5a3b22"/>
    </radialGradient>
    <filter id="softShadow" x="-30%" y="-30%" width="160%" height="160%">
      <feDropShadow dx="0" dy="8" stdDeviation="8" flood-color="#5a3b22" flood-opacity=".35"/>
    </filter>
  </defs>
  <rect width="512" height="768" rx="48" fill="url(#bgp198)"/>
  <rect x="24" y="24" width="464" height="720" rx="40" fill="#ffffff" opacity=".08"/>
  <g opacity=".42"><circle cx="72" cy="301" r="0.9" fill="#fff" opacity="0.45"/><circle cx="287" cy="470" r="2.2" fill="#fff" opacity="0.63"/><circle cx="35" cy="337" r="0.9" fill="#fff" opacity="0.48"/><circle cx="220" cy="137" r="2.9" fill="#fff" opacity="0.55"/><circle cx="314" cy="635" r="3.0" fill="#fff" opacity="0.58"/><circle cx="45" cy="170" r="1.2" fill="#fff" opacity="0.64"/><circle cx="504" cy="153" r="1.1" fill="#fff" opacity="0.35"/><circle cx="256" cy="703" r="2.4" fill="#fff" opacity="0.63"/><circle cx="223" cy="276" r="3.0" fill="#fff" opacity="0.29"/><circle cx="238" cy="302" r="2.3" fill="#fff" opacity="0.31"/><circle cx="185" cy="28" r="1.4" fill="#fff" opacity="0.60"/><circle cx="300" cy="589" r="1.3" fill="#fff" opacity="0.64"/><circle cx="156" cy="623" r="1.0" fill="#fff" opacity="0.28"/><circle cx="318" cy="384" r="3.1" fill="#fff" opacity="0.62"/><circle cx="31" cy="2" r="2.4" fill="#fff" opacity="0.45"/><circle cx="352" cy="455" r="2.9" fill="#fff" opacity="0.33"/><circle cx="81" cy="236" r="3.2" fill="#fff" opacity="0.46"/><circle cx="191" cy="1" r="1.9" fill="#fff" opacity="0.46"/><circle cx="61" cy="621" r="2.4" fill="#fff" opacity="0.53"/><circle cx="258" cy="536" r="1.1" fill="#fff" opacity="0.61"/><circle cx="472" cy="269" r="1.5" fill="#fff" opacity="0.27"/><circle cx="402" cy="4" r="1.2" fill="#fff" opacity="0.68"/><circle cx="215" cy="377" r="2.3" fill="#fff" opacity="0.45"/><circle cx="15" cy="472" r="1.9" fill="#fff" opacity="0.27"/><circle cx="427" cy="597" r="2.7" fill="#fff" opacity="0.29"/><circle cx="319" cy="72" r="2.7" fill="#fff" opacity="0.44"/><circle cx="72" cy="717" r="0.9" fill="#fff" opacity="0.40"/><circle cx="22" cy="406" r="2.0" fill="#fff" opacity="0.34"/></g>
  <path d="M69 625 C150 571 359 568 443 628" fill="#a0713d" opacity=".14"/>
  <ellipse cx="256" cy="662" rx="150" ry="34" fill="#5a3b22" opacity=".28"/>
  <g transform="translate(0 122)">
    <ellipse cx="178.10000000000002" cy="257.2" rx="69.69999999999999" ry="100.44999999999999" fill="#e9c68f" opacity=".55"/><ellipse cx="333.9" cy="257.2" rx="69.69999999999999" ry="100.44999999999999" fill="#e9c68f" opacity=".55"/><ellipse cx="256" cy="331" rx="65.6" ry="122.99999999999999" fill="url(#body)" filter="url(#softShadow)"/><circle cx="256" cy="214.15" r="69.69999999999999" fill="url(#head)"/><path d="M219.1 160.85000000000002 Q174 93.20000000000002 118.65 117.80000000000001" stroke="#5a3b22" stroke-width="10.25" fill="none" stroke-linecap="round"/><path d="M292.9 160.85000000000002 Q338 93.20000000000002 393.35 117.80000000000001" stroke="#5a3b22" stroke-width="10.25" fill="none" stroke-linecap="round"/><path d="M198.60000000000002 322.8 H313.4 M206.8 376.1 H305.2" stroke="#5a3b22" stroke-width="8.2" opacity=".35"/><ellipse cx="223.2" cy="253.1" rx="14.349999999999998" ry="16.4" fill="#14213d"/><ellipse cx="288.8" cy="253.1" rx="14.349999999999998" ry="16.4" fill="#14213d"/><circle cx="229.35" cy="244.9" r="4.714999999999999" fill="#fff"/><circle cx="294.95" cy="244.9" r="4.714999999999999" fill="#fff"/><circle cx="256" cy="210.05" r="14.349999999999998" fill="#e9c68f" opacity=".9"/>
  </g>
  <path d="M74 126 C170 65 334 65 438 126" stroke="#fff" stroke-width="16" stroke-linecap="round" opacity=".16"/>
  <path d="M63 676 C162 718 344 718 449 662" stroke="#fff" stroke-width="14" stroke-linecap="round" opacity=".16"/>
</svg>