<svg xmlns="http://www.w3.org/2000/svg" viewBox="0 0 512 768" role="img" aria-label="大宇怪 original portrait">
  
  <defs>
    <linearGradient id="bgp200" x1="0" y1="0" x2="1" y2="1">
      <stop offset="0" stop-color="#ffd0ec"/>
      <stop offset=".55" stop-color="#e056a7"/>
      <stop offset="1" stop-color="#6d327d"/>
    </linearGradient>
    <radialGradient id="body" cx=".36" cy=".25" r=".76">
      <stop offset="0" stop-color="#ffd0ec"/>
      <stop offset=".6" stop-color="#e056a7"/>
      <stop offset="1" stop-color="#6d327d"/>
    </radialGradient>
    <radialGradient id="head" cx=".36" cy=".26" r=".72">
      <stop offset="0" stop-color="#ffffff" stop-opacity=".85"/>
      <stop offset=".2" stop-color="#ffd0ec"/>
      <stop offset=".72" stop-color="#e056a7"/>
      <stop offset="1" stop-color="#6d327d"/>
    </radialGradient>
    <filter id="softShadow" x="-30%" y="-30%" width="160%" height="160%">
      <feDropShadow dx="0" dy="8" stdDeviation="8" flood-color="#6d327d" flood-opacity=".35"/>
    </filter>
  </defs>
  <rect width="512" height="768" rx="48" fill="url(#bgp200)"/>
  <rect x="24" y="24" width="464" height="720" rx="40" fill="#ffffff" opacity=".08"/>
  <g opacity=".42"><circle cx="503" cy="669" r="2.3" fill="#fff" opacity="0.33"/><circle cx="155" cy="326" r="2.6" fill="#fff" opacity="0.67"/><circle cx="244" cy="12" r="1.2" fill="#fff" opacity="0.46"/><circle cx="307" cy="721" r="2.7" fill="#fff" opacity="0.27"/><circle cx="248" cy="125" r="1.2" fill="#fff" opacity="0.26"/><circle cx="269" cy="689" r="2.3" fill="#fff" opacity="0.49"/><circle cx="222" cy="295" r="2.5" fill="#fff" opacity="0.51"/><circle cx="489" cy="748" r="1.6" fill="#fff" opacity="0.48"/><circle cx="313" cy="653" r="2.2" fill="#fff" opacity="0.42"/><circle cx="210" cy="33" r="2.4" fill="#fff" opacity="0.26"/><circle cx="195" cy="362" r="2.6" fill="#fff" opacity="0.32"/><circle cx="336" cy="353" r="2.6" fill="#fff" opacity="0.69"/><circle cx="290" cy="715" r="2.9" fill="#fff" opacity="0.44"/><circle cx="136" cy="610" r="1.6" fill="#fff" opacity="0.29"/><circle cx="350" cy="24" r="0.8" fill="#fff" opacity="0.36"/><circle cx="177" cy="260" r="1.7" fill="#fff" opacity="0.52"/><circle cx="90" cy="203" r="2.4" fill="#fff" opacity="0.49"/><circle cx="98" cy="279" r="2.8" fill="#fff" opacity="0.27"/><circle cx="373" cy="318" r="1.9" fill="#fff" opacity="0.32"/><circle cx="493" cy="702" r="1.1" fill="#fff" opacity="0.64"/><circle cx="315" cy="272" r="2.8" fill="#fff" opacity="0.48"/><circle cx="449" cy="437" r="2.1" fill="#fff" opacity="0.27"/><circle cx="455" cy="724" r="2.7" fill="#fff" opacity="0.27"/><circle cx="431" cy="730" r="3.1" fill="#fff" opacity="0.41"/><circle cx="267" cy="321" r="1.4" fill="#fff" opacity="0.29"/><circle cx="185" cy="299" r="1.8" fill="#fff" opacity="0.58"/><circle cx="51" cy="292" r="2.0" fill="#fff" opacity="0.68"/><circle cx="457" cy="587" r="2.8" fill="#fff" opacity="0.55"/></g>
  <circle cx="256" cy="294" r="216" fill="#ffd0ec" opacity=".12"/><circle cx="256" cy="294" r="174" fill="#fff" opacity=".1"/>
  <ellipse cx="256" cy="662" rx="150" ry="34" fill="#6d327d" opacity=".28"/>
  <g transform="translate(0 122)">
    <ellipse cx="256" cy="339.2" rx="100.44999999999999" ry="112.74999999999999" fill="url(#body)" filter="url(#softShadow)"/><circle cx="256" cy="226.45" r="79.94999999999999" fill="url(#head)"/><ellipse cx="256" cy="214.15" rx="139.39999999999998" ry="36.9" fill="none" stroke="#ffd0ec" stroke-width="14.349999999999998" opacity=".75" transform="rotate(-12 256 214.15)"/><path d="M256 103.45000000000002 L276.5 154.70000000000002 L333.9 156.75 L286.75 187.5 L303.15 242.85 L256 208 L208.85 242.85 L225.25 187.5 L178.10000000000002 156.75 L235.5 154.70000000000002 Z" fill="#e056a7"/><ellipse cx="223.2" cy="253.1" rx="14.349999999999998" ry="16.4" fill="#14213d"/><ellipse cx="288.8" cy="253.1" rx="14.349999999999998" ry="16.4" fill="#14213d"/><circle cx="229.35" cy="244.9" r="4.714999999999999" fill="#fff"/><circle cx="294.95" cy="244.9" r="4.714999999999999" fill="#fff"/><path d="M256 183.4 L278.55 212.10000000000002 L256 242.85 L233.45 212.10000000000002 Z" fill="#ffd0ec" opacity=".92"/>
  </g>
  <path d="M74 126 C170 65 334 65 438 126" stroke="#fff" stroke-width="16" stroke-linecap="round" opacity=".16"/>
  <path d="M63 676 C162 718 344 718 449 662" stroke="#fff" stroke-width="14" stroke-linecap="round" opacity=".16"/>
</svg>