<svg xmlns="http://www.w3.org/2000/svg" viewBox="0 0 512 768" role="img" aria-label="熔岩堡垒 unique portrait">
  <defs>
    <linearGradient id="bg202" x1="0" y1="0" x2="1" y2="1"><stop offset="0" stop-color="#ffd166"/><stop offset=".55" stop-color="#ff6b35"/><stop offset="1" stop-color="#4a3830"/></linearGradient>
    <radialGradient id="body202" cx=".35" cy=".24" r=".78"><stop offset="0" stop-color="#fff" stop-opacity=".88"/><stop offset=".18" stop-color="#ffd166"/><stop offset=".68" stop-color="#ff6b35"/><stop offset="1" stop-color="#4a3830"/></radialGradient>
    <filter id="shadow202" x="-30%" y="-30%" width="160%" height="160%"><feDropShadow dx="0" dy="10" stdDeviation="9" flood-color="#4a3830" flood-opacity=".36"/></filter>
  </defs>
  <rect width="512" height="768" rx="48" fill="url(#bg202)"/>
  <rect x="24" y="24" width="464" height="720" rx="40" fill="#fff" opacity=".08"/>
  <g opacity=".46"><circle cx="150" cy="255" r="4.1" fill="#fff" opacity="0.45"/><circle cx="56" cy="74" r="4.1" fill="#fff" opacity="0.35"/><circle cx="310" cy="505" r="2.3" fill="#fff" opacity="0.54"/><circle cx="406" cy="308" r="4.9" fill="#fff" opacity="0.33"/><circle cx="464" cy="187" r="4.7" fill="#fff" opacity="0.61"/><circle cx="229" cy="182" r="3.9" fill="#fff" opacity="0.61"/><circle cx="393" cy="146" r="2.3" fill="#fff" opacity="0.61"/><circle cx="273" cy="382" r="3.2" fill="#fff" opacity="0.42"/><circle cx="470" cy="139" r="5.0" fill="#fff" opacity="0.50"/><circle cx="276" cy="335" r="4.9" fill="#fff" opacity="0.48"/><circle cx="276" cy="472" r="2.7" fill="#fff" opacity="0.27"/><circle cx="399" cy="335" r="4.1" fill="#fff" opacity="0.37"/></g>
  <path d="M0 596 C80 558 128 616 202 584 C281 550 332 618 418 582 C464 563 492 570 512 586 V768 H0Z" fill="#4a3830" opacity=".22"/>
  <ellipse cx="256" cy="664" rx="154" ry="36" fill="#4a3830" opacity=".3"/>
  <g transform="translate(0 84)"><circle cx="256" cy="357" r="128" fill="url(#body202)" filter="url(#shadow202)"/><circle cx="256" cy="357" r="70" fill="#d6c2a4" opacity=".26"/>
    <circle cx="209" cy="326" r="17" fill="#4a3830"/><circle cx="303" cy="326" r="17" fill="#4a3830"/>
    <circle cx="203" cy="320" r="5" fill="#fff" opacity=".75"/><circle cx="297" cy="320" r="5" fill="#fff" opacity=".75"/>
    <path d="M206 410 Q256 442 306 410" stroke="#4a3830" stroke-width="12" fill="none" stroke-linecap="round" opacity=".72"/>
    <path d="M188 560 C228 600 288 600 326 560" stroke="#fff" stroke-width="12" stroke-linecap="round" opacity=".18" fill="none"/>
  </g>
  <path d="M72 128 C168 68 334 66 440 128" stroke="#fff" stroke-width="16" stroke-linecap="round" opacity=".16"/>
  <path d="M60 678 C164 722 348 718 452 662" stroke="#fff" stroke-width="14" stroke-linecap="round" opacity=".16"/>
</svg>