<svg xmlns="http://www.w3.org/2000/svg" viewBox="0 0 512 768" role="img" aria-label="雪虫 original portrait">
  
  <defs>
    <linearGradient id="bgp203" x1="0" y1="0" x2="1" y2="1">
      <stop offset="0" stop-color="#d7fbff"/>
      <stop offset=".55" stop-color="#71d6e8"/>
      <stop offset="1" stop-color="#318aa3"/>
    </linearGradient>
    <radialGradient id="body" cx=".36" cy=".25" r=".76">
      <stop offset="0" stop-color="#d7fbff"/>
      <stop offset=".6" stop-color="#71d6e8"/>
      <stop offset="1" stop-color="#318aa3"/>
    </radialGradient>
    <radialGradient id="head" cx=".36" cy=".26" r=".72">
      <stop offset="0" stop-color="#ffffff" stop-opacity=".85"/>
      <stop offset=".2" stop-color="#d7fbff"/>
      <stop offset=".72" stop-color="#71d6e8"/>
      <stop offset="1" stop-color="#318aa3"/>
    </radialGradient>
    <filter id="softShadow" x="-30%" y="-30%" width="160%" height="160%">
      <feDropShadow dx="0" dy="8" stdDeviation="8" flood-color="#318aa3" flood-opacity=".35"/>
    </filter>
  </defs>
  <rect width="512" height="768" rx="48" fill="url(#bgp203)"/>
  <rect x="24" y="24" width="464" height="720" rx="40" fill="#ffffff" opacity=".08"/>
  <g opacity=".42"><circle cx="307" cy="369" r="2.4" fill="#fff" opacity="0.35"/><circle cx="376" cy="401" r="3.1" fill="#fff" opacity="0.42"/><circle cx="397" cy="560" r="1.1" fill="#fff" opacity="0.53"/><circle cx="339" cy="460" r="1.7" fill="#fff" opacity="0.52"/><circle cx="114" cy="230" r="2.4" fill="#fff" opacity="0.25"/><circle cx="186" cy="747" r="2.0" fill="#fff" opacity="0.32"/><circle cx="35" cy="112" r="2.5" fill="#fff" opacity="0.35"/><circle cx="412" cy="294" r="3.2" fill="#fff" opacity="0.29"/><circle cx="48" cy="504" r="1.6" fill="#fff" opacity="0.34"/><circle cx="210" cy="611" r="1.5" fill="#fff" opacity="0.34"/><circle cx="411" cy="458" r="2.8" fill="#fff" opacity="0.33"/><circle cx="89" cy="655" r="3.0" fill="#fff" opacity="0.49"/><circle cx="100" cy="543" r="1.9" fill="#fff" opacity="0.55"/><circle cx="291" cy="518" r="2.0" fill="#fff" opacity="0.69"/><circle cx="126" cy="449" r="2.9" fill="#fff" opacity="0.60"/><circle cx="8" cy="163" r="1.0" fill="#fff" opacity="0.70"/><circle cx="154" cy="130" r="2.0" fill="#fff" opacity="0.38"/><circle cx="201" cy="55" r="2.6" fill="#fff" opacity="0.55"/><circle cx="444" cy="121" r="1.2" fill="#fff" opacity="0.48"/><circle cx="493" cy="711" r="1.0" fill="#fff" opacity="0.41"/><circle cx="230" cy="442" r="2.6" fill="#fff" opacity="0.35"/><circle cx="3" cy="593" r="2.9" fill="#fff" opacity="0.51"/><circle cx="293" cy="589" r="1.1" fill="#fff" opacity="0.30"/><circle cx="394" cy="55" r="1.1" fill="#fff" opacity="0.58"/><circle cx="508" cy="723" r="1.4" fill="#fff" opacity="0.55"/><circle cx="404" cy="286" r="1.5" fill="#fff" opacity="0.69"/><circle cx="358" cy="764" r="3.1" fill="#fff" opacity="0.55"/><circle cx="196" cy="186" r="1.3" fill="#fff" opacity="0.27"/></g>
  <path d="M69 625 C150 571 359 568 443 628" fill="#71d6e8" opacity=".14"/>
  <ellipse cx="256" cy="662" rx="150" ry="34" fill="#318aa3" opacity=".28"/>
  <g transform="translate(0 122)">
    <ellipse cx="178.10000000000002" cy="257.2" rx="69.69999999999999" ry="100.44999999999999" fill="#d7fbff" opacity=".55"/><ellipse cx="333.9" cy="257.2" rx="69.69999999999999" ry="100.44999999999999" fill="#d7fbff" opacity=".55"/><ellipse cx="256" cy="331" rx="65.6" ry="122.99999999999999" fill="url(#body)" filter="url(#softShadow)"/><circle cx="256" cy="214.15" r="69.69999999999999" fill="url(#head)"/><path d="M219.1 160.85000000000002 Q174 93.20000000000002 118.65 117.80000000000001" stroke="#318aa3" stroke-width="10.25" fill="none" stroke-linecap="round"/><path d="M292.9 160.85000000000002 Q338 93.20000000000002 393.35 117.80000000000001" stroke="#318aa3" stroke-width="10.25" fill="none" stroke-linecap="round"/><path d="M198.60000000000002 322.8 H313.4 M206.8 376.1 H305.2" stroke="#318aa3" stroke-width="8.2" opacity=".35"/><ellipse cx="223.2" cy="253.1" rx="14.349999999999998" ry="16.4" fill="#14213d"/><ellipse cx="288.8" cy="253.1" rx="14.349999999999998" ry="16.4" fill="#14213d"/><circle cx="229.35" cy="244.9" r="4.714999999999999" fill="#fff"/><circle cx="294.95" cy="244.9" r="4.714999999999999" fill="#fff"/><path d="M256 183.4 L278.55 212.10000000000002 L256 242.85 L233.45 212.10000000000002 Z" fill="#d7fbff" opacity=".92"/>
  </g>
  <path d="M74 126 C170 65 334 65 438 126" stroke="#fff" stroke-width="16" stroke-linecap="round" opacity=".16"/>
  <path d="M63 676 C162 718 344 718 449 662" stroke="#fff" stroke-width="14" stroke-linecap="round" opacity=".16"/>
</svg>