<svg xmlns="http://www.w3.org/2000/svg" viewBox="0 0 512 768" role="img" aria-label="极光蛾 original portrait">
  
  <defs>
    <linearGradient id="bgp204" x1="0" y1="0" x2="1" y2="1">
      <stop offset="0" stop-color="#d7fbff"/>
      <stop offset=".55" stop-color="#71d6e8"/>
      <stop offset="1" stop-color="#318aa3"/>
    </linearGradient>
    <radialGradient id="body" cx=".36" cy=".25" r=".76">
      <stop offset="0" stop-color="#d7fbff"/>
      <stop offset=".6" stop-color="#71d6e8"/>
      <stop offset="1" stop-color="#318aa3"/>
    </radialGradient>
    <radialGradient id="head" cx=".36" cy=".26" r=".72">
      <stop offset="0" stop-color="#ffffff" stop-opacity=".85"/>
      <stop offset=".2" stop-color="#d7fbff"/>
      <stop offset=".72" stop-color="#71d6e8"/>
      <stop offset="1" stop-color="#318aa3"/>
    </radialGradient>
    <filter id="softShadow" x="-30%" y="-30%" width="160%" height="160%">
      <feDropShadow dx="0" dy="8" stdDeviation="8" flood-color="#318aa3" flood-opacity=".35"/>
    </filter>
  </defs>
  <rect width="512" height="768" rx="48" fill="url(#bgp204)"/>
  <rect x="24" y="24" width="464" height="720" rx="40" fill="#ffffff" opacity=".08"/>
  <g opacity=".42"><circle cx="426" cy="432" r="2.5" fill="#fff" opacity="0.33"/><circle cx="177" cy="587" r="2.1" fill="#fff" opacity="0.48"/><circle cx="10" cy="170" r="2.3" fill="#fff" opacity="0.62"/><circle cx="348" cy="441" r="2.3" fill="#fff" opacity="0.52"/><circle cx="244" cy="142" r="0.9" fill="#fff" opacity="0.28"/><circle cx="300" cy="741" r="3.1" fill="#fff" opacity="0.67"/><circle cx="413" cy="585" r="2.6" fill="#fff" opacity="0.68"/><circle cx="479" cy="549" r="1.7" fill="#fff" opacity="0.31"/><circle cx="150" cy="59" r="2.6" fill="#fff" opacity="0.49"/><circle cx="153" cy="587" r="1.2" fill="#fff" opacity="0.64"/><circle cx="435" cy="223" r="3.1" fill="#fff" opacity="0.64"/><circle cx="400" cy="15" r="1.0" fill="#fff" opacity="0.28"/><circle cx="186" cy="390" r="1.6" fill="#fff" opacity="0.69"/><circle cx="462" cy="14" r="2.5" fill="#fff" opacity="0.38"/><circle cx="189" cy="45" r="1.3" fill="#fff" opacity="0.58"/><circle cx="317" cy="52" r="2.4" fill="#fff" opacity="0.68"/><circle cx="256" cy="74" r="0.8" fill="#fff" opacity="0.70"/><circle cx="63" cy="609" r="1.5" fill="#fff" opacity="0.58"/><circle cx="312" cy="247" r="3.1" fill="#fff" opacity="0.58"/><circle cx="16" cy="16" r="1.9" fill="#fff" opacity="0.41"/><circle cx="61" cy="457" r="1.3" fill="#fff" opacity="0.52"/><circle cx="183" cy="83" r="2.0" fill="#fff" opacity="0.46"/><circle cx="7" cy="327" r="1.2" fill="#fff" opacity="0.32"/><circle cx="103" cy="56" r="2.6" fill="#fff" opacity="0.47"/><circle cx="406" cy="198" r="1.3" fill="#fff" opacity="0.28"/><circle cx="342" cy="632" r="3.1" fill="#fff" opacity="0.53"/><circle cx="57" cy="99" r="1.9" fill="#fff" opacity="0.39"/><circle cx="225" cy="616" r="2.8" fill="#fff" opacity="0.36"/></g>
  <path d="M69 625 C150 571 359 568 443 628" fill="#71d6e8" opacity=".14"/>
  <ellipse cx="256" cy="662" rx="150" ry="34" fill="#318aa3" opacity=".28"/>
  <g transform="translate(0 122)">
    <ellipse cx="178.10000000000002" cy="257.2" rx="69.69999999999999" ry="100.44999999999999" fill="#d7fbff" opacity=".55"/><ellipse cx="333.9" cy="257.2" rx="69.69999999999999" ry="100.44999999999999" fill="#d7fbff" opacity=".55"/><ellipse cx="256" cy="331" rx="65.6" ry="122.99999999999999" fill="url(#body)" filter="url(#softShadow)"/><circle cx="256" cy="214.15" r="69.69999999999999" fill="url(#head)"/><path d="M219.1 160.85000000000002 Q174 93.20000000000002 118.65 117.80000000000001" stroke="#318aa3" stroke-width="10.25" fill="none" stroke-linecap="round"/><path d="M292.9 160.85000000000002 Q338 93.20000000000002 393.35 117.80000000000001" stroke="#318aa3" stroke-width="10.25" fill="none" stroke-linecap="round"/><path d="M198.60000000000002 322.8 H313.4 M206.8 376.1 H305.2" stroke="#318aa3" stroke-width="8.2" opacity=".35"/><ellipse cx="223.2" cy="253.1" rx="14.349999999999998" ry="16.4" fill="#14213d"/><ellipse cx="288.8" cy="253.1" rx="14.349999999999998" ry="16.4" fill="#14213d"/><circle cx="229.35" cy="244.9" r="4.714999999999999" fill="#fff"/><circle cx="294.95" cy="244.9" r="4.714999999999999" fill="#fff"/><path d="M215 201.85000000000002 Q256 224.4 297 201.85000000000002" stroke="#d7fbff" stroke-width="10.25" fill="none" stroke-linecap="round" opacity=".8"/>
  </g>
  <path d="M74 126 C170 65 334 65 438 126" stroke="#fff" stroke-width="16" stroke-linecap="round" opacity=".16"/>
  <path d="M63 676 C162 718 344 718 449 662" stroke="#fff" stroke-width="14" stroke-linecap="round" opacity=".16"/>
</svg>