<svg xmlns="http://www.w3.org/2000/svg" viewBox="0 0 512 768" role="img" aria-label="铁甲犀牛II original portrait">
  
  <defs>
    <linearGradient id="bgp205" x1="0" y1="0" x2="1" y2="1">
      <stop offset="0" stop-color="#e8edf2"/>
      <stop offset=".55" stop-color="#9aa8b7"/>
      <stop offset="1" stop-color="#536271"/>
    </linearGradient>
    <radialGradient id="body" cx=".36" cy=".25" r=".76">
      <stop offset="0" stop-color="#e8edf2"/>
      <stop offset=".6" stop-color="#9aa8b7"/>
      <stop offset="1" stop-color="#536271"/>
    </radialGradient>
    <radialGradient id="head" cx=".36" cy=".26" r=".72">
      <stop offset="0" stop-color="#ffffff" stop-opacity=".85"/>
      <stop offset=".2" stop-color="#e8edf2"/>
      <stop offset=".72" stop-color="#9aa8b7"/>
      <stop offset="1" stop-color="#536271"/>
    </radialGradient>
    <filter id="softShadow" x="-30%" y="-30%" width="160%" height="160%">
      <feDropShadow dx="0" dy="8" stdDeviation="8" flood-color="#536271" flood-opacity=".35"/>
    </filter>
  </defs>
  <rect width="512" height="768" rx="48" fill="url(#bgp205)"/>
  <rect x="24" y="24" width="464" height="720" rx="40" fill="#ffffff" opacity=".08"/>
  <g opacity=".42"><circle cx="82" cy="642" r="2.3" fill="#fff" opacity="0.37"/><circle cx="350" cy="201" r="2.5" fill="#fff" opacity="0.35"/><circle cx="372" cy="82" r="1.3" fill="#fff" opacity="0.32"/><circle cx="142" cy="265" r="2.2" fill="#fff" opacity="0.29"/><circle cx="24" cy="756" r="0.9" fill="#fff" opacity="0.43"/><circle cx="180" cy="556" r="1.7" fill="#fff" opacity="0.38"/><circle cx="347" cy="677" r="2.9" fill="#fff" opacity="0.69"/><circle cx="1" cy="289" r="2.8" fill="#fff" opacity="0.40"/><circle cx="273" cy="422" r="1.7" fill="#fff" opacity="0.50"/><circle cx="463" cy="768" r="1.9" fill="#fff" opacity="0.61"/><circle cx="483" cy="689" r="2.3" fill="#fff" opacity="0.41"/><circle cx="375" cy="44" r="1.4" fill="#fff" opacity="0.45"/><circle cx="131" cy="69" r="1.4" fill="#fff" opacity="0.25"/><circle cx="427" cy="749" r="2.8" fill="#fff" opacity="0.41"/><circle cx="417" cy="233" r="1.6" fill="#fff" opacity="0.63"/><circle cx="62" cy="686" r="1.1" fill="#fff" opacity="0.60"/><circle cx="75" cy="171" r="2.7" fill="#fff" opacity="0.60"/><circle cx="254" cy="242" r="2.2" fill="#fff" opacity="0.70"/><circle cx="432" cy="47" r="2.3" fill="#fff" opacity="0.40"/><circle cx="61" cy="692" r="1.8" fill="#fff" opacity="0.64"/><circle cx="365" cy="730" r="1.5" fill="#fff" opacity="0.48"/><circle cx="41" cy="182" r="2.2" fill="#fff" opacity="0.42"/><circle cx="502" cy="366" r="2.7" fill="#fff" opacity="0.65"/><circle cx="184" cy="674" r="1.9" fill="#fff" opacity="0.63"/><circle cx="306" cy="306" r="1.3" fill="#fff" opacity="0.44"/><circle cx="412" cy="280" r="0.8" fill="#fff" opacity="0.49"/><circle cx="275" cy="497" r="1.9" fill="#fff" opacity="0.65"/><circle cx="231" cy="405" r="1.0" fill="#fff" opacity="0.28"/></g>
  <path d="M69 625 C150 571 359 568 443 628" fill="#9aa8b7" opacity=".14"/>
  <ellipse cx="256" cy="662" rx="150" ry="34" fill="#536271" opacity=".28"/>
  <g transform="translate(0 122)">
    <ellipse cx="178.10000000000002" cy="257.2" rx="69.69999999999999" ry="100.44999999999999" fill="#e8edf2" opacity=".55"/><ellipse cx="333.9" cy="257.2" rx="69.69999999999999" ry="100.44999999999999" fill="#e8edf2" opacity=".55"/><ellipse cx="256" cy="331" rx="65.6" ry="122.99999999999999" fill="url(#body)" filter="url(#softShadow)"/><circle cx="256" cy="214.15" r="69.69999999999999" fill="url(#head)"/><path d="M219.1 160.85000000000002 Q174 93.20000000000002 118.65 117.80000000000001" stroke="#536271" stroke-width="10.25" fill="none" stroke-linecap="round"/><path d="M292.9 160.85000000000002 Q338 93.20000000000002 393.35 117.80000000000001" stroke="#536271" stroke-width="10.25" fill="none" stroke-linecap="round"/><path d="M198.60000000000002 322.8 H313.4 M206.8 376.1 H305.2" stroke="#536271" stroke-width="8.2" opacity=".35"/><ellipse cx="223.2" cy="253.1" rx="14.349999999999998" ry="16.4" fill="#14213d"/><ellipse cx="288.8" cy="253.1" rx="14.349999999999998" ry="16.4" fill="#14213d"/><circle cx="229.35" cy="244.9" r="4.714999999999999" fill="#fff"/><circle cx="294.95" cy="244.9" r="4.714999999999999" fill="#fff"/><circle cx="256" cy="210.05" r="14.349999999999998" fill="#e8edf2" opacity=".9"/>
  </g>
  <path d="M74 126 C170 65 334 65 438 126" stroke="#fff" stroke-width="16" stroke-linecap="round" opacity=".16"/>
  <path d="M63 676 C162 718 344 718 449 662" stroke="#fff" stroke-width="14" stroke-linecap="round" opacity=".16"/>
</svg>