<svg xmlns="http://www.w3.org/2000/svg" viewBox="0 0 512 768" role="img" aria-label="合金暴龙 original portrait">
  
  <defs>
    <linearGradient id="bgp206" x1="0" y1="0" x2="1" y2="1">
      <stop offset="0" stop-color="#e8edf2"/>
      <stop offset=".55" stop-color="#9aa8b7"/>
      <stop offset="1" stop-color="#536271"/>
    </linearGradient>
    <radialGradient id="body" cx=".36" cy=".25" r=".76">
      <stop offset="0" stop-color="#e8edf2"/>
      <stop offset=".6" stop-color="#9aa8b7"/>
      <stop offset="1" stop-color="#536271"/>
    </radialGradient>
    <radialGradient id="head" cx=".36" cy=".26" r=".72">
      <stop offset="0" stop-color="#ffffff" stop-opacity=".85"/>
      <stop offset=".2" stop-color="#e8edf2"/>
      <stop offset=".72" stop-color="#9aa8b7"/>
      <stop offset="1" stop-color="#536271"/>
    </radialGradient>
    <filter id="softShadow" x="-30%" y="-30%" width="160%" height="160%">
      <feDropShadow dx="0" dy="8" stdDeviation="8" flood-color="#536271" flood-opacity=".35"/>
    </filter>
  </defs>
  <rect width="512" height="768" rx="48" fill="url(#bgp206)"/>
  <rect x="24" y="24" width="464" height="720" rx="40" fill="#ffffff" opacity=".08"/>
  <g opacity=".42"><circle cx="285" cy="162" r="2.1" fill="#fff" opacity="0.65"/><circle cx="325" cy="80" r="1.9" fill="#fff" opacity="0.39"/><circle cx="27" cy="338" r="2.4" fill="#fff" opacity="0.58"/><circle cx="49" cy="89" r="3.0" fill="#fff" opacity="0.49"/><circle cx="106" cy="78" r="2.8" fill="#fff" opacity="0.27"/><circle cx="439" cy="646" r="1.8" fill="#fff" opacity="0.46"/><circle cx="479" cy="104" r="1.4" fill="#fff" opacity="0.63"/><circle cx="368" cy="405" r="1.2" fill="#fff" opacity="0.69"/><circle cx="157" cy="10" r="1.5" fill="#fff" opacity="0.30"/><circle cx="114" cy="163" r="2.5" fill="#fff" opacity="0.64"/><circle cx="273" cy="110" r="1.6" fill="#fff" opacity="0.58"/><circle cx="82" cy="375" r="1.7" fill="#fff" opacity="0.60"/><circle cx="282" cy="273" r="0.9" fill="#fff" opacity="0.27"/><circle cx="386" cy="352" r="1.2" fill="#fff" opacity="0.52"/><circle cx="101" cy="415" r="0.9" fill="#fff" opacity="0.33"/><circle cx="492" cy="741" r="1.1" fill="#fff" opacity="0.44"/><circle cx="214" cy="484" r="2.0" fill="#fff" opacity="0.62"/><circle cx="167" cy="713" r="3.0" fill="#fff" opacity="0.62"/><circle cx="503" cy="611" r="0.9" fill="#fff" opacity="0.42"/><circle cx="262" cy="192" r="1.4" fill="#fff" opacity="0.37"/><circle cx="221" cy="594" r="2.8" fill="#fff" opacity="0.68"/><circle cx="301" cy="271" r="2.6" fill="#fff" opacity="0.38"/><circle cx="428" cy="280" r="1.8" fill="#fff" opacity="0.33"/><circle cx="160" cy="350" r="1.3" fill="#fff" opacity="0.26"/><circle cx="82" cy="98" r="2.8" fill="#fff" opacity="0.63"/><circle cx="200" cy="711" r="3.1" fill="#fff" opacity="0.50"/><circle cx="216" cy="308" r="3.0" fill="#fff" opacity="0.38"/><circle cx="314" cy="681" r="3.1" fill="#fff" opacity="0.58"/></g>
  <path d="M70 600 C142 504 297 500 443 610" fill="#536271" opacity=".18"/><path d="M52 642 C146 578 341 580 471 650" fill="#536271" opacity=".16"/>
  <ellipse cx="256" cy="662" rx="150" ry="34" fill="#536271" opacity=".28"/>
  <g transform="translate(0 122)">
    <path d="M108.4 347.4 C161.7 224.4 292.9 175.20000000000002 389.25 253.1 C325.7 249 276.5 285.9 247.8 376.1" fill="#536271" opacity=".45"/><ellipse cx="256" cy="335.1" rx="110.69999999999999" ry="92.24999999999999" fill="url(#body)" filter="url(#softShadow)"/><path d="M167.85000000000002 253.1 L219.1 130.10000000000002 L249.85 244.9 Z" fill="#9aa8b7"/><path d="M344.15 253.1 L292.9 130.10000000000002 L262.15 244.9 Z" fill="#9aa8b7"/><ellipse cx="256" cy="267.45" rx="96.35" ry="86.1" fill="url(#head)"/><path d="M151.45 292.05 Q87.9 298.2 63.30000000000001 253.1" stroke="#e8edf2" stroke-width="10.25" fill="none" stroke-linecap="round" opacity=".85"/><path d="M360.55 292.05 Q424.1 298.2 448.7 253.1" stroke="#e8edf2" stroke-width="10.25" fill="none" stroke-linecap="round" opacity=".85"/><ellipse cx="223.2" cy="253.1" rx="14.349999999999998" ry="16.4" fill="#14213d"/><ellipse cx="288.8" cy="253.1" rx="14.349999999999998" ry="16.4" fill="#14213d"/><circle cx="229.35" cy="244.9" r="4.714999999999999" fill="#fff"/><circle cx="294.95" cy="244.9" r="4.714999999999999" fill="#fff"/><circle cx="256" cy="210.05" r="14.349999999999998" fill="#e8edf2" opacity=".9"/>
  </g>
  <path d="M74 126 C170 65 334 65 438 126" stroke="#fff" stroke-width="16" stroke-linecap="round" opacity=".16"/>
  <path d="M63 676 C162 718 344 718 449 662" stroke="#fff" stroke-width="14" stroke-linecap="round" opacity=".16"/>
</svg>