<svg xmlns="http://www.w3.org/2000/svg" viewBox="0 0 512 768" role="img" aria-label="雷鸣鸟 original portrait">
  
  <defs>
    <linearGradient id="bgp209" x1="0" y1="0" x2="1" y2="1">
      <stop offset="0" stop-color="#fff27a"/>
      <stop offset=".55" stop-color="#f9c80e"/>
      <stop offset="1" stop-color="#7a5200"/>
    </linearGradient>
    <radialGradient id="body" cx=".36" cy=".25" r=".76">
      <stop offset="0" stop-color="#fff27a"/>
      <stop offset=".6" stop-color="#f9c80e"/>
      <stop offset="1" stop-color="#7a5200"/>
    </radialGradient>
    <radialGradient id="head" cx=".36" cy=".26" r=".72">
      <stop offset="0" stop-color="#ffffff" stop-opacity=".85"/>
      <stop offset=".2" stop-color="#fff27a"/>
      <stop offset=".72" stop-color="#f9c80e"/>
      <stop offset="1" stop-color="#7a5200"/>
    </radialGradient>
    <filter id="softShadow" x="-30%" y="-30%" width="160%" height="160%">
      <feDropShadow dx="0" dy="8" stdDeviation="8" flood-color="#7a5200" flood-opacity=".35"/>
    </filter>
  </defs>
  <rect width="512" height="768" rx="48" fill="url(#bgp209)"/>
  <rect x="24" y="24" width="464" height="720" rx="40" fill="#ffffff" opacity=".08"/>
  <g opacity=".42"><circle cx="279" cy="95" r="2.1" fill="#fff" opacity="0.70"/><circle cx="210" cy="718" r="3.2" fill="#fff" opacity="0.57"/><circle cx="50" cy="479" r="2.8" fill="#fff" opacity="0.40"/><circle cx="490" cy="664" r="1.4" fill="#fff" opacity="0.33"/><circle cx="84" cy="312" r="2.6" fill="#fff" opacity="0.26"/><circle cx="165" cy="21" r="2.2" fill="#fff" opacity="0.26"/><circle cx="498" cy="187" r="1.5" fill="#fff" opacity="0.65"/><circle cx="93" cy="766" r="1.1" fill="#fff" opacity="0.48"/><circle cx="87" cy="668" r="2.8" fill="#fff" opacity="0.46"/><circle cx="87" cy="41" r="2.8" fill="#fff" opacity="0.56"/><circle cx="137" cy="455" r="2.3" fill="#fff" opacity="0.27"/><circle cx="393" cy="486" r="0.8" fill="#fff" opacity="0.62"/><circle cx="496" cy="237" r="2.3" fill="#fff" opacity="0.42"/><circle cx="39" cy="230" r="1.9" fill="#fff" opacity="0.41"/><circle cx="393" cy="137" r="1.6" fill="#fff" opacity="0.35"/><circle cx="270" cy="139" r="1.9" fill="#fff" opacity="0.41"/><circle cx="185" cy="378" r="2.6" fill="#fff" opacity="0.34"/><circle cx="224" cy="660" r="1.3" fill="#fff" opacity="0.59"/><circle cx="340" cy="614" r="2.5" fill="#fff" opacity="0.69"/><circle cx="94" cy="764" r="1.6" fill="#fff" opacity="0.42"/><circle cx="118" cy="586" r="3.1" fill="#fff" opacity="0.27"/><circle cx="401" cy="2" r="2.5" fill="#fff" opacity="0.62"/><circle cx="168" cy="668" r="2.5" fill="#fff" opacity="0.33"/><circle cx="488" cy="168" r="1.5" fill="#fff" opacity="0.34"/><circle cx="184" cy="618" r="1.4" fill="#fff" opacity="0.26"/><circle cx="160" cy="458" r="2.0" fill="#fff" opacity="0.53"/><circle cx="49" cy="133" r="1.2" fill="#fff" opacity="0.43"/><circle cx="137" cy="131" r="2.3" fill="#fff" opacity="0.50"/></g>
  <path d="M0 620 C92 590 171 620 259 600 C357 577 432 594 512 565 V768 H0Z" fill="#fff" opacity=".18"/>
  <ellipse cx="256" cy="662" rx="150" ry="34" fill="#7a5200" opacity=".28"/>
  <g transform="translate(0 122)">
    <path d="M219.1 306.4 C65.35000000000002 187.5 67.4 392.5 206.8 400.7" fill="#f9c80e" opacity=".78"/><path d="M292.9 306.4 C446.65 187.5 444.6 392.5 305.2 400.7" fill="#f9c80e" opacity=".78"/><ellipse cx="256" cy="343.3" rx="86.1" ry="110.69999999999999" fill="url(#body)" filter="url(#softShadow)"/><circle cx="256" cy="228.5" r="77.89999999999999" fill="url(#head)"/><path d="M245.75 226.45 L331.85 249 L249.85 269.5 Z" fill="#fff27a"/><path d="M210.9 154.70000000000002 C239.6 89.10000000000002 280.6 109.60000000000002 260.1 167" fill="#7a5200" opacity=".85"/><ellipse cx="223.2" cy="253.1" rx="14.349999999999998" ry="16.4" fill="#14213d"/><ellipse cx="288.8" cy="253.1" rx="14.349999999999998" ry="16.4" fill="#14213d"/><circle cx="229.35" cy="244.9" r="4.714999999999999" fill="#fff"/><circle cx="294.95" cy="244.9" r="4.714999999999999" fill="#fff"/><circle cx="256" cy="210.05" r="14.349999999999998" fill="#fff27a" opacity=".9"/>
  </g>
  <path d="M74 126 C170 65 334 65 438 126" stroke="#fff" stroke-width="16" stroke-linecap="round" opacity=".16"/>
  <path d="M63 676 C162 718 344 718 449 662" stroke="#fff" stroke-width="14" stroke-linecap="round" opacity=".16"/>
</svg>