<svg xmlns="http://www.w3.org/2000/svg" viewBox="0 0 512 768" role="img" aria-label="涟漪幼鱼 unique portrait">
  <defs>
    <linearGradient id="bg21" x1="0" y1="0" x2="1" y2="1"><stop offset="0" stop-color="#9be7ff"/><stop offset=".55" stop-color="#2f80ed"/><stop offset="1" stop-color="#0a3d7a"/></linearGradient>
    <radialGradient id="body21" cx=".35" cy=".24" r=".78"><stop offset="0" stop-color="#fff" stop-opacity=".88"/><stop offset=".18" stop-color="#9be7ff"/><stop offset=".68" stop-color="#2f80ed"/><stop offset="1" stop-color="#0a3d7a"/></radialGradient>
    <filter id="shadow21" x="-30%" y="-30%" width="160%" height="160%"><feDropShadow dx="0" dy="10" stdDeviation="9" flood-color="#0a3d7a" flood-opacity=".36"/></filter>
  </defs>
  <rect width="512" height="768" rx="48" fill="url(#bg21)"/>
  <rect x="24" y="24" width="464" height="720" rx="40" fill="#fff" opacity=".08"/>
  <g opacity=".46"><circle cx="191" cy="610" r="3.8" fill="#fff" opacity="0.32"/><circle cx="204" cy="178" r="4.9" fill="#fff" opacity="0.35"/><circle cx="421" cy="290" r="1.6" fill="#fff" opacity="0.33"/><circle cx="244" cy="604" r="3.5" fill="#fff" opacity="0.29"/><circle cx="187" cy="89" r="3.3" fill="#fff" opacity="0.25"/><circle cx="84" cy="155" r="3.1" fill="#fff" opacity="0.50"/><circle cx="397" cy="175" r="3.8" fill="#fff" opacity="0.44"/><circle cx="122" cy="390" r="5.0" fill="#fff" opacity="0.61"/><circle cx="396" cy="72" r="3.8" fill="#fff" opacity="0.47"/><circle cx="61" cy="241" r="4.7" fill="#fff" opacity="0.39"/><circle cx="119" cy="631" r="3.3" fill="#fff" opacity="0.46"/><circle cx="267" cy="328" r="4.3" fill="#fff" opacity="0.41"/><circle cx="164" cy="355" r="3.2" fill="#fff" opacity="0.38"/><circle cx="113" cy="195" r="2.4" fill="#fff" opacity="0.29"/></g>
  <path d="M0 596 C80 558 128 616 202 584 C281 550 332 618 418 582 C464 563 492 570 512 586 V768 H0Z" fill="#0a3d7a" opacity=".22"/>
  <ellipse cx="256" cy="664" rx="154" ry="36" fill="#0a3d7a" opacity=".3"/>
  <g transform="translate(0 84)"><path d="M148 520 C118 346 156 196 256 164 C356 196 394 346 364 520 C326 488 292 532 256 496 C220 532 186 488 148 520Z" fill="url(#body21)" filter="url(#shadow21)"/>
    <circle cx="212" cy="325" r="17" fill="#0a3d7a"/><circle cx="300" cy="325" r="17" fill="#0a3d7a"/>
    <circle cx="206" cy="319" r="5" fill="#fff" opacity=".75"/><circle cx="294" cy="319" r="5" fill="#fff" opacity=".75"/>
    <path d="M214 248 Q256 284 298 248" stroke="#9be7ff" stroke-width="14" fill="none" stroke-linecap="round" opacity=".74"/>
    <path d="M188 560 C228 600 288 600 326 560" stroke="#fff" stroke-width="12" stroke-linecap="round" opacity=".18" fill="none"/>
  </g>
  <path d="M72 128 C168 68 334 66 440 128" stroke="#fff" stroke-width="16" stroke-linecap="round" opacity=".16"/>
  <path d="M60 678 C164 722 348 718 452 662" stroke="#fff" stroke-width="14" stroke-linecap="round" opacity=".16"/>
</svg>