<svg xmlns="http://www.w3.org/2000/svg" viewBox="0 0 512 768" role="img" aria-label="拳击袋鼠 original portrait">
  
  <defs>
    <linearGradient id="bgp213" x1="0" y1="0" x2="1" y2="1">
      <stop offset="0" stop-color="#ffc0a6"/>
      <stop offset=".55" stop-color="#d95f3d"/>
      <stop offset="1" stop-color="#7a271d"/>
    </linearGradient>
    <radialGradient id="body" cx=".36" cy=".25" r=".76">
      <stop offset="0" stop-color="#ffc0a6"/>
      <stop offset=".6" stop-color="#d95f3d"/>
      <stop offset="1" stop-color="#7a271d"/>
    </radialGradient>
    <radialGradient id="head" cx=".36" cy=".26" r=".72">
      <stop offset="0" stop-color="#ffffff" stop-opacity=".85"/>
      <stop offset=".2" stop-color="#ffc0a6"/>
      <stop offset=".72" stop-color="#d95f3d"/>
      <stop offset="1" stop-color="#7a271d"/>
    </radialGradient>
    <filter id="softShadow" x="-30%" y="-30%" width="160%" height="160%">
      <feDropShadow dx="0" dy="8" stdDeviation="8" flood-color="#7a271d" flood-opacity=".35"/>
    </filter>
  </defs>
  <rect width="512" height="768" rx="48" fill="url(#bgp213)"/>
  <rect x="24" y="24" width="464" height="720" rx="40" fill="#ffffff" opacity=".08"/>
  <g opacity=".42"><circle cx="124" cy="642" r="3.2" fill="#fff" opacity="0.36"/><circle cx="136" cy="131" r="3.0" fill="#fff" opacity="0.32"/><circle cx="197" cy="393" r="2.6" fill="#fff" opacity="0.60"/><circle cx="88" cy="435" r="2.5" fill="#fff" opacity="0.62"/><circle cx="320" cy="667" r="1.0" fill="#fff" opacity="0.53"/><circle cx="133" cy="464" r="0.9" fill="#fff" opacity="0.41"/><circle cx="322" cy="284" r="1.1" fill="#fff" opacity="0.29"/><circle cx="107" cy="128" r="2.8" fill="#fff" opacity="0.61"/><circle cx="140" cy="159" r="2.1" fill="#fff" opacity="0.35"/><circle cx="2" cy="445" r="2.8" fill="#fff" opacity="0.69"/><circle cx="261" cy="258" r="2.3" fill="#fff" opacity="0.28"/><circle cx="26" cy="496" r="1.7" fill="#fff" opacity="0.52"/><circle cx="167" cy="569" r="2.6" fill="#fff" opacity="0.67"/><circle cx="17" cy="270" r="2.7" fill="#fff" opacity="0.45"/><circle cx="175" cy="123" r="1.9" fill="#fff" opacity="0.67"/><circle cx="225" cy="93" r="0.9" fill="#fff" opacity="0.48"/><circle cx="175" cy="325" r="2.5" fill="#fff" opacity="0.41"/><circle cx="201" cy="236" r="2.9" fill="#fff" opacity="0.52"/><circle cx="150" cy="111" r="0.9" fill="#fff" opacity="0.28"/><circle cx="501" cy="730" r="2.0" fill="#fff" opacity="0.39"/><circle cx="143" cy="245" r="1.2" fill="#fff" opacity="0.44"/><circle cx="312" cy="138" r="3.1" fill="#fff" opacity="0.36"/><circle cx="465" cy="761" r="2.9" fill="#fff" opacity="0.63"/><circle cx="380" cy="601" r="2.7" fill="#fff" opacity="0.63"/><circle cx="320" cy="723" r="3.1" fill="#fff" opacity="0.45"/><circle cx="118" cy="466" r="3.1" fill="#fff" opacity="0.42"/><circle cx="465" cy="525" r="2.3" fill="#fff" opacity="0.60"/><circle cx="281" cy="189" r="2.6" fill="#fff" opacity="0.33"/></g>
  <path d="M38 684 C128 596 386 596 475 684 V768 H38Z" fill="#7a271d" opacity=".17"/>
  <ellipse cx="256" cy="662" rx="150" ry="34" fill="#7a271d" opacity=".28"/>
  <g transform="translate(0 122)">
    <ellipse cx="256" cy="359.7" rx="110.69999999999999" ry="100.44999999999999" fill="url(#body)" filter="url(#softShadow)"/><circle cx="256" cy="232.60000000000002" r="86.1" fill="url(#head)"/><path d="M149.4 322.8 C51.00000000000003 304.35 85.85000000000002 423.25 165.8 402.75" fill="#7a271d"/><path d="M362.6 322.8 C461 304.35 426.15 423.25 346.2 402.75" fill="#7a271d"/><path d="M200.65 148.55 H311.35 L331.85 195.7 Q256 224.4 180.15 195.7 Z" fill="#ffc0a6" opacity=".85"/><ellipse cx="223.2" cy="253.1" rx="14.349999999999998" ry="16.4" fill="#14213d"/><ellipse cx="288.8" cy="253.1" rx="14.349999999999998" ry="16.4" fill="#14213d"/><circle cx="229.35" cy="244.9" r="4.714999999999999" fill="#fff"/><circle cx="294.95" cy="244.9" r="4.714999999999999" fill="#fff"/><path d="M256 183.4 L278.55 212.10000000000002 L256 242.85 L233.45 212.10000000000002 Z" fill="#ffc0a6" opacity=".92"/>
  </g>
  <path d="M74 126 C170 65 334 65 438 126" stroke="#fff" stroke-width="16" stroke-linecap="round" opacity=".16"/>
  <path d="M63 676 C162 718 344 718 449 662" stroke="#fff" stroke-width="14" stroke-linecap="round" opacity=".16"/>
</svg>