<svg xmlns="http://www.w3.org/2000/svg" viewBox="0 0 512 768" role="img" aria-label="花仙子 original portrait">
  
  <defs>
    <linearGradient id="bgp217" x1="0" y1="0" x2="1" y2="1">
      <stop offset="0" stop-color="#ffd7f3"/>
      <stop offset=".55" stop-color="#f47ac2"/>
      <stop offset="1" stop-color="#8e3b89"/>
    </linearGradient>
    <radialGradient id="body" cx=".36" cy=".25" r=".76">
      <stop offset="0" stop-color="#ffd7f3"/>
      <stop offset=".6" stop-color="#f47ac2"/>
      <stop offset="1" stop-color="#8e3b89"/>
    </radialGradient>
    <radialGradient id="head" cx=".36" cy=".26" r=".72">
      <stop offset="0" stop-color="#ffffff" stop-opacity=".85"/>
      <stop offset=".2" stop-color="#ffd7f3"/>
      <stop offset=".72" stop-color="#f47ac2"/>
      <stop offset="1" stop-color="#8e3b89"/>
    </radialGradient>
    <filter id="softShadow" x="-30%" y="-30%" width="160%" height="160%">
      <feDropShadow dx="0" dy="8" stdDeviation="8" flood-color="#8e3b89" flood-opacity=".35"/>
    </filter>
  </defs>
  <rect width="512" height="768" rx="48" fill="url(#bgp217)"/>
  <rect x="24" y="24" width="464" height="720" rx="40" fill="#ffffff" opacity=".08"/>
  <g opacity=".42"><circle cx="152" cy="605" r="2.4" fill="#fff" opacity="0.64"/><circle cx="313" cy="350" r="1.8" fill="#fff" opacity="0.52"/><circle cx="189" cy="753" r="1.2" fill="#fff" opacity="0.50"/><circle cx="452" cy="120" r="1.1" fill="#fff" opacity="0.31"/><circle cx="271" cy="558" r="3.1" fill="#fff" opacity="0.27"/><circle cx="313" cy="533" r="1.0" fill="#fff" opacity="0.40"/><circle cx="8" cy="479" r="1.6" fill="#fff" opacity="0.34"/><circle cx="495" cy="103" r="1.6" fill="#fff" opacity="0.33"/><circle cx="424" cy="29" r="1.1" fill="#fff" opacity="0.27"/><circle cx="201" cy="718" r="1.7" fill="#fff" opacity="0.45"/><circle cx="238" cy="269" r="2.9" fill="#fff" opacity="0.68"/><circle cx="373" cy="58" r="1.6" fill="#fff" opacity="0.37"/><circle cx="172" cy="307" r="1.5" fill="#fff" opacity="0.31"/><circle cx="390" cy="171" r="2.3" fill="#fff" opacity="0.37"/><circle cx="483" cy="234" r="2.8" fill="#fff" opacity="0.30"/><circle cx="31" cy="694" r="3.1" fill="#fff" opacity="0.45"/><circle cx="331" cy="236" r="3.1" fill="#fff" opacity="0.31"/><circle cx="17" cy="520" r="1.0" fill="#fff" opacity="0.49"/><circle cx="259" cy="490" r="2.5" fill="#fff" opacity="0.27"/><circle cx="135" cy="304" r="1.9" fill="#fff" opacity="0.34"/><circle cx="356" cy="410" r="1.1" fill="#fff" opacity="0.62"/><circle cx="8" cy="194" r="0.9" fill="#fff" opacity="0.65"/><circle cx="131" cy="68" r="1.6" fill="#fff" opacity="0.55"/><circle cx="109" cy="514" r="2.3" fill="#fff" opacity="0.32"/><circle cx="182" cy="335" r="3.0" fill="#fff" opacity="0.29"/><circle cx="70" cy="598" r="3.1" fill="#fff" opacity="0.50"/><circle cx="370" cy="645" r="2.9" fill="#fff" opacity="0.68"/><circle cx="512" cy="265" r="1.2" fill="#fff" opacity="0.43"/></g>
  <path d="M18 704 C124 595 205 659 256 580 C314 666 392 596 494 704 V768 H18Z" fill="#8e3b89" opacity=".18"/>
  <ellipse cx="256" cy="662" rx="150" ry="34" fill="#8e3b89" opacity=".28"/>
  <g transform="translate(0 122)">
    <path d="M231.4 400.7 C128.9 376.1 83.80000000000001 265.4 198.60000000000002 275.65" fill="#f47ac2" opacity=".82"/><path d="M280.6 400.7 C383.1 376.1 428.2 265.4 313.4 275.65" fill="#f47ac2" opacity=".82"/><ellipse cx="256" cy="339.2" rx="98.39999999999999" ry="116.85" fill="url(#body)" filter="url(#softShadow)"/><path d="M256 138.3 C169.9 175.20000000000002 161.7 259.25 256 251.05 C350.3 259.25 342.1 175.20000000000002 256 138.3Z" fill="#ffd7f3"/><circle cx="256" cy="253.1" r="77.89999999999999" fill="url(#head)"/><ellipse cx="223.2" cy="253.1" rx="14.349999999999998" ry="16.4" fill="#14213d"/><ellipse cx="288.8" cy="253.1" rx="14.349999999999998" ry="16.4" fill="#14213d"/><circle cx="229.35" cy="244.9" r="4.714999999999999" fill="#fff"/><circle cx="294.95" cy="244.9" r="4.714999999999999" fill="#fff"/><path d="M256 183.4 L278.55 212.10000000000002 L256 242.85 L233.45 212.10000000000002 Z" fill="#ffd7f3" opacity=".92"/>
  </g>
  <path d="M74 126 C170 65 334 65 438 126" stroke="#fff" stroke-width="16" stroke-linecap="round" opacity=".16"/>
  <path d="M63 676 C162 718 344 718 449 662" stroke="#fff" stroke-width="14" stroke-linecap="round" opacity=".16"/>
</svg>