<svg xmlns="http://www.w3.org/2000/svg" viewBox="0 0 512 768" role="img" aria-label="念力王 original portrait">
  
  <defs>
    <linearGradient id="bgp222" x1="0" y1="0" x2="1" y2="1">
      <stop offset="0" stop-color="#ffd0ec"/>
      <stop offset=".55" stop-color="#e056a7"/>
      <stop offset="1" stop-color="#6d327d"/>
    </linearGradient>
    <radialGradient id="body" cx=".36" cy=".25" r=".76">
      <stop offset="0" stop-color="#ffd0ec"/>
      <stop offset=".6" stop-color="#e056a7"/>
      <stop offset="1" stop-color="#6d327d"/>
    </radialGradient>
    <radialGradient id="head" cx=".36" cy=".26" r=".72">
      <stop offset="0" stop-color="#ffffff" stop-opacity=".85"/>
      <stop offset=".2" stop-color="#ffd0ec"/>
      <stop offset=".72" stop-color="#e056a7"/>
      <stop offset="1" stop-color="#6d327d"/>
    </radialGradient>
    <filter id="softShadow" x="-30%" y="-30%" width="160%" height="160%">
      <feDropShadow dx="0" dy="8" stdDeviation="8" flood-color="#6d327d" flood-opacity=".35"/>
    </filter>
  </defs>
  <rect width="512" height="768" rx="48" fill="url(#bgp222)"/>
  <rect x="24" y="24" width="464" height="720" rx="40" fill="#ffffff" opacity=".08"/>
  <g opacity=".42"><circle cx="428" cy="471" r="2.5" fill="#fff" opacity="0.55"/><circle cx="256" cy="735" r="1.8" fill="#fff" opacity="0.32"/><circle cx="93" cy="87" r="1.7" fill="#fff" opacity="0.31"/><circle cx="149" cy="761" r="2.8" fill="#fff" opacity="0.63"/><circle cx="147" cy="703" r="2.7" fill="#fff" opacity="0.53"/><circle cx="119" cy="759" r="3.1" fill="#fff" opacity="0.38"/><circle cx="182" cy="256" r="2.0" fill="#fff" opacity="0.54"/><circle cx="372" cy="613" r="1.4" fill="#fff" opacity="0.30"/><circle cx="436" cy="228" r="2.6" fill="#fff" opacity="0.61"/><circle cx="99" cy="1" r="1.6" fill="#fff" opacity="0.32"/><circle cx="125" cy="37" r="3.1" fill="#fff" opacity="0.55"/><circle cx="455" cy="751" r="2.9" fill="#fff" opacity="0.58"/><circle cx="272" cy="367" r="1.0" fill="#fff" opacity="0.29"/><circle cx="46" cy="678" r="2.5" fill="#fff" opacity="0.59"/><circle cx="298" cy="104" r="1.5" fill="#fff" opacity="0.62"/><circle cx="68" cy="652" r="2.3" fill="#fff" opacity="0.55"/><circle cx="397" cy="702" r="1.2" fill="#fff" opacity="0.28"/><circle cx="235" cy="687" r="2.2" fill="#fff" opacity="0.42"/><circle cx="285" cy="188" r="1.8" fill="#fff" opacity="0.39"/><circle cx="327" cy="718" r="2.8" fill="#fff" opacity="0.68"/><circle cx="442" cy="140" r="1.4" fill="#fff" opacity="0.32"/><circle cx="244" cy="436" r="2.3" fill="#fff" opacity="0.30"/><circle cx="93" cy="378" r="1.5" fill="#fff" opacity="0.40"/><circle cx="176" cy="52" r="2.3" fill="#fff" opacity="0.65"/><circle cx="52" cy="621" r="2.2" fill="#fff" opacity="0.68"/><circle cx="503" cy="720" r="3.2" fill="#fff" opacity="0.34"/><circle cx="180" cy="27" r="1.3" fill="#fff" opacity="0.33"/><circle cx="278" cy="591" r="2.3" fill="#fff" opacity="0.34"/></g>
  <path d="M38 684 C128 596 386 596 475 684 V768 H38Z" fill="#6d327d" opacity=".17"/>
  <ellipse cx="256" cy="662" rx="150" ry="34" fill="#6d327d" opacity=".28"/>
  <g transform="translate(0 122)">
    <ellipse cx="256" cy="359.7" rx="110.69999999999999" ry="100.44999999999999" fill="url(#body)" filter="url(#softShadow)"/><circle cx="256" cy="232.60000000000002" r="86.1" fill="url(#head)"/><path d="M149.4 322.8 C51.00000000000003 304.35 85.85000000000002 423.25 165.8 402.75" fill="#6d327d"/><path d="M362.6 322.8 C461 304.35 426.15 423.25 346.2 402.75" fill="#6d327d"/><path d="M200.65 148.55 H311.35 L331.85 195.7 Q256 224.4 180.15 195.7 Z" fill="#ffd0ec" opacity=".85"/><ellipse cx="223.2" cy="253.1" rx="14.349999999999998" ry="16.4" fill="#14213d"/><ellipse cx="288.8" cy="253.1" rx="14.349999999999998" ry="16.4" fill="#14213d"/><circle cx="229.35" cy="244.9" r="4.714999999999999" fill="#fff"/><circle cx="294.95" cy="244.9" r="4.714999999999999" fill="#fff"/><circle cx="256" cy="210.05" r="14.349999999999998" fill="#ffd0ec" opacity=".9"/>
  </g>
  <path d="M74 126 C170 65 334 65 438 126" stroke="#fff" stroke-width="16" stroke-linecap="round" opacity=".16"/>
  <path d="M63 676 C162 718 344 718 449 662" stroke="#fff" stroke-width="14" stroke-linecap="round" opacity=".16"/>
</svg>