<svg xmlns="http://www.w3.org/2000/svg" viewBox="0 0 512 768" role="img" aria-label="岩石巨人 original portrait">
  
  <defs>
    <linearGradient id="bgp225" x1="0" y1="0" x2="1" y2="1">
      <stop offset="0" stop-color="#ddd0b2"/>
      <stop offset=".55" stop-color="#8d7a5f"/>
      <stop offset="1" stop-color="#514438"/>
    </linearGradient>
    <radialGradient id="body" cx=".36" cy=".25" r=".76">
      <stop offset="0" stop-color="#ddd0b2"/>
      <stop offset=".6" stop-color="#8d7a5f"/>
      <stop offset="1" stop-color="#514438"/>
    </radialGradient>
    <radialGradient id="head" cx=".36" cy=".26" r=".72">
      <stop offset="0" stop-color="#ffffff" stop-opacity=".85"/>
      <stop offset=".2" stop-color="#ddd0b2"/>
      <stop offset=".72" stop-color="#8d7a5f"/>
      <stop offset="1" stop-color="#514438"/>
    </radialGradient>
    <filter id="softShadow" x="-30%" y="-30%" width="160%" height="160%">
      <feDropShadow dx="0" dy="8" stdDeviation="8" flood-color="#514438" flood-opacity=".35"/>
    </filter>
  </defs>
  <rect width="512" height="768" rx="48" fill="url(#bgp225)"/>
  <rect x="24" y="24" width="464" height="720" rx="40" fill="#ffffff" opacity=".08"/>
  <g opacity=".42"><circle cx="468" cy="238" r="2.7" fill="#fff" opacity="0.31"/><circle cx="107" cy="515" r="2.4" fill="#fff" opacity="0.44"/><circle cx="24" cy="694" r="3.2" fill="#fff" opacity="0.34"/><circle cx="20" cy="593" r="2.1" fill="#fff" opacity="0.43"/><circle cx="196" cy="590" r="2.6" fill="#fff" opacity="0.50"/><circle cx="17" cy="406" r="2.4" fill="#fff" opacity="0.70"/><circle cx="407" cy="662" r="2.3" fill="#fff" opacity="0.44"/><circle cx="422" cy="402" r="2.9" fill="#fff" opacity="0.47"/><circle cx="166" cy="114" r="2.4" fill="#fff" opacity="0.51"/><circle cx="445" cy="570" r="1.5" fill="#fff" opacity="0.57"/><circle cx="108" cy="171" r="2.4" fill="#fff" opacity="0.65"/><circle cx="80" cy="630" r="2.3" fill="#fff" opacity="0.43"/><circle cx="10" cy="314" r="2.7" fill="#fff" opacity="0.56"/><circle cx="113" cy="539" r="2.6" fill="#fff" opacity="0.59"/><circle cx="253" cy="230" r="2.7" fill="#fff" opacity="0.30"/><circle cx="502" cy="295" r="2.9" fill="#fff" opacity="0.66"/><circle cx="36" cy="247" r="2.2" fill="#fff" opacity="0.46"/><circle cx="23" cy="20" r="1.8" fill="#fff" opacity="0.34"/><circle cx="295" cy="10" r="3.0" fill="#fff" opacity="0.67"/><circle cx="394" cy="412" r="1.3" fill="#fff" opacity="0.36"/><circle cx="479" cy="137" r="2.5" fill="#fff" opacity="0.30"/><circle cx="21" cy="698" r="2.4" fill="#fff" opacity="0.64"/><circle cx="310" cy="319" r="2.5" fill="#fff" opacity="0.28"/><circle cx="426" cy="618" r="0.9" fill="#fff" opacity="0.49"/><circle cx="204" cy="259" r="1.0" fill="#fff" opacity="0.33"/><circle cx="123" cy="240" r="2.7" fill="#fff" opacity="0.33"/><circle cx="251" cy="91" r="1.7" fill="#fff" opacity="0.37"/><circle cx="175" cy="539" r="2.8" fill="#fff" opacity="0.28"/></g>
  <path d="M24 680 L110 610 L186 666 L272 592 L356 674 L445 626 L512 704 V768 H0V704Z" fill="#514438" opacity=".18"/>
  <ellipse cx="256" cy="662" rx="150" ry="34" fill="#514438" opacity=".28"/>
  <g transform="translate(0 122)">
    <path d="M149.4 228.5 L219.1 156.75 H311.35 L376.95 242.85 L346.2 394.55 H163.75 Z" fill="url(#body)" filter="url(#softShadow)"/><path d="M198.60000000000002 179.3 L245.75 91.15 L280.6 171.10000000000002 Z" fill="#ddd0b2"/><path d="M290.85 183.4 L344.15 113.70000000000002 L342.1 210.05 Z" fill="#8d7a5f"/><rect x="194.5" y="277.7" width="122.99999999999999" height="30.749999999999996" rx="14.349999999999998" fill="#514438" opacity=".38"/><circle cx="227.3" cy="292.05" r="10.25" fill="#ddd0b2"/><circle cx="284.7" cy="292.05" r="10.25" fill="#ddd0b2"/><circle cx="256" cy="210.05" r="14.349999999999998" fill="#ddd0b2" opacity=".9"/>
  </g>
  <path d="M74 126 C170 65 334 65 438 126" stroke="#fff" stroke-width="16" stroke-linecap="round" opacity=".16"/>
  <path d="M63 676 C162 718 344 718 449 662" stroke="#fff" stroke-width="14" stroke-linecap="round" opacity=".16"/>
</svg>