<svg xmlns="http://www.w3.org/2000/svg" viewBox="0 0 512 768" role="img" aria-label="钻石兽 original portrait">
  
  <defs>
    <linearGradient id="bgp226" x1="0" y1="0" x2="1" y2="1">
      <stop offset="0" stop-color="#ddd0b2"/>
      <stop offset=".55" stop-color="#8d7a5f"/>
      <stop offset="1" stop-color="#514438"/>
    </linearGradient>
    <radialGradient id="body" cx=".36" cy=".25" r=".76">
      <stop offset="0" stop-color="#ddd0b2"/>
      <stop offset=".6" stop-color="#8d7a5f"/>
      <stop offset="1" stop-color="#514438"/>
    </radialGradient>
    <radialGradient id="head" cx=".36" cy=".26" r=".72">
      <stop offset="0" stop-color="#ffffff" stop-opacity=".85"/>
      <stop offset=".2" stop-color="#ddd0b2"/>
      <stop offset=".72" stop-color="#8d7a5f"/>
      <stop offset="1" stop-color="#514438"/>
    </radialGradient>
    <filter id="softShadow" x="-30%" y="-30%" width="160%" height="160%">
      <feDropShadow dx="0" dy="8" stdDeviation="8" flood-color="#514438" flood-opacity=".35"/>
    </filter>
  </defs>
  <rect width="512" height="768" rx="48" fill="url(#bgp226)"/>
  <rect x="24" y="24" width="464" height="720" rx="40" fill="#ffffff" opacity=".08"/>
  <g opacity=".42"><circle cx="329" cy="404" r="2.4" fill="#fff" opacity="0.34"/><circle cx="467" cy="650" r="1.1" fill="#fff" opacity="0.42"/><circle cx="440" cy="681" r="3.1" fill="#fff" opacity="0.57"/><circle cx="32" cy="549" r="1.4" fill="#fff" opacity="0.29"/><circle cx="203" cy="437" r="3.0" fill="#fff" opacity="0.57"/><circle cx="204" cy="689" r="1.4" fill="#fff" opacity="0.27"/><circle cx="394" cy="601" r="0.9" fill="#fff" opacity="0.51"/><circle cx="237" cy="306" r="2.0" fill="#fff" opacity="0.55"/><circle cx="441" cy="179" r="1.1" fill="#fff" opacity="0.28"/><circle cx="177" cy="531" r="1.7" fill="#fff" opacity="0.45"/><circle cx="451" cy="170" r="0.9" fill="#fff" opacity="0.40"/><circle cx="230" cy="3" r="2.6" fill="#fff" opacity="0.32"/><circle cx="316" cy="665" r="1.5" fill="#fff" opacity="0.28"/><circle cx="43" cy="268" r="1.6" fill="#fff" opacity="0.30"/><circle cx="257" cy="585" r="1.4" fill="#fff" opacity="0.29"/><circle cx="144" cy="646" r="2.6" fill="#fff" opacity="0.49"/><circle cx="489" cy="282" r="2.4" fill="#fff" opacity="0.46"/><circle cx="182" cy="413" r="3.0" fill="#fff" opacity="0.56"/><circle cx="490" cy="332" r="1.4" fill="#fff" opacity="0.67"/><circle cx="341" cy="256" r="1.8" fill="#fff" opacity="0.44"/><circle cx="360" cy="546" r="2.5" fill="#fff" opacity="0.49"/><circle cx="374" cy="538" r="1.0" fill="#fff" opacity="0.30"/><circle cx="74" cy="263" r="2.5" fill="#fff" opacity="0.67"/><circle cx="467" cy="259" r="2.9" fill="#fff" opacity="0.65"/><circle cx="175" cy="413" r="1.0" fill="#fff" opacity="0.33"/><circle cx="359" cy="163" r="2.6" fill="#fff" opacity="0.25"/><circle cx="68" cy="728" r="2.5" fill="#fff" opacity="0.31"/><circle cx="242" cy="399" r="0.9" fill="#fff" opacity="0.41"/></g>
  <path d="M24 680 L110 610 L186 666 L272 592 L356 674 L445 626 L512 704 V768 H0V704Z" fill="#514438" opacity=".18"/>
  <ellipse cx="256" cy="662" rx="150" ry="34" fill="#514438" opacity=".28"/>
  <g transform="translate(0 122)">
    <path d="M149.4 228.5 L219.1 156.75 H311.35 L376.95 242.85 L346.2 394.55 H163.75 Z" fill="url(#body)" filter="url(#softShadow)"/><path d="M198.60000000000002 179.3 L245.75 91.15 L280.6 171.10000000000002 Z" fill="#ddd0b2"/><path d="M290.85 183.4 L344.15 113.70000000000002 L342.1 210.05 Z" fill="#8d7a5f"/><rect x="194.5" y="277.7" width="122.99999999999999" height="30.749999999999996" rx="14.349999999999998" fill="#514438" opacity=".38"/><circle cx="227.3" cy="292.05" r="10.25" fill="#ddd0b2"/><circle cx="284.7" cy="292.05" r="10.25" fill="#ddd0b2"/><circle cx="256" cy="210.05" r="14.349999999999998" fill="#ddd0b2" opacity=".9"/>
  </g>
  <path d="M74 126 C170 65 334 65 438 126" stroke="#fff" stroke-width="16" stroke-linecap="round" opacity=".16"/>
  <path d="M63 676 C162 718 344 718 449 662" stroke="#fff" stroke-width="14" stroke-linecap="round" opacity=".16"/>
</svg>