<svg xmlns="http://www.w3.org/2000/svg" viewBox="0 0 512 768" role="img" aria-label="天空霸主 original portrait">
  
  <defs>
    <linearGradient id="bgp228" x1="0" y1="0" x2="1" y2="1">
      <stop offset="0" stop-color="#d9edff"/>
      <stop offset=".55" stop-color="#82b7ff"/>
      <stop offset="1" stop-color="#4260ad"/>
    </linearGradient>
    <radialGradient id="body" cx=".36" cy=".25" r=".76">
      <stop offset="0" stop-color="#d9edff"/>
      <stop offset=".6" stop-color="#82b7ff"/>
      <stop offset="1" stop-color="#4260ad"/>
    </radialGradient>
    <radialGradient id="head" cx=".36" cy=".26" r=".72">
      <stop offset="0" stop-color="#ffffff" stop-opacity=".85"/>
      <stop offset=".2" stop-color="#d9edff"/>
      <stop offset=".72" stop-color="#82b7ff"/>
      <stop offset="1" stop-color="#4260ad"/>
    </radialGradient>
    <filter id="softShadow" x="-30%" y="-30%" width="160%" height="160%">
      <feDropShadow dx="0" dy="8" stdDeviation="8" flood-color="#4260ad" flood-opacity=".35"/>
    </filter>
  </defs>
  <rect width="512" height="768" rx="48" fill="url(#bgp228)"/>
  <rect x="24" y="24" width="464" height="720" rx="40" fill="#ffffff" opacity=".08"/>
  <g opacity=".42"><circle cx="362" cy="639" r="2.7" fill="#fff" opacity="0.56"/><circle cx="71" cy="550" r="3.0" fill="#fff" opacity="0.69"/><circle cx="150" cy="625" r="1.1" fill="#fff" opacity="0.49"/><circle cx="201" cy="450" r="2.9" fill="#fff" opacity="0.34"/><circle cx="206" cy="674" r="1.9" fill="#fff" opacity="0.45"/><circle cx="366" cy="618" r="2.9" fill="#fff" opacity="0.52"/><circle cx="149" cy="70" r="1.9" fill="#fff" opacity="0.42"/><circle cx="162" cy="38" r="2.0" fill="#fff" opacity="0.63"/><circle cx="124" cy="515" r="1.9" fill="#fff" opacity="0.58"/><circle cx="255" cy="516" r="2.1" fill="#fff" opacity="0.31"/><circle cx="425" cy="254" r="1.1" fill="#fff" opacity="0.60"/><circle cx="87" cy="743" r="3.0" fill="#fff" opacity="0.43"/><circle cx="61" cy="268" r="1.8" fill="#fff" opacity="0.36"/><circle cx="129" cy="456" r="3.0" fill="#fff" opacity="0.37"/><circle cx="192" cy="614" r="0.8" fill="#fff" opacity="0.64"/><circle cx="342" cy="397" r="1.7" fill="#fff" opacity="0.60"/><circle cx="411" cy="14" r="3.1" fill="#fff" opacity="0.36"/><circle cx="189" cy="579" r="0.8" fill="#fff" opacity="0.69"/><circle cx="454" cy="291" r="3.2" fill="#fff" opacity="0.39"/><circle cx="449" cy="580" r="2.2" fill="#fff" opacity="0.27"/><circle cx="217" cy="634" r="1.7" fill="#fff" opacity="0.61"/><circle cx="388" cy="364" r="2.0" fill="#fff" opacity="0.50"/><circle cx="329" cy="183" r="2.8" fill="#fff" opacity="0.55"/><circle cx="168" cy="206" r="2.0" fill="#fff" opacity="0.27"/><circle cx="441" cy="578" r="2.4" fill="#fff" opacity="0.57"/><circle cx="466" cy="687" r="3.2" fill="#fff" opacity="0.50"/><circle cx="361" cy="620" r="2.2" fill="#fff" opacity="0.63"/><circle cx="501" cy="468" r="1.6" fill="#fff" opacity="0.36"/></g>
  <circle cx="256" cy="294" r="194" fill="#d9edff" opacity=".12"/><circle cx="256" cy="294" r="152" fill="#fff" opacity=".1"/>
  <ellipse cx="256" cy="662" rx="150" ry="34" fill="#4260ad" opacity=".28"/>
  <g transform="translate(0 122)">
    <ellipse cx="256" cy="339.2" rx="100.44999999999999" ry="112.74999999999999" fill="url(#body)" filter="url(#softShadow)"/><circle cx="256" cy="226.45" r="79.94999999999999" fill="url(#head)"/><ellipse cx="256" cy="214.15" rx="139.39999999999998" ry="36.9" fill="none" stroke="#d9edff" stroke-width="14.349999999999998" opacity=".75" transform="rotate(-12 256 214.15)"/><path d="M256 103.45000000000002 L276.5 154.70000000000002 L333.9 156.75 L286.75 187.5 L303.15 242.85 L256 208 L208.85 242.85 L225.25 187.5 L178.10000000000002 156.75 L235.5 154.70000000000002 Z" fill="#82b7ff"/><ellipse cx="223.2" cy="253.1" rx="14.349999999999998" ry="16.4" fill="#14213d"/><ellipse cx="288.8" cy="253.1" rx="14.349999999999998" ry="16.4" fill="#14213d"/><circle cx="229.35" cy="244.9" r="4.714999999999999" fill="#fff"/><circle cx="294.95" cy="244.9" r="4.714999999999999" fill="#fff"/><path d="M215 201.85000000000002 Q256 224.4 297 201.85000000000002" stroke="#d9edff" stroke-width="10.25" fill="none" stroke-linecap="round" opacity=".8"/>
  </g>
  <path d="M74 126 C170 65 334 65 438 126" stroke="#fff" stroke-width="16" stroke-linecap="round" opacity=".16"/>
  <path d="M63 676 C162 718 344 718 449 662" stroke="#fff" stroke-width="14" stroke-linecap="round" opacity=".16"/>
</svg>