<svg xmlns="http://www.w3.org/2000/svg" viewBox="0 0 512 768" role="img" aria-label="剧毒蛇 original portrait">
  
  <defs>
    <linearGradient id="bgp229" x1="0" y1="0" x2="1" y2="1">
      <stop offset="0" stop-color="#efb2ff"/>
      <stop offset=".55" stop-color="#9b5de5"/>
      <stop offset="1" stop-color="#4f2378"/>
    </linearGradient>
    <radialGradient id="body" cx=".36" cy=".25" r=".76">
      <stop offset="0" stop-color="#efb2ff"/>
      <stop offset=".6" stop-color="#9b5de5"/>
      <stop offset="1" stop-color="#4f2378"/>
    </radialGradient>
    <radialGradient id="head" cx=".36" cy=".26" r=".72">
      <stop offset="0" stop-color="#ffffff" stop-opacity=".85"/>
      <stop offset=".2" stop-color="#efb2ff"/>
      <stop offset=".72" stop-color="#9b5de5"/>
      <stop offset="1" stop-color="#4f2378"/>
    </radialGradient>
    <filter id="softShadow" x="-30%" y="-30%" width="160%" height="160%">
      <feDropShadow dx="0" dy="8" stdDeviation="8" flood-color="#4f2378" flood-opacity=".35"/>
    </filter>
  </defs>
  <rect width="512" height="768" rx="48" fill="url(#bgp229)"/>
  <rect x="24" y="24" width="464" height="720" rx="40" fill="#ffffff" opacity=".08"/>
  <g opacity=".42"><circle cx="251" cy="580" r="1.8" fill="#fff" opacity="0.36"/><circle cx="135" cy="103" r="1.0" fill="#fff" opacity="0.44"/><circle cx="93" cy="466" r="1.5" fill="#fff" opacity="0.67"/><circle cx="84" cy="733" r="3.2" fill="#fff" opacity="0.38"/><circle cx="336" cy="118" r="1.2" fill="#fff" opacity="0.40"/><circle cx="275" cy="241" r="2.0" fill="#fff" opacity="0.64"/><circle cx="332" cy="40" r="2.8" fill="#fff" opacity="0.67"/><circle cx="352" cy="575" r="1.2" fill="#fff" opacity="0.66"/><circle cx="272" cy="167" r="0.9" fill="#fff" opacity="0.50"/><circle cx="8" cy="271" r="1.2" fill="#fff" opacity="0.64"/><circle cx="54" cy="361" r="3.0" fill="#fff" opacity="0.69"/><circle cx="466" cy="587" r="1.7" fill="#fff" opacity="0.46"/><circle cx="489" cy="227" r="1.6" fill="#fff" opacity="0.65"/><circle cx="165" cy="299" r="1.7" fill="#fff" opacity="0.28"/><circle cx="105" cy="403" r="2.7" fill="#fff" opacity="0.32"/><circle cx="256" cy="465" r="2.6" fill="#fff" opacity="0.39"/><circle cx="128" cy="249" r="2.5" fill="#fff" opacity="0.46"/><circle cx="503" cy="181" r="2.1" fill="#fff" opacity="0.43"/><circle cx="238" cy="483" r="2.4" fill="#fff" opacity="0.49"/><circle cx="503" cy="548" r="1.9" fill="#fff" opacity="0.32"/><circle cx="51" cy="225" r="1.0" fill="#fff" opacity="0.52"/><circle cx="61" cy="640" r="1.6" fill="#fff" opacity="0.26"/><circle cx="139" cy="712" r="2.9" fill="#fff" opacity="0.30"/><circle cx="150" cy="356" r="1.2" fill="#fff" opacity="0.29"/><circle cx="70" cy="728" r="3.0" fill="#fff" opacity="0.28"/><circle cx="37" cy="401" r="1.0" fill="#fff" opacity="0.65"/><circle cx="276" cy="580" r="1.7" fill="#fff" opacity="0.40"/><circle cx="272" cy="362" r="3.2" fill="#fff" opacity="0.34"/></g>
  <path d="M70 600 C142 504 297 500 443 610" fill="#4f2378" opacity=".18"/><path d="M52 642 C146 578 341 580 471 650" fill="#4f2378" opacity=".16"/>
  <ellipse cx="256" cy="662" rx="150" ry="34" fill="#4f2378" opacity=".28"/>
  <g transform="translate(0 122)">
    <path d="M108.4 347.4 C161.7 224.4 292.9 175.20000000000002 389.25 253.1 C325.7 249 276.5 285.9 247.8 376.1" fill="#4f2378" opacity=".45"/><ellipse cx="256" cy="335.1" rx="110.69999999999999" ry="92.24999999999999" fill="url(#body)" filter="url(#softShadow)"/><path d="M167.85000000000002 253.1 L219.1 130.10000000000002 L249.85 244.9 Z" fill="#9b5de5"/><path d="M344.15 253.1 L292.9 130.10000000000002 L262.15 244.9 Z" fill="#9b5de5"/><ellipse cx="256" cy="267.45" rx="96.35" ry="86.1" fill="url(#head)"/><path d="M151.45 292.05 Q87.9 298.2 63.30000000000001 253.1" stroke="#efb2ff" stroke-width="10.25" fill="none" stroke-linecap="round" opacity=".85"/><path d="M360.55 292.05 Q424.1 298.2 448.7 253.1" stroke="#efb2ff" stroke-width="10.25" fill="none" stroke-linecap="round" opacity=".85"/><ellipse cx="223.2" cy="253.1" rx="14.349999999999998" ry="16.4" fill="#14213d"/><ellipse cx="288.8" cy="253.1" rx="14.349999999999998" ry="16.4" fill="#14213d"/><circle cx="229.35" cy="244.9" r="4.714999999999999" fill="#fff"/><circle cx="294.95" cy="244.9" r="4.714999999999999" fill="#fff"/><path d="M215 201.85000000000002 Q256 224.4 297 201.85000000000002" stroke="#efb2ff" stroke-width="10.25" fill="none" stroke-linecap="round" opacity=".8"/>
  </g>
  <path d="M74 126 C170 65 334 65 438 126" stroke="#fff" stroke-width="16" stroke-linecap="round" opacity=".16"/>
  <path d="M63 676 C162 718 344 718 449 662" stroke="#fff" stroke-width="14" stroke-linecap="round" opacity=".16"/>
</svg>