<svg xmlns="http://www.w3.org/2000/svg" viewBox="0 0 512 768" role="img" aria-label="沧海霸主 unique portrait">
  <defs>
    <linearGradient id="bg23" x1="0" y1="0" x2="1" y2="1"><stop offset="0" stop-color="#9be7ff"/><stop offset=".55" stop-color="#2f80ed"/><stop offset="1" stop-color="#0a3d7a"/></linearGradient>
    <radialGradient id="body23" cx=".35" cy=".24" r=".78"><stop offset="0" stop-color="#fff" stop-opacity=".88"/><stop offset=".18" stop-color="#9be7ff"/><stop offset=".68" stop-color="#2f80ed"/><stop offset="1" stop-color="#0a3d7a"/></radialGradient>
    <filter id="shadow23" x="-30%" y="-30%" width="160%" height="160%"><feDropShadow dx="0" dy="10" stdDeviation="9" flood-color="#0a3d7a" flood-opacity=".36"/></filter>
  </defs>
  <rect width="512" height="768" rx="48" fill="url(#bg23)"/>
  <rect x="24" y="24" width="464" height="720" rx="40" fill="#fff" opacity=".08"/>
  <g opacity=".46"><circle cx="459" cy="67" r="1.3" fill="#fff" opacity="0.58"/><circle cx="199" cy="230" r="5.0" fill="#fff" opacity="0.29"/><circle cx="158" cy="287" r="3.5" fill="#fff" opacity="0.43"/><circle cx="278" cy="489" r="2.2" fill="#fff" opacity="0.61"/><circle cx="203" cy="131" r="4.9" fill="#fff" opacity="0.34"/><circle cx="278" cy="325" r="4.2" fill="#fff" opacity="0.60"/><circle cx="408" cy="551" r="5.3" fill="#fff" opacity="0.48"/><circle cx="175" cy="293" r="1.5" fill="#fff" opacity="0.55"/><circle cx="403" cy="508" r="3.6" fill="#fff" opacity="0.44"/><circle cx="289" cy="305" r="5.4" fill="#fff" opacity="0.40"/><circle cx="285" cy="65" r="4.5" fill="#fff" opacity="0.58"/><circle cx="394" cy="464" r="4.1" fill="#fff" opacity="0.48"/><circle cx="452" cy="179" r="2.5" fill="#fff" opacity="0.41"/><circle cx="204" cy="131" r="1.8" fill="#fff" opacity="0.48"/><circle cx="417" cy="474" r="3.6" fill="#fff" opacity="0.44"/><circle cx="374" cy="400" r="4.6" fill="#fff" opacity="0.52"/><circle cx="228" cy="329" r="3.6" fill="#fff" opacity="0.30"/><circle cx="58" cy="273" r="1.5" fill="#fff" opacity="0.51"/></g>
  <path d="M0 596 C80 558 128 616 202 584 C281 550 332 618 418 582 C464 563 492 570 512 586 V768 H0Z" fill="#0a3d7a" opacity=".22"/>
  <ellipse cx="256" cy="664" rx="154" ry="36" fill="#0a3d7a" opacity=".3"/>
  <g transform="translate(0 84)"><circle cx="256" cy="357" r="128" fill="url(#body23)" filter="url(#shadow23)"/><circle cx="256" cy="357" r="70" fill="#9be7ff" opacity=".26"/>
    <circle cx="215" cy="316" r="17" fill="#0a3d7a"/><circle cx="297" cy="316" r="17" fill="#0a3d7a"/>
    <circle cx="209" cy="310" r="5" fill="#fff" opacity=".75"/><circle cx="291" cy="310" r="5" fill="#fff" opacity=".75"/>
    <path d="M214 248 Q256 284 298 248" stroke="#9be7ff" stroke-width="14" fill="none" stroke-linecap="round" opacity=".74"/>
    <path d="M188 560 C228 600 288 600 326 560" stroke="#fff" stroke-width="12" stroke-linecap="round" opacity=".18" fill="none"/>
  </g>
  <path d="M72 128 C168 68 334 66 440 128" stroke="#fff" stroke-width="16" stroke-linecap="round" opacity=".16"/>
  <path d="M60 678 C164 722 348 718 452 662" stroke="#fff" stroke-width="14" stroke-linecap="round" opacity=".16"/>
</svg>