<svg xmlns="http://www.w3.org/2000/svg" viewBox="0 0 512 768" role="img" aria-label="普通的狗 original portrait">
  
  <defs>
    <linearGradient id="bgp231" x1="0" y1="0" x2="1" y2="1">
      <stop offset="0" stop-color="#f4e8d8"/>
      <stop offset=".55" stop-color="#b78f68"/>
      <stop offset="1" stop-color="#6d4f3f"/>
    </linearGradient>
    <radialGradient id="body" cx=".36" cy=".25" r=".76">
      <stop offset="0" stop-color="#f4e8d8"/>
      <stop offset=".6" stop-color="#b78f68"/>
      <stop offset="1" stop-color="#6d4f3f"/>
    </radialGradient>
    <radialGradient id="head" cx=".36" cy=".26" r=".72">
      <stop offset="0" stop-color="#ffffff" stop-opacity=".85"/>
      <stop offset=".2" stop-color="#f4e8d8"/>
      <stop offset=".72" stop-color="#b78f68"/>
      <stop offset="1" stop-color="#6d4f3f"/>
    </radialGradient>
    <filter id="softShadow" x="-30%" y="-30%" width="160%" height="160%">
      <feDropShadow dx="0" dy="8" stdDeviation="8" flood-color="#6d4f3f" flood-opacity=".35"/>
    </filter>
  </defs>
  <rect width="512" height="768" rx="48" fill="url(#bgp231)"/>
  <rect x="24" y="24" width="464" height="720" rx="40" fill="#ffffff" opacity=".08"/>
  <g opacity=".42"><circle cx="130" cy="566" r="2.7" fill="#fff" opacity="0.25"/><circle cx="43" cy="310" r="2.5" fill="#fff" opacity="0.58"/><circle cx="432" cy="752" r="2.4" fill="#fff" opacity="0.62"/><circle cx="215" cy="197" r="2.0" fill="#fff" opacity="0.58"/><circle cx="499" cy="296" r="2.3" fill="#fff" opacity="0.69"/><circle cx="288" cy="625" r="2.3" fill="#fff" opacity="0.64"/><circle cx="96" cy="446" r="1.7" fill="#fff" opacity="0.50"/><circle cx="19" cy="333" r="2.2" fill="#fff" opacity="0.62"/><circle cx="127" cy="155" r="2.8" fill="#fff" opacity="0.28"/><circle cx="331" cy="92" r="3.0" fill="#fff" opacity="0.40"/><circle cx="227" cy="234" r="1.4" fill="#fff" opacity="0.63"/><circle cx="46" cy="2" r="2.6" fill="#fff" opacity="0.59"/><circle cx="503" cy="214" r="0.8" fill="#fff" opacity="0.30"/><circle cx="466" cy="639" r="2.4" fill="#fff" opacity="0.57"/><circle cx="68" cy="717" r="2.6" fill="#fff" opacity="0.57"/><circle cx="329" cy="545" r="2.9" fill="#fff" opacity="0.51"/><circle cx="383" cy="377" r="1.5" fill="#fff" opacity="0.54"/><circle cx="288" cy="570" r="1.8" fill="#fff" opacity="0.54"/><circle cx="12" cy="144" r="2.4" fill="#fff" opacity="0.30"/><circle cx="275" cy="750" r="3.0" fill="#fff" opacity="0.43"/><circle cx="343" cy="488" r="2.0" fill="#fff" opacity="0.45"/><circle cx="420" cy="320" r="1.2" fill="#fff" opacity="0.67"/><circle cx="457" cy="492" r="2.6" fill="#fff" opacity="0.45"/><circle cx="507" cy="562" r="2.4" fill="#fff" opacity="0.59"/><circle cx="128" cy="39" r="1.9" fill="#fff" opacity="0.39"/><circle cx="333" cy="671" r="3.0" fill="#fff" opacity="0.51"/><circle cx="373" cy="701" r="2.0" fill="#fff" opacity="0.35"/><circle cx="211" cy="633" r="2.6" fill="#fff" opacity="0.57"/></g>
  <path d="M0 670 C96 613 167 665 256 620 C337 660 421 608 512 662 V768 H0Z" fill="#6d4f3f" opacity=".15"/>
  <ellipse cx="256" cy="662" rx="150" ry="34" fill="#6d4f3f" opacity=".28"/>
  <g transform="translate(0 122)">
    <path d="M352.35 347.4 C442.54999999999995 322.8 420 222.35000000000002 346.2 263.35" stroke="#b78f68" stroke-width="28.699999999999996" fill="none" stroke-linecap="round" opacity=".76"/><ellipse cx="256" cy="353.55" rx="108.64999999999999" ry="102.49999999999999" fill="url(#body)" filter="url(#softShadow)"/><path d="M184.25 212.10000000000002 L137.10000000000002 115.75000000000003 L231.4 175.20000000000002 Z" fill="#b78f68"/><path d="M327.75 212.10000000000002 L374.9 115.75000000000003 L280.6 175.20000000000002 Z" fill="#b78f68"/><circle cx="256" cy="234.65" r="92.24999999999999" fill="url(#head)"/><ellipse cx="221.15" cy="251.05" rx="16.4" ry="20.5" fill="#182033"/><ellipse cx="290.85" cy="251.05" rx="16.4" ry="20.5" fill="#182033"/><ellipse cx="223.2" cy="253.1" rx="14.349999999999998" ry="16.4" fill="#14213d"/><ellipse cx="288.8" cy="253.1" rx="14.349999999999998" ry="16.4" fill="#14213d"/><circle cx="229.35" cy="244.9" r="4.714999999999999" fill="#fff"/><circle cx="294.95" cy="244.9" r="4.714999999999999" fill="#fff"/><circle cx="256" cy="210.05" r="14.349999999999998" fill="#f4e8d8" opacity=".9"/>
  </g>
  <path d="M74 126 C170 65 334 65 438 126" stroke="#fff" stroke-width="16" stroke-linecap="round" opacity=".16"/>
  <path d="M63 676 C162 718 344 718 449 662" stroke="#fff" stroke-width="14" stroke-linecap="round" opacity=".16"/>
</svg>