<svg xmlns="http://www.w3.org/2000/svg" viewBox="0 0 512 768" role="img" aria-label="太阳神 original portrait">
  
  <defs>
    <linearGradient id="bgp233" x1="0" y1="0" x2="1" y2="1">
      <stop offset="0" stop-color="#ffd166"/>
      <stop offset=".55" stop-color="#ff6b35"/>
      <stop offset="1" stop-color="#a92d1d"/>
    </linearGradient>
    <radialGradient id="body" cx=".36" cy=".25" r=".76">
      <stop offset="0" stop-color="#ffd166"/>
      <stop offset=".6" stop-color="#ff6b35"/>
      <stop offset="1" stop-color="#a92d1d"/>
    </radialGradient>
    <radialGradient id="head" cx=".36" cy=".26" r=".72">
      <stop offset="0" stop-color="#ffffff" stop-opacity=".85"/>
      <stop offset=".2" stop-color="#ffd166"/>
      <stop offset=".72" stop-color="#ff6b35"/>
      <stop offset="1" stop-color="#a92d1d"/>
    </radialGradient>
    <filter id="softShadow" x="-30%" y="-30%" width="160%" height="160%">
      <feDropShadow dx="0" dy="8" stdDeviation="8" flood-color="#a92d1d" flood-opacity=".35"/>
    </filter>
  </defs>
  <rect width="512" height="768" rx="48" fill="url(#bgp233)"/>
  <rect x="24" y="24" width="464" height="720" rx="40" fill="#ffffff" opacity=".08"/>
  <g opacity=".42"><circle cx="264" cy="76" r="1.8" fill="#fff" opacity="0.51"/><circle cx="435" cy="294" r="1.3" fill="#fff" opacity="0.39"/><circle cx="316" cy="28" r="1.8" fill="#fff" opacity="0.63"/><circle cx="30" cy="648" r="1.4" fill="#fff" opacity="0.45"/><circle cx="484" cy="474" r="2.5" fill="#fff" opacity="0.40"/><circle cx="295" cy="206" r="1.1" fill="#fff" opacity="0.26"/><circle cx="206" cy="203" r="1.9" fill="#fff" opacity="0.51"/><circle cx="331" cy="253" r="2.3" fill="#fff" opacity="0.50"/><circle cx="43" cy="15" r="2.3" fill="#fff" opacity="0.33"/><circle cx="82" cy="150" r="1.0" fill="#fff" opacity="0.28"/><circle cx="97" cy="705" r="2.7" fill="#fff" opacity="0.66"/><circle cx="456" cy="605" r="2.6" fill="#fff" opacity="0.30"/><circle cx="130" cy="751" r="2.9" fill="#fff" opacity="0.40"/><circle cx="41" cy="467" r="2.1" fill="#fff" opacity="0.46"/><circle cx="299" cy="686" r="3.0" fill="#fff" opacity="0.53"/><circle cx="143" cy="126" r="1.8" fill="#fff" opacity="0.36"/><circle cx="18" cy="6" r="1.1" fill="#fff" opacity="0.38"/><circle cx="113" cy="32" r="1.5" fill="#fff" opacity="0.62"/><circle cx="284" cy="46" r="2.3" fill="#fff" opacity="0.61"/><circle cx="408" cy="637" r="2.2" fill="#fff" opacity="0.57"/><circle cx="163" cy="467" r="3.1" fill="#fff" opacity="0.31"/><circle cx="263" cy="272" r="1.4" fill="#fff" opacity="0.67"/><circle cx="354" cy="377" r="1.8" fill="#fff" opacity="0.53"/><circle cx="113" cy="381" r="3.0" fill="#fff" opacity="0.49"/><circle cx="302" cy="393" r="1.4" fill="#fff" opacity="0.26"/><circle cx="327" cy="481" r="1.7" fill="#fff" opacity="0.27"/><circle cx="204" cy="326" r="3.0" fill="#fff" opacity="0.49"/><circle cx="87" cy="568" r="1.7" fill="#fff" opacity="0.48"/></g>
  <circle cx="256" cy="294" r="213" fill="#ffd166" opacity=".12"/><circle cx="256" cy="294" r="171" fill="#fff" opacity=".1"/>
  <ellipse cx="256" cy="662" rx="150" ry="34" fill="#a92d1d" opacity=".28"/>
  <g transform="translate(0 122)">
    <ellipse cx="256" cy="339.2" rx="100.44999999999999" ry="112.74999999999999" fill="url(#body)" filter="url(#softShadow)"/><circle cx="256" cy="226.45" r="79.94999999999999" fill="url(#head)"/><ellipse cx="256" cy="214.15" rx="139.39999999999998" ry="36.9" fill="none" stroke="#ffd166" stroke-width="14.349999999999998" opacity=".75" transform="rotate(-12 256 214.15)"/><path d="M256 103.45000000000002 L276.5 154.70000000000002 L333.9 156.75 L286.75 187.5 L303.15 242.85 L256 208 L208.85 242.85 L225.25 187.5 L178.10000000000002 156.75 L235.5 154.70000000000002 Z" fill="#ff6b35"/><ellipse cx="223.2" cy="253.1" rx="14.349999999999998" ry="16.4" fill="#14213d"/><ellipse cx="288.8" cy="253.1" rx="14.349999999999998" ry="16.4" fill="#14213d"/><circle cx="229.35" cy="244.9" r="4.714999999999999" fill="#fff"/><circle cx="294.95" cy="244.9" r="4.714999999999999" fill="#fff"/><path d="M256 183.4 L278.55 212.10000000000002 L256 242.85 L233.45 212.10000000000002 Z" fill="#ffd166" opacity=".92"/>
  </g>
  <path d="M74 126 C170 65 334 65 438 126" stroke="#fff" stroke-width="16" stroke-linecap="round" opacity=".16"/>
  <path d="M63 676 C162 718 344 718 449 662" stroke="#fff" stroke-width="14" stroke-linecap="round" opacity=".16"/>
</svg>