<svg xmlns="http://www.w3.org/2000/svg" viewBox="0 0 512 768" role="img" aria-label="冰霜巨龙 original portrait">
  
  <defs>
    <linearGradient id="bgp234" x1="0" y1="0" x2="1" y2="1">
      <stop offset="0" stop-color="#d7fbff"/>
      <stop offset=".55" stop-color="#71d6e8"/>
      <stop offset="1" stop-color="#318aa3"/>
    </linearGradient>
    <radialGradient id="body" cx=".36" cy=".25" r=".76">
      <stop offset="0" stop-color="#d7fbff"/>
      <stop offset=".6" stop-color="#71d6e8"/>
      <stop offset="1" stop-color="#318aa3"/>
    </radialGradient>
    <radialGradient id="head" cx=".36" cy=".26" r=".72">
      <stop offset="0" stop-color="#ffffff" stop-opacity=".85"/>
      <stop offset=".2" stop-color="#d7fbff"/>
      <stop offset=".72" stop-color="#71d6e8"/>
      <stop offset="1" stop-color="#318aa3"/>
    </radialGradient>
    <filter id="softShadow" x="-30%" y="-30%" width="160%" height="160%">
      <feDropShadow dx="0" dy="8" stdDeviation="8" flood-color="#318aa3" flood-opacity=".35"/>
    </filter>
  </defs>
  <rect width="512" height="768" rx="48" fill="url(#bgp234)"/>
  <rect x="24" y="24" width="464" height="720" rx="40" fill="#ffffff" opacity=".08"/>
  <g opacity=".42"><circle cx="297" cy="596" r="2.3" fill="#fff" opacity="0.62"/><circle cx="512" cy="200" r="1.7" fill="#fff" opacity="0.39"/><circle cx="485" cy="158" r="1.3" fill="#fff" opacity="0.33"/><circle cx="72" cy="54" r="2.5" fill="#fff" opacity="0.27"/><circle cx="98" cy="423" r="1.3" fill="#fff" opacity="0.37"/><circle cx="364" cy="450" r="1.8" fill="#fff" opacity="0.48"/><circle cx="314" cy="484" r="3.0" fill="#fff" opacity="0.39"/><circle cx="343" cy="37" r="1.0" fill="#fff" opacity="0.30"/><circle cx="358" cy="556" r="0.8" fill="#fff" opacity="0.27"/><circle cx="326" cy="361" r="1.3" fill="#fff" opacity="0.34"/><circle cx="276" cy="527" r="1.7" fill="#fff" opacity="0.34"/><circle cx="380" cy="657" r="2.6" fill="#fff" opacity="0.58"/><circle cx="399" cy="609" r="2.7" fill="#fff" opacity="0.28"/><circle cx="18" cy="703" r="1.2" fill="#fff" opacity="0.46"/><circle cx="218" cy="604" r="2.4" fill="#fff" opacity="0.32"/><circle cx="123" cy="213" r="2.6" fill="#fff" opacity="0.52"/><circle cx="235" cy="225" r="1.4" fill="#fff" opacity="0.64"/><circle cx="223" cy="32" r="2.7" fill="#fff" opacity="0.39"/><circle cx="312" cy="737" r="3.2" fill="#fff" opacity="0.50"/><circle cx="112" cy="625" r="2.1" fill="#fff" opacity="0.39"/><circle cx="119" cy="643" r="2.7" fill="#fff" opacity="0.51"/><circle cx="98" cy="27" r="2.5" fill="#fff" opacity="0.35"/><circle cx="403" cy="217" r="2.4" fill="#fff" opacity="0.53"/><circle cx="85" cy="391" r="1.8" fill="#fff" opacity="0.39"/><circle cx="258" cy="615" r="2.6" fill="#fff" opacity="0.42"/><circle cx="351" cy="475" r="1.8" fill="#fff" opacity="0.42"/><circle cx="424" cy="389" r="1.6" fill="#fff" opacity="0.69"/><circle cx="95" cy="216" r="1.6" fill="#fff" opacity="0.27"/></g>
  <path d="M70 600 C142 504 297 500 443 610" fill="#318aa3" opacity=".18"/><path d="M52 642 C146 578 341 580 471 650" fill="#318aa3" opacity=".16"/>
  <ellipse cx="256" cy="662" rx="150" ry="34" fill="#318aa3" opacity=".28"/>
  <g transform="translate(0 122)">
    <path d="M108.4 347.4 C161.7 224.4 292.9 175.20000000000002 389.25 253.1 C325.7 249 276.5 285.9 247.8 376.1" fill="#318aa3" opacity=".45"/><ellipse cx="256" cy="335.1" rx="110.69999999999999" ry="92.24999999999999" fill="url(#body)" filter="url(#softShadow)"/><path d="M167.85000000000002 253.1 L219.1 130.10000000000002 L249.85 244.9 Z" fill="#71d6e8"/><path d="M344.15 253.1 L292.9 130.10000000000002 L262.15 244.9 Z" fill="#71d6e8"/><ellipse cx="256" cy="267.45" rx="96.35" ry="86.1" fill="url(#head)"/><path d="M151.45 292.05 Q87.9 298.2 63.30000000000001 253.1" stroke="#d7fbff" stroke-width="10.25" fill="none" stroke-linecap="round" opacity=".85"/><path d="M360.55 292.05 Q424.1 298.2 448.7 253.1" stroke="#d7fbff" stroke-width="10.25" fill="none" stroke-linecap="round" opacity=".85"/><ellipse cx="223.2" cy="253.1" rx="14.349999999999998" ry="16.4" fill="#14213d"/><ellipse cx="288.8" cy="253.1" rx="14.349999999999998" ry="16.4" fill="#14213d"/><circle cx="229.35" cy="244.9" r="4.714999999999999" fill="#fff"/><circle cx="294.95" cy="244.9" r="4.714999999999999" fill="#fff"/><path d="M256 183.4 L278.55 212.10000000000002 L256 242.85 L233.45 212.10000000000002 Z" fill="#d7fbff" opacity=".92"/>
  </g>
  <path d="M74 126 C170 65 334 65 438 126" stroke="#fff" stroke-width="16" stroke-linecap="round" opacity=".16"/>
  <path d="M63 676 C162 718 344 718 449 662" stroke="#fff" stroke-width="14" stroke-linecap="round" opacity=".16"/>
</svg>