<svg xmlns="http://www.w3.org/2000/svg" viewBox="0 0 512 768" role="img" aria-label="超能猫 original portrait">
  
  <defs>
    <linearGradient id="bgp237" x1="0" y1="0" x2="1" y2="1">
      <stop offset="0" stop-color="#ffd0ec"/>
      <stop offset=".55" stop-color="#e056a7"/>
      <stop offset="1" stop-color="#6d327d"/>
    </linearGradient>
    <radialGradient id="body" cx=".36" cy=".25" r=".76">
      <stop offset="0" stop-color="#ffd0ec"/>
      <stop offset=".6" stop-color="#e056a7"/>
      <stop offset="1" stop-color="#6d327d"/>
    </radialGradient>
    <radialGradient id="head" cx=".36" cy=".26" r=".72">
      <stop offset="0" stop-color="#ffffff" stop-opacity=".85"/>
      <stop offset=".2" stop-color="#ffd0ec"/>
      <stop offset=".72" stop-color="#e056a7"/>
      <stop offset="1" stop-color="#6d327d"/>
    </radialGradient>
    <filter id="softShadow" x="-30%" y="-30%" width="160%" height="160%">
      <feDropShadow dx="0" dy="8" stdDeviation="8" flood-color="#6d327d" flood-opacity=".35"/>
    </filter>
  </defs>
  <rect width="512" height="768" rx="48" fill="url(#bgp237)"/>
  <rect x="24" y="24" width="464" height="720" rx="40" fill="#ffffff" opacity=".08"/>
  <g opacity=".42"><circle cx="448" cy="417" r="1.0" fill="#fff" opacity="0.50"/><circle cx="394" cy="438" r="3.1" fill="#fff" opacity="0.46"/><circle cx="87" cy="542" r="1.0" fill="#fff" opacity="0.47"/><circle cx="425" cy="394" r="0.8" fill="#fff" opacity="0.28"/><circle cx="37" cy="586" r="1.0" fill="#fff" opacity="0.70"/><circle cx="284" cy="355" r="1.5" fill="#fff" opacity="0.55"/><circle cx="290" cy="147" r="1.4" fill="#fff" opacity="0.57"/><circle cx="170" cy="305" r="3.2" fill="#fff" opacity="0.68"/><circle cx="331" cy="428" r="1.5" fill="#fff" opacity="0.63"/><circle cx="405" cy="410" r="1.6" fill="#fff" opacity="0.58"/><circle cx="346" cy="415" r="3.0" fill="#fff" opacity="0.45"/><circle cx="6" cy="361" r="2.6" fill="#fff" opacity="0.36"/><circle cx="72" cy="570" r="1.4" fill="#fff" opacity="0.39"/><circle cx="3" cy="723" r="1.6" fill="#fff" opacity="0.39"/><circle cx="176" cy="50" r="1.2" fill="#fff" opacity="0.50"/><circle cx="29" cy="221" r="2.3" fill="#fff" opacity="0.50"/><circle cx="109" cy="52" r="2.9" fill="#fff" opacity="0.32"/><circle cx="408" cy="585" r="2.8" fill="#fff" opacity="0.29"/><circle cx="380" cy="525" r="1.9" fill="#fff" opacity="0.58"/><circle cx="293" cy="269" r="2.3" fill="#fff" opacity="0.69"/><circle cx="352" cy="607" r="2.0" fill="#fff" opacity="0.56"/><circle cx="245" cy="331" r="2.8" fill="#fff" opacity="0.50"/><circle cx="211" cy="722" r="1.4" fill="#fff" opacity="0.49"/><circle cx="135" cy="705" r="2.9" fill="#fff" opacity="0.66"/><circle cx="161" cy="680" r="1.2" fill="#fff" opacity="0.42"/><circle cx="283" cy="528" r="2.7" fill="#fff" opacity="0.32"/><circle cx="192" cy="165" r="0.8" fill="#fff" opacity="0.58"/><circle cx="85" cy="763" r="2.3" fill="#fff" opacity="0.40"/></g>
  <path d="M0 670 C96 613 167 665 256 620 C337 660 421 608 512 662 V768 H0Z" fill="#6d327d" opacity=".15"/>
  <ellipse cx="256" cy="662" rx="150" ry="34" fill="#6d327d" opacity=".28"/>
  <g transform="translate(0 122)">
    <path d="M352.35 347.4 C442.54999999999995 322.8 420 222.35000000000002 346.2 263.35" stroke="#e056a7" stroke-width="28.699999999999996" fill="none" stroke-linecap="round" opacity=".76"/><ellipse cx="256" cy="353.55" rx="108.64999999999999" ry="102.49999999999999" fill="url(#body)" filter="url(#softShadow)"/><path d="M184.25 212.10000000000002 L137.10000000000002 115.75000000000003 L231.4 175.20000000000002 Z" fill="#e056a7"/><path d="M327.75 212.10000000000002 L374.9 115.75000000000003 L280.6 175.20000000000002 Z" fill="#e056a7"/><circle cx="256" cy="234.65" r="92.24999999999999" fill="url(#head)"/><ellipse cx="221.15" cy="251.05" rx="16.4" ry="20.5" fill="#182033"/><ellipse cx="290.85" cy="251.05" rx="16.4" ry="20.5" fill="#182033"/><ellipse cx="223.2" cy="253.1" rx="14.349999999999998" ry="16.4" fill="#14213d"/><ellipse cx="288.8" cy="253.1" rx="14.349999999999998" ry="16.4" fill="#14213d"/><circle cx="229.35" cy="244.9" r="4.714999999999999" fill="#fff"/><circle cx="294.95" cy="244.9" r="4.714999999999999" fill="#fff"/><circle cx="256" cy="210.05" r="14.349999999999998" fill="#ffd0ec" opacity=".9"/>
  </g>
  <path d="M74 126 C170 65 334 65 438 126" stroke="#fff" stroke-width="16" stroke-linecap="round" opacity=".16"/>
  <path d="M63 676 C162 718 344 718 449 662" stroke="#fff" stroke-width="14" stroke-linecap="round" opacity=".16"/>
</svg>