<svg xmlns="http://www.w3.org/2000/svg" viewBox="0 0 512 768" role="img" aria-label="毒液怪 original portrait">
  
  <defs>
    <linearGradient id="bgp238" x1="0" y1="0" x2="1" y2="1">
      <stop offset="0" stop-color="#efb2ff"/>
      <stop offset=".55" stop-color="#9b5de5"/>
      <stop offset="1" stop-color="#4f2378"/>
    </linearGradient>
    <radialGradient id="body" cx=".36" cy=".25" r=".76">
      <stop offset="0" stop-color="#efb2ff"/>
      <stop offset=".6" stop-color="#9b5de5"/>
      <stop offset="1" stop-color="#4f2378"/>
    </radialGradient>
    <radialGradient id="head" cx=".36" cy=".26" r=".72">
      <stop offset="0" stop-color="#ffffff" stop-opacity=".85"/>
      <stop offset=".2" stop-color="#efb2ff"/>
      <stop offset=".72" stop-color="#9b5de5"/>
      <stop offset="1" stop-color="#4f2378"/>
    </radialGradient>
    <filter id="softShadow" x="-30%" y="-30%" width="160%" height="160%">
      <feDropShadow dx="0" dy="8" stdDeviation="8" flood-color="#4f2378" flood-opacity=".35"/>
    </filter>
  </defs>
  <rect width="512" height="768" rx="48" fill="url(#bgp238)"/>
  <rect x="24" y="24" width="464" height="720" rx="40" fill="#ffffff" opacity=".08"/>
  <g opacity=".42"><circle cx="57" cy="273" r="1.0" fill="#fff" opacity="0.40"/><circle cx="284" cy="212" r="0.8" fill="#fff" opacity="0.29"/><circle cx="126" cy="408" r="1.2" fill="#fff" opacity="0.50"/><circle cx="98" cy="44" r="3.1" fill="#fff" opacity="0.38"/><circle cx="249" cy="511" r="3.2" fill="#fff" opacity="0.59"/><circle cx="17" cy="443" r="2.3" fill="#fff" opacity="0.64"/><circle cx="98" cy="453" r="2.8" fill="#fff" opacity="0.49"/><circle cx="49" cy="269" r="2.5" fill="#fff" opacity="0.49"/><circle cx="72" cy="334" r="2.3" fill="#fff" opacity="0.55"/><circle cx="167" cy="623" r="2.4" fill="#fff" opacity="0.54"/><circle cx="447" cy="380" r="3.1" fill="#fff" opacity="0.47"/><circle cx="345" cy="649" r="1.1" fill="#fff" opacity="0.56"/><circle cx="409" cy="140" r="1.4" fill="#fff" opacity="0.68"/><circle cx="351" cy="261" r="1.3" fill="#fff" opacity="0.42"/><circle cx="298" cy="714" r="1.8" fill="#fff" opacity="0.55"/><circle cx="342" cy="326" r="1.3" fill="#fff" opacity="0.36"/><circle cx="315" cy="245" r="1.8" fill="#fff" opacity="0.54"/><circle cx="499" cy="376" r="2.1" fill="#fff" opacity="0.50"/><circle cx="222" cy="169" r="2.4" fill="#fff" opacity="0.62"/><circle cx="285" cy="652" r="3.0" fill="#fff" opacity="0.31"/><circle cx="464" cy="372" r="2.3" fill="#fff" opacity="0.30"/><circle cx="495" cy="161" r="1.7" fill="#fff" opacity="0.28"/><circle cx="340" cy="224" r="2.9" fill="#fff" opacity="0.56"/><circle cx="267" cy="399" r="2.4" fill="#fff" opacity="0.29"/><circle cx="181" cy="448" r="2.7" fill="#fff" opacity="0.41"/><circle cx="238" cy="458" r="2.6" fill="#fff" opacity="0.40"/><circle cx="437" cy="684" r="0.8" fill="#fff" opacity="0.36"/><circle cx="109" cy="682" r="0.9" fill="#fff" opacity="0.60"/></g>
  <path d="M0 670 C96 613 167 665 256 620 C337 660 421 608 512 662 V768 H0Z" fill="#4f2378" opacity=".15"/>
  <ellipse cx="256" cy="662" rx="150" ry="34" fill="#4f2378" opacity=".28"/>
  <g transform="translate(0 122)">
    <path d="M159.65 347.4 C69.45000000000002 322.8 92 222.35000000000002 165.8 263.35" stroke="#9b5de5" stroke-width="28.699999999999996" fill="none" stroke-linecap="round" opacity=".76"/><ellipse cx="256" cy="353.55" rx="108.64999999999999" ry="102.49999999999999" fill="url(#body)" filter="url(#softShadow)"/><path d="M184.25 212.10000000000002 L137.10000000000002 115.75000000000003 L231.4 175.20000000000002 Z" fill="#9b5de5"/><path d="M327.75 212.10000000000002 L374.9 115.75000000000003 L280.6 175.20000000000002 Z" fill="#9b5de5"/><circle cx="256" cy="234.65" r="92.24999999999999" fill="url(#head)"/><ellipse cx="221.15" cy="251.05" rx="16.4" ry="20.5" fill="#182033"/><ellipse cx="290.85" cy="251.05" rx="16.4" ry="20.5" fill="#182033"/><ellipse cx="223.2" cy="253.1" rx="14.349999999999998" ry="16.4" fill="#14213d"/><ellipse cx="288.8" cy="253.1" rx="14.349999999999998" ry="16.4" fill="#14213d"/><circle cx="229.35" cy="244.9" r="4.714999999999999" fill="#fff"/><circle cx="294.95" cy="244.9" r="4.714999999999999" fill="#fff"/><circle cx="256" cy="210.05" r="14.349999999999998" fill="#efb2ff" opacity=".9"/>
  </g>
  <path d="M74 126 C170 65 334 65 438 126" stroke="#fff" stroke-width="16" stroke-linecap="round" opacity=".16"/>
  <path d="M63 676 C162 718 344 718 449 662" stroke="#fff" stroke-width="14" stroke-linecap="round" opacity=".16"/>
</svg>