<svg xmlns="http://www.w3.org/2000/svg" viewBox="0 0 512 768" role="img" aria-label="懒惰王 original portrait">
  
  <defs>
    <linearGradient id="bgp241" x1="0" y1="0" x2="1" y2="1">
      <stop offset="0" stop-color="#f4e8d8"/>
      <stop offset=".55" stop-color="#b78f68"/>
      <stop offset="1" stop-color="#6d4f3f"/>
    </linearGradient>
    <radialGradient id="body" cx=".36" cy=".25" r=".76">
      <stop offset="0" stop-color="#f4e8d8"/>
      <stop offset=".6" stop-color="#b78f68"/>
      <stop offset="1" stop-color="#6d4f3f"/>
    </radialGradient>
    <radialGradient id="head" cx=".36" cy=".26" r=".72">
      <stop offset="0" stop-color="#ffffff" stop-opacity=".85"/>
      <stop offset=".2" stop-color="#f4e8d8"/>
      <stop offset=".72" stop-color="#b78f68"/>
      <stop offset="1" stop-color="#6d4f3f"/>
    </radialGradient>
    <filter id="softShadow" x="-30%" y="-30%" width="160%" height="160%">
      <feDropShadow dx="0" dy="8" stdDeviation="8" flood-color="#6d4f3f" flood-opacity=".35"/>
    </filter>
  </defs>
  <rect width="512" height="768" rx="48" fill="url(#bgp241)"/>
  <rect x="24" y="24" width="464" height="720" rx="40" fill="#ffffff" opacity=".08"/>
  <g opacity=".42"><circle cx="256" cy="632" r="2.0" fill="#fff" opacity="0.44"/><circle cx="376" cy="485" r="2.7" fill="#fff" opacity="0.46"/><circle cx="504" cy="207" r="3.1" fill="#fff" opacity="0.29"/><circle cx="66" cy="214" r="1.8" fill="#fff" opacity="0.40"/><circle cx="214" cy="34" r="3.2" fill="#fff" opacity="0.54"/><circle cx="373" cy="497" r="1.7" fill="#fff" opacity="0.30"/><circle cx="459" cy="288" r="0.8" fill="#fff" opacity="0.50"/><circle cx="404" cy="203" r="1.0" fill="#fff" opacity="0.52"/><circle cx="441" cy="201" r="1.1" fill="#fff" opacity="0.69"/><circle cx="466" cy="368" r="0.9" fill="#fff" opacity="0.57"/><circle cx="116" cy="671" r="1.0" fill="#fff" opacity="0.32"/><circle cx="207" cy="399" r="0.9" fill="#fff" opacity="0.48"/><circle cx="91" cy="193" r="2.8" fill="#fff" opacity="0.27"/><circle cx="94" cy="582" r="1.2" fill="#fff" opacity="0.69"/><circle cx="146" cy="229" r="1.0" fill="#fff" opacity="0.25"/><circle cx="190" cy="658" r="1.1" fill="#fff" opacity="0.69"/><circle cx="156" cy="172" r="1.4" fill="#fff" opacity="0.41"/><circle cx="66" cy="382" r="1.9" fill="#fff" opacity="0.42"/><circle cx="49" cy="291" r="1.0" fill="#fff" opacity="0.49"/><circle cx="489" cy="204" r="1.8" fill="#fff" opacity="0.29"/><circle cx="18" cy="378" r="1.5" fill="#fff" opacity="0.42"/><circle cx="249" cy="372" r="1.6" fill="#fff" opacity="0.34"/><circle cx="140" cy="718" r="2.8" fill="#fff" opacity="0.43"/><circle cx="395" cy="644" r="1.2" fill="#fff" opacity="0.55"/><circle cx="62" cy="324" r="3.0" fill="#fff" opacity="0.55"/><circle cx="441" cy="358" r="3.2" fill="#fff" opacity="0.70"/><circle cx="118" cy="332" r="1.6" fill="#fff" opacity="0.40"/><circle cx="29" cy="86" r="2.5" fill="#fff" opacity="0.49"/></g>
  <path d="M38 684 C128 596 386 596 475 684 V768 H38Z" fill="#6d4f3f" opacity=".17"/>
  <ellipse cx="256" cy="662" rx="150" ry="34" fill="#6d4f3f" opacity=".28"/>
  <g transform="translate(0 122)">
    <ellipse cx="256" cy="359.7" rx="110.69999999999999" ry="100.44999999999999" fill="url(#body)" filter="url(#softShadow)"/><circle cx="256" cy="232.60000000000002" r="86.1" fill="url(#head)"/><path d="M149.4 322.8 C51.00000000000003 304.35 85.85000000000002 423.25 165.8 402.75" fill="#6d4f3f"/><path d="M362.6 322.8 C461 304.35 426.15 423.25 346.2 402.75" fill="#6d4f3f"/><path d="M200.65 148.55 H311.35 L331.85 195.7 Q256 224.4 180.15 195.7 Z" fill="#f4e8d8" opacity=".85"/><ellipse cx="223.2" cy="253.1" rx="14.349999999999998" ry="16.4" fill="#14213d"/><ellipse cx="288.8" cy="253.1" rx="14.349999999999998" ry="16.4" fill="#14213d"/><circle cx="229.35" cy="244.9" r="4.714999999999999" fill="#fff"/><circle cx="294.95" cy="244.9" r="4.714999999999999" fill="#fff"/><path d="M215 201.85000000000002 Q256 224.4 297 201.85000000000002" stroke="#f4e8d8" stroke-width="10.25" fill="none" stroke-linecap="round" opacity=".8"/>
  </g>
  <path d="M74 126 C170 65 334 65 438 126" stroke="#fff" stroke-width="16" stroke-linecap="round" opacity=".16"/>
  <path d="M63 676 C162 718 344 718 449 662" stroke="#fff" stroke-width="14" stroke-linecap="round" opacity=".16"/>
</svg>