<svg xmlns="http://www.w3.org/2000/svg" viewBox="0 0 512 768" role="img" aria-label="沙漠暴君 original portrait">
  
  <defs>
    <linearGradient id="bgp248" x1="0" y1="0" x2="1" y2="1">
      <stop offset="0" stop-color="#e9c68f"/>
      <stop offset=".55" stop-color="#a0713d"/>
      <stop offset="1" stop-color="#5a3b22"/>
    </linearGradient>
    <radialGradient id="body" cx=".36" cy=".25" r=".76">
      <stop offset="0" stop-color="#e9c68f"/>
      <stop offset=".6" stop-color="#a0713d"/>
      <stop offset="1" stop-color="#5a3b22"/>
    </radialGradient>
    <radialGradient id="head" cx=".36" cy=".26" r=".72">
      <stop offset="0" stop-color="#ffffff" stop-opacity=".85"/>
      <stop offset=".2" stop-color="#e9c68f"/>
      <stop offset=".72" stop-color="#a0713d"/>
      <stop offset="1" stop-color="#5a3b22"/>
    </radialGradient>
    <filter id="softShadow" x="-30%" y="-30%" width="160%" height="160%">
      <feDropShadow dx="0" dy="8" stdDeviation="8" flood-color="#5a3b22" flood-opacity=".35"/>
    </filter>
  </defs>
  <rect width="512" height="768" rx="48" fill="url(#bgp248)"/>
  <rect x="24" y="24" width="464" height="720" rx="40" fill="#ffffff" opacity=".08"/>
  <g opacity=".42"><circle cx="447" cy="575" r="2.6" fill="#fff" opacity="0.36"/><circle cx="339" cy="726" r="1.9" fill="#fff" opacity="0.61"/><circle cx="143" cy="104" r="2.4" fill="#fff" opacity="0.37"/><circle cx="254" cy="249" r="1.0" fill="#fff" opacity="0.26"/><circle cx="253" cy="275" r="1.1" fill="#fff" opacity="0.35"/><circle cx="340" cy="638" r="3.0" fill="#fff" opacity="0.68"/><circle cx="235" cy="214" r="2.8" fill="#fff" opacity="0.62"/><circle cx="341" cy="491" r="3.2" fill="#fff" opacity="0.40"/><circle cx="36" cy="740" r="3.2" fill="#fff" opacity="0.41"/><circle cx="184" cy="9" r="2.8" fill="#fff" opacity="0.45"/><circle cx="321" cy="336" r="2.8" fill="#fff" opacity="0.62"/><circle cx="483" cy="433" r="0.9" fill="#fff" opacity="0.27"/><circle cx="383" cy="527" r="2.8" fill="#fff" opacity="0.25"/><circle cx="175" cy="257" r="1.1" fill="#fff" opacity="0.55"/><circle cx="505" cy="709" r="2.7" fill="#fff" opacity="0.70"/><circle cx="370" cy="415" r="2.4" fill="#fff" opacity="0.28"/><circle cx="261" cy="64" r="1.3" fill="#fff" opacity="0.41"/><circle cx="171" cy="133" r="1.4" fill="#fff" opacity="0.52"/><circle cx="172" cy="473" r="2.4" fill="#fff" opacity="0.31"/><circle cx="247" cy="352" r="2.6" fill="#fff" opacity="0.65"/><circle cx="358" cy="525" r="1.9" fill="#fff" opacity="0.25"/><circle cx="372" cy="118" r="0.9" fill="#fff" opacity="0.58"/><circle cx="243" cy="124" r="1.1" fill="#fff" opacity="0.38"/><circle cx="227" cy="453" r="3.1" fill="#fff" opacity="0.64"/><circle cx="499" cy="11" r="2.3" fill="#fff" opacity="0.51"/><circle cx="76" cy="228" r="2.4" fill="#fff" opacity="0.66"/><circle cx="400" cy="30" r="2.3" fill="#fff" opacity="0.64"/><circle cx="0" cy="374" r="1.5" fill="#fff" opacity="0.38"/></g>
  <path d="M24 680 L110 610 L186 666 L272 592 L356 674 L445 626 L512 704 V768 H0V704Z" fill="#5a3b22" opacity=".18"/>
  <ellipse cx="256" cy="662" rx="150" ry="34" fill="#5a3b22" opacity=".28"/>
  <g transform="translate(0 122)">
    <path d="M149.4 228.5 L219.1 156.75 H311.35 L376.95 242.85 L346.2 394.55 H163.75 Z" fill="url(#body)" filter="url(#softShadow)"/><path d="M198.60000000000002 179.3 L245.75 91.15 L280.6 171.10000000000002 Z" fill="#e9c68f"/><path d="M290.85 183.4 L344.15 113.70000000000002 L342.1 210.05 Z" fill="#a0713d"/><rect x="194.5" y="277.7" width="122.99999999999999" height="30.749999999999996" rx="14.349999999999998" fill="#5a3b22" opacity=".38"/><circle cx="227.3" cy="292.05" r="10.25" fill="#e9c68f"/><circle cx="284.7" cy="292.05" r="10.25" fill="#e9c68f"/><circle cx="256" cy="210.05" r="14.349999999999998" fill="#e9c68f" opacity=".9"/>
  </g>
  <path d="M74 126 C170 65 334 65 438 126" stroke="#fff" stroke-width="16" stroke-linecap="round" opacity=".16"/>
  <path d="M63 676 C162 718 344 718 449 662" stroke="#fff" stroke-width="14" stroke-linecap="round" opacity=".16"/>
</svg>