<svg xmlns="http://www.w3.org/2000/svg" viewBox="0 0 512 768" role="img" aria-label="铠甲蟹 original portrait">
  
  <defs>
    <linearGradient id="bgp25" x1="0" y1="0" x2="1" y2="1">
      <stop offset="0" stop-color="#9ee8ff"/>
      <stop offset=".55" stop-color="#2397d5"/>
      <stop offset="1" stop-color="#0b4f8f"/>
    </linearGradient>
    <radialGradient id="body" cx=".36" cy=".25" r=".76">
      <stop offset="0" stop-color="#9ee8ff"/>
      <stop offset=".6" stop-color="#2397d5"/>
      <stop offset="1" stop-color="#0b4f8f"/>
    </radialGradient>
    <radialGradient id="head" cx=".36" cy=".26" r=".72">
      <stop offset="0" stop-color="#ffffff" stop-opacity=".85"/>
      <stop offset=".2" stop-color="#9ee8ff"/>
      <stop offset=".72" stop-color="#2397d5"/>
      <stop offset="1" stop-color="#0b4f8f"/>
    </radialGradient>
    <filter id="softShadow" x="-30%" y="-30%" width="160%" height="160%">
      <feDropShadow dx="0" dy="8" stdDeviation="8" flood-color="#0b4f8f" flood-opacity=".35"/>
    </filter>
  </defs>
  <rect width="512" height="768" rx="48" fill="url(#bgp25)"/>
  <rect x="24" y="24" width="464" height="720" rx="40" fill="#ffffff" opacity=".08"/>
  <g opacity=".42"><circle cx="142" cy="168" r="1.3" fill="#fff" opacity="0.44"/><circle cx="130" cy="141" r="1.4" fill="#fff" opacity="0.52"/><circle cx="391" cy="491" r="0.9" fill="#fff" opacity="0.52"/><circle cx="462" cy="335" r="2.5" fill="#fff" opacity="0.28"/><circle cx="281" cy="663" r="1.9" fill="#fff" opacity="0.53"/><circle cx="218" cy="160" r="2.9" fill="#fff" opacity="0.52"/><circle cx="225" cy="695" r="3.0" fill="#fff" opacity="0.69"/><circle cx="405" cy="523" r="2.7" fill="#fff" opacity="0.40"/><circle cx="120" cy="568" r="1.6" fill="#fff" opacity="0.61"/><circle cx="486" cy="192" r="3.1" fill="#fff" opacity="0.59"/><circle cx="472" cy="281" r="3.1" fill="#fff" opacity="0.34"/><circle cx="278" cy="675" r="0.9" fill="#fff" opacity="0.39"/><circle cx="364" cy="664" r="2.9" fill="#fff" opacity="0.51"/><circle cx="348" cy="704" r="2.4" fill="#fff" opacity="0.40"/><circle cx="509" cy="763" r="2.6" fill="#fff" opacity="0.50"/><circle cx="58" cy="451" r="1.1" fill="#fff" opacity="0.41"/><circle cx="207" cy="484" r="3.2" fill="#fff" opacity="0.30"/><circle cx="216" cy="38" r="0.8" fill="#fff" opacity="0.63"/><circle cx="72" cy="159" r="0.8" fill="#fff" opacity="0.27"/><circle cx="95" cy="190" r="1.2" fill="#fff" opacity="0.45"/><circle cx="282" cy="42" r="2.4" fill="#fff" opacity="0.52"/><circle cx="69" cy="644" r="1.4" fill="#fff" opacity="0.56"/><circle cx="414" cy="484" r="2.3" fill="#fff" opacity="0.62"/><circle cx="136" cy="365" r="2.2" fill="#fff" opacity="0.65"/><circle cx="164" cy="766" r="2.9" fill="#fff" opacity="0.36"/><circle cx="91" cy="102" r="3.1" fill="#fff" opacity="0.65"/><circle cx="41" cy="623" r="2.0" fill="#fff" opacity="0.62"/><circle cx="350" cy="190" r="1.8" fill="#fff" opacity="0.42"/></g>
  <path d="M0 585 C86 541 164 618 248 574 C338 526 407 595 512 548 V768 H0Z" fill="#2397d5" opacity=".2"/><path d="M0 650 C105 610 180 690 282 638 C370 594 426 650 512 618 V768 H0Z" fill="#9ee8ff" opacity=".18"/>
  <ellipse cx="256" cy="662" rx="150" ry="34" fill="#0b4f8f" opacity=".28"/>
  <g transform="translate(0 122)">
    <path d="M110.45000000000002 326.9 L40.75000000000003 240.8 L44.85000000000002 413 Z" fill="#2397d5" opacity=".86"/><ellipse cx="247.8" cy="322.8" rx="139.39999999999998" ry="88.14999999999999" fill="url(#body)" filter="url(#softShadow)"/><path d="M243.7 242.85 C288.8 136.25 358.5 173.15 342.1 263.35" fill="#2397d5" opacity=".72"/><path d="M301.1 384.3 C338 458.1 411.79999999999995 413 362.6 359.7" fill="#9ee8ff" opacity=".8"/><circle cx="329.8" cy="292.05" r="14.349999999999998" fill="#101828"/><circle cx="335.95" cy="285.9" r="4.714999999999999" fill="#fff"/><circle cx="256" cy="210.05" r="14.349999999999998" fill="#9ee8ff" opacity=".9"/>
  </g>
  <path d="M74 126 C170 65 334 65 438 126" stroke="#fff" stroke-width="16" stroke-linecap="round" opacity=".16"/>
  <path d="M63 676 C162 718 344 718 449 662" stroke="#fff" stroke-width="14" stroke-linecap="round" opacity=".16"/>
</svg>