<svg xmlns="http://www.w3.org/2000/svg" viewBox="0 0 512 768" role="img" aria-label="陨石怪 original portrait">
  
  <defs>
    <linearGradient id="bgp250" x1="0" y1="0" x2="1" y2="1">
      <stop offset="0" stop-color="#ddd0b2"/>
      <stop offset=".55" stop-color="#8d7a5f"/>
      <stop offset="1" stop-color="#514438"/>
    </linearGradient>
    <radialGradient id="body" cx=".36" cy=".25" r=".76">
      <stop offset="0" stop-color="#ddd0b2"/>
      <stop offset=".6" stop-color="#8d7a5f"/>
      <stop offset="1" stop-color="#514438"/>
    </radialGradient>
    <radialGradient id="head" cx=".36" cy=".26" r=".72">
      <stop offset="0" stop-color="#ffffff" stop-opacity=".85"/>
      <stop offset=".2" stop-color="#ddd0b2"/>
      <stop offset=".72" stop-color="#8d7a5f"/>
      <stop offset="1" stop-color="#514438"/>
    </radialGradient>
    <filter id="softShadow" x="-30%" y="-30%" width="160%" height="160%">
      <feDropShadow dx="0" dy="8" stdDeviation="8" flood-color="#514438" flood-opacity=".35"/>
    </filter>
  </defs>
  <rect width="512" height="768" rx="48" fill="url(#bgp250)"/>
  <rect x="24" y="24" width="464" height="720" rx="40" fill="#ffffff" opacity=".08"/>
  <g opacity=".42"><circle cx="304" cy="585" r="2.9" fill="#fff" opacity="0.44"/><circle cx="425" cy="529" r="1.6" fill="#fff" opacity="0.62"/><circle cx="447" cy="3" r="2.6" fill="#fff" opacity="0.61"/><circle cx="208" cy="471" r="0.9" fill="#fff" opacity="0.48"/><circle cx="400" cy="279" r="2.3" fill="#fff" opacity="0.64"/><circle cx="489" cy="413" r="2.6" fill="#fff" opacity="0.29"/><circle cx="226" cy="122" r="1.5" fill="#fff" opacity="0.61"/><circle cx="202" cy="478" r="3.2" fill="#fff" opacity="0.38"/><circle cx="496" cy="290" r="1.4" fill="#fff" opacity="0.35"/><circle cx="53" cy="130" r="2.7" fill="#fff" opacity="0.63"/><circle cx="153" cy="152" r="2.6" fill="#fff" opacity="0.51"/><circle cx="375" cy="590" r="2.8" fill="#fff" opacity="0.37"/><circle cx="268" cy="732" r="1.2" fill="#fff" opacity="0.50"/><circle cx="485" cy="107" r="1.2" fill="#fff" opacity="0.32"/><circle cx="395" cy="304" r="1.7" fill="#fff" opacity="0.61"/><circle cx="170" cy="520" r="2.9" fill="#fff" opacity="0.42"/><circle cx="207" cy="385" r="2.4" fill="#fff" opacity="0.64"/><circle cx="33" cy="467" r="2.4" fill="#fff" opacity="0.58"/><circle cx="3" cy="739" r="1.8" fill="#fff" opacity="0.42"/><circle cx="354" cy="377" r="2.7" fill="#fff" opacity="0.42"/><circle cx="80" cy="512" r="3.0" fill="#fff" opacity="0.48"/><circle cx="267" cy="118" r="2.1" fill="#fff" opacity="0.36"/><circle cx="324" cy="582" r="1.5" fill="#fff" opacity="0.42"/><circle cx="264" cy="317" r="2.3" fill="#fff" opacity="0.40"/><circle cx="107" cy="30" r="1.1" fill="#fff" opacity="0.51"/><circle cx="48" cy="275" r="2.3" fill="#fff" opacity="0.69"/><circle cx="275" cy="700" r="1.4" fill="#fff" opacity="0.63"/><circle cx="302" cy="418" r="2.5" fill="#fff" opacity="0.45"/></g>
  <path d="M24 680 L110 610 L186 666 L272 592 L356 674 L445 626 L512 704 V768 H0V704Z" fill="#514438" opacity=".18"/>
  <ellipse cx="256" cy="662" rx="150" ry="34" fill="#514438" opacity=".28"/>
  <g transform="translate(0 122)">
    <path d="M149.4 228.5 L219.1 156.75 H311.35 L376.95 242.85 L346.2 394.55 H163.75 Z" fill="url(#body)" filter="url(#softShadow)"/><path d="M198.60000000000002 179.3 L245.75 91.15 L280.6 171.10000000000002 Z" fill="#ddd0b2"/><path d="M290.85 183.4 L344.15 113.70000000000002 L342.1 210.05 Z" fill="#8d7a5f"/><rect x="194.5" y="277.7" width="122.99999999999999" height="30.749999999999996" rx="14.349999999999998" fill="#514438" opacity=".38"/><circle cx="227.3" cy="292.05" r="10.25" fill="#ddd0b2"/><circle cx="284.7" cy="292.05" r="10.25" fill="#ddd0b2"/><path d="M256 183.4 L278.55 212.10000000000002 L256 242.85 L233.45 212.10000000000002 Z" fill="#ddd0b2" opacity=".92"/>
  </g>
  <path d="M74 126 C170 65 334 65 438 126" stroke="#fff" stroke-width="16" stroke-linecap="round" opacity=".16"/>
  <path d="M63 676 C162 718 344 718 449 662" stroke="#fff" stroke-width="14" stroke-linecap="round" opacity=".16"/>
</svg>