<svg xmlns="http://www.w3.org/2000/svg" viewBox="0 0 512 768" role="img" aria-label="大力神 original portrait">
  
  <defs>
    <linearGradient id="bgp251" x1="0" y1="0" x2="1" y2="1">
      <stop offset="0" stop-color="#ffc0a6"/>
      <stop offset=".55" stop-color="#d95f3d"/>
      <stop offset="1" stop-color="#7a271d"/>
    </linearGradient>
    <radialGradient id="body" cx=".36" cy=".25" r=".76">
      <stop offset="0" stop-color="#ffc0a6"/>
      <stop offset=".6" stop-color="#d95f3d"/>
      <stop offset="1" stop-color="#7a271d"/>
    </radialGradient>
    <radialGradient id="head" cx=".36" cy=".26" r=".72">
      <stop offset="0" stop-color="#ffffff" stop-opacity=".85"/>
      <stop offset=".2" stop-color="#ffc0a6"/>
      <stop offset=".72" stop-color="#d95f3d"/>
      <stop offset="1" stop-color="#7a271d"/>
    </radialGradient>
    <filter id="softShadow" x="-30%" y="-30%" width="160%" height="160%">
      <feDropShadow dx="0" dy="8" stdDeviation="8" flood-color="#7a271d" flood-opacity=".35"/>
    </filter>
  </defs>
  <rect width="512" height="768" rx="48" fill="url(#bgp251)"/>
  <rect x="24" y="24" width="464" height="720" rx="40" fill="#ffffff" opacity=".08"/>
  <g opacity=".42"><circle cx="372" cy="330" r="2.2" fill="#fff" opacity="0.53"/><circle cx="15" cy="717" r="3.0" fill="#fff" opacity="0.44"/><circle cx="463" cy="576" r="1.9" fill="#fff" opacity="0.43"/><circle cx="508" cy="308" r="2.9" fill="#fff" opacity="0.63"/><circle cx="203" cy="543" r="2.5" fill="#fff" opacity="0.61"/><circle cx="24" cy="177" r="1.9" fill="#fff" opacity="0.41"/><circle cx="335" cy="181" r="2.7" fill="#fff" opacity="0.44"/><circle cx="173" cy="448" r="2.5" fill="#fff" opacity="0.35"/><circle cx="459" cy="306" r="1.4" fill="#fff" opacity="0.43"/><circle cx="381" cy="681" r="2.8" fill="#fff" opacity="0.37"/><circle cx="282" cy="627" r="2.0" fill="#fff" opacity="0.25"/><circle cx="176" cy="343" r="2.5" fill="#fff" opacity="0.32"/><circle cx="484" cy="304" r="1.9" fill="#fff" opacity="0.38"/><circle cx="284" cy="46" r="1.9" fill="#fff" opacity="0.66"/><circle cx="316" cy="597" r="1.7" fill="#fff" opacity="0.30"/><circle cx="409" cy="676" r="1.7" fill="#fff" opacity="0.35"/><circle cx="121" cy="690" r="2.9" fill="#fff" opacity="0.67"/><circle cx="455" cy="573" r="0.9" fill="#fff" opacity="0.48"/><circle cx="463" cy="659" r="2.8" fill="#fff" opacity="0.51"/><circle cx="134" cy="131" r="1.0" fill="#fff" opacity="0.70"/><circle cx="118" cy="478" r="2.3" fill="#fff" opacity="0.68"/><circle cx="157" cy="281" r="2.4" fill="#fff" opacity="0.46"/><circle cx="275" cy="726" r="2.3" fill="#fff" opacity="0.30"/><circle cx="127" cy="513" r="1.9" fill="#fff" opacity="0.62"/><circle cx="300" cy="164" r="0.9" fill="#fff" opacity="0.26"/><circle cx="20" cy="225" r="2.0" fill="#fff" opacity="0.62"/><circle cx="110" cy="81" r="1.0" fill="#fff" opacity="0.48"/><circle cx="87" cy="306" r="2.4" fill="#fff" opacity="0.67"/></g>
  <circle cx="256" cy="294" r="188" fill="#ffc0a6" opacity=".12"/><circle cx="256" cy="294" r="146" fill="#fff" opacity=".1"/>
  <ellipse cx="256" cy="662" rx="150" ry="34" fill="#7a271d" opacity=".28"/>
  <g transform="translate(0 122)">
    <ellipse cx="256" cy="339.2" rx="100.44999999999999" ry="112.74999999999999" fill="url(#body)" filter="url(#softShadow)"/><circle cx="256" cy="226.45" r="79.94999999999999" fill="url(#head)"/><ellipse cx="256" cy="214.15" rx="139.39999999999998" ry="36.9" fill="none" stroke="#ffc0a6" stroke-width="14.349999999999998" opacity=".75" transform="rotate(-12 256 214.15)"/><path d="M256 103.45000000000002 L276.5 154.70000000000002 L333.9 156.75 L286.75 187.5 L303.15 242.85 L256 208 L208.85 242.85 L225.25 187.5 L178.10000000000002 156.75 L235.5 154.70000000000002 Z" fill="#d95f3d"/><ellipse cx="223.2" cy="253.1" rx="14.349999999999998" ry="16.4" fill="#14213d"/><ellipse cx="288.8" cy="253.1" rx="14.349999999999998" ry="16.4" fill="#14213d"/><circle cx="229.35" cy="244.9" r="4.714999999999999" fill="#fff"/><circle cx="294.95" cy="244.9" r="4.714999999999999" fill="#fff"/><path d="M215 201.85000000000002 Q256 224.4 297 201.85000000000002" stroke="#ffc0a6" stroke-width="10.25" fill="none" stroke-linecap="round" opacity=".8"/>
  </g>
  <path d="M74 126 C170 65 334 65 438 126" stroke="#fff" stroke-width="16" stroke-linecap="round" opacity=".16"/>
  <path d="M63 676 C162 718 344 718 449 662" stroke="#fff" stroke-width="14" stroke-linecap="round" opacity=".16"/>
</svg>