<svg xmlns="http://www.w3.org/2000/svg" viewBox="0 0 512 768" role="img" aria-label="起源之光 original portrait">
  
  <defs>
    <linearGradient id="bgp254" x1="0" y1="0" x2="1" y2="1">
      <stop offset="0" stop-color="#fff0a6"/>
      <stop offset=".55" stop-color="#d9a441"/>
      <stop offset="1" stop-color="#754d12"/>
    </linearGradient>
    <radialGradient id="body" cx=".36" cy=".25" r=".76">
      <stop offset="0" stop-color="#fff0a6"/>
      <stop offset=".6" stop-color="#d9a441"/>
      <stop offset="1" stop-color="#754d12"/>
    </radialGradient>
    <radialGradient id="head" cx=".36" cy=".26" r=".72">
      <stop offset="0" stop-color="#ffffff" stop-opacity=".85"/>
      <stop offset=".2" stop-color="#fff0a6"/>
      <stop offset=".72" stop-color="#d9a441"/>
      <stop offset="1" stop-color="#754d12"/>
    </radialGradient>
    <filter id="softShadow" x="-30%" y="-30%" width="160%" height="160%">
      <feDropShadow dx="0" dy="8" stdDeviation="8" flood-color="#754d12" flood-opacity=".35"/>
    </filter>
  </defs>
  <rect width="512" height="768" rx="48" fill="url(#bgp254)"/>
  <rect x="24" y="24" width="464" height="720" rx="40" fill="#ffffff" opacity=".08"/>
  <g opacity=".42"><circle cx="374" cy="541" r="3.1" fill="#fff" opacity="0.52"/><circle cx="340" cy="51" r="1.5" fill="#fff" opacity="0.51"/><circle cx="507" cy="139" r="1.9" fill="#fff" opacity="0.54"/><circle cx="92" cy="202" r="3.0" fill="#fff" opacity="0.54"/><circle cx="411" cy="745" r="1.7" fill="#fff" opacity="0.69"/><circle cx="98" cy="224" r="2.8" fill="#fff" opacity="0.40"/><circle cx="169" cy="418" r="1.4" fill="#fff" opacity="0.69"/><circle cx="92" cy="579" r="1.0" fill="#fff" opacity="0.67"/><circle cx="454" cy="502" r="2.0" fill="#fff" opacity="0.58"/><circle cx="88" cy="291" r="3.2" fill="#fff" opacity="0.31"/><circle cx="116" cy="300" r="1.0" fill="#fff" opacity="0.63"/><circle cx="348" cy="446" r="2.2" fill="#fff" opacity="0.47"/><circle cx="497" cy="635" r="1.9" fill="#fff" opacity="0.51"/><circle cx="492" cy="283" r="1.8" fill="#fff" opacity="0.35"/><circle cx="313" cy="290" r="2.0" fill="#fff" opacity="0.46"/><circle cx="16" cy="253" r="1.4" fill="#fff" opacity="0.68"/><circle cx="334" cy="328" r="2.1" fill="#fff" opacity="0.33"/><circle cx="96" cy="690" r="2.3" fill="#fff" opacity="0.41"/><circle cx="446" cy="301" r="2.1" fill="#fff" opacity="0.27"/><circle cx="50" cy="534" r="2.7" fill="#fff" opacity="0.52"/><circle cx="98" cy="623" r="2.1" fill="#fff" opacity="0.68"/><circle cx="159" cy="160" r="2.7" fill="#fff" opacity="0.56"/><circle cx="82" cy="230" r="1.7" fill="#fff" opacity="0.39"/><circle cx="61" cy="94" r="1.0" fill="#fff" opacity="0.36"/><circle cx="477" cy="531" r="2.4" fill="#fff" opacity="0.47"/><circle cx="325" cy="283" r="1.5" fill="#fff" opacity="0.63"/><circle cx="507" cy="187" r="1.7" fill="#fff" opacity="0.26"/><circle cx="465" cy="420" r="1.4" fill="#fff" opacity="0.37"/></g>
  <circle cx="256" cy="294" r="210" fill="#fff0a6" opacity=".12"/><circle cx="256" cy="294" r="168" fill="#fff" opacity=".1"/>
  <ellipse cx="256" cy="662" rx="150" ry="34" fill="#754d12" opacity=".28"/>
  <g transform="translate(0 122)">
    <ellipse cx="256" cy="339.2" rx="100.44999999999999" ry="112.74999999999999" fill="url(#body)" filter="url(#softShadow)"/><circle cx="256" cy="226.45" r="79.94999999999999" fill="url(#head)"/><ellipse cx="256" cy="214.15" rx="139.39999999999998" ry="36.9" fill="none" stroke="#fff0a6" stroke-width="14.349999999999998" opacity=".75" transform="rotate(-12 256 214.15)"/><path d="M256 103.45000000000002 L276.5 154.70000000000002 L333.9 156.75 L286.75 187.5 L303.15 242.85 L256 208 L208.85 242.85 L225.25 187.5 L178.10000000000002 156.75 L235.5 154.70000000000002 Z" fill="#d9a441"/><ellipse cx="223.2" cy="253.1" rx="14.349999999999998" ry="16.4" fill="#14213d"/><ellipse cx="288.8" cy="253.1" rx="14.349999999999998" ry="16.4" fill="#14213d"/><circle cx="229.35" cy="244.9" r="4.714999999999999" fill="#fff"/><circle cx="294.95" cy="244.9" r="4.714999999999999" fill="#fff"/><path d="M215 201.85000000000002 Q256 224.4 297 201.85000000000002" stroke="#fff0a6" stroke-width="10.25" fill="none" stroke-linecap="round" opacity=".8"/>
  </g>
  <path d="M74 126 C170 65 334 65 438 126" stroke="#fff" stroke-width="16" stroke-linecap="round" opacity=".16"/>
  <path d="M63 676 C162 718 344 718 449 662" stroke="#fff" stroke-width="14" stroke-linecap="round" opacity=".16"/>
</svg>