<svg xmlns="http://www.w3.org/2000/svg" viewBox="0 0 512 768" role="img" aria-label="日轮神 original portrait">
  
  <defs>
    <linearGradient id="bgp256" x1="0" y1="0" x2="1" y2="1">
      <stop offset="0" stop-color="#ffd166"/>
      <stop offset=".55" stop-color="#ff6b35"/>
      <stop offset="1" stop-color="#a92d1d"/>
    </linearGradient>
    <radialGradient id="body" cx=".36" cy=".25" r=".76">
      <stop offset="0" stop-color="#ffd166"/>
      <stop offset=".6" stop-color="#ff6b35"/>
      <stop offset="1" stop-color="#a92d1d"/>
    </radialGradient>
    <radialGradient id="head" cx=".36" cy=".26" r=".72">
      <stop offset="0" stop-color="#ffffff" stop-opacity=".85"/>
      <stop offset=".2" stop-color="#ffd166"/>
      <stop offset=".72" stop-color="#ff6b35"/>
      <stop offset="1" stop-color="#a92d1d"/>
    </radialGradient>
    <filter id="softShadow" x="-30%" y="-30%" width="160%" height="160%">
      <feDropShadow dx="0" dy="8" stdDeviation="8" flood-color="#a92d1d" flood-opacity=".35"/>
    </filter>
  </defs>
  <rect width="512" height="768" rx="48" fill="url(#bgp256)"/>
  <rect x="24" y="24" width="464" height="720" rx="40" fill="#ffffff" opacity=".08"/>
  <g opacity=".42"><circle cx="130" cy="87" r="2.3" fill="#fff" opacity="0.34"/><circle cx="254" cy="382" r="2.0" fill="#fff" opacity="0.60"/><circle cx="441" cy="35" r="1.2" fill="#fff" opacity="0.46"/><circle cx="13" cy="326" r="1.9" fill="#fff" opacity="0.33"/><circle cx="99" cy="717" r="1.3" fill="#fff" opacity="0.52"/><circle cx="299" cy="140" r="1.8" fill="#fff" opacity="0.54"/><circle cx="185" cy="369" r="0.8" fill="#fff" opacity="0.58"/><circle cx="136" cy="116" r="1.6" fill="#fff" opacity="0.64"/><circle cx="455" cy="334" r="2.1" fill="#fff" opacity="0.30"/><circle cx="217" cy="456" r="1.0" fill="#fff" opacity="0.29"/><circle cx="392" cy="20" r="1.6" fill="#fff" opacity="0.31"/><circle cx="6" cy="471" r="1.0" fill="#fff" opacity="0.60"/><circle cx="220" cy="752" r="2.1" fill="#fff" opacity="0.60"/><circle cx="425" cy="742" r="1.2" fill="#fff" opacity="0.61"/><circle cx="457" cy="55" r="1.5" fill="#fff" opacity="0.54"/><circle cx="318" cy="298" r="3.1" fill="#fff" opacity="0.62"/><circle cx="332" cy="326" r="3.1" fill="#fff" opacity="0.64"/><circle cx="219" cy="263" r="2.4" fill="#fff" opacity="0.63"/><circle cx="494" cy="347" r="1.7" fill="#fff" opacity="0.31"/><circle cx="272" cy="92" r="2.4" fill="#fff" opacity="0.29"/><circle cx="207" cy="718" r="2.7" fill="#fff" opacity="0.64"/><circle cx="498" cy="489" r="2.0" fill="#fff" opacity="0.47"/><circle cx="403" cy="44" r="2.3" fill="#fff" opacity="0.55"/><circle cx="106" cy="545" r="1.8" fill="#fff" opacity="0.42"/><circle cx="13" cy="636" r="1.7" fill="#fff" opacity="0.45"/><circle cx="122" cy="84" r="2.9" fill="#fff" opacity="0.58"/><circle cx="44" cy="442" r="1.7" fill="#fff" opacity="0.50"/><circle cx="499" cy="639" r="2.5" fill="#fff" opacity="0.52"/></g>
  <circle cx="256" cy="294" r="181" fill="#ffd166" opacity=".12"/><circle cx="256" cy="294" r="139" fill="#fff" opacity=".1"/>
  <ellipse cx="256" cy="662" rx="150" ry="34" fill="#a92d1d" opacity=".28"/>
  <g transform="translate(0 122)">
    <ellipse cx="256" cy="339.2" rx="100.44999999999999" ry="112.74999999999999" fill="url(#body)" filter="url(#softShadow)"/><circle cx="256" cy="226.45" r="79.94999999999999" fill="url(#head)"/><ellipse cx="256" cy="214.15" rx="139.39999999999998" ry="36.9" fill="none" stroke="#ffd166" stroke-width="14.349999999999998" opacity=".75" transform="rotate(-12 256 214.15)"/><path d="M256 103.45000000000002 L276.5 154.70000000000002 L333.9 156.75 L286.75 187.5 L303.15 242.85 L256 208 L208.85 242.85 L225.25 187.5 L178.10000000000002 156.75 L235.5 154.70000000000002 Z" fill="#ff6b35"/><ellipse cx="223.2" cy="253.1" rx="14.349999999999998" ry="16.4" fill="#14213d"/><ellipse cx="288.8" cy="253.1" rx="14.349999999999998" ry="16.4" fill="#14213d"/><circle cx="229.35" cy="244.9" r="4.714999999999999" fill="#fff"/><circle cx="294.95" cy="244.9" r="4.714999999999999" fill="#fff"/><circle cx="256" cy="210.05" r="14.349999999999998" fill="#ffd166" opacity=".9"/>
  </g>
  <path d="M74 126 C170 65 334 65 438 126" stroke="#fff" stroke-width="16" stroke-linecap="round" opacity=".16"/>
  <path d="M63 676 C162 718 344 718 449 662" stroke="#fff" stroke-width="14" stroke-linecap="round" opacity=".16"/>
</svg>