<svg xmlns="http://www.w3.org/2000/svg" viewBox="0 0 512 768" role="img" aria-label="天空主宰 original portrait">
  
  <defs>
    <linearGradient id="bgp261" x1="0" y1="0" x2="1" y2="1">
      <stop offset="0" stop-color="#d9edff"/>
      <stop offset=".55" stop-color="#82b7ff"/>
      <stop offset="1" stop-color="#4260ad"/>
    </linearGradient>
    <radialGradient id="body" cx=".36" cy=".25" r=".76">
      <stop offset="0" stop-color="#d9edff"/>
      <stop offset=".6" stop-color="#82b7ff"/>
      <stop offset="1" stop-color="#4260ad"/>
    </radialGradient>
    <radialGradient id="head" cx=".36" cy=".26" r=".72">
      <stop offset="0" stop-color="#ffffff" stop-opacity=".85"/>
      <stop offset=".2" stop-color="#d9edff"/>
      <stop offset=".72" stop-color="#82b7ff"/>
      <stop offset="1" stop-color="#4260ad"/>
    </radialGradient>
    <filter id="softShadow" x="-30%" y="-30%" width="160%" height="160%">
      <feDropShadow dx="0" dy="8" stdDeviation="8" flood-color="#4260ad" flood-opacity=".35"/>
    </filter>
  </defs>
  <rect width="512" height="768" rx="48" fill="url(#bgp261)"/>
  <rect x="24" y="24" width="464" height="720" rx="40" fill="#ffffff" opacity=".08"/>
  <g opacity=".42"><circle cx="323" cy="236" r="3.0" fill="#fff" opacity="0.38"/><circle cx="292" cy="709" r="1.4" fill="#fff" opacity="0.45"/><circle cx="419" cy="37" r="3.2" fill="#fff" opacity="0.44"/><circle cx="406" cy="757" r="0.8" fill="#fff" opacity="0.45"/><circle cx="210" cy="78" r="2.8" fill="#fff" opacity="0.42"/><circle cx="114" cy="357" r="3.2" fill="#fff" opacity="0.44"/><circle cx="59" cy="4" r="2.5" fill="#fff" opacity="0.48"/><circle cx="363" cy="4" r="2.6" fill="#fff" opacity="0.61"/><circle cx="130" cy="603" r="2.1" fill="#fff" opacity="0.60"/><circle cx="25" cy="24" r="2.8" fill="#fff" opacity="0.67"/><circle cx="482" cy="751" r="1.4" fill="#fff" opacity="0.30"/><circle cx="161" cy="435" r="1.7" fill="#fff" opacity="0.44"/><circle cx="324" cy="658" r="1.1" fill="#fff" opacity="0.46"/><circle cx="362" cy="582" r="1.3" fill="#fff" opacity="0.51"/><circle cx="175" cy="336" r="3.0" fill="#fff" opacity="0.33"/><circle cx="412" cy="485" r="1.1" fill="#fff" opacity="0.43"/><circle cx="84" cy="580" r="1.8" fill="#fff" opacity="0.58"/><circle cx="47" cy="117" r="0.8" fill="#fff" opacity="0.44"/><circle cx="294" cy="610" r="2.1" fill="#fff" opacity="0.67"/><circle cx="89" cy="532" r="2.7" fill="#fff" opacity="0.53"/><circle cx="73" cy="290" r="3.0" fill="#fff" opacity="0.46"/><circle cx="153" cy="130" r="1.5" fill="#fff" opacity="0.46"/><circle cx="456" cy="284" r="2.4" fill="#fff" opacity="0.55"/><circle cx="400" cy="4" r="1.9" fill="#fff" opacity="0.32"/><circle cx="247" cy="697" r="2.0" fill="#fff" opacity="0.59"/><circle cx="442" cy="228" r="1.3" fill="#fff" opacity="0.32"/><circle cx="430" cy="646" r="1.0" fill="#fff" opacity="0.32"/><circle cx="9" cy="561" r="1.9" fill="#fff" opacity="0.47"/></g>
  <circle cx="256" cy="294" r="213" fill="#d9edff" opacity=".12"/><circle cx="256" cy="294" r="171" fill="#fff" opacity=".1"/>
  <ellipse cx="256" cy="662" rx="150" ry="34" fill="#4260ad" opacity=".28"/>
  <g transform="translate(0 122)">
    <ellipse cx="256" cy="339.2" rx="100.44999999999999" ry="112.74999999999999" fill="url(#body)" filter="url(#softShadow)"/><circle cx="256" cy="226.45" r="79.94999999999999" fill="url(#head)"/><ellipse cx="256" cy="214.15" rx="139.39999999999998" ry="36.9" fill="none" stroke="#d9edff" stroke-width="14.349999999999998" opacity=".75" transform="rotate(-12 256 214.15)"/><path d="M256 103.45000000000002 L276.5 154.70000000000002 L333.9 156.75 L286.75 187.5 L303.15 242.85 L256 208 L208.85 242.85 L225.25 187.5 L178.10000000000002 156.75 L235.5 154.70000000000002 Z" fill="#82b7ff"/><ellipse cx="223.2" cy="253.1" rx="14.349999999999998" ry="16.4" fill="#14213d"/><ellipse cx="288.8" cy="253.1" rx="14.349999999999998" ry="16.4" fill="#14213d"/><circle cx="229.35" cy="244.9" r="4.714999999999999" fill="#fff"/><circle cx="294.95" cy="244.9" r="4.714999999999999" fill="#fff"/><path d="M215 201.85000000000002 Q256 224.4 297 201.85000000000002" stroke="#d9edff" stroke-width="10.25" fill="none" stroke-linecap="round" opacity=".8"/>
  </g>
  <path d="M74 126 C170 65 334 65 438 126" stroke="#fff" stroke-width="16" stroke-linecap="round" opacity=".16"/>
  <path d="M63 676 C162 718 344 718 449 662" stroke="#fff" stroke-width="14" stroke-linecap="round" opacity=".16"/>
</svg>