<svg xmlns="http://www.w3.org/2000/svg" viewBox="0 0 512 768" role="img" aria-label="雷霆宙斯 original portrait">
  
  <defs>
    <linearGradient id="bgp262" x1="0" y1="0" x2="1" y2="1">
      <stop offset="0" stop-color="#fff27a"/>
      <stop offset=".55" stop-color="#f9c80e"/>
      <stop offset="1" stop-color="#7a5200"/>
    </linearGradient>
    <radialGradient id="body" cx=".36" cy=".25" r=".76">
      <stop offset="0" stop-color="#fff27a"/>
      <stop offset=".6" stop-color="#f9c80e"/>
      <stop offset="1" stop-color="#7a5200"/>
    </radialGradient>
    <radialGradient id="head" cx=".36" cy=".26" r=".72">
      <stop offset="0" stop-color="#ffffff" stop-opacity=".85"/>
      <stop offset=".2" stop-color="#fff27a"/>
      <stop offset=".72" stop-color="#f9c80e"/>
      <stop offset="1" stop-color="#7a5200"/>
    </radialGradient>
    <filter id="softShadow" x="-30%" y="-30%" width="160%" height="160%">
      <feDropShadow dx="0" dy="8" stdDeviation="8" flood-color="#7a5200" flood-opacity=".35"/>
    </filter>
  </defs>
  <rect width="512" height="768" rx="48" fill="url(#bgp262)"/>
  <rect x="24" y="24" width="464" height="720" rx="40" fill="#ffffff" opacity=".08"/>
  <g opacity=".42"><circle cx="92" cy="359" r="2.2" fill="#fff" opacity="0.55"/><circle cx="331" cy="712" r="1.6" fill="#fff" opacity="0.64"/><circle cx="97" cy="248" r="2.2" fill="#fff" opacity="0.62"/><circle cx="171" cy="116" r="1.4" fill="#fff" opacity="0.53"/><circle cx="277" cy="382" r="2.2" fill="#fff" opacity="0.50"/><circle cx="502" cy="232" r="2.3" fill="#fff" opacity="0.61"/><circle cx="416" cy="196" r="2.8" fill="#fff" opacity="0.54"/><circle cx="160" cy="745" r="2.6" fill="#fff" opacity="0.25"/><circle cx="509" cy="751" r="2.7" fill="#fff" opacity="0.50"/><circle cx="170" cy="630" r="2.3" fill="#fff" opacity="0.49"/><circle cx="348" cy="501" r="1.7" fill="#fff" opacity="0.41"/><circle cx="69" cy="215" r="2.6" fill="#fff" opacity="0.48"/><circle cx="366" cy="271" r="1.4" fill="#fff" opacity="0.40"/><circle cx="493" cy="655" r="3.1" fill="#fff" opacity="0.26"/><circle cx="473" cy="208" r="1.7" fill="#fff" opacity="0.29"/><circle cx="122" cy="467" r="1.0" fill="#fff" opacity="0.33"/><circle cx="405" cy="213" r="2.1" fill="#fff" opacity="0.68"/><circle cx="199" cy="485" r="0.8" fill="#fff" opacity="0.41"/><circle cx="209" cy="642" r="1.2" fill="#fff" opacity="0.65"/><circle cx="65" cy="741" r="2.4" fill="#fff" opacity="0.39"/><circle cx="404" cy="264" r="1.8" fill="#fff" opacity="0.52"/><circle cx="309" cy="718" r="3.0" fill="#fff" opacity="0.36"/><circle cx="54" cy="471" r="1.5" fill="#fff" opacity="0.28"/><circle cx="367" cy="449" r="1.2" fill="#fff" opacity="0.70"/><circle cx="355" cy="507" r="1.2" fill="#fff" opacity="0.53"/><circle cx="182" cy="512" r="0.8" fill="#fff" opacity="0.45"/><circle cx="258" cy="723" r="2.7" fill="#fff" opacity="0.46"/><circle cx="261" cy="318" r="2.7" fill="#fff" opacity="0.51"/></g>
  <circle cx="256" cy="294" r="216" fill="#fff27a" opacity=".12"/><circle cx="256" cy="294" r="174" fill="#fff" opacity=".1"/>
  <ellipse cx="256" cy="662" rx="150" ry="34" fill="#7a5200" opacity=".28"/>
  <g transform="translate(0 122)">
    <ellipse cx="256" cy="339.2" rx="100.44999999999999" ry="112.74999999999999" fill="url(#body)" filter="url(#softShadow)"/><circle cx="256" cy="226.45" r="79.94999999999999" fill="url(#head)"/><ellipse cx="256" cy="214.15" rx="139.39999999999998" ry="36.9" fill="none" stroke="#fff27a" stroke-width="14.349999999999998" opacity=".75" transform="rotate(-12 256 214.15)"/><path d="M256 103.45000000000002 L276.5 154.70000000000002 L333.9 156.75 L286.75 187.5 L303.15 242.85 L256 208 L208.85 242.85 L225.25 187.5 L178.10000000000002 156.75 L235.5 154.70000000000002 Z" fill="#f9c80e"/><ellipse cx="223.2" cy="253.1" rx="14.349999999999998" ry="16.4" fill="#14213d"/><ellipse cx="288.8" cy="253.1" rx="14.349999999999998" ry="16.4" fill="#14213d"/><circle cx="229.35" cy="244.9" r="4.714999999999999" fill="#fff"/><circle cx="294.95" cy="244.9" r="4.714999999999999" fill="#fff"/><path d="M256 183.4 L278.55 212.10000000000002 L256 242.85 L233.45 212.10000000000002 Z" fill="#fff27a" opacity=".92"/>
  </g>
  <path d="M74 126 C170 65 334 65 438 126" stroke="#fff" stroke-width="16" stroke-linecap="round" opacity=".16"/>
  <path d="M63 676 C162 718 344 718 449 662" stroke="#fff" stroke-width="14" stroke-linecap="round" opacity=".16"/>
</svg>