<svg xmlns="http://www.w3.org/2000/svg" viewBox="0 0 512 768" role="img" aria-label="极寒冰帝 original portrait">
  
  <defs>
    <linearGradient id="bgp263" x1="0" y1="0" x2="1" y2="1">
      <stop offset="0" stop-color="#d7fbff"/>
      <stop offset=".55" stop-color="#71d6e8"/>
      <stop offset="1" stop-color="#318aa3"/>
    </linearGradient>
    <radialGradient id="body" cx=".36" cy=".25" r=".76">
      <stop offset="0" stop-color="#d7fbff"/>
      <stop offset=".6" stop-color="#71d6e8"/>
      <stop offset="1" stop-color="#318aa3"/>
    </radialGradient>
    <radialGradient id="head" cx=".36" cy=".26" r=".72">
      <stop offset="0" stop-color="#ffffff" stop-opacity=".85"/>
      <stop offset=".2" stop-color="#d7fbff"/>
      <stop offset=".72" stop-color="#71d6e8"/>
      <stop offset="1" stop-color="#318aa3"/>
    </radialGradient>
    <filter id="softShadow" x="-30%" y="-30%" width="160%" height="160%">
      <feDropShadow dx="0" dy="8" stdDeviation="8" flood-color="#318aa3" flood-opacity=".35"/>
    </filter>
  </defs>
  <rect width="512" height="768" rx="48" fill="url(#bgp263)"/>
  <rect x="24" y="24" width="464" height="720" rx="40" fill="#ffffff" opacity=".08"/>
  <g opacity=".42"><circle cx="219" cy="392" r="2.4" fill="#fff" opacity="0.53"/><circle cx="378" cy="394" r="1.0" fill="#fff" opacity="0.62"/><circle cx="436" cy="147" r="1.2" fill="#fff" opacity="0.42"/><circle cx="264" cy="362" r="3.0" fill="#fff" opacity="0.48"/><circle cx="281" cy="753" r="2.3" fill="#fff" opacity="0.30"/><circle cx="504" cy="141" r="3.1" fill="#fff" opacity="0.66"/><circle cx="330" cy="658" r="0.8" fill="#fff" opacity="0.64"/><circle cx="213" cy="426" r="2.5" fill="#fff" opacity="0.58"/><circle cx="170" cy="266" r="2.7" fill="#fff" opacity="0.58"/><circle cx="337" cy="241" r="2.6" fill="#fff" opacity="0.39"/><circle cx="368" cy="77" r="1.4" fill="#fff" opacity="0.30"/><circle cx="449" cy="722" r="2.4" fill="#fff" opacity="0.61"/><circle cx="462" cy="318" r="2.1" fill="#fff" opacity="0.25"/><circle cx="124" cy="44" r="2.4" fill="#fff" opacity="0.70"/><circle cx="299" cy="270" r="1.8" fill="#fff" opacity="0.41"/><circle cx="96" cy="692" r="0.8" fill="#fff" opacity="0.58"/><circle cx="496" cy="237" r="3.0" fill="#fff" opacity="0.29"/><circle cx="166" cy="656" r="1.6" fill="#fff" opacity="0.34"/><circle cx="494" cy="145" r="2.6" fill="#fff" opacity="0.68"/><circle cx="195" cy="121" r="2.7" fill="#fff" opacity="0.57"/><circle cx="229" cy="196" r="2.5" fill="#fff" opacity="0.41"/><circle cx="491" cy="411" r="2.7" fill="#fff" opacity="0.46"/><circle cx="124" cy="578" r="2.8" fill="#fff" opacity="0.49"/><circle cx="463" cy="347" r="2.9" fill="#fff" opacity="0.63"/><circle cx="488" cy="1" r="1.2" fill="#fff" opacity="0.48"/><circle cx="98" cy="720" r="2.1" fill="#fff" opacity="0.42"/><circle cx="184" cy="505" r="2.3" fill="#fff" opacity="0.59"/><circle cx="498" cy="196" r="3.2" fill="#fff" opacity="0.58"/></g>
  <path d="M0 585 C86 541 164 618 248 574 C338 526 407 595 512 548 V768 H0Z" fill="#71d6e8" opacity=".2"/><path d="M0 650 C105 610 180 690 282 638 C370 594 426 650 512 618 V768 H0Z" fill="#d7fbff" opacity=".18"/>
  <ellipse cx="256" cy="662" rx="150" ry="34" fill="#318aa3" opacity=".28"/>
  <g transform="translate(0 122)">
    <path d="M110.45000000000002 326.9 L40.75000000000003 240.8 L44.85000000000002 413 Z" fill="#71d6e8" opacity=".86"/><ellipse cx="247.8" cy="322.8" rx="139.39999999999998" ry="88.14999999999999" fill="url(#body)" filter="url(#softShadow)"/><path d="M243.7 242.85 C288.8 136.25 358.5 173.15 342.1 263.35" fill="#71d6e8" opacity=".72"/><path d="M301.1 384.3 C338 458.1 411.79999999999995 413 362.6 359.7" fill="#d7fbff" opacity=".8"/><circle cx="329.8" cy="292.05" r="14.349999999999998" fill="#101828"/><circle cx="335.95" cy="285.9" r="4.714999999999999" fill="#fff"/><path d="M256 183.4 L278.55 212.10000000000002 L256 242.85 L233.45 212.10000000000002 Z" fill="#d7fbff" opacity=".92"/>
  </g>
  <path d="M74 126 C170 65 334 65 438 126" stroke="#fff" stroke-width="16" stroke-linecap="round" opacity=".16"/>
  <path d="M63 676 C162 718 344 718 449 662" stroke="#fff" stroke-width="14" stroke-linecap="round" opacity=".16"/>
</svg>