<svg xmlns="http://www.w3.org/2000/svg" viewBox="0 0 512 768" role="img" aria-label="死亡之翼 original portrait">
  
  <defs>
    <linearGradient id="bgp265" x1="0" y1="0" x2="1" y2="1">
      <stop offset="0" stop-color="#d5c6ff"/>
      <stop offset=".55" stop-color="#7367b8"/>
      <stop offset="1" stop-color="#2d2357"/>
    </linearGradient>
    <radialGradient id="body" cx=".36" cy=".25" r=".76">
      <stop offset="0" stop-color="#d5c6ff"/>
      <stop offset=".6" stop-color="#7367b8"/>
      <stop offset="1" stop-color="#2d2357"/>
    </radialGradient>
    <radialGradient id="head" cx=".36" cy=".26" r=".72">
      <stop offset="0" stop-color="#ffffff" stop-opacity=".85"/>
      <stop offset=".2" stop-color="#d5c6ff"/>
      <stop offset=".72" stop-color="#7367b8"/>
      <stop offset="1" stop-color="#2d2357"/>
    </radialGradient>
    <filter id="softShadow" x="-30%" y="-30%" width="160%" height="160%">
      <feDropShadow dx="0" dy="8" stdDeviation="8" flood-color="#2d2357" flood-opacity=".35"/>
    </filter>
  </defs>
  <rect width="512" height="768" rx="48" fill="url(#bgp265)"/>
  <rect x="24" y="24" width="464" height="720" rx="40" fill="#ffffff" opacity=".08"/>
  <g opacity=".42"><circle cx="152" cy="508" r="3.0" fill="#fff" opacity="0.49"/><circle cx="166" cy="330" r="2.9" fill="#fff" opacity="0.38"/><circle cx="63" cy="746" r="3.1" fill="#fff" opacity="0.33"/><circle cx="404" cy="173" r="2.3" fill="#fff" opacity="0.61"/><circle cx="378" cy="394" r="1.2" fill="#fff" opacity="0.40"/><circle cx="462" cy="645" r="1.4" fill="#fff" opacity="0.59"/><circle cx="404" cy="428" r="2.6" fill="#fff" opacity="0.70"/><circle cx="152" cy="208" r="2.8" fill="#fff" opacity="0.52"/><circle cx="64" cy="426" r="1.5" fill="#fff" opacity="0.54"/><circle cx="239" cy="570" r="1.0" fill="#fff" opacity="0.57"/><circle cx="262" cy="363" r="2.2" fill="#fff" opacity="0.29"/><circle cx="76" cy="42" r="1.4" fill="#fff" opacity="0.33"/><circle cx="315" cy="203" r="2.7" fill="#fff" opacity="0.39"/><circle cx="18" cy="743" r="2.7" fill="#fff" opacity="0.59"/><circle cx="41" cy="482" r="1.5" fill="#fff" opacity="0.59"/><circle cx="114" cy="672" r="1.4" fill="#fff" opacity="0.43"/><circle cx="418" cy="346" r="1.5" fill="#fff" opacity="0.49"/><circle cx="126" cy="729" r="2.6" fill="#fff" opacity="0.43"/><circle cx="395" cy="711" r="1.1" fill="#fff" opacity="0.46"/><circle cx="336" cy="696" r="2.4" fill="#fff" opacity="0.59"/><circle cx="163" cy="474" r="1.6" fill="#fff" opacity="0.69"/><circle cx="59" cy="462" r="2.1" fill="#fff" opacity="0.35"/><circle cx="53" cy="519" r="1.2" fill="#fff" opacity="0.61"/><circle cx="271" cy="596" r="2.2" fill="#fff" opacity="0.59"/><circle cx="401" cy="111" r="2.1" fill="#fff" opacity="0.49"/><circle cx="405" cy="114" r="3.0" fill="#fff" opacity="0.49"/><circle cx="167" cy="281" r="1.7" fill="#fff" opacity="0.50"/><circle cx="202" cy="12" r="1.7" fill="#fff" opacity="0.55"/></g>
  <path d="M0 620 C92 590 171 620 259 600 C357 577 432 594 512 565 V768 H0Z" fill="#fff" opacity=".18"/>
  <ellipse cx="256" cy="662" rx="150" ry="34" fill="#2d2357" opacity=".28"/>
  <g transform="translate(0 122)">
    <path d="M219.1 306.4 C65.35000000000002 187.5 67.4 392.5 206.8 400.7" fill="#7367b8" opacity=".78"/><path d="M292.9 306.4 C446.65 187.5 444.6 392.5 305.2 400.7" fill="#7367b8" opacity=".78"/><ellipse cx="256" cy="343.3" rx="86.1" ry="110.69999999999999" fill="url(#body)" filter="url(#softShadow)"/><circle cx="256" cy="228.5" r="77.89999999999999" fill="url(#head)"/><path d="M245.75 226.45 L331.85 249 L249.85 269.5 Z" fill="#d5c6ff"/><path d="M210.9 154.70000000000002 C239.6 89.10000000000002 280.6 109.60000000000002 260.1 167" fill="#2d2357" opacity=".85"/><ellipse cx="223.2" cy="253.1" rx="14.349999999999998" ry="16.4" fill="#14213d"/><ellipse cx="288.8" cy="253.1" rx="14.349999999999998" ry="16.4" fill="#14213d"/><circle cx="229.35" cy="244.9" r="4.714999999999999" fill="#fff"/><circle cx="294.95" cy="244.9" r="4.714999999999999" fill="#fff"/><circle cx="256" cy="210.05" r="14.349999999999998" fill="#d5c6ff" opacity=".9"/>
  </g>
  <path d="M74 126 C170 65 334 65 438 126" stroke="#fff" stroke-width="16" stroke-linecap="round" opacity=".16"/>
  <path d="M63 676 C162 718 344 718 449 662" stroke="#fff" stroke-width="14" stroke-linecap="round" opacity=".16"/>
</svg>