<svg xmlns="http://www.w3.org/2000/svg" viewBox="0 0 512 768" role="img" aria-label="混沌魔君 original portrait">
  
  <defs>
    <linearGradient id="bgp268" x1="0" y1="0" x2="1" y2="1">
      <stop offset="0" stop-color="#efb2ff"/>
      <stop offset=".55" stop-color="#9b5de5"/>
      <stop offset="1" stop-color="#4f2378"/>
    </linearGradient>
    <radialGradient id="body" cx=".36" cy=".25" r=".76">
      <stop offset="0" stop-color="#efb2ff"/>
      <stop offset=".6" stop-color="#9b5de5"/>
      <stop offset="1" stop-color="#4f2378"/>
    </radialGradient>
    <radialGradient id="head" cx=".36" cy=".26" r=".72">
      <stop offset="0" stop-color="#ffffff" stop-opacity=".85"/>
      <stop offset=".2" stop-color="#efb2ff"/>
      <stop offset=".72" stop-color="#9b5de5"/>
      <stop offset="1" stop-color="#4f2378"/>
    </radialGradient>
    <filter id="softShadow" x="-30%" y="-30%" width="160%" height="160%">
      <feDropShadow dx="0" dy="8" stdDeviation="8" flood-color="#4f2378" flood-opacity=".35"/>
    </filter>
  </defs>
  <rect width="512" height="768" rx="48" fill="url(#bgp268)"/>
  <rect x="24" y="24" width="464" height="720" rx="40" fill="#ffffff" opacity=".08"/>
  <g opacity=".42"><circle cx="319" cy="106" r="2.6" fill="#fff" opacity="0.57"/><circle cx="284" cy="446" r="1.9" fill="#fff" opacity="0.51"/><circle cx="374" cy="392" r="1.2" fill="#fff" opacity="0.67"/><circle cx="98" cy="649" r="1.5" fill="#fff" opacity="0.47"/><circle cx="417" cy="763" r="3.2" fill="#fff" opacity="0.30"/><circle cx="371" cy="519" r="1.3" fill="#fff" opacity="0.50"/><circle cx="30" cy="688" r="2.1" fill="#fff" opacity="0.38"/><circle cx="352" cy="256" r="2.7" fill="#fff" opacity="0.52"/><circle cx="62" cy="307" r="2.2" fill="#fff" opacity="0.40"/><circle cx="264" cy="669" r="1.9" fill="#fff" opacity="0.59"/><circle cx="33" cy="743" r="1.0" fill="#fff" opacity="0.56"/><circle cx="260" cy="689" r="2.0" fill="#fff" opacity="0.44"/><circle cx="351" cy="282" r="2.7" fill="#fff" opacity="0.63"/><circle cx="47" cy="333" r="2.3" fill="#fff" opacity="0.31"/><circle cx="143" cy="470" r="1.8" fill="#fff" opacity="0.56"/><circle cx="376" cy="251" r="2.5" fill="#fff" opacity="0.29"/><circle cx="74" cy="466" r="2.0" fill="#fff" opacity="0.64"/><circle cx="146" cy="122" r="1.2" fill="#fff" opacity="0.48"/><circle cx="270" cy="443" r="1.0" fill="#fff" opacity="0.29"/><circle cx="106" cy="39" r="2.1" fill="#fff" opacity="0.51"/><circle cx="166" cy="344" r="2.9" fill="#fff" opacity="0.67"/><circle cx="79" cy="230" r="3.1" fill="#fff" opacity="0.61"/><circle cx="201" cy="749" r="2.6" fill="#fff" opacity="0.50"/><circle cx="393" cy="233" r="2.5" fill="#fff" opacity="0.64"/><circle cx="314" cy="249" r="2.3" fill="#fff" opacity="0.37"/><circle cx="491" cy="513" r="2.7" fill="#fff" opacity="0.49"/><circle cx="225" cy="89" r="0.9" fill="#fff" opacity="0.69"/><circle cx="312" cy="342" r="2.6" fill="#fff" opacity="0.37"/></g>
  <path d="M0 590 C76 555 120 612 197 582 C277 551 327 614 413 581 C462 562 489 570 512 585 V768 H0Z" fill="#4f2378" opacity=".22"/>
  <ellipse cx="256" cy="662" rx="150" ry="34" fill="#4f2378" opacity=".28"/>
  <g transform="translate(0 122)">
    <path d="M149.4 435.54999999999995 C100.20000000000002 304.35 167.85000000000002 156.75 264.2 154.70000000000002 C379 150.60000000000002 420 298.2 352.35 435.54999999999995 C317.5 400.7 288.8 458.1 256 419.15 C221.15 458.1 188.35000000000002 400.7 149.4 435.54999999999995Z" fill="url(#body)" filter="url(#softShadow)"/><circle cx="219.1" cy="253.1" r="16.4" fill="#1b1638"/><circle cx="292.9" cy="253.1" r="16.4" fill="#1b1638"/><path d="M239.6 312.55 Q256 331 280.6 310.5" stroke="#1b1638" stroke-width="10.25" fill="none" stroke-linecap="round"/><path d="M126.85000000000002 326.9 C40.75000000000003 296.15 83.80000000000001 201.85000000000002 137.10000000000002 238.75" fill="#9b5de5" opacity=".35"/><path d="M385.15 326.9 C471.25 296.15 428.2 201.85000000000002 374.9 238.75" fill="#9b5de5" opacity=".35"/><circle cx="256" cy="210.05" r="14.349999999999998" fill="#efb2ff" opacity=".9"/>
  </g>
  <path d="M74 126 C170 65 334 65 438 126" stroke="#fff" stroke-width="16" stroke-linecap="round" opacity=".16"/>
  <path d="M63 676 C162 718 344 718 449 662" stroke="#fff" stroke-width="14" stroke-linecap="round" opacity=".16"/>
</svg>