<svg xmlns="http://www.w3.org/2000/svg" viewBox="0 0 512 768" role="img" aria-label="秩序圣骑 original portrait">
  
  <defs>
    <linearGradient id="bgp269" x1="0" y1="0" x2="1" y2="1">
      <stop offset="0" stop-color="#e8edf2"/>
      <stop offset=".55" stop-color="#9aa8b7"/>
      <stop offset="1" stop-color="#536271"/>
    </linearGradient>
    <radialGradient id="body" cx=".36" cy=".25" r=".76">
      <stop offset="0" stop-color="#e8edf2"/>
      <stop offset=".6" stop-color="#9aa8b7"/>
      <stop offset="1" stop-color="#536271"/>
    </radialGradient>
    <radialGradient id="head" cx=".36" cy=".26" r=".72">
      <stop offset="0" stop-color="#ffffff" stop-opacity=".85"/>
      <stop offset=".2" stop-color="#e8edf2"/>
      <stop offset=".72" stop-color="#9aa8b7"/>
      <stop offset="1" stop-color="#536271"/>
    </radialGradient>
    <filter id="softShadow" x="-30%" y="-30%" width="160%" height="160%">
      <feDropShadow dx="0" dy="8" stdDeviation="8" flood-color="#536271" flood-opacity=".35"/>
    </filter>
  </defs>
  <rect width="512" height="768" rx="48" fill="url(#bgp269)"/>
  <rect x="24" y="24" width="464" height="720" rx="40" fill="#ffffff" opacity=".08"/>
  <g opacity=".42"><circle cx="410" cy="78" r="3.0" fill="#fff" opacity="0.66"/><circle cx="65" cy="744" r="1.3" fill="#fff" opacity="0.56"/><circle cx="463" cy="469" r="1.1" fill="#fff" opacity="0.58"/><circle cx="169" cy="358" r="1.9" fill="#fff" opacity="0.46"/><circle cx="431" cy="32" r="2.2" fill="#fff" opacity="0.56"/><circle cx="390" cy="692" r="1.1" fill="#fff" opacity="0.52"/><circle cx="138" cy="688" r="1.5" fill="#fff" opacity="0.54"/><circle cx="22" cy="187" r="1.5" fill="#fff" opacity="0.36"/><circle cx="437" cy="348" r="0.9" fill="#fff" opacity="0.37"/><circle cx="364" cy="357" r="3.2" fill="#fff" opacity="0.68"/><circle cx="112" cy="541" r="1.5" fill="#fff" opacity="0.42"/><circle cx="503" cy="187" r="2.1" fill="#fff" opacity="0.61"/><circle cx="47" cy="390" r="1.2" fill="#fff" opacity="0.46"/><circle cx="26" cy="307" r="1.3" fill="#fff" opacity="0.40"/><circle cx="101" cy="373" r="2.4" fill="#fff" opacity="0.69"/><circle cx="481" cy="719" r="1.4" fill="#fff" opacity="0.65"/><circle cx="427" cy="431" r="1.4" fill="#fff" opacity="0.60"/><circle cx="211" cy="174" r="3.1" fill="#fff" opacity="0.53"/><circle cx="453" cy="687" r="1.7" fill="#fff" opacity="0.56"/><circle cx="184" cy="570" r="3.1" fill="#fff" opacity="0.61"/><circle cx="33" cy="714" r="1.0" fill="#fff" opacity="0.50"/><circle cx="63" cy="638" r="1.9" fill="#fff" opacity="0.39"/><circle cx="83" cy="479" r="3.2" fill="#fff" opacity="0.62"/><circle cx="150" cy="305" r="0.9" fill="#fff" opacity="0.39"/><circle cx="237" cy="632" r="1.9" fill="#fff" opacity="0.43"/><circle cx="97" cy="755" r="2.1" fill="#fff" opacity="0.32"/><circle cx="250" cy="152" r="2.0" fill="#fff" opacity="0.67"/><circle cx="392" cy="257" r="2.0" fill="#fff" opacity="0.35"/></g>
  <circle cx="256" cy="294" r="194" fill="#e8edf2" opacity=".12"/><circle cx="256" cy="294" r="152" fill="#fff" opacity=".1"/>
  <ellipse cx="256" cy="662" rx="150" ry="34" fill="#536271" opacity=".28"/>
  <g transform="translate(0 122)">
    <ellipse cx="256" cy="339.2" rx="100.44999999999999" ry="112.74999999999999" fill="url(#body)" filter="url(#softShadow)"/><circle cx="256" cy="226.45" r="79.94999999999999" fill="url(#head)"/><ellipse cx="256" cy="214.15" rx="139.39999999999998" ry="36.9" fill="none" stroke="#e8edf2" stroke-width="14.349999999999998" opacity=".75" transform="rotate(-12 256 214.15)"/><path d="M256 103.45000000000002 L276.5 154.70000000000002 L333.9 156.75 L286.75 187.5 L303.15 242.85 L256 208 L208.85 242.85 L225.25 187.5 L178.10000000000002 156.75 L235.5 154.70000000000002 Z" fill="#9aa8b7"/><ellipse cx="223.2" cy="253.1" rx="14.349999999999998" ry="16.4" fill="#14213d"/><ellipse cx="288.8" cy="253.1" rx="14.349999999999998" ry="16.4" fill="#14213d"/><circle cx="229.35" cy="244.9" r="4.714999999999999" fill="#fff"/><circle cx="294.95" cy="244.9" r="4.714999999999999" fill="#fff"/><path d="M256 183.4 L278.55 212.10000000000002 L256 242.85 L233.45 212.10000000000002 Z" fill="#e8edf2" opacity=".92"/>
  </g>
  <path d="M74 126 C170 65 334 65 438 126" stroke="#fff" stroke-width="16" stroke-linecap="round" opacity=".16"/>
  <path d="M63 676 C162 718 344 718 449 662" stroke="#fff" stroke-width="14" stroke-linecap="round" opacity=".16"/>
</svg>