<svg xmlns="http://www.w3.org/2000/svg" viewBox="0 0 512 768" role="img" aria-label="武斗神 original portrait">
  
  <defs>
    <linearGradient id="bgp270" x1="0" y1="0" x2="1" y2="1">
      <stop offset="0" stop-color="#ffc0a6"/>
      <stop offset=".55" stop-color="#d95f3d"/>
      <stop offset="1" stop-color="#7a271d"/>
    </linearGradient>
    <radialGradient id="body" cx=".36" cy=".25" r=".76">
      <stop offset="0" stop-color="#ffc0a6"/>
      <stop offset=".6" stop-color="#d95f3d"/>
      <stop offset="1" stop-color="#7a271d"/>
    </radialGradient>
    <radialGradient id="head" cx=".36" cy=".26" r=".72">
      <stop offset="0" stop-color="#ffffff" stop-opacity=".85"/>
      <stop offset=".2" stop-color="#ffc0a6"/>
      <stop offset=".72" stop-color="#d95f3d"/>
      <stop offset="1" stop-color="#7a271d"/>
    </radialGradient>
    <filter id="softShadow" x="-30%" y="-30%" width="160%" height="160%">
      <feDropShadow dx="0" dy="8" stdDeviation="8" flood-color="#7a271d" flood-opacity=".35"/>
    </filter>
  </defs>
  <rect width="512" height="768" rx="48" fill="url(#bgp270)"/>
  <rect x="24" y="24" width="464" height="720" rx="40" fill="#ffffff" opacity=".08"/>
  <g opacity=".42"><circle cx="56" cy="412" r="3.1" fill="#fff" opacity="0.55"/><circle cx="363" cy="580" r="1.6" fill="#fff" opacity="0.65"/><circle cx="370" cy="215" r="3.1" fill="#fff" opacity="0.62"/><circle cx="401" cy="317" r="2.2" fill="#fff" opacity="0.51"/><circle cx="480" cy="601" r="1.9" fill="#fff" opacity="0.39"/><circle cx="495" cy="488" r="1.8" fill="#fff" opacity="0.29"/><circle cx="261" cy="138" r="1.9" fill="#fff" opacity="0.69"/><circle cx="111" cy="392" r="1.5" fill="#fff" opacity="0.52"/><circle cx="229" cy="367" r="3.0" fill="#fff" opacity="0.45"/><circle cx="494" cy="55" r="1.9" fill="#fff" opacity="0.70"/><circle cx="375" cy="195" r="1.8" fill="#fff" opacity="0.42"/><circle cx="356" cy="761" r="1.8" fill="#fff" opacity="0.48"/><circle cx="470" cy="485" r="1.0" fill="#fff" opacity="0.41"/><circle cx="394" cy="732" r="2.5" fill="#fff" opacity="0.59"/><circle cx="435" cy="383" r="3.1" fill="#fff" opacity="0.69"/><circle cx="140" cy="72" r="2.6" fill="#fff" opacity="0.51"/><circle cx="57" cy="637" r="2.1" fill="#fff" opacity="0.46"/><circle cx="81" cy="150" r="3.0" fill="#fff" opacity="0.51"/><circle cx="250" cy="487" r="3.1" fill="#fff" opacity="0.64"/><circle cx="292" cy="41" r="2.7" fill="#fff" opacity="0.44"/><circle cx="251" cy="632" r="3.0" fill="#fff" opacity="0.50"/><circle cx="365" cy="749" r="2.6" fill="#fff" opacity="0.34"/><circle cx="396" cy="620" r="2.6" fill="#fff" opacity="0.56"/><circle cx="194" cy="78" r="1.5" fill="#fff" opacity="0.57"/><circle cx="374" cy="121" r="2.4" fill="#fff" opacity="0.62"/><circle cx="249" cy="346" r="2.4" fill="#fff" opacity="0.28"/><circle cx="378" cy="609" r="3.2" fill="#fff" opacity="0.61"/><circle cx="111" cy="247" r="1.2" fill="#fff" opacity="0.51"/></g>
  <circle cx="256" cy="294" r="219" fill="#ffc0a6" opacity=".12"/><circle cx="256" cy="294" r="177" fill="#fff" opacity=".1"/>
  <ellipse cx="256" cy="662" rx="150" ry="34" fill="#7a271d" opacity=".28"/>
  <g transform="translate(0 122)">
    <ellipse cx="256" cy="339.2" rx="100.44999999999999" ry="112.74999999999999" fill="url(#body)" filter="url(#softShadow)"/><circle cx="256" cy="226.45" r="79.94999999999999" fill="url(#head)"/><ellipse cx="256" cy="214.15" rx="139.39999999999998" ry="36.9" fill="none" stroke="#ffc0a6" stroke-width="14.349999999999998" opacity=".75" transform="rotate(-12 256 214.15)"/><path d="M256 103.45000000000002 L276.5 154.70000000000002 L333.9 156.75 L286.75 187.5 L303.15 242.85 L256 208 L208.85 242.85 L225.25 187.5 L178.10000000000002 156.75 L235.5 154.70000000000002 Z" fill="#d95f3d"/><ellipse cx="223.2" cy="253.1" rx="14.349999999999998" ry="16.4" fill="#14213d"/><ellipse cx="288.8" cy="253.1" rx="14.349999999999998" ry="16.4" fill="#14213d"/><circle cx="229.35" cy="244.9" r="4.714999999999999" fill="#fff"/><circle cx="294.95" cy="244.9" r="4.714999999999999" fill="#fff"/><circle cx="256" cy="210.05" r="14.349999999999998" fill="#ffc0a6" opacity=".9"/>
  </g>
  <path d="M74 126 C170 65 334 65 438 126" stroke="#fff" stroke-width="16" stroke-linecap="round" opacity=".16"/>
  <path d="M63 676 C162 718 344 718 449 662" stroke="#fff" stroke-width="14" stroke-linecap="round" opacity=".16"/>
</svg>