<svg xmlns="http://www.w3.org/2000/svg" viewBox="0 0 512 768" role="img" aria-label="梦境编织者 original portrait">
  
  <defs>
    <linearGradient id="bgp273" x1="0" y1="0" x2="1" y2="1">
      <stop offset="0" stop-color="#ffd7f3"/>
      <stop offset=".55" stop-color="#f47ac2"/>
      <stop offset="1" stop-color="#8e3b89"/>
    </linearGradient>
    <radialGradient id="body" cx=".36" cy=".25" r=".76">
      <stop offset="0" stop-color="#ffd7f3"/>
      <stop offset=".6" stop-color="#f47ac2"/>
      <stop offset="1" stop-color="#8e3b89"/>
    </radialGradient>
    <radialGradient id="head" cx=".36" cy=".26" r=".72">
      <stop offset="0" stop-color="#ffffff" stop-opacity=".85"/>
      <stop offset=".2" stop-color="#ffd7f3"/>
      <stop offset=".72" stop-color="#f47ac2"/>
      <stop offset="1" stop-color="#8e3b89"/>
    </radialGradient>
    <filter id="softShadow" x="-30%" y="-30%" width="160%" height="160%">
      <feDropShadow dx="0" dy="8" stdDeviation="8" flood-color="#8e3b89" flood-opacity=".35"/>
    </filter>
  </defs>
  <rect width="512" height="768" rx="48" fill="url(#bgp273)"/>
  <rect x="24" y="24" width="464" height="720" rx="40" fill="#ffffff" opacity=".08"/>
  <g opacity=".42"><circle cx="128" cy="699" r="1.1" fill="#fff" opacity="0.64"/><circle cx="155" cy="101" r="1.6" fill="#fff" opacity="0.45"/><circle cx="264" cy="10" r="2.2" fill="#fff" opacity="0.68"/><circle cx="206" cy="387" r="2.8" fill="#fff" opacity="0.28"/><circle cx="189" cy="101" r="1.5" fill="#fff" opacity="0.58"/><circle cx="15" cy="719" r="2.0" fill="#fff" opacity="0.32"/><circle cx="17" cy="274" r="1.3" fill="#fff" opacity="0.35"/><circle cx="264" cy="34" r="3.2" fill="#fff" opacity="0.29"/><circle cx="148" cy="488" r="3.2" fill="#fff" opacity="0.62"/><circle cx="487" cy="461" r="1.0" fill="#fff" opacity="0.35"/><circle cx="391" cy="0" r="2.3" fill="#fff" opacity="0.53"/><circle cx="44" cy="311" r="2.8" fill="#fff" opacity="0.47"/><circle cx="39" cy="71" r="1.8" fill="#fff" opacity="0.39"/><circle cx="459" cy="265" r="2.0" fill="#fff" opacity="0.58"/><circle cx="45" cy="368" r="2.4" fill="#fff" opacity="0.63"/><circle cx="161" cy="291" r="2.3" fill="#fff" opacity="0.43"/><circle cx="232" cy="294" r="2.1" fill="#fff" opacity="0.26"/><circle cx="400" cy="542" r="2.9" fill="#fff" opacity="0.25"/><circle cx="288" cy="482" r="2.1" fill="#fff" opacity="0.69"/><circle cx="409" cy="203" r="2.0" fill="#fff" opacity="0.40"/><circle cx="54" cy="10" r="2.5" fill="#fff" opacity="0.42"/><circle cx="229" cy="419" r="1.3" fill="#fff" opacity="0.63"/><circle cx="208" cy="116" r="3.0" fill="#fff" opacity="0.66"/><circle cx="244" cy="307" r="1.6" fill="#fff" opacity="0.59"/><circle cx="459" cy="338" r="1.1" fill="#fff" opacity="0.69"/><circle cx="49" cy="273" r="3.0" fill="#fff" opacity="0.33"/><circle cx="156" cy="10" r="2.9" fill="#fff" opacity="0.37"/><circle cx="62" cy="475" r="1.4" fill="#fff" opacity="0.59"/></g>
  <path d="M0 590 C76 555 120 612 197 582 C277 551 327 614 413 581 C462 562 489 570 512 585 V768 H0Z" fill="#8e3b89" opacity=".22"/>
  <ellipse cx="256" cy="662" rx="150" ry="34" fill="#8e3b89" opacity=".28"/>
  <g transform="translate(0 122)">
    <path d="M149.4 435.54999999999995 C100.20000000000002 304.35 167.85000000000002 156.75 264.2 154.70000000000002 C379 150.60000000000002 420 298.2 352.35 435.54999999999995 C317.5 400.7 288.8 458.1 256 419.15 C221.15 458.1 188.35000000000002 400.7 149.4 435.54999999999995Z" fill="url(#body)" filter="url(#softShadow)"/><circle cx="219.1" cy="253.1" r="16.4" fill="#1b1638"/><circle cx="292.9" cy="253.1" r="16.4" fill="#1b1638"/><path d="M239.6 312.55 Q256 331 280.6 310.5" stroke="#1b1638" stroke-width="10.25" fill="none" stroke-linecap="round"/><path d="M126.85000000000002 326.9 C40.75000000000003 296.15 83.80000000000001 201.85000000000002 137.10000000000002 238.75" fill="#f47ac2" opacity=".35"/><path d="M385.15 326.9 C471.25 296.15 428.2 201.85000000000002 374.9 238.75" fill="#f47ac2" opacity=".35"/><path d="M256 183.4 L278.55 212.10000000000002 L256 242.85 L233.45 212.10000000000002 Z" fill="#ffd7f3" opacity=".92"/>
  </g>
  <path d="M74 126 C170 65 334 65 438 126" stroke="#fff" stroke-width="16" stroke-linecap="round" opacity=".16"/>
  <path d="M63 676 C162 718 344 718 449 662" stroke="#fff" stroke-width="14" stroke-linecap="round" opacity=".16"/>
</svg>