<svg xmlns="http://www.w3.org/2000/svg" viewBox="0 0 512 768" role="img" aria-label="剧毒母皇 original portrait">
  
  <defs>
    <linearGradient id="bgp277" x1="0" y1="0" x2="1" y2="1">
      <stop offset="0" stop-color="#efb2ff"/>
      <stop offset=".55" stop-color="#9b5de5"/>
      <stop offset="1" stop-color="#4f2378"/>
    </linearGradient>
    <radialGradient id="body" cx=".36" cy=".25" r=".76">
      <stop offset="0" stop-color="#efb2ff"/>
      <stop offset=".6" stop-color="#9b5de5"/>
      <stop offset="1" stop-color="#4f2378"/>
    </radialGradient>
    <radialGradient id="head" cx=".36" cy=".26" r=".72">
      <stop offset="0" stop-color="#ffffff" stop-opacity=".85"/>
      <stop offset=".2" stop-color="#efb2ff"/>
      <stop offset=".72" stop-color="#9b5de5"/>
      <stop offset="1" stop-color="#4f2378"/>
    </radialGradient>
    <filter id="softShadow" x="-30%" y="-30%" width="160%" height="160%">
      <feDropShadow dx="0" dy="8" stdDeviation="8" flood-color="#4f2378" flood-opacity=".35"/>
    </filter>
  </defs>
  <rect width="512" height="768" rx="48" fill="url(#bgp277)"/>
  <rect x="24" y="24" width="464" height="720" rx="40" fill="#ffffff" opacity=".08"/>
  <g opacity=".42"><circle cx="3" cy="43" r="1.8" fill="#fff" opacity="0.29"/><circle cx="283" cy="338" r="1.7" fill="#fff" opacity="0.68"/><circle cx="72" cy="331" r="1.0" fill="#fff" opacity="0.41"/><circle cx="31" cy="73" r="2.4" fill="#fff" opacity="0.51"/><circle cx="251" cy="543" r="2.8" fill="#fff" opacity="0.51"/><circle cx="25" cy="622" r="1.7" fill="#fff" opacity="0.62"/><circle cx="476" cy="68" r="1.4" fill="#fff" opacity="0.48"/><circle cx="496" cy="155" r="1.3" fill="#fff" opacity="0.37"/><circle cx="160" cy="148" r="2.1" fill="#fff" opacity="0.56"/><circle cx="85" cy="120" r="3.2" fill="#fff" opacity="0.62"/><circle cx="57" cy="709" r="2.8" fill="#fff" opacity="0.55"/><circle cx="87" cy="468" r="1.7" fill="#fff" opacity="0.38"/><circle cx="172" cy="508" r="1.4" fill="#fff" opacity="0.58"/><circle cx="234" cy="388" r="0.9" fill="#fff" opacity="0.34"/><circle cx="239" cy="302" r="2.0" fill="#fff" opacity="0.28"/><circle cx="224" cy="58" r="1.3" fill="#fff" opacity="0.50"/><circle cx="317" cy="535" r="3.0" fill="#fff" opacity="0.47"/><circle cx="101" cy="105" r="3.0" fill="#fff" opacity="0.33"/><circle cx="103" cy="341" r="2.5" fill="#fff" opacity="0.61"/><circle cx="319" cy="115" r="1.0" fill="#fff" opacity="0.56"/><circle cx="345" cy="637" r="2.9" fill="#fff" opacity="0.28"/><circle cx="182" cy="220" r="3.1" fill="#fff" opacity="0.63"/><circle cx="477" cy="292" r="2.0" fill="#fff" opacity="0.28"/><circle cx="127" cy="185" r="1.5" fill="#fff" opacity="0.29"/><circle cx="10" cy="584" r="3.1" fill="#fff" opacity="0.51"/><circle cx="329" cy="5" r="0.9" fill="#fff" opacity="0.56"/><circle cx="511" cy="330" r="2.8" fill="#fff" opacity="0.68"/><circle cx="476" cy="459" r="1.5" fill="#fff" opacity="0.52"/></g>
  <path d="M38 684 C128 596 386 596 475 684 V768 H38Z" fill="#4f2378" opacity=".17"/>
  <ellipse cx="256" cy="662" rx="150" ry="34" fill="#4f2378" opacity=".28"/>
  <g transform="translate(0 122)">
    <ellipse cx="256" cy="359.7" rx="110.69999999999999" ry="100.44999999999999" fill="url(#body)" filter="url(#softShadow)"/><circle cx="256" cy="232.60000000000002" r="86.1" fill="url(#head)"/><path d="M149.4 322.8 C51.00000000000003 304.35 85.85000000000002 423.25 165.8 402.75" fill="#4f2378"/><path d="M362.6 322.8 C461 304.35 426.15 423.25 346.2 402.75" fill="#4f2378"/><path d="M200.65 148.55 H311.35 L331.85 195.7 Q256 224.4 180.15 195.7 Z" fill="#efb2ff" opacity=".85"/><ellipse cx="223.2" cy="253.1" rx="14.349999999999998" ry="16.4" fill="#14213d"/><ellipse cx="288.8" cy="253.1" rx="14.349999999999998" ry="16.4" fill="#14213d"/><circle cx="229.35" cy="244.9" r="4.714999999999999" fill="#fff"/><circle cx="294.95" cy="244.9" r="4.714999999999999" fill="#fff"/><path d="M215 201.85000000000002 Q256 224.4 297 201.85000000000002" stroke="#efb2ff" stroke-width="10.25" fill="none" stroke-linecap="round" opacity=".8"/>
  </g>
  <path d="M74 126 C170 65 334 65 438 126" stroke="#fff" stroke-width="16" stroke-linecap="round" opacity=".16"/>
  <path d="M63 676 C162 718 344 718 449 662" stroke="#fff" stroke-width="14" stroke-linecap="round" opacity=".16"/>
</svg>