<svg xmlns="http://www.w3.org/2000/svg" viewBox="0 0 512 768" role="img" aria-label="呆呆鸭 original portrait">
  
  <defs>
    <linearGradient id="bgp28" x1="0" y1="0" x2="1" y2="1">
      <stop offset="0" stop-color="#9ee8ff"/>
      <stop offset=".55" stop-color="#2397d5"/>
      <stop offset="1" stop-color="#0b4f8f"/>
    </linearGradient>
    <radialGradient id="body" cx=".36" cy=".25" r=".76">
      <stop offset="0" stop-color="#9ee8ff"/>
      <stop offset=".6" stop-color="#2397d5"/>
      <stop offset="1" stop-color="#0b4f8f"/>
    </radialGradient>
    <radialGradient id="head" cx=".36" cy=".26" r=".72">
      <stop offset="0" stop-color="#ffffff" stop-opacity=".85"/>
      <stop offset=".2" stop-color="#9ee8ff"/>
      <stop offset=".72" stop-color="#2397d5"/>
      <stop offset="1" stop-color="#0b4f8f"/>
    </radialGradient>
    <filter id="softShadow" x="-30%" y="-30%" width="160%" height="160%">
      <feDropShadow dx="0" dy="8" stdDeviation="8" flood-color="#0b4f8f" flood-opacity=".35"/>
    </filter>
  </defs>
  <rect width="512" height="768" rx="48" fill="url(#bgp28)"/>
  <rect x="24" y="24" width="464" height="720" rx="40" fill="#ffffff" opacity=".08"/>
  <g opacity=".42"><circle cx="479" cy="231" r="2.6" fill="#fff" opacity="0.46"/><circle cx="302" cy="223" r="2.8" fill="#fff" opacity="0.40"/><circle cx="419" cy="626" r="1.0" fill="#fff" opacity="0.35"/><circle cx="434" cy="242" r="2.8" fill="#fff" opacity="0.48"/><circle cx="412" cy="162" r="0.9" fill="#fff" opacity="0.33"/><circle cx="336" cy="521" r="1.0" fill="#fff" opacity="0.41"/><circle cx="74" cy="533" r="1.7" fill="#fff" opacity="0.55"/><circle cx="291" cy="460" r="2.4" fill="#fff" opacity="0.52"/><circle cx="483" cy="312" r="2.0" fill="#fff" opacity="0.55"/><circle cx="168" cy="679" r="1.1" fill="#fff" opacity="0.43"/><circle cx="496" cy="347" r="2.6" fill="#fff" opacity="0.47"/><circle cx="126" cy="78" r="2.6" fill="#fff" opacity="0.60"/><circle cx="101" cy="109" r="3.1" fill="#fff" opacity="0.60"/><circle cx="192" cy="408" r="1.8" fill="#fff" opacity="0.55"/><circle cx="498" cy="247" r="1.2" fill="#fff" opacity="0.47"/><circle cx="459" cy="690" r="1.4" fill="#fff" opacity="0.64"/><circle cx="30" cy="534" r="2.1" fill="#fff" opacity="0.62"/><circle cx="228" cy="283" r="1.7" fill="#fff" opacity="0.62"/><circle cx="379" cy="438" r="0.9" fill="#fff" opacity="0.50"/><circle cx="70" cy="653" r="2.0" fill="#fff" opacity="0.38"/><circle cx="337" cy="213" r="2.9" fill="#fff" opacity="0.27"/><circle cx="240" cy="180" r="1.1" fill="#fff" opacity="0.52"/><circle cx="329" cy="595" r="1.9" fill="#fff" opacity="0.50"/><circle cx="416" cy="411" r="2.0" fill="#fff" opacity="0.58"/><circle cx="492" cy="677" r="1.9" fill="#fff" opacity="0.38"/><circle cx="509" cy="16" r="1.4" fill="#fff" opacity="0.42"/><circle cx="422" cy="45" r="1.6" fill="#fff" opacity="0.43"/><circle cx="299" cy="307" r="2.0" fill="#fff" opacity="0.33"/></g>
  <path d="M0 670 C96 613 167 665 256 620 C337 660 421 608 512 662 V768 H0Z" fill="#0b4f8f" opacity=".15"/>
  <ellipse cx="256" cy="662" rx="150" ry="34" fill="#0b4f8f" opacity=".28"/>
  <g transform="translate(0 122)">
    <path d="M159.65 347.4 C69.45000000000002 322.8 92 222.35000000000002 165.8 263.35" stroke="#2397d5" stroke-width="28.699999999999996" fill="none" stroke-linecap="round" opacity=".76"/><ellipse cx="256" cy="353.55" rx="108.64999999999999" ry="102.49999999999999" fill="url(#body)" filter="url(#softShadow)"/><path d="M184.25 212.10000000000002 L137.10000000000002 115.75000000000003 L231.4 175.20000000000002 Z" fill="#2397d5"/><path d="M327.75 212.10000000000002 L374.9 115.75000000000003 L280.6 175.20000000000002 Z" fill="#2397d5"/><circle cx="256" cy="234.65" r="92.24999999999999" fill="url(#head)"/><ellipse cx="221.15" cy="251.05" rx="16.4" ry="20.5" fill="#182033"/><ellipse cx="290.85" cy="251.05" rx="16.4" ry="20.5" fill="#182033"/><ellipse cx="223.2" cy="253.1" rx="14.349999999999998" ry="16.4" fill="#14213d"/><ellipse cx="288.8" cy="253.1" rx="14.349999999999998" ry="16.4" fill="#14213d"/><circle cx="229.35" cy="244.9" r="4.714999999999999" fill="#fff"/><circle cx="294.95" cy="244.9" r="4.714999999999999" fill="#fff"/><circle cx="256" cy="210.05" r="14.349999999999998" fill="#9ee8ff" opacity=".9"/>
  </g>
  <path d="M74 126 C170 65 334 65 438 126" stroke="#fff" stroke-width="16" stroke-linecap="round" opacity=".16"/>
  <path d="M63 676 C162 718 344 718 449 662" stroke="#fff" stroke-width="14" stroke-linecap="round" opacity=".16"/>
</svg>