<svg xmlns="http://www.w3.org/2000/svg" viewBox="0 0 512 768" role="img" aria-label="创世元灵 original portrait">
  
  <defs>
    <linearGradient id="bgp283" x1="0" y1="0" x2="1" y2="1">
      <stop offset="0" stop-color="#fff0a6"/>
      <stop offset=".55" stop-color="#d9a441"/>
      <stop offset="1" stop-color="#754d12"/>
    </linearGradient>
    <radialGradient id="body" cx=".36" cy=".25" r=".76">
      <stop offset="0" stop-color="#fff0a6"/>
      <stop offset=".6" stop-color="#d9a441"/>
      <stop offset="1" stop-color="#754d12"/>
    </radialGradient>
    <radialGradient id="head" cx=".36" cy=".26" r=".72">
      <stop offset="0" stop-color="#ffffff" stop-opacity=".85"/>
      <stop offset=".2" stop-color="#fff0a6"/>
      <stop offset=".72" stop-color="#d9a441"/>
      <stop offset="1" stop-color="#754d12"/>
    </radialGradient>
    <filter id="softShadow" x="-30%" y="-30%" width="160%" height="160%">
      <feDropShadow dx="0" dy="8" stdDeviation="8" flood-color="#754d12" flood-opacity=".35"/>
    </filter>
  </defs>
  <rect width="512" height="768" rx="48" fill="url(#bgp283)"/>
  <rect x="24" y="24" width="464" height="720" rx="40" fill="#ffffff" opacity=".08"/>
  <g opacity=".42"><circle cx="3" cy="158" r="1.2" fill="#fff" opacity="0.26"/><circle cx="212" cy="354" r="1.1" fill="#fff" opacity="0.45"/><circle cx="297" cy="215" r="3.0" fill="#fff" opacity="0.49"/><circle cx="323" cy="249" r="2.0" fill="#fff" opacity="0.50"/><circle cx="78" cy="481" r="1.0" fill="#fff" opacity="0.61"/><circle cx="434" cy="149" r="3.0" fill="#fff" opacity="0.47"/><circle cx="332" cy="104" r="2.0" fill="#fff" opacity="0.29"/><circle cx="40" cy="391" r="3.0" fill="#fff" opacity="0.54"/><circle cx="228" cy="458" r="3.1" fill="#fff" opacity="0.28"/><circle cx="476" cy="663" r="2.1" fill="#fff" opacity="0.56"/><circle cx="191" cy="129" r="1.5" fill="#fff" opacity="0.52"/><circle cx="448" cy="450" r="1.1" fill="#fff" opacity="0.28"/><circle cx="232" cy="68" r="1.0" fill="#fff" opacity="0.64"/><circle cx="303" cy="519" r="1.7" fill="#fff" opacity="0.38"/><circle cx="340" cy="369" r="2.6" fill="#fff" opacity="0.59"/><circle cx="183" cy="89" r="2.7" fill="#fff" opacity="0.46"/><circle cx="256" cy="30" r="1.8" fill="#fff" opacity="0.49"/><circle cx="66" cy="459" r="1.0" fill="#fff" opacity="0.31"/><circle cx="206" cy="692" r="1.7" fill="#fff" opacity="0.69"/><circle cx="452" cy="252" r="2.5" fill="#fff" opacity="0.41"/><circle cx="176" cy="404" r="1.1" fill="#fff" opacity="0.39"/><circle cx="256" cy="475" r="1.1" fill="#fff" opacity="0.51"/><circle cx="189" cy="540" r="2.0" fill="#fff" opacity="0.58"/><circle cx="461" cy="370" r="1.2" fill="#fff" opacity="0.56"/><circle cx="197" cy="22" r="3.0" fill="#fff" opacity="0.33"/><circle cx="71" cy="604" r="2.5" fill="#fff" opacity="0.62"/><circle cx="64" cy="508" r="2.4" fill="#fff" opacity="0.33"/><circle cx="167" cy="253" r="1.8" fill="#fff" opacity="0.52"/></g>
  <path d="M0 590 C76 555 120 612 197 582 C277 551 327 614 413 581 C462 562 489 570 512 585 V768 H0Z" fill="#754d12" opacity=".22"/>
  <ellipse cx="256" cy="662" rx="150" ry="34" fill="#754d12" opacity=".28"/>
  <g transform="translate(0 122)">
    <path d="M149.4 435.54999999999995 C100.20000000000002 304.35 167.85000000000002 156.75 264.2 154.70000000000002 C379 150.60000000000002 420 298.2 352.35 435.54999999999995 C317.5 400.7 288.8 458.1 256 419.15 C221.15 458.1 188.35000000000002 400.7 149.4 435.54999999999995Z" fill="url(#body)" filter="url(#softShadow)"/><circle cx="219.1" cy="253.1" r="16.4" fill="#1b1638"/><circle cx="292.9" cy="253.1" r="16.4" fill="#1b1638"/><path d="M239.6 312.55 Q256 331 280.6 310.5" stroke="#1b1638" stroke-width="10.25" fill="none" stroke-linecap="round"/><path d="M126.85000000000002 326.9 C40.75000000000003 296.15 83.80000000000001 201.85000000000002 137.10000000000002 238.75" fill="#d9a441" opacity=".35"/><path d="M385.15 326.9 C471.25 296.15 428.2 201.85000000000002 374.9 238.75" fill="#d9a441" opacity=".35"/><circle cx="256" cy="210.05" r="14.349999999999998" fill="#fff0a6" opacity=".9"/>
  </g>
  <path d="M74 126 C170 65 334 65 438 126" stroke="#fff" stroke-width="16" stroke-linecap="round" opacity=".16"/>
  <path d="M63 676 C162 718 344 718 449 662" stroke="#fff" stroke-width="14" stroke-linecap="round" opacity=".16"/>
</svg>