<svg xmlns="http://www.w3.org/2000/svg" viewBox="0 0 512 768" role="img" aria-label="冰棱锥 original portrait">
  
  <defs>
    <linearGradient id="bgp287" x1="0" y1="0" x2="1" y2="1">
      <stop offset="0" stop-color="#d7fbff"/>
      <stop offset=".55" stop-color="#71d6e8"/>
      <stop offset="1" stop-color="#318aa3"/>
    </linearGradient>
    <radialGradient id="body" cx=".36" cy=".25" r=".76">
      <stop offset="0" stop-color="#d7fbff"/>
      <stop offset=".6" stop-color="#71d6e8"/>
      <stop offset="1" stop-color="#318aa3"/>
    </radialGradient>
    <radialGradient id="head" cx=".36" cy=".26" r=".72">
      <stop offset="0" stop-color="#ffffff" stop-opacity=".85"/>
      <stop offset=".2" stop-color="#d7fbff"/>
      <stop offset=".72" stop-color="#71d6e8"/>
      <stop offset="1" stop-color="#318aa3"/>
    </radialGradient>
    <filter id="softShadow" x="-30%" y="-30%" width="160%" height="160%">
      <feDropShadow dx="0" dy="8" stdDeviation="8" flood-color="#318aa3" flood-opacity=".35"/>
    </filter>
  </defs>
  <rect width="512" height="768" rx="48" fill="url(#bgp287)"/>
  <rect x="24" y="24" width="464" height="720" rx="40" fill="#ffffff" opacity=".08"/>
  <g opacity=".42"><circle cx="69" cy="122" r="0.9" fill="#fff" opacity="0.51"/><circle cx="459" cy="348" r="1.4" fill="#fff" opacity="0.55"/><circle cx="335" cy="176" r="2.4" fill="#fff" opacity="0.59"/><circle cx="115" cy="372" r="1.4" fill="#fff" opacity="0.61"/><circle cx="300" cy="697" r="2.9" fill="#fff" opacity="0.65"/><circle cx="36" cy="371" r="1.7" fill="#fff" opacity="0.28"/><circle cx="491" cy="417" r="1.3" fill="#fff" opacity="0.68"/><circle cx="212" cy="375" r="1.9" fill="#fff" opacity="0.42"/><circle cx="453" cy="646" r="1.7" fill="#fff" opacity="0.50"/><circle cx="108" cy="503" r="1.1" fill="#fff" opacity="0.26"/><circle cx="188" cy="516" r="3.0" fill="#fff" opacity="0.58"/><circle cx="506" cy="743" r="1.2" fill="#fff" opacity="0.66"/><circle cx="134" cy="277" r="2.1" fill="#fff" opacity="0.31"/><circle cx="380" cy="695" r="1.2" fill="#fff" opacity="0.67"/><circle cx="90" cy="336" r="2.6" fill="#fff" opacity="0.39"/><circle cx="13" cy="106" r="1.2" fill="#fff" opacity="0.56"/><circle cx="175" cy="345" r="0.9" fill="#fff" opacity="0.59"/><circle cx="220" cy="215" r="3.0" fill="#fff" opacity="0.61"/><circle cx="492" cy="310" r="2.7" fill="#fff" opacity="0.48"/><circle cx="509" cy="211" r="2.0" fill="#fff" opacity="0.44"/><circle cx="33" cy="207" r="2.2" fill="#fff" opacity="0.53"/><circle cx="386" cy="502" r="1.1" fill="#fff" opacity="0.47"/><circle cx="459" cy="712" r="2.1" fill="#fff" opacity="0.59"/><circle cx="398" cy="670" r="1.1" fill="#fff" opacity="0.29"/><circle cx="371" cy="751" r="2.5" fill="#fff" opacity="0.32"/><circle cx="450" cy="677" r="3.2" fill="#fff" opacity="0.39"/><circle cx="111" cy="360" r="0.8" fill="#fff" opacity="0.63"/><circle cx="239" cy="436" r="1.8" fill="#fff" opacity="0.46"/></g>
  <path d="M0 585 C86 541 164 618 248 574 C338 526 407 595 512 548 V768 H0Z" fill="#71d6e8" opacity=".2"/><path d="M0 650 C105 610 180 690 282 638 C370 594 426 650 512 618 V768 H0Z" fill="#d7fbff" opacity=".18"/>
  <ellipse cx="256" cy="662" rx="150" ry="34" fill="#318aa3" opacity=".28"/>
  <g transform="translate(0 122)">
    <path d="M110.45000000000002 326.9 L40.75000000000003 240.8 L44.85000000000002 413 Z" fill="#71d6e8" opacity=".86"/><ellipse cx="247.8" cy="322.8" rx="139.39999999999998" ry="88.14999999999999" fill="url(#body)" filter="url(#softShadow)"/><path d="M243.7 242.85 C288.8 136.25 358.5 173.15 342.1 263.35" fill="#71d6e8" opacity=".72"/><path d="M301.1 384.3 C338 458.1 411.79999999999995 413 362.6 359.7" fill="#d7fbff" opacity=".8"/><circle cx="329.8" cy="292.05" r="14.349999999999998" fill="#101828"/><circle cx="335.95" cy="285.9" r="4.714999999999999" fill="#fff"/><path d="M256 183.4 L278.55 212.10000000000002 L256 242.85 L233.45 212.10000000000002 Z" fill="#d7fbff" opacity=".92"/>
  </g>
  <path d="M74 126 C170 65 334 65 438 126" stroke="#fff" stroke-width="16" stroke-linecap="round" opacity=".16"/>
  <path d="M63 676 C162 718 344 718 449 662" stroke="#fff" stroke-width="14" stroke-linecap="round" opacity=".16"/>
</svg>