<svg xmlns="http://www.w3.org/2000/svg" viewBox="0 0 512 768" role="img" aria-label="念力鸭皇 original portrait">
  
  <defs>
    <linearGradient id="bgp29" x1="0" y1="0" x2="1" y2="1">
      <stop offset="0" stop-color="#ffd0ec"/>
      <stop offset=".55" stop-color="#e056a7"/>
      <stop offset="1" stop-color="#6d327d"/>
    </linearGradient>
    <radialGradient id="body" cx=".36" cy=".25" r=".76">
      <stop offset="0" stop-color="#ffd0ec"/>
      <stop offset=".6" stop-color="#e056a7"/>
      <stop offset="1" stop-color="#6d327d"/>
    </radialGradient>
    <radialGradient id="head" cx=".36" cy=".26" r=".72">
      <stop offset="0" stop-color="#ffffff" stop-opacity=".85"/>
      <stop offset=".2" stop-color="#ffd0ec"/>
      <stop offset=".72" stop-color="#e056a7"/>
      <stop offset="1" stop-color="#6d327d"/>
    </radialGradient>
    <filter id="softShadow" x="-30%" y="-30%" width="160%" height="160%">
      <feDropShadow dx="0" dy="8" stdDeviation="8" flood-color="#6d327d" flood-opacity=".35"/>
    </filter>
  </defs>
  <rect width="512" height="768" rx="48" fill="url(#bgp29)"/>
  <rect x="24" y="24" width="464" height="720" rx="40" fill="#ffffff" opacity=".08"/>
  <g opacity=".42"><circle cx="470" cy="152" r="1.3" fill="#fff" opacity="0.60"/><circle cx="219" cy="702" r="1.4" fill="#fff" opacity="0.59"/><circle cx="79" cy="491" r="2.1" fill="#fff" opacity="0.54"/><circle cx="162" cy="370" r="2.7" fill="#fff" opacity="0.66"/><circle cx="158" cy="678" r="0.9" fill="#fff" opacity="0.46"/><circle cx="324" cy="466" r="2.6" fill="#fff" opacity="0.58"/><circle cx="499" cy="757" r="0.9" fill="#fff" opacity="0.27"/><circle cx="415" cy="341" r="1.4" fill="#fff" opacity="0.69"/><circle cx="338" cy="709" r="1.6" fill="#fff" opacity="0.66"/><circle cx="212" cy="601" r="1.1" fill="#fff" opacity="0.43"/><circle cx="460" cy="495" r="0.9" fill="#fff" opacity="0.48"/><circle cx="396" cy="290" r="2.0" fill="#fff" opacity="0.28"/><circle cx="94" cy="70" r="1.4" fill="#fff" opacity="0.60"/><circle cx="462" cy="437" r="1.2" fill="#fff" opacity="0.61"/><circle cx="256" cy="209" r="2.5" fill="#fff" opacity="0.45"/><circle cx="356" cy="616" r="1.0" fill="#fff" opacity="0.60"/><circle cx="479" cy="15" r="1.3" fill="#fff" opacity="0.37"/><circle cx="488" cy="430" r="2.2" fill="#fff" opacity="0.60"/><circle cx="375" cy="197" r="2.8" fill="#fff" opacity="0.69"/><circle cx="404" cy="514" r="0.8" fill="#fff" opacity="0.31"/><circle cx="300" cy="75" r="2.3" fill="#fff" opacity="0.33"/><circle cx="157" cy="677" r="2.8" fill="#fff" opacity="0.39"/><circle cx="47" cy="412" r="1.7" fill="#fff" opacity="0.45"/><circle cx="105" cy="733" r="1.6" fill="#fff" opacity="0.53"/><circle cx="500" cy="670" r="3.0" fill="#fff" opacity="0.40"/><circle cx="263" cy="600" r="2.1" fill="#fff" opacity="0.66"/><circle cx="312" cy="409" r="2.8" fill="#fff" opacity="0.25"/><circle cx="60" cy="499" r="1.9" fill="#fff" opacity="0.61"/></g>
  <path d="M38 684 C128 596 386 596 475 684 V768 H38Z" fill="#6d327d" opacity=".17"/>
  <ellipse cx="256" cy="662" rx="150" ry="34" fill="#6d327d" opacity=".28"/>
  <g transform="translate(0 122)">
    <ellipse cx="256" cy="359.7" rx="110.69999999999999" ry="100.44999999999999" fill="url(#body)" filter="url(#softShadow)"/><circle cx="256" cy="232.60000000000002" r="86.1" fill="url(#head)"/><path d="M149.4 322.8 C51.00000000000003 304.35 85.85000000000002 423.25 165.8 402.75" fill="#6d327d"/><path d="M362.6 322.8 C461 304.35 426.15 423.25 346.2 402.75" fill="#6d327d"/><path d="M200.65 148.55 H311.35 L331.85 195.7 Q256 224.4 180.15 195.7 Z" fill="#ffd0ec" opacity=".85"/><ellipse cx="223.2" cy="253.1" rx="14.349999999999998" ry="16.4" fill="#14213d"/><ellipse cx="288.8" cy="253.1" rx="14.349999999999998" ry="16.4" fill="#14213d"/><circle cx="229.35" cy="244.9" r="4.714999999999999" fill="#fff"/><circle cx="294.95" cy="244.9" r="4.714999999999999" fill="#fff"/><path d="M215 201.85000000000002 Q256 224.4 297 201.85000000000002" stroke="#ffd0ec" stroke-width="10.25" fill="none" stroke-linecap="round" opacity=".8"/>
  </g>
  <path d="M74 126 C170 65 334 65 438 126" stroke="#fff" stroke-width="16" stroke-linecap="round" opacity=".16"/>
  <path d="M63 676 C162 718 344 718 449 662" stroke="#fff" stroke-width="14" stroke-linecap="round" opacity=".16"/>
</svg>