<svg xmlns="http://www.w3.org/2000/svg" viewBox="0 0 512 768" role="img" aria-label="尸骨魔茧 original portrait">
  
  <defs>
    <linearGradient id="bgp294" x1="0" y1="0" x2="1" y2="1">
      <stop offset="0" stop-color="#efb2ff"/>
      <stop offset=".55" stop-color="#9b5de5"/>
      <stop offset="1" stop-color="#4f2378"/>
    </linearGradient>
    <radialGradient id="body" cx=".36" cy=".25" r=".76">
      <stop offset="0" stop-color="#efb2ff"/>
      <stop offset=".6" stop-color="#9b5de5"/>
      <stop offset="1" stop-color="#4f2378"/>
    </radialGradient>
    <radialGradient id="head" cx=".36" cy=".26" r=".72">
      <stop offset="0" stop-color="#ffffff" stop-opacity=".85"/>
      <stop offset=".2" stop-color="#efb2ff"/>
      <stop offset=".72" stop-color="#9b5de5"/>
      <stop offset="1" stop-color="#4f2378"/>
    </radialGradient>
    <filter id="softShadow" x="-30%" y="-30%" width="160%" height="160%">
      <feDropShadow dx="0" dy="8" stdDeviation="8" flood-color="#4f2378" flood-opacity=".35"/>
    </filter>
  </defs>
  <rect width="512" height="768" rx="48" fill="url(#bgp294)"/>
  <rect x="24" y="24" width="464" height="720" rx="40" fill="#ffffff" opacity=".08"/>
  <g opacity=".42"><circle cx="354" cy="523" r="1.1" fill="#fff" opacity="0.69"/><circle cx="216" cy="414" r="1.5" fill="#fff" opacity="0.64"/><circle cx="471" cy="499" r="2.7" fill="#fff" opacity="0.26"/><circle cx="510" cy="544" r="1.3" fill="#fff" opacity="0.52"/><circle cx="142" cy="196" r="0.9" fill="#fff" opacity="0.40"/><circle cx="323" cy="732" r="1.0" fill="#fff" opacity="0.62"/><circle cx="347" cy="633" r="3.2" fill="#fff" opacity="0.27"/><circle cx="493" cy="389" r="2.6" fill="#fff" opacity="0.59"/><circle cx="395" cy="695" r="1.9" fill="#fff" opacity="0.56"/><circle cx="228" cy="36" r="2.5" fill="#fff" opacity="0.29"/><circle cx="313" cy="681" r="0.9" fill="#fff" opacity="0.42"/><circle cx="242" cy="174" r="1.8" fill="#fff" opacity="0.46"/><circle cx="336" cy="362" r="1.9" fill="#fff" opacity="0.57"/><circle cx="152" cy="548" r="1.1" fill="#fff" opacity="0.68"/><circle cx="466" cy="664" r="0.8" fill="#fff" opacity="0.33"/><circle cx="38" cy="674" r="2.0" fill="#fff" opacity="0.36"/><circle cx="358" cy="301" r="1.8" fill="#fff" opacity="0.31"/><circle cx="105" cy="54" r="3.0" fill="#fff" opacity="0.44"/><circle cx="470" cy="101" r="1.7" fill="#fff" opacity="0.36"/><circle cx="93" cy="7" r="2.7" fill="#fff" opacity="0.40"/><circle cx="271" cy="264" r="2.3" fill="#fff" opacity="0.61"/><circle cx="15" cy="255" r="1.0" fill="#fff" opacity="0.26"/><circle cx="425" cy="693" r="2.9" fill="#fff" opacity="0.35"/><circle cx="486" cy="369" r="1.7" fill="#fff" opacity="0.47"/><circle cx="424" cy="0" r="2.9" fill="#fff" opacity="0.45"/><circle cx="171" cy="122" r="1.6" fill="#fff" opacity="0.43"/><circle cx="180" cy="719" r="1.7" fill="#fff" opacity="0.56"/><circle cx="347" cy="167" r="1.6" fill="#fff" opacity="0.39"/></g>
  <path d="M69 625 C150 571 359 568 443 628" fill="#9b5de5" opacity=".14"/>
  <ellipse cx="256" cy="662" rx="150" ry="34" fill="#4f2378" opacity=".28"/>
  <g transform="translate(0 122)">
    <ellipse cx="178.10000000000002" cy="257.2" rx="69.69999999999999" ry="100.44999999999999" fill="#efb2ff" opacity=".55"/><ellipse cx="333.9" cy="257.2" rx="69.69999999999999" ry="100.44999999999999" fill="#efb2ff" opacity=".55"/><ellipse cx="256" cy="331" rx="65.6" ry="122.99999999999999" fill="url(#body)" filter="url(#softShadow)"/><circle cx="256" cy="214.15" r="69.69999999999999" fill="url(#head)"/><path d="M219.1 160.85000000000002 Q174 93.20000000000002 118.65 117.80000000000001" stroke="#4f2378" stroke-width="10.25" fill="none" stroke-linecap="round"/><path d="M292.9 160.85000000000002 Q338 93.20000000000002 393.35 117.80000000000001" stroke="#4f2378" stroke-width="10.25" fill="none" stroke-linecap="round"/><path d="M198.60000000000002 322.8 H313.4 M206.8 376.1 H305.2" stroke="#4f2378" stroke-width="8.2" opacity=".35"/><ellipse cx="223.2" cy="253.1" rx="14.349999999999998" ry="16.4" fill="#14213d"/><ellipse cx="288.8" cy="253.1" rx="14.349999999999998" ry="16.4" fill="#14213d"/><circle cx="229.35" cy="244.9" r="4.714999999999999" fill="#fff"/><circle cx="294.95" cy="244.9" r="4.714999999999999" fill="#fff"/><path d="M256 183.4 L278.55 212.10000000000002 L256 242.85 L233.45 212.10000000000002 Z" fill="#efb2ff" opacity=".92"/>
  </g>
  <path d="M74 126 C170 65 334 65 438 126" stroke="#fff" stroke-width="16" stroke-linecap="round" opacity=".16"/>
  <path d="M63 676 C162 718 344 718 449 662" stroke="#fff" stroke-width="14" stroke-linecap="round" opacity=".16"/>
</svg>