<svg xmlns="http://www.w3.org/2000/svg" viewBox="0 0 512 768" role="img" aria-label="瘟疫领主 original portrait">
  
  <defs>
    <linearGradient id="bgp295" x1="0" y1="0" x2="1" y2="1">
      <stop offset="0" stop-color="#efb2ff"/>
      <stop offset=".55" stop-color="#9b5de5"/>
      <stop offset="1" stop-color="#4f2378"/>
    </linearGradient>
    <radialGradient id="body" cx=".36" cy=".25" r=".76">
      <stop offset="0" stop-color="#efb2ff"/>
      <stop offset=".6" stop-color="#9b5de5"/>
      <stop offset="1" stop-color="#4f2378"/>
    </radialGradient>
    <radialGradient id="head" cx=".36" cy=".26" r=".72">
      <stop offset="0" stop-color="#ffffff" stop-opacity=".85"/>
      <stop offset=".2" stop-color="#efb2ff"/>
      <stop offset=".72" stop-color="#9b5de5"/>
      <stop offset="1" stop-color="#4f2378"/>
    </radialGradient>
    <filter id="softShadow" x="-30%" y="-30%" width="160%" height="160%">
      <feDropShadow dx="0" dy="8" stdDeviation="8" flood-color="#4f2378" flood-opacity=".35"/>
    </filter>
  </defs>
  <rect width="512" height="768" rx="48" fill="url(#bgp295)"/>
  <rect x="24" y="24" width="464" height="720" rx="40" fill="#ffffff" opacity=".08"/>
  <g opacity=".42"><circle cx="201" cy="443" r="2.1" fill="#fff" opacity="0.54"/><circle cx="19" cy="524" r="0.9" fill="#fff" opacity="0.66"/><circle cx="464" cy="616" r="1.3" fill="#fff" opacity="0.63"/><circle cx="86" cy="304" r="0.8" fill="#fff" opacity="0.27"/><circle cx="169" cy="454" r="0.9" fill="#fff" opacity="0.57"/><circle cx="259" cy="515" r="1.4" fill="#fff" opacity="0.62"/><circle cx="473" cy="55" r="2.4" fill="#fff" opacity="0.61"/><circle cx="254" cy="710" r="1.6" fill="#fff" opacity="0.42"/><circle cx="405" cy="572" r="3.0" fill="#fff" opacity="0.58"/><circle cx="457" cy="559" r="1.3" fill="#fff" opacity="0.42"/><circle cx="87" cy="634" r="1.9" fill="#fff" opacity="0.60"/><circle cx="14" cy="184" r="2.8" fill="#fff" opacity="0.41"/><circle cx="232" cy="433" r="1.2" fill="#fff" opacity="0.58"/><circle cx="60" cy="138" r="2.7" fill="#fff" opacity="0.52"/><circle cx="392" cy="562" r="2.7" fill="#fff" opacity="0.28"/><circle cx="423" cy="300" r="1.1" fill="#fff" opacity="0.38"/><circle cx="352" cy="514" r="1.9" fill="#fff" opacity="0.64"/><circle cx="48" cy="26" r="2.0" fill="#fff" opacity="0.31"/><circle cx="434" cy="374" r="0.8" fill="#fff" opacity="0.42"/><circle cx="90" cy="138" r="2.4" fill="#fff" opacity="0.34"/><circle cx="205" cy="183" r="1.9" fill="#fff" opacity="0.70"/><circle cx="471" cy="531" r="2.3" fill="#fff" opacity="0.49"/><circle cx="33" cy="53" r="2.5" fill="#fff" opacity="0.41"/><circle cx="53" cy="709" r="2.2" fill="#fff" opacity="0.56"/><circle cx="106" cy="598" r="1.9" fill="#fff" opacity="0.29"/><circle cx="303" cy="484" r="2.6" fill="#fff" opacity="0.29"/><circle cx="57" cy="64" r="2.3" fill="#fff" opacity="0.41"/><circle cx="460" cy="173" r="2.0" fill="#fff" opacity="0.63"/></g>
  <path d="M38 684 C128 596 386 596 475 684 V768 H38Z" fill="#4f2378" opacity=".17"/>
  <ellipse cx="256" cy="662" rx="150" ry="34" fill="#4f2378" opacity=".28"/>
  <g transform="translate(0 122)">
    <ellipse cx="256" cy="359.7" rx="110.69999999999999" ry="100.44999999999999" fill="url(#body)" filter="url(#softShadow)"/><circle cx="256" cy="232.60000000000002" r="86.1" fill="url(#head)"/><path d="M149.4 322.8 C51.00000000000003 304.35 85.85000000000002 423.25 165.8 402.75" fill="#4f2378"/><path d="M362.6 322.8 C461 304.35 426.15 423.25 346.2 402.75" fill="#4f2378"/><path d="M200.65 148.55 H311.35 L331.85 195.7 Q256 224.4 180.15 195.7 Z" fill="#efb2ff" opacity=".85"/><ellipse cx="223.2" cy="253.1" rx="14.349999999999998" ry="16.4" fill="#14213d"/><ellipse cx="288.8" cy="253.1" rx="14.349999999999998" ry="16.4" fill="#14213d"/><circle cx="229.35" cy="244.9" r="4.714999999999999" fill="#fff"/><circle cx="294.95" cy="244.9" r="4.714999999999999" fill="#fff"/><circle cx="256" cy="210.05" r="14.349999999999998" fill="#efb2ff" opacity=".9"/>
  </g>
  <path d="M74 126 C170 65 334 65 438 126" stroke="#fff" stroke-width="16" stroke-linecap="round" opacity=".16"/>
  <path d="M63 676 C162 718 344 718 449 662" stroke="#fff" stroke-width="14" stroke-linecap="round" opacity=".16"/>
</svg>