<svg xmlns="http://www.w3.org/2000/svg" viewBox="0 0 512 768" role="img" aria-label="掘地小子 original portrait">
  
  <defs>
    <linearGradient id="bgp296" x1="0" y1="0" x2="1" y2="1">
      <stop offset="0" stop-color="#e9c68f"/>
      <stop offset=".55" stop-color="#a0713d"/>
      <stop offset="1" stop-color="#5a3b22"/>
    </linearGradient>
    <radialGradient id="body" cx=".36" cy=".25" r=".76">
      <stop offset="0" stop-color="#e9c68f"/>
      <stop offset=".6" stop-color="#a0713d"/>
      <stop offset="1" stop-color="#5a3b22"/>
    </radialGradient>
    <radialGradient id="head" cx=".36" cy=".26" r=".72">
      <stop offset="0" stop-color="#ffffff" stop-opacity=".85"/>
      <stop offset=".2" stop-color="#e9c68f"/>
      <stop offset=".72" stop-color="#a0713d"/>
      <stop offset="1" stop-color="#5a3b22"/>
    </radialGradient>
    <filter id="softShadow" x="-30%" y="-30%" width="160%" height="160%">
      <feDropShadow dx="0" dy="8" stdDeviation="8" flood-color="#5a3b22" flood-opacity=".35"/>
    </filter>
  </defs>
  <rect width="512" height="768" rx="48" fill="url(#bgp296)"/>
  <rect x="24" y="24" width="464" height="720" rx="40" fill="#ffffff" opacity=".08"/>
  <g opacity=".42"><circle cx="290" cy="371" r="2.5" fill="#fff" opacity="0.38"/><circle cx="196" cy="544" r="2.0" fill="#fff" opacity="0.36"/><circle cx="143" cy="604" r="1.8" fill="#fff" opacity="0.59"/><circle cx="149" cy="534" r="3.0" fill="#fff" opacity="0.42"/><circle cx="510" cy="87" r="2.4" fill="#fff" opacity="0.44"/><circle cx="509" cy="509" r="1.9" fill="#fff" opacity="0.34"/><circle cx="274" cy="347" r="2.3" fill="#fff" opacity="0.48"/><circle cx="374" cy="342" r="1.2" fill="#fff" opacity="0.35"/><circle cx="6" cy="415" r="1.9" fill="#fff" opacity="0.33"/><circle cx="336" cy="126" r="3.0" fill="#fff" opacity="0.38"/><circle cx="136" cy="93" r="1.3" fill="#fff" opacity="0.58"/><circle cx="175" cy="665" r="1.1" fill="#fff" opacity="0.28"/><circle cx="437" cy="344" r="1.9" fill="#fff" opacity="0.60"/><circle cx="209" cy="86" r="1.4" fill="#fff" opacity="0.32"/><circle cx="265" cy="566" r="2.8" fill="#fff" opacity="0.53"/><circle cx="127" cy="565" r="2.8" fill="#fff" opacity="0.43"/><circle cx="172" cy="114" r="2.6" fill="#fff" opacity="0.62"/><circle cx="44" cy="694" r="1.0" fill="#fff" opacity="0.42"/><circle cx="128" cy="515" r="1.8" fill="#fff" opacity="0.50"/><circle cx="354" cy="177" r="2.9" fill="#fff" opacity="0.30"/><circle cx="470" cy="60" r="1.3" fill="#fff" opacity="0.63"/><circle cx="271" cy="180" r="1.5" fill="#fff" opacity="0.28"/><circle cx="372" cy="402" r="1.6" fill="#fff" opacity="0.43"/><circle cx="20" cy="750" r="2.3" fill="#fff" opacity="0.33"/><circle cx="28" cy="20" r="0.8" fill="#fff" opacity="0.60"/><circle cx="306" cy="467" r="2.8" fill="#fff" opacity="0.60"/><circle cx="319" cy="45" r="1.1" fill="#fff" opacity="0.49"/><circle cx="69" cy="104" r="1.6" fill="#fff" opacity="0.56"/></g>
  <path d="M24 680 L110 610 L186 666 L272 592 L356 674 L445 626 L512 704 V768 H0V704Z" fill="#5a3b22" opacity=".18"/>
  <ellipse cx="256" cy="662" rx="150" ry="34" fill="#5a3b22" opacity=".28"/>
  <g transform="translate(0 122)">
    <path d="M149.4 228.5 L219.1 156.75 H311.35 L376.95 242.85 L346.2 394.55 H163.75 Z" fill="url(#body)" filter="url(#softShadow)"/><path d="M198.60000000000002 179.3 L245.75 91.15 L280.6 171.10000000000002 Z" fill="#e9c68f"/><path d="M290.85 183.4 L344.15 113.70000000000002 L342.1 210.05 Z" fill="#a0713d"/><rect x="194.5" y="277.7" width="122.99999999999999" height="30.749999999999996" rx="14.349999999999998" fill="#5a3b22" opacity=".38"/><circle cx="227.3" cy="292.05" r="10.25" fill="#e9c68f"/><circle cx="284.7" cy="292.05" r="10.25" fill="#e9c68f"/><path d="M215 201.85000000000002 Q256 224.4 297 201.85000000000002" stroke="#e9c68f" stroke-width="10.25" fill="none" stroke-linecap="round" opacity=".8"/>
  </g>
  <path d="M74 126 C170 65 334 65 438 126" stroke="#fff" stroke-width="16" stroke-linecap="round" opacity=".16"/>
  <path d="M63 676 C162 718 344 718 449 662" stroke="#fff" stroke-width="14" stroke-linecap="round" opacity=".16"/>
</svg>