<svg xmlns="http://www.w3.org/2000/svg" viewBox="0 0 512 768" role="img" aria-label="地心破坏者 original portrait">
  
  <defs>
    <linearGradient id="bgp298" x1="0" y1="0" x2="1" y2="1">
      <stop offset="0" stop-color="#ffc0a6"/>
      <stop offset=".55" stop-color="#d95f3d"/>
      <stop offset="1" stop-color="#7a271d"/>
    </linearGradient>
    <radialGradient id="body" cx=".36" cy=".25" r=".76">
      <stop offset="0" stop-color="#ffc0a6"/>
      <stop offset=".6" stop-color="#d95f3d"/>
      <stop offset="1" stop-color="#7a271d"/>
    </radialGradient>
    <radialGradient id="head" cx=".36" cy=".26" r=".72">
      <stop offset="0" stop-color="#ffffff" stop-opacity=".85"/>
      <stop offset=".2" stop-color="#ffc0a6"/>
      <stop offset=".72" stop-color="#d95f3d"/>
      <stop offset="1" stop-color="#7a271d"/>
    </radialGradient>
    <filter id="softShadow" x="-30%" y="-30%" width="160%" height="160%">
      <feDropShadow dx="0" dy="8" stdDeviation="8" flood-color="#7a271d" flood-opacity=".35"/>
    </filter>
  </defs>
  <rect width="512" height="768" rx="48" fill="url(#bgp298)"/>
  <rect x="24" y="24" width="464" height="720" rx="40" fill="#ffffff" opacity=".08"/>
  <g opacity=".42"><circle cx="280" cy="198" r="1.3" fill="#fff" opacity="0.50"/><circle cx="229" cy="764" r="1.6" fill="#fff" opacity="0.33"/><circle cx="459" cy="150" r="1.1" fill="#fff" opacity="0.33"/><circle cx="136" cy="220" r="1.9" fill="#fff" opacity="0.65"/><circle cx="70" cy="632" r="1.4" fill="#fff" opacity="0.36"/><circle cx="206" cy="221" r="3.1" fill="#fff" opacity="0.66"/><circle cx="150" cy="759" r="0.9" fill="#fff" opacity="0.64"/><circle cx="280" cy="193" r="3.0" fill="#fff" opacity="0.43"/><circle cx="490" cy="84" r="2.1" fill="#fff" opacity="0.41"/><circle cx="228" cy="5" r="1.8" fill="#fff" opacity="0.69"/><circle cx="92" cy="334" r="3.2" fill="#fff" opacity="0.29"/><circle cx="504" cy="593" r="2.3" fill="#fff" opacity="0.32"/><circle cx="487" cy="442" r="2.5" fill="#fff" opacity="0.67"/><circle cx="264" cy="207" r="3.1" fill="#fff" opacity="0.57"/><circle cx="323" cy="205" r="2.7" fill="#fff" opacity="0.67"/><circle cx="196" cy="180" r="1.6" fill="#fff" opacity="0.42"/><circle cx="291" cy="611" r="1.6" fill="#fff" opacity="0.33"/><circle cx="463" cy="76" r="1.9" fill="#fff" opacity="0.56"/><circle cx="251" cy="98" r="1.5" fill="#fff" opacity="0.34"/><circle cx="222" cy="482" r="2.6" fill="#fff" opacity="0.28"/><circle cx="274" cy="410" r="2.5" fill="#fff" opacity="0.35"/><circle cx="126" cy="62" r="2.4" fill="#fff" opacity="0.31"/><circle cx="387" cy="62" r="1.0" fill="#fff" opacity="0.67"/><circle cx="376" cy="426" r="2.8" fill="#fff" opacity="0.37"/><circle cx="469" cy="702" r="1.9" fill="#fff" opacity="0.27"/><circle cx="214" cy="47" r="2.8" fill="#fff" opacity="0.54"/><circle cx="24" cy="295" r="2.2" fill="#fff" opacity="0.30"/><circle cx="185" cy="40" r="2.0" fill="#fff" opacity="0.56"/></g>
  <path d="M38 684 C128 596 386 596 475 684 V768 H38Z" fill="#7a271d" opacity=".17"/>
  <ellipse cx="256" cy="662" rx="150" ry="34" fill="#7a271d" opacity=".28"/>
  <g transform="translate(0 122)">
    <ellipse cx="256" cy="359.7" rx="110.69999999999999" ry="100.44999999999999" fill="url(#body)" filter="url(#softShadow)"/><circle cx="256" cy="232.60000000000002" r="86.1" fill="url(#head)"/><path d="M149.4 322.8 C51.00000000000003 304.35 85.85000000000002 423.25 165.8 402.75" fill="#7a271d"/><path d="M362.6 322.8 C461 304.35 426.15 423.25 346.2 402.75" fill="#7a271d"/><path d="M200.65 148.55 H311.35 L331.85 195.7 Q256 224.4 180.15 195.7 Z" fill="#ffc0a6" opacity=".85"/><ellipse cx="223.2" cy="253.1" rx="14.349999999999998" ry="16.4" fill="#14213d"/><ellipse cx="288.8" cy="253.1" rx="14.349999999999998" ry="16.4" fill="#14213d"/><circle cx="229.35" cy="244.9" r="4.714999999999999" fill="#fff"/><circle cx="294.95" cy="244.9" r="4.714999999999999" fill="#fff"/><circle cx="256" cy="210.05" r="14.349999999999998" fill="#ffc0a6" opacity=".9"/>
  </g>
  <path d="M74 126 C170 65 334 65 438 126" stroke="#fff" stroke-width="16" stroke-linecap="round" opacity=".16"/>
  <path d="M63 676 C162 718 344 718 449 662" stroke="#fff" stroke-width="14" stroke-linecap="round" opacity=".16"/>
</svg>