<svg xmlns="http://www.w3.org/2000/svg" viewBox="0 0 512 768" role="img" aria-label="幼龙仙子 original portrait">
  
  <defs>
    <linearGradient id="bgp299" x1="0" y1="0" x2="1" y2="1">
      <stop offset="0" stop-color="#ffd7f3"/>
      <stop offset=".55" stop-color="#f47ac2"/>
      <stop offset="1" stop-color="#8e3b89"/>
    </linearGradient>
    <radialGradient id="body" cx=".36" cy=".25" r=".76">
      <stop offset="0" stop-color="#ffd7f3"/>
      <stop offset=".6" stop-color="#f47ac2"/>
      <stop offset="1" stop-color="#8e3b89"/>
    </radialGradient>
    <radialGradient id="head" cx=".36" cy=".26" r=".72">
      <stop offset="0" stop-color="#ffffff" stop-opacity=".85"/>
      <stop offset=".2" stop-color="#ffd7f3"/>
      <stop offset=".72" stop-color="#f47ac2"/>
      <stop offset="1" stop-color="#8e3b89"/>
    </radialGradient>
    <filter id="softShadow" x="-30%" y="-30%" width="160%" height="160%">
      <feDropShadow dx="0" dy="8" stdDeviation="8" flood-color="#8e3b89" flood-opacity=".35"/>
    </filter>
  </defs>
  <rect width="512" height="768" rx="48" fill="url(#bgp299)"/>
  <rect x="24" y="24" width="464" height="720" rx="40" fill="#ffffff" opacity=".08"/>
  <g opacity=".42"><circle cx="370" cy="506" r="2.8" fill="#fff" opacity="0.52"/><circle cx="251" cy="114" r="0.9" fill="#fff" opacity="0.66"/><circle cx="82" cy="563" r="3.0" fill="#fff" opacity="0.30"/><circle cx="389" cy="650" r="2.4" fill="#fff" opacity="0.44"/><circle cx="22" cy="574" r="2.2" fill="#fff" opacity="0.47"/><circle cx="326" cy="55" r="3.0" fill="#fff" opacity="0.27"/><circle cx="86" cy="412" r="1.0" fill="#fff" opacity="0.57"/><circle cx="89" cy="491" r="1.9" fill="#fff" opacity="0.69"/><circle cx="226" cy="9" r="0.9" fill="#fff" opacity="0.28"/><circle cx="258" cy="472" r="2.3" fill="#fff" opacity="0.44"/><circle cx="405" cy="213" r="1.2" fill="#fff" opacity="0.29"/><circle cx="472" cy="269" r="2.0" fill="#fff" opacity="0.40"/><circle cx="381" cy="272" r="1.9" fill="#fff" opacity="0.37"/><circle cx="473" cy="227" r="1.8" fill="#fff" opacity="0.45"/><circle cx="439" cy="196" r="1.7" fill="#fff" opacity="0.27"/><circle cx="428" cy="400" r="3.1" fill="#fff" opacity="0.37"/><circle cx="445" cy="465" r="1.9" fill="#fff" opacity="0.40"/><circle cx="428" cy="225" r="2.9" fill="#fff" opacity="0.29"/><circle cx="406" cy="732" r="1.7" fill="#fff" opacity="0.54"/><circle cx="10" cy="55" r="2.4" fill="#fff" opacity="0.28"/><circle cx="268" cy="456" r="2.4" fill="#fff" opacity="0.60"/><circle cx="437" cy="81" r="3.0" fill="#fff" opacity="0.36"/><circle cx="49" cy="88" r="2.1" fill="#fff" opacity="0.54"/><circle cx="166" cy="675" r="2.2" fill="#fff" opacity="0.64"/><circle cx="210" cy="165" r="2.0" fill="#fff" opacity="0.54"/><circle cx="228" cy="107" r="2.1" fill="#fff" opacity="0.27"/><circle cx="76" cy="230" r="1.1" fill="#fff" opacity="0.35"/><circle cx="187" cy="586" r="1.9" fill="#fff" opacity="0.66"/></g>
  <path d="M70 600 C142 504 297 500 443 610" fill="#8e3b89" opacity=".18"/><path d="M52 642 C146 578 341 580 471 650" fill="#8e3b89" opacity=".16"/>
  <ellipse cx="256" cy="662" rx="150" ry="34" fill="#8e3b89" opacity=".28"/>
  <g transform="translate(0 122)">
    <path d="M108.4 347.4 C161.7 224.4 292.9 175.20000000000002 389.25 253.1 C325.7 249 276.5 285.9 247.8 376.1" fill="#8e3b89" opacity=".45"/><ellipse cx="256" cy="335.1" rx="110.69999999999999" ry="92.24999999999999" fill="url(#body)" filter="url(#softShadow)"/><path d="M167.85000000000002 253.1 L219.1 130.10000000000002 L249.85 244.9 Z" fill="#f47ac2"/><path d="M344.15 253.1 L292.9 130.10000000000002 L262.15 244.9 Z" fill="#f47ac2"/><ellipse cx="256" cy="267.45" rx="96.35" ry="86.1" fill="url(#head)"/><path d="M151.45 292.05 Q87.9 298.2 63.30000000000001 253.1" stroke="#ffd7f3" stroke-width="10.25" fill="none" stroke-linecap="round" opacity=".85"/><path d="M360.55 292.05 Q424.1 298.2 448.7 253.1" stroke="#ffd7f3" stroke-width="10.25" fill="none" stroke-linecap="round" opacity=".85"/><ellipse cx="223.2" cy="253.1" rx="14.349999999999998" ry="16.4" fill="#14213d"/><ellipse cx="288.8" cy="253.1" rx="14.349999999999998" ry="16.4" fill="#14213d"/><circle cx="229.35" cy="244.9" r="4.714999999999999" fill="#fff"/><circle cx="294.95" cy="244.9" r="4.714999999999999" fill="#fff"/><path d="M215 201.85000000000002 Q256 224.4 297 201.85000000000002" stroke="#ffd7f3" stroke-width="10.25" fill="none" stroke-linecap="round" opacity=".8"/>
  </g>
  <path d="M74 126 C170 65 334 65 438 126" stroke="#fff" stroke-width="16" stroke-linecap="round" opacity=".16"/>
  <path d="M63 676 C162 718 344 718 449 662" stroke="#fff" stroke-width="14" stroke-linecap="round" opacity=".16"/>
</svg>