<svg xmlns="http://www.w3.org/2000/svg" viewBox="0 0 512 768" role="img" aria-label="冰晶企鹅 original portrait">
  
  <defs>
    <linearGradient id="bgp30" x1="0" y1="0" x2="1" y2="1">
      <stop offset="0" stop-color="#d7fbff"/>
      <stop offset=".55" stop-color="#71d6e8"/>
      <stop offset="1" stop-color="#318aa3"/>
    </linearGradient>
    <radialGradient id="body" cx=".36" cy=".25" r=".76">
      <stop offset="0" stop-color="#d7fbff"/>
      <stop offset=".6" stop-color="#71d6e8"/>
      <stop offset="1" stop-color="#318aa3"/>
    </radialGradient>
    <radialGradient id="head" cx=".36" cy=".26" r=".72">
      <stop offset="0" stop-color="#ffffff" stop-opacity=".85"/>
      <stop offset=".2" stop-color="#d7fbff"/>
      <stop offset=".72" stop-color="#71d6e8"/>
      <stop offset="1" stop-color="#318aa3"/>
    </radialGradient>
    <filter id="softShadow" x="-30%" y="-30%" width="160%" height="160%">
      <feDropShadow dx="0" dy="8" stdDeviation="8" flood-color="#318aa3" flood-opacity=".35"/>
    </filter>
  </defs>
  <rect width="512" height="768" rx="48" fill="url(#bgp30)"/>
  <rect x="24" y="24" width="464" height="720" rx="40" fill="#ffffff" opacity=".08"/>
  <g opacity=".42"><circle cx="298" cy="103" r="2.5" fill="#fff" opacity="0.31"/><circle cx="476" cy="515" r="1.4" fill="#fff" opacity="0.39"/><circle cx="120" cy="704" r="1.0" fill="#fff" opacity="0.59"/><circle cx="291" cy="22" r="3.0" fill="#fff" opacity="0.70"/><circle cx="7" cy="313" r="2.0" fill="#fff" opacity="0.31"/><circle cx="417" cy="613" r="1.2" fill="#fff" opacity="0.59"/><circle cx="172" cy="654" r="3.1" fill="#fff" opacity="0.57"/><circle cx="359" cy="385" r="2.3" fill="#fff" opacity="0.54"/><circle cx="24" cy="338" r="3.1" fill="#fff" opacity="0.60"/><circle cx="451" cy="154" r="2.3" fill="#fff" opacity="0.41"/><circle cx="330" cy="541" r="2.9" fill="#fff" opacity="0.59"/><circle cx="364" cy="452" r="2.7" fill="#fff" opacity="0.67"/><circle cx="97" cy="727" r="2.9" fill="#fff" opacity="0.42"/><circle cx="471" cy="311" r="2.9" fill="#fff" opacity="0.67"/><circle cx="103" cy="613" r="2.4" fill="#fff" opacity="0.49"/><circle cx="316" cy="362" r="2.5" fill="#fff" opacity="0.31"/><circle cx="22" cy="209" r="2.6" fill="#fff" opacity="0.61"/><circle cx="316" cy="142" r="1.3" fill="#fff" opacity="0.67"/><circle cx="102" cy="488" r="1.1" fill="#fff" opacity="0.31"/><circle cx="167" cy="8" r="2.9" fill="#fff" opacity="0.50"/><circle cx="216" cy="117" r="2.7" fill="#fff" opacity="0.42"/><circle cx="231" cy="653" r="1.3" fill="#fff" opacity="0.37"/><circle cx="485" cy="521" r="1.7" fill="#fff" opacity="0.60"/><circle cx="216" cy="507" r="2.1" fill="#fff" opacity="0.29"/><circle cx="88" cy="746" r="2.8" fill="#fff" opacity="0.36"/><circle cx="197" cy="261" r="1.7" fill="#fff" opacity="0.60"/><circle cx="107" cy="603" r="1.0" fill="#fff" opacity="0.55"/><circle cx="121" cy="502" r="1.2" fill="#fff" opacity="0.61"/></g>
  <path d="M24 680 L110 610 L186 666 L272 592 L356 674 L445 626 L512 704 V768 H0V704Z" fill="#318aa3" opacity=".18"/>
  <ellipse cx="256" cy="662" rx="150" ry="34" fill="#318aa3" opacity=".28"/>
  <g transform="translate(0 122)">
    <path d="M149.4 228.5 L219.1 156.75 H311.35 L376.95 242.85 L346.2 394.55 H163.75 Z" fill="url(#body)" filter="url(#softShadow)"/><path d="M198.60000000000002 179.3 L245.75 91.15 L280.6 171.10000000000002 Z" fill="#d7fbff"/><path d="M290.85 183.4 L344.15 113.70000000000002 L342.1 210.05 Z" fill="#71d6e8"/><rect x="194.5" y="277.7" width="122.99999999999999" height="30.749999999999996" rx="14.349999999999998" fill="#318aa3" opacity=".38"/><circle cx="227.3" cy="292.05" r="10.25" fill="#d7fbff"/><circle cx="284.7" cy="292.05" r="10.25" fill="#d7fbff"/><path d="M256 183.4 L278.55 212.10000000000002 L256 242.85 L233.45 212.10000000000002 Z" fill="#d7fbff" opacity=".92"/>
  </g>
  <path d="M74 126 C170 65 334 65 438 126" stroke="#fff" stroke-width="16" stroke-linecap="round" opacity=".16"/>
  <path d="M63 676 C162 718 344 718 449 662" stroke="#fff" stroke-width="14" stroke-linecap="round" opacity=".16"/>
</svg>