<svg xmlns="http://www.w3.org/2000/svg" viewBox="0 0 512 768" role="img" aria-label="炼狱狮王 original portrait">
  
  <defs>
    <linearGradient id="bgp302" x1="0" y1="0" x2="1" y2="1">
      <stop offset="0" stop-color="#ffd166"/>
      <stop offset=".55" stop-color="#ff6b35"/>
      <stop offset="1" stop-color="#a92d1d"/>
    </linearGradient>
    <radialGradient id="body" cx=".36" cy=".25" r=".76">
      <stop offset="0" stop-color="#ffd166"/>
      <stop offset=".6" stop-color="#ff6b35"/>
      <stop offset="1" stop-color="#a92d1d"/>
    </radialGradient>
    <radialGradient id="head" cx=".36" cy=".26" r=".72">
      <stop offset="0" stop-color="#ffffff" stop-opacity=".85"/>
      <stop offset=".2" stop-color="#ffd166"/>
      <stop offset=".72" stop-color="#ff6b35"/>
      <stop offset="1" stop-color="#a92d1d"/>
    </radialGradient>
    <filter id="softShadow" x="-30%" y="-30%" width="160%" height="160%">
      <feDropShadow dx="0" dy="8" stdDeviation="8" flood-color="#a92d1d" flood-opacity=".35"/>
    </filter>
  </defs>
  <rect width="512" height="768" rx="48" fill="url(#bgp302)"/>
  <rect x="24" y="24" width="464" height="720" rx="40" fill="#ffffff" opacity=".08"/>
  <g opacity=".42"><circle cx="381" cy="477" r="2.0" fill="#fff" opacity="0.57"/><circle cx="236" cy="758" r="0.8" fill="#fff" opacity="0.59"/><circle cx="407" cy="635" r="1.2" fill="#fff" opacity="0.67"/><circle cx="244" cy="33" r="1.4" fill="#fff" opacity="0.70"/><circle cx="255" cy="233" r="1.8" fill="#fff" opacity="0.68"/><circle cx="202" cy="38" r="3.0" fill="#fff" opacity="0.68"/><circle cx="138" cy="660" r="2.9" fill="#fff" opacity="0.53"/><circle cx="316" cy="454" r="0.8" fill="#fff" opacity="0.59"/><circle cx="136" cy="329" r="1.2" fill="#fff" opacity="0.66"/><circle cx="35" cy="95" r="1.0" fill="#fff" opacity="0.39"/><circle cx="341" cy="753" r="2.2" fill="#fff" opacity="0.65"/><circle cx="190" cy="556" r="2.2" fill="#fff" opacity="0.36"/><circle cx="116" cy="200" r="2.8" fill="#fff" opacity="0.39"/><circle cx="79" cy="765" r="1.2" fill="#fff" opacity="0.45"/><circle cx="346" cy="294" r="1.5" fill="#fff" opacity="0.59"/><circle cx="163" cy="683" r="2.6" fill="#fff" opacity="0.58"/><circle cx="268" cy="253" r="2.6" fill="#fff" opacity="0.61"/><circle cx="394" cy="274" r="2.0" fill="#fff" opacity="0.64"/><circle cx="193" cy="685" r="2.5" fill="#fff" opacity="0.53"/><circle cx="18" cy="453" r="1.9" fill="#fff" opacity="0.27"/><circle cx="423" cy="368" r="1.7" fill="#fff" opacity="0.56"/><circle cx="358" cy="289" r="2.9" fill="#fff" opacity="0.62"/><circle cx="8" cy="490" r="2.4" fill="#fff" opacity="0.56"/><circle cx="467" cy="724" r="1.2" fill="#fff" opacity="0.64"/><circle cx="381" cy="48" r="3.2" fill="#fff" opacity="0.69"/><circle cx="71" cy="536" r="1.6" fill="#fff" opacity="0.63"/><circle cx="406" cy="499" r="1.5" fill="#fff" opacity="0.34"/><circle cx="437" cy="563" r="0.9" fill="#fff" opacity="0.29"/></g>
  <path d="M38 684 C128 596 386 596 475 684 V768 H38Z" fill="#a92d1d" opacity=".17"/>
  <ellipse cx="256" cy="662" rx="150" ry="34" fill="#a92d1d" opacity=".28"/>
  <g transform="translate(0 122)">
    <ellipse cx="256" cy="359.7" rx="110.69999999999999" ry="100.44999999999999" fill="url(#body)" filter="url(#softShadow)"/><circle cx="256" cy="232.60000000000002" r="86.1" fill="url(#head)"/><path d="M149.4 322.8 C51.00000000000003 304.35 85.85000000000002 423.25 165.8 402.75" fill="#a92d1d"/><path d="M362.6 322.8 C461 304.35 426.15 423.25 346.2 402.75" fill="#a92d1d"/><path d="M200.65 148.55 H311.35 L331.85 195.7 Q256 224.4 180.15 195.7 Z" fill="#ffd166" opacity=".85"/><ellipse cx="223.2" cy="253.1" rx="14.349999999999998" ry="16.4" fill="#14213d"/><ellipse cx="288.8" cy="253.1" rx="14.349999999999998" ry="16.4" fill="#14213d"/><circle cx="229.35" cy="244.9" r="4.714999999999999" fill="#fff"/><circle cx="294.95" cy="244.9" r="4.714999999999999" fill="#fff"/><path d="M215 201.85000000000002 Q256 224.4 297 201.85000000000002" stroke="#ffd166" stroke-width="10.25" fill="none" stroke-linecap="round" opacity=".8"/>
  </g>
  <path d="M74 126 C170 65 334 65 438 126" stroke="#fff" stroke-width="16" stroke-linecap="round" opacity=".16"/>
  <path d="M63 676 C162 718 344 718 449 662" stroke="#fff" stroke-width="14" stroke-linecap="round" opacity=".16"/>
</svg>