<svg xmlns="http://www.w3.org/2000/svg" viewBox="0 0 512 768" role="img" aria-label="风暴雷神 original portrait">
  
  <defs>
    <linearGradient id="bgp305" x1="0" y1="0" x2="1" y2="1">
      <stop offset="0" stop-color="#fff27a"/>
      <stop offset=".55" stop-color="#f9c80e"/>
      <stop offset="1" stop-color="#7a5200"/>
    </linearGradient>
    <radialGradient id="body" cx=".36" cy=".25" r=".76">
      <stop offset="0" stop-color="#fff27a"/>
      <stop offset=".6" stop-color="#f9c80e"/>
      <stop offset="1" stop-color="#7a5200"/>
    </radialGradient>
    <radialGradient id="head" cx=".36" cy=".26" r=".72">
      <stop offset="0" stop-color="#ffffff" stop-opacity=".85"/>
      <stop offset=".2" stop-color="#fff27a"/>
      <stop offset=".72" stop-color="#f9c80e"/>
      <stop offset="1" stop-color="#7a5200"/>
    </radialGradient>
    <filter id="softShadow" x="-30%" y="-30%" width="160%" height="160%">
      <feDropShadow dx="0" dy="8" stdDeviation="8" flood-color="#7a5200" flood-opacity=".35"/>
    </filter>
  </defs>
  <rect width="512" height="768" rx="48" fill="url(#bgp305)"/>
  <rect x="24" y="24" width="464" height="720" rx="40" fill="#ffffff" opacity=".08"/>
  <g opacity=".42"><circle cx="88" cy="118" r="2.3" fill="#fff" opacity="0.61"/><circle cx="163" cy="162" r="2.1" fill="#fff" opacity="0.27"/><circle cx="74" cy="513" r="0.9" fill="#fff" opacity="0.45"/><circle cx="24" cy="601" r="1.9" fill="#fff" opacity="0.38"/><circle cx="144" cy="278" r="2.9" fill="#fff" opacity="0.69"/><circle cx="235" cy="40" r="2.9" fill="#fff" opacity="0.41"/><circle cx="270" cy="159" r="1.6" fill="#fff" opacity="0.62"/><circle cx="424" cy="269" r="3.1" fill="#fff" opacity="0.27"/><circle cx="107" cy="491" r="1.9" fill="#fff" opacity="0.55"/><circle cx="56" cy="38" r="0.9" fill="#fff" opacity="0.38"/><circle cx="378" cy="577" r="1.1" fill="#fff" opacity="0.34"/><circle cx="469" cy="101" r="3.1" fill="#fff" opacity="0.44"/><circle cx="92" cy="474" r="3.0" fill="#fff" opacity="0.53"/><circle cx="497" cy="258" r="2.8" fill="#fff" opacity="0.52"/><circle cx="1" cy="600" r="1.2" fill="#fff" opacity="0.47"/><circle cx="221" cy="437" r="1.9" fill="#fff" opacity="0.42"/><circle cx="235" cy="313" r="2.5" fill="#fff" opacity="0.55"/><circle cx="326" cy="386" r="2.5" fill="#fff" opacity="0.35"/><circle cx="57" cy="340" r="2.4" fill="#fff" opacity="0.65"/><circle cx="240" cy="485" r="0.9" fill="#fff" opacity="0.31"/><circle cx="294" cy="64" r="2.3" fill="#fff" opacity="0.52"/><circle cx="69" cy="762" r="1.4" fill="#fff" opacity="0.40"/><circle cx="257" cy="327" r="1.0" fill="#fff" opacity="0.30"/><circle cx="185" cy="146" r="1.7" fill="#fff" opacity="0.63"/><circle cx="318" cy="173" r="2.4" fill="#fff" opacity="0.49"/><circle cx="0" cy="661" r="1.8" fill="#fff" opacity="0.36"/><circle cx="366" cy="542" r="3.1" fill="#fff" opacity="0.27"/><circle cx="134" cy="542" r="1.7" fill="#fff" opacity="0.64"/></g>
  <circle cx="256" cy="294" r="203" fill="#fff27a" opacity=".12"/><circle cx="256" cy="294" r="161" fill="#fff" opacity=".1"/>
  <ellipse cx="256" cy="662" rx="150" ry="34" fill="#7a5200" opacity=".28"/>
  <g transform="translate(0 122)">
    <ellipse cx="256" cy="339.2" rx="100.44999999999999" ry="112.74999999999999" fill="url(#body)" filter="url(#softShadow)"/><circle cx="256" cy="226.45" r="79.94999999999999" fill="url(#head)"/><ellipse cx="256" cy="214.15" rx="139.39999999999998" ry="36.9" fill="none" stroke="#fff27a" stroke-width="14.349999999999998" opacity=".75" transform="rotate(-12 256 214.15)"/><path d="M256 103.45000000000002 L276.5 154.70000000000002 L333.9 156.75 L286.75 187.5 L303.15 242.85 L256 208 L208.85 242.85 L225.25 187.5 L178.10000000000002 156.75 L235.5 154.70000000000002 Z" fill="#f9c80e"/><ellipse cx="223.2" cy="253.1" rx="14.349999999999998" ry="16.4" fill="#14213d"/><ellipse cx="288.8" cy="253.1" rx="14.349999999999998" ry="16.4" fill="#14213d"/><circle cx="229.35" cy="244.9" r="4.714999999999999" fill="#fff"/><circle cx="294.95" cy="244.9" r="4.714999999999999" fill="#fff"/><circle cx="256" cy="210.05" r="14.349999999999998" fill="#fff27a" opacity=".9"/>
  </g>
  <path d="M74 126 C170 65 334 65 438 126" stroke="#fff" stroke-width="16" stroke-linecap="round" opacity=".16"/>
  <path d="M63 676 C162 718 344 718 449 662" stroke="#fff" stroke-width="14" stroke-linecap="round" opacity=".16"/>
</svg>