<svg xmlns="http://www.w3.org/2000/svg" viewBox="0 0 512 768" role="img" aria-label="量子反应堆 original portrait">
  
  <defs>
    <linearGradient id="bgp306" x1="0" y1="0" x2="1" y2="1">
      <stop offset="0" stop-color="#e8edf2"/>
      <stop offset=".55" stop-color="#9aa8b7"/>
      <stop offset="1" stop-color="#536271"/>
    </linearGradient>
    <radialGradient id="body" cx=".36" cy=".25" r=".76">
      <stop offset="0" stop-color="#e8edf2"/>
      <stop offset=".6" stop-color="#9aa8b7"/>
      <stop offset="1" stop-color="#536271"/>
    </radialGradient>
    <radialGradient id="head" cx=".36" cy=".26" r=".72">
      <stop offset="0" stop-color="#ffffff" stop-opacity=".85"/>
      <stop offset=".2" stop-color="#e8edf2"/>
      <stop offset=".72" stop-color="#9aa8b7"/>
      <stop offset="1" stop-color="#536271"/>
    </radialGradient>
    <filter id="softShadow" x="-30%" y="-30%" width="160%" height="160%">
      <feDropShadow dx="0" dy="8" stdDeviation="8" flood-color="#536271" flood-opacity=".35"/>
    </filter>
  </defs>
  <rect width="512" height="768" rx="48" fill="url(#bgp306)"/>
  <rect x="24" y="24" width="464" height="720" rx="40" fill="#ffffff" opacity=".08"/>
  <g opacity=".42"><circle cx="155" cy="482" r="1.2" fill="#fff" opacity="0.50"/><circle cx="88" cy="299" r="2.1" fill="#fff" opacity="0.70"/><circle cx="217" cy="197" r="0.9" fill="#fff" opacity="0.57"/><circle cx="294" cy="180" r="2.8" fill="#fff" opacity="0.58"/><circle cx="425" cy="292" r="1.3" fill="#fff" opacity="0.69"/><circle cx="443" cy="681" r="1.5" fill="#fff" opacity="0.37"/><circle cx="191" cy="625" r="1.0" fill="#fff" opacity="0.30"/><circle cx="211" cy="754" r="1.1" fill="#fff" opacity="0.44"/><circle cx="56" cy="527" r="2.8" fill="#fff" opacity="0.49"/><circle cx="356" cy="303" r="2.0" fill="#fff" opacity="0.29"/><circle cx="219" cy="641" r="3.1" fill="#fff" opacity="0.61"/><circle cx="326" cy="651" r="3.0" fill="#fff" opacity="0.54"/><circle cx="123" cy="244" r="3.1" fill="#fff" opacity="0.63"/><circle cx="299" cy="432" r="2.1" fill="#fff" opacity="0.52"/><circle cx="485" cy="119" r="1.2" fill="#fff" opacity="0.46"/><circle cx="156" cy="261" r="2.9" fill="#fff" opacity="0.52"/><circle cx="369" cy="26" r="1.8" fill="#fff" opacity="0.47"/><circle cx="427" cy="572" r="1.6" fill="#fff" opacity="0.25"/><circle cx="94" cy="456" r="2.6" fill="#fff" opacity="0.68"/><circle cx="183" cy="332" r="1.0" fill="#fff" opacity="0.65"/><circle cx="133" cy="626" r="1.5" fill="#fff" opacity="0.64"/><circle cx="196" cy="141" r="2.4" fill="#fff" opacity="0.46"/><circle cx="446" cy="653" r="3.1" fill="#fff" opacity="0.57"/><circle cx="64" cy="386" r="0.9" fill="#fff" opacity="0.66"/><circle cx="199" cy="212" r="1.8" fill="#fff" opacity="0.65"/><circle cx="163" cy="382" r="2.6" fill="#fff" opacity="0.31"/><circle cx="286" cy="263" r="1.2" fill="#fff" opacity="0.56"/><circle cx="438" cy="45" r="1.9" fill="#fff" opacity="0.55"/></g>
  <path d="M24 680 L110 610 L186 666 L272 592 L356 674 L445 626 L512 704 V768 H0V704Z" fill="#536271" opacity=".18"/>
  <ellipse cx="256" cy="662" rx="150" ry="34" fill="#536271" opacity=".28"/>
  <g transform="translate(0 122)">
    <path d="M149.4 228.5 L219.1 156.75 H311.35 L376.95 242.85 L346.2 394.55 H163.75 Z" fill="url(#body)" filter="url(#softShadow)"/><path d="M198.60000000000002 179.3 L245.75 91.15 L280.6 171.10000000000002 Z" fill="#e8edf2"/><path d="M290.85 183.4 L344.15 113.70000000000002 L342.1 210.05 Z" fill="#9aa8b7"/><rect x="194.5" y="277.7" width="122.99999999999999" height="30.749999999999996" rx="14.349999999999998" fill="#536271" opacity=".38"/><circle cx="227.3" cy="292.05" r="10.25" fill="#e8edf2"/><circle cx="284.7" cy="292.05" r="10.25" fill="#e8edf2"/><path d="M256 183.4 L278.55 212.10000000000002 L256 242.85 L233.45 212.10000000000002 Z" fill="#e8edf2" opacity=".92"/>
  </g>
  <path d="M74 126 C170 65 334 65 438 126" stroke="#fff" stroke-width="16" stroke-linecap="round" opacity=".16"/>
  <path d="M63 676 C162 718 344 718 449 662" stroke="#fff" stroke-width="14" stroke-linecap="round" opacity=".16"/>
</svg>