<svg xmlns="http://www.w3.org/2000/svg" viewBox="0 0 512 768" role="img" aria-label="大地撕裂者 original portrait">
  
  <defs>
    <linearGradient id="bgp310" x1="0" y1="0" x2="1" y2="1">
      <stop offset="0" stop-color="#e9c68f"/>
      <stop offset=".55" stop-color="#a0713d"/>
      <stop offset="1" stop-color="#5a3b22"/>
    </linearGradient>
    <radialGradient id="body" cx=".36" cy=".25" r=".76">
      <stop offset="0" stop-color="#e9c68f"/>
      <stop offset=".6" stop-color="#a0713d"/>
      <stop offset="1" stop-color="#5a3b22"/>
    </radialGradient>
    <radialGradient id="head" cx=".36" cy=".26" r=".72">
      <stop offset="0" stop-color="#ffffff" stop-opacity=".85"/>
      <stop offset=".2" stop-color="#e9c68f"/>
      <stop offset=".72" stop-color="#a0713d"/>
      <stop offset="1" stop-color="#5a3b22"/>
    </radialGradient>
    <filter id="softShadow" x="-30%" y="-30%" width="160%" height="160%">
      <feDropShadow dx="0" dy="8" stdDeviation="8" flood-color="#5a3b22" flood-opacity=".35"/>
    </filter>
  </defs>
  <rect width="512" height="768" rx="48" fill="url(#bgp310)"/>
  <rect x="24" y="24" width="464" height="720" rx="40" fill="#ffffff" opacity=".08"/>
  <g opacity=".42"><circle cx="425" cy="267" r="1.5" fill="#fff" opacity="0.48"/><circle cx="469" cy="438" r="1.2" fill="#fff" opacity="0.68"/><circle cx="128" cy="85" r="1.9" fill="#fff" opacity="0.37"/><circle cx="395" cy="448" r="2.4" fill="#fff" opacity="0.68"/><circle cx="401" cy="142" r="1.7" fill="#fff" opacity="0.52"/><circle cx="304" cy="393" r="0.9" fill="#fff" opacity="0.47"/><circle cx="432" cy="696" r="0.9" fill="#fff" opacity="0.37"/><circle cx="396" cy="438" r="1.3" fill="#fff" opacity="0.43"/><circle cx="208" cy="649" r="2.5" fill="#fff" opacity="0.59"/><circle cx="291" cy="320" r="1.4" fill="#fff" opacity="0.52"/><circle cx="337" cy="740" r="1.8" fill="#fff" opacity="0.52"/><circle cx="219" cy="178" r="0.8" fill="#fff" opacity="0.69"/><circle cx="293" cy="388" r="0.8" fill="#fff" opacity="0.32"/><circle cx="42" cy="583" r="1.1" fill="#fff" opacity="0.38"/><circle cx="41" cy="744" r="1.5" fill="#fff" opacity="0.47"/><circle cx="130" cy="95" r="2.4" fill="#fff" opacity="0.51"/><circle cx="63" cy="310" r="2.0" fill="#fff" opacity="0.47"/><circle cx="161" cy="664" r="2.9" fill="#fff" opacity="0.69"/><circle cx="171" cy="580" r="1.9" fill="#fff" opacity="0.54"/><circle cx="418" cy="429" r="1.6" fill="#fff" opacity="0.27"/><circle cx="94" cy="321" r="1.4" fill="#fff" opacity="0.34"/><circle cx="156" cy="44" r="1.8" fill="#fff" opacity="0.41"/><circle cx="306" cy="525" r="3.1" fill="#fff" opacity="0.28"/><circle cx="414" cy="38" r="3.1" fill="#fff" opacity="0.32"/><circle cx="330" cy="592" r="1.5" fill="#fff" opacity="0.34"/><circle cx="160" cy="440" r="1.2" fill="#fff" opacity="0.55"/><circle cx="309" cy="233" r="3.0" fill="#fff" opacity="0.52"/><circle cx="353" cy="742" r="3.0" fill="#fff" opacity="0.52"/></g>
  <path d="M24 680 L110 610 L186 666 L272 592 L356 674 L445 626 L512 704 V768 H0V704Z" fill="#5a3b22" opacity=".18"/>
  <ellipse cx="256" cy="662" rx="150" ry="34" fill="#5a3b22" opacity=".28"/>
  <g transform="translate(0 122)">
    <path d="M149.4 228.5 L219.1 156.75 H311.35 L376.95 242.85 L346.2 394.55 H163.75 Z" fill="url(#body)" filter="url(#softShadow)"/><path d="M198.60000000000002 179.3 L245.75 91.15 L280.6 171.10000000000002 Z" fill="#e9c68f"/><path d="M290.85 183.4 L344.15 113.70000000000002 L342.1 210.05 Z" fill="#a0713d"/><rect x="194.5" y="277.7" width="122.99999999999999" height="30.749999999999996" rx="14.349999999999998" fill="#5a3b22" opacity=".38"/><circle cx="227.3" cy="292.05" r="10.25" fill="#e9c68f"/><circle cx="284.7" cy="292.05" r="10.25" fill="#e9c68f"/><circle cx="256" cy="210.05" r="14.349999999999998" fill="#e9c68f" opacity=".9"/>
  </g>
  <path d="M74 126 C170 65 334 65 438 126" stroke="#fff" stroke-width="16" stroke-linecap="round" opacity=".16"/>
  <path d="M63 676 C162 718 344 718 449 662" stroke="#fff" stroke-width="14" stroke-linecap="round" opacity=".16"/>
</svg>