<svg xmlns="http://www.w3.org/2000/svg" viewBox="0 0 512 768" role="img" aria-label="污泥魔神 original portrait">
  
  <defs>
    <linearGradient id="bgp312" x1="0" y1="0" x2="1" y2="1">
      <stop offset="0" stop-color="#e9c68f"/>
      <stop offset=".55" stop-color="#a0713d"/>
      <stop offset="1" stop-color="#5a3b22"/>
    </linearGradient>
    <radialGradient id="body" cx=".36" cy=".25" r=".76">
      <stop offset="0" stop-color="#e9c68f"/>
      <stop offset=".6" stop-color="#a0713d"/>
      <stop offset="1" stop-color="#5a3b22"/>
    </radialGradient>
    <radialGradient id="head" cx=".36" cy=".26" r=".72">
      <stop offset="0" stop-color="#ffffff" stop-opacity=".85"/>
      <stop offset=".2" stop-color="#e9c68f"/>
      <stop offset=".72" stop-color="#a0713d"/>
      <stop offset="1" stop-color="#5a3b22"/>
    </radialGradient>
    <filter id="softShadow" x="-30%" y="-30%" width="160%" height="160%">
      <feDropShadow dx="0" dy="8" stdDeviation="8" flood-color="#5a3b22" flood-opacity=".35"/>
    </filter>
  </defs>
  <rect width="512" height="768" rx="48" fill="url(#bgp312)"/>
  <rect x="24" y="24" width="464" height="720" rx="40" fill="#ffffff" opacity=".08"/>
  <g opacity=".42"><circle cx="153" cy="447" r="3.2" fill="#fff" opacity="0.29"/><circle cx="142" cy="163" r="2.4" fill="#fff" opacity="0.48"/><circle cx="81" cy="547" r="1.5" fill="#fff" opacity="0.60"/><circle cx="367" cy="742" r="1.1" fill="#fff" opacity="0.50"/><circle cx="362" cy="678" r="1.0" fill="#fff" opacity="0.40"/><circle cx="228" cy="252" r="1.3" fill="#fff" opacity="0.37"/><circle cx="192" cy="520" r="1.9" fill="#fff" opacity="0.43"/><circle cx="355" cy="442" r="1.1" fill="#fff" opacity="0.48"/><circle cx="47" cy="117" r="1.7" fill="#fff" opacity="0.30"/><circle cx="197" cy="132" r="1.3" fill="#fff" opacity="0.62"/><circle cx="473" cy="479" r="2.2" fill="#fff" opacity="0.47"/><circle cx="408" cy="300" r="1.8" fill="#fff" opacity="0.43"/><circle cx="92" cy="92" r="3.0" fill="#fff" opacity="0.63"/><circle cx="441" cy="650" r="1.3" fill="#fff" opacity="0.35"/><circle cx="229" cy="534" r="2.7" fill="#fff" opacity="0.50"/><circle cx="197" cy="255" r="2.9" fill="#fff" opacity="0.40"/><circle cx="463" cy="721" r="2.6" fill="#fff" opacity="0.34"/><circle cx="401" cy="541" r="1.0" fill="#fff" opacity="0.37"/><circle cx="455" cy="240" r="2.7" fill="#fff" opacity="0.57"/><circle cx="436" cy="481" r="2.2" fill="#fff" opacity="0.67"/><circle cx="206" cy="15" r="2.1" fill="#fff" opacity="0.59"/><circle cx="419" cy="600" r="2.3" fill="#fff" opacity="0.36"/><circle cx="461" cy="551" r="1.0" fill="#fff" opacity="0.35"/><circle cx="29" cy="426" r="2.2" fill="#fff" opacity="0.48"/><circle cx="310" cy="723" r="0.9" fill="#fff" opacity="0.70"/><circle cx="118" cy="179" r="1.3" fill="#fff" opacity="0.64"/><circle cx="379" cy="242" r="2.5" fill="#fff" opacity="0.42"/><circle cx="506" cy="588" r="1.7" fill="#fff" opacity="0.50"/></g>
  <path d="M0 590 C76 555 120 612 197 582 C277 551 327 614 413 581 C462 562 489 570 512 585 V768 H0Z" fill="#5a3b22" opacity=".22"/>
  <ellipse cx="256" cy="662" rx="150" ry="34" fill="#5a3b22" opacity=".28"/>
  <g transform="translate(0 122)">
    <path d="M149.4 435.54999999999995 C100.20000000000002 304.35 167.85000000000002 156.75 264.2 154.70000000000002 C379 150.60000000000002 420 298.2 352.35 435.54999999999995 C317.5 400.7 288.8 458.1 256 419.15 C221.15 458.1 188.35000000000002 400.7 149.4 435.54999999999995Z" fill="url(#body)" filter="url(#softShadow)"/><circle cx="219.1" cy="253.1" r="16.4" fill="#1b1638"/><circle cx="292.9" cy="253.1" r="16.4" fill="#1b1638"/><path d="M239.6 312.55 Q256 331 280.6 310.5" stroke="#1b1638" stroke-width="10.25" fill="none" stroke-linecap="round"/><path d="M126.85000000000002 326.9 C40.75000000000003 296.15 83.80000000000001 201.85000000000002 137.10000000000002 238.75" fill="#a0713d" opacity=".35"/><path d="M385.15 326.9 C471.25 296.15 428.2 201.85000000000002 374.9 238.75" fill="#a0713d" opacity=".35"/><circle cx="256" cy="210.05" r="14.349999999999998" fill="#e9c68f" opacity=".9"/>
  </g>
  <path d="M74 126 C170 65 334 65 438 126" stroke="#fff" stroke-width="16" stroke-linecap="round" opacity=".16"/>
  <path d="M63 676 C162 718 344 718 449 662" stroke="#fff" stroke-width="14" stroke-linecap="round" opacity=".16"/>
</svg>