<svg xmlns="http://www.w3.org/2000/svg" viewBox="0 0 512 768" role="img" aria-label="梦幻凤蝶 original portrait">
  
  <defs>
    <linearGradient id="bgp316" x1="0" y1="0" x2="1" y2="1">
      <stop offset="0" stop-color="#d9f67f"/>
      <stop offset=".55" stop-color="#86bd2d"/>
      <stop offset="1" stop-color="#3f6c1b"/>
    </linearGradient>
    <radialGradient id="body" cx=".36" cy=".25" r=".76">
      <stop offset="0" stop-color="#d9f67f"/>
      <stop offset=".6" stop-color="#86bd2d"/>
      <stop offset="1" stop-color="#3f6c1b"/>
    </radialGradient>
    <radialGradient id="head" cx=".36" cy=".26" r=".72">
      <stop offset="0" stop-color="#ffffff" stop-opacity=".85"/>
      <stop offset=".2" stop-color="#d9f67f"/>
      <stop offset=".72" stop-color="#86bd2d"/>
      <stop offset="1" stop-color="#3f6c1b"/>
    </radialGradient>
    <filter id="softShadow" x="-30%" y="-30%" width="160%" height="160%">
      <feDropShadow dx="0" dy="8" stdDeviation="8" flood-color="#3f6c1b" flood-opacity=".35"/>
    </filter>
  </defs>
  <rect width="512" height="768" rx="48" fill="url(#bgp316)"/>
  <rect x="24" y="24" width="464" height="720" rx="40" fill="#ffffff" opacity=".08"/>
  <g opacity=".42"><circle cx="12" cy="492" r="3.2" fill="#fff" opacity="0.67"/><circle cx="246" cy="670" r="2.3" fill="#fff" opacity="0.69"/><circle cx="166" cy="340" r="3.0" fill="#fff" opacity="0.51"/><circle cx="9" cy="543" r="2.4" fill="#fff" opacity="0.59"/><circle cx="270" cy="755" r="1.5" fill="#fff" opacity="0.41"/><circle cx="193" cy="378" r="2.8" fill="#fff" opacity="0.49"/><circle cx="253" cy="753" r="2.7" fill="#fff" opacity="0.63"/><circle cx="156" cy="91" r="2.3" fill="#fff" opacity="0.60"/><circle cx="66" cy="324" r="1.3" fill="#fff" opacity="0.31"/><circle cx="381" cy="72" r="1.5" fill="#fff" opacity="0.67"/><circle cx="294" cy="458" r="1.4" fill="#fff" opacity="0.32"/><circle cx="42" cy="654" r="2.1" fill="#fff" opacity="0.44"/><circle cx="191" cy="683" r="1.3" fill="#fff" opacity="0.34"/><circle cx="2" cy="447" r="0.9" fill="#fff" opacity="0.67"/><circle cx="269" cy="323" r="2.2" fill="#fff" opacity="0.29"/><circle cx="446" cy="147" r="2.1" fill="#fff" opacity="0.53"/><circle cx="206" cy="587" r="2.4" fill="#fff" opacity="0.56"/><circle cx="17" cy="594" r="2.7" fill="#fff" opacity="0.62"/><circle cx="452" cy="720" r="2.2" fill="#fff" opacity="0.59"/><circle cx="202" cy="652" r="2.4" fill="#fff" opacity="0.62"/><circle cx="295" cy="54" r="1.7" fill="#fff" opacity="0.47"/><circle cx="378" cy="614" r="1.8" fill="#fff" opacity="0.64"/><circle cx="429" cy="513" r="1.5" fill="#fff" opacity="0.62"/><circle cx="179" cy="11" r="1.6" fill="#fff" opacity="0.31"/><circle cx="368" cy="438" r="2.3" fill="#fff" opacity="0.29"/><circle cx="371" cy="267" r="1.3" fill="#fff" opacity="0.39"/><circle cx="234" cy="368" r="2.5" fill="#fff" opacity="0.63"/><circle cx="61" cy="601" r="2.0" fill="#fff" opacity="0.55"/></g>
  <path d="M0 620 C92 590 171 620 259 600 C357 577 432 594 512 565 V768 H0Z" fill="#fff" opacity=".18"/>
  <ellipse cx="256" cy="662" rx="150" ry="34" fill="#3f6c1b" opacity=".28"/>
  <g transform="translate(0 122)">
    <path d="M219.1 306.4 C65.35000000000002 187.5 67.4 392.5 206.8 400.7" fill="#86bd2d" opacity=".78"/><path d="M292.9 306.4 C446.65 187.5 444.6 392.5 305.2 400.7" fill="#86bd2d" opacity=".78"/><ellipse cx="256" cy="343.3" rx="86.1" ry="110.69999999999999" fill="url(#body)" filter="url(#softShadow)"/><circle cx="256" cy="228.5" r="77.89999999999999" fill="url(#head)"/><path d="M245.75 226.45 L331.85 249 L249.85 269.5 Z" fill="#d9f67f"/><path d="M210.9 154.70000000000002 C239.6 89.10000000000002 280.6 109.60000000000002 260.1 167" fill="#3f6c1b" opacity=".85"/><ellipse cx="223.2" cy="253.1" rx="14.349999999999998" ry="16.4" fill="#14213d"/><ellipse cx="288.8" cy="253.1" rx="14.349999999999998" ry="16.4" fill="#14213d"/><circle cx="229.35" cy="244.9" r="4.714999999999999" fill="#fff"/><circle cx="294.95" cy="244.9" r="4.714999999999999" fill="#fff"/><circle cx="256" cy="210.05" r="14.349999999999998" fill="#d9f67f" opacity=".9"/>
  </g>
  <path d="M74 126 C170 65 334 65 438 126" stroke="#fff" stroke-width="16" stroke-linecap="round" opacity=".16"/>
  <path d="M63 676 C162 718 344 718 449 662" stroke="#fff" stroke-width="14" stroke-linecap="round" opacity=".16"/>
</svg>