<svg xmlns="http://www.w3.org/2000/svg" viewBox="0 0 512 768" role="img" aria-label="吸血魔蝠 original portrait">
  
  <defs>
    <linearGradient id="bgp317" x1="0" y1="0" x2="1" y2="1">
      <stop offset="0" stop-color="#efb2ff"/>
      <stop offset=".55" stop-color="#9b5de5"/>
      <stop offset="1" stop-color="#4f2378"/>
    </linearGradient>
    <radialGradient id="body" cx=".36" cy=".25" r=".76">
      <stop offset="0" stop-color="#efb2ff"/>
      <stop offset=".6" stop-color="#9b5de5"/>
      <stop offset="1" stop-color="#4f2378"/>
    </radialGradient>
    <radialGradient id="head" cx=".36" cy=".26" r=".72">
      <stop offset="0" stop-color="#ffffff" stop-opacity=".85"/>
      <stop offset=".2" stop-color="#efb2ff"/>
      <stop offset=".72" stop-color="#9b5de5"/>
      <stop offset="1" stop-color="#4f2378"/>
    </radialGradient>
    <filter id="softShadow" x="-30%" y="-30%" width="160%" height="160%">
      <feDropShadow dx="0" dy="8" stdDeviation="8" flood-color="#4f2378" flood-opacity=".35"/>
    </filter>
  </defs>
  <rect width="512" height="768" rx="48" fill="url(#bgp317)"/>
  <rect x="24" y="24" width="464" height="720" rx="40" fill="#ffffff" opacity=".08"/>
  <g opacity=".42"><circle cx="134" cy="249" r="1.0" fill="#fff" opacity="0.39"/><circle cx="214" cy="653" r="2.3" fill="#fff" opacity="0.48"/><circle cx="134" cy="605" r="1.8" fill="#fff" opacity="0.37"/><circle cx="436" cy="62" r="1.4" fill="#fff" opacity="0.62"/><circle cx="301" cy="594" r="2.0" fill="#fff" opacity="0.45"/><circle cx="286" cy="645" r="1.3" fill="#fff" opacity="0.57"/><circle cx="380" cy="49" r="1.4" fill="#fff" opacity="0.32"/><circle cx="143" cy="178" r="1.8" fill="#fff" opacity="0.41"/><circle cx="456" cy="297" r="2.3" fill="#fff" opacity="0.48"/><circle cx="374" cy="593" r="2.3" fill="#fff" opacity="0.69"/><circle cx="445" cy="179" r="1.8" fill="#fff" opacity="0.42"/><circle cx="141" cy="165" r="2.5" fill="#fff" opacity="0.57"/><circle cx="2" cy="419" r="0.9" fill="#fff" opacity="0.55"/><circle cx="414" cy="325" r="1.6" fill="#fff" opacity="0.38"/><circle cx="295" cy="430" r="1.2" fill="#fff" opacity="0.41"/><circle cx="487" cy="622" r="1.2" fill="#fff" opacity="0.32"/><circle cx="44" cy="571" r="2.9" fill="#fff" opacity="0.51"/><circle cx="125" cy="253" r="1.5" fill="#fff" opacity="0.30"/><circle cx="334" cy="717" r="1.6" fill="#fff" opacity="0.37"/><circle cx="113" cy="722" r="2.8" fill="#fff" opacity="0.42"/><circle cx="475" cy="336" r="2.4" fill="#fff" opacity="0.65"/><circle cx="366" cy="707" r="1.7" fill="#fff" opacity="0.54"/><circle cx="461" cy="425" r="1.5" fill="#fff" opacity="0.62"/><circle cx="102" cy="4" r="1.9" fill="#fff" opacity="0.44"/><circle cx="263" cy="529" r="0.8" fill="#fff" opacity="0.34"/><circle cx="445" cy="204" r="1.0" fill="#fff" opacity="0.46"/><circle cx="2" cy="640" r="1.6" fill="#fff" opacity="0.62"/><circle cx="69" cy="417" r="1.1" fill="#fff" opacity="0.56"/></g>
  <path d="M0 620 C92 590 171 620 259 600 C357 577 432 594 512 565 V768 H0Z" fill="#fff" opacity=".18"/>
  <ellipse cx="256" cy="662" rx="150" ry="34" fill="#4f2378" opacity=".28"/>
  <g transform="translate(0 122)">
    <path d="M219.1 306.4 C65.35000000000002 187.5 67.4 392.5 206.8 400.7" fill="#9b5de5" opacity=".78"/><path d="M292.9 306.4 C446.65 187.5 444.6 392.5 305.2 400.7" fill="#9b5de5" opacity=".78"/><ellipse cx="256" cy="343.3" rx="86.1" ry="110.69999999999999" fill="url(#body)" filter="url(#softShadow)"/><circle cx="256" cy="228.5" r="77.89999999999999" fill="url(#head)"/><path d="M245.75 226.45 L331.85 249 L249.85 269.5 Z" fill="#efb2ff"/><path d="M210.9 154.70000000000002 C239.6 89.10000000000002 280.6 109.60000000000002 260.1 167" fill="#4f2378" opacity=".85"/><ellipse cx="223.2" cy="253.1" rx="14.349999999999998" ry="16.4" fill="#14213d"/><ellipse cx="288.8" cy="253.1" rx="14.349999999999998" ry="16.4" fill="#14213d"/><circle cx="229.35" cy="244.9" r="4.714999999999999" fill="#fff"/><circle cx="294.95" cy="244.9" r="4.714999999999999" fill="#fff"/><circle cx="256" cy="210.05" r="14.349999999999998" fill="#efb2ff" opacity=".9"/>
  </g>
  <path d="M74 126 C170 65 334 65 438 126" stroke="#fff" stroke-width="16" stroke-linecap="round" opacity=".16"/>
  <path d="M63 676 C162 718 344 718 449 662" stroke="#fff" stroke-width="14" stroke-linecap="round" opacity=".16"/>
</svg>