<svg xmlns="http://www.w3.org/2000/svg" viewBox="0 0 512 768" role="img" aria-label="狂暴牛魔 original portrait">
  
  <defs>
    <linearGradient id="bgp320" x1="0" y1="0" x2="1" y2="1">
      <stop offset="0" stop-color="#f4e8d8"/>
      <stop offset=".55" stop-color="#b78f68"/>
      <stop offset="1" stop-color="#6d4f3f"/>
    </linearGradient>
    <radialGradient id="body" cx=".36" cy=".25" r=".76">
      <stop offset="0" stop-color="#f4e8d8"/>
      <stop offset=".6" stop-color="#b78f68"/>
      <stop offset="1" stop-color="#6d4f3f"/>
    </radialGradient>
    <radialGradient id="head" cx=".36" cy=".26" r=".72">
      <stop offset="0" stop-color="#ffffff" stop-opacity=".85"/>
      <stop offset=".2" stop-color="#f4e8d8"/>
      <stop offset=".72" stop-color="#b78f68"/>
      <stop offset="1" stop-color="#6d4f3f"/>
    </radialGradient>
    <filter id="softShadow" x="-30%" y="-30%" width="160%" height="160%">
      <feDropShadow dx="0" dy="8" stdDeviation="8" flood-color="#6d4f3f" flood-opacity=".35"/>
    </filter>
  </defs>
  <rect width="512" height="768" rx="48" fill="url(#bgp320)"/>
  <rect x="24" y="24" width="464" height="720" rx="40" fill="#ffffff" opacity=".08"/>
  <g opacity=".42"><circle cx="251" cy="474" r="1.5" fill="#fff" opacity="0.69"/><circle cx="136" cy="344" r="2.4" fill="#fff" opacity="0.34"/><circle cx="274" cy="666" r="2.6" fill="#fff" opacity="0.63"/><circle cx="357" cy="741" r="2.4" fill="#fff" opacity="0.69"/><circle cx="297" cy="521" r="0.9" fill="#fff" opacity="0.50"/><circle cx="142" cy="237" r="1.5" fill="#fff" opacity="0.69"/><circle cx="225" cy="122" r="1.6" fill="#fff" opacity="0.35"/><circle cx="409" cy="5" r="2.6" fill="#fff" opacity="0.61"/><circle cx="408" cy="714" r="1.6" fill="#fff" opacity="0.47"/><circle cx="503" cy="402" r="2.8" fill="#fff" opacity="0.34"/><circle cx="88" cy="491" r="2.3" fill="#fff" opacity="0.53"/><circle cx="139" cy="58" r="2.8" fill="#fff" opacity="0.57"/><circle cx="91" cy="440" r="2.9" fill="#fff" opacity="0.51"/><circle cx="36" cy="32" r="1.9" fill="#fff" opacity="0.31"/><circle cx="325" cy="597" r="3.1" fill="#fff" opacity="0.55"/><circle cx="415" cy="223" r="1.7" fill="#fff" opacity="0.60"/><circle cx="396" cy="452" r="1.9" fill="#fff" opacity="0.34"/><circle cx="452" cy="168" r="3.0" fill="#fff" opacity="0.34"/><circle cx="237" cy="475" r="1.9" fill="#fff" opacity="0.68"/><circle cx="349" cy="10" r="2.1" fill="#fff" opacity="0.55"/><circle cx="184" cy="365" r="2.1" fill="#fff" opacity="0.68"/><circle cx="48" cy="736" r="2.0" fill="#fff" opacity="0.41"/><circle cx="235" cy="515" r="2.2" fill="#fff" opacity="0.40"/><circle cx="470" cy="360" r="0.9" fill="#fff" opacity="0.30"/><circle cx="395" cy="261" r="1.7" fill="#fff" opacity="0.70"/><circle cx="105" cy="102" r="2.4" fill="#fff" opacity="0.52"/><circle cx="110" cy="500" r="1.3" fill="#fff" opacity="0.59"/><circle cx="488" cy="285" r="1.8" fill="#fff" opacity="0.59"/></g>
  <path d="M0 590 C76 555 120 612 197 582 C277 551 327 614 413 581 C462 562 489 570 512 585 V768 H0Z" fill="#6d4f3f" opacity=".22"/>
  <ellipse cx="256" cy="662" rx="150" ry="34" fill="#6d4f3f" opacity=".28"/>
  <g transform="translate(0 122)">
    <path d="M149.4 435.54999999999995 C100.20000000000002 304.35 167.85000000000002 156.75 264.2 154.70000000000002 C379 150.60000000000002 420 298.2 352.35 435.54999999999995 C317.5 400.7 288.8 458.1 256 419.15 C221.15 458.1 188.35000000000002 400.7 149.4 435.54999999999995Z" fill="url(#body)" filter="url(#softShadow)"/><circle cx="219.1" cy="253.1" r="16.4" fill="#1b1638"/><circle cx="292.9" cy="253.1" r="16.4" fill="#1b1638"/><path d="M239.6 312.55 Q256 331 280.6 310.5" stroke="#1b1638" stroke-width="10.25" fill="none" stroke-linecap="round"/><path d="M126.85000000000002 326.9 C40.75000000000003 296.15 83.80000000000001 201.85000000000002 137.10000000000002 238.75" fill="#b78f68" opacity=".35"/><path d="M385.15 326.9 C471.25 296.15 428.2 201.85000000000002 374.9 238.75" fill="#b78f68" opacity=".35"/><circle cx="256" cy="210.05" r="14.349999999999998" fill="#f4e8d8" opacity=".9"/>
  </g>
  <path d="M74 126 C170 65 334 65 438 126" stroke="#fff" stroke-width="16" stroke-linecap="round" opacity=".16"/>
  <path d="M63 676 C162 718 344 718 449 662" stroke="#fff" stroke-width="14" stroke-linecap="round" opacity=".16"/>
</svg>