<svg xmlns="http://www.w3.org/2000/svg" viewBox="0 0 512 768" role="img" aria-label="拟态之神 original portrait">
  
  <defs>
    <linearGradient id="bgp323" x1="0" y1="0" x2="1" y2="1">
      <stop offset="0" stop-color="#f4e8d8"/>
      <stop offset=".55" stop-color="#b78f68"/>
      <stop offset="1" stop-color="#6d4f3f"/>
    </linearGradient>
    <radialGradient id="body" cx=".36" cy=".25" r=".76">
      <stop offset="0" stop-color="#f4e8d8"/>
      <stop offset=".6" stop-color="#b78f68"/>
      <stop offset="1" stop-color="#6d4f3f"/>
    </radialGradient>
    <radialGradient id="head" cx=".36" cy=".26" r=".72">
      <stop offset="0" stop-color="#ffffff" stop-opacity=".85"/>
      <stop offset=".2" stop-color="#f4e8d8"/>
      <stop offset=".72" stop-color="#b78f68"/>
      <stop offset="1" stop-color="#6d4f3f"/>
    </radialGradient>
    <filter id="softShadow" x="-30%" y="-30%" width="160%" height="160%">
      <feDropShadow dx="0" dy="8" stdDeviation="8" flood-color="#6d4f3f" flood-opacity=".35"/>
    </filter>
  </defs>
  <rect width="512" height="768" rx="48" fill="url(#bgp323)"/>
  <rect x="24" y="24" width="464" height="720" rx="40" fill="#ffffff" opacity=".08"/>
  <g opacity=".42"><circle cx="419" cy="412" r="2.2" fill="#fff" opacity="0.69"/><circle cx="440" cy="356" r="1.2" fill="#fff" opacity="0.59"/><circle cx="132" cy="217" r="2.5" fill="#fff" opacity="0.34"/><circle cx="348" cy="580" r="2.7" fill="#fff" opacity="0.45"/><circle cx="208" cy="308" r="2.0" fill="#fff" opacity="0.59"/><circle cx="35" cy="29" r="2.6" fill="#fff" opacity="0.63"/><circle cx="66" cy="449" r="1.8" fill="#fff" opacity="0.34"/><circle cx="220" cy="623" r="2.9" fill="#fff" opacity="0.62"/><circle cx="334" cy="655" r="3.0" fill="#fff" opacity="0.34"/><circle cx="15" cy="97" r="1.5" fill="#fff" opacity="0.68"/><circle cx="479" cy="151" r="3.0" fill="#fff" opacity="0.39"/><circle cx="56" cy="0" r="1.3" fill="#fff" opacity="0.33"/><circle cx="481" cy="48" r="2.3" fill="#fff" opacity="0.62"/><circle cx="229" cy="462" r="2.3" fill="#fff" opacity="0.60"/><circle cx="369" cy="706" r="2.6" fill="#fff" opacity="0.37"/><circle cx="236" cy="24" r="1.4" fill="#fff" opacity="0.49"/><circle cx="17" cy="134" r="2.9" fill="#fff" opacity="0.68"/><circle cx="420" cy="366" r="1.2" fill="#fff" opacity="0.47"/><circle cx="60" cy="199" r="2.3" fill="#fff" opacity="0.67"/><circle cx="142" cy="442" r="2.5" fill="#fff" opacity="0.57"/><circle cx="264" cy="390" r="1.7" fill="#fff" opacity="0.52"/><circle cx="509" cy="735" r="1.7" fill="#fff" opacity="0.50"/><circle cx="489" cy="393" r="2.5" fill="#fff" opacity="0.63"/><circle cx="211" cy="10" r="1.0" fill="#fff" opacity="0.25"/><circle cx="162" cy="727" r="1.0" fill="#fff" opacity="0.42"/><circle cx="358" cy="194" r="1.2" fill="#fff" opacity="0.47"/><circle cx="170" cy="496" r="2.9" fill="#fff" opacity="0.48"/><circle cx="461" cy="205" r="2.5" fill="#fff" opacity="0.64"/></g>
  <circle cx="256" cy="294" r="188" fill="#f4e8d8" opacity=".12"/><circle cx="256" cy="294" r="146" fill="#fff" opacity=".1"/>
  <ellipse cx="256" cy="662" rx="150" ry="34" fill="#6d4f3f" opacity=".28"/>
  <g transform="translate(0 122)">
    <ellipse cx="256" cy="339.2" rx="100.44999999999999" ry="112.74999999999999" fill="url(#body)" filter="url(#softShadow)"/><circle cx="256" cy="226.45" r="79.94999999999999" fill="url(#head)"/><ellipse cx="256" cy="214.15" rx="139.39999999999998" ry="36.9" fill="none" stroke="#f4e8d8" stroke-width="14.349999999999998" opacity=".75" transform="rotate(-12 256 214.15)"/><path d="M256 103.45000000000002 L276.5 154.70000000000002 L333.9 156.75 L286.75 187.5 L303.15 242.85 L256 208 L208.85 242.85 L225.25 187.5 L178.10000000000002 156.75 L235.5 154.70000000000002 Z" fill="#b78f68"/><ellipse cx="223.2" cy="253.1" rx="14.349999999999998" ry="16.4" fill="#14213d"/><ellipse cx="288.8" cy="253.1" rx="14.349999999999998" ry="16.4" fill="#14213d"/><circle cx="229.35" cy="244.9" r="4.714999999999999" fill="#fff"/><circle cx="294.95" cy="244.9" r="4.714999999999999" fill="#fff"/><circle cx="256" cy="210.05" r="14.349999999999998" fill="#f4e8d8" opacity=".9"/>
  </g>
  <path d="M74 126 C170 65 334 65 438 126" stroke="#fff" stroke-width="16" stroke-linecap="round" opacity=".16"/>
  <path d="M63 676 C162 718 344 718 449 662" stroke="#fff" stroke-width="14" stroke-linecap="round" opacity=".16"/>
</svg>