<svg xmlns="http://www.w3.org/2000/svg" viewBox="0 0 512 768" role="img" aria-label="赛博主脑 original portrait">
  
  <defs>
    <linearGradient id="bgp324" x1="0" y1="0" x2="1" y2="1">
      <stop offset="0" stop-color="#f4e8d8"/>
      <stop offset=".55" stop-color="#b78f68"/>
      <stop offset="1" stop-color="#6d4f3f"/>
    </linearGradient>
    <radialGradient id="body" cx=".36" cy=".25" r=".76">
      <stop offset="0" stop-color="#f4e8d8"/>
      <stop offset=".6" stop-color="#b78f68"/>
      <stop offset="1" stop-color="#6d4f3f"/>
    </radialGradient>
    <radialGradient id="head" cx=".36" cy=".26" r=".72">
      <stop offset="0" stop-color="#ffffff" stop-opacity=".85"/>
      <stop offset=".2" stop-color="#f4e8d8"/>
      <stop offset=".72" stop-color="#b78f68"/>
      <stop offset="1" stop-color="#6d4f3f"/>
    </radialGradient>
    <filter id="softShadow" x="-30%" y="-30%" width="160%" height="160%">
      <feDropShadow dx="0" dy="8" stdDeviation="8" flood-color="#6d4f3f" flood-opacity=".35"/>
    </filter>
  </defs>
  <rect width="512" height="768" rx="48" fill="url(#bgp324)"/>
  <rect x="24" y="24" width="464" height="720" rx="40" fill="#ffffff" opacity=".08"/>
  <g opacity=".42"><circle cx="192" cy="102" r="1.0" fill="#fff" opacity="0.57"/><circle cx="23" cy="341" r="1.7" fill="#fff" opacity="0.56"/><circle cx="453" cy="399" r="1.9" fill="#fff" opacity="0.28"/><circle cx="111" cy="365" r="2.4" fill="#fff" opacity="0.46"/><circle cx="416" cy="186" r="2.6" fill="#fff" opacity="0.31"/><circle cx="344" cy="638" r="1.9" fill="#fff" opacity="0.28"/><circle cx="71" cy="367" r="1.2" fill="#fff" opacity="0.34"/><circle cx="206" cy="344" r="2.1" fill="#fff" opacity="0.59"/><circle cx="284" cy="642" r="3.0" fill="#fff" opacity="0.25"/><circle cx="18" cy="117" r="2.2" fill="#fff" opacity="0.43"/><circle cx="436" cy="367" r="3.1" fill="#fff" opacity="0.34"/><circle cx="493" cy="397" r="1.1" fill="#fff" opacity="0.38"/><circle cx="506" cy="421" r="2.6" fill="#fff" opacity="0.28"/><circle cx="395" cy="447" r="2.8" fill="#fff" opacity="0.40"/><circle cx="375" cy="549" r="2.6" fill="#fff" opacity="0.26"/><circle cx="263" cy="38" r="1.1" fill="#fff" opacity="0.48"/><circle cx="190" cy="366" r="1.5" fill="#fff" opacity="0.65"/><circle cx="286" cy="322" r="1.3" fill="#fff" opacity="0.42"/><circle cx="112" cy="718" r="2.7" fill="#fff" opacity="0.56"/><circle cx="259" cy="617" r="1.0" fill="#fff" opacity="0.60"/><circle cx="103" cy="644" r="3.0" fill="#fff" opacity="0.52"/><circle cx="373" cy="53" r="3.0" fill="#fff" opacity="0.38"/><circle cx="510" cy="418" r="1.9" fill="#fff" opacity="0.41"/><circle cx="444" cy="664" r="1.6" fill="#fff" opacity="0.34"/><circle cx="229" cy="32" r="2.9" fill="#fff" opacity="0.38"/><circle cx="191" cy="659" r="1.2" fill="#fff" opacity="0.68"/><circle cx="44" cy="100" r="1.5" fill="#fff" opacity="0.70"/><circle cx="380" cy="160" r="0.9" fill="#fff" opacity="0.33"/></g>
  <path d="M38 684 C128 596 386 596 475 684 V768 H38Z" fill="#6d4f3f" opacity=".17"/>
  <ellipse cx="256" cy="662" rx="150" ry="34" fill="#6d4f3f" opacity=".28"/>
  <g transform="translate(0 122)">
    <ellipse cx="256" cy="359.7" rx="110.69999999999999" ry="100.44999999999999" fill="url(#body)" filter="url(#softShadow)"/><circle cx="256" cy="232.60000000000002" r="86.1" fill="url(#head)"/><path d="M149.4 322.8 C51.00000000000003 304.35 85.85000000000002 423.25 165.8 402.75" fill="#6d4f3f"/><path d="M362.6 322.8 C461 304.35 426.15 423.25 346.2 402.75" fill="#6d4f3f"/><path d="M200.65 148.55 H311.35 L331.85 195.7 Q256 224.4 180.15 195.7 Z" fill="#f4e8d8" opacity=".85"/><ellipse cx="223.2" cy="253.1" rx="14.349999999999998" ry="16.4" fill="#14213d"/><ellipse cx="288.8" cy="253.1" rx="14.349999999999998" ry="16.4" fill="#14213d"/><circle cx="229.35" cy="244.9" r="4.714999999999999" fill="#fff"/><circle cx="294.95" cy="244.9" r="4.714999999999999" fill="#fff"/><path d="M256 183.4 L278.55 212.10000000000002 L256 242.85 L233.45 212.10000000000002 Z" fill="#f4e8d8" opacity=".92"/>
  </g>
  <path d="M74 126 C170 65 334 65 438 126" stroke="#fff" stroke-width="16" stroke-linecap="round" opacity=".16"/>
  <path d="M63 676 C162 718 344 718 449 662" stroke="#fff" stroke-width="14" stroke-linecap="round" opacity=".16"/>
</svg>