<svg xmlns="http://www.w3.org/2000/svg" viewBox="0 0 512 768" role="img" aria-label="深海克拉肯 original portrait">
  
  <defs>
    <linearGradient id="bgp325" x1="0" y1="0" x2="1" y2="1">
      <stop offset="0" stop-color="#ddd0b2"/>
      <stop offset=".55" stop-color="#8d7a5f"/>
      <stop offset="1" stop-color="#514438"/>
    </linearGradient>
    <radialGradient id="body" cx=".36" cy=".25" r=".76">
      <stop offset="0" stop-color="#ddd0b2"/>
      <stop offset=".6" stop-color="#8d7a5f"/>
      <stop offset="1" stop-color="#514438"/>
    </radialGradient>
    <radialGradient id="head" cx=".36" cy=".26" r=".72">
      <stop offset="0" stop-color="#ffffff" stop-opacity=".85"/>
      <stop offset=".2" stop-color="#ddd0b2"/>
      <stop offset=".72" stop-color="#8d7a5f"/>
      <stop offset="1" stop-color="#514438"/>
    </radialGradient>
    <filter id="softShadow" x="-30%" y="-30%" width="160%" height="160%">
      <feDropShadow dx="0" dy="8" stdDeviation="8" flood-color="#514438" flood-opacity=".35"/>
    </filter>
  </defs>
  <rect width="512" height="768" rx="48" fill="url(#bgp325)"/>
  <rect x="24" y="24" width="464" height="720" rx="40" fill="#ffffff" opacity=".08"/>
  <g opacity=".42"><circle cx="34" cy="307" r="0.8" fill="#fff" opacity="0.39"/><circle cx="111" cy="578" r="0.9" fill="#fff" opacity="0.57"/><circle cx="476" cy="311" r="1.2" fill="#fff" opacity="0.45"/><circle cx="243" cy="546" r="1.9" fill="#fff" opacity="0.48"/><circle cx="288" cy="375" r="3.2" fill="#fff" opacity="0.63"/><circle cx="210" cy="407" r="1.4" fill="#fff" opacity="0.66"/><circle cx="342" cy="529" r="2.2" fill="#fff" opacity="0.30"/><circle cx="205" cy="593" r="2.0" fill="#fff" opacity="0.69"/><circle cx="291" cy="493" r="3.2" fill="#fff" opacity="0.34"/><circle cx="444" cy="151" r="1.5" fill="#fff" opacity="0.65"/><circle cx="278" cy="654" r="1.2" fill="#fff" opacity="0.26"/><circle cx="137" cy="234" r="1.4" fill="#fff" opacity="0.35"/><circle cx="123" cy="342" r="1.6" fill="#fff" opacity="0.35"/><circle cx="199" cy="123" r="1.2" fill="#fff" opacity="0.55"/><circle cx="279" cy="100" r="3.2" fill="#fff" opacity="0.26"/><circle cx="290" cy="359" r="3.1" fill="#fff" opacity="0.39"/><circle cx="199" cy="422" r="0.8" fill="#fff" opacity="0.44"/><circle cx="195" cy="738" r="2.3" fill="#fff" opacity="0.53"/><circle cx="311" cy="356" r="2.1" fill="#fff" opacity="0.40"/><circle cx="402" cy="187" r="1.3" fill="#fff" opacity="0.67"/><circle cx="397" cy="255" r="0.8" fill="#fff" opacity="0.41"/><circle cx="12" cy="174" r="3.1" fill="#fff" opacity="0.28"/><circle cx="22" cy="728" r="1.3" fill="#fff" opacity="0.28"/><circle cx="495" cy="442" r="3.0" fill="#fff" opacity="0.64"/><circle cx="360" cy="325" r="1.3" fill="#fff" opacity="0.36"/><circle cx="448" cy="573" r="0.9" fill="#fff" opacity="0.55"/><circle cx="388" cy="593" r="1.6" fill="#fff" opacity="0.43"/><circle cx="155" cy="627" r="2.0" fill="#fff" opacity="0.31"/></g>
  <path d="M0 585 C86 541 164 618 248 574 C338 526 407 595 512 548 V768 H0Z" fill="#8d7a5f" opacity=".2"/><path d="M0 650 C105 610 180 690 282 638 C370 594 426 650 512 618 V768 H0Z" fill="#ddd0b2" opacity=".18"/>
  <ellipse cx="256" cy="662" rx="150" ry="34" fill="#514438" opacity=".28"/>
  <g transform="translate(0 122)">
    <path d="M110.45000000000002 326.9 L40.75000000000003 240.8 L44.85000000000002 413 Z" fill="#8d7a5f" opacity=".86"/><ellipse cx="247.8" cy="322.8" rx="139.39999999999998" ry="88.14999999999999" fill="url(#body)" filter="url(#softShadow)"/><path d="M243.7 242.85 C288.8 136.25 358.5 173.15 342.1 263.35" fill="#8d7a5f" opacity=".72"/><path d="M301.1 384.3 C338 458.1 411.79999999999995 413 362.6 359.7" fill="#ddd0b2" opacity=".8"/><circle cx="329.8" cy="292.05" r="14.349999999999998" fill="#101828"/><circle cx="335.95" cy="285.9" r="4.714999999999999" fill="#fff"/><path d="M256 183.4 L278.55 212.10000000000002 L256 242.85 L233.45 212.10000000000002 Z" fill="#ddd0b2" opacity=".92"/>
  </g>
  <path d="M74 126 C170 65 334 65 438 126" stroke="#fff" stroke-width="16" stroke-linecap="round" opacity=".16"/>
  <path d="M63 676 C162 718 344 718 449 662" stroke="#fff" stroke-width="14" stroke-linecap="round" opacity=".16"/>
</svg>