<svg xmlns="http://www.w3.org/2000/svg" viewBox="0 0 512 768" role="img" aria-label="虚空掠夺者 original portrait">
  
  <defs>
    <linearGradient id="bgp326" x1="0" y1="0" x2="1" y2="1">
      <stop offset="0" stop-color="#ddd0b2"/>
      <stop offset=".55" stop-color="#8d7a5f"/>
      <stop offset="1" stop-color="#514438"/>
    </linearGradient>
    <radialGradient id="body" cx=".36" cy=".25" r=".76">
      <stop offset="0" stop-color="#ddd0b2"/>
      <stop offset=".6" stop-color="#8d7a5f"/>
      <stop offset="1" stop-color="#514438"/>
    </radialGradient>
    <radialGradient id="head" cx=".36" cy=".26" r=".72">
      <stop offset="0" stop-color="#ffffff" stop-opacity=".85"/>
      <stop offset=".2" stop-color="#ddd0b2"/>
      <stop offset=".72" stop-color="#8d7a5f"/>
      <stop offset="1" stop-color="#514438"/>
    </radialGradient>
    <filter id="softShadow" x="-30%" y="-30%" width="160%" height="160%">
      <feDropShadow dx="0" dy="8" stdDeviation="8" flood-color="#514438" flood-opacity=".35"/>
    </filter>
  </defs>
  <rect width="512" height="768" rx="48" fill="url(#bgp326)"/>
  <rect x="24" y="24" width="464" height="720" rx="40" fill="#ffffff" opacity=".08"/>
  <g opacity=".42"><circle cx="273" cy="496" r="3.0" fill="#fff" opacity="0.40"/><circle cx="147" cy="17" r="1.4" fill="#fff" opacity="0.41"/><circle cx="329" cy="543" r="2.8" fill="#fff" opacity="0.69"/><circle cx="204" cy="166" r="2.9" fill="#fff" opacity="0.55"/><circle cx="326" cy="562" r="2.3" fill="#fff" opacity="0.44"/><circle cx="297" cy="725" r="1.2" fill="#fff" opacity="0.69"/><circle cx="37" cy="153" r="1.5" fill="#fff" opacity="0.43"/><circle cx="267" cy="566" r="2.2" fill="#fff" opacity="0.35"/><circle cx="13" cy="672" r="1.8" fill="#fff" opacity="0.58"/><circle cx="5" cy="563" r="1.8" fill="#fff" opacity="0.69"/><circle cx="146" cy="381" r="1.0" fill="#fff" opacity="0.42"/><circle cx="309" cy="25" r="1.3" fill="#fff" opacity="0.67"/><circle cx="296" cy="26" r="2.9" fill="#fff" opacity="0.29"/><circle cx="295" cy="643" r="1.8" fill="#fff" opacity="0.63"/><circle cx="450" cy="473" r="2.7" fill="#fff" opacity="0.55"/><circle cx="222" cy="546" r="2.4" fill="#fff" opacity="0.40"/><circle cx="253" cy="196" r="1.5" fill="#fff" opacity="0.58"/><circle cx="347" cy="194" r="1.4" fill="#fff" opacity="0.35"/><circle cx="139" cy="590" r="3.1" fill="#fff" opacity="0.61"/><circle cx="248" cy="295" r="2.6" fill="#fff" opacity="0.29"/><circle cx="0" cy="141" r="2.4" fill="#fff" opacity="0.45"/><circle cx="172" cy="226" r="1.4" fill="#fff" opacity="0.40"/><circle cx="82" cy="479" r="2.5" fill="#fff" opacity="0.26"/><circle cx="328" cy="181" r="2.8" fill="#fff" opacity="0.42"/><circle cx="322" cy="70" r="0.9" fill="#fff" opacity="0.32"/><circle cx="459" cy="293" r="2.3" fill="#fff" opacity="0.34"/><circle cx="318" cy="96" r="3.2" fill="#fff" opacity="0.50"/><circle cx="226" cy="242" r="1.8" fill="#fff" opacity="0.38"/></g>
  <circle cx="256" cy="294" r="182" fill="#ddd0b2" opacity=".12"/><circle cx="256" cy="294" r="140" fill="#fff" opacity=".1"/>
  <ellipse cx="256" cy="662" rx="150" ry="34" fill="#514438" opacity=".28"/>
  <g transform="translate(0 122)">
    <ellipse cx="256" cy="339.2" rx="100.44999999999999" ry="112.74999999999999" fill="url(#body)" filter="url(#softShadow)"/><circle cx="256" cy="226.45" r="79.94999999999999" fill="url(#head)"/><ellipse cx="256" cy="214.15" rx="139.39999999999998" ry="36.9" fill="none" stroke="#ddd0b2" stroke-width="14.349999999999998" opacity=".75" transform="rotate(-12 256 214.15)"/><path d="M256 103.45000000000002 L276.5 154.70000000000002 L333.9 156.75 L286.75 187.5 L303.15 242.85 L256 208 L208.85 242.85 L225.25 187.5 L178.10000000000002 156.75 L235.5 154.70000000000002 Z" fill="#8d7a5f"/><ellipse cx="223.2" cy="253.1" rx="14.349999999999998" ry="16.4" fill="#14213d"/><ellipse cx="288.8" cy="253.1" rx="14.349999999999998" ry="16.4" fill="#14213d"/><circle cx="229.35" cy="244.9" r="4.714999999999999" fill="#fff"/><circle cx="294.95" cy="244.9" r="4.714999999999999" fill="#fff"/><path d="M256 183.4 L278.55 212.10000000000002 L256 242.85 L233.45 212.10000000000002 Z" fill="#ddd0b2" opacity=".92"/>
  </g>
  <path d="M74 126 C170 65 334 65 438 126" stroke="#fff" stroke-width="16" stroke-linecap="round" opacity=".16"/>
  <path d="M63 676 C162 718 344 718 449 662" stroke="#fff" stroke-width="14" stroke-linecap="round" opacity=".16"/>
</svg>