<svg xmlns="http://www.w3.org/2000/svg" viewBox="0 0 512 768" role="img" aria-label="闪电松鼠王 original portrait">
  
  <defs>
    <linearGradient id="bgp328" x1="0" y1="0" x2="1" y2="1">
      <stop offset="0" stop-color="#fff27a"/>
      <stop offset=".55" stop-color="#f9c80e"/>
      <stop offset="1" stop-color="#7a5200"/>
    </linearGradient>
    <radialGradient id="body" cx=".36" cy=".25" r=".76">
      <stop offset="0" stop-color="#fff27a"/>
      <stop offset=".6" stop-color="#f9c80e"/>
      <stop offset="1" stop-color="#7a5200"/>
    </radialGradient>
    <radialGradient id="head" cx=".36" cy=".26" r=".72">
      <stop offset="0" stop-color="#ffffff" stop-opacity=".85"/>
      <stop offset=".2" stop-color="#fff27a"/>
      <stop offset=".72" stop-color="#f9c80e"/>
      <stop offset="1" stop-color="#7a5200"/>
    </radialGradient>
    <filter id="softShadow" x="-30%" y="-30%" width="160%" height="160%">
      <feDropShadow dx="0" dy="8" stdDeviation="8" flood-color="#7a5200" flood-opacity=".35"/>
    </filter>
  </defs>
  <rect width="512" height="768" rx="48" fill="url(#bgp328)"/>
  <rect x="24" y="24" width="464" height="720" rx="40" fill="#ffffff" opacity=".08"/>
  <g opacity=".42"><circle cx="171" cy="198" r="2.4" fill="#fff" opacity="0.70"/><circle cx="275" cy="304" r="1.3" fill="#fff" opacity="0.64"/><circle cx="445" cy="431" r="2.9" fill="#fff" opacity="0.51"/><circle cx="291" cy="204" r="2.4" fill="#fff" opacity="0.59"/><circle cx="310" cy="477" r="2.0" fill="#fff" opacity="0.59"/><circle cx="148" cy="118" r="2.9" fill="#fff" opacity="0.28"/><circle cx="265" cy="735" r="1.6" fill="#fff" opacity="0.45"/><circle cx="382" cy="571" r="1.9" fill="#fff" opacity="0.45"/><circle cx="304" cy="200" r="0.8" fill="#fff" opacity="0.58"/><circle cx="320" cy="709" r="2.5" fill="#fff" opacity="0.39"/><circle cx="482" cy="12" r="1.5" fill="#fff" opacity="0.54"/><circle cx="257" cy="528" r="3.0" fill="#fff" opacity="0.61"/><circle cx="311" cy="496" r="1.3" fill="#fff" opacity="0.62"/><circle cx="323" cy="355" r="2.4" fill="#fff" opacity="0.65"/><circle cx="297" cy="544" r="1.3" fill="#fff" opacity="0.67"/><circle cx="378" cy="487" r="1.3" fill="#fff" opacity="0.67"/><circle cx="382" cy="280" r="2.0" fill="#fff" opacity="0.31"/><circle cx="285" cy="512" r="2.7" fill="#fff" opacity="0.53"/><circle cx="101" cy="614" r="2.5" fill="#fff" opacity="0.30"/><circle cx="213" cy="10" r="0.9" fill="#fff" opacity="0.43"/><circle cx="473" cy="568" r="2.8" fill="#fff" opacity="0.66"/><circle cx="30" cy="259" r="3.0" fill="#fff" opacity="0.36"/><circle cx="469" cy="78" r="2.8" fill="#fff" opacity="0.60"/><circle cx="440" cy="124" r="1.2" fill="#fff" opacity="0.28"/><circle cx="64" cy="406" r="1.7" fill="#fff" opacity="0.35"/><circle cx="348" cy="330" r="1.2" fill="#fff" opacity="0.53"/><circle cx="286" cy="179" r="3.1" fill="#fff" opacity="0.54"/><circle cx="297" cy="67" r="2.7" fill="#fff" opacity="0.42"/></g>
  <path d="M38 684 C128 596 386 596 475 684 V768 H38Z" fill="#7a5200" opacity=".17"/>
  <ellipse cx="256" cy="662" rx="150" ry="34" fill="#7a5200" opacity=".28"/>
  <g transform="translate(0 122)">
    <ellipse cx="256" cy="359.7" rx="110.69999999999999" ry="100.44999999999999" fill="url(#body)" filter="url(#softShadow)"/><circle cx="256" cy="232.60000000000002" r="86.1" fill="url(#head)"/><path d="M149.4 322.8 C51.00000000000003 304.35 85.85000000000002 423.25 165.8 402.75" fill="#7a5200"/><path d="M362.6 322.8 C461 304.35 426.15 423.25 346.2 402.75" fill="#7a5200"/><path d="M200.65 148.55 H311.35 L331.85 195.7 Q256 224.4 180.15 195.7 Z" fill="#fff27a" opacity=".85"/><ellipse cx="223.2" cy="253.1" rx="14.349999999999998" ry="16.4" fill="#14213d"/><ellipse cx="288.8" cy="253.1" rx="14.349999999999998" ry="16.4" fill="#14213d"/><circle cx="229.35" cy="244.9" r="4.714999999999999" fill="#fff"/><circle cx="294.95" cy="244.9" r="4.714999999999999" fill="#fff"/><path d="M215 201.85000000000002 Q256 224.4 297 201.85000000000002" stroke="#fff27a" stroke-width="10.25" fill="none" stroke-linecap="round" opacity=".8"/>
  </g>
  <path d="M74 126 C170 65 334 65 438 126" stroke="#fff" stroke-width="16" stroke-linecap="round" opacity=".16"/>
  <path d="M63 676 C162 718 344 718 449 662" stroke="#fff" stroke-width="14" stroke-linecap="round" opacity=".16"/>
</svg>