<svg xmlns="http://www.w3.org/2000/svg" viewBox="0 0 512 768" role="img" aria-label="雷霆狮王 original portrait">
  
  <defs>
    <linearGradient id="bgp33" x1="0" y1="0" x2="1" y2="1">
      <stop offset="0" stop-color="#fff27a"/>
      <stop offset=".55" stop-color="#f9c80e"/>
      <stop offset="1" stop-color="#7a5200"/>
    </linearGradient>
    <radialGradient id="body" cx=".36" cy=".25" r=".76">
      <stop offset="0" stop-color="#fff27a"/>
      <stop offset=".6" stop-color="#f9c80e"/>
      <stop offset="1" stop-color="#7a5200"/>
    </radialGradient>
    <radialGradient id="head" cx=".36" cy=".26" r=".72">
      <stop offset="0" stop-color="#ffffff" stop-opacity=".85"/>
      <stop offset=".2" stop-color="#fff27a"/>
      <stop offset=".72" stop-color="#f9c80e"/>
      <stop offset="1" stop-color="#7a5200"/>
    </radialGradient>
    <filter id="softShadow" x="-30%" y="-30%" width="160%" height="160%">
      <feDropShadow dx="0" dy="8" stdDeviation="8" flood-color="#7a5200" flood-opacity=".35"/>
    </filter>
  </defs>
  <rect width="512" height="768" rx="48" fill="url(#bgp33)"/>
  <rect x="24" y="24" width="464" height="720" rx="40" fill="#ffffff" opacity=".08"/>
  <g opacity=".42"><circle cx="352" cy="761" r="2.6" fill="#fff" opacity="0.40"/><circle cx="345" cy="464" r="2.6" fill="#fff" opacity="0.51"/><circle cx="470" cy="701" r="2.1" fill="#fff" opacity="0.66"/><circle cx="105" cy="586" r="3.1" fill="#fff" opacity="0.30"/><circle cx="267" cy="561" r="1.6" fill="#fff" opacity="0.58"/><circle cx="245" cy="323" r="3.0" fill="#fff" opacity="0.61"/><circle cx="175" cy="285" r="2.6" fill="#fff" opacity="0.55"/><circle cx="470" cy="535" r="2.4" fill="#fff" opacity="0.65"/><circle cx="218" cy="323" r="0.9" fill="#fff" opacity="0.28"/><circle cx="275" cy="68" r="2.5" fill="#fff" opacity="0.53"/><circle cx="467" cy="615" r="1.7" fill="#fff" opacity="0.30"/><circle cx="498" cy="16" r="1.8" fill="#fff" opacity="0.52"/><circle cx="132" cy="460" r="3.2" fill="#fff" opacity="0.43"/><circle cx="249" cy="539" r="3.2" fill="#fff" opacity="0.36"/><circle cx="229" cy="648" r="1.9" fill="#fff" opacity="0.28"/><circle cx="462" cy="622" r="0.9" fill="#fff" opacity="0.36"/><circle cx="117" cy="180" r="3.2" fill="#fff" opacity="0.36"/><circle cx="139" cy="15" r="1.1" fill="#fff" opacity="0.55"/><circle cx="15" cy="488" r="2.3" fill="#fff" opacity="0.34"/><circle cx="427" cy="194" r="2.3" fill="#fff" opacity="0.47"/><circle cx="456" cy="250" r="2.1" fill="#fff" opacity="0.60"/><circle cx="259" cy="355" r="1.1" fill="#fff" opacity="0.58"/><circle cx="417" cy="651" r="2.3" fill="#fff" opacity="0.61"/><circle cx="265" cy="465" r="1.9" fill="#fff" opacity="0.46"/><circle cx="396" cy="391" r="1.4" fill="#fff" opacity="0.48"/><circle cx="233" cy="715" r="1.0" fill="#fff" opacity="0.58"/><circle cx="68" cy="5" r="1.1" fill="#fff" opacity="0.55"/><circle cx="397" cy="684" r="1.2" fill="#fff" opacity="0.31"/></g>
  <path d="M38 684 C128 596 386 596 475 684 V768 H38Z" fill="#7a5200" opacity=".17"/>
  <ellipse cx="256" cy="662" rx="150" ry="34" fill="#7a5200" opacity=".28"/>
  <g transform="translate(0 122)">
    <ellipse cx="256" cy="359.7" rx="110.69999999999999" ry="100.44999999999999" fill="url(#body)" filter="url(#softShadow)"/><circle cx="256" cy="232.60000000000002" r="86.1" fill="url(#head)"/><path d="M149.4 322.8 C51.00000000000003 304.35 85.85000000000002 423.25 165.8 402.75" fill="#7a5200"/><path d="M362.6 322.8 C461 304.35 426.15 423.25 346.2 402.75" fill="#7a5200"/><path d="M200.65 148.55 H311.35 L331.85 195.7 Q256 224.4 180.15 195.7 Z" fill="#fff27a" opacity=".85"/><ellipse cx="223.2" cy="253.1" rx="14.349999999999998" ry="16.4" fill="#14213d"/><ellipse cx="288.8" cy="253.1" rx="14.349999999999998" ry="16.4" fill="#14213d"/><circle cx="229.35" cy="244.9" r="4.714999999999999" fill="#fff"/><circle cx="294.95" cy="244.9" r="4.714999999999999" fill="#fff"/><path d="M215 201.85000000000002 Q256 224.4 297 201.85000000000002" stroke="#fff27a" stroke-width="10.25" fill="none" stroke-linecap="round" opacity=".8"/>
  </g>
  <path d="M74 126 C170 65 334 65 438 126" stroke="#fff" stroke-width="16" stroke-linecap="round" opacity=".16"/>
  <path d="M63 676 C162 718 344 718 449 662" stroke="#fff" stroke-width="14" stroke-linecap="round" opacity=".16"/>
</svg>