<svg xmlns="http://www.w3.org/2000/svg" viewBox="0 0 512 768" role="img" aria-label="时光沙漏 original portrait">
  
  <defs>
    <linearGradient id="bgp331" x1="0" y1="0" x2="1" y2="1">
      <stop offset="0" stop-color="#e8edf2"/>
      <stop offset=".55" stop-color="#9aa8b7"/>
      <stop offset="1" stop-color="#536271"/>
    </linearGradient>
    <radialGradient id="body" cx=".36" cy=".25" r=".76">
      <stop offset="0" stop-color="#e8edf2"/>
      <stop offset=".6" stop-color="#9aa8b7"/>
      <stop offset="1" stop-color="#536271"/>
    </radialGradient>
    <radialGradient id="head" cx=".36" cy=".26" r=".72">
      <stop offset="0" stop-color="#ffffff" stop-opacity=".85"/>
      <stop offset=".2" stop-color="#e8edf2"/>
      <stop offset=".72" stop-color="#9aa8b7"/>
      <stop offset="1" stop-color="#536271"/>
    </radialGradient>
    <filter id="softShadow" x="-30%" y="-30%" width="160%" height="160%">
      <feDropShadow dx="0" dy="8" stdDeviation="8" flood-color="#536271" flood-opacity=".35"/>
    </filter>
  </defs>
  <rect width="512" height="768" rx="48" fill="url(#bgp331)"/>
  <rect x="24" y="24" width="464" height="720" rx="40" fill="#ffffff" opacity=".08"/>
  <g opacity=".42"><circle cx="354" cy="471" r="2.1" fill="#fff" opacity="0.62"/><circle cx="57" cy="135" r="1.0" fill="#fff" opacity="0.62"/><circle cx="424" cy="268" r="1.1" fill="#fff" opacity="0.35"/><circle cx="229" cy="749" r="1.3" fill="#fff" opacity="0.29"/><circle cx="21" cy="387" r="2.4" fill="#fff" opacity="0.53"/><circle cx="115" cy="552" r="0.8" fill="#fff" opacity="0.57"/><circle cx="402" cy="479" r="2.9" fill="#fff" opacity="0.62"/><circle cx="482" cy="264" r="1.9" fill="#fff" opacity="0.63"/><circle cx="199" cy="262" r="2.4" fill="#fff" opacity="0.68"/><circle cx="429" cy="323" r="3.0" fill="#fff" opacity="0.68"/><circle cx="156" cy="157" r="1.4" fill="#fff" opacity="0.29"/><circle cx="67" cy="115" r="1.9" fill="#fff" opacity="0.70"/><circle cx="266" cy="545" r="2.9" fill="#fff" opacity="0.64"/><circle cx="390" cy="403" r="1.7" fill="#fff" opacity="0.36"/><circle cx="290" cy="194" r="1.5" fill="#fff" opacity="0.60"/><circle cx="465" cy="725" r="3.0" fill="#fff" opacity="0.51"/><circle cx="277" cy="734" r="1.8" fill="#fff" opacity="0.41"/><circle cx="128" cy="358" r="1.5" fill="#fff" opacity="0.48"/><circle cx="310" cy="516" r="3.0" fill="#fff" opacity="0.51"/><circle cx="6" cy="375" r="2.6" fill="#fff" opacity="0.28"/><circle cx="25" cy="126" r="2.3" fill="#fff" opacity="0.40"/><circle cx="347" cy="39" r="1.9" fill="#fff" opacity="0.62"/><circle cx="293" cy="712" r="1.5" fill="#fff" opacity="0.59"/><circle cx="82" cy="181" r="1.9" fill="#fff" opacity="0.53"/><circle cx="83" cy="722" r="2.3" fill="#fff" opacity="0.34"/><circle cx="255" cy="22" r="2.4" fill="#fff" opacity="0.53"/><circle cx="257" cy="483" r="2.4" fill="#fff" opacity="0.57"/><circle cx="197" cy="724" r="1.9" fill="#fff" opacity="0.46"/></g>
  <circle cx="256" cy="294" r="203" fill="#e8edf2" opacity=".12"/><circle cx="256" cy="294" r="161" fill="#fff" opacity=".1"/>
  <ellipse cx="256" cy="662" rx="150" ry="34" fill="#536271" opacity=".28"/>
  <g transform="translate(0 122)">
    <ellipse cx="256" cy="339.2" rx="100.44999999999999" ry="112.74999999999999" fill="url(#body)" filter="url(#softShadow)"/><circle cx="256" cy="226.45" r="79.94999999999999" fill="url(#head)"/><ellipse cx="256" cy="214.15" rx="139.39999999999998" ry="36.9" fill="none" stroke="#e8edf2" stroke-width="14.349999999999998" opacity=".75" transform="rotate(-12 256 214.15)"/><path d="M256 103.45000000000002 L276.5 154.70000000000002 L333.9 156.75 L286.75 187.5 L303.15 242.85 L256 208 L208.85 242.85 L225.25 187.5 L178.10000000000002 156.75 L235.5 154.70000000000002 Z" fill="#9aa8b7"/><ellipse cx="223.2" cy="253.1" rx="14.349999999999998" ry="16.4" fill="#14213d"/><ellipse cx="288.8" cy="253.1" rx="14.349999999999998" ry="16.4" fill="#14213d"/><circle cx="229.35" cy="244.9" r="4.714999999999999" fill="#fff"/><circle cx="294.95" cy="244.9" r="4.714999999999999" fill="#fff"/><circle cx="256" cy="210.05" r="14.349999999999998" fill="#e8edf2" opacity=".9"/>
  </g>
  <path d="M74 126 C170 65 334 65 438 126" stroke="#fff" stroke-width="16" stroke-linecap="round" opacity=".16"/>
  <path d="M63 676 C162 718 344 718 449 662" stroke="#fff" stroke-width="14" stroke-linecap="round" opacity=".16"/>
</svg>