<svg xmlns="http://www.w3.org/2000/svg" viewBox="0 0 512 768" role="img" aria-label="瘟疫之源 original portrait">
  
  <defs>
    <linearGradient id="bgp333" x1="0" y1="0" x2="1" y2="1">
      <stop offset="0" stop-color="#efb2ff"/>
      <stop offset=".55" stop-color="#9b5de5"/>
      <stop offset="1" stop-color="#4f2378"/>
    </linearGradient>
    <radialGradient id="body" cx=".36" cy=".25" r=".76">
      <stop offset="0" stop-color="#efb2ff"/>
      <stop offset=".6" stop-color="#9b5de5"/>
      <stop offset="1" stop-color="#4f2378"/>
    </radialGradient>
    <radialGradient id="head" cx=".36" cy=".26" r=".72">
      <stop offset="0" stop-color="#ffffff" stop-opacity=".85"/>
      <stop offset=".2" stop-color="#efb2ff"/>
      <stop offset=".72" stop-color="#9b5de5"/>
      <stop offset="1" stop-color="#4f2378"/>
    </radialGradient>
    <filter id="softShadow" x="-30%" y="-30%" width="160%" height="160%">
      <feDropShadow dx="0" dy="8" stdDeviation="8" flood-color="#4f2378" flood-opacity=".35"/>
    </filter>
  </defs>
  <rect width="512" height="768" rx="48" fill="url(#bgp333)"/>
  <rect x="24" y="24" width="464" height="720" rx="40" fill="#ffffff" opacity=".08"/>
  <g opacity=".42"><circle cx="403" cy="559" r="2.8" fill="#fff" opacity="0.61"/><circle cx="95" cy="739" r="1.0" fill="#fff" opacity="0.60"/><circle cx="445" cy="586" r="3.2" fill="#fff" opacity="0.55"/><circle cx="466" cy="590" r="2.5" fill="#fff" opacity="0.29"/><circle cx="421" cy="705" r="1.1" fill="#fff" opacity="0.69"/><circle cx="44" cy="315" r="1.2" fill="#fff" opacity="0.49"/><circle cx="42" cy="154" r="2.3" fill="#fff" opacity="0.57"/><circle cx="322" cy="266" r="1.8" fill="#fff" opacity="0.33"/><circle cx="68" cy="154" r="1.6" fill="#fff" opacity="0.62"/><circle cx="138" cy="582" r="2.7" fill="#fff" opacity="0.67"/><circle cx="213" cy="462" r="2.1" fill="#fff" opacity="0.36"/><circle cx="178" cy="95" r="3.1" fill="#fff" opacity="0.43"/><circle cx="264" cy="150" r="2.9" fill="#fff" opacity="0.37"/><circle cx="139" cy="183" r="0.9" fill="#fff" opacity="0.43"/><circle cx="165" cy="308" r="2.4" fill="#fff" opacity="0.47"/><circle cx="232" cy="389" r="2.0" fill="#fff" opacity="0.42"/><circle cx="512" cy="372" r="1.6" fill="#fff" opacity="0.41"/><circle cx="417" cy="348" r="1.0" fill="#fff" opacity="0.29"/><circle cx="219" cy="60" r="2.9" fill="#fff" opacity="0.42"/><circle cx="498" cy="191" r="2.5" fill="#fff" opacity="0.70"/><circle cx="38" cy="745" r="2.8" fill="#fff" opacity="0.69"/><circle cx="277" cy="203" r="3.2" fill="#fff" opacity="0.36"/><circle cx="434" cy="599" r="2.3" fill="#fff" opacity="0.65"/><circle cx="87" cy="532" r="1.6" fill="#fff" opacity="0.47"/><circle cx="330" cy="644" r="2.4" fill="#fff" opacity="0.69"/><circle cx="24" cy="383" r="3.1" fill="#fff" opacity="0.67"/><circle cx="487" cy="439" r="2.5" fill="#fff" opacity="0.62"/><circle cx="19" cy="640" r="2.2" fill="#fff" opacity="0.63"/></g>
  <path d="M0 670 C96 613 167 665 256 620 C337 660 421 608 512 662 V768 H0Z" fill="#4f2378" opacity=".15"/>
  <ellipse cx="256" cy="662" rx="150" ry="34" fill="#4f2378" opacity=".28"/>
  <g transform="translate(0 122)">
    <path d="M159.65 347.4 C69.45000000000002 322.8 92 222.35000000000002 165.8 263.35" stroke="#9b5de5" stroke-width="28.699999999999996" fill="none" stroke-linecap="round" opacity=".76"/><ellipse cx="256" cy="353.55" rx="108.64999999999999" ry="102.49999999999999" fill="url(#body)" filter="url(#softShadow)"/><path d="M184.25 212.10000000000002 L137.10000000000002 115.75000000000003 L231.4 175.20000000000002 Z" fill="#9b5de5"/><path d="M327.75 212.10000000000002 L374.9 115.75000000000003 L280.6 175.20000000000002 Z" fill="#9b5de5"/><circle cx="256" cy="234.65" r="92.24999999999999" fill="url(#head)"/><ellipse cx="221.15" cy="251.05" rx="16.4" ry="20.5" fill="#182033"/><ellipse cx="290.85" cy="251.05" rx="16.4" ry="20.5" fill="#182033"/><ellipse cx="223.2" cy="253.1" rx="14.349999999999998" ry="16.4" fill="#14213d"/><ellipse cx="288.8" cy="253.1" rx="14.349999999999998" ry="16.4" fill="#14213d"/><circle cx="229.35" cy="244.9" r="4.714999999999999" fill="#fff"/><circle cx="294.95" cy="244.9" r="4.714999999999999" fill="#fff"/><circle cx="256" cy="210.05" r="14.349999999999998" fill="#efb2ff" opacity=".9"/>
  </g>
  <path d="M74 126 C170 65 334 65 438 126" stroke="#fff" stroke-width="16" stroke-linecap="round" opacity=".16"/>
  <path d="M63 676 C162 718 344 718 449 662" stroke="#fff" stroke-width="14" stroke-linecap="round" opacity=".16"/>
</svg>