<svg xmlns="http://www.w3.org/2000/svg" viewBox="0 0 512 768" role="img" aria-label="雷霆领主 original portrait">
  
  <defs>
    <linearGradient id="bgp334" x1="0" y1="0" x2="1" y2="1">
      <stop offset="0" stop-color="#fff27a"/>
      <stop offset=".55" stop-color="#f9c80e"/>
      <stop offset="1" stop-color="#7a5200"/>
    </linearGradient>
    <radialGradient id="body" cx=".36" cy=".25" r=".76">
      <stop offset="0" stop-color="#fff27a"/>
      <stop offset=".6" stop-color="#f9c80e"/>
      <stop offset="1" stop-color="#7a5200"/>
    </radialGradient>
    <radialGradient id="head" cx=".36" cy=".26" r=".72">
      <stop offset="0" stop-color="#ffffff" stop-opacity=".85"/>
      <stop offset=".2" stop-color="#fff27a"/>
      <stop offset=".72" stop-color="#f9c80e"/>
      <stop offset="1" stop-color="#7a5200"/>
    </radialGradient>
    <filter id="softShadow" x="-30%" y="-30%" width="160%" height="160%">
      <feDropShadow dx="0" dy="8" stdDeviation="8" flood-color="#7a5200" flood-opacity=".35"/>
    </filter>
  </defs>
  <rect width="512" height="768" rx="48" fill="url(#bgp334)"/>
  <rect x="24" y="24" width="464" height="720" rx="40" fill="#ffffff" opacity=".08"/>
  <g opacity=".42"><circle cx="70" cy="586" r="2.6" fill="#fff" opacity="0.49"/><circle cx="370" cy="595" r="1.0" fill="#fff" opacity="0.37"/><circle cx="51" cy="94" r="2.3" fill="#fff" opacity="0.48"/><circle cx="358" cy="619" r="1.3" fill="#fff" opacity="0.50"/><circle cx="12" cy="347" r="1.5" fill="#fff" opacity="0.42"/><circle cx="261" cy="348" r="2.3" fill="#fff" opacity="0.27"/><circle cx="273" cy="547" r="1.3" fill="#fff" opacity="0.34"/><circle cx="204" cy="545" r="1.9" fill="#fff" opacity="0.33"/><circle cx="177" cy="575" r="1.1" fill="#fff" opacity="0.57"/><circle cx="77" cy="353" r="2.2" fill="#fff" opacity="0.46"/><circle cx="311" cy="430" r="2.8" fill="#fff" opacity="0.69"/><circle cx="422" cy="300" r="1.5" fill="#fff" opacity="0.55"/><circle cx="134" cy="74" r="2.9" fill="#fff" opacity="0.35"/><circle cx="222" cy="509" r="2.6" fill="#fff" opacity="0.44"/><circle cx="76" cy="613" r="1.7" fill="#fff" opacity="0.60"/><circle cx="442" cy="140" r="3.2" fill="#fff" opacity="0.56"/><circle cx="123" cy="162" r="3.0" fill="#fff" opacity="0.41"/><circle cx="38" cy="259" r="1.9" fill="#fff" opacity="0.57"/><circle cx="303" cy="113" r="1.7" fill="#fff" opacity="0.43"/><circle cx="314" cy="527" r="2.7" fill="#fff" opacity="0.30"/><circle cx="329" cy="27" r="2.7" fill="#fff" opacity="0.65"/><circle cx="409" cy="733" r="2.6" fill="#fff" opacity="0.59"/><circle cx="25" cy="606" r="3.1" fill="#fff" opacity="0.42"/><circle cx="96" cy="425" r="1.8" fill="#fff" opacity="0.27"/><circle cx="340" cy="511" r="2.9" fill="#fff" opacity="0.48"/><circle cx="499" cy="198" r="2.6" fill="#fff" opacity="0.60"/><circle cx="246" cy="457" r="2.4" fill="#fff" opacity="0.54"/><circle cx="40" cy="300" r="2.5" fill="#fff" opacity="0.36"/></g>
  <path d="M38 684 C128 596 386 596 475 684 V768 H38Z" fill="#7a5200" opacity=".17"/>
  <ellipse cx="256" cy="662" rx="150" ry="34" fill="#7a5200" opacity=".28"/>
  <g transform="translate(0 122)">
    <ellipse cx="256" cy="359.7" rx="110.69999999999999" ry="100.44999999999999" fill="url(#body)" filter="url(#softShadow)"/><circle cx="256" cy="232.60000000000002" r="86.1" fill="url(#head)"/><path d="M149.4 322.8 C51.00000000000003 304.35 85.85000000000002 423.25 165.8 402.75" fill="#7a5200"/><path d="M362.6 322.8 C461 304.35 426.15 423.25 346.2 402.75" fill="#7a5200"/><path d="M200.65 148.55 H311.35 L331.85 195.7 Q256 224.4 180.15 195.7 Z" fill="#fff27a" opacity=".85"/><ellipse cx="223.2" cy="253.1" rx="14.349999999999998" ry="16.4" fill="#14213d"/><ellipse cx="288.8" cy="253.1" rx="14.349999999999998" ry="16.4" fill="#14213d"/><circle cx="229.35" cy="244.9" r="4.714999999999999" fill="#fff"/><circle cx="294.95" cy="244.9" r="4.714999999999999" fill="#fff"/><circle cx="256" cy="210.05" r="14.349999999999998" fill="#fff27a" opacity=".9"/>
  </g>
  <path d="M74 126 C170 65 334 65 438 126" stroke="#fff" stroke-width="16" stroke-linecap="round" opacity=".16"/>
  <path d="M63 676 C162 718 344 718 449 662" stroke="#fff" stroke-width="14" stroke-linecap="round" opacity=".16"/>
</svg>