<svg xmlns="http://www.w3.org/2000/svg" viewBox="0 0 512 768" role="img" aria-label="天空之神 original portrait">
  
  <defs>
    <linearGradient id="bgp336" x1="0" y1="0" x2="1" y2="1">
      <stop offset="0" stop-color="#d9edff"/>
      <stop offset=".55" stop-color="#82b7ff"/>
      <stop offset="1" stop-color="#4260ad"/>
    </linearGradient>
    <radialGradient id="body" cx=".36" cy=".25" r=".76">
      <stop offset="0" stop-color="#d9edff"/>
      <stop offset=".6" stop-color="#82b7ff"/>
      <stop offset="1" stop-color="#4260ad"/>
    </radialGradient>
    <radialGradient id="head" cx=".36" cy=".26" r=".72">
      <stop offset="0" stop-color="#ffffff" stop-opacity=".85"/>
      <stop offset=".2" stop-color="#d9edff"/>
      <stop offset=".72" stop-color="#82b7ff"/>
      <stop offset="1" stop-color="#4260ad"/>
    </radialGradient>
    <filter id="softShadow" x="-30%" y="-30%" width="160%" height="160%">
      <feDropShadow dx="0" dy="8" stdDeviation="8" flood-color="#4260ad" flood-opacity=".35"/>
    </filter>
  </defs>
  <rect width="512" height="768" rx="48" fill="url(#bgp336)"/>
  <rect x="24" y="24" width="464" height="720" rx="40" fill="#ffffff" opacity=".08"/>
  <g opacity=".42"><circle cx="401" cy="745" r="2.0" fill="#fff" opacity="0.30"/><circle cx="399" cy="414" r="1.6" fill="#fff" opacity="0.55"/><circle cx="350" cy="528" r="1.8" fill="#fff" opacity="0.53"/><circle cx="30" cy="624" r="1.6" fill="#fff" opacity="0.46"/><circle cx="433" cy="515" r="2.5" fill="#fff" opacity="0.53"/><circle cx="385" cy="133" r="2.2" fill="#fff" opacity="0.46"/><circle cx="54" cy="450" r="2.3" fill="#fff" opacity="0.36"/><circle cx="373" cy="96" r="1.1" fill="#fff" opacity="0.34"/><circle cx="511" cy="514" r="2.8" fill="#fff" opacity="0.50"/><circle cx="122" cy="301" r="2.6" fill="#fff" opacity="0.57"/><circle cx="7" cy="441" r="2.0" fill="#fff" opacity="0.29"/><circle cx="252" cy="462" r="2.8" fill="#fff" opacity="0.57"/><circle cx="369" cy="714" r="1.3" fill="#fff" opacity="0.49"/><circle cx="126" cy="768" r="3.1" fill="#fff" opacity="0.36"/><circle cx="364" cy="14" r="1.3" fill="#fff" opacity="0.26"/><circle cx="266" cy="68" r="1.3" fill="#fff" opacity="0.26"/><circle cx="358" cy="123" r="2.6" fill="#fff" opacity="0.64"/><circle cx="379" cy="229" r="2.2" fill="#fff" opacity="0.44"/><circle cx="404" cy="408" r="1.6" fill="#fff" opacity="0.39"/><circle cx="482" cy="699" r="2.5" fill="#fff" opacity="0.36"/><circle cx="248" cy="277" r="2.6" fill="#fff" opacity="0.52"/><circle cx="293" cy="243" r="1.1" fill="#fff" opacity="0.36"/><circle cx="390" cy="259" r="1.4" fill="#fff" opacity="0.36"/><circle cx="100" cy="308" r="2.8" fill="#fff" opacity="0.41"/><circle cx="32" cy="622" r="1.3" fill="#fff" opacity="0.64"/><circle cx="8" cy="23" r="2.7" fill="#fff" opacity="0.44"/><circle cx="177" cy="205" r="2.0" fill="#fff" opacity="0.39"/><circle cx="138" cy="92" r="2.1" fill="#fff" opacity="0.64"/></g>
  <circle cx="256" cy="294" r="214" fill="#d9edff" opacity=".12"/><circle cx="256" cy="294" r="172" fill="#fff" opacity=".1"/>
  <ellipse cx="256" cy="662" rx="150" ry="34" fill="#4260ad" opacity=".28"/>
  <g transform="translate(0 122)">
    <ellipse cx="256" cy="339.2" rx="100.44999999999999" ry="112.74999999999999" fill="url(#body)" filter="url(#softShadow)"/><circle cx="256" cy="226.45" r="79.94999999999999" fill="url(#head)"/><ellipse cx="256" cy="214.15" rx="139.39999999999998" ry="36.9" fill="none" stroke="#d9edff" stroke-width="14.349999999999998" opacity=".75" transform="rotate(-12 256 214.15)"/><path d="M256 103.45000000000002 L276.5 154.70000000000002 L333.9 156.75 L286.75 187.5 L303.15 242.85 L256 208 L208.85 242.85 L225.25 187.5 L178.10000000000002 156.75 L235.5 154.70000000000002 Z" fill="#82b7ff"/><ellipse cx="223.2" cy="253.1" rx="14.349999999999998" ry="16.4" fill="#14213d"/><ellipse cx="288.8" cy="253.1" rx="14.349999999999998" ry="16.4" fill="#14213d"/><circle cx="229.35" cy="244.9" r="4.714999999999999" fill="#fff"/><circle cx="294.95" cy="244.9" r="4.714999999999999" fill="#fff"/><circle cx="256" cy="210.05" r="14.349999999999998" fill="#d9edff" opacity=".9"/>
  </g>
  <path d="M74 126 C170 65 334 65 438 126" stroke="#fff" stroke-width="16" stroke-linecap="round" opacity=".16"/>
  <path d="M63 676 C162 718 344 718 449 662" stroke="#fff" stroke-width="14" stroke-linecap="round" opacity=".16"/>
</svg>