<svg xmlns="http://www.w3.org/2000/svg" viewBox="0 0 512 768" role="img" aria-label="灭世魔龙 original portrait">
  
  <defs>
    <linearGradient id="bgp340" x1="0" y1="0" x2="1" y2="1">
      <stop offset="0" stop-color="#b8ffe2"/>
      <stop offset=".55" stop-color="#22a889"/>
      <stop offset="1" stop-color="#1d506d"/>
    </linearGradient>
    <radialGradient id="body" cx=".36" cy=".25" r=".76">
      <stop offset="0" stop-color="#b8ffe2"/>
      <stop offset=".6" stop-color="#22a889"/>
      <stop offset="1" stop-color="#1d506d"/>
    </radialGradient>
    <radialGradient id="head" cx=".36" cy=".26" r=".72">
      <stop offset="0" stop-color="#ffffff" stop-opacity=".85"/>
      <stop offset=".2" stop-color="#b8ffe2"/>
      <stop offset=".72" stop-color="#22a889"/>
      <stop offset="1" stop-color="#1d506d"/>
    </radialGradient>
    <filter id="softShadow" x="-30%" y="-30%" width="160%" height="160%">
      <feDropShadow dx="0" dy="8" stdDeviation="8" flood-color="#1d506d" flood-opacity=".35"/>
    </filter>
  </defs>
  <rect width="512" height="768" rx="48" fill="url(#bgp340)"/>
  <rect x="24" y="24" width="464" height="720" rx="40" fill="#ffffff" opacity=".08"/>
  <g opacity=".42"><circle cx="80" cy="341" r="1.8" fill="#fff" opacity="0.50"/><circle cx="277" cy="706" r="1.9" fill="#fff" opacity="0.50"/><circle cx="179" cy="527" r="2.2" fill="#fff" opacity="0.28"/><circle cx="100" cy="557" r="2.4" fill="#fff" opacity="0.65"/><circle cx="15" cy="289" r="2.2" fill="#fff" opacity="0.46"/><circle cx="27" cy="49" r="2.9" fill="#fff" opacity="0.55"/><circle cx="352" cy="527" r="2.9" fill="#fff" opacity="0.25"/><circle cx="478" cy="192" r="2.8" fill="#fff" opacity="0.64"/><circle cx="44" cy="345" r="2.5" fill="#fff" opacity="0.57"/><circle cx="313" cy="163" r="2.9" fill="#fff" opacity="0.29"/><circle cx="435" cy="177" r="1.8" fill="#fff" opacity="0.67"/><circle cx="160" cy="292" r="1.9" fill="#fff" opacity="0.70"/><circle cx="143" cy="718" r="2.5" fill="#fff" opacity="0.45"/><circle cx="44" cy="126" r="1.9" fill="#fff" opacity="0.52"/><circle cx="357" cy="592" r="2.6" fill="#fff" opacity="0.42"/><circle cx="456" cy="184" r="1.5" fill="#fff" opacity="0.42"/><circle cx="248" cy="44" r="0.8" fill="#fff" opacity="0.46"/><circle cx="182" cy="182" r="0.9" fill="#fff" opacity="0.62"/><circle cx="213" cy="28" r="2.9" fill="#fff" opacity="0.46"/><circle cx="181" cy="218" r="1.3" fill="#fff" opacity="0.43"/><circle cx="227" cy="163" r="2.9" fill="#fff" opacity="0.36"/><circle cx="21" cy="553" r="1.7" fill="#fff" opacity="0.65"/><circle cx="59" cy="366" r="2.4" fill="#fff" opacity="0.60"/><circle cx="361" cy="208" r="2.6" fill="#fff" opacity="0.36"/><circle cx="350" cy="295" r="3.2" fill="#fff" opacity="0.27"/><circle cx="178" cy="420" r="3.1" fill="#fff" opacity="0.51"/><circle cx="129" cy="46" r="0.9" fill="#fff" opacity="0.59"/><circle cx="132" cy="706" r="3.1" fill="#fff" opacity="0.67"/></g>
  <path d="M70 600 C142 504 297 500 443 610" fill="#1d506d" opacity=".18"/><path d="M52 642 C146 578 341 580 471 650" fill="#1d506d" opacity=".16"/>
  <ellipse cx="256" cy="662" rx="150" ry="34" fill="#1d506d" opacity=".28"/>
  <g transform="translate(0 122)">
    <path d="M108.4 347.4 C161.7 224.4 292.9 175.20000000000002 389.25 253.1 C325.7 249 276.5 285.9 247.8 376.1" fill="#1d506d" opacity=".45"/><ellipse cx="256" cy="335.1" rx="110.69999999999999" ry="92.24999999999999" fill="url(#body)" filter="url(#softShadow)"/><path d="M167.85000000000002 253.1 L219.1 130.10000000000002 L249.85 244.9 Z" fill="#22a889"/><path d="M344.15 253.1 L292.9 130.10000000000002 L262.15 244.9 Z" fill="#22a889"/><ellipse cx="256" cy="267.45" rx="96.35" ry="86.1" fill="url(#head)"/><path d="M151.45 292.05 Q87.9 298.2 63.30000000000001 253.1" stroke="#b8ffe2" stroke-width="10.25" fill="none" stroke-linecap="round" opacity=".85"/><path d="M360.55 292.05 Q424.1 298.2 448.7 253.1" stroke="#b8ffe2" stroke-width="10.25" fill="none" stroke-linecap="round" opacity=".85"/><ellipse cx="223.2" cy="253.1" rx="14.349999999999998" ry="16.4" fill="#14213d"/><ellipse cx="288.8" cy="253.1" rx="14.349999999999998" ry="16.4" fill="#14213d"/><circle cx="229.35" cy="244.9" r="4.714999999999999" fill="#fff"/><circle cx="294.95" cy="244.9" r="4.714999999999999" fill="#fff"/><circle cx="256" cy="210.05" r="14.349999999999998" fill="#b8ffe2" opacity=".9"/>
  </g>
  <path d="M74 126 C170 65 334 65 438 126" stroke="#fff" stroke-width="16" stroke-linecap="round" opacity=".16"/>
  <path d="M63 676 C162 718 344 718 449 662" stroke="#fff" stroke-width="14" stroke-linecap="round" opacity=".16"/>
</svg>