<svg xmlns="http://www.w3.org/2000/svg" viewBox="0 0 512 768" role="img" aria-label="暗黑超梦 unique portrait">
  <defs>
    <linearGradient id="bg341" x1="0" y1="0" x2="1" y2="1"><stop offset="0" stop-color="#ffd1dc"/><stop offset=".55" stop-color="#ff5fa2"/><stop offset="1" stop-color="#111827"/></linearGradient>
    <radialGradient id="body341" cx=".35" cy=".24" r=".78"><stop offset="0" stop-color="#fff" stop-opacity=".88"/><stop offset=".18" stop-color="#ffd1dc"/><stop offset=".68" stop-color="#ff5fa2"/><stop offset="1" stop-color="#111827"/></radialGradient>
    <filter id="shadow341" x="-30%" y="-30%" width="160%" height="160%"><feDropShadow dx="0" dy="10" stdDeviation="9" flood-color="#111827" flood-opacity=".36"/></filter>
  </defs>
  <rect width="512" height="768" rx="48" fill="url(#bg341)"/>
  <rect x="24" y="24" width="464" height="720" rx="40" fill="#fff" opacity=".08"/>
  <g opacity=".46"><circle cx="194" cy="404" r="1.6" fill="#fff" opacity="0.35"/><circle cx="307" cy="275" r="3.8" fill="#fff" opacity="0.54"/><circle cx="304" cy="524" r="4.5" fill="#fff" opacity="0.35"/><circle cx="276" cy="496" r="3.7" fill="#fff" opacity="0.33"/><circle cx="310" cy="504" r="3.9" fill="#fff" opacity="0.36"/><circle cx="378" cy="590" r="1.4" fill="#fff" opacity="0.35"/><circle cx="336" cy="555" r="2.9" fill="#fff" opacity="0.61"/><circle cx="96" cy="561" r="5.1" fill="#fff" opacity="0.26"/><circle cx="371" cy="447" r="3.4" fill="#fff" opacity="0.53"/><circle cx="359" cy="326" r="4.6" fill="#fff" opacity="0.45"/><circle cx="143" cy="254" r="4.2" fill="#fff" opacity="0.32"/><circle cx="44" cy="204" r="4.2" fill="#fff" opacity="0.56"/><circle cx="401" cy="90" r="3.8" fill="#fff" opacity="0.32"/><circle cx="87" cy="332" r="3.7" fill="#fff" opacity="0.26"/><circle cx="105" cy="366" r="3.2" fill="#fff" opacity="0.63"/><circle cx="310" cy="356" r="1.4" fill="#fff" opacity="0.61"/><circle cx="377" cy="587" r="3.7" fill="#fff" opacity="0.46"/><circle cx="258" cy="358" r="2.7" fill="#fff" opacity="0.42"/><circle cx="130" cy="436" r="4.4" fill="#fff" opacity="0.56"/><circle cx="72" cy="579" r="2.5" fill="#fff" opacity="0.53"/><circle cx="383" cy="78" r="5.0" fill="#fff" opacity="0.42"/></g>
  <path d="M0 596 C80 558 128 616 202 584 C281 550 332 618 418 582 C464 563 492 570 512 586 V768 H0Z" fill="#111827" opacity=".22"/>
  <ellipse cx="256" cy="664" rx="154" ry="36" fill="#111827" opacity=".3"/>
  <g transform="translate(0 84)"><path d="M151 500 C116 338 160 190 256 170 C352 190 396 338 361 500 C320 466 291 532 256 490 C221 532 192 466 151 500Z" fill="url(#body341)" filter="url(#shadow341)"/>
    <circle cx="209" cy="338" r="17" fill="#101827"/><circle cx="303" cy="338" r="17" fill="#101827"/>
    <circle cx="203" cy="332" r="5" fill="#fff" opacity=".75"/><circle cx="297" cy="332" r="5" fill="#fff" opacity=".75"/>
    <path d="M206 410 Q256 442 306 410" stroke="#111827" stroke-width="12" fill="none" stroke-linecap="round" opacity=".72"/>
    <path d="M188 560 C228 600 288 600 326 560" stroke="#fff" stroke-width="12" stroke-linecap="round" opacity=".18" fill="none"/>
  </g>
  <path d="M72 128 C168 68 334 66 440 128" stroke="#fff" stroke-width="16" stroke-linecap="round" opacity=".16"/>
  <path d="M60 678 C164 722 348 718 452 662" stroke="#fff" stroke-width="14" stroke-linecap="round" opacity=".16"/>
</svg>