<svg xmlns="http://www.w3.org/2000/svg" viewBox="0 0 512 768" role="img" aria-label="星际陨落 original portrait">
  
  <defs>
    <linearGradient id="bgp345" x1="0" y1="0" x2="1" y2="1">
      <stop offset="0" stop-color="#ddd0b2"/>
      <stop offset=".55" stop-color="#8d7a5f"/>
      <stop offset="1" stop-color="#514438"/>
    </linearGradient>
    <radialGradient id="body" cx=".36" cy=".25" r=".76">
      <stop offset="0" stop-color="#ddd0b2"/>
      <stop offset=".6" stop-color="#8d7a5f"/>
      <stop offset="1" stop-color="#514438"/>
    </radialGradient>
    <radialGradient id="head" cx=".36" cy=".26" r=".72">
      <stop offset="0" stop-color="#ffffff" stop-opacity=".85"/>
      <stop offset=".2" stop-color="#ddd0b2"/>
      <stop offset=".72" stop-color="#8d7a5f"/>
      <stop offset="1" stop-color="#514438"/>
    </radialGradient>
    <filter id="softShadow" x="-30%" y="-30%" width="160%" height="160%">
      <feDropShadow dx="0" dy="8" stdDeviation="8" flood-color="#514438" flood-opacity=".35"/>
    </filter>
  </defs>
  <rect width="512" height="768" rx="48" fill="url(#bgp345)"/>
  <rect x="24" y="24" width="464" height="720" rx="40" fill="#ffffff" opacity=".08"/>
  <g opacity=".42"><circle cx="236" cy="355" r="3.0" fill="#fff" opacity="0.47"/><circle cx="374" cy="667" r="1.8" fill="#fff" opacity="0.62"/><circle cx="127" cy="665" r="2.3" fill="#fff" opacity="0.60"/><circle cx="194" cy="31" r="1.4" fill="#fff" opacity="0.64"/><circle cx="287" cy="540" r="2.2" fill="#fff" opacity="0.37"/><circle cx="455" cy="505" r="1.1" fill="#fff" opacity="0.33"/><circle cx="241" cy="505" r="3.1" fill="#fff" opacity="0.37"/><circle cx="358" cy="6" r="1.8" fill="#fff" opacity="0.29"/><circle cx="438" cy="297" r="2.0" fill="#fff" opacity="0.56"/><circle cx="231" cy="702" r="3.1" fill="#fff" opacity="0.66"/><circle cx="251" cy="520" r="2.2" fill="#fff" opacity="0.66"/><circle cx="440" cy="694" r="2.0" fill="#fff" opacity="0.64"/><circle cx="42" cy="308" r="2.3" fill="#fff" opacity="0.42"/><circle cx="63" cy="629" r="2.5" fill="#fff" opacity="0.27"/><circle cx="152" cy="296" r="1.9" fill="#fff" opacity="0.36"/><circle cx="503" cy="80" r="2.1" fill="#fff" opacity="0.46"/><circle cx="165" cy="587" r="1.3" fill="#fff" opacity="0.44"/><circle cx="457" cy="167" r="2.8" fill="#fff" opacity="0.29"/><circle cx="458" cy="212" r="2.2" fill="#fff" opacity="0.29"/><circle cx="16" cy="188" r="2.8" fill="#fff" opacity="0.52"/><circle cx="132" cy="626" r="1.5" fill="#fff" opacity="0.65"/><circle cx="275" cy="56" r="1.1" fill="#fff" opacity="0.44"/><circle cx="220" cy="110" r="1.2" fill="#fff" opacity="0.42"/><circle cx="49" cy="713" r="1.6" fill="#fff" opacity="0.63"/><circle cx="403" cy="695" r="2.5" fill="#fff" opacity="0.56"/><circle cx="438" cy="177" r="3.1" fill="#fff" opacity="0.66"/><circle cx="179" cy="283" r="2.8" fill="#fff" opacity="0.31"/><circle cx="129" cy="286" r="2.6" fill="#fff" opacity="0.59"/></g>
  <circle cx="256" cy="294" r="210" fill="#ddd0b2" opacity=".12"/><circle cx="256" cy="294" r="168" fill="#fff" opacity=".1"/>
  <ellipse cx="256" cy="662" rx="150" ry="34" fill="#514438" opacity=".28"/>
  <g transform="translate(0 122)">
    <ellipse cx="256" cy="339.2" rx="100.44999999999999" ry="112.74999999999999" fill="url(#body)" filter="url(#softShadow)"/><circle cx="256" cy="226.45" r="79.94999999999999" fill="url(#head)"/><ellipse cx="256" cy="214.15" rx="139.39999999999998" ry="36.9" fill="none" stroke="#ddd0b2" stroke-width="14.349999999999998" opacity=".75" transform="rotate(-12 256 214.15)"/><path d="M256 103.45000000000002 L276.5 154.70000000000002 L333.9 156.75 L286.75 187.5 L303.15 242.85 L256 208 L208.85 242.85 L225.25 187.5 L178.10000000000002 156.75 L235.5 154.70000000000002 Z" fill="#8d7a5f"/><ellipse cx="223.2" cy="253.1" rx="14.349999999999998" ry="16.4" fill="#14213d"/><ellipse cx="288.8" cy="253.1" rx="14.349999999999998" ry="16.4" fill="#14213d"/><circle cx="229.35" cy="244.9" r="4.714999999999999" fill="#fff"/><circle cx="294.95" cy="244.9" r="4.714999999999999" fill="#fff"/><path d="M215 201.85000000000002 Q256 224.4 297 201.85000000000002" stroke="#ddd0b2" stroke-width="10.25" fill="none" stroke-linecap="round" opacity=".8"/>
  </g>
  <path d="M74 126 C170 65 334 65 438 126" stroke="#fff" stroke-width="16" stroke-linecap="round" opacity=".16"/>
  <path d="M63 676 C162 718 344 718 449 662" stroke="#fff" stroke-width="14" stroke-linecap="round" opacity=".16"/>
</svg>