<svg xmlns="http://www.w3.org/2000/svg" viewBox="0 0 512 768" role="img" aria-label="磁暴塔 original portrait">
  
  <defs>
    <linearGradient id="bgp35" x1="0" y1="0" x2="1" y2="1">
      <stop offset="0" stop-color="#fff27a"/>
      <stop offset=".55" stop-color="#f9c80e"/>
      <stop offset="1" stop-color="#7a5200"/>
    </linearGradient>
    <radialGradient id="body" cx=".36" cy=".25" r=".76">
      <stop offset="0" stop-color="#fff27a"/>
      <stop offset=".6" stop-color="#f9c80e"/>
      <stop offset="1" stop-color="#7a5200"/>
    </radialGradient>
    <radialGradient id="head" cx=".36" cy=".26" r=".72">
      <stop offset="0" stop-color="#ffffff" stop-opacity=".85"/>
      <stop offset=".2" stop-color="#fff27a"/>
      <stop offset=".72" stop-color="#f9c80e"/>
      <stop offset="1" stop-color="#7a5200"/>
    </radialGradient>
    <filter id="softShadow" x="-30%" y="-30%" width="160%" height="160%">
      <feDropShadow dx="0" dy="8" stdDeviation="8" flood-color="#7a5200" flood-opacity=".35"/>
    </filter>
  </defs>
  <rect width="512" height="768" rx="48" fill="url(#bgp35)"/>
  <rect x="24" y="24" width="464" height="720" rx="40" fill="#ffffff" opacity=".08"/>
  <g opacity=".42"><circle cx="82" cy="632" r="1.3" fill="#fff" opacity="0.57"/><circle cx="141" cy="553" r="0.8" fill="#fff" opacity="0.36"/><circle cx="387" cy="627" r="2.9" fill="#fff" opacity="0.65"/><circle cx="396" cy="145" r="1.1" fill="#fff" opacity="0.40"/><circle cx="367" cy="322" r="2.0" fill="#fff" opacity="0.31"/><circle cx="220" cy="761" r="3.2" fill="#fff" opacity="0.64"/><circle cx="485" cy="347" r="2.3" fill="#fff" opacity="0.42"/><circle cx="197" cy="17" r="2.7" fill="#fff" opacity="0.38"/><circle cx="114" cy="422" r="1.0" fill="#fff" opacity="0.28"/><circle cx="464" cy="349" r="1.6" fill="#fff" opacity="0.37"/><circle cx="450" cy="214" r="1.3" fill="#fff" opacity="0.59"/><circle cx="210" cy="83" r="2.9" fill="#fff" opacity="0.43"/><circle cx="19" cy="133" r="2.2" fill="#fff" opacity="0.53"/><circle cx="49" cy="95" r="1.9" fill="#fff" opacity="0.69"/><circle cx="263" cy="657" r="1.8" fill="#fff" opacity="0.48"/><circle cx="207" cy="215" r="2.3" fill="#fff" opacity="0.48"/><circle cx="173" cy="215" r="1.2" fill="#fff" opacity="0.59"/><circle cx="176" cy="152" r="1.9" fill="#fff" opacity="0.50"/><circle cx="109" cy="584" r="1.1" fill="#fff" opacity="0.37"/><circle cx="27" cy="205" r="2.1" fill="#fff" opacity="0.25"/><circle cx="336" cy="276" r="1.6" fill="#fff" opacity="0.61"/><circle cx="340" cy="680" r="3.0" fill="#fff" opacity="0.59"/><circle cx="2" cy="169" r="3.0" fill="#fff" opacity="0.49"/><circle cx="358" cy="252" r="1.3" fill="#fff" opacity="0.68"/><circle cx="498" cy="649" r="3.0" fill="#fff" opacity="0.29"/><circle cx="356" cy="617" r="1.8" fill="#fff" opacity="0.52"/><circle cx="308" cy="26" r="1.3" fill="#fff" opacity="0.35"/><circle cx="406" cy="397" r="2.4" fill="#fff" opacity="0.32"/></g>
  <path d="M24 680 L110 610 L186 666 L272 592 L356 674 L445 626 L512 704 V768 H0V704Z" fill="#7a5200" opacity=".18"/>
  <ellipse cx="256" cy="662" rx="150" ry="34" fill="#7a5200" opacity=".28"/>
  <g transform="translate(0 122)">
    <path d="M149.4 228.5 L219.1 156.75 H311.35 L376.95 242.85 L346.2 394.55 H163.75 Z" fill="url(#body)" filter="url(#softShadow)"/><path d="M198.60000000000002 179.3 L245.75 91.15 L280.6 171.10000000000002 Z" fill="#fff27a"/><path d="M290.85 183.4 L344.15 113.70000000000002 L342.1 210.05 Z" fill="#f9c80e"/><rect x="194.5" y="277.7" width="122.99999999999999" height="30.749999999999996" rx="14.349999999999998" fill="#7a5200" opacity=".38"/><circle cx="227.3" cy="292.05" r="10.25" fill="#fff27a"/><circle cx="284.7" cy="292.05" r="10.25" fill="#fff27a"/><path d="M215 201.85000000000002 Q256 224.4 297 201.85000000000002" stroke="#fff27a" stroke-width="10.25" fill="none" stroke-linecap="round" opacity=".8"/>
  </g>
  <path d="M74 126 C170 65 334 65 438 126" stroke="#fff" stroke-width="16" stroke-linecap="round" opacity=".16"/>
  <path d="M63 676 C162 718 344 718 449 662" stroke="#fff" stroke-width="14" stroke-linecap="round" opacity=".16"/>
</svg>