<svg xmlns="http://www.w3.org/2000/svg" viewBox="0 0 512 768" role="img" aria-label="史前霸主 original portrait">
  
  <defs>
    <linearGradient id="bgp355" x1="0" y1="0" x2="1" y2="1">
      <stop offset="0" stop-color="#d9f67f"/>
      <stop offset=".55" stop-color="#86bd2d"/>
      <stop offset="1" stop-color="#3f6c1b"/>
    </linearGradient>
    <radialGradient id="body" cx=".36" cy=".25" r=".76">
      <stop offset="0" stop-color="#d9f67f"/>
      <stop offset=".6" stop-color="#86bd2d"/>
      <stop offset="1" stop-color="#3f6c1b"/>
    </radialGradient>
    <radialGradient id="head" cx=".36" cy=".26" r=".72">
      <stop offset="0" stop-color="#ffffff" stop-opacity=".85"/>
      <stop offset=".2" stop-color="#d9f67f"/>
      <stop offset=".72" stop-color="#86bd2d"/>
      <stop offset="1" stop-color="#3f6c1b"/>
    </radialGradient>
    <filter id="softShadow" x="-30%" y="-30%" width="160%" height="160%">
      <feDropShadow dx="0" dy="8" stdDeviation="8" flood-color="#3f6c1b" flood-opacity=".35"/>
    </filter>
  </defs>
  <rect width="512" height="768" rx="48" fill="url(#bgp355)"/>
  <rect x="24" y="24" width="464" height="720" rx="40" fill="#ffffff" opacity=".08"/>
  <g opacity=".42"><circle cx="154" cy="49" r="2.7" fill="#fff" opacity="0.36"/><circle cx="429" cy="506" r="2.7" fill="#fff" opacity="0.43"/><circle cx="370" cy="106" r="1.4" fill="#fff" opacity="0.31"/><circle cx="496" cy="719" r="1.0" fill="#fff" opacity="0.25"/><circle cx="12" cy="461" r="1.9" fill="#fff" opacity="0.40"/><circle cx="75" cy="461" r="2.3" fill="#fff" opacity="0.45"/><circle cx="479" cy="690" r="2.6" fill="#fff" opacity="0.28"/><circle cx="348" cy="238" r="1.4" fill="#fff" opacity="0.27"/><circle cx="192" cy="532" r="2.7" fill="#fff" opacity="0.32"/><circle cx="186" cy="459" r="1.3" fill="#fff" opacity="0.30"/><circle cx="165" cy="123" r="2.1" fill="#fff" opacity="0.66"/><circle cx="467" cy="68" r="2.9" fill="#fff" opacity="0.51"/><circle cx="115" cy="669" r="1.4" fill="#fff" opacity="0.43"/><circle cx="493" cy="159" r="1.7" fill="#fff" opacity="0.62"/><circle cx="346" cy="400" r="2.6" fill="#fff" opacity="0.44"/><circle cx="190" cy="191" r="3.1" fill="#fff" opacity="0.34"/><circle cx="86" cy="152" r="1.4" fill="#fff" opacity="0.63"/><circle cx="130" cy="234" r="1.1" fill="#fff" opacity="0.40"/><circle cx="342" cy="481" r="1.7" fill="#fff" opacity="0.34"/><circle cx="340" cy="7" r="1.8" fill="#fff" opacity="0.39"/><circle cx="47" cy="593" r="2.1" fill="#fff" opacity="0.26"/><circle cx="142" cy="370" r="1.0" fill="#fff" opacity="0.39"/><circle cx="475" cy="321" r="1.0" fill="#fff" opacity="0.47"/><circle cx="87" cy="311" r="1.6" fill="#fff" opacity="0.43"/><circle cx="410" cy="328" r="3.0" fill="#fff" opacity="0.65"/><circle cx="435" cy="305" r="1.7" fill="#fff" opacity="0.58"/><circle cx="30" cy="90" r="1.5" fill="#fff" opacity="0.57"/><circle cx="408" cy="314" r="2.6" fill="#fff" opacity="0.47"/></g>
  <path d="M38 684 C128 596 386 596 475 684 V768 H38Z" fill="#3f6c1b" opacity=".17"/>
  <ellipse cx="256" cy="662" rx="150" ry="34" fill="#3f6c1b" opacity=".28"/>
  <g transform="translate(0 122)">
    <ellipse cx="256" cy="359.7" rx="110.69999999999999" ry="100.44999999999999" fill="url(#body)" filter="url(#softShadow)"/><circle cx="256" cy="232.60000000000002" r="86.1" fill="url(#head)"/><path d="M149.4 322.8 C51.00000000000003 304.35 85.85000000000002 423.25 165.8 402.75" fill="#3f6c1b"/><path d="M362.6 322.8 C461 304.35 426.15 423.25 346.2 402.75" fill="#3f6c1b"/><path d="M200.65 148.55 H311.35 L331.85 195.7 Q256 224.4 180.15 195.7 Z" fill="#d9f67f" opacity=".85"/><ellipse cx="223.2" cy="253.1" rx="14.349999999999998" ry="16.4" fill="#14213d"/><ellipse cx="288.8" cy="253.1" rx="14.349999999999998" ry="16.4" fill="#14213d"/><circle cx="229.35" cy="244.9" r="4.714999999999999" fill="#fff"/><circle cx="294.95" cy="244.9" r="4.714999999999999" fill="#fff"/><path d="M256 183.4 L278.55 212.10000000000002 L256 242.85 L233.45 212.10000000000002 Z" fill="#d9f67f" opacity=".92"/>
  </g>
  <path d="M74 126 C170 65 334 65 438 126" stroke="#fff" stroke-width="16" stroke-linecap="round" opacity=".16"/>
  <path d="M63 676 C162 718 344 718 449 662" stroke="#fff" stroke-width="14" stroke-linecap="round" opacity=".16"/>
</svg>