<svg xmlns="http://www.w3.org/2000/svg" viewBox="0 0 512 768" role="img" aria-label="暴食君王 original portrait">
  
  <defs>
    <linearGradient id="bgp358" x1="0" y1="0" x2="1" y2="1">
      <stop offset="0" stop-color="#f4e8d8"/>
      <stop offset=".55" stop-color="#b78f68"/>
      <stop offset="1" stop-color="#6d4f3f"/>
    </linearGradient>
    <radialGradient id="body" cx=".36" cy=".25" r=".76">
      <stop offset="0" stop-color="#f4e8d8"/>
      <stop offset=".6" stop-color="#b78f68"/>
      <stop offset="1" stop-color="#6d4f3f"/>
    </radialGradient>
    <radialGradient id="head" cx=".36" cy=".26" r=".72">
      <stop offset="0" stop-color="#ffffff" stop-opacity=".85"/>
      <stop offset=".2" stop-color="#f4e8d8"/>
      <stop offset=".72" stop-color="#b78f68"/>
      <stop offset="1" stop-color="#6d4f3f"/>
    </radialGradient>
    <filter id="softShadow" x="-30%" y="-30%" width="160%" height="160%">
      <feDropShadow dx="0" dy="8" stdDeviation="8" flood-color="#6d4f3f" flood-opacity=".35"/>
    </filter>
  </defs>
  <rect width="512" height="768" rx="48" fill="url(#bgp358)"/>
  <rect x="24" y="24" width="464" height="720" rx="40" fill="#ffffff" opacity=".08"/>
  <g opacity=".42"><circle cx="285" cy="281" r="3.2" fill="#fff" opacity="0.47"/><circle cx="49" cy="461" r="1.0" fill="#fff" opacity="0.63"/><circle cx="471" cy="452" r="1.4" fill="#fff" opacity="0.44"/><circle cx="452" cy="66" r="1.6" fill="#fff" opacity="0.26"/><circle cx="28" cy="340" r="1.8" fill="#fff" opacity="0.47"/><circle cx="100" cy="641" r="2.8" fill="#fff" opacity="0.35"/><circle cx="480" cy="173" r="1.4" fill="#fff" opacity="0.26"/><circle cx="149" cy="768" r="2.5" fill="#fff" opacity="0.67"/><circle cx="38" cy="668" r="2.2" fill="#fff" opacity="0.30"/><circle cx="253" cy="310" r="1.7" fill="#fff" opacity="0.26"/><circle cx="103" cy="541" r="3.0" fill="#fff" opacity="0.54"/><circle cx="165" cy="537" r="2.6" fill="#fff" opacity="0.64"/><circle cx="75" cy="271" r="1.1" fill="#fff" opacity="0.47"/><circle cx="274" cy="633" r="1.0" fill="#fff" opacity="0.61"/><circle cx="236" cy="678" r="2.0" fill="#fff" opacity="0.56"/><circle cx="495" cy="92" r="2.3" fill="#fff" opacity="0.61"/><circle cx="219" cy="50" r="2.9" fill="#fff" opacity="0.28"/><circle cx="191" cy="735" r="1.9" fill="#fff" opacity="0.30"/><circle cx="209" cy="750" r="3.1" fill="#fff" opacity="0.67"/><circle cx="397" cy="222" r="3.1" fill="#fff" opacity="0.48"/><circle cx="430" cy="191" r="1.8" fill="#fff" opacity="0.37"/><circle cx="295" cy="74" r="2.9" fill="#fff" opacity="0.31"/><circle cx="188" cy="342" r="1.8" fill="#fff" opacity="0.32"/><circle cx="221" cy="744" r="1.0" fill="#fff" opacity="0.46"/><circle cx="194" cy="18" r="1.7" fill="#fff" opacity="0.66"/><circle cx="31" cy="760" r="2.5" fill="#fff" opacity="0.33"/><circle cx="211" cy="38" r="2.0" fill="#fff" opacity="0.29"/><circle cx="367" cy="325" r="2.0" fill="#fff" opacity="0.26"/></g>
  <path d="M38 684 C128 596 386 596 475 684 V768 H38Z" fill="#6d4f3f" opacity=".17"/>
  <ellipse cx="256" cy="662" rx="150" ry="34" fill="#6d4f3f" opacity=".28"/>
  <g transform="translate(0 122)">
    <ellipse cx="256" cy="359.7" rx="110.69999999999999" ry="100.44999999999999" fill="url(#body)" filter="url(#softShadow)"/><circle cx="256" cy="232.60000000000002" r="86.1" fill="url(#head)"/><path d="M149.4 322.8 C51.00000000000003 304.35 85.85000000000002 423.25 165.8 402.75" fill="#6d4f3f"/><path d="M362.6 322.8 C461 304.35 426.15 423.25 346.2 402.75" fill="#6d4f3f"/><path d="M200.65 148.55 H311.35 L331.85 195.7 Q256 224.4 180.15 195.7 Z" fill="#f4e8d8" opacity=".85"/><ellipse cx="223.2" cy="253.1" rx="14.349999999999998" ry="16.4" fill="#14213d"/><ellipse cx="288.8" cy="253.1" rx="14.349999999999998" ry="16.4" fill="#14213d"/><circle cx="229.35" cy="244.9" r="4.714999999999999" fill="#fff"/><circle cx="294.95" cy="244.9" r="4.714999999999999" fill="#fff"/><path d="M256 183.4 L278.55 212.10000000000002 L256 242.85 L233.45 212.10000000000002 Z" fill="#f4e8d8" opacity=".92"/>
  </g>
  <path d="M74 126 C170 65 334 65 438 126" stroke="#fff" stroke-width="16" stroke-linecap="round" opacity=".16"/>
  <path d="M63 676 C162 718 344 718 449 662" stroke="#fff" stroke-width="14" stroke-linecap="round" opacity=".16"/>
</svg>