<svg xmlns="http://www.w3.org/2000/svg" viewBox="0 0 512 768" role="img" aria-label="球状闪电 original portrait">
  
  <defs>
    <linearGradient id="bgp363" x1="0" y1="0" x2="1" y2="1">
      <stop offset="0" stop-color="#fff27a"/>
      <stop offset=".55" stop-color="#f9c80e"/>
      <stop offset="1" stop-color="#7a5200"/>
    </linearGradient>
    <radialGradient id="body" cx=".36" cy=".25" r=".76">
      <stop offset="0" stop-color="#fff27a"/>
      <stop offset=".6" stop-color="#f9c80e"/>
      <stop offset="1" stop-color="#7a5200"/>
    </radialGradient>
    <radialGradient id="head" cx=".36" cy=".26" r=".72">
      <stop offset="0" stop-color="#ffffff" stop-opacity=".85"/>
      <stop offset=".2" stop-color="#fff27a"/>
      <stop offset=".72" stop-color="#f9c80e"/>
      <stop offset="1" stop-color="#7a5200"/>
    </radialGradient>
    <filter id="softShadow" x="-30%" y="-30%" width="160%" height="160%">
      <feDropShadow dx="0" dy="8" stdDeviation="8" flood-color="#7a5200" flood-opacity=".35"/>
    </filter>
  </defs>
  <rect width="512" height="768" rx="48" fill="url(#bgp363)"/>
  <rect x="24" y="24" width="464" height="720" rx="40" fill="#ffffff" opacity=".08"/>
  <g opacity=".42"><circle cx="339" cy="102" r="2.9" fill="#fff" opacity="0.33"/><circle cx="226" cy="473" r="1.9" fill="#fff" opacity="0.65"/><circle cx="111" cy="351" r="2.6" fill="#fff" opacity="0.62"/><circle cx="241" cy="354" r="2.8" fill="#fff" opacity="0.38"/><circle cx="210" cy="145" r="3.1" fill="#fff" opacity="0.40"/><circle cx="356" cy="205" r="3.0" fill="#fff" opacity="0.62"/><circle cx="194" cy="583" r="1.4" fill="#fff" opacity="0.27"/><circle cx="34" cy="715" r="1.5" fill="#fff" opacity="0.48"/><circle cx="494" cy="739" r="1.7" fill="#fff" opacity="0.46"/><circle cx="306" cy="305" r="2.8" fill="#fff" opacity="0.34"/><circle cx="163" cy="199" r="1.6" fill="#fff" opacity="0.30"/><circle cx="187" cy="448" r="2.3" fill="#fff" opacity="0.28"/><circle cx="388" cy="407" r="2.7" fill="#fff" opacity="0.65"/><circle cx="80" cy="144" r="2.9" fill="#fff" opacity="0.27"/><circle cx="471" cy="475" r="1.9" fill="#fff" opacity="0.29"/><circle cx="450" cy="477" r="1.7" fill="#fff" opacity="0.26"/><circle cx="133" cy="43" r="2.8" fill="#fff" opacity="0.42"/><circle cx="442" cy="655" r="2.9" fill="#fff" opacity="0.62"/><circle cx="17" cy="435" r="1.3" fill="#fff" opacity="0.60"/><circle cx="257" cy="477" r="1.5" fill="#fff" opacity="0.54"/><circle cx="421" cy="238" r="2.4" fill="#fff" opacity="0.38"/><circle cx="216" cy="348" r="0.8" fill="#fff" opacity="0.65"/><circle cx="366" cy="547" r="2.8" fill="#fff" opacity="0.56"/><circle cx="441" cy="513" r="0.9" fill="#fff" opacity="0.56"/><circle cx="236" cy="724" r="2.7" fill="#fff" opacity="0.49"/><circle cx="357" cy="273" r="3.0" fill="#fff" opacity="0.64"/><circle cx="240" cy="557" r="1.2" fill="#fff" opacity="0.54"/><circle cx="359" cy="559" r="1.8" fill="#fff" opacity="0.42"/></g>
  <path d="M0 670 C96 613 167 665 256 620 C337 660 421 608 512 662 V768 H0Z" fill="#7a5200" opacity=".15"/>
  <ellipse cx="256" cy="662" rx="150" ry="34" fill="#7a5200" opacity=".28"/>
  <g transform="translate(0 122)">
    <path d="M352.35 347.4 C442.54999999999995 322.8 420 222.35000000000002 346.2 263.35" stroke="#f9c80e" stroke-width="28.699999999999996" fill="none" stroke-linecap="round" opacity=".76"/><ellipse cx="256" cy="353.55" rx="108.64999999999999" ry="102.49999999999999" fill="url(#body)" filter="url(#softShadow)"/><path d="M184.25 212.10000000000002 L137.10000000000002 115.75000000000003 L231.4 175.20000000000002 Z" fill="#f9c80e"/><path d="M327.75 212.10000000000002 L374.9 115.75000000000003 L280.6 175.20000000000002 Z" fill="#f9c80e"/><circle cx="256" cy="234.65" r="92.24999999999999" fill="url(#head)"/><ellipse cx="221.15" cy="251.05" rx="16.4" ry="20.5" fill="#182033"/><ellipse cx="290.85" cy="251.05" rx="16.4" ry="20.5" fill="#182033"/><ellipse cx="223.2" cy="253.1" rx="14.349999999999998" ry="16.4" fill="#14213d"/><ellipse cx="288.8" cy="253.1" rx="14.349999999999998" ry="16.4" fill="#14213d"/><circle cx="229.35" cy="244.9" r="4.714999999999999" fill="#fff"/><circle cx="294.95" cy="244.9" r="4.714999999999999" fill="#fff"/><path d="M215 201.85000000000002 Q256 224.4 297 201.85000000000002" stroke="#fff27a" stroke-width="10.25" fill="none" stroke-linecap="round" opacity=".8"/>
  </g>
  <path d="M74 126 C170 65 334 65 438 126" stroke="#fff" stroke-width="16" stroke-linecap="round" opacity=".16"/>
  <path d="M63 676 C162 718 344 718 449 662" stroke="#fff" stroke-width="14" stroke-linecap="round" opacity=".16"/>
</svg>