<svg xmlns="http://www.w3.org/2000/svg" viewBox="0 0 512 768" role="img" aria-label="招财金猫 original portrait">
  
  <defs>
    <linearGradient id="bgp364" x1="0" y1="0" x2="1" y2="1">
      <stop offset="0" stop-color="#f4e8d8"/>
      <stop offset=".55" stop-color="#b78f68"/>
      <stop offset="1" stop-color="#6d4f3f"/>
    </linearGradient>
    <radialGradient id="body" cx=".36" cy=".25" r=".76">
      <stop offset="0" stop-color="#f4e8d8"/>
      <stop offset=".6" stop-color="#b78f68"/>
      <stop offset="1" stop-color="#6d4f3f"/>
    </radialGradient>
    <radialGradient id="head" cx=".36" cy=".26" r=".72">
      <stop offset="0" stop-color="#ffffff" stop-opacity=".85"/>
      <stop offset=".2" stop-color="#f4e8d8"/>
      <stop offset=".72" stop-color="#b78f68"/>
      <stop offset="1" stop-color="#6d4f3f"/>
    </radialGradient>
    <filter id="softShadow" x="-30%" y="-30%" width="160%" height="160%">
      <feDropShadow dx="0" dy="8" stdDeviation="8" flood-color="#6d4f3f" flood-opacity=".35"/>
    </filter>
  </defs>
  <rect width="512" height="768" rx="48" fill="url(#bgp364)"/>
  <rect x="24" y="24" width="464" height="720" rx="40" fill="#ffffff" opacity=".08"/>
  <g opacity=".42"><circle cx="472" cy="324" r="2.6" fill="#fff" opacity="0.63"/><circle cx="72" cy="54" r="3.0" fill="#fff" opacity="0.40"/><circle cx="186" cy="749" r="2.6" fill="#fff" opacity="0.50"/><circle cx="331" cy="47" r="2.9" fill="#fff" opacity="0.40"/><circle cx="35" cy="542" r="2.9" fill="#fff" opacity="0.60"/><circle cx="108" cy="588" r="2.4" fill="#fff" opacity="0.42"/><circle cx="480" cy="261" r="3.2" fill="#fff" opacity="0.46"/><circle cx="440" cy="377" r="1.4" fill="#fff" opacity="0.65"/><circle cx="173" cy="702" r="1.4" fill="#fff" opacity="0.57"/><circle cx="249" cy="554" r="2.8" fill="#fff" opacity="0.56"/><circle cx="189" cy="659" r="2.4" fill="#fff" opacity="0.63"/><circle cx="457" cy="396" r="1.2" fill="#fff" opacity="0.50"/><circle cx="103" cy="308" r="2.5" fill="#fff" opacity="0.66"/><circle cx="309" cy="663" r="2.6" fill="#fff" opacity="0.65"/><circle cx="494" cy="60" r="2.1" fill="#fff" opacity="0.51"/><circle cx="164" cy="568" r="1.8" fill="#fff" opacity="0.49"/><circle cx="75" cy="461" r="2.3" fill="#fff" opacity="0.45"/><circle cx="140" cy="98" r="0.8" fill="#fff" opacity="0.60"/><circle cx="402" cy="643" r="1.5" fill="#fff" opacity="0.65"/><circle cx="23" cy="150" r="3.0" fill="#fff" opacity="0.40"/><circle cx="120" cy="440" r="1.4" fill="#fff" opacity="0.41"/><circle cx="343" cy="364" r="2.4" fill="#fff" opacity="0.46"/><circle cx="389" cy="593" r="3.1" fill="#fff" opacity="0.38"/><circle cx="276" cy="737" r="1.7" fill="#fff" opacity="0.52"/><circle cx="224" cy="391" r="2.5" fill="#fff" opacity="0.42"/><circle cx="171" cy="183" r="1.2" fill="#fff" opacity="0.70"/><circle cx="10" cy="222" r="1.6" fill="#fff" opacity="0.49"/><circle cx="341" cy="379" r="1.8" fill="#fff" opacity="0.60"/></g>
  <path d="M24 680 L110 610 L186 666 L272 592 L356 674 L445 626 L512 704 V768 H0V704Z" fill="#6d4f3f" opacity=".18"/>
  <ellipse cx="256" cy="662" rx="150" ry="34" fill="#6d4f3f" opacity=".28"/>
  <g transform="translate(0 122)">
    <path d="M149.4 228.5 L219.1 156.75 H311.35 L376.95 242.85 L346.2 394.55 H163.75 Z" fill="url(#body)" filter="url(#softShadow)"/><path d="M198.60000000000002 179.3 L245.75 91.15 L280.6 171.10000000000002 Z" fill="#f4e8d8"/><path d="M290.85 183.4 L344.15 113.70000000000002 L342.1 210.05 Z" fill="#b78f68"/><rect x="194.5" y="277.7" width="122.99999999999999" height="30.749999999999996" rx="14.349999999999998" fill="#6d4f3f" opacity=".38"/><circle cx="227.3" cy="292.05" r="10.25" fill="#f4e8d8"/><circle cx="284.7" cy="292.05" r="10.25" fill="#f4e8d8"/><circle cx="256" cy="210.05" r="14.349999999999998" fill="#f4e8d8" opacity=".9"/>
  </g>
  <path d="M74 126 C170 65 334 65 438 126" stroke="#fff" stroke-width="16" stroke-linecap="round" opacity=".16"/>
  <path d="M63 676 C162 718 344 718 449 662" stroke="#fff" stroke-width="14" stroke-linecap="round" opacity=".16"/>
</svg>