<svg xmlns="http://www.w3.org/2000/svg" viewBox="0 0 512 768" role="img" aria-label="圣诞老人 original portrait">
  
  <defs>
    <linearGradient id="bgp368" x1="0" y1="0" x2="1" y2="1">
      <stop offset="0" stop-color="#d7fbff"/>
      <stop offset=".55" stop-color="#71d6e8"/>
      <stop offset="1" stop-color="#318aa3"/>
    </linearGradient>
    <radialGradient id="body" cx=".36" cy=".25" r=".76">
      <stop offset="0" stop-color="#d7fbff"/>
      <stop offset=".6" stop-color="#71d6e8"/>
      <stop offset="1" stop-color="#318aa3"/>
    </radialGradient>
    <radialGradient id="head" cx=".36" cy=".26" r=".72">
      <stop offset="0" stop-color="#ffffff" stop-opacity=".85"/>
      <stop offset=".2" stop-color="#d7fbff"/>
      <stop offset=".72" stop-color="#71d6e8"/>
      <stop offset="1" stop-color="#318aa3"/>
    </radialGradient>
    <filter id="softShadow" x="-30%" y="-30%" width="160%" height="160%">
      <feDropShadow dx="0" dy="8" stdDeviation="8" flood-color="#318aa3" flood-opacity=".35"/>
    </filter>
  </defs>
  <rect width="512" height="768" rx="48" fill="url(#bgp368)"/>
  <rect x="24" y="24" width="464" height="720" rx="40" fill="#ffffff" opacity=".08"/>
  <g opacity=".42"><circle cx="457" cy="356" r="1.5" fill="#fff" opacity="0.31"/><circle cx="394" cy="767" r="2.8" fill="#fff" opacity="0.62"/><circle cx="62" cy="100" r="2.0" fill="#fff" opacity="0.34"/><circle cx="502" cy="36" r="2.8" fill="#fff" opacity="0.68"/><circle cx="413" cy="221" r="1.6" fill="#fff" opacity="0.28"/><circle cx="185" cy="434" r="0.9" fill="#fff" opacity="0.48"/><circle cx="229" cy="561" r="2.4" fill="#fff" opacity="0.41"/><circle cx="310" cy="366" r="1.7" fill="#fff" opacity="0.59"/><circle cx="405" cy="356" r="1.0" fill="#fff" opacity="0.35"/><circle cx="450" cy="192" r="1.2" fill="#fff" opacity="0.68"/><circle cx="484" cy="632" r="2.3" fill="#fff" opacity="0.33"/><circle cx="233" cy="512" r="2.6" fill="#fff" opacity="0.60"/><circle cx="125" cy="361" r="3.0" fill="#fff" opacity="0.48"/><circle cx="350" cy="296" r="0.9" fill="#fff" opacity="0.28"/><circle cx="58" cy="711" r="2.3" fill="#fff" opacity="0.25"/><circle cx="319" cy="152" r="2.2" fill="#fff" opacity="0.35"/><circle cx="494" cy="321" r="2.4" fill="#fff" opacity="0.35"/><circle cx="482" cy="338" r="1.8" fill="#fff" opacity="0.28"/><circle cx="323" cy="12" r="0.8" fill="#fff" opacity="0.38"/><circle cx="262" cy="745" r="2.4" fill="#fff" opacity="0.40"/><circle cx="377" cy="247" r="1.8" fill="#fff" opacity="0.48"/><circle cx="468" cy="182" r="1.0" fill="#fff" opacity="0.32"/><circle cx="319" cy="760" r="3.0" fill="#fff" opacity="0.25"/><circle cx="352" cy="434" r="1.9" fill="#fff" opacity="0.37"/><circle cx="15" cy="56" r="2.3" fill="#fff" opacity="0.64"/><circle cx="195" cy="434" r="2.4" fill="#fff" opacity="0.34"/><circle cx="118" cy="657" r="2.7" fill="#fff" opacity="0.54"/><circle cx="401" cy="700" r="2.2" fill="#fff" opacity="0.47"/></g>
  <circle cx="256" cy="294" r="188" fill="#d7fbff" opacity=".12"/><circle cx="256" cy="294" r="146" fill="#fff" opacity=".1"/>
  <ellipse cx="256" cy="662" rx="150" ry="34" fill="#318aa3" opacity=".28"/>
  <g transform="translate(0 122)">
    <ellipse cx="256" cy="339.2" rx="100.44999999999999" ry="112.74999999999999" fill="url(#body)" filter="url(#softShadow)"/><circle cx="256" cy="226.45" r="79.94999999999999" fill="url(#head)"/><ellipse cx="256" cy="214.15" rx="139.39999999999998" ry="36.9" fill="none" stroke="#d7fbff" stroke-width="14.349999999999998" opacity=".75" transform="rotate(-12 256 214.15)"/><path d="M256 103.45000000000002 L276.5 154.70000000000002 L333.9 156.75 L286.75 187.5 L303.15 242.85 L256 208 L208.85 242.85 L225.25 187.5 L178.10000000000002 156.75 L235.5 154.70000000000002 Z" fill="#71d6e8"/><ellipse cx="223.2" cy="253.1" rx="14.349999999999998" ry="16.4" fill="#14213d"/><ellipse cx="288.8" cy="253.1" rx="14.349999999999998" ry="16.4" fill="#14213d"/><circle cx="229.35" cy="244.9" r="4.714999999999999" fill="#fff"/><circle cx="294.95" cy="244.9" r="4.714999999999999" fill="#fff"/><path d="M256 183.4 L278.55 212.10000000000002 L256 242.85 L233.45 212.10000000000002 Z" fill="#d7fbff" opacity=".92"/>
  </g>
  <path d="M74 126 C170 65 334 65 438 126" stroke="#fff" stroke-width="16" stroke-linecap="round" opacity=".16"/>
  <path d="M63 676 C162 718 344 718 449 662" stroke="#fff" stroke-width="14" stroke-linecap="round" opacity=".16"/>
</svg>