<svg xmlns="http://www.w3.org/2000/svg" viewBox="0 0 512 768" role="img" aria-label="仙子伊布 original portrait">
  
  <defs>
    <linearGradient id="bgp369" x1="0" y1="0" x2="1" y2="1">
      <stop offset="0" stop-color="#ffd7f3"/>
      <stop offset=".55" stop-color="#f47ac2"/>
      <stop offset="1" stop-color="#8e3b89"/>
    </linearGradient>
    <radialGradient id="body" cx=".36" cy=".25" r=".76">
      <stop offset="0" stop-color="#ffd7f3"/>
      <stop offset=".6" stop-color="#f47ac2"/>
      <stop offset="1" stop-color="#8e3b89"/>
    </radialGradient>
    <radialGradient id="head" cx=".36" cy=".26" r=".72">
      <stop offset="0" stop-color="#ffffff" stop-opacity=".85"/>
      <stop offset=".2" stop-color="#ffd7f3"/>
      <stop offset=".72" stop-color="#f47ac2"/>
      <stop offset="1" stop-color="#8e3b89"/>
    </radialGradient>
    <filter id="softShadow" x="-30%" y="-30%" width="160%" height="160%">
      <feDropShadow dx="0" dy="8" stdDeviation="8" flood-color="#8e3b89" flood-opacity=".35"/>
    </filter>
  </defs>
  <rect width="512" height="768" rx="48" fill="url(#bgp369)"/>
  <rect x="24" y="24" width="464" height="720" rx="40" fill="#ffffff" opacity=".08"/>
  <g opacity=".42"><circle cx="374" cy="162" r="1.4" fill="#fff" opacity="0.58"/><circle cx="437" cy="720" r="1.0" fill="#fff" opacity="0.40"/><circle cx="202" cy="440" r="2.7" fill="#fff" opacity="0.61"/><circle cx="337" cy="741" r="1.0" fill="#fff" opacity="0.67"/><circle cx="413" cy="487" r="1.3" fill="#fff" opacity="0.68"/><circle cx="433" cy="23" r="2.6" fill="#fff" opacity="0.54"/><circle cx="182" cy="589" r="2.7" fill="#fff" opacity="0.62"/><circle cx="350" cy="412" r="2.3" fill="#fff" opacity="0.35"/><circle cx="183" cy="14" r="2.7" fill="#fff" opacity="0.49"/><circle cx="214" cy="390" r="2.6" fill="#fff" opacity="0.62"/><circle cx="91" cy="754" r="2.7" fill="#fff" opacity="0.64"/><circle cx="334" cy="575" r="1.5" fill="#fff" opacity="0.48"/><circle cx="499" cy="628" r="2.1" fill="#fff" opacity="0.37"/><circle cx="116" cy="538" r="2.0" fill="#fff" opacity="0.44"/><circle cx="477" cy="542" r="1.0" fill="#fff" opacity="0.60"/><circle cx="297" cy="281" r="2.9" fill="#fff" opacity="0.48"/><circle cx="324" cy="220" r="1.2" fill="#fff" opacity="0.66"/><circle cx="276" cy="396" r="0.9" fill="#fff" opacity="0.67"/><circle cx="417" cy="391" r="2.9" fill="#fff" opacity="0.67"/><circle cx="287" cy="713" r="2.5" fill="#fff" opacity="0.53"/><circle cx="175" cy="704" r="2.2" fill="#fff" opacity="0.33"/><circle cx="108" cy="596" r="2.5" fill="#fff" opacity="0.40"/><circle cx="203" cy="33" r="2.4" fill="#fff" opacity="0.52"/><circle cx="191" cy="618" r="0.9" fill="#fff" opacity="0.55"/><circle cx="230" cy="30" r="2.6" fill="#fff" opacity="0.52"/><circle cx="483" cy="751" r="2.6" fill="#fff" opacity="0.57"/><circle cx="393" cy="140" r="2.3" fill="#fff" opacity="0.30"/><circle cx="69" cy="469" r="2.8" fill="#fff" opacity="0.45"/></g>
  <circle cx="256" cy="294" r="195" fill="#ffd7f3" opacity=".12"/><circle cx="256" cy="294" r="153" fill="#fff" opacity=".1"/>
  <ellipse cx="256" cy="662" rx="150" ry="34" fill="#8e3b89" opacity=".28"/>
  <g transform="translate(0 122)">
    <ellipse cx="256" cy="339.2" rx="100.44999999999999" ry="112.74999999999999" fill="url(#body)" filter="url(#softShadow)"/><circle cx="256" cy="226.45" r="79.94999999999999" fill="url(#head)"/><ellipse cx="256" cy="214.15" rx="139.39999999999998" ry="36.9" fill="none" stroke="#ffd7f3" stroke-width="14.349999999999998" opacity=".75" transform="rotate(-12 256 214.15)"/><path d="M256 103.45000000000002 L276.5 154.70000000000002 L333.9 156.75 L286.75 187.5 L303.15 242.85 L256 208 L208.85 242.85 L225.25 187.5 L178.10000000000002 156.75 L235.5 154.70000000000002 Z" fill="#f47ac2"/><ellipse cx="223.2" cy="253.1" rx="14.349999999999998" ry="16.4" fill="#14213d"/><ellipse cx="288.8" cy="253.1" rx="14.349999999999998" ry="16.4" fill="#14213d"/><circle cx="229.35" cy="244.9" r="4.714999999999999" fill="#fff"/><circle cx="294.95" cy="244.9" r="4.714999999999999" fill="#fff"/><path d="M256 183.4 L278.55 212.10000000000002 L256 242.85 L233.45 212.10000000000002 Z" fill="#ffd7f3" opacity=".92"/>
  </g>
  <path d="M74 126 C170 65 334 65 438 126" stroke="#fff" stroke-width="16" stroke-linecap="round" opacity=".16"/>
  <path d="M63 676 C162 718 344 718 449 662" stroke="#fff" stroke-width="14" stroke-linecap="round" opacity=".16"/>
</svg>