<svg xmlns="http://www.w3.org/2000/svg" viewBox="0 0 512 768" role="img" aria-label="雷云云 original portrait">
  
  <defs>
    <linearGradient id="bgp37" x1="0" y1="0" x2="1" y2="1">
      <stop offset="0" stop-color="#fff27a"/>
      <stop offset=".55" stop-color="#f9c80e"/>
      <stop offset="1" stop-color="#7a5200"/>
    </linearGradient>
    <radialGradient id="body" cx=".36" cy=".25" r=".76">
      <stop offset="0" stop-color="#fff27a"/>
      <stop offset=".6" stop-color="#f9c80e"/>
      <stop offset="1" stop-color="#7a5200"/>
    </radialGradient>
    <radialGradient id="head" cx=".36" cy=".26" r=".72">
      <stop offset="0" stop-color="#ffffff" stop-opacity=".85"/>
      <stop offset=".2" stop-color="#fff27a"/>
      <stop offset=".72" stop-color="#f9c80e"/>
      <stop offset="1" stop-color="#7a5200"/>
    </radialGradient>
    <filter id="softShadow" x="-30%" y="-30%" width="160%" height="160%">
      <feDropShadow dx="0" dy="8" stdDeviation="8" flood-color="#7a5200" flood-opacity=".35"/>
    </filter>
  </defs>
  <rect width="512" height="768" rx="48" fill="url(#bgp37)"/>
  <rect x="24" y="24" width="464" height="720" rx="40" fill="#ffffff" opacity=".08"/>
  <g opacity=".42"><circle cx="269" cy="182" r="1.6" fill="#fff" opacity="0.26"/><circle cx="424" cy="275" r="2.6" fill="#fff" opacity="0.47"/><circle cx="394" cy="13" r="2.1" fill="#fff" opacity="0.44"/><circle cx="512" cy="654" r="2.5" fill="#fff" opacity="0.27"/><circle cx="185" cy="157" r="2.6" fill="#fff" opacity="0.43"/><circle cx="126" cy="759" r="1.5" fill="#fff" opacity="0.27"/><circle cx="303" cy="115" r="2.0" fill="#fff" opacity="0.47"/><circle cx="239" cy="391" r="1.4" fill="#fff" opacity="0.52"/><circle cx="78" cy="332" r="2.5" fill="#fff" opacity="0.32"/><circle cx="345" cy="619" r="2.5" fill="#fff" opacity="0.57"/><circle cx="217" cy="499" r="1.9" fill="#fff" opacity="0.27"/><circle cx="363" cy="377" r="3.0" fill="#fff" opacity="0.29"/><circle cx="484" cy="11" r="3.0" fill="#fff" opacity="0.29"/><circle cx="422" cy="593" r="1.3" fill="#fff" opacity="0.55"/><circle cx="94" cy="523" r="2.1" fill="#fff" opacity="0.47"/><circle cx="204" cy="676" r="2.4" fill="#fff" opacity="0.68"/><circle cx="381" cy="628" r="1.7" fill="#fff" opacity="0.42"/><circle cx="437" cy="486" r="1.5" fill="#fff" opacity="0.33"/><circle cx="479" cy="70" r="1.6" fill="#fff" opacity="0.38"/><circle cx="276" cy="223" r="2.2" fill="#fff" opacity="0.51"/><circle cx="329" cy="656" r="1.4" fill="#fff" opacity="0.56"/><circle cx="152" cy="568" r="1.7" fill="#fff" opacity="0.48"/><circle cx="423" cy="210" r="2.1" fill="#fff" opacity="0.44"/><circle cx="266" cy="715" r="1.6" fill="#fff" opacity="0.37"/><circle cx="213" cy="307" r="1.2" fill="#fff" opacity="0.64"/><circle cx="197" cy="289" r="2.6" fill="#fff" opacity="0.62"/><circle cx="419" cy="747" r="1.5" fill="#fff" opacity="0.68"/><circle cx="440" cy="41" r="2.4" fill="#fff" opacity="0.32"/></g>
  <circle cx="256" cy="294" r="180" fill="#fff27a" opacity=".12"/><circle cx="256" cy="294" r="138" fill="#fff" opacity=".1"/>
  <ellipse cx="256" cy="662" rx="150" ry="34" fill="#7a5200" opacity=".28"/>
  <g transform="translate(0 122)">
    <ellipse cx="256" cy="339.2" rx="100.44999999999999" ry="112.74999999999999" fill="url(#body)" filter="url(#softShadow)"/><circle cx="256" cy="226.45" r="79.94999999999999" fill="url(#head)"/><ellipse cx="256" cy="214.15" rx="139.39999999999998" ry="36.9" fill="none" stroke="#fff27a" stroke-width="14.349999999999998" opacity=".75" transform="rotate(-12 256 214.15)"/><path d="M256 103.45000000000002 L276.5 154.70000000000002 L333.9 156.75 L286.75 187.5 L303.15 242.85 L256 208 L208.85 242.85 L225.25 187.5 L178.10000000000002 156.75 L235.5 154.70000000000002 Z" fill="#f9c80e"/><ellipse cx="223.2" cy="253.1" rx="14.349999999999998" ry="16.4" fill="#14213d"/><ellipse cx="288.8" cy="253.1" rx="14.349999999999998" ry="16.4" fill="#14213d"/><circle cx="229.35" cy="244.9" r="4.714999999999999" fill="#fff"/><circle cx="294.95" cy="244.9" r="4.714999999999999" fill="#fff"/><circle cx="256" cy="210.05" r="14.349999999999998" fill="#fff27a" opacity=".9"/>
  </g>
  <path d="M74 126 C170 65 334 65 438 126" stroke="#fff" stroke-width="16" stroke-linecap="round" opacity=".16"/>
  <path d="M63 676 C162 718 344 718 449 662" stroke="#fff" stroke-width="14" stroke-linecap="round" opacity=".16"/>
</svg>