<svg xmlns="http://www.w3.org/2000/svg" viewBox="0 0 512 768" role="img" aria-label="冰雪女王 original portrait">
  
  <defs>
    <linearGradient id="bgp371" x1="0" y1="0" x2="1" y2="1">
      <stop offset="0" stop-color="#d7fbff"/>
      <stop offset=".55" stop-color="#71d6e8"/>
      <stop offset="1" stop-color="#318aa3"/>
    </linearGradient>
    <radialGradient id="body" cx=".36" cy=".25" r=".76">
      <stop offset="0" stop-color="#d7fbff"/>
      <stop offset=".6" stop-color="#71d6e8"/>
      <stop offset="1" stop-color="#318aa3"/>
    </radialGradient>
    <radialGradient id="head" cx=".36" cy=".26" r=".72">
      <stop offset="0" stop-color="#ffffff" stop-opacity=".85"/>
      <stop offset=".2" stop-color="#d7fbff"/>
      <stop offset=".72" stop-color="#71d6e8"/>
      <stop offset="1" stop-color="#318aa3"/>
    </radialGradient>
    <filter id="softShadow" x="-30%" y="-30%" width="160%" height="160%">
      <feDropShadow dx="0" dy="8" stdDeviation="8" flood-color="#318aa3" flood-opacity=".35"/>
    </filter>
  </defs>
  <rect width="512" height="768" rx="48" fill="url(#bgp371)"/>
  <rect x="24" y="24" width="464" height="720" rx="40" fill="#ffffff" opacity=".08"/>
  <g opacity=".42"><circle cx="328" cy="505" r="1.0" fill="#fff" opacity="0.45"/><circle cx="499" cy="449" r="3.1" fill="#fff" opacity="0.38"/><circle cx="38" cy="489" r="1.9" fill="#fff" opacity="0.33"/><circle cx="99" cy="82" r="2.3" fill="#fff" opacity="0.64"/><circle cx="492" cy="30" r="0.9" fill="#fff" opacity="0.47"/><circle cx="91" cy="456" r="2.2" fill="#fff" opacity="0.27"/><circle cx="403" cy="99" r="1.4" fill="#fff" opacity="0.30"/><circle cx="82" cy="159" r="1.6" fill="#fff" opacity="0.67"/><circle cx="480" cy="33" r="1.5" fill="#fff" opacity="0.45"/><circle cx="383" cy="228" r="2.2" fill="#fff" opacity="0.33"/><circle cx="66" cy="601" r="1.9" fill="#fff" opacity="0.57"/><circle cx="130" cy="313" r="2.7" fill="#fff" opacity="0.56"/><circle cx="366" cy="46" r="2.8" fill="#fff" opacity="0.34"/><circle cx="0" cy="551" r="1.5" fill="#fff" opacity="0.34"/><circle cx="92" cy="701" r="1.2" fill="#fff" opacity="0.54"/><circle cx="346" cy="163" r="2.0" fill="#fff" opacity="0.28"/><circle cx="197" cy="504" r="2.6" fill="#fff" opacity="0.51"/><circle cx="351" cy="673" r="2.0" fill="#fff" opacity="0.39"/><circle cx="425" cy="133" r="2.4" fill="#fff" opacity="0.46"/><circle cx="276" cy="98" r="1.5" fill="#fff" opacity="0.49"/><circle cx="411" cy="92" r="2.0" fill="#fff" opacity="0.26"/><circle cx="34" cy="280" r="1.7" fill="#fff" opacity="0.53"/><circle cx="177" cy="718" r="1.2" fill="#fff" opacity="0.44"/><circle cx="440" cy="377" r="0.9" fill="#fff" opacity="0.35"/><circle cx="175" cy="48" r="2.4" fill="#fff" opacity="0.26"/><circle cx="462" cy="692" r="1.6" fill="#fff" opacity="0.54"/><circle cx="264" cy="528" r="2.8" fill="#fff" opacity="0.32"/><circle cx="153" cy="201" r="2.5" fill="#fff" opacity="0.64"/></g>
  <path d="M38 684 C128 596 386 596 475 684 V768 H38Z" fill="#318aa3" opacity=".17"/>
  <ellipse cx="256" cy="662" rx="150" ry="34" fill="#318aa3" opacity=".28"/>
  <g transform="translate(0 122)">
    <ellipse cx="256" cy="359.7" rx="110.69999999999999" ry="100.44999999999999" fill="url(#body)" filter="url(#softShadow)"/><circle cx="256" cy="232.60000000000002" r="86.1" fill="url(#head)"/><path d="M149.4 322.8 C51.00000000000003 304.35 85.85000000000002 423.25 165.8 402.75" fill="#318aa3"/><path d="M362.6 322.8 C461 304.35 426.15 423.25 346.2 402.75" fill="#318aa3"/><path d="M200.65 148.55 H311.35 L331.85 195.7 Q256 224.4 180.15 195.7 Z" fill="#d7fbff" opacity=".85"/><ellipse cx="223.2" cy="253.1" rx="14.349999999999998" ry="16.4" fill="#14213d"/><ellipse cx="288.8" cy="253.1" rx="14.349999999999998" ry="16.4" fill="#14213d"/><circle cx="229.35" cy="244.9" r="4.714999999999999" fill="#fff"/><circle cx="294.95" cy="244.9" r="4.714999999999999" fill="#fff"/><path d="M256 183.4 L278.55 212.10000000000002 L256 242.85 L233.45 212.10000000000002 Z" fill="#d7fbff" opacity=".92"/>
  </g>
  <path d="M74 126 C170 65 334 65 438 126" stroke="#fff" stroke-width="16" stroke-linecap="round" opacity=".16"/>
  <path d="M63 676 C162 718 344 718 449 662" stroke="#fff" stroke-width="14" stroke-linecap="round" opacity=".16"/>
</svg>