<svg xmlns="http://www.w3.org/2000/svg" viewBox="0 0 512 768" role="img" aria-label="灵晶兽 unique portrait">
  <defs>
    <linearGradient id="bg372" x1="0" y1="0" x2="1" y2="1"><stop offset="0" stop-color="#d8d3c4"/><stop offset=".55" stop-color="#8e8a7e"/><stop offset="1" stop-color="#f5f0df"/></linearGradient>
    <radialGradient id="body372" cx=".35" cy=".24" r=".78"><stop offset="0" stop-color="#fff" stop-opacity=".88"/><stop offset=".18" stop-color="#d8d3c4"/><stop offset=".68" stop-color="#8e8a7e"/><stop offset="1" stop-color="#f5f0df"/></radialGradient>
    <filter id="shadow372" x="-30%" y="-30%" width="160%" height="160%"><feDropShadow dx="0" dy="10" stdDeviation="9" flood-color="#f5f0df" flood-opacity=".36"/></filter>
  </defs>
  <rect width="512" height="768" rx="48" fill="url(#bg372)"/>
  <rect x="24" y="24" width="464" height="720" rx="40" fill="#fff" opacity=".08"/>
  <g opacity=".46"><circle cx="243" cy="488" r="4.2" fill="#fff" opacity="0.34"/><circle cx="260" cy="197" r="2.3" fill="#fff" opacity="0.52"/><circle cx="50" cy="380" r="3.3" fill="#fff" opacity="0.44"/><circle cx="266" cy="602" r="3.3" fill="#fff" opacity="0.31"/><circle cx="451" cy="107" r="4.5" fill="#fff" opacity="0.54"/><circle cx="97" cy="504" r="3.6" fill="#fff" opacity="0.40"/><circle cx="325" cy="179" r="3.4" fill="#fff" opacity="0.63"/><circle cx="204" cy="508" r="4.9" fill="#fff" opacity="0.50"/><circle cx="450" cy="192" r="1.4" fill="#fff" opacity="0.28"/><circle cx="177" cy="182" r="3.7" fill="#fff" opacity="0.38"/><circle cx="280" cy="377" r="2.1" fill="#fff" opacity="0.25"/><circle cx="338" cy="463" r="1.9" fill="#fff" opacity="0.55"/></g>
  <path d="M0 596 C80 558 128 616 202 584 C281 550 332 618 418 582 C464 563 492 570 512 586 V768 H0Z" fill="#f5f0df" opacity=".22"/>
  <ellipse cx="256" cy="664" rx="154" ry="36" fill="#f5f0df" opacity=".3"/>
  <g transform="translate(0 84)"><circle cx="256" cy="357" r="128" fill="url(#body372)" filter="url(#shadow372)"/><circle cx="256" cy="357" r="70" fill="#d8d3c4" opacity=".26"/>
    <circle cx="214" cy="328" r="17" fill="#f5f0df"/><circle cx="298" cy="328" r="17" fill="#f5f0df"/>
    <circle cx="208" cy="322" r="5" fill="#fff" opacity=".75"/><circle cx="292" cy="322" r="5" fill="#fff" opacity=".75"/>
    <path d="M206 410 Q256 442 306 410" stroke="#f5f0df" stroke-width="12" fill="none" stroke-linecap="round" opacity=".72"/>
    <path d="M188 560 C228 600 288 600 326 560" stroke="#fff" stroke-width="12" stroke-linecap="round" opacity=".18" fill="none"/>
  </g>
  <path d="M72 128 C168 68 334 66 440 128" stroke="#fff" stroke-width="16" stroke-linecap="round" opacity=".16"/>
  <path d="M60 678 C164 722 348 718 452 662" stroke="#fff" stroke-width="14" stroke-linecap="round" opacity=".16"/>
</svg>