<svg xmlns="http://www.w3.org/2000/svg" viewBox="0 0 512 768" role="img" aria-label="碧蓝晶卫 unique portrait">
  <defs>
    <linearGradient id="bg374" x1="0" y1="0" x2="1" y2="1"><stop offset="0" stop-color="#9be7ff"/><stop offset=".55" stop-color="#2f80ed"/><stop offset="1" stop-color="#0a3d7a"/></linearGradient>
    <radialGradient id="body374" cx=".35" cy=".24" r=".78"><stop offset="0" stop-color="#fff" stop-opacity=".88"/><stop offset=".18" stop-color="#9be7ff"/><stop offset=".68" stop-color="#2f80ed"/><stop offset="1" stop-color="#0a3d7a"/></radialGradient>
    <filter id="shadow374" x="-30%" y="-30%" width="160%" height="160%"><feDropShadow dx="0" dy="10" stdDeviation="9" flood-color="#0a3d7a" flood-opacity=".36"/></filter>
  </defs>
  <rect width="512" height="768" rx="48" fill="url(#bg374)"/>
  <rect x="24" y="24" width="464" height="720" rx="40" fill="#fff" opacity=".08"/>
  <g opacity=".46"><circle cx="170" cy="279" r="3.4" fill="#fff" opacity="0.43"/><circle cx="466" cy="448" r="2.6" fill="#fff" opacity="0.44"/><circle cx="167" cy="184" r="1.4" fill="#fff" opacity="0.25"/><circle cx="298" cy="385" r="5.0" fill="#fff" opacity="0.56"/><circle cx="347" cy="178" r="3.6" fill="#fff" opacity="0.53"/><circle cx="399" cy="610" r="3.7" fill="#fff" opacity="0.24"/><circle cx="288" cy="585" r="1.9" fill="#fff" opacity="0.34"/><circle cx="370" cy="144" r="4.2" fill="#fff" opacity="0.38"/><circle cx="119" cy="117" r="2.3" fill="#fff" opacity="0.50"/><circle cx="198" cy="568" r="1.9" fill="#fff" opacity="0.25"/><circle cx="225" cy="539" r="1.2" fill="#fff" opacity="0.31"/><circle cx="194" cy="394" r="2.9" fill="#fff" opacity="0.49"/><circle cx="178" cy="127" r="2.6" fill="#fff" opacity="0.28"/><circle cx="186" cy="334" r="1.5" fill="#fff" opacity="0.26"/><circle cx="121" cy="146" r="2.0" fill="#fff" opacity="0.44"/><circle cx="241" cy="150" r="3.6" fill="#fff" opacity="0.34"/><circle cx="217" cy="455" r="3.0" fill="#fff" opacity="0.37"/><circle cx="384" cy="567" r="2.4" fill="#fff" opacity="0.39"/><circle cx="464" cy="323" r="3.1" fill="#fff" opacity="0.50"/><circle cx="453" cy="188" r="4.7" fill="#fff" opacity="0.40"/><circle cx="92" cy="272" r="3.3" fill="#fff" opacity="0.37"/></g>
  <path d="M0 596 C80 558 128 616 202 584 C281 550 332 618 418 582 C464 563 492 570 512 586 V768 H0Z" fill="#0a3d7a" opacity=".22"/>
  <ellipse cx="256" cy="664" rx="154" ry="36" fill="#0a3d7a" opacity=".3"/>
  <g transform="translate(0 84)"><path d="M151 500 C116 338 160 190 256 170 C352 190 396 338 361 500 C320 466 291 532 256 490 C221 532 192 466 151 500Z" fill="url(#body374)" filter="url(#shadow374)"/>
    <circle cx="217" cy="320" r="17" fill="#101827"/><circle cx="295" cy="320" r="17" fill="#101827"/>
    <circle cx="211" cy="314" r="5" fill="#fff" opacity=".75"/><circle cx="289" cy="314" r="5" fill="#fff" opacity=".75"/>
    <path d="M206 410 Q256 442 306 410" stroke="#0a3d7a" stroke-width="12" fill="none" stroke-linecap="round" opacity=".72"/>
    <path d="M188 560 C228 600 288 600 326 560" stroke="#fff" stroke-width="12" stroke-linecap="round" opacity=".18" fill="none"/>
  </g>
  <path d="M72 128 C168 68 334 66 440 128" stroke="#fff" stroke-width="16" stroke-linecap="round" opacity=".16"/>
  <path d="M60 678 C164 722 348 718 452 662" stroke="#fff" stroke-width="14" stroke-linecap="round" opacity=".16"/>
</svg>