<svg xmlns="http://www.w3.org/2000/svg" viewBox="0 0 512 768" role="img" aria-label="紫电晶卫 unique portrait">
  <defs>
    <linearGradient id="bg375" x1="0" y1="0" x2="1" y2="1"><stop offset="0" stop-color="#fff176"/><stop offset=".55" stop-color="#f9c74f"/><stop offset="1" stop-color="#a76d00"/></linearGradient>
    <radialGradient id="body375" cx=".35" cy=".24" r=".78"><stop offset="0" stop-color="#fff" stop-opacity=".88"/><stop offset=".18" stop-color="#fff176"/><stop offset=".68" stop-color="#f9c74f"/><stop offset="1" stop-color="#a76d00"/></radialGradient>
    <filter id="shadow375" x="-30%" y="-30%" width="160%" height="160%"><feDropShadow dx="0" dy="10" stdDeviation="9" flood-color="#a76d00" flood-opacity=".36"/></filter>
  </defs>
  <rect width="512" height="768" rx="48" fill="url(#bg375)"/>
  <rect x="24" y="24" width="464" height="720" rx="40" fill="#fff" opacity=".08"/>
  <g opacity=".46"><circle cx="49" cy="529" r="5.3" fill="#fff" opacity="0.40"/><circle cx="423" cy="162" r="1.5" fill="#fff" opacity="0.59"/><circle cx="462" cy="256" r="1.4" fill="#fff" opacity="0.28"/><circle cx="212" cy="230" r="3.7" fill="#fff" opacity="0.49"/><circle cx="344" cy="130" r="5.2" fill="#fff" opacity="0.27"/><circle cx="416" cy="192" r="1.5" fill="#fff" opacity="0.51"/><circle cx="208" cy="236" r="4.3" fill="#fff" opacity="0.64"/><circle cx="272" cy="268" r="1.9" fill="#fff" opacity="0.39"/><circle cx="213" cy="81" r="4.5" fill="#fff" opacity="0.53"/><circle cx="371" cy="266" r="5.1" fill="#fff" opacity="0.55"/><circle cx="145" cy="333" r="4.4" fill="#fff" opacity="0.54"/><circle cx="305" cy="593" r="2.5" fill="#fff" opacity="0.36"/></g>
  <path d="M0 596 C80 558 128 616 202 584 C281 550 332 618 418 582 C464 563 492 570 512 586 V768 H0Z" fill="#a76d00" opacity=".22"/>
  <ellipse cx="256" cy="664" rx="154" ry="36" fill="#a76d00" opacity=".3"/>
  <g transform="translate(0 84)"><circle cx="256" cy="357" r="128" fill="url(#body375)" filter="url(#shadow375)"/><circle cx="256" cy="357" r="70" fill="#fff176" opacity=".26"/>
    <circle cx="215" cy="322" r="17" fill="#a76d00"/><circle cx="297" cy="322" r="17" fill="#a76d00"/>
    <circle cx="209" cy="316" r="5" fill="#fff" opacity=".75"/><circle cx="291" cy="316" r="5" fill="#fff" opacity=".75"/>
    <path d="M206 410 Q256 442 306 410" stroke="#a76d00" stroke-width="12" fill="none" stroke-linecap="round" opacity=".72"/>
    <path d="M188 560 C228 600 288 600 326 560" stroke="#fff" stroke-width="12" stroke-linecap="round" opacity=".18" fill="none"/>
  </g>
  <path d="M72 128 C168 68 334 66 440 128" stroke="#fff" stroke-width="16" stroke-linecap="round" opacity=".16"/>
  <path d="M60 678 C164 722 348 718 452 662" stroke="#fff" stroke-width="14" stroke-linecap="round" opacity=".16"/>
</svg>