<svg xmlns="http://www.w3.org/2000/svg" viewBox="0 0 512 768" role="img" aria-label="翠绿晶卫 unique portrait">
  <defs>
    <linearGradient id="bg376" x1="0" y1="0" x2="1" y2="1"><stop offset="0" stop-color="#c8f7a1"/><stop offset=".55" stop-color="#36b56a"/><stop offset="1" stop-color="#145a32"/></linearGradient>
    <radialGradient id="body376" cx=".35" cy=".24" r=".78"><stop offset="0" stop-color="#fff" stop-opacity=".88"/><stop offset=".18" stop-color="#c8f7a1"/><stop offset=".68" stop-color="#36b56a"/><stop offset="1" stop-color="#145a32"/></radialGradient>
    <filter id="shadow376" x="-30%" y="-30%" width="160%" height="160%"><feDropShadow dx="0" dy="10" stdDeviation="9" flood-color="#145a32" flood-opacity=".36"/></filter>
  </defs>
  <rect width="512" height="768" rx="48" fill="url(#bg376)"/>
  <rect x="24" y="24" width="464" height="720" rx="40" fill="#fff" opacity=".08"/>
  <g opacity=".46"><circle cx="446" cy="315" r="2.1" fill="#fff" opacity="0.40"/><circle cx="157" cy="304" r="4.4" fill="#fff" opacity="0.59"/><circle cx="444" cy="329" r="5.1" fill="#fff" opacity="0.61"/><circle cx="175" cy="369" r="1.9" fill="#fff" opacity="0.34"/><circle cx="258" cy="383" r="4.1" fill="#fff" opacity="0.44"/><circle cx="158" cy="370" r="5.3" fill="#fff" opacity="0.28"/><circle cx="448" cy="474" r="4.5" fill="#fff" opacity="0.52"/><circle cx="168" cy="283" r="3.4" fill="#fff" opacity="0.38"/><circle cx="154" cy="368" r="3.8" fill="#fff" opacity="0.47"/><circle cx="56" cy="179" r="1.6" fill="#fff" opacity="0.58"/><circle cx="252" cy="351" r="4.8" fill="#fff" opacity="0.54"/><circle cx="150" cy="357" r="5.2" fill="#fff" opacity="0.29"/><circle cx="328" cy="199" r="2.7" fill="#fff" opacity="0.58"/><circle cx="403" cy="510" r="4.7" fill="#fff" opacity="0.45"/><circle cx="212" cy="599" r="2.1" fill="#fff" opacity="0.58"/></g>
  <path d="M0 596 C80 558 128 616 202 584 C281 550 332 618 418 582 C464 563 492 570 512 586 V768 H0Z" fill="#145a32" opacity=".22"/>
  <ellipse cx="256" cy="664" rx="154" ry="36" fill="#145a32" opacity=".3"/>
  <g transform="translate(0 84)"><path d="M151 500 C116 338 160 190 256 170 C352 190 396 338 361 500 C320 466 291 532 256 490 C221 532 192 466 151 500Z" fill="url(#body376)" filter="url(#shadow376)"/>
    <circle cx="214" cy="317" r="17" fill="#101827"/><circle cx="298" cy="317" r="17" fill="#101827"/>
    <circle cx="208" cy="311" r="5" fill="#fff" opacity=".75"/><circle cx="292" cy="311" r="5" fill="#fff" opacity=".75"/>
    <path d="M206 410 Q256 442 306 410" stroke="#145a32" stroke-width="12" fill="none" stroke-linecap="round" opacity=".72"/>
    <path d="M188 560 C228 600 288 600 326 560" stroke="#fff" stroke-width="12" stroke-linecap="round" opacity=".18" fill="none"/>
  </g>
  <path d="M72 128 C168 68 334 66 440 128" stroke="#fff" stroke-width="16" stroke-linecap="round" opacity=".16"/>
  <path d="M60 678 C164 722 348 718 452 662" stroke="#fff" stroke-width="14" stroke-linecap="round" opacity=".16"/>
</svg>