<svg xmlns="http://www.w3.org/2000/svg" viewBox="0 0 512 768" role="img" aria-label="苍白晶卫 unique portrait">
  <defs>
    <linearGradient id="bg377" x1="0" y1="0" x2="1" y2="1"><stop offset="0" stop-color="#e8fbff"/><stop offset=".55" stop-color="#7bdff2"/><stop offset="1" stop-color="#2574a9"/></linearGradient>
    <radialGradient id="body377" cx=".35" cy=".24" r=".78"><stop offset="0" stop-color="#fff" stop-opacity=".88"/><stop offset=".18" stop-color="#e8fbff"/><stop offset=".68" stop-color="#7bdff2"/><stop offset="1" stop-color="#2574a9"/></radialGradient>
    <filter id="shadow377" x="-30%" y="-30%" width="160%" height="160%"><feDropShadow dx="0" dy="10" stdDeviation="9" flood-color="#2574a9" flood-opacity=".36"/></filter>
  </defs>
  <rect width="512" height="768" rx="48" fill="url(#bg377)"/>
  <rect x="24" y="24" width="464" height="720" rx="40" fill="#fff" opacity=".08"/>
  <g opacity=".46"><circle cx="409" cy="354" r="1.3" fill="#fff" opacity="0.42"/><circle cx="320" cy="131" r="3.5" fill="#fff" opacity="0.33"/><circle cx="361" cy="444" r="1.2" fill="#fff" opacity="0.27"/><circle cx="116" cy="218" r="5.1" fill="#fff" opacity="0.34"/><circle cx="146" cy="63" r="1.6" fill="#fff" opacity="0.37"/><circle cx="402" cy="628" r="3.2" fill="#fff" opacity="0.52"/><circle cx="439" cy="209" r="3.6" fill="#fff" opacity="0.44"/><circle cx="212" cy="407" r="1.7" fill="#fff" opacity="0.24"/><circle cx="113" cy="431" r="1.7" fill="#fff" opacity="0.60"/><circle cx="145" cy="377" r="4.5" fill="#fff" opacity="0.40"/><circle cx="118" cy="248" r="3.9" fill="#fff" opacity="0.59"/><circle cx="400" cy="74" r="1.5" fill="#fff" opacity="0.47"/><circle cx="465" cy="377" r="1.4" fill="#fff" opacity="0.62"/><circle cx="249" cy="508" r="5.2" fill="#fff" opacity="0.49"/><circle cx="125" cy="409" r="3.6" fill="#fff" opacity="0.33"/><circle cx="155" cy="329" r="3.3" fill="#fff" opacity="0.34"/><circle cx="455" cy="459" r="4.2" fill="#fff" opacity="0.31"/><circle cx="200" cy="416" r="4.9" fill="#fff" opacity="0.47"/></g>
  <path d="M0 596 C80 558 128 616 202 584 C281 550 332 618 418 582 C464 563 492 570 512 586 V768 H0Z" fill="#2574a9" opacity=".22"/>
  <ellipse cx="256" cy="664" rx="154" ry="36" fill="#2574a9" opacity=".3"/>
  <g transform="translate(0 84)"><circle cx="256" cy="357" r="128" fill="url(#body377)" filter="url(#shadow377)"/><circle cx="256" cy="357" r="70" fill="#e8fbff" opacity=".26"/>
    <circle cx="212" cy="322" r="17" fill="#2574a9"/><circle cx="300" cy="322" r="17" fill="#2574a9"/>
    <circle cx="206" cy="316" r="5" fill="#fff" opacity=".75"/><circle cx="294" cy="316" r="5" fill="#fff" opacity=".75"/>
    <path d="M214 248 Q256 284 298 248" stroke="#e8fbff" stroke-width="14" fill="none" stroke-linecap="round" opacity=".74"/>
    <path d="M188 560 C228 600 288 600 326 560" stroke="#fff" stroke-width="12" stroke-linecap="round" opacity=".18" fill="none"/>
  </g>
  <path d="M72 128 C168 68 334 66 440 128" stroke="#fff" stroke-width="16" stroke-linecap="round" opacity=".16"/>
  <path d="M60 678 C164 722 348 718 452 662" stroke="#fff" stroke-width="14" stroke-linecap="round" opacity=".16"/>
</svg>