<svg xmlns="http://www.w3.org/2000/svg" viewBox="0 0 512 768" role="img" aria-label="幽夜晶卫 unique portrait">
  <defs>
    <linearGradient id="bg378" x1="0" y1="0" x2="1" y2="1"><stop offset="0" stop-color="#c6b6ff"/><stop offset=".55" stop-color="#5b4b8a"/><stop offset="1" stop-color="#211a3a"/></linearGradient>
    <radialGradient id="body378" cx=".35" cy=".24" r=".78"><stop offset="0" stop-color="#fff" stop-opacity=".88"/><stop offset=".18" stop-color="#c6b6ff"/><stop offset=".68" stop-color="#5b4b8a"/><stop offset="1" stop-color="#211a3a"/></radialGradient>
    <filter id="shadow378" x="-30%" y="-30%" width="160%" height="160%"><feDropShadow dx="0" dy="10" stdDeviation="9" flood-color="#211a3a" flood-opacity=".36"/></filter>
  </defs>
  <rect width="512" height="768" rx="48" fill="url(#bg378)"/>
  <rect x="24" y="24" width="464" height="720" rx="40" fill="#fff" opacity=".08"/>
  <g opacity=".46"><circle cx="106" cy="218" r="2.0" fill="#fff" opacity="0.43"/><circle cx="87" cy="613" r="5.2" fill="#fff" opacity="0.37"/><circle cx="185" cy="105" r="1.9" fill="#fff" opacity="0.49"/><circle cx="93" cy="618" r="1.4" fill="#fff" opacity="0.55"/><circle cx="436" cy="503" r="2.1" fill="#fff" opacity="0.30"/><circle cx="441" cy="167" r="1.6" fill="#fff" opacity="0.60"/><circle cx="185" cy="334" r="2.3" fill="#fff" opacity="0.42"/><circle cx="62" cy="201" r="3.7" fill="#fff" opacity="0.42"/><circle cx="51" cy="496" r="5.4" fill="#fff" opacity="0.62"/><circle cx="122" cy="82" r="1.4" fill="#fff" opacity="0.43"/><circle cx="229" cy="473" r="1.7" fill="#fff" opacity="0.25"/><circle cx="166" cy="291" r="5.3" fill="#fff" opacity="0.43"/><circle cx="289" cy="139" r="2.8" fill="#fff" opacity="0.33"/><circle cx="169" cy="425" r="5.2" fill="#fff" opacity="0.30"/><circle cx="424" cy="191" r="1.9" fill="#fff" opacity="0.59"/><circle cx="180" cy="229" r="5.0" fill="#fff" opacity="0.36"/><circle cx="97" cy="367" r="2.6" fill="#fff" opacity="0.45"/><circle cx="410" cy="550" r="1.4" fill="#fff" opacity="0.46"/></g>
  <path d="M0 596 C80 558 128 616 202 584 C281 550 332 618 418 582 C464 563 492 570 512 586 V768 H0Z" fill="#211a3a" opacity=".22"/>
  <ellipse cx="256" cy="664" rx="154" ry="36" fill="#211a3a" opacity=".3"/>
  <g transform="translate(0 84)"><circle cx="256" cy="357" r="128" fill="url(#body378)" filter="url(#shadow378)"/><circle cx="256" cy="357" r="70" fill="#c6b6ff" opacity=".26"/>
    <circle cx="212" cy="333" r="17" fill="#211a3a"/><circle cx="300" cy="333" r="17" fill="#211a3a"/>
    <circle cx="206" cy="327" r="5" fill="#fff" opacity=".75"/><circle cx="294" cy="327" r="5" fill="#fff" opacity=".75"/>
    <path d="M214 248 Q256 284 298 248" stroke="#c6b6ff" stroke-width="14" fill="none" stroke-linecap="round" opacity=".74"/>
    <path d="M188 560 C228 600 288 600 326 560" stroke="#fff" stroke-width="12" stroke-linecap="round" opacity=".18" fill="none"/>
  </g>
  <path d="M72 128 C168 68 334 66 440 128" stroke="#fff" stroke-width="16" stroke-linecap="round" opacity=".16"/>
  <path d="M60 678 C164 722 348 718 452 662" stroke="#fff" stroke-width="14" stroke-linecap="round" opacity=".16"/>
</svg>