<svg xmlns="http://www.w3.org/2000/svg" viewBox="0 0 512 768" role="img" aria-label="辉光晶卫 unique portrait">
  <defs>
    <linearGradient id="bg379" x1="0" y1="0" x2="1" y2="1"><stop offset="0" stop-color="#ffd1dc"/><stop offset=".55" stop-color="#ff5fa2"/><stop offset="1" stop-color="#80305d"/></linearGradient>
    <radialGradient id="body379" cx=".35" cy=".24" r=".78"><stop offset="0" stop-color="#fff" stop-opacity=".88"/><stop offset=".18" stop-color="#ffd1dc"/><stop offset=".68" stop-color="#ff5fa2"/><stop offset="1" stop-color="#80305d"/></radialGradient>
    <filter id="shadow379" x="-30%" y="-30%" width="160%" height="160%"><feDropShadow dx="0" dy="10" stdDeviation="9" flood-color="#80305d" flood-opacity=".36"/></filter>
  </defs>
  <rect width="512" height="768" rx="48" fill="url(#bg379)"/>
  <rect x="24" y="24" width="464" height="720" rx="40" fill="#fff" opacity=".08"/>
  <g opacity=".46"><circle cx="206" cy="571" r="4.7" fill="#fff" opacity="0.42"/><circle cx="174" cy="621" r="3.4" fill="#fff" opacity="0.35"/><circle cx="255" cy="549" r="5.2" fill="#fff" opacity="0.57"/><circle cx="456" cy="550" r="2.6" fill="#fff" opacity="0.47"/><circle cx="199" cy="411" r="2.2" fill="#fff" opacity="0.57"/><circle cx="427" cy="246" r="1.5" fill="#fff" opacity="0.43"/><circle cx="396" cy="384" r="5.1" fill="#fff" opacity="0.62"/><circle cx="343" cy="241" r="1.9" fill="#fff" opacity="0.46"/><circle cx="142" cy="547" r="4.1" fill="#fff" opacity="0.63"/><circle cx="460" cy="377" r="3.2" fill="#fff" opacity="0.39"/><circle cx="343" cy="60" r="3.7" fill="#fff" opacity="0.53"/><circle cx="277" cy="477" r="1.5" fill="#fff" opacity="0.31"/></g>
  <path d="M0 596 C80 558 128 616 202 584 C281 550 332 618 418 582 C464 563 492 570 512 586 V768 H0Z" fill="#80305d" opacity=".22"/>
  <ellipse cx="256" cy="664" rx="154" ry="36" fill="#80305d" opacity=".3"/>
  <g transform="translate(0 84)"><circle cx="256" cy="357" r="128" fill="url(#body379)" filter="url(#shadow379)"/><circle cx="256" cy="357" r="70" fill="#ffd1dc" opacity=".26"/>
    <circle cx="213" cy="338" r="17" fill="#80305d"/><circle cx="299" cy="338" r="17" fill="#80305d"/>
    <circle cx="207" cy="332" r="5" fill="#fff" opacity=".75"/><circle cx="293" cy="332" r="5" fill="#fff" opacity=".75"/>
    <path d="M206 410 Q256 442 306 410" stroke="#80305d" stroke-width="12" fill="none" stroke-linecap="round" opacity=".72"/>
    <path d="M188 560 C228 600 288 600 326 560" stroke="#fff" stroke-width="12" stroke-linecap="round" opacity=".18" fill="none"/>
  </g>
  <path d="M72 128 C168 68 334 66 440 128" stroke="#fff" stroke-width="16" stroke-linecap="round" opacity=".16"/>
  <path d="M60 678 C164 722 348 718 452 662" stroke="#fff" stroke-width="14" stroke-linecap="round" opacity=".16"/>
</svg>