<svg xmlns="http://www.w3.org/2000/svg" viewBox="0 0 512 768" role="img" aria-label="黑曜晶卫 unique portrait">
  <defs>
    <linearGradient id="bg380" x1="0" y1="0" x2="1" y2="1"><stop offset="0" stop-color="#d9a7ff"/><stop offset=".55" stop-color="#8e44ad"/><stop offset="1" stop-color="#3d195b"/></linearGradient>
    <radialGradient id="body380" cx=".35" cy=".24" r=".78"><stop offset="0" stop-color="#fff" stop-opacity=".88"/><stop offset=".18" stop-color="#d9a7ff"/><stop offset=".68" stop-color="#8e44ad"/><stop offset="1" stop-color="#3d195b"/></radialGradient>
    <filter id="shadow380" x="-30%" y="-30%" width="160%" height="160%"><feDropShadow dx="0" dy="10" stdDeviation="9" flood-color="#3d195b" flood-opacity=".36"/></filter>
  </defs>
  <rect width="512" height="768" rx="48" fill="url(#bg380)"/>
  <rect x="24" y="24" width="464" height="720" rx="40" fill="#fff" opacity=".08"/>
  <g opacity=".46"><circle cx="296" cy="392" r="1.9" fill="#fff" opacity="0.37"/><circle cx="356" cy="622" r="4.9" fill="#fff" opacity="0.50"/><circle cx="206" cy="523" r="1.9" fill="#fff" opacity="0.54"/><circle cx="342" cy="402" r="1.5" fill="#fff" opacity="0.56"/><circle cx="70" cy="309" r="2.0" fill="#fff" opacity="0.34"/><circle cx="374" cy="517" r="5.0" fill="#fff" opacity="0.23"/><circle cx="409" cy="280" r="4.0" fill="#fff" opacity="0.52"/><circle cx="260" cy="202" r="3.9" fill="#fff" opacity="0.39"/><circle cx="161" cy="218" r="2.3" fill="#fff" opacity="0.38"/><circle cx="433" cy="255" r="1.5" fill="#fff" opacity="0.28"/><circle cx="183" cy="379" r="3.1" fill="#fff" opacity="0.62"/><circle cx="396" cy="369" r="3.0" fill="#fff" opacity="0.58"/></g>
  <path d="M0 596 C80 558 128 616 202 584 C281 550 332 618 418 582 C464 563 492 570 512 586 V768 H0Z" fill="#3d195b" opacity=".22"/>
  <ellipse cx="256" cy="664" rx="154" ry="36" fill="#3d195b" opacity=".3"/>
  <g transform="translate(0 84)"><circle cx="256" cy="357" r="128" fill="url(#body380)" filter="url(#shadow380)"/><circle cx="256" cy="357" r="70" fill="#d9a7ff" opacity=".26"/>
    <circle cx="211" cy="323" r="17" fill="#3d195b"/><circle cx="301" cy="323" r="17" fill="#3d195b"/>
    <circle cx="205" cy="317" r="5" fill="#fff" opacity=".75"/><circle cx="295" cy="317" r="5" fill="#fff" opacity=".75"/>
    <path d="M206 410 Q256 442 306 410" stroke="#3d195b" stroke-width="12" fill="none" stroke-linecap="round" opacity=".72"/>
    <path d="M188 560 C228 600 288 600 326 560" stroke="#fff" stroke-width="12" stroke-linecap="round" opacity=".18" fill="none"/>
  </g>
  <path d="M72 128 C168 68 334 66 440 128" stroke="#fff" stroke-width="16" stroke-linecap="round" opacity=".16"/>
  <path d="M60 678 C164 722 348 718 452 662" stroke="#fff" stroke-width="14" stroke-linecap="round" opacity=".16"/>
</svg>