<svg xmlns="http://www.w3.org/2000/svg" viewBox="0 0 512 768" role="img" aria-label="时之沙 original portrait">
  
  <defs>
    <linearGradient id="bgp381" x1="0" y1="0" x2="1" y2="1">
      <stop offset="0" stop-color="#f4e8d8"/>
      <stop offset=".55" stop-color="#b78f68"/>
      <stop offset="1" stop-color="#6d4f3f"/>
    </linearGradient>
    <radialGradient id="body" cx=".36" cy=".25" r=".76">
      <stop offset="0" stop-color="#f4e8d8"/>
      <stop offset=".6" stop-color="#b78f68"/>
      <stop offset="1" stop-color="#6d4f3f"/>
    </radialGradient>
    <radialGradient id="head" cx=".36" cy=".26" r=".72">
      <stop offset="0" stop-color="#ffffff" stop-opacity=".85"/>
      <stop offset=".2" stop-color="#f4e8d8"/>
      <stop offset=".72" stop-color="#b78f68"/>
      <stop offset="1" stop-color="#6d4f3f"/>
    </radialGradient>
    <filter id="softShadow" x="-30%" y="-30%" width="160%" height="160%">
      <feDropShadow dx="0" dy="8" stdDeviation="8" flood-color="#6d4f3f" flood-opacity=".35"/>
    </filter>
  </defs>
  <rect width="512" height="768" rx="48" fill="url(#bgp381)"/>
  <rect x="24" y="24" width="464" height="720" rx="40" fill="#ffffff" opacity=".08"/>
  <g opacity=".42"><circle cx="237" cy="667" r="3.2" fill="#fff" opacity="0.49"/><circle cx="136" cy="71" r="1.1" fill="#fff" opacity="0.27"/><circle cx="179" cy="672" r="1.9" fill="#fff" opacity="0.62"/><circle cx="86" cy="19" r="3.1" fill="#fff" opacity="0.48"/><circle cx="408" cy="18" r="1.5" fill="#fff" opacity="0.45"/><circle cx="199" cy="583" r="2.0" fill="#fff" opacity="0.30"/><circle cx="20" cy="209" r="2.6" fill="#fff" opacity="0.64"/><circle cx="330" cy="120" r="1.7" fill="#fff" opacity="0.43"/><circle cx="142" cy="317" r="2.0" fill="#fff" opacity="0.68"/><circle cx="402" cy="234" r="2.3" fill="#fff" opacity="0.60"/><circle cx="220" cy="136" r="2.6" fill="#fff" opacity="0.59"/><circle cx="303" cy="642" r="1.9" fill="#fff" opacity="0.35"/><circle cx="3" cy="62" r="1.7" fill="#fff" opacity="0.70"/><circle cx="494" cy="218" r="2.9" fill="#fff" opacity="0.60"/><circle cx="214" cy="644" r="1.7" fill="#fff" opacity="0.53"/><circle cx="508" cy="751" r="1.2" fill="#fff" opacity="0.64"/><circle cx="149" cy="574" r="2.8" fill="#fff" opacity="0.61"/><circle cx="495" cy="422" r="3.1" fill="#fff" opacity="0.68"/><circle cx="245" cy="149" r="2.4" fill="#fff" opacity="0.57"/><circle cx="430" cy="518" r="2.5" fill="#fff" opacity="0.39"/><circle cx="180" cy="213" r="1.4" fill="#fff" opacity="0.33"/><circle cx="313" cy="215" r="1.9" fill="#fff" opacity="0.28"/><circle cx="23" cy="720" r="2.8" fill="#fff" opacity="0.59"/><circle cx="487" cy="311" r="2.4" fill="#fff" opacity="0.58"/><circle cx="219" cy="722" r="1.7" fill="#fff" opacity="0.59"/><circle cx="481" cy="326" r="1.2" fill="#fff" opacity="0.44"/><circle cx="258" cy="491" r="1.9" fill="#fff" opacity="0.34"/><circle cx="505" cy="212" r="1.4" fill="#fff" opacity="0.59"/></g>
  <circle cx="256" cy="294" r="195" fill="#f4e8d8" opacity=".12"/><circle cx="256" cy="294" r="153" fill="#fff" opacity=".1"/>
  <ellipse cx="256" cy="662" rx="150" ry="34" fill="#6d4f3f" opacity=".28"/>
  <g transform="translate(0 122)">
    <ellipse cx="256" cy="339.2" rx="100.44999999999999" ry="112.74999999999999" fill="url(#body)" filter="url(#softShadow)"/><circle cx="256" cy="226.45" r="79.94999999999999" fill="url(#head)"/><ellipse cx="256" cy="214.15" rx="139.39999999999998" ry="36.9" fill="none" stroke="#f4e8d8" stroke-width="14.349999999999998" opacity=".75" transform="rotate(-12 256 214.15)"/><path d="M256 103.45000000000002 L276.5 154.70000000000002 L333.9 156.75 L286.75 187.5 L303.15 242.85 L256 208 L208.85 242.85 L225.25 187.5 L178.10000000000002 156.75 L235.5 154.70000000000002 Z" fill="#b78f68"/><ellipse cx="223.2" cy="253.1" rx="14.349999999999998" ry="16.4" fill="#14213d"/><ellipse cx="288.8" cy="253.1" rx="14.349999999999998" ry="16.4" fill="#14213d"/><circle cx="229.35" cy="244.9" r="4.714999999999999" fill="#fff"/><circle cx="294.95" cy="244.9" r="4.714999999999999" fill="#fff"/><circle cx="256" cy="210.05" r="14.349999999999998" fill="#f4e8d8" opacity=".9"/>
  </g>
  <path d="M74 126 C170 65 334 65 438 126" stroke="#fff" stroke-width="16" stroke-linecap="round" opacity=".16"/>
  <path d="M63 676 C162 718 344 718 449 662" stroke="#fff" stroke-width="14" stroke-linecap="round" opacity=".16"/>
</svg>