<svg xmlns="http://www.w3.org/2000/svg" viewBox="0 0 512 768" role="img" aria-label="云团团 original portrait">
  
  <defs>
    <linearGradient id="bgp384" x1="0" y1="0" x2="1" y2="1">
      <stop offset="0" stop-color="#d9edff"/>
      <stop offset=".55" stop-color="#82b7ff"/>
      <stop offset="1" stop-color="#4260ad"/>
    </linearGradient>
    <radialGradient id="body" cx=".36" cy=".25" r=".76">
      <stop offset="0" stop-color="#d9edff"/>
      <stop offset=".6" stop-color="#82b7ff"/>
      <stop offset="1" stop-color="#4260ad"/>
    </radialGradient>
    <radialGradient id="head" cx=".36" cy=".26" r=".72">
      <stop offset="0" stop-color="#ffffff" stop-opacity=".85"/>
      <stop offset=".2" stop-color="#d9edff"/>
      <stop offset=".72" stop-color="#82b7ff"/>
      <stop offset="1" stop-color="#4260ad"/>
    </radialGradient>
    <filter id="softShadow" x="-30%" y="-30%" width="160%" height="160%">
      <feDropShadow dx="0" dy="8" stdDeviation="8" flood-color="#4260ad" flood-opacity=".35"/>
    </filter>
  </defs>
  <rect width="512" height="768" rx="48" fill="url(#bgp384)"/>
  <rect x="24" y="24" width="464" height="720" rx="40" fill="#ffffff" opacity=".08"/>
  <g opacity=".42"><circle cx="133" cy="426" r="1.8" fill="#fff" opacity="0.69"/><circle cx="134" cy="240" r="2.8" fill="#fff" opacity="0.48"/><circle cx="126" cy="38" r="3.0" fill="#fff" opacity="0.54"/><circle cx="356" cy="212" r="2.9" fill="#fff" opacity="0.48"/><circle cx="125" cy="419" r="2.2" fill="#fff" opacity="0.27"/><circle cx="238" cy="656" r="1.1" fill="#fff" opacity="0.29"/><circle cx="214" cy="760" r="0.9" fill="#fff" opacity="0.45"/><circle cx="463" cy="744" r="1.9" fill="#fff" opacity="0.46"/><circle cx="506" cy="569" r="2.9" fill="#fff" opacity="0.37"/><circle cx="231" cy="608" r="1.8" fill="#fff" opacity="0.70"/><circle cx="111" cy="418" r="1.5" fill="#fff" opacity="0.31"/><circle cx="237" cy="425" r="3.1" fill="#fff" opacity="0.49"/><circle cx="415" cy="196" r="0.8" fill="#fff" opacity="0.39"/><circle cx="105" cy="652" r="1.0" fill="#fff" opacity="0.62"/><circle cx="42" cy="358" r="3.2" fill="#fff" opacity="0.48"/><circle cx="196" cy="758" r="1.1" fill="#fff" opacity="0.39"/><circle cx="367" cy="592" r="2.0" fill="#fff" opacity="0.34"/><circle cx="327" cy="14" r="2.4" fill="#fff" opacity="0.65"/><circle cx="121" cy="300" r="2.3" fill="#fff" opacity="0.45"/><circle cx="488" cy="21" r="2.6" fill="#fff" opacity="0.64"/><circle cx="146" cy="506" r="2.0" fill="#fff" opacity="0.68"/><circle cx="293" cy="315" r="1.6" fill="#fff" opacity="0.31"/><circle cx="9" cy="733" r="2.4" fill="#fff" opacity="0.52"/><circle cx="349" cy="212" r="2.4" fill="#fff" opacity="0.42"/><circle cx="97" cy="461" r="2.1" fill="#fff" opacity="0.48"/><circle cx="201" cy="519" r="1.6" fill="#fff" opacity="0.61"/><circle cx="356" cy="206" r="2.7" fill="#fff" opacity="0.62"/><circle cx="146" cy="47" r="2.1" fill="#fff" opacity="0.33"/></g>
  <circle cx="256" cy="294" r="216" fill="#d9edff" opacity=".12"/><circle cx="256" cy="294" r="174" fill="#fff" opacity=".1"/>
  <ellipse cx="256" cy="662" rx="150" ry="34" fill="#4260ad" opacity=".28"/>
  <g transform="translate(0 122)">
    <ellipse cx="256" cy="339.2" rx="100.44999999999999" ry="112.74999999999999" fill="url(#body)" filter="url(#softShadow)"/><circle cx="256" cy="226.45" r="79.94999999999999" fill="url(#head)"/><ellipse cx="256" cy="214.15" rx="139.39999999999998" ry="36.9" fill="none" stroke="#d9edff" stroke-width="14.349999999999998" opacity=".75" transform="rotate(-12 256 214.15)"/><path d="M256 103.45000000000002 L276.5 154.70000000000002 L333.9 156.75 L286.75 187.5 L303.15 242.85 L256 208 L208.85 242.85 L225.25 187.5 L178.10000000000002 156.75 L235.5 154.70000000000002 Z" fill="#82b7ff"/><ellipse cx="223.2" cy="253.1" rx="14.349999999999998" ry="16.4" fill="#14213d"/><ellipse cx="288.8" cy="253.1" rx="14.349999999999998" ry="16.4" fill="#14213d"/><circle cx="229.35" cy="244.9" r="4.714999999999999" fill="#fff"/><circle cx="294.95" cy="244.9" r="4.714999999999999" fill="#fff"/><path d="M256 183.4 L278.55 212.10000000000002 L256 242.85 L233.45 212.10000000000002 Z" fill="#d9edff" opacity=".92"/>
  </g>
  <path d="M74 126 C170 65 334 65 438 126" stroke="#fff" stroke-width="16" stroke-linecap="round" opacity=".16"/>
  <path d="M63 676 C162 718 344 718 449 662" stroke="#fff" stroke-width="14" stroke-linecap="round" opacity=".16"/>
</svg>