<svg xmlns="http://www.w3.org/2000/svg" viewBox="0 0 512 768" role="img" aria-label="绝对零度 original portrait">
  
  <defs>
    <linearGradient id="bgp387" x1="0" y1="0" x2="1" y2="1">
      <stop offset="0" stop-color="#d7fbff"/>
      <stop offset=".55" stop-color="#71d6e8"/>
      <stop offset="1" stop-color="#318aa3"/>
    </linearGradient>
    <radialGradient id="body" cx=".36" cy=".25" r=".76">
      <stop offset="0" stop-color="#d7fbff"/>
      <stop offset=".6" stop-color="#71d6e8"/>
      <stop offset="1" stop-color="#318aa3"/>
    </radialGradient>
    <radialGradient id="head" cx=".36" cy=".26" r=".72">
      <stop offset="0" stop-color="#ffffff" stop-opacity=".85"/>
      <stop offset=".2" stop-color="#d7fbff"/>
      <stop offset=".72" stop-color="#71d6e8"/>
      <stop offset="1" stop-color="#318aa3"/>
    </radialGradient>
    <filter id="softShadow" x="-30%" y="-30%" width="160%" height="160%">
      <feDropShadow dx="0" dy="8" stdDeviation="8" flood-color="#318aa3" flood-opacity=".35"/>
    </filter>
  </defs>
  <rect width="512" height="768" rx="48" fill="url(#bgp387)"/>
  <rect x="24" y="24" width="464" height="720" rx="40" fill="#ffffff" opacity=".08"/>
  <g opacity=".42"><circle cx="174" cy="374" r="2.4" fill="#fff" opacity="0.27"/><circle cx="415" cy="765" r="1.3" fill="#fff" opacity="0.44"/><circle cx="415" cy="79" r="2.0" fill="#fff" opacity="0.69"/><circle cx="370" cy="404" r="2.7" fill="#fff" opacity="0.35"/><circle cx="345" cy="112" r="1.2" fill="#fff" opacity="0.68"/><circle cx="298" cy="425" r="0.8" fill="#fff" opacity="0.26"/><circle cx="259" cy="754" r="0.9" fill="#fff" opacity="0.70"/><circle cx="203" cy="164" r="1.3" fill="#fff" opacity="0.47"/><circle cx="141" cy="662" r="2.7" fill="#fff" opacity="0.66"/><circle cx="179" cy="581" r="2.7" fill="#fff" opacity="0.51"/><circle cx="351" cy="110" r="1.5" fill="#fff" opacity="0.31"/><circle cx="174" cy="662" r="3.2" fill="#fff" opacity="0.58"/><circle cx="108" cy="664" r="0.8" fill="#fff" opacity="0.65"/><circle cx="308" cy="652" r="0.9" fill="#fff" opacity="0.51"/><circle cx="122" cy="300" r="1.8" fill="#fff" opacity="0.48"/><circle cx="295" cy="725" r="1.1" fill="#fff" opacity="0.28"/><circle cx="418" cy="698" r="2.9" fill="#fff" opacity="0.64"/><circle cx="454" cy="465" r="2.0" fill="#fff" opacity="0.57"/><circle cx="12" cy="467" r="2.4" fill="#fff" opacity="0.41"/><circle cx="43" cy="83" r="2.7" fill="#fff" opacity="0.57"/><circle cx="487" cy="529" r="2.5" fill="#fff" opacity="0.41"/><circle cx="258" cy="299" r="1.4" fill="#fff" opacity="0.29"/><circle cx="64" cy="522" r="1.8" fill="#fff" opacity="0.64"/><circle cx="399" cy="270" r="1.8" fill="#fff" opacity="0.66"/><circle cx="66" cy="709" r="3.1" fill="#fff" opacity="0.67"/><circle cx="58" cy="533" r="2.2" fill="#fff" opacity="0.66"/><circle cx="443" cy="431" r="1.3" fill="#fff" opacity="0.51"/><circle cx="144" cy="543" r="2.9" fill="#fff" opacity="0.43"/></g>
  <path d="M0 585 C86 541 164 618 248 574 C338 526 407 595 512 548 V768 H0Z" fill="#71d6e8" opacity=".2"/><path d="M0 650 C105 610 180 690 282 638 C370 594 426 650 512 618 V768 H0Z" fill="#d7fbff" opacity=".18"/>
  <ellipse cx="256" cy="662" rx="150" ry="34" fill="#318aa3" opacity=".28"/>
  <g transform="translate(0 122)">
    <path d="M110.45000000000002 326.9 L40.75000000000003 240.8 L44.85000000000002 413 Z" fill="#71d6e8" opacity=".86"/><ellipse cx="247.8" cy="322.8" rx="139.39999999999998" ry="88.14999999999999" fill="url(#body)" filter="url(#softShadow)"/><path d="M243.7 242.85 C288.8 136.25 358.5 173.15 342.1 263.35" fill="#71d6e8" opacity=".72"/><path d="M301.1 384.3 C338 458.1 411.79999999999995 413 362.6 359.7" fill="#d7fbff" opacity=".8"/><circle cx="329.8" cy="292.05" r="14.349999999999998" fill="#101828"/><circle cx="335.95" cy="285.9" r="4.714999999999999" fill="#fff"/><path d="M256 183.4 L278.55 212.10000000000002 L256 242.85 L233.45 212.10000000000002 Z" fill="#d7fbff" opacity=".92"/>
  </g>
  <path d="M74 126 C170 65 334 65 438 126" stroke="#fff" stroke-width="16" stroke-linecap="round" opacity=".16"/>
  <path d="M63 676 C162 718 344 718 449 662" stroke="#fff" stroke-width="14" stroke-linecap="round" opacity=".16"/>
</svg>