<svg xmlns="http://www.w3.org/2000/svg" viewBox="0 0 512 768" role="img" aria-label="黄昏钟摆 original portrait">
  
  <defs>
    <linearGradient id="bgp389" x1="0" y1="0" x2="1" y2="1">
      <stop offset="0" stop-color="#e8edf2"/>
      <stop offset=".55" stop-color="#9aa8b7"/>
      <stop offset="1" stop-color="#536271"/>
    </linearGradient>
    <radialGradient id="body" cx=".36" cy=".25" r=".76">
      <stop offset="0" stop-color="#e8edf2"/>
      <stop offset=".6" stop-color="#9aa8b7"/>
      <stop offset="1" stop-color="#536271"/>
    </radialGradient>
    <radialGradient id="head" cx=".36" cy=".26" r=".72">
      <stop offset="0" stop-color="#ffffff" stop-opacity=".85"/>
      <stop offset=".2" stop-color="#e8edf2"/>
      <stop offset=".72" stop-color="#9aa8b7"/>
      <stop offset="1" stop-color="#536271"/>
    </radialGradient>
    <filter id="softShadow" x="-30%" y="-30%" width="160%" height="160%">
      <feDropShadow dx="0" dy="8" stdDeviation="8" flood-color="#536271" flood-opacity=".35"/>
    </filter>
  </defs>
  <rect width="512" height="768" rx="48" fill="url(#bgp389)"/>
  <rect x="24" y="24" width="464" height="720" rx="40" fill="#ffffff" opacity=".08"/>
  <g opacity=".42"><circle cx="262" cy="611" r="2.0" fill="#fff" opacity="0.27"/><circle cx="133" cy="569" r="2.7" fill="#fff" opacity="0.33"/><circle cx="20" cy="557" r="1.4" fill="#fff" opacity="0.35"/><circle cx="273" cy="471" r="1.5" fill="#fff" opacity="0.42"/><circle cx="201" cy="294" r="3.0" fill="#fff" opacity="0.55"/><circle cx="10" cy="285" r="2.7" fill="#fff" opacity="0.30"/><circle cx="44" cy="406" r="2.3" fill="#fff" opacity="0.36"/><circle cx="128" cy="61" r="2.8" fill="#fff" opacity="0.52"/><circle cx="114" cy="179" r="2.1" fill="#fff" opacity="0.40"/><circle cx="491" cy="567" r="3.0" fill="#fff" opacity="0.54"/><circle cx="170" cy="374" r="2.4" fill="#fff" opacity="0.53"/><circle cx="52" cy="370" r="0.9" fill="#fff" opacity="0.35"/><circle cx="473" cy="315" r="0.9" fill="#fff" opacity="0.64"/><circle cx="312" cy="649" r="1.4" fill="#fff" opacity="0.53"/><circle cx="11" cy="500" r="1.7" fill="#fff" opacity="0.38"/><circle cx="288" cy="371" r="2.6" fill="#fff" opacity="0.59"/><circle cx="468" cy="679" r="1.1" fill="#fff" opacity="0.57"/><circle cx="491" cy="268" r="2.4" fill="#fff" opacity="0.44"/><circle cx="502" cy="328" r="1.1" fill="#fff" opacity="0.53"/><circle cx="474" cy="132" r="2.8" fill="#fff" opacity="0.52"/><circle cx="243" cy="330" r="1.4" fill="#fff" opacity="0.66"/><circle cx="283" cy="570" r="2.7" fill="#fff" opacity="0.30"/><circle cx="28" cy="480" r="2.4" fill="#fff" opacity="0.27"/><circle cx="247" cy="5" r="1.6" fill="#fff" opacity="0.55"/><circle cx="410" cy="635" r="1.0" fill="#fff" opacity="0.56"/><circle cx="45" cy="260" r="2.3" fill="#fff" opacity="0.26"/><circle cx="37" cy="548" r="2.6" fill="#fff" opacity="0.36"/><circle cx="173" cy="360" r="1.2" fill="#fff" opacity="0.35"/></g>
  <path d="M24 680 L110 610 L186 666 L272 592 L356 674 L445 626 L512 704 V768 H0V704Z" fill="#536271" opacity=".18"/>
  <ellipse cx="256" cy="662" rx="150" ry="34" fill="#536271" opacity=".28"/>
  <g transform="translate(0 122)">
    <path d="M149.4 228.5 L219.1 156.75 H311.35 L376.95 242.85 L346.2 394.55 H163.75 Z" fill="url(#body)" filter="url(#softShadow)"/><path d="M198.60000000000002 179.3 L245.75 91.15 L280.6 171.10000000000002 Z" fill="#e8edf2"/><path d="M290.85 183.4 L344.15 113.70000000000002 L342.1 210.05 Z" fill="#9aa8b7"/><rect x="194.5" y="277.7" width="122.99999999999999" height="30.749999999999996" rx="14.349999999999998" fill="#536271" opacity=".38"/><circle cx="227.3" cy="292.05" r="10.25" fill="#e8edf2"/><circle cx="284.7" cy="292.05" r="10.25" fill="#e8edf2"/><path d="M256 183.4 L278.55 212.10000000000002 L256 242.85 L233.45 212.10000000000002 Z" fill="#e8edf2" opacity=".92"/>
  </g>
  <path d="M74 126 C170 65 334 65 438 126" stroke="#fff" stroke-width="16" stroke-linecap="round" opacity=".16"/>
  <path d="M63 676 C162 718 344 718 449 662" stroke="#fff" stroke-width="14" stroke-linecap="round" opacity=".16"/>
</svg>