<svg xmlns="http://www.w3.org/2000/svg" viewBox="0 0 512 768" role="img" aria-label="终焉时刻 original portrait">
  
  <defs>
    <linearGradient id="bgp390" x1="0" y1="0" x2="1" y2="1">
      <stop offset="0" stop-color="#d5c6ff"/>
      <stop offset=".55" stop-color="#7367b8"/>
      <stop offset="1" stop-color="#2d2357"/>
    </linearGradient>
    <radialGradient id="body" cx=".36" cy=".25" r=".76">
      <stop offset="0" stop-color="#d5c6ff"/>
      <stop offset=".6" stop-color="#7367b8"/>
      <stop offset="1" stop-color="#2d2357"/>
    </radialGradient>
    <radialGradient id="head" cx=".36" cy=".26" r=".72">
      <stop offset="0" stop-color="#ffffff" stop-opacity=".85"/>
      <stop offset=".2" stop-color="#d5c6ff"/>
      <stop offset=".72" stop-color="#7367b8"/>
      <stop offset="1" stop-color="#2d2357"/>
    </radialGradient>
    <filter id="softShadow" x="-30%" y="-30%" width="160%" height="160%">
      <feDropShadow dx="0" dy="8" stdDeviation="8" flood-color="#2d2357" flood-opacity=".35"/>
    </filter>
  </defs>
  <rect width="512" height="768" rx="48" fill="url(#bgp390)"/>
  <rect x="24" y="24" width="464" height="720" rx="40" fill="#ffffff" opacity=".08"/>
  <g opacity=".42"><circle cx="463" cy="395" r="1.9" fill="#fff" opacity="0.51"/><circle cx="232" cy="536" r="2.2" fill="#fff" opacity="0.59"/><circle cx="135" cy="702" r="2.4" fill="#fff" opacity="0.53"/><circle cx="45" cy="678" r="1.7" fill="#fff" opacity="0.30"/><circle cx="140" cy="174" r="1.7" fill="#fff" opacity="0.57"/><circle cx="160" cy="280" r="2.0" fill="#fff" opacity="0.55"/><circle cx="414" cy="328" r="2.4" fill="#fff" opacity="0.42"/><circle cx="242" cy="685" r="2.8" fill="#fff" opacity="0.33"/><circle cx="242" cy="418" r="2.7" fill="#fff" opacity="0.67"/><circle cx="423" cy="580" r="2.3" fill="#fff" opacity="0.40"/><circle cx="97" cy="711" r="0.9" fill="#fff" opacity="0.45"/><circle cx="399" cy="264" r="2.2" fill="#fff" opacity="0.45"/><circle cx="180" cy="511" r="2.8" fill="#fff" opacity="0.68"/><circle cx="379" cy="553" r="3.0" fill="#fff" opacity="0.55"/><circle cx="67" cy="234" r="1.9" fill="#fff" opacity="0.59"/><circle cx="477" cy="305" r="0.9" fill="#fff" opacity="0.45"/><circle cx="125" cy="11" r="1.6" fill="#fff" opacity="0.51"/><circle cx="486" cy="269" r="1.1" fill="#fff" opacity="0.29"/><circle cx="234" cy="605" r="1.7" fill="#fff" opacity="0.40"/><circle cx="55" cy="756" r="2.4" fill="#fff" opacity="0.26"/><circle cx="464" cy="252" r="2.7" fill="#fff" opacity="0.26"/><circle cx="385" cy="492" r="3.2" fill="#fff" opacity="0.39"/><circle cx="86" cy="483" r="2.8" fill="#fff" opacity="0.65"/><circle cx="294" cy="321" r="3.1" fill="#fff" opacity="0.43"/><circle cx="236" cy="520" r="2.9" fill="#fff" opacity="0.45"/><circle cx="464" cy="131" r="2.7" fill="#fff" opacity="0.47"/><circle cx="285" cy="307" r="3.1" fill="#fff" opacity="0.30"/><circle cx="498" cy="585" r="3.0" fill="#fff" opacity="0.58"/></g>
  <circle cx="256" cy="294" r="193" fill="#d5c6ff" opacity=".12"/><circle cx="256" cy="294" r="151" fill="#fff" opacity=".1"/>
  <ellipse cx="256" cy="662" rx="150" ry="34" fill="#2d2357" opacity=".28"/>
  <g transform="translate(0 122)">
    <ellipse cx="256" cy="339.2" rx="100.44999999999999" ry="112.74999999999999" fill="url(#body)" filter="url(#softShadow)"/><circle cx="256" cy="226.45" r="79.94999999999999" fill="url(#head)"/><ellipse cx="256" cy="214.15" rx="139.39999999999998" ry="36.9" fill="none" stroke="#d5c6ff" stroke-width="14.349999999999998" opacity=".75" transform="rotate(-12 256 214.15)"/><path d="M256 103.45000000000002 L276.5 154.70000000000002 L333.9 156.75 L286.75 187.5 L303.15 242.85 L256 208 L208.85 242.85 L225.25 187.5 L178.10000000000002 156.75 L235.5 154.70000000000002 Z" fill="#7367b8"/><ellipse cx="223.2" cy="253.1" rx="14.349999999999998" ry="16.4" fill="#14213d"/><ellipse cx="288.8" cy="253.1" rx="14.349999999999998" ry="16.4" fill="#14213d"/><circle cx="229.35" cy="244.9" r="4.714999999999999" fill="#fff"/><circle cx="294.95" cy="244.9" r="4.714999999999999" fill="#fff"/><path d="M256 183.4 L278.55 212.10000000000002 L256 242.85 L233.45 212.10000000000002 Z" fill="#d5c6ff" opacity=".92"/>
  </g>
  <path d="M74 126 C170 65 334 65 438 126" stroke="#fff" stroke-width="16" stroke-linecap="round" opacity=".16"/>
  <path d="M63 676 C162 718 344 718 449 662" stroke="#fff" stroke-width="14" stroke-linecap="round" opacity=".16"/>
</svg>