<svg xmlns="http://www.w3.org/2000/svg" viewBox="0 0 512 768" role="img" aria-label="沙丘虫 original portrait">
  
  <defs>
    <linearGradient id="bgp391" x1="0" y1="0" x2="1" y2="1">
      <stop offset="0" stop-color="#d9f67f"/>
      <stop offset=".55" stop-color="#86bd2d"/>
      <stop offset="1" stop-color="#3f6c1b"/>
    </linearGradient>
    <radialGradient id="body" cx=".36" cy=".25" r=".76">
      <stop offset="0" stop-color="#d9f67f"/>
      <stop offset=".6" stop-color="#86bd2d"/>
      <stop offset="1" stop-color="#3f6c1b"/>
    </radialGradient>
    <radialGradient id="head" cx=".36" cy=".26" r=".72">
      <stop offset="0" stop-color="#ffffff" stop-opacity=".85"/>
      <stop offset=".2" stop-color="#d9f67f"/>
      <stop offset=".72" stop-color="#86bd2d"/>
      <stop offset="1" stop-color="#3f6c1b"/>
    </radialGradient>
    <filter id="softShadow" x="-30%" y="-30%" width="160%" height="160%">
      <feDropShadow dx="0" dy="8" stdDeviation="8" flood-color="#3f6c1b" flood-opacity=".35"/>
    </filter>
  </defs>
  <rect width="512" height="768" rx="48" fill="url(#bgp391)"/>
  <rect x="24" y="24" width="464" height="720" rx="40" fill="#ffffff" opacity=".08"/>
  <g opacity=".42"><circle cx="245" cy="610" r="2.2" fill="#fff" opacity="0.56"/><circle cx="314" cy="708" r="1.3" fill="#fff" opacity="0.43"/><circle cx="261" cy="742" r="1.5" fill="#fff" opacity="0.58"/><circle cx="414" cy="174" r="2.5" fill="#fff" opacity="0.29"/><circle cx="420" cy="723" r="2.8" fill="#fff" opacity="0.56"/><circle cx="289" cy="369" r="1.9" fill="#fff" opacity="0.69"/><circle cx="172" cy="419" r="3.2" fill="#fff" opacity="0.38"/><circle cx="484" cy="388" r="2.5" fill="#fff" opacity="0.64"/><circle cx="158" cy="87" r="1.7" fill="#fff" opacity="0.39"/><circle cx="203" cy="639" r="3.0" fill="#fff" opacity="0.70"/><circle cx="315" cy="393" r="1.4" fill="#fff" opacity="0.26"/><circle cx="343" cy="304" r="1.1" fill="#fff" opacity="0.46"/><circle cx="25" cy="307" r="1.7" fill="#fff" opacity="0.52"/><circle cx="266" cy="36" r="1.6" fill="#fff" opacity="0.29"/><circle cx="454" cy="521" r="1.0" fill="#fff" opacity="0.40"/><circle cx="434" cy="585" r="1.7" fill="#fff" opacity="0.47"/><circle cx="232" cy="341" r="2.0" fill="#fff" opacity="0.40"/><circle cx="142" cy="371" r="2.3" fill="#fff" opacity="0.36"/><circle cx="176" cy="251" r="2.2" fill="#fff" opacity="0.39"/><circle cx="248" cy="224" r="1.5" fill="#fff" opacity="0.70"/><circle cx="417" cy="121" r="3.0" fill="#fff" opacity="0.68"/><circle cx="64" cy="477" r="2.9" fill="#fff" opacity="0.63"/><circle cx="165" cy="598" r="2.3" fill="#fff" opacity="0.45"/><circle cx="380" cy="242" r="1.4" fill="#fff" opacity="0.43"/><circle cx="184" cy="529" r="2.1" fill="#fff" opacity="0.32"/><circle cx="455" cy="409" r="0.9" fill="#fff" opacity="0.32"/><circle cx="318" cy="364" r="3.0" fill="#fff" opacity="0.31"/><circle cx="411" cy="341" r="2.5" fill="#fff" opacity="0.62"/></g>
  <path d="M69 625 C150 571 359 568 443 628" fill="#86bd2d" opacity=".14"/>
  <ellipse cx="256" cy="662" rx="150" ry="34" fill="#3f6c1b" opacity=".28"/>
  <g transform="translate(0 122)">
    <ellipse cx="178.10000000000002" cy="257.2" rx="69.69999999999999" ry="100.44999999999999" fill="#d9f67f" opacity=".55"/><ellipse cx="333.9" cy="257.2" rx="69.69999999999999" ry="100.44999999999999" fill="#d9f67f" opacity=".55"/><ellipse cx="256" cy="331" rx="65.6" ry="122.99999999999999" fill="url(#body)" filter="url(#softShadow)"/><circle cx="256" cy="214.15" r="69.69999999999999" fill="url(#head)"/><path d="M219.1 160.85000000000002 Q174 93.20000000000002 118.65 117.80000000000001" stroke="#3f6c1b" stroke-width="10.25" fill="none" stroke-linecap="round"/><path d="M292.9 160.85000000000002 Q338 93.20000000000002 393.35 117.80000000000001" stroke="#3f6c1b" stroke-width="10.25" fill="none" stroke-linecap="round"/><path d="M198.60000000000002 322.8 H313.4 M206.8 376.1 H305.2" stroke="#3f6c1b" stroke-width="8.2" opacity=".35"/><ellipse cx="223.2" cy="253.1" rx="14.349999999999998" ry="16.4" fill="#14213d"/><ellipse cx="288.8" cy="253.1" rx="14.349999999999998" ry="16.4" fill="#14213d"/><circle cx="229.35" cy="244.9" r="4.714999999999999" fill="#fff"/><circle cx="294.95" cy="244.9" r="4.714999999999999" fill="#fff"/><circle cx="256" cy="210.05" r="14.349999999999998" fill="#d9f67f" opacity=".9"/>
  </g>
  <path d="M74 126 C170 65 334 65 438 126" stroke="#fff" stroke-width="16" stroke-linecap="round" opacity=".16"/>
  <path d="M63 676 C162 718 344 718 449 662" stroke="#fff" stroke-width="14" stroke-linecap="round" opacity=".16"/>
</svg>