<svg xmlns="http://www.w3.org/2000/svg" viewBox="0 0 512 768" role="img" aria-label="岩壳蛹 original portrait">
  
  <defs>
    <linearGradient id="bgp392" x1="0" y1="0" x2="1" y2="1">
      <stop offset="0" stop-color="#ddd0b2"/>
      <stop offset=".55" stop-color="#8d7a5f"/>
      <stop offset="1" stop-color="#514438"/>
    </linearGradient>
    <radialGradient id="body" cx=".36" cy=".25" r=".76">
      <stop offset="0" stop-color="#ddd0b2"/>
      <stop offset=".6" stop-color="#8d7a5f"/>
      <stop offset="1" stop-color="#514438"/>
    </radialGradient>
    <radialGradient id="head" cx=".36" cy=".26" r=".72">
      <stop offset="0" stop-color="#ffffff" stop-opacity=".85"/>
      <stop offset=".2" stop-color="#ddd0b2"/>
      <stop offset=".72" stop-color="#8d7a5f"/>
      <stop offset="1" stop-color="#514438"/>
    </radialGradient>
    <filter id="softShadow" x="-30%" y="-30%" width="160%" height="160%">
      <feDropShadow dx="0" dy="8" stdDeviation="8" flood-color="#514438" flood-opacity=".35"/>
    </filter>
  </defs>
  <rect width="512" height="768" rx="48" fill="url(#bgp392)"/>
  <rect x="24" y="24" width="464" height="720" rx="40" fill="#ffffff" opacity=".08"/>
  <g opacity=".42"><circle cx="406" cy="615" r="2.3" fill="#fff" opacity="0.26"/><circle cx="235" cy="486" r="1.0" fill="#fff" opacity="0.53"/><circle cx="174" cy="470" r="2.3" fill="#fff" opacity="0.61"/><circle cx="507" cy="663" r="1.9" fill="#fff" opacity="0.39"/><circle cx="122" cy="132" r="0.9" fill="#fff" opacity="0.62"/><circle cx="253" cy="73" r="1.4" fill="#fff" opacity="0.46"/><circle cx="429" cy="165" r="2.7" fill="#fff" opacity="0.38"/><circle cx="227" cy="444" r="2.5" fill="#fff" opacity="0.54"/><circle cx="243" cy="266" r="2.0" fill="#fff" opacity="0.69"/><circle cx="163" cy="111" r="1.8" fill="#fff" opacity="0.66"/><circle cx="251" cy="735" r="2.1" fill="#fff" opacity="0.49"/><circle cx="489" cy="85" r="2.7" fill="#fff" opacity="0.59"/><circle cx="16" cy="66" r="2.8" fill="#fff" opacity="0.56"/><circle cx="260" cy="370" r="1.6" fill="#fff" opacity="0.30"/><circle cx="218" cy="595" r="1.6" fill="#fff" opacity="0.47"/><circle cx="473" cy="96" r="1.9" fill="#fff" opacity="0.55"/><circle cx="198" cy="627" r="1.6" fill="#fff" opacity="0.31"/><circle cx="153" cy="115" r="2.0" fill="#fff" opacity="0.55"/><circle cx="207" cy="495" r="1.4" fill="#fff" opacity="0.51"/><circle cx="211" cy="87" r="1.9" fill="#fff" opacity="0.32"/><circle cx="367" cy="324" r="2.9" fill="#fff" opacity="0.54"/><circle cx="248" cy="608" r="2.5" fill="#fff" opacity="0.27"/><circle cx="401" cy="203" r="0.9" fill="#fff" opacity="0.58"/><circle cx="218" cy="727" r="3.2" fill="#fff" opacity="0.63"/><circle cx="202" cy="362" r="3.2" fill="#fff" opacity="0.63"/><circle cx="263" cy="600" r="1.0" fill="#fff" opacity="0.67"/><circle cx="311" cy="192" r="2.9" fill="#fff" opacity="0.31"/><circle cx="463" cy="446" r="1.2" fill="#fff" opacity="0.31"/></g>
  <path d="M69 625 C150 571 359 568 443 628" fill="#8d7a5f" opacity=".14"/>
  <ellipse cx="256" cy="662" rx="150" ry="34" fill="#514438" opacity=".28"/>
  <g transform="translate(0 122)">
    <ellipse cx="178.10000000000002" cy="257.2" rx="69.69999999999999" ry="100.44999999999999" fill="#ddd0b2" opacity=".55"/><ellipse cx="333.9" cy="257.2" rx="69.69999999999999" ry="100.44999999999999" fill="#ddd0b2" opacity=".55"/><ellipse cx="256" cy="331" rx="65.6" ry="122.99999999999999" fill="url(#body)" filter="url(#softShadow)"/><circle cx="256" cy="214.15" r="69.69999999999999" fill="url(#head)"/><path d="M219.1 160.85000000000002 Q174 93.20000000000002 118.65 117.80000000000001" stroke="#514438" stroke-width="10.25" fill="none" stroke-linecap="round"/><path d="M292.9 160.85000000000002 Q338 93.20000000000002 393.35 117.80000000000001" stroke="#514438" stroke-width="10.25" fill="none" stroke-linecap="round"/><path d="M198.60000000000002 322.8 H313.4 M206.8 376.1 H305.2" stroke="#514438" stroke-width="8.2" opacity=".35"/><ellipse cx="223.2" cy="253.1" rx="14.349999999999998" ry="16.4" fill="#14213d"/><ellipse cx="288.8" cy="253.1" rx="14.349999999999998" ry="16.4" fill="#14213d"/><circle cx="229.35" cy="244.9" r="4.714999999999999" fill="#fff"/><circle cx="294.95" cy="244.9" r="4.714999999999999" fill="#fff"/><path d="M215 201.85000000000002 Q256 224.4 297 201.85000000000002" stroke="#ddd0b2" stroke-width="10.25" fill="none" stroke-linecap="round" opacity=".8"/>
  </g>
  <path d="M74 126 C170 65 334 65 438 126" stroke="#fff" stroke-width="16" stroke-linecap="round" opacity=".16"/>
  <path d="M63 676 C162 718 344 718 449 662" stroke="#fff" stroke-width="14" stroke-linecap="round" opacity=".16"/>
</svg>