<svg xmlns="http://www.w3.org/2000/svg" viewBox="0 0 512 768" role="img" aria-label="极光海妖 original portrait">
  
  <defs>
    <linearGradient id="bgp395" x1="0" y1="0" x2="1" y2="1">
      <stop offset="0" stop-color="#d7fbff"/>
      <stop offset=".55" stop-color="#71d6e8"/>
      <stop offset="1" stop-color="#318aa3"/>
    </linearGradient>
    <radialGradient id="body" cx=".36" cy=".25" r=".76">
      <stop offset="0" stop-color="#d7fbff"/>
      <stop offset=".6" stop-color="#71d6e8"/>
      <stop offset="1" stop-color="#318aa3"/>
    </radialGradient>
    <radialGradient id="head" cx=".36" cy=".26" r=".72">
      <stop offset="0" stop-color="#ffffff" stop-opacity=".85"/>
      <stop offset=".2" stop-color="#d7fbff"/>
      <stop offset=".72" stop-color="#71d6e8"/>
      <stop offset="1" stop-color="#318aa3"/>
    </radialGradient>
    <filter id="softShadow" x="-30%" y="-30%" width="160%" height="160%">
      <feDropShadow dx="0" dy="8" stdDeviation="8" flood-color="#318aa3" flood-opacity=".35"/>
    </filter>
  </defs>
  <rect width="512" height="768" rx="48" fill="url(#bgp395)"/>
  <rect x="24" y="24" width="464" height="720" rx="40" fill="#ffffff" opacity=".08"/>
  <g opacity=".42"><circle cx="458" cy="327" r="1.6" fill="#fff" opacity="0.49"/><circle cx="140" cy="266" r="2.6" fill="#fff" opacity="0.39"/><circle cx="102" cy="226" r="1.1" fill="#fff" opacity="0.49"/><circle cx="491" cy="295" r="2.8" fill="#fff" opacity="0.41"/><circle cx="40" cy="98" r="1.5" fill="#fff" opacity="0.64"/><circle cx="348" cy="374" r="2.1" fill="#fff" opacity="0.32"/><circle cx="429" cy="636" r="2.4" fill="#fff" opacity="0.62"/><circle cx="76" cy="239" r="1.4" fill="#fff" opacity="0.54"/><circle cx="457" cy="756" r="2.9" fill="#fff" opacity="0.50"/><circle cx="385" cy="726" r="1.0" fill="#fff" opacity="0.58"/><circle cx="27" cy="649" r="2.7" fill="#fff" opacity="0.46"/><circle cx="5" cy="691" r="0.9" fill="#fff" opacity="0.65"/><circle cx="343" cy="475" r="1.3" fill="#fff" opacity="0.36"/><circle cx="57" cy="680" r="1.6" fill="#fff" opacity="0.40"/><circle cx="374" cy="19" r="3.0" fill="#fff" opacity="0.63"/><circle cx="100" cy="406" r="2.7" fill="#fff" opacity="0.58"/><circle cx="211" cy="6" r="3.1" fill="#fff" opacity="0.59"/><circle cx="159" cy="617" r="3.0" fill="#fff" opacity="0.41"/><circle cx="417" cy="507" r="1.5" fill="#fff" opacity="0.64"/><circle cx="462" cy="395" r="2.3" fill="#fff" opacity="0.59"/><circle cx="105" cy="725" r="3.0" fill="#fff" opacity="0.39"/><circle cx="376" cy="101" r="0.8" fill="#fff" opacity="0.29"/><circle cx="337" cy="280" r="1.4" fill="#fff" opacity="0.33"/><circle cx="118" cy="580" r="1.6" fill="#fff" opacity="0.34"/><circle cx="444" cy="444" r="1.1" fill="#fff" opacity="0.42"/><circle cx="266" cy="87" r="1.1" fill="#fff" opacity="0.62"/><circle cx="348" cy="116" r="2.0" fill="#fff" opacity="0.25"/><circle cx="330" cy="162" r="2.2" fill="#fff" opacity="0.35"/></g>
  <path d="M0 585 C86 541 164 618 248 574 C338 526 407 595 512 548 V768 H0Z" fill="#71d6e8" opacity=".2"/><path d="M0 650 C105 610 180 690 282 638 C370 594 426 650 512 618 V768 H0Z" fill="#d7fbff" opacity=".18"/>
  <ellipse cx="256" cy="662" rx="150" ry="34" fill="#318aa3" opacity=".28"/>
  <g transform="translate(0 122)">
    <path d="M110.45000000000002 326.9 L40.75000000000003 240.8 L44.85000000000002 413 Z" fill="#71d6e8" opacity=".86"/><ellipse cx="247.8" cy="322.8" rx="139.39999999999998" ry="88.14999999999999" fill="url(#body)" filter="url(#softShadow)"/><path d="M243.7 242.85 C288.8 136.25 358.5 173.15 342.1 263.35" fill="#71d6e8" opacity=".72"/><path d="M301.1 384.3 C338 458.1 411.79999999999995 413 362.6 359.7" fill="#d7fbff" opacity=".8"/><circle cx="329.8" cy="292.05" r="14.349999999999998" fill="#101828"/><circle cx="335.95" cy="285.9" r="4.714999999999999" fill="#fff"/><path d="M215 201.85000000000002 Q256 224.4 297 201.85000000000002" stroke="#d7fbff" stroke-width="10.25" fill="none" stroke-linecap="round" opacity=".8"/>
  </g>
  <path d="M74 126 C170 65 334 65 438 126" stroke="#fff" stroke-width="16" stroke-linecap="round" opacity=".16"/>
  <path d="M63 676 C162 718 344 718 449 662" stroke="#fff" stroke-width="14" stroke-linecap="round" opacity=".16"/>
</svg>