<svg xmlns="http://www.w3.org/2000/svg" viewBox="0 0 512 768" role="img" aria-label="枯萎草 original portrait">
  
  <defs>
    <linearGradient id="bgp396" x1="0" y1="0" x2="1" y2="1">
      <stop offset="0" stop-color="#c7f7a4"/>
      <stop offset=".55" stop-color="#43b957"/>
      <stop offset="1" stop-color="#1f6f43"/>
    </linearGradient>
    <radialGradient id="body" cx=".36" cy=".25" r=".76">
      <stop offset="0" stop-color="#c7f7a4"/>
      <stop offset=".6" stop-color="#43b957"/>
      <stop offset="1" stop-color="#1f6f43"/>
    </radialGradient>
    <radialGradient id="head" cx=".36" cy=".26" r=".72">
      <stop offset="0" stop-color="#ffffff" stop-opacity=".85"/>
      <stop offset=".2" stop-color="#c7f7a4"/>
      <stop offset=".72" stop-color="#43b957"/>
      <stop offset="1" stop-color="#1f6f43"/>
    </radialGradient>
    <filter id="softShadow" x="-30%" y="-30%" width="160%" height="160%">
      <feDropShadow dx="0" dy="8" stdDeviation="8" flood-color="#1f6f43" flood-opacity=".35"/>
    </filter>
  </defs>
  <rect width="512" height="768" rx="48" fill="url(#bgp396)"/>
  <rect x="24" y="24" width="464" height="720" rx="40" fill="#ffffff" opacity=".08"/>
  <g opacity=".42"><circle cx="375" cy="551" r="1.5" fill="#fff" opacity="0.44"/><circle cx="278" cy="101" r="1.5" fill="#fff" opacity="0.55"/><circle cx="452" cy="235" r="1.6" fill="#fff" opacity="0.62"/><circle cx="376" cy="288" r="0.9" fill="#fff" opacity="0.48"/><circle cx="451" cy="398" r="3.2" fill="#fff" opacity="0.42"/><circle cx="417" cy="305" r="2.5" fill="#fff" opacity="0.50"/><circle cx="166" cy="701" r="2.3" fill="#fff" opacity="0.31"/><circle cx="17" cy="583" r="2.6" fill="#fff" opacity="0.63"/><circle cx="218" cy="162" r="2.9" fill="#fff" opacity="0.25"/><circle cx="211" cy="539" r="1.6" fill="#fff" opacity="0.47"/><circle cx="186" cy="515" r="1.7" fill="#fff" opacity="0.57"/><circle cx="70" cy="444" r="2.3" fill="#fff" opacity="0.45"/><circle cx="179" cy="327" r="0.9" fill="#fff" opacity="0.30"/><circle cx="435" cy="76" r="2.8" fill="#fff" opacity="0.53"/><circle cx="64" cy="118" r="1.8" fill="#fff" opacity="0.66"/><circle cx="394" cy="3" r="2.0" fill="#fff" opacity="0.47"/><circle cx="342" cy="304" r="1.0" fill="#fff" opacity="0.52"/><circle cx="500" cy="56" r="1.9" fill="#fff" opacity="0.66"/><circle cx="109" cy="57" r="1.8" fill="#fff" opacity="0.30"/><circle cx="163" cy="633" r="1.5" fill="#fff" opacity="0.36"/><circle cx="274" cy="183" r="2.6" fill="#fff" opacity="0.28"/><circle cx="82" cy="577" r="1.0" fill="#fff" opacity="0.64"/><circle cx="107" cy="379" r="1.2" fill="#fff" opacity="0.33"/><circle cx="266" cy="24" r="1.6" fill="#fff" opacity="0.53"/><circle cx="172" cy="453" r="2.6" fill="#fff" opacity="0.66"/><circle cx="236" cy="106" r="2.4" fill="#fff" opacity="0.53"/><circle cx="3" cy="300" r="2.7" fill="#fff" opacity="0.65"/><circle cx="414" cy="458" r="1.9" fill="#fff" opacity="0.52"/></g>
  <path d="M18 704 C124 595 205 659 256 580 C314 666 392 596 494 704 V768 H18Z" fill="#1f6f43" opacity=".18"/>
  <ellipse cx="256" cy="662" rx="150" ry="34" fill="#1f6f43" opacity=".28"/>
  <g transform="translate(0 122)">
    <path d="M231.4 400.7 C128.9 376.1 83.80000000000001 265.4 198.60000000000002 275.65" fill="#43b957" opacity=".82"/><path d="M280.6 400.7 C383.1 376.1 428.2 265.4 313.4 275.65" fill="#43b957" opacity=".82"/><ellipse cx="256" cy="339.2" rx="98.39999999999999" ry="116.85" fill="url(#body)" filter="url(#softShadow)"/><path d="M256 138.3 C169.9 175.20000000000002 161.7 259.25 256 251.05 C350.3 259.25 342.1 175.20000000000002 256 138.3Z" fill="#c7f7a4"/><circle cx="256" cy="253.1" r="77.89999999999999" fill="url(#head)"/><ellipse cx="223.2" cy="253.1" rx="14.349999999999998" ry="16.4" fill="#14213d"/><ellipse cx="288.8" cy="253.1" rx="14.349999999999998" ry="16.4" fill="#14213d"/><circle cx="229.35" cy="244.9" r="4.714999999999999" fill="#fff"/><circle cx="294.95" cy="244.9" r="4.714999999999999" fill="#fff"/><path d="M256 183.4 L278.55 212.10000000000002 L256 242.85 L233.45 212.10000000000002 Z" fill="#c7f7a4" opacity=".92"/>
  </g>
  <path d="M74 126 C170 65 334 65 438 126" stroke="#fff" stroke-width="16" stroke-linecap="round" opacity=".16"/>
  <path d="M63 676 C162 718 344 718 449 662" stroke="#fff" stroke-width="14" stroke-linecap="round" opacity=".16"/>
</svg>