<svg xmlns="http://www.w3.org/2000/svg" viewBox="0 0 512 768" role="img" aria-label="黏人猫 original portrait">
  
  <defs>
    <linearGradient id="bgp399" x1="0" y1="0" x2="1" y2="1">
      <stop offset="0" stop-color="#f4e8d8"/>
      <stop offset=".55" stop-color="#b78f68"/>
      <stop offset="1" stop-color="#6d4f3f"/>
    </linearGradient>
    <radialGradient id="body" cx=".36" cy=".25" r=".76">
      <stop offset="0" stop-color="#f4e8d8"/>
      <stop offset=".6" stop-color="#b78f68"/>
      <stop offset="1" stop-color="#6d4f3f"/>
    </radialGradient>
    <radialGradient id="head" cx=".36" cy=".26" r=".72">
      <stop offset="0" stop-color="#ffffff" stop-opacity=".85"/>
      <stop offset=".2" stop-color="#f4e8d8"/>
      <stop offset=".72" stop-color="#b78f68"/>
      <stop offset="1" stop-color="#6d4f3f"/>
    </radialGradient>
    <filter id="softShadow" x="-30%" y="-30%" width="160%" height="160%">
      <feDropShadow dx="0" dy="8" stdDeviation="8" flood-color="#6d4f3f" flood-opacity=".35"/>
    </filter>
  </defs>
  <rect width="512" height="768" rx="48" fill="url(#bgp399)"/>
  <rect x="24" y="24" width="464" height="720" rx="40" fill="#ffffff" opacity=".08"/>
  <g opacity=".42"><circle cx="195" cy="628" r="1.9" fill="#fff" opacity="0.36"/><circle cx="83" cy="132" r="2.2" fill="#fff" opacity="0.63"/><circle cx="409" cy="192" r="1.2" fill="#fff" opacity="0.64"/><circle cx="318" cy="502" r="1.3" fill="#fff" opacity="0.36"/><circle cx="371" cy="106" r="1.6" fill="#fff" opacity="0.31"/><circle cx="439" cy="549" r="1.4" fill="#fff" opacity="0.50"/><circle cx="37" cy="40" r="1.1" fill="#fff" opacity="0.65"/><circle cx="189" cy="385" r="1.3" fill="#fff" opacity="0.57"/><circle cx="17" cy="320" r="1.0" fill="#fff" opacity="0.69"/><circle cx="168" cy="137" r="1.4" fill="#fff" opacity="0.34"/><circle cx="294" cy="610" r="0.8" fill="#fff" opacity="0.53"/><circle cx="336" cy="291" r="1.0" fill="#fff" opacity="0.27"/><circle cx="2" cy="455" r="1.6" fill="#fff" opacity="0.60"/><circle cx="206" cy="290" r="1.3" fill="#fff" opacity="0.58"/><circle cx="311" cy="517" r="2.8" fill="#fff" opacity="0.46"/><circle cx="470" cy="543" r="2.8" fill="#fff" opacity="0.56"/><circle cx="222" cy="148" r="2.0" fill="#fff" opacity="0.61"/><circle cx="90" cy="308" r="2.7" fill="#fff" opacity="0.29"/><circle cx="122" cy="584" r="1.9" fill="#fff" opacity="0.65"/><circle cx="221" cy="408" r="1.7" fill="#fff" opacity="0.57"/><circle cx="311" cy="22" r="1.0" fill="#fff" opacity="0.53"/><circle cx="42" cy="616" r="1.5" fill="#fff" opacity="0.57"/><circle cx="123" cy="263" r="1.7" fill="#fff" opacity="0.42"/><circle cx="220" cy="0" r="3.2" fill="#fff" opacity="0.59"/><circle cx="51" cy="500" r="1.7" fill="#fff" opacity="0.57"/><circle cx="197" cy="634" r="1.5" fill="#fff" opacity="0.47"/><circle cx="382" cy="473" r="1.2" fill="#fff" opacity="0.28"/><circle cx="146" cy="489" r="0.9" fill="#fff" opacity="0.63"/></g>
  <path d="M0 670 C96 613 167 665 256 620 C337 660 421 608 512 662 V768 H0Z" fill="#6d4f3f" opacity=".15"/>
  <ellipse cx="256" cy="662" rx="150" ry="34" fill="#6d4f3f" opacity=".28"/>
  <g transform="translate(0 122)">
    <path d="M159.65 347.4 C69.45000000000002 322.8 92 222.35000000000002 165.8 263.35" stroke="#b78f68" stroke-width="28.699999999999996" fill="none" stroke-linecap="round" opacity=".76"/><ellipse cx="256" cy="353.55" rx="108.64999999999999" ry="102.49999999999999" fill="url(#body)" filter="url(#softShadow)"/><path d="M184.25 212.10000000000002 L137.10000000000002 115.75000000000003 L231.4 175.20000000000002 Z" fill="#b78f68"/><path d="M327.75 212.10000000000002 L374.9 115.75000000000003 L280.6 175.20000000000002 Z" fill="#b78f68"/><circle cx="256" cy="234.65" r="92.24999999999999" fill="url(#head)"/><ellipse cx="221.15" cy="251.05" rx="16.4" ry="20.5" fill="#182033"/><ellipse cx="290.85" cy="251.05" rx="16.4" ry="20.5" fill="#182033"/><ellipse cx="223.2" cy="253.1" rx="14.349999999999998" ry="16.4" fill="#14213d"/><ellipse cx="288.8" cy="253.1" rx="14.349999999999998" ry="16.4" fill="#14213d"/><circle cx="229.35" cy="244.9" r="4.714999999999999" fill="#fff"/><circle cx="294.95" cy="244.9" r="4.714999999999999" fill="#fff"/><path d="M215 201.85000000000002 Q256 224.4 297 201.85000000000002" stroke="#f4e8d8" stroke-width="10.25" fill="none" stroke-linecap="round" opacity=".8"/>
  </g>
  <path d="M74 126 C170 65 334 65 438 126" stroke="#fff" stroke-width="16" stroke-linecap="round" opacity=".16"/>
  <path d="M63 676 C162 718 344 718 449 662" stroke="#fff" stroke-width="14" stroke-linecap="round" opacity=".16"/>
</svg>