<svg xmlns="http://www.w3.org/2000/svg" viewBox="0 0 512 768" role="img" aria-label="护主犬 original portrait">
  
  <defs>
    <linearGradient id="bgp401" x1="0" y1="0" x2="1" y2="1">
      <stop offset="0" stop-color="#f4e8d8"/>
      <stop offset=".55" stop-color="#b78f68"/>
      <stop offset="1" stop-color="#6d4f3f"/>
    </linearGradient>
    <radialGradient id="body" cx=".36" cy=".25" r=".76">
      <stop offset="0" stop-color="#f4e8d8"/>
      <stop offset=".6" stop-color="#b78f68"/>
      <stop offset="1" stop-color="#6d4f3f"/>
    </radialGradient>
    <radialGradient id="head" cx=".36" cy=".26" r=".72">
      <stop offset="0" stop-color="#ffffff" stop-opacity=".85"/>
      <stop offset=".2" stop-color="#f4e8d8"/>
      <stop offset=".72" stop-color="#b78f68"/>
      <stop offset="1" stop-color="#6d4f3f"/>
    </radialGradient>
    <filter id="softShadow" x="-30%" y="-30%" width="160%" height="160%">
      <feDropShadow dx="0" dy="8" stdDeviation="8" flood-color="#6d4f3f" flood-opacity=".35"/>
    </filter>
  </defs>
  <rect width="512" height="768" rx="48" fill="url(#bgp401)"/>
  <rect x="24" y="24" width="464" height="720" rx="40" fill="#ffffff" opacity=".08"/>
  <g opacity=".42"><circle cx="296" cy="301" r="1.6" fill="#fff" opacity="0.31"/><circle cx="473" cy="663" r="1.0" fill="#fff" opacity="0.53"/><circle cx="388" cy="404" r="2.6" fill="#fff" opacity="0.34"/><circle cx="223" cy="702" r="2.4" fill="#fff" opacity="0.68"/><circle cx="268" cy="720" r="1.2" fill="#fff" opacity="0.56"/><circle cx="164" cy="253" r="2.7" fill="#fff" opacity="0.65"/><circle cx="473" cy="468" r="2.0" fill="#fff" opacity="0.34"/><circle cx="356" cy="492" r="1.1" fill="#fff" opacity="0.43"/><circle cx="435" cy="319" r="3.1" fill="#fff" opacity="0.26"/><circle cx="20" cy="178" r="2.6" fill="#fff" opacity="0.45"/><circle cx="460" cy="29" r="1.5" fill="#fff" opacity="0.58"/><circle cx="350" cy="510" r="1.4" fill="#fff" opacity="0.50"/><circle cx="265" cy="597" r="2.7" fill="#fff" opacity="0.30"/><circle cx="381" cy="697" r="2.8" fill="#fff" opacity="0.47"/><circle cx="290" cy="484" r="2.4" fill="#fff" opacity="0.42"/><circle cx="410" cy="599" r="1.0" fill="#fff" opacity="0.42"/><circle cx="427" cy="732" r="0.8" fill="#fff" opacity="0.64"/><circle cx="451" cy="757" r="2.9" fill="#fff" opacity="0.37"/><circle cx="281" cy="400" r="1.9" fill="#fff" opacity="0.41"/><circle cx="458" cy="377" r="2.8" fill="#fff" opacity="0.30"/><circle cx="94" cy="70" r="1.6" fill="#fff" opacity="0.68"/><circle cx="131" cy="488" r="1.8" fill="#fff" opacity="0.41"/><circle cx="57" cy="14" r="1.7" fill="#fff" opacity="0.39"/><circle cx="126" cy="112" r="3.0" fill="#fff" opacity="0.29"/><circle cx="480" cy="630" r="2.1" fill="#fff" opacity="0.57"/><circle cx="264" cy="57" r="0.9" fill="#fff" opacity="0.31"/><circle cx="411" cy="246" r="1.1" fill="#fff" opacity="0.55"/><circle cx="383" cy="357" r="1.0" fill="#fff" opacity="0.41"/></g>
  <path d="M38 684 C128 596 386 596 475 684 V768 H38Z" fill="#6d4f3f" opacity=".17"/>
  <ellipse cx="256" cy="662" rx="150" ry="34" fill="#6d4f3f" opacity=".28"/>
  <g transform="translate(0 122)">
    <ellipse cx="256" cy="359.7" rx="110.69999999999999" ry="100.44999999999999" fill="url(#body)" filter="url(#softShadow)"/><circle cx="256" cy="232.60000000000002" r="86.1" fill="url(#head)"/><path d="M149.4 322.8 C51.00000000000003 304.35 85.85000000000002 423.25 165.8 402.75" fill="#6d4f3f"/><path d="M362.6 322.8 C461 304.35 426.15 423.25 346.2 402.75" fill="#6d4f3f"/><path d="M200.65 148.55 H311.35 L331.85 195.7 Q256 224.4 180.15 195.7 Z" fill="#f4e8d8" opacity=".85"/><ellipse cx="223.2" cy="253.1" rx="14.349999999999998" ry="16.4" fill="#14213d"/><ellipse cx="288.8" cy="253.1" rx="14.349999999999998" ry="16.4" fill="#14213d"/><circle cx="229.35" cy="244.9" r="4.714999999999999" fill="#fff"/><circle cx="294.95" cy="244.9" r="4.714999999999999" fill="#fff"/><path d="M215 201.85000000000002 Q256 224.4 297 201.85000000000002" stroke="#f4e8d8" stroke-width="10.25" fill="none" stroke-linecap="round" opacity=".8"/>
  </g>
  <path d="M74 126 C170 65 334 65 438 126" stroke="#fff" stroke-width="16" stroke-linecap="round" opacity=".16"/>
  <path d="M63 676 C162 718 344 718 449 662" stroke="#fff" stroke-width="14" stroke-linecap="round" opacity=".16"/>
</svg>