<svg xmlns="http://www.w3.org/2000/svg" viewBox="0 0 512 768" role="img" aria-label="圣盾骑士 original portrait">
  
  <defs>
    <linearGradient id="bgp402" x1="0" y1="0" x2="1" y2="1">
      <stop offset="0" stop-color="#e8edf2"/>
      <stop offset=".55" stop-color="#9aa8b7"/>
      <stop offset="1" stop-color="#536271"/>
    </linearGradient>
    <radialGradient id="body" cx=".36" cy=".25" r=".76">
      <stop offset="0" stop-color="#e8edf2"/>
      <stop offset=".6" stop-color="#9aa8b7"/>
      <stop offset="1" stop-color="#536271"/>
    </radialGradient>
    <radialGradient id="head" cx=".36" cy=".26" r=".72">
      <stop offset="0" stop-color="#ffffff" stop-opacity=".85"/>
      <stop offset=".2" stop-color="#e8edf2"/>
      <stop offset=".72" stop-color="#9aa8b7"/>
      <stop offset="1" stop-color="#536271"/>
    </radialGradient>
    <filter id="softShadow" x="-30%" y="-30%" width="160%" height="160%">
      <feDropShadow dx="0" dy="8" stdDeviation="8" flood-color="#536271" flood-opacity=".35"/>
    </filter>
  </defs>
  <rect width="512" height="768" rx="48" fill="url(#bgp402)"/>
  <rect x="24" y="24" width="464" height="720" rx="40" fill="#ffffff" opacity=".08"/>
  <g opacity=".42"><circle cx="176" cy="455" r="2.2" fill="#fff" opacity="0.56"/><circle cx="97" cy="260" r="2.7" fill="#fff" opacity="0.37"/><circle cx="204" cy="215" r="2.2" fill="#fff" opacity="0.48"/><circle cx="38" cy="345" r="1.5" fill="#fff" opacity="0.41"/><circle cx="58" cy="280" r="1.9" fill="#fff" opacity="0.52"/><circle cx="398" cy="380" r="2.6" fill="#fff" opacity="0.49"/><circle cx="439" cy="660" r="2.2" fill="#fff" opacity="0.58"/><circle cx="338" cy="566" r="2.8" fill="#fff" opacity="0.62"/><circle cx="460" cy="351" r="1.4" fill="#fff" opacity="0.31"/><circle cx="47" cy="486" r="2.5" fill="#fff" opacity="0.56"/><circle cx="174" cy="259" r="2.7" fill="#fff" opacity="0.36"/><circle cx="166" cy="600" r="2.0" fill="#fff" opacity="0.53"/><circle cx="387" cy="371" r="1.5" fill="#fff" opacity="0.54"/><circle cx="215" cy="419" r="2.7" fill="#fff" opacity="0.45"/><circle cx="489" cy="755" r="1.1" fill="#fff" opacity="0.68"/><circle cx="172" cy="106" r="1.4" fill="#fff" opacity="0.62"/><circle cx="476" cy="316" r="2.7" fill="#fff" opacity="0.29"/><circle cx="9" cy="242" r="3.2" fill="#fff" opacity="0.49"/><circle cx="263" cy="730" r="2.0" fill="#fff" opacity="0.61"/><circle cx="263" cy="663" r="2.0" fill="#fff" opacity="0.28"/><circle cx="457" cy="233" r="1.5" fill="#fff" opacity="0.59"/><circle cx="99" cy="26" r="2.9" fill="#fff" opacity="0.70"/><circle cx="372" cy="178" r="2.3" fill="#fff" opacity="0.62"/><circle cx="25" cy="514" r="2.1" fill="#fff" opacity="0.41"/><circle cx="509" cy="588" r="2.5" fill="#fff" opacity="0.52"/><circle cx="344" cy="103" r="1.7" fill="#fff" opacity="0.63"/><circle cx="312" cy="163" r="1.4" fill="#fff" opacity="0.56"/><circle cx="77" cy="658" r="1.3" fill="#fff" opacity="0.55"/></g>
  <circle cx="256" cy="294" r="212" fill="#e8edf2" opacity=".12"/><circle cx="256" cy="294" r="170" fill="#fff" opacity=".1"/>
  <ellipse cx="256" cy="662" rx="150" ry="34" fill="#536271" opacity=".28"/>
  <g transform="translate(0 122)">
    <ellipse cx="256" cy="339.2" rx="100.44999999999999" ry="112.74999999999999" fill="url(#body)" filter="url(#softShadow)"/><circle cx="256" cy="226.45" r="79.94999999999999" fill="url(#head)"/><ellipse cx="256" cy="214.15" rx="139.39999999999998" ry="36.9" fill="none" stroke="#e8edf2" stroke-width="14.349999999999998" opacity=".75" transform="rotate(-12 256 214.15)"/><path d="M256 103.45000000000002 L276.5 154.70000000000002 L333.9 156.75 L286.75 187.5 L303.15 242.85 L256 208 L208.85 242.85 L225.25 187.5 L178.10000000000002 156.75 L235.5 154.70000000000002 Z" fill="#9aa8b7"/><ellipse cx="223.2" cy="253.1" rx="14.349999999999998" ry="16.4" fill="#14213d"/><ellipse cx="288.8" cy="253.1" rx="14.349999999999998" ry="16.4" fill="#14213d"/><circle cx="229.35" cy="244.9" r="4.714999999999999" fill="#fff"/><circle cx="294.95" cy="244.9" r="4.714999999999999" fill="#fff"/><path d="M256 183.4 L278.55 212.10000000000002 L256 242.85 L233.45 212.10000000000002 Z" fill="#e8edf2" opacity=".92"/>
  </g>
  <path d="M74 126 C170 65 334 65 438 126" stroke="#fff" stroke-width="16" stroke-linecap="round" opacity=".16"/>
  <path d="M63 676 C162 718 344 718 449 662" stroke="#fff" stroke-width="14" stroke-linecap="round" opacity=".16"/>
</svg>