<svg xmlns="http://www.w3.org/2000/svg" viewBox="0 0 512 768" role="img" aria-label="青苔石 original portrait">
  
  <defs>
    <linearGradient id="bgp406" x1="0" y1="0" x2="1" y2="1">
      <stop offset="0" stop-color="#ddd0b2"/>
      <stop offset=".55" stop-color="#8d7a5f"/>
      <stop offset="1" stop-color="#514438"/>
    </linearGradient>
    <radialGradient id="body" cx=".36" cy=".25" r=".76">
      <stop offset="0" stop-color="#ddd0b2"/>
      <stop offset=".6" stop-color="#8d7a5f"/>
      <stop offset="1" stop-color="#514438"/>
    </radialGradient>
    <radialGradient id="head" cx=".36" cy=".26" r=".72">
      <stop offset="0" stop-color="#ffffff" stop-opacity=".85"/>
      <stop offset=".2" stop-color="#ddd0b2"/>
      <stop offset=".72" stop-color="#8d7a5f"/>
      <stop offset="1" stop-color="#514438"/>
    </radialGradient>
    <filter id="softShadow" x="-30%" y="-30%" width="160%" height="160%">
      <feDropShadow dx="0" dy="8" stdDeviation="8" flood-color="#514438" flood-opacity=".35"/>
    </filter>
  </defs>
  <rect width="512" height="768" rx="48" fill="url(#bgp406)"/>
  <rect x="24" y="24" width="464" height="720" rx="40" fill="#ffffff" opacity=".08"/>
  <g opacity=".42"><circle cx="280" cy="471" r="1.2" fill="#fff" opacity="0.64"/><circle cx="92" cy="35" r="2.1" fill="#fff" opacity="0.66"/><circle cx="154" cy="47" r="3.1" fill="#fff" opacity="0.54"/><circle cx="344" cy="521" r="1.5" fill="#fff" opacity="0.31"/><circle cx="502" cy="196" r="1.0" fill="#fff" opacity="0.31"/><circle cx="95" cy="167" r="2.3" fill="#fff" opacity="0.61"/><circle cx="42" cy="86" r="1.7" fill="#fff" opacity="0.67"/><circle cx="404" cy="725" r="2.5" fill="#fff" opacity="0.54"/><circle cx="500" cy="194" r="2.7" fill="#fff" opacity="0.70"/><circle cx="9" cy="456" r="1.9" fill="#fff" opacity="0.44"/><circle cx="123" cy="188" r="1.0" fill="#fff" opacity="0.34"/><circle cx="492" cy="386" r="1.3" fill="#fff" opacity="0.48"/><circle cx="130" cy="44" r="1.8" fill="#fff" opacity="0.55"/><circle cx="6" cy="664" r="1.8" fill="#fff" opacity="0.61"/><circle cx="80" cy="130" r="2.2" fill="#fff" opacity="0.60"/><circle cx="505" cy="743" r="1.3" fill="#fff" opacity="0.66"/><circle cx="151" cy="499" r="2.5" fill="#fff" opacity="0.33"/><circle cx="353" cy="72" r="1.5" fill="#fff" opacity="0.50"/><circle cx="64" cy="712" r="0.8" fill="#fff" opacity="0.49"/><circle cx="98" cy="376" r="1.6" fill="#fff" opacity="0.46"/><circle cx="162" cy="319" r="2.1" fill="#fff" opacity="0.70"/><circle cx="6" cy="674" r="0.9" fill="#fff" opacity="0.47"/><circle cx="248" cy="253" r="2.9" fill="#fff" opacity="0.36"/><circle cx="51" cy="329" r="2.4" fill="#fff" opacity="0.50"/><circle cx="187" cy="731" r="1.1" fill="#fff" opacity="0.43"/><circle cx="262" cy="421" r="2.7" fill="#fff" opacity="0.27"/><circle cx="11" cy="248" r="2.6" fill="#fff" opacity="0.57"/><circle cx="435" cy="332" r="2.4" fill="#fff" opacity="0.61"/></g>
  <path d="M24 680 L110 610 L186 666 L272 592 L356 674 L445 626 L512 704 V768 H0V704Z" fill="#514438" opacity=".18"/>
  <ellipse cx="256" cy="662" rx="150" ry="34" fill="#514438" opacity=".28"/>
  <g transform="translate(0 122)">
    <path d="M149.4 228.5 L219.1 156.75 H311.35 L376.95 242.85 L346.2 394.55 H163.75 Z" fill="url(#body)" filter="url(#softShadow)"/><path d="M198.60000000000002 179.3 L245.75 91.15 L280.6 171.10000000000002 Z" fill="#ddd0b2"/><path d="M290.85 183.4 L344.15 113.70000000000002 L342.1 210.05 Z" fill="#8d7a5f"/><rect x="194.5" y="277.7" width="122.99999999999999" height="30.749999999999996" rx="14.349999999999998" fill="#514438" opacity=".38"/><circle cx="227.3" cy="292.05" r="10.25" fill="#ddd0b2"/><circle cx="284.7" cy="292.05" r="10.25" fill="#ddd0b2"/><path d="M215 201.85000000000002 Q256 224.4 297 201.85000000000002" stroke="#ddd0b2" stroke-width="10.25" fill="none" stroke-linecap="round" opacity=".8"/>
  </g>
  <path d="M74 126 C170 65 334 65 438 126" stroke="#fff" stroke-width="16" stroke-linecap="round" opacity=".16"/>
  <path d="M63 676 C162 718 344 718 449 662" stroke="#fff" stroke-width="14" stroke-linecap="round" opacity=".16"/>
</svg>