<svg xmlns="http://www.w3.org/2000/svg" viewBox="0 0 512 768" role="img" aria-label="丛林巨像 original portrait">
  
  <defs>
    <linearGradient id="bgp407" x1="0" y1="0" x2="1" y2="1">
      <stop offset="0" stop-color="#c7f7a4"/>
      <stop offset=".55" stop-color="#43b957"/>
      <stop offset="1" stop-color="#1f6f43"/>
    </linearGradient>
    <radialGradient id="body" cx=".36" cy=".25" r=".76">
      <stop offset="0" stop-color="#c7f7a4"/>
      <stop offset=".6" stop-color="#43b957"/>
      <stop offset="1" stop-color="#1f6f43"/>
    </radialGradient>
    <radialGradient id="head" cx=".36" cy=".26" r=".72">
      <stop offset="0" stop-color="#ffffff" stop-opacity=".85"/>
      <stop offset=".2" stop-color="#c7f7a4"/>
      <stop offset=".72" stop-color="#43b957"/>
      <stop offset="1" stop-color="#1f6f43"/>
    </radialGradient>
    <filter id="softShadow" x="-30%" y="-30%" width="160%" height="160%">
      <feDropShadow dx="0" dy="8" stdDeviation="8" flood-color="#1f6f43" flood-opacity=".35"/>
    </filter>
  </defs>
  <rect width="512" height="768" rx="48" fill="url(#bgp407)"/>
  <rect x="24" y="24" width="464" height="720" rx="40" fill="#ffffff" opacity=".08"/>
  <g opacity=".42"><circle cx="294" cy="612" r="1.0" fill="#fff" opacity="0.65"/><circle cx="152" cy="405" r="1.7" fill="#fff" opacity="0.54"/><circle cx="330" cy="270" r="2.3" fill="#fff" opacity="0.49"/><circle cx="215" cy="509" r="3.0" fill="#fff" opacity="0.48"/><circle cx="342" cy="458" r="0.8" fill="#fff" opacity="0.36"/><circle cx="364" cy="718" r="3.2" fill="#fff" opacity="0.32"/><circle cx="18" cy="629" r="1.9" fill="#fff" opacity="0.42"/><circle cx="450" cy="477" r="2.6" fill="#fff" opacity="0.53"/><circle cx="358" cy="385" r="1.8" fill="#fff" opacity="0.68"/><circle cx="276" cy="704" r="1.3" fill="#fff" opacity="0.69"/><circle cx="345" cy="300" r="2.5" fill="#fff" opacity="0.51"/><circle cx="265" cy="35" r="2.3" fill="#fff" opacity="0.39"/><circle cx="138" cy="151" r="1.3" fill="#fff" opacity="0.43"/><circle cx="184" cy="462" r="1.6" fill="#fff" opacity="0.36"/><circle cx="489" cy="762" r="2.5" fill="#fff" opacity="0.67"/><circle cx="430" cy="160" r="1.8" fill="#fff" opacity="0.33"/><circle cx="164" cy="28" r="3.0" fill="#fff" opacity="0.31"/><circle cx="19" cy="352" r="1.2" fill="#fff" opacity="0.68"/><circle cx="183" cy="104" r="1.4" fill="#fff" opacity="0.46"/><circle cx="34" cy="101" r="2.3" fill="#fff" opacity="0.58"/><circle cx="306" cy="89" r="2.2" fill="#fff" opacity="0.29"/><circle cx="202" cy="564" r="2.3" fill="#fff" opacity="0.39"/><circle cx="333" cy="730" r="3.0" fill="#fff" opacity="0.47"/><circle cx="155" cy="719" r="2.0" fill="#fff" opacity="0.60"/><circle cx="88" cy="199" r="2.5" fill="#fff" opacity="0.29"/><circle cx="123" cy="101" r="2.9" fill="#fff" opacity="0.50"/><circle cx="263" cy="117" r="1.4" fill="#fff" opacity="0.53"/><circle cx="43" cy="623" r="2.0" fill="#fff" opacity="0.34"/></g>
  <path d="M24 680 L110 610 L186 666 L272 592 L356 674 L445 626 L512 704 V768 H0V704Z" fill="#1f6f43" opacity=".18"/>
  <ellipse cx="256" cy="662" rx="150" ry="34" fill="#1f6f43" opacity=".28"/>
  <g transform="translate(0 122)">
    <path d="M149.4 228.5 L219.1 156.75 H311.35 L376.95 242.85 L346.2 394.55 H163.75 Z" fill="url(#body)" filter="url(#softShadow)"/><path d="M198.60000000000002 179.3 L245.75 91.15 L280.6 171.10000000000002 Z" fill="#c7f7a4"/><path d="M290.85 183.4 L344.15 113.70000000000002 L342.1 210.05 Z" fill="#43b957"/><rect x="194.5" y="277.7" width="122.99999999999999" height="30.749999999999996" rx="14.349999999999998" fill="#1f6f43" opacity=".38"/><circle cx="227.3" cy="292.05" r="10.25" fill="#c7f7a4"/><circle cx="284.7" cy="292.05" r="10.25" fill="#c7f7a4"/><path d="M215 201.85000000000002 Q256 224.4 297 201.85000000000002" stroke="#c7f7a4" stroke-width="10.25" fill="none" stroke-linecap="round" opacity=".8"/>
  </g>
  <path d="M74 126 C170 65 334 65 438 126" stroke="#fff" stroke-width="16" stroke-linecap="round" opacity=".16"/>
  <path d="M63 676 C162 718 344 718 449 662" stroke="#fff" stroke-width="14" stroke-linecap="round" opacity=".16"/>
</svg>