<svg xmlns="http://www.w3.org/2000/svg" viewBox="0 0 512 768" role="img" aria-label="激流之灵 original portrait">
  
  <defs>
    <linearGradient id="bgp409" x1="0" y1="0" x2="1" y2="1">
      <stop offset="0" stop-color="#9ee8ff"/>
      <stop offset=".55" stop-color="#2397d5"/>
      <stop offset="1" stop-color="#0b4f8f"/>
    </linearGradient>
    <radialGradient id="body" cx=".36" cy=".25" r=".76">
      <stop offset="0" stop-color="#9ee8ff"/>
      <stop offset=".6" stop-color="#2397d5"/>
      <stop offset="1" stop-color="#0b4f8f"/>
    </radialGradient>
    <radialGradient id="head" cx=".36" cy=".26" r=".72">
      <stop offset="0" stop-color="#ffffff" stop-opacity=".85"/>
      <stop offset=".2" stop-color="#9ee8ff"/>
      <stop offset=".72" stop-color="#2397d5"/>
      <stop offset="1" stop-color="#0b4f8f"/>
    </radialGradient>
    <filter id="softShadow" x="-30%" y="-30%" width="160%" height="160%">
      <feDropShadow dx="0" dy="8" stdDeviation="8" flood-color="#0b4f8f" flood-opacity=".35"/>
    </filter>
  </defs>
  <rect width="512" height="768" rx="48" fill="url(#bgp409)"/>
  <rect x="24" y="24" width="464" height="720" rx="40" fill="#ffffff" opacity=".08"/>
  <g opacity=".42"><circle cx="178" cy="588" r="0.9" fill="#fff" opacity="0.25"/><circle cx="511" cy="383" r="2.9" fill="#fff" opacity="0.26"/><circle cx="289" cy="583" r="2.2" fill="#fff" opacity="0.42"/><circle cx="475" cy="84" r="2.1" fill="#fff" opacity="0.69"/><circle cx="171" cy="285" r="2.3" fill="#fff" opacity="0.28"/><circle cx="137" cy="334" r="2.5" fill="#fff" opacity="0.38"/><circle cx="149" cy="184" r="2.0" fill="#fff" opacity="0.55"/><circle cx="73" cy="668" r="1.0" fill="#fff" opacity="0.43"/><circle cx="448" cy="587" r="2.0" fill="#fff" opacity="0.67"/><circle cx="407" cy="59" r="2.7" fill="#fff" opacity="0.42"/><circle cx="421" cy="73" r="1.5" fill="#fff" opacity="0.32"/><circle cx="321" cy="414" r="1.4" fill="#fff" opacity="0.52"/><circle cx="126" cy="422" r="2.4" fill="#fff" opacity="0.37"/><circle cx="308" cy="60" r="1.6" fill="#fff" opacity="0.33"/><circle cx="255" cy="503" r="1.8" fill="#fff" opacity="0.63"/><circle cx="201" cy="507" r="2.3" fill="#fff" opacity="0.65"/><circle cx="373" cy="43" r="2.4" fill="#fff" opacity="0.35"/><circle cx="460" cy="47" r="3.1" fill="#fff" opacity="0.38"/><circle cx="98" cy="12" r="1.1" fill="#fff" opacity="0.67"/><circle cx="405" cy="649" r="1.4" fill="#fff" opacity="0.56"/><circle cx="307" cy="500" r="1.6" fill="#fff" opacity="0.45"/><circle cx="161" cy="397" r="2.8" fill="#fff" opacity="0.67"/><circle cx="427" cy="42" r="2.9" fill="#fff" opacity="0.65"/><circle cx="301" cy="84" r="1.9" fill="#fff" opacity="0.38"/><circle cx="158" cy="554" r="2.2" fill="#fff" opacity="0.53"/><circle cx="265" cy="677" r="2.6" fill="#fff" opacity="0.54"/><circle cx="462" cy="360" r="2.9" fill="#fff" opacity="0.34"/><circle cx="49" cy="556" r="1.8" fill="#fff" opacity="0.55"/></g>
  <path d="M0 590 C76 555 120 612 197 582 C277 551 327 614 413 581 C462 562 489 570 512 585 V768 H0Z" fill="#0b4f8f" opacity=".22"/>
  <ellipse cx="256" cy="662" rx="150" ry="34" fill="#0b4f8f" opacity=".28"/>
  <g transform="translate(0 122)">
    <path d="M149.4 435.54999999999995 C100.20000000000002 304.35 167.85000000000002 156.75 264.2 154.70000000000002 C379 150.60000000000002 420 298.2 352.35 435.54999999999995 C317.5 400.7 288.8 458.1 256 419.15 C221.15 458.1 188.35000000000002 400.7 149.4 435.54999999999995Z" fill="url(#body)" filter="url(#softShadow)"/><circle cx="219.1" cy="253.1" r="16.4" fill="#1b1638"/><circle cx="292.9" cy="253.1" r="16.4" fill="#1b1638"/><path d="M239.6 312.55 Q256 331 280.6 310.5" stroke="#1b1638" stroke-width="10.25" fill="none" stroke-linecap="round"/><path d="M126.85000000000002 326.9 C40.75000000000003 296.15 83.80000000000001 201.85000000000002 137.10000000000002 238.75" fill="#2397d5" opacity=".35"/><path d="M385.15 326.9 C471.25 296.15 428.2 201.85000000000002 374.9 238.75" fill="#2397d5" opacity=".35"/><circle cx="256" cy="210.05" r="14.349999999999998" fill="#9ee8ff" opacity=".9"/>
  </g>
  <path d="M74 126 C170 65 334 65 438 126" stroke="#fff" stroke-width="16" stroke-linecap="round" opacity=".16"/>
  <path d="M63 676 C162 718 344 718 449 662" stroke="#fff" stroke-width="14" stroke-linecap="round" opacity=".16"/>
</svg>