<svg xmlns="http://www.w3.org/2000/svg" viewBox="0 0 512 768" role="img" aria-label="信使鸟 original portrait">
  
  <defs>
    <linearGradient id="bgp41" x1="0" y1="0" x2="1" y2="1">
      <stop offset="0" stop-color="#d9edff"/>
      <stop offset=".55" stop-color="#82b7ff"/>
      <stop offset="1" stop-color="#4260ad"/>
    </linearGradient>
    <radialGradient id="body" cx=".36" cy=".25" r=".76">
      <stop offset="0" stop-color="#d9edff"/>
      <stop offset=".6" stop-color="#82b7ff"/>
      <stop offset="1" stop-color="#4260ad"/>
    </radialGradient>
    <radialGradient id="head" cx=".36" cy=".26" r=".72">
      <stop offset="0" stop-color="#ffffff" stop-opacity=".85"/>
      <stop offset=".2" stop-color="#d9edff"/>
      <stop offset=".72" stop-color="#82b7ff"/>
      <stop offset="1" stop-color="#4260ad"/>
    </radialGradient>
    <filter id="softShadow" x="-30%" y="-30%" width="160%" height="160%">
      <feDropShadow dx="0" dy="8" stdDeviation="8" flood-color="#4260ad" flood-opacity=".35"/>
    </filter>
  </defs>
  <rect width="512" height="768" rx="48" fill="url(#bgp41)"/>
  <rect x="24" y="24" width="464" height="720" rx="40" fill="#ffffff" opacity=".08"/>
  <g opacity=".42"><circle cx="250" cy="13" r="1.3" fill="#fff" opacity="0.32"/><circle cx="2" cy="699" r="2.1" fill="#fff" opacity="0.42"/><circle cx="227" cy="274" r="1.8" fill="#fff" opacity="0.54"/><circle cx="322" cy="134" r="1.5" fill="#fff" opacity="0.43"/><circle cx="278" cy="681" r="2.6" fill="#fff" opacity="0.55"/><circle cx="243" cy="340" r="2.5" fill="#fff" opacity="0.67"/><circle cx="269" cy="242" r="1.2" fill="#fff" opacity="0.42"/><circle cx="425" cy="670" r="1.2" fill="#fff" opacity="0.64"/><circle cx="472" cy="693" r="2.9" fill="#fff" opacity="0.33"/><circle cx="215" cy="3" r="2.7" fill="#fff" opacity="0.61"/><circle cx="66" cy="707" r="2.7" fill="#fff" opacity="0.43"/><circle cx="322" cy="628" r="1.5" fill="#fff" opacity="0.65"/><circle cx="367" cy="548" r="1.1" fill="#fff" opacity="0.36"/><circle cx="359" cy="729" r="1.2" fill="#fff" opacity="0.64"/><circle cx="66" cy="209" r="2.3" fill="#fff" opacity="0.48"/><circle cx="298" cy="671" r="2.8" fill="#fff" opacity="0.59"/><circle cx="382" cy="598" r="1.5" fill="#fff" opacity="0.41"/><circle cx="13" cy="1" r="2.0" fill="#fff" opacity="0.67"/><circle cx="305" cy="532" r="2.8" fill="#fff" opacity="0.36"/><circle cx="302" cy="366" r="1.2" fill="#fff" opacity="0.69"/><circle cx="231" cy="430" r="2.5" fill="#fff" opacity="0.28"/><circle cx="296" cy="434" r="2.8" fill="#fff" opacity="0.43"/><circle cx="371" cy="485" r="1.2" fill="#fff" opacity="0.30"/><circle cx="113" cy="64" r="2.0" fill="#fff" opacity="0.30"/><circle cx="417" cy="644" r="2.8" fill="#fff" opacity="0.49"/><circle cx="317" cy="407" r="1.9" fill="#fff" opacity="0.56"/><circle cx="374" cy="83" r="1.2" fill="#fff" opacity="0.60"/><circle cx="116" cy="125" r="1.9" fill="#fff" opacity="0.66"/></g>
  <path d="M0 620 C92 590 171 620 259 600 C357 577 432 594 512 565 V768 H0Z" fill="#fff" opacity=".18"/>
  <ellipse cx="256" cy="662" rx="150" ry="34" fill="#4260ad" opacity=".28"/>
  <g transform="translate(0 122)">
    <path d="M219.1 306.4 C65.35000000000002 187.5 67.4 392.5 206.8 400.7" fill="#82b7ff" opacity=".78"/><path d="M292.9 306.4 C446.65 187.5 444.6 392.5 305.2 400.7" fill="#82b7ff" opacity=".78"/><ellipse cx="256" cy="343.3" rx="86.1" ry="110.69999999999999" fill="url(#body)" filter="url(#softShadow)"/><circle cx="256" cy="228.5" r="77.89999999999999" fill="url(#head)"/><path d="M245.75 226.45 L331.85 249 L249.85 269.5 Z" fill="#d9edff"/><path d="M210.9 154.70000000000002 C239.6 89.10000000000002 280.6 109.60000000000002 260.1 167" fill="#4260ad" opacity=".85"/><ellipse cx="223.2" cy="253.1" rx="14.349999999999998" ry="16.4" fill="#14213d"/><ellipse cx="288.8" cy="253.1" rx="14.349999999999998" ry="16.4" fill="#14213d"/><circle cx="229.35" cy="244.9" r="4.714999999999999" fill="#fff"/><circle cx="294.95" cy="244.9" r="4.714999999999999" fill="#fff"/><path d="M215 201.85000000000002 Q256 224.4 297 201.85000000000002" stroke="#d9edff" stroke-width="10.25" fill="none" stroke-linecap="round" opacity=".8"/>
  </g>
  <path d="M74 126 C170 65 334 65 438 126" stroke="#fff" stroke-width="16" stroke-linecap="round" opacity=".16"/>
  <path d="M63 676 C162 718 344 718 449 662" stroke="#fff" stroke-width="14" stroke-linecap="round" opacity=".16"/>
</svg>