<svg xmlns="http://www.w3.org/2000/svg" viewBox="0 0 512 768" role="img" aria-label="光能电池 original portrait">
  
  <defs>
    <linearGradient id="bgp415" x1="0" y1="0" x2="1" y2="1">
      <stop offset="0" stop-color="#fff27a"/>
      <stop offset=".55" stop-color="#f9c80e"/>
      <stop offset="1" stop-color="#7a5200"/>
    </linearGradient>
    <radialGradient id="body" cx=".36" cy=".25" r=".76">
      <stop offset="0" stop-color="#fff27a"/>
      <stop offset=".6" stop-color="#f9c80e"/>
      <stop offset="1" stop-color="#7a5200"/>
    </radialGradient>
    <radialGradient id="head" cx=".36" cy=".26" r=".72">
      <stop offset="0" stop-color="#ffffff" stop-opacity=".85"/>
      <stop offset=".2" stop-color="#fff27a"/>
      <stop offset=".72" stop-color="#f9c80e"/>
      <stop offset="1" stop-color="#7a5200"/>
    </radialGradient>
    <filter id="softShadow" x="-30%" y="-30%" width="160%" height="160%">
      <feDropShadow dx="0" dy="8" stdDeviation="8" flood-color="#7a5200" flood-opacity=".35"/>
    </filter>
  </defs>
  <rect width="512" height="768" rx="48" fill="url(#bgp415)"/>
  <rect x="24" y="24" width="464" height="720" rx="40" fill="#ffffff" opacity=".08"/>
  <g opacity=".42"><circle cx="472" cy="662" r="2.2" fill="#fff" opacity="0.38"/><circle cx="71" cy="688" r="2.3" fill="#fff" opacity="0.36"/><circle cx="57" cy="273" r="1.2" fill="#fff" opacity="0.60"/><circle cx="146" cy="480" r="2.2" fill="#fff" opacity="0.54"/><circle cx="258" cy="697" r="1.6" fill="#fff" opacity="0.59"/><circle cx="54" cy="762" r="1.5" fill="#fff" opacity="0.35"/><circle cx="251" cy="449" r="2.2" fill="#fff" opacity="0.39"/><circle cx="463" cy="60" r="1.1" fill="#fff" opacity="0.69"/><circle cx="326" cy="638" r="1.5" fill="#fff" opacity="0.43"/><circle cx="317" cy="754" r="2.1" fill="#fff" opacity="0.47"/><circle cx="145" cy="551" r="1.6" fill="#fff" opacity="0.41"/><circle cx="207" cy="695" r="2.9" fill="#fff" opacity="0.34"/><circle cx="445" cy="565" r="3.2" fill="#fff" opacity="0.65"/><circle cx="115" cy="168" r="2.9" fill="#fff" opacity="0.67"/><circle cx="344" cy="461" r="3.2" fill="#fff" opacity="0.28"/><circle cx="95" cy="401" r="1.1" fill="#fff" opacity="0.48"/><circle cx="160" cy="661" r="1.8" fill="#fff" opacity="0.33"/><circle cx="47" cy="522" r="1.1" fill="#fff" opacity="0.32"/><circle cx="346" cy="429" r="3.2" fill="#fff" opacity="0.57"/><circle cx="271" cy="732" r="2.5" fill="#fff" opacity="0.37"/><circle cx="97" cy="558" r="1.7" fill="#fff" opacity="0.61"/><circle cx="330" cy="243" r="1.1" fill="#fff" opacity="0.61"/><circle cx="169" cy="61" r="2.5" fill="#fff" opacity="0.37"/><circle cx="198" cy="525" r="2.7" fill="#fff" opacity="0.63"/><circle cx="245" cy="27" r="2.0" fill="#fff" opacity="0.62"/><circle cx="402" cy="688" r="2.4" fill="#fff" opacity="0.50"/><circle cx="451" cy="429" r="2.2" fill="#fff" opacity="0.33"/><circle cx="375" cy="265" r="2.2" fill="#fff" opacity="0.41"/></g>
  <circle cx="256" cy="294" r="181" fill="#fff27a" opacity=".12"/><circle cx="256" cy="294" r="139" fill="#fff" opacity=".1"/>
  <ellipse cx="256" cy="662" rx="150" ry="34" fill="#7a5200" opacity=".28"/>
  <g transform="translate(0 122)">
    <ellipse cx="256" cy="339.2" rx="100.44999999999999" ry="112.74999999999999" fill="url(#body)" filter="url(#softShadow)"/><circle cx="256" cy="226.45" r="79.94999999999999" fill="url(#head)"/><ellipse cx="256" cy="214.15" rx="139.39999999999998" ry="36.9" fill="none" stroke="#fff27a" stroke-width="14.349999999999998" opacity=".75" transform="rotate(-12 256 214.15)"/><path d="M256 103.45000000000002 L276.5 154.70000000000002 L333.9 156.75 L286.75 187.5 L303.15 242.85 L256 208 L208.85 242.85 L225.25 187.5 L178.10000000000002 156.75 L235.5 154.70000000000002 Z" fill="#f9c80e"/><ellipse cx="223.2" cy="253.1" rx="14.349999999999998" ry="16.4" fill="#14213d"/><ellipse cx="288.8" cy="253.1" rx="14.349999999999998" ry="16.4" fill="#14213d"/><circle cx="229.35" cy="244.9" r="4.714999999999999" fill="#fff"/><circle cx="294.95" cy="244.9" r="4.714999999999999" fill="#fff"/><path d="M256 183.4 L278.55 212.10000000000002 L256 242.85 L233.45 212.10000000000002 Z" fill="#fff27a" opacity=".92"/>
  </g>
  <path d="M74 126 C170 65 334 65 438 126" stroke="#fff" stroke-width="16" stroke-linecap="round" opacity=".16"/>
  <path d="M63 676 C162 718 344 718 449 662" stroke="#fff" stroke-width="14" stroke-linecap="round" opacity=".16"/>
</svg>