<svg xmlns="http://www.w3.org/2000/svg" viewBox="0 0 512 768" role="img" aria-label="凛冬神鹿 original portrait">
  
  <defs>
    <linearGradient id="bgp419" x1="0" y1="0" x2="1" y2="1">
      <stop offset="0" stop-color="#d7fbff"/>
      <stop offset=".55" stop-color="#71d6e8"/>
      <stop offset="1" stop-color="#318aa3"/>
    </linearGradient>
    <radialGradient id="body" cx=".36" cy=".25" r=".76">
      <stop offset="0" stop-color="#d7fbff"/>
      <stop offset=".6" stop-color="#71d6e8"/>
      <stop offset="1" stop-color="#318aa3"/>
    </radialGradient>
    <radialGradient id="head" cx=".36" cy=".26" r=".72">
      <stop offset="0" stop-color="#ffffff" stop-opacity=".85"/>
      <stop offset=".2" stop-color="#d7fbff"/>
      <stop offset=".72" stop-color="#71d6e8"/>
      <stop offset="1" stop-color="#318aa3"/>
    </radialGradient>
    <filter id="softShadow" x="-30%" y="-30%" width="160%" height="160%">
      <feDropShadow dx="0" dy="8" stdDeviation="8" flood-color="#318aa3" flood-opacity=".35"/>
    </filter>
  </defs>
  <rect width="512" height="768" rx="48" fill="url(#bgp419)"/>
  <rect x="24" y="24" width="464" height="720" rx="40" fill="#ffffff" opacity=".08"/>
  <g opacity=".42"><circle cx="276" cy="657" r="1.9" fill="#fff" opacity="0.63"/><circle cx="28" cy="625" r="2.5" fill="#fff" opacity="0.59"/><circle cx="235" cy="214" r="1.3" fill="#fff" opacity="0.41"/><circle cx="196" cy="753" r="2.4" fill="#fff" opacity="0.70"/><circle cx="243" cy="219" r="3.1" fill="#fff" opacity="0.52"/><circle cx="500" cy="294" r="2.2" fill="#fff" opacity="0.46"/><circle cx="62" cy="642" r="2.0" fill="#fff" opacity="0.61"/><circle cx="200" cy="320" r="2.7" fill="#fff" opacity="0.41"/><circle cx="289" cy="168" r="2.8" fill="#fff" opacity="0.54"/><circle cx="289" cy="77" r="3.0" fill="#fff" opacity="0.60"/><circle cx="480" cy="260" r="2.0" fill="#fff" opacity="0.39"/><circle cx="242" cy="427" r="0.9" fill="#fff" opacity="0.40"/><circle cx="505" cy="53" r="1.8" fill="#fff" opacity="0.59"/><circle cx="386" cy="718" r="2.0" fill="#fff" opacity="0.35"/><circle cx="467" cy="230" r="1.4" fill="#fff" opacity="0.46"/><circle cx="191" cy="539" r="2.4" fill="#fff" opacity="0.29"/><circle cx="337" cy="6" r="1.1" fill="#fff" opacity="0.35"/><circle cx="137" cy="175" r="2.8" fill="#fff" opacity="0.54"/><circle cx="400" cy="557" r="2.4" fill="#fff" opacity="0.56"/><circle cx="130" cy="260" r="1.7" fill="#fff" opacity="0.37"/><circle cx="130" cy="465" r="3.0" fill="#fff" opacity="0.63"/><circle cx="417" cy="352" r="0.9" fill="#fff" opacity="0.29"/><circle cx="461" cy="585" r="2.0" fill="#fff" opacity="0.50"/><circle cx="271" cy="628" r="1.7" fill="#fff" opacity="0.36"/><circle cx="85" cy="96" r="2.8" fill="#fff" opacity="0.48"/><circle cx="197" cy="495" r="1.8" fill="#fff" opacity="0.56"/><circle cx="2" cy="734" r="0.9" fill="#fff" opacity="0.43"/><circle cx="85" cy="373" r="2.1" fill="#fff" opacity="0.58"/></g>
  <circle cx="256" cy="294" r="209" fill="#d7fbff" opacity=".12"/><circle cx="256" cy="294" r="167" fill="#fff" opacity=".1"/>
  <ellipse cx="256" cy="662" rx="150" ry="34" fill="#318aa3" opacity=".28"/>
  <g transform="translate(0 122)">
    <ellipse cx="256" cy="339.2" rx="100.44999999999999" ry="112.74999999999999" fill="url(#body)" filter="url(#softShadow)"/><circle cx="256" cy="226.45" r="79.94999999999999" fill="url(#head)"/><ellipse cx="256" cy="214.15" rx="139.39999999999998" ry="36.9" fill="none" stroke="#d7fbff" stroke-width="14.349999999999998" opacity=".75" transform="rotate(-12 256 214.15)"/><path d="M256 103.45000000000002 L276.5 154.70000000000002 L333.9 156.75 L286.75 187.5 L303.15 242.85 L256 208 L208.85 242.85 L225.25 187.5 L178.10000000000002 156.75 L235.5 154.70000000000002 Z" fill="#71d6e8"/><ellipse cx="223.2" cy="253.1" rx="14.349999999999998" ry="16.4" fill="#14213d"/><ellipse cx="288.8" cy="253.1" rx="14.349999999999998" ry="16.4" fill="#14213d"/><circle cx="229.35" cy="244.9" r="4.714999999999999" fill="#fff"/><circle cx="294.95" cy="244.9" r="4.714999999999999" fill="#fff"/><circle cx="256" cy="210.05" r="14.349999999999998" fill="#d7fbff" opacity=".9"/>
  </g>
  <path d="M74 126 C170 65 334 65 438 126" stroke="#fff" stroke-width="16" stroke-linecap="round" opacity=".16"/>
  <path d="M63 676 C162 718 344 718 449 662" stroke="#fff" stroke-width="14" stroke-linecap="round" opacity=".16"/>
</svg>