<svg xmlns="http://www.w3.org/2000/svg" viewBox="0 0 512 768" role="img" aria-label="疾风鹰 original portrait">
  
  <defs>
    <linearGradient id="bgp42" x1="0" y1="0" x2="1" y2="1">
      <stop offset="0" stop-color="#d9edff"/>
      <stop offset=".55" stop-color="#82b7ff"/>
      <stop offset="1" stop-color="#4260ad"/>
    </linearGradient>
    <radialGradient id="body" cx=".36" cy=".25" r=".76">
      <stop offset="0" stop-color="#d9edff"/>
      <stop offset=".6" stop-color="#82b7ff"/>
      <stop offset="1" stop-color="#4260ad"/>
    </radialGradient>
    <radialGradient id="head" cx=".36" cy=".26" r=".72">
      <stop offset="0" stop-color="#ffffff" stop-opacity=".85"/>
      <stop offset=".2" stop-color="#d9edff"/>
      <stop offset=".72" stop-color="#82b7ff"/>
      <stop offset="1" stop-color="#4260ad"/>
    </radialGradient>
    <filter id="softShadow" x="-30%" y="-30%" width="160%" height="160%">
      <feDropShadow dx="0" dy="8" stdDeviation="8" flood-color="#4260ad" flood-opacity=".35"/>
    </filter>
  </defs>
  <rect width="512" height="768" rx="48" fill="url(#bgp42)"/>
  <rect x="24" y="24" width="464" height="720" rx="40" fill="#ffffff" opacity=".08"/>
  <g opacity=".42"><circle cx="292" cy="482" r="2.0" fill="#fff" opacity="0.63"/><circle cx="54" cy="151" r="1.2" fill="#fff" opacity="0.68"/><circle cx="444" cy="592" r="3.1" fill="#fff" opacity="0.32"/><circle cx="70" cy="382" r="2.7" fill="#fff" opacity="0.29"/><circle cx="361" cy="354" r="1.9" fill="#fff" opacity="0.25"/><circle cx="260" cy="444" r="2.9" fill="#fff" opacity="0.59"/><circle cx="50" cy="70" r="2.4" fill="#fff" opacity="0.57"/><circle cx="191" cy="767" r="3.2" fill="#fff" opacity="0.40"/><circle cx="68" cy="22" r="2.6" fill="#fff" opacity="0.52"/><circle cx="155" cy="357" r="2.3" fill="#fff" opacity="0.34"/><circle cx="421" cy="177" r="1.9" fill="#fff" opacity="0.64"/><circle cx="64" cy="602" r="1.8" fill="#fff" opacity="0.67"/><circle cx="30" cy="383" r="2.8" fill="#fff" opacity="0.45"/><circle cx="243" cy="448" r="1.1" fill="#fff" opacity="0.32"/><circle cx="331" cy="402" r="2.8" fill="#fff" opacity="0.47"/><circle cx="188" cy="526" r="2.7" fill="#fff" opacity="0.66"/><circle cx="85" cy="177" r="2.2" fill="#fff" opacity="0.43"/><circle cx="226" cy="11" r="1.0" fill="#fff" opacity="0.27"/><circle cx="490" cy="676" r="2.1" fill="#fff" opacity="0.32"/><circle cx="100" cy="98" r="3.0" fill="#fff" opacity="0.41"/><circle cx="69" cy="124" r="3.1" fill="#fff" opacity="0.34"/><circle cx="150" cy="303" r="2.5" fill="#fff" opacity="0.42"/><circle cx="192" cy="335" r="0.9" fill="#fff" opacity="0.70"/><circle cx="348" cy="271" r="2.5" fill="#fff" opacity="0.39"/><circle cx="249" cy="295" r="2.3" fill="#fff" opacity="0.30"/><circle cx="350" cy="575" r="2.5" fill="#fff" opacity="0.49"/><circle cx="440" cy="47" r="1.0" fill="#fff" opacity="0.41"/><circle cx="202" cy="734" r="2.8" fill="#fff" opacity="0.37"/></g>
  <path d="M0 620 C92 590 171 620 259 600 C357 577 432 594 512 565 V768 H0Z" fill="#fff" opacity=".18"/>
  <ellipse cx="256" cy="662" rx="150" ry="34" fill="#4260ad" opacity=".28"/>
  <g transform="translate(0 122)">
    <path d="M219.1 306.4 C65.35000000000002 187.5 67.4 392.5 206.8 400.7" fill="#82b7ff" opacity=".78"/><path d="M292.9 306.4 C446.65 187.5 444.6 392.5 305.2 400.7" fill="#82b7ff" opacity=".78"/><ellipse cx="256" cy="343.3" rx="86.1" ry="110.69999999999999" fill="url(#body)" filter="url(#softShadow)"/><circle cx="256" cy="228.5" r="77.89999999999999" fill="url(#head)"/><path d="M245.75 226.45 L331.85 249 L249.85 269.5 Z" fill="#d9edff"/><path d="M210.9 154.70000000000002 C239.6 89.10000000000002 280.6 109.60000000000002 260.1 167" fill="#4260ad" opacity=".85"/><ellipse cx="223.2" cy="253.1" rx="14.349999999999998" ry="16.4" fill="#14213d"/><ellipse cx="288.8" cy="253.1" rx="14.349999999999998" ry="16.4" fill="#14213d"/><circle cx="229.35" cy="244.9" r="4.714999999999999" fill="#fff"/><circle cx="294.95" cy="244.9" r="4.714999999999999" fill="#fff"/><path d="M256 183.4 L278.55 212.10000000000002 L256 242.85 L233.45 212.10000000000002 Z" fill="#d9edff" opacity=".92"/>
  </g>
  <path d="M74 126 C170 65 334 65 438 126" stroke="#fff" stroke-width="16" stroke-linecap="round" opacity=".16"/>
  <path d="M63 676 C162 718 344 718 449 662" stroke="#fff" stroke-width="14" stroke-linecap="round" opacity=".16"/>
</svg>