<svg xmlns="http://www.w3.org/2000/svg" viewBox="0 0 512 768" role="img" aria-label="腐化沼泽王 original portrait">
  
  <defs>
    <linearGradient id="bgp421" x1="0" y1="0" x2="1" y2="1">
      <stop offset="0" stop-color="#efb2ff"/>
      <stop offset=".55" stop-color="#9b5de5"/>
      <stop offset="1" stop-color="#4f2378"/>
    </linearGradient>
    <radialGradient id="body" cx=".36" cy=".25" r=".76">
      <stop offset="0" stop-color="#efb2ff"/>
      <stop offset=".6" stop-color="#9b5de5"/>
      <stop offset="1" stop-color="#4f2378"/>
    </radialGradient>
    <radialGradient id="head" cx=".36" cy=".26" r=".72">
      <stop offset="0" stop-color="#ffffff" stop-opacity=".85"/>
      <stop offset=".2" stop-color="#efb2ff"/>
      <stop offset=".72" stop-color="#9b5de5"/>
      <stop offset="1" stop-color="#4f2378"/>
    </radialGradient>
    <filter id="softShadow" x="-30%" y="-30%" width="160%" height="160%">
      <feDropShadow dx="0" dy="8" stdDeviation="8" flood-color="#4f2378" flood-opacity=".35"/>
    </filter>
  </defs>
  <rect width="512" height="768" rx="48" fill="url(#bgp421)"/>
  <rect x="24" y="24" width="464" height="720" rx="40" fill="#ffffff" opacity=".08"/>
  <g opacity=".42"><circle cx="417" cy="268" r="0.8" fill="#fff" opacity="0.47"/><circle cx="238" cy="255" r="2.0" fill="#fff" opacity="0.50"/><circle cx="306" cy="326" r="2.8" fill="#fff" opacity="0.61"/><circle cx="280" cy="68" r="0.9" fill="#fff" opacity="0.40"/><circle cx="334" cy="362" r="1.7" fill="#fff" opacity="0.51"/><circle cx="63" cy="537" r="3.1" fill="#fff" opacity="0.45"/><circle cx="398" cy="625" r="3.0" fill="#fff" opacity="0.58"/><circle cx="66" cy="366" r="1.2" fill="#fff" opacity="0.45"/><circle cx="150" cy="477" r="2.4" fill="#fff" opacity="0.37"/><circle cx="229" cy="717" r="3.1" fill="#fff" opacity="0.36"/><circle cx="153" cy="439" r="2.2" fill="#fff" opacity="0.48"/><circle cx="424" cy="321" r="2.0" fill="#fff" opacity="0.32"/><circle cx="490" cy="345" r="3.1" fill="#fff" opacity="0.38"/><circle cx="112" cy="375" r="2.9" fill="#fff" opacity="0.38"/><circle cx="406" cy="566" r="2.8" fill="#fff" opacity="0.40"/><circle cx="374" cy="686" r="1.2" fill="#fff" opacity="0.66"/><circle cx="284" cy="70" r="1.9" fill="#fff" opacity="0.49"/><circle cx="84" cy="170" r="1.0" fill="#fff" opacity="0.64"/><circle cx="366" cy="668" r="1.9" fill="#fff" opacity="0.55"/><circle cx="433" cy="735" r="3.0" fill="#fff" opacity="0.46"/><circle cx="215" cy="760" r="1.6" fill="#fff" opacity="0.41"/><circle cx="258" cy="370" r="2.0" fill="#fff" opacity="0.48"/><circle cx="400" cy="160" r="2.4" fill="#fff" opacity="0.40"/><circle cx="448" cy="536" r="1.4" fill="#fff" opacity="0.50"/><circle cx="477" cy="245" r="1.4" fill="#fff" opacity="0.61"/><circle cx="440" cy="192" r="1.7" fill="#fff" opacity="0.69"/><circle cx="98" cy="469" r="2.3" fill="#fff" opacity="0.42"/><circle cx="19" cy="336" r="2.2" fill="#fff" opacity="0.67"/></g>
  <path d="M38 684 C128 596 386 596 475 684 V768 H38Z" fill="#4f2378" opacity=".17"/>
  <ellipse cx="256" cy="662" rx="150" ry="34" fill="#4f2378" opacity=".28"/>
  <g transform="translate(0 122)">
    <ellipse cx="256" cy="359.7" rx="110.69999999999999" ry="100.44999999999999" fill="url(#body)" filter="url(#softShadow)"/><circle cx="256" cy="232.60000000000002" r="86.1" fill="url(#head)"/><path d="M149.4 322.8 C51.00000000000003 304.35 85.85000000000002 423.25 165.8 402.75" fill="#4f2378"/><path d="M362.6 322.8 C461 304.35 426.15 423.25 346.2 402.75" fill="#4f2378"/><path d="M200.65 148.55 H311.35 L331.85 195.7 Q256 224.4 180.15 195.7 Z" fill="#efb2ff" opacity=".85"/><ellipse cx="223.2" cy="253.1" rx="14.349999999999998" ry="16.4" fill="#14213d"/><ellipse cx="288.8" cy="253.1" rx="14.349999999999998" ry="16.4" fill="#14213d"/><circle cx="229.35" cy="244.9" r="4.714999999999999" fill="#fff"/><circle cx="294.95" cy="244.9" r="4.714999999999999" fill="#fff"/><path d="M215 201.85000000000002 Q256 224.4 297 201.85000000000002" stroke="#efb2ff" stroke-width="10.25" fill="none" stroke-linecap="round" opacity=".8"/>
  </g>
  <path d="M74 126 C170 65 334 65 438 126" stroke="#fff" stroke-width="16" stroke-linecap="round" opacity=".16"/>
  <path d="M63 676 C162 718 344 718 449 662" stroke="#fff" stroke-width="14" stroke-linecap="round" opacity=".16"/>
</svg>