<svg xmlns="http://www.w3.org/2000/svg" viewBox="0 0 512 768" role="img" aria-label="静电飞鼠 original portrait">
  
  <defs>
    <linearGradient id="bgp422" x1="0" y1="0" x2="1" y2="1">
      <stop offset="0" stop-color="#fff27a"/>
      <stop offset=".55" stop-color="#f9c80e"/>
      <stop offset="1" stop-color="#7a5200"/>
    </linearGradient>
    <radialGradient id="body" cx=".36" cy=".25" r=".76">
      <stop offset="0" stop-color="#fff27a"/>
      <stop offset=".6" stop-color="#f9c80e"/>
      <stop offset="1" stop-color="#7a5200"/>
    </radialGradient>
    <radialGradient id="head" cx=".36" cy=".26" r=".72">
      <stop offset="0" stop-color="#ffffff" stop-opacity=".85"/>
      <stop offset=".2" stop-color="#fff27a"/>
      <stop offset=".72" stop-color="#f9c80e"/>
      <stop offset="1" stop-color="#7a5200"/>
    </radialGradient>
    <filter id="softShadow" x="-30%" y="-30%" width="160%" height="160%">
      <feDropShadow dx="0" dy="8" stdDeviation="8" flood-color="#7a5200" flood-opacity=".35"/>
    </filter>
  </defs>
  <rect width="512" height="768" rx="48" fill="url(#bgp422)"/>
  <rect x="24" y="24" width="464" height="720" rx="40" fill="#ffffff" opacity=".08"/>
  <g opacity=".42"><circle cx="259" cy="566" r="2.7" fill="#fff" opacity="0.57"/><circle cx="408" cy="594" r="3.1" fill="#fff" opacity="0.63"/><circle cx="503" cy="157" r="2.9" fill="#fff" opacity="0.58"/><circle cx="357" cy="443" r="2.1" fill="#fff" opacity="0.47"/><circle cx="274" cy="203" r="2.6" fill="#fff" opacity="0.29"/><circle cx="422" cy="136" r="1.9" fill="#fff" opacity="0.36"/><circle cx="49" cy="404" r="2.7" fill="#fff" opacity="0.42"/><circle cx="322" cy="443" r="1.7" fill="#fff" opacity="0.57"/><circle cx="340" cy="170" r="2.7" fill="#fff" opacity="0.38"/><circle cx="401" cy="126" r="1.7" fill="#fff" opacity="0.34"/><circle cx="28" cy="413" r="1.9" fill="#fff" opacity="0.45"/><circle cx="205" cy="371" r="2.0" fill="#fff" opacity="0.64"/><circle cx="60" cy="101" r="1.0" fill="#fff" opacity="0.68"/><circle cx="286" cy="210" r="2.6" fill="#fff" opacity="0.53"/><circle cx="290" cy="382" r="1.8" fill="#fff" opacity="0.67"/><circle cx="112" cy="376" r="2.1" fill="#fff" opacity="0.51"/><circle cx="328" cy="351" r="2.9" fill="#fff" opacity="0.51"/><circle cx="440" cy="487" r="0.9" fill="#fff" opacity="0.65"/><circle cx="46" cy="511" r="3.1" fill="#fff" opacity="0.41"/><circle cx="216" cy="730" r="1.5" fill="#fff" opacity="0.45"/><circle cx="217" cy="476" r="1.9" fill="#fff" opacity="0.27"/><circle cx="462" cy="257" r="1.0" fill="#fff" opacity="0.69"/><circle cx="177" cy="603" r="2.2" fill="#fff" opacity="0.57"/><circle cx="417" cy="619" r="1.1" fill="#fff" opacity="0.60"/><circle cx="34" cy="397" r="1.5" fill="#fff" opacity="0.64"/><circle cx="225" cy="246" r="2.6" fill="#fff" opacity="0.33"/><circle cx="382" cy="672" r="1.0" fill="#fff" opacity="0.43"/><circle cx="173" cy="296" r="1.9" fill="#fff" opacity="0.56"/></g>
  <path d="M0 620 C92 590 171 620 259 600 C357 577 432 594 512 565 V768 H0Z" fill="#fff" opacity=".18"/>
  <ellipse cx="256" cy="662" rx="150" ry="34" fill="#7a5200" opacity=".28"/>
  <g transform="translate(0 122)">
    <path d="M219.1 306.4 C65.35000000000002 187.5 67.4 392.5 206.8 400.7" fill="#f9c80e" opacity=".78"/><path d="M292.9 306.4 C446.65 187.5 444.6 392.5 305.2 400.7" fill="#f9c80e" opacity=".78"/><ellipse cx="256" cy="343.3" rx="86.1" ry="110.69999999999999" fill="url(#body)" filter="url(#softShadow)"/><circle cx="256" cy="228.5" r="77.89999999999999" fill="url(#head)"/><path d="M245.75 226.45 L331.85 249 L249.85 269.5 Z" fill="#fff27a"/><path d="M210.9 154.70000000000002 C239.6 89.10000000000002 280.6 109.60000000000002 260.1 167" fill="#7a5200" opacity=".85"/><ellipse cx="223.2" cy="253.1" rx="14.349999999999998" ry="16.4" fill="#14213d"/><ellipse cx="288.8" cy="253.1" rx="14.349999999999998" ry="16.4" fill="#14213d"/><circle cx="229.35" cy="244.9" r="4.714999999999999" fill="#fff"/><circle cx="294.95" cy="244.9" r="4.714999999999999" fill="#fff"/><path d="M215 201.85000000000002 Q256 224.4 297 201.85000000000002" stroke="#fff27a" stroke-width="10.25" fill="none" stroke-linecap="round" opacity=".8"/>
  </g>
  <path d="M74 126 C170 65 334 65 438 126" stroke="#fff" stroke-width="16" stroke-linecap="round" opacity=".16"/>
  <path d="M63 676 C162 718 344 718 449 662" stroke="#fff" stroke-width="14" stroke-linecap="round" opacity=".16"/>
</svg>