<svg xmlns="http://www.w3.org/2000/svg" viewBox="0 0 512 768" role="img" aria-label="熔岩铠甲 original portrait">
  
  <defs>
    <linearGradient id="bgp425" x1="0" y1="0" x2="1" y2="1">
      <stop offset="0" stop-color="#ffd166"/>
      <stop offset=".55" stop-color="#ff6b35"/>
      <stop offset="1" stop-color="#a92d1d"/>
    </linearGradient>
    <radialGradient id="body" cx=".36" cy=".25" r=".76">
      <stop offset="0" stop-color="#ffd166"/>
      <stop offset=".6" stop-color="#ff6b35"/>
      <stop offset="1" stop-color="#a92d1d"/>
    </radialGradient>
    <radialGradient id="head" cx=".36" cy=".26" r=".72">
      <stop offset="0" stop-color="#ffffff" stop-opacity=".85"/>
      <stop offset=".2" stop-color="#ffd166"/>
      <stop offset=".72" stop-color="#ff6b35"/>
      <stop offset="1" stop-color="#a92d1d"/>
    </radialGradient>
    <filter id="softShadow" x="-30%" y="-30%" width="160%" height="160%">
      <feDropShadow dx="0" dy="8" stdDeviation="8" flood-color="#a92d1d" flood-opacity=".35"/>
    </filter>
  </defs>
  <rect width="512" height="768" rx="48" fill="url(#bgp425)"/>
  <rect x="24" y="24" width="464" height="720" rx="40" fill="#ffffff" opacity=".08"/>
  <g opacity=".42"><circle cx="240" cy="285" r="2.8" fill="#fff" opacity="0.58"/><circle cx="138" cy="726" r="2.6" fill="#fff" opacity="0.65"/><circle cx="223" cy="379" r="2.2" fill="#fff" opacity="0.56"/><circle cx="297" cy="525" r="1.9" fill="#fff" opacity="0.49"/><circle cx="425" cy="340" r="2.8" fill="#fff" opacity="0.31"/><circle cx="496" cy="211" r="1.7" fill="#fff" opacity="0.45"/><circle cx="204" cy="663" r="1.0" fill="#fff" opacity="0.47"/><circle cx="364" cy="86" r="2.8" fill="#fff" opacity="0.58"/><circle cx="123" cy="704" r="1.5" fill="#fff" opacity="0.29"/><circle cx="150" cy="371" r="3.0" fill="#fff" opacity="0.39"/><circle cx="401" cy="56" r="2.5" fill="#fff" opacity="0.52"/><circle cx="157" cy="594" r="0.9" fill="#fff" opacity="0.60"/><circle cx="57" cy="2" r="1.2" fill="#fff" opacity="0.53"/><circle cx="132" cy="371" r="2.1" fill="#fff" opacity="0.39"/><circle cx="266" cy="138" r="1.9" fill="#fff" opacity="0.52"/><circle cx="53" cy="95" r="1.2" fill="#fff" opacity="0.32"/><circle cx="69" cy="514" r="3.1" fill="#fff" opacity="0.30"/><circle cx="422" cy="384" r="1.7" fill="#fff" opacity="0.50"/><circle cx="216" cy="293" r="0.9" fill="#fff" opacity="0.41"/><circle cx="252" cy="528" r="3.1" fill="#fff" opacity="0.63"/><circle cx="100" cy="559" r="2.1" fill="#fff" opacity="0.56"/><circle cx="91" cy="278" r="1.1" fill="#fff" opacity="0.36"/><circle cx="168" cy="426" r="1.9" fill="#fff" opacity="0.32"/><circle cx="115" cy="355" r="2.3" fill="#fff" opacity="0.34"/><circle cx="165" cy="741" r="2.9" fill="#fff" opacity="0.59"/><circle cx="172" cy="173" r="2.8" fill="#fff" opacity="0.60"/><circle cx="49" cy="645" r="1.5" fill="#fff" opacity="0.40"/><circle cx="343" cy="578" r="2.0" fill="#fff" opacity="0.37"/></g>
  <path d="M69 625 C150 571 359 568 443 628" fill="#ff6b35" opacity=".14"/>
  <ellipse cx="256" cy="662" rx="150" ry="34" fill="#a92d1d" opacity=".28"/>
  <g transform="translate(0 122)">
    <ellipse cx="178.10000000000002" cy="257.2" rx="69.69999999999999" ry="100.44999999999999" fill="#ffd166" opacity=".55"/><ellipse cx="333.9" cy="257.2" rx="69.69999999999999" ry="100.44999999999999" fill="#ffd166" opacity=".55"/><ellipse cx="256" cy="331" rx="65.6" ry="122.99999999999999" fill="url(#body)" filter="url(#softShadow)"/><circle cx="256" cy="214.15" r="69.69999999999999" fill="url(#head)"/><path d="M219.1 160.85000000000002 Q174 93.20000000000002 118.65 117.80000000000001" stroke="#a92d1d" stroke-width="10.25" fill="none" stroke-linecap="round"/><path d="M292.9 160.85000000000002 Q338 93.20000000000002 393.35 117.80000000000001" stroke="#a92d1d" stroke-width="10.25" fill="none" stroke-linecap="round"/><path d="M198.60000000000002 322.8 H313.4 M206.8 376.1 H305.2" stroke="#a92d1d" stroke-width="8.2" opacity=".35"/><ellipse cx="223.2" cy="253.1" rx="14.349999999999998" ry="16.4" fill="#14213d"/><ellipse cx="288.8" cy="253.1" rx="14.349999999999998" ry="16.4" fill="#14213d"/><circle cx="229.35" cy="244.9" r="4.714999999999999" fill="#fff"/><circle cx="294.95" cy="244.9" r="4.714999999999999" fill="#fff"/><circle cx="256" cy="210.05" r="14.349999999999998" fill="#ffd166" opacity=".9"/>
  </g>
  <path d="M74 126 C170 65 334 65 438 126" stroke="#fff" stroke-width="16" stroke-linecap="round" opacity=".16"/>
  <path d="M63 676 C162 718 344 718 449 662" stroke="#fff" stroke-width="14" stroke-linecap="round" opacity=".16"/>
</svg>