<svg xmlns="http://www.w3.org/2000/svg" viewBox="0 0 512 768" role="img" aria-label="雪山守护神 original portrait">
  
  <defs>
    <linearGradient id="bgp427" x1="0" y1="0" x2="1" y2="1">
      <stop offset="0" stop-color="#d7fbff"/>
      <stop offset=".55" stop-color="#71d6e8"/>
      <stop offset="1" stop-color="#318aa3"/>
    </linearGradient>
    <radialGradient id="body" cx=".36" cy=".25" r=".76">
      <stop offset="0" stop-color="#d7fbff"/>
      <stop offset=".6" stop-color="#71d6e8"/>
      <stop offset="1" stop-color="#318aa3"/>
    </radialGradient>
    <radialGradient id="head" cx=".36" cy=".26" r=".72">
      <stop offset="0" stop-color="#ffffff" stop-opacity=".85"/>
      <stop offset=".2" stop-color="#d7fbff"/>
      <stop offset=".72" stop-color="#71d6e8"/>
      <stop offset="1" stop-color="#318aa3"/>
    </radialGradient>
    <filter id="softShadow" x="-30%" y="-30%" width="160%" height="160%">
      <feDropShadow dx="0" dy="8" stdDeviation="8" flood-color="#318aa3" flood-opacity=".35"/>
    </filter>
  </defs>
  <rect width="512" height="768" rx="48" fill="url(#bgp427)"/>
  <rect x="24" y="24" width="464" height="720" rx="40" fill="#ffffff" opacity=".08"/>
  <g opacity=".42"><circle cx="500" cy="737" r="1.4" fill="#fff" opacity="0.51"/><circle cx="50" cy="690" r="1.5" fill="#fff" opacity="0.26"/><circle cx="218" cy="24" r="1.4" fill="#fff" opacity="0.49"/><circle cx="326" cy="300" r="1.0" fill="#fff" opacity="0.63"/><circle cx="183" cy="720" r="2.4" fill="#fff" opacity="0.61"/><circle cx="178" cy="304" r="2.4" fill="#fff" opacity="0.53"/><circle cx="439" cy="559" r="1.7" fill="#fff" opacity="0.45"/><circle cx="149" cy="444" r="1.0" fill="#fff" opacity="0.47"/><circle cx="176" cy="653" r="2.2" fill="#fff" opacity="0.50"/><circle cx="257" cy="263" r="1.4" fill="#fff" opacity="0.57"/><circle cx="320" cy="765" r="3.0" fill="#fff" opacity="0.56"/><circle cx="201" cy="183" r="2.9" fill="#fff" opacity="0.41"/><circle cx="263" cy="335" r="1.9" fill="#fff" opacity="0.69"/><circle cx="343" cy="251" r="1.2" fill="#fff" opacity="0.28"/><circle cx="161" cy="731" r="2.2" fill="#fff" opacity="0.56"/><circle cx="103" cy="99" r="1.5" fill="#fff" opacity="0.43"/><circle cx="28" cy="71" r="2.8" fill="#fff" opacity="0.63"/><circle cx="50" cy="617" r="1.8" fill="#fff" opacity="0.57"/><circle cx="347" cy="651" r="2.3" fill="#fff" opacity="0.64"/><circle cx="405" cy="138" r="1.8" fill="#fff" opacity="0.50"/><circle cx="455" cy="481" r="1.4" fill="#fff" opacity="0.43"/><circle cx="236" cy="350" r="2.7" fill="#fff" opacity="0.39"/><circle cx="336" cy="219" r="2.6" fill="#fff" opacity="0.48"/><circle cx="38" cy="730" r="2.2" fill="#fff" opacity="0.41"/><circle cx="215" cy="446" r="1.1" fill="#fff" opacity="0.62"/><circle cx="166" cy="496" r="2.5" fill="#fff" opacity="0.44"/><circle cx="71" cy="178" r="2.0" fill="#fff" opacity="0.30"/><circle cx="317" cy="258" r="2.6" fill="#fff" opacity="0.26"/></g>
  <circle cx="256" cy="294" r="191" fill="#d7fbff" opacity=".12"/><circle cx="256" cy="294" r="149" fill="#fff" opacity=".1"/>
  <ellipse cx="256" cy="662" rx="150" ry="34" fill="#318aa3" opacity=".28"/>
  <g transform="translate(0 122)">
    <ellipse cx="256" cy="339.2" rx="100.44999999999999" ry="112.74999999999999" fill="url(#body)" filter="url(#softShadow)"/><circle cx="256" cy="226.45" r="79.94999999999999" fill="url(#head)"/><ellipse cx="256" cy="214.15" rx="139.39999999999998" ry="36.9" fill="none" stroke="#d7fbff" stroke-width="14.349999999999998" opacity=".75" transform="rotate(-12 256 214.15)"/><path d="M256 103.45000000000002 L276.5 154.70000000000002 L333.9 156.75 L286.75 187.5 L303.15 242.85 L256 208 L208.85 242.85 L225.25 187.5 L178.10000000000002 156.75 L235.5 154.70000000000002 Z" fill="#71d6e8"/><ellipse cx="223.2" cy="253.1" rx="14.349999999999998" ry="16.4" fill="#14213d"/><ellipse cx="288.8" cy="253.1" rx="14.349999999999998" ry="16.4" fill="#14213d"/><circle cx="229.35" cy="244.9" r="4.714999999999999" fill="#fff"/><circle cx="294.95" cy="244.9" r="4.714999999999999" fill="#fff"/><circle cx="256" cy="210.05" r="14.349999999999998" fill="#d7fbff" opacity=".9"/>
  </g>
  <path d="M74 126 C170 65 334 65 438 126" stroke="#fff" stroke-width="16" stroke-linecap="round" opacity=".16"/>
  <path d="M63 676 C162 718 344 718 449 662" stroke="#fff" stroke-width="14" stroke-linecap="round" opacity=".16"/>
</svg>