<svg xmlns="http://www.w3.org/2000/svg" viewBox="0 0 512 768" role="img" aria-label="沙暴魔神 original portrait">
  
  <defs>
    <linearGradient id="bgp429" x1="0" y1="0" x2="1" y2="1">
      <stop offset="0" stop-color="#ffd0ec"/>
      <stop offset=".55" stop-color="#e056a7"/>
      <stop offset="1" stop-color="#6d327d"/>
    </linearGradient>
    <radialGradient id="body" cx=".36" cy=".25" r=".76">
      <stop offset="0" stop-color="#ffd0ec"/>
      <stop offset=".6" stop-color="#e056a7"/>
      <stop offset="1" stop-color="#6d327d"/>
    </radialGradient>
    <radialGradient id="head" cx=".36" cy=".26" r=".72">
      <stop offset="0" stop-color="#ffffff" stop-opacity=".85"/>
      <stop offset=".2" stop-color="#ffd0ec"/>
      <stop offset=".72" stop-color="#e056a7"/>
      <stop offset="1" stop-color="#6d327d"/>
    </radialGradient>
    <filter id="softShadow" x="-30%" y="-30%" width="160%" height="160%">
      <feDropShadow dx="0" dy="8" stdDeviation="8" flood-color="#6d327d" flood-opacity=".35"/>
    </filter>
  </defs>
  <rect width="512" height="768" rx="48" fill="url(#bgp429)"/>
  <rect x="24" y="24" width="464" height="720" rx="40" fill="#ffffff" opacity=".08"/>
  <g opacity=".42"><circle cx="344" cy="158" r="2.4" fill="#fff" opacity="0.68"/><circle cx="28" cy="50" r="2.2" fill="#fff" opacity="0.34"/><circle cx="508" cy="438" r="2.8" fill="#fff" opacity="0.26"/><circle cx="435" cy="50" r="2.2" fill="#fff" opacity="0.30"/><circle cx="318" cy="116" r="2.2" fill="#fff" opacity="0.35"/><circle cx="250" cy="438" r="2.1" fill="#fff" opacity="0.56"/><circle cx="325" cy="566" r="2.4" fill="#fff" opacity="0.35"/><circle cx="154" cy="365" r="2.6" fill="#fff" opacity="0.46"/><circle cx="110" cy="312" r="2.2" fill="#fff" opacity="0.68"/><circle cx="499" cy="194" r="1.6" fill="#fff" opacity="0.29"/><circle cx="51" cy="284" r="2.6" fill="#fff" opacity="0.28"/><circle cx="485" cy="544" r="0.9" fill="#fff" opacity="0.64"/><circle cx="334" cy="73" r="2.1" fill="#fff" opacity="0.26"/><circle cx="59" cy="50" r="2.4" fill="#fff" opacity="0.27"/><circle cx="393" cy="584" r="1.4" fill="#fff" opacity="0.60"/><circle cx="495" cy="337" r="1.6" fill="#fff" opacity="0.51"/><circle cx="478" cy="269" r="1.8" fill="#fff" opacity="0.58"/><circle cx="167" cy="633" r="1.2" fill="#fff" opacity="0.26"/><circle cx="125" cy="637" r="2.4" fill="#fff" opacity="0.32"/><circle cx="80" cy="301" r="2.3" fill="#fff" opacity="0.33"/><circle cx="189" cy="659" r="1.9" fill="#fff" opacity="0.63"/><circle cx="278" cy="44" r="2.2" fill="#fff" opacity="0.26"/><circle cx="429" cy="190" r="2.5" fill="#fff" opacity="0.38"/><circle cx="265" cy="305" r="2.4" fill="#fff" opacity="0.68"/><circle cx="9" cy="114" r="1.2" fill="#fff" opacity="0.50"/><circle cx="445" cy="366" r="1.3" fill="#fff" opacity="0.66"/><circle cx="114" cy="106" r="3.0" fill="#fff" opacity="0.48"/><circle cx="130" cy="488" r="2.6" fill="#fff" opacity="0.64"/></g>
  <path d="M0 590 C76 555 120 612 197 582 C277 551 327 614 413 581 C462 562 489 570 512 585 V768 H0Z" fill="#6d327d" opacity=".22"/>
  <ellipse cx="256" cy="662" rx="150" ry="34" fill="#6d327d" opacity=".28"/>
  <g transform="translate(0 122)">
    <path d="M149.4 435.54999999999995 C100.20000000000002 304.35 167.85000000000002 156.75 264.2 154.70000000000002 C379 150.60000000000002 420 298.2 352.35 435.54999999999995 C317.5 400.7 288.8 458.1 256 419.15 C221.15 458.1 188.35000000000002 400.7 149.4 435.54999999999995Z" fill="url(#body)" filter="url(#softShadow)"/><circle cx="219.1" cy="253.1" r="16.4" fill="#1b1638"/><circle cx="292.9" cy="253.1" r="16.4" fill="#1b1638"/><path d="M239.6 312.55 Q256 331 280.6 310.5" stroke="#1b1638" stroke-width="10.25" fill="none" stroke-linecap="round"/><path d="M126.85000000000002 326.9 C40.75000000000003 296.15 83.80000000000001 201.85000000000002 137.10000000000002 238.75" fill="#e056a7" opacity=".35"/><path d="M385.15 326.9 C471.25 296.15 428.2 201.85000000000002 374.9 238.75" fill="#e056a7" opacity=".35"/><path d="M215 201.85000000000002 Q256 224.4 297 201.85000000000002" stroke="#ffd0ec" stroke-width="10.25" fill="none" stroke-linecap="round" opacity=".8"/>
  </g>
  <path d="M74 126 C170 65 334 65 438 126" stroke="#fff" stroke-width="16" stroke-linecap="round" opacity=".16"/>
  <path d="M63 676 C162 718 344 718 449 662" stroke="#fff" stroke-width="14" stroke-linecap="round" opacity=".16"/>
</svg>