<svg xmlns="http://www.w3.org/2000/svg" viewBox="0 0 512 768" role="img" aria-label="流星之子 unique portrait">
  <defs>
    <linearGradient id="bg430" x1="0" y1="0" x2="1" y2="1"><stop offset="0" stop-color="#d8d3c4"/><stop offset=".55" stop-color="#8e8a7e"/><stop offset="1" stop-color="#f5f0df"/></linearGradient>
    <radialGradient id="body430" cx=".35" cy=".24" r=".78"><stop offset="0" stop-color="#fff" stop-opacity=".88"/><stop offset=".18" stop-color="#d8d3c4"/><stop offset=".68" stop-color="#8e8a7e"/><stop offset="1" stop-color="#f5f0df"/></radialGradient>
    <filter id="shadow430" x="-30%" y="-30%" width="160%" height="160%"><feDropShadow dx="0" dy="10" stdDeviation="9" flood-color="#f5f0df" flood-opacity=".36"/></filter>
  </defs>
  <rect width="512" height="768" rx="48" fill="url(#bg430)"/>
  <rect x="24" y="24" width="464" height="720" rx="40" fill="#fff" opacity=".08"/>
  <g opacity=".46"><circle cx="396" cy="549" r="1.2" fill="#fff" opacity="0.61"/><circle cx="370" cy="591" r="5.3" fill="#fff" opacity="0.45"/><circle cx="392" cy="379" r="3.1" fill="#fff" opacity="0.26"/><circle cx="228" cy="256" r="1.2" fill="#fff" opacity="0.57"/><circle cx="391" cy="328" r="1.5" fill="#fff" opacity="0.36"/><circle cx="185" cy="229" r="1.3" fill="#fff" opacity="0.51"/><circle cx="163" cy="502" r="5.2" fill="#fff" opacity="0.22"/><circle cx="363" cy="314" r="3.6" fill="#fff" opacity="0.32"/><circle cx="195" cy="338" r="3.7" fill="#fff" opacity="0.45"/><circle cx="390" cy="172" r="3.7" fill="#fff" opacity="0.63"/><circle cx="295" cy="307" r="2.9" fill="#fff" opacity="0.33"/><circle cx="142" cy="544" r="2.6" fill="#fff" opacity="0.56"/><circle cx="129" cy="196" r="3.1" fill="#fff" opacity="0.51"/><circle cx="214" cy="343" r="2.1" fill="#fff" opacity="0.56"/><circle cx="220" cy="393" r="5.4" fill="#fff" opacity="0.62"/><circle cx="70" cy="579" r="2.8" fill="#fff" opacity="0.49"/><circle cx="392" cy="613" r="1.7" fill="#fff" opacity="0.23"/><circle cx="399" cy="83" r="2.5" fill="#fff" opacity="0.53"/></g>
  <path d="M0 596 C80 558 128 616 202 584 C281 550 332 618 418 582 C464 563 492 570 512 586 V768 H0Z" fill="#f5f0df" opacity=".22"/>
  <ellipse cx="256" cy="664" rx="154" ry="36" fill="#f5f0df" opacity=".3"/>
  <g transform="translate(0 84)"><circle cx="256" cy="357" r="128" fill="url(#body430)" filter="url(#shadow430)"/><circle cx="256" cy="357" r="70" fill="#d8d3c4" opacity=".26"/>
    <circle cx="214" cy="336" r="17" fill="#f5f0df"/><circle cx="298" cy="336" r="17" fill="#f5f0df"/>
    <circle cx="208" cy="330" r="5" fill="#fff" opacity=".75"/><circle cx="292" cy="330" r="5" fill="#fff" opacity=".75"/>
    <path d="M214 248 Q256 284 298 248" stroke="#d8d3c4" stroke-width="14" fill="none" stroke-linecap="round" opacity=".74"/>
    <path d="M188 560 C228 600 288 600 326 560" stroke="#fff" stroke-width="12" stroke-linecap="round" opacity=".18" fill="none"/>
  </g>
  <path d="M72 128 C168 68 334 66 440 128" stroke="#fff" stroke-width="16" stroke-linecap="round" opacity=".16"/>
  <path d="M60 678 C164 722 348 718 452 662" stroke="#fff" stroke-width="14" stroke-linecap="round" opacity=".16"/>
</svg>