<svg xmlns="http://www.w3.org/2000/svg" viewBox="0 0 512 768" role="img" aria-label="奇迹之星 unique portrait">
  <defs>
    <linearGradient id="bg431" x1="0" y1="0" x2="1" y2="1"><stop offset="0" stop-color="#fff7ed"/><stop offset=".55" stop-color="#f59e0b"/><stop offset="1" stop-color="#111827"/></linearGradient>
    <radialGradient id="body431" cx=".35" cy=".24" r=".78"><stop offset="0" stop-color="#fff" stop-opacity=".88"/><stop offset=".18" stop-color="#fff7ed"/><stop offset=".68" stop-color="#f59e0b"/><stop offset="1" stop-color="#111827"/></radialGradient>
    <filter id="shadow431" x="-30%" y="-30%" width="160%" height="160%"><feDropShadow dx="0" dy="10" stdDeviation="9" flood-color="#111827" flood-opacity=".36"/></filter>
  </defs>
  <rect width="512" height="768" rx="48" fill="url(#bg431)"/>
  <rect x="24" y="24" width="464" height="720" rx="40" fill="#fff" opacity=".08"/>
  <g opacity=".46"><circle cx="452" cy="142" r="1.9" fill="#fff" opacity="0.61"/><circle cx="163" cy="338" r="2.0" fill="#fff" opacity="0.24"/><circle cx="311" cy="273" r="3.6" fill="#fff" opacity="0.56"/><circle cx="91" cy="263" r="3.3" fill="#fff" opacity="0.28"/><circle cx="227" cy="552" r="1.5" fill="#fff" opacity="0.59"/><circle cx="77" cy="443" r="2.2" fill="#fff" opacity="0.62"/><circle cx="294" cy="261" r="5.0" fill="#fff" opacity="0.58"/><circle cx="160" cy="333" r="2.8" fill="#fff" opacity="0.59"/><circle cx="232" cy="348" r="2.8" fill="#fff" opacity="0.53"/><circle cx="416" cy="557" r="4.0" fill="#fff" opacity="0.27"/><circle cx="284" cy="301" r="3.5" fill="#fff" opacity="0.35"/><circle cx="333" cy="176" r="2.9" fill="#fff" opacity="0.56"/><circle cx="433" cy="150" r="3.9" fill="#fff" opacity="0.32"/><circle cx="366" cy="375" r="4.3" fill="#fff" opacity="0.27"/><circle cx="382" cy="282" r="3.9" fill="#fff" opacity="0.52"/><circle cx="227" cy="223" r="3.7" fill="#fff" opacity="0.39"/><circle cx="437" cy="268" r="4.0" fill="#fff" opacity="0.57"/><circle cx="243" cy="441" r="1.8" fill="#fff" opacity="0.28"/><circle cx="105" cy="319" r="3.8" fill="#fff" opacity="0.36"/><circle cx="290" cy="374" r="2.1" fill="#fff" opacity="0.59"/><circle cx="148" cy="409" r="3.0" fill="#fff" opacity="0.30"/></g>
  <path d="M0 596 C80 558 128 616 202 584 C281 550 332 618 418 582 C464 563 492 570 512 586 V768 H0Z" fill="#111827" opacity=".22"/>
  <ellipse cx="256" cy="664" rx="154" ry="36" fill="#111827" opacity=".3"/>
  <g transform="translate(0 84)"><path d="M151 500 C116 338 160 190 256 170 C352 190 396 338 361 500 C320 466 291 532 256 490 C221 532 192 466 151 500Z" fill="url(#body431)" filter="url(#shadow431)"/>
    <circle cx="211" cy="335" r="17" fill="#101827"/><circle cx="301" cy="335" r="17" fill="#101827"/>
    <circle cx="205" cy="329" r="5" fill="#fff" opacity=".75"/><circle cx="295" cy="329" r="5" fill="#fff" opacity=".75"/>
    <path d="M206 410 Q256 442 306 410" stroke="#111827" stroke-width="12" fill="none" stroke-linecap="round" opacity=".72"/>
    <path d="M188 560 C228 600 288 600 326 560" stroke="#fff" stroke-width="12" stroke-linecap="round" opacity=".18" fill="none"/>
  </g>
  <path d="M72 128 C168 68 334 66 440 128" stroke="#fff" stroke-width="16" stroke-linecap="round" opacity=".16"/>
  <path d="M60 678 C164 722 348 718 452 662" stroke="#fff" stroke-width="14" stroke-linecap="round" opacity=".16"/>
</svg>