<svg xmlns="http://www.w3.org/2000/svg" viewBox="0 0 512 768" role="img" aria-label="虚无之主 original portrait">
  
  <defs>
    <linearGradient id="bgp434" x1="0" y1="0" x2="1" y2="1">
      <stop offset="0" stop-color="#9ba0bb"/>
      <stop offset=".55" stop-color="#4a4b68"/>
      <stop offset="1" stop-color="#171728"/>
    </linearGradient>
    <radialGradient id="body" cx=".36" cy=".25" r=".76">
      <stop offset="0" stop-color="#9ba0bb"/>
      <stop offset=".6" stop-color="#4a4b68"/>
      <stop offset="1" stop-color="#171728"/>
    </radialGradient>
    <radialGradient id="head" cx=".36" cy=".26" r=".72">
      <stop offset="0" stop-color="#ffffff" stop-opacity=".85"/>
      <stop offset=".2" stop-color="#9ba0bb"/>
      <stop offset=".72" stop-color="#4a4b68"/>
      <stop offset="1" stop-color="#171728"/>
    </radialGradient>
    <filter id="softShadow" x="-30%" y="-30%" width="160%" height="160%">
      <feDropShadow dx="0" dy="8" stdDeviation="8" flood-color="#171728" flood-opacity=".35"/>
    </filter>
  </defs>
  <rect width="512" height="768" rx="48" fill="url(#bgp434)"/>
  <rect x="24" y="24" width="464" height="720" rx="40" fill="#ffffff" opacity=".08"/>
  <g opacity=".42"><circle cx="42" cy="236" r="0.8" fill="#fff" opacity="0.33"/><circle cx="145" cy="653" r="2.0" fill="#fff" opacity="0.61"/><circle cx="135" cy="654" r="1.2" fill="#fff" opacity="0.62"/><circle cx="180" cy="550" r="2.6" fill="#fff" opacity="0.31"/><circle cx="152" cy="84" r="2.9" fill="#fff" opacity="0.39"/><circle cx="87" cy="239" r="3.0" fill="#fff" opacity="0.69"/><circle cx="68" cy="212" r="0.9" fill="#fff" opacity="0.58"/><circle cx="295" cy="609" r="1.5" fill="#fff" opacity="0.41"/><circle cx="60" cy="315" r="2.2" fill="#fff" opacity="0.26"/><circle cx="82" cy="733" r="1.7" fill="#fff" opacity="0.35"/><circle cx="29" cy="81" r="2.5" fill="#fff" opacity="0.47"/><circle cx="154" cy="103" r="1.9" fill="#fff" opacity="0.33"/><circle cx="494" cy="647" r="2.3" fill="#fff" opacity="0.31"/><circle cx="202" cy="30" r="2.8" fill="#fff" opacity="0.52"/><circle cx="9" cy="711" r="1.5" fill="#fff" opacity="0.60"/><circle cx="310" cy="520" r="3.0" fill="#fff" opacity="0.59"/><circle cx="2" cy="331" r="2.3" fill="#fff" opacity="0.31"/><circle cx="223" cy="515" r="1.2" fill="#fff" opacity="0.68"/><circle cx="424" cy="701" r="2.3" fill="#fff" opacity="0.61"/><circle cx="460" cy="618" r="1.1" fill="#fff" opacity="0.57"/><circle cx="500" cy="47" r="2.1" fill="#fff" opacity="0.33"/><circle cx="186" cy="756" r="1.8" fill="#fff" opacity="0.27"/><circle cx="276" cy="693" r="2.0" fill="#fff" opacity="0.66"/><circle cx="90" cy="696" r="3.0" fill="#fff" opacity="0.57"/><circle cx="13" cy="282" r="2.9" fill="#fff" opacity="0.66"/><circle cx="501" cy="376" r="2.3" fill="#fff" opacity="0.47"/><circle cx="271" cy="767" r="2.2" fill="#fff" opacity="0.50"/><circle cx="204" cy="670" r="2.1" fill="#fff" opacity="0.33"/></g>
  <circle cx="256" cy="294" r="202" fill="#9ba0bb" opacity=".12"/><circle cx="256" cy="294" r="160" fill="#fff" opacity=".1"/>
  <ellipse cx="256" cy="662" rx="150" ry="34" fill="#171728" opacity=".28"/>
  <g transform="translate(0 122)">
    <ellipse cx="256" cy="339.2" rx="100.44999999999999" ry="112.74999999999999" fill="url(#body)" filter="url(#softShadow)"/><circle cx="256" cy="226.45" r="79.94999999999999" fill="url(#head)"/><ellipse cx="256" cy="214.15" rx="139.39999999999998" ry="36.9" fill="none" stroke="#9ba0bb" stroke-width="14.349999999999998" opacity=".75" transform="rotate(-12 256 214.15)"/><path d="M256 103.45000000000002 L276.5 154.70000000000002 L333.9 156.75 L286.75 187.5 L303.15 242.85 L256 208 L208.85 242.85 L225.25 187.5 L178.10000000000002 156.75 L235.5 154.70000000000002 Z" fill="#4a4b68"/><ellipse cx="223.2" cy="253.1" rx="14.349999999999998" ry="16.4" fill="#14213d"/><ellipse cx="288.8" cy="253.1" rx="14.349999999999998" ry="16.4" fill="#14213d"/><circle cx="229.35" cy="244.9" r="4.714999999999999" fill="#fff"/><circle cx="294.95" cy="244.9" r="4.714999999999999" fill="#fff"/><circle cx="256" cy="210.05" r="14.349999999999998" fill="#9ba0bb" opacity=".9"/>
  </g>
  <path d="M74 126 C170 65 334 65 438 126" stroke="#fff" stroke-width="16" stroke-linecap="round" opacity=".16"/>
  <path d="M63 676 C162 718 344 718 449 662" stroke="#fff" stroke-width="14" stroke-linecap="round" opacity=".16"/>
</svg>