<svg xmlns="http://www.w3.org/2000/svg" viewBox="0 0 512 768" role="img" aria-label="格斗勇士 original portrait">
  
  <defs>
    <linearGradient id="bgp436" x1="0" y1="0" x2="1" y2="1">
      <stop offset="0" stop-color="#ffc0a6"/>
      <stop offset=".55" stop-color="#d95f3d"/>
      <stop offset="1" stop-color="#7a271d"/>
    </linearGradient>
    <radialGradient id="body" cx=".36" cy=".25" r=".76">
      <stop offset="0" stop-color="#ffc0a6"/>
      <stop offset=".6" stop-color="#d95f3d"/>
      <stop offset="1" stop-color="#7a271d"/>
    </radialGradient>
    <radialGradient id="head" cx=".36" cy=".26" r=".72">
      <stop offset="0" stop-color="#ffffff" stop-opacity=".85"/>
      <stop offset=".2" stop-color="#ffc0a6"/>
      <stop offset=".72" stop-color="#d95f3d"/>
      <stop offset="1" stop-color="#7a271d"/>
    </radialGradient>
    <filter id="softShadow" x="-30%" y="-30%" width="160%" height="160%">
      <feDropShadow dx="0" dy="8" stdDeviation="8" flood-color="#7a271d" flood-opacity=".35"/>
    </filter>
  </defs>
  <rect width="512" height="768" rx="48" fill="url(#bgp436)"/>
  <rect x="24" y="24" width="464" height="720" rx="40" fill="#ffffff" opacity=".08"/>
  <g opacity=".42"><circle cx="147" cy="715" r="1.9" fill="#fff" opacity="0.52"/><circle cx="103" cy="557" r="2.6" fill="#fff" opacity="0.51"/><circle cx="106" cy="569" r="1.8" fill="#fff" opacity="0.26"/><circle cx="469" cy="208" r="1.7" fill="#fff" opacity="0.42"/><circle cx="462" cy="51" r="2.8" fill="#fff" opacity="0.32"/><circle cx="455" cy="343" r="2.0" fill="#fff" opacity="0.64"/><circle cx="322" cy="389" r="1.6" fill="#fff" opacity="0.33"/><circle cx="174" cy="89" r="3.1" fill="#fff" opacity="0.56"/><circle cx="20" cy="225" r="2.1" fill="#fff" opacity="0.61"/><circle cx="211" cy="580" r="1.4" fill="#fff" opacity="0.45"/><circle cx="391" cy="656" r="2.0" fill="#fff" opacity="0.66"/><circle cx="221" cy="547" r="2.6" fill="#fff" opacity="0.50"/><circle cx="106" cy="393" r="1.5" fill="#fff" opacity="0.52"/><circle cx="71" cy="400" r="2.9" fill="#fff" opacity="0.69"/><circle cx="207" cy="185" r="2.7" fill="#fff" opacity="0.67"/><circle cx="343" cy="722" r="1.8" fill="#fff" opacity="0.44"/><circle cx="297" cy="467" r="3.1" fill="#fff" opacity="0.51"/><circle cx="300" cy="466" r="1.9" fill="#fff" opacity="0.65"/><circle cx="16" cy="730" r="1.6" fill="#fff" opacity="0.49"/><circle cx="69" cy="127" r="2.2" fill="#fff" opacity="0.61"/><circle cx="26" cy="445" r="2.9" fill="#fff" opacity="0.50"/><circle cx="122" cy="213" r="1.6" fill="#fff" opacity="0.67"/><circle cx="185" cy="91" r="1.5" fill="#fff" opacity="0.47"/><circle cx="16" cy="440" r="1.5" fill="#fff" opacity="0.30"/><circle cx="20" cy="683" r="1.0" fill="#fff" opacity="0.34"/><circle cx="262" cy="224" r="1.6" fill="#fff" opacity="0.63"/><circle cx="22" cy="491" r="3.1" fill="#fff" opacity="0.68"/><circle cx="294" cy="496" r="1.8" fill="#fff" opacity="0.29"/></g>
  <path d="M38 684 C128 596 386 596 475 684 V768 H38Z" fill="#7a271d" opacity=".17"/>
  <ellipse cx="256" cy="662" rx="150" ry="34" fill="#7a271d" opacity=".28"/>
  <g transform="translate(0 122)">
    <ellipse cx="256" cy="359.7" rx="110.69999999999999" ry="100.44999999999999" fill="url(#body)" filter="url(#softShadow)"/><circle cx="256" cy="232.60000000000002" r="86.1" fill="url(#head)"/><path d="M149.4 322.8 C51.00000000000003 304.35 85.85000000000002 423.25 165.8 402.75" fill="#7a271d"/><path d="M362.6 322.8 C461 304.35 426.15 423.25 346.2 402.75" fill="#7a271d"/><path d="M200.65 148.55 H311.35 L331.85 195.7 Q256 224.4 180.15 195.7 Z" fill="#ffc0a6" opacity=".85"/><ellipse cx="223.2" cy="253.1" rx="14.349999999999998" ry="16.4" fill="#14213d"/><ellipse cx="288.8" cy="253.1" rx="14.349999999999998" ry="16.4" fill="#14213d"/><circle cx="229.35" cy="244.9" r="4.714999999999999" fill="#fff"/><circle cx="294.95" cy="244.9" r="4.714999999999999" fill="#fff"/><circle cx="256" cy="210.05" r="14.349999999999998" fill="#ffc0a6" opacity=".9"/>
  </g>
  <path d="M74 126 C170 65 334 65 438 126" stroke="#fff" stroke-width="16" stroke-linecap="round" opacity=".16"/>
  <path d="M63 676 C162 718 344 718 449 662" stroke="#fff" stroke-width="14" stroke-linecap="round" opacity=".16"/>
</svg>