<svg xmlns="http://www.w3.org/2000/svg" viewBox="0 0 512 768" role="img" aria-label="彩翼天蛾 original portrait">
  
  <defs>
    <linearGradient id="bgp440" x1="0" y1="0" x2="1" y2="1">
      <stop offset="0" stop-color="#d9f67f"/>
      <stop offset=".55" stop-color="#86bd2d"/>
      <stop offset="1" stop-color="#3f6c1b"/>
    </linearGradient>
    <radialGradient id="body" cx=".36" cy=".25" r=".76">
      <stop offset="0" stop-color="#d9f67f"/>
      <stop offset=".6" stop-color="#86bd2d"/>
      <stop offset="1" stop-color="#3f6c1b"/>
    </radialGradient>
    <radialGradient id="head" cx=".36" cy=".26" r=".72">
      <stop offset="0" stop-color="#ffffff" stop-opacity=".85"/>
      <stop offset=".2" stop-color="#d9f67f"/>
      <stop offset=".72" stop-color="#86bd2d"/>
      <stop offset="1" stop-color="#3f6c1b"/>
    </radialGradient>
    <filter id="softShadow" x="-30%" y="-30%" width="160%" height="160%">
      <feDropShadow dx="0" dy="8" stdDeviation="8" flood-color="#3f6c1b" flood-opacity=".35"/>
    </filter>
  </defs>
  <rect width="512" height="768" rx="48" fill="url(#bgp440)"/>
  <rect x="24" y="24" width="464" height="720" rx="40" fill="#ffffff" opacity=".08"/>
  <g opacity=".42"><circle cx="343" cy="754" r="1.7" fill="#fff" opacity="0.29"/><circle cx="433" cy="314" r="2.6" fill="#fff" opacity="0.40"/><circle cx="27" cy="241" r="2.0" fill="#fff" opacity="0.34"/><circle cx="419" cy="377" r="1.1" fill="#fff" opacity="0.31"/><circle cx="132" cy="470" r="1.4" fill="#fff" opacity="0.55"/><circle cx="467" cy="515" r="2.4" fill="#fff" opacity="0.65"/><circle cx="311" cy="587" r="2.5" fill="#fff" opacity="0.59"/><circle cx="199" cy="252" r="2.3" fill="#fff" opacity="0.68"/><circle cx="374" cy="292" r="2.6" fill="#fff" opacity="0.48"/><circle cx="464" cy="626" r="1.1" fill="#fff" opacity="0.32"/><circle cx="443" cy="720" r="2.2" fill="#fff" opacity="0.32"/><circle cx="149" cy="573" r="3.0" fill="#fff" opacity="0.70"/><circle cx="361" cy="121" r="1.1" fill="#fff" opacity="0.40"/><circle cx="24" cy="339" r="1.7" fill="#fff" opacity="0.68"/><circle cx="235" cy="199" r="2.8" fill="#fff" opacity="0.32"/><circle cx="116" cy="692" r="3.0" fill="#fff" opacity="0.42"/><circle cx="100" cy="293" r="2.5" fill="#fff" opacity="0.60"/><circle cx="409" cy="755" r="2.5" fill="#fff" opacity="0.63"/><circle cx="3" cy="297" r="1.7" fill="#fff" opacity="0.39"/><circle cx="453" cy="205" r="2.0" fill="#fff" opacity="0.53"/><circle cx="335" cy="39" r="1.0" fill="#fff" opacity="0.50"/><circle cx="155" cy="28" r="2.4" fill="#fff" opacity="0.46"/><circle cx="286" cy="171" r="2.1" fill="#fff" opacity="0.51"/><circle cx="283" cy="304" r="2.2" fill="#fff" opacity="0.62"/><circle cx="368" cy="232" r="1.1" fill="#fff" opacity="0.53"/><circle cx="443" cy="640" r="3.0" fill="#fff" opacity="0.56"/><circle cx="221" cy="696" r="2.1" fill="#fff" opacity="0.26"/><circle cx="229" cy="116" r="2.8" fill="#fff" opacity="0.58"/></g>
  <path d="M0 620 C92 590 171 620 259 600 C357 577 432 594 512 565 V768 H0Z" fill="#fff" opacity=".18"/>
  <ellipse cx="256" cy="662" rx="150" ry="34" fill="#3f6c1b" opacity=".28"/>
  <g transform="translate(0 122)">
    <path d="M219.1 306.4 C65.35000000000002 187.5 67.4 392.5 206.8 400.7" fill="#86bd2d" opacity=".78"/><path d="M292.9 306.4 C446.65 187.5 444.6 392.5 305.2 400.7" fill="#86bd2d" opacity=".78"/><ellipse cx="256" cy="343.3" rx="86.1" ry="110.69999999999999" fill="url(#body)" filter="url(#softShadow)"/><circle cx="256" cy="228.5" r="77.89999999999999" fill="url(#head)"/><path d="M245.75 226.45 L331.85 249 L249.85 269.5 Z" fill="#d9f67f"/><path d="M210.9 154.70000000000002 C239.6 89.10000000000002 280.6 109.60000000000002 260.1 167" fill="#3f6c1b" opacity=".85"/><ellipse cx="223.2" cy="253.1" rx="14.349999999999998" ry="16.4" fill="#14213d"/><ellipse cx="288.8" cy="253.1" rx="14.349999999999998" ry="16.4" fill="#14213d"/><circle cx="229.35" cy="244.9" r="4.714999999999999" fill="#fff"/><circle cx="294.95" cy="244.9" r="4.714999999999999" fill="#fff"/><path d="M215 201.85000000000002 Q256 224.4 297 201.85000000000002" stroke="#d9f67f" stroke-width="10.25" fill="none" stroke-linecap="round" opacity=".8"/>
  </g>
  <path d="M74 126 C170 65 334 65 438 126" stroke="#fff" stroke-width="16" stroke-linecap="round" opacity=".16"/>
  <path d="M63 676 C162 718 344 718 449 662" stroke="#fff" stroke-width="14" stroke-linecap="round" opacity=".16"/>
</svg>