<svg xmlns="http://www.w3.org/2000/svg" viewBox="0 0 512 768" role="img" aria-label="暴风之翼 original portrait">
  
  <defs>
    <linearGradient id="bgp443" x1="0" y1="0" x2="1" y2="1">
      <stop offset="0" stop-color="#d9edff"/>
      <stop offset=".55" stop-color="#82b7ff"/>
      <stop offset="1" stop-color="#4260ad"/>
    </linearGradient>
    <radialGradient id="body" cx=".36" cy=".25" r=".76">
      <stop offset="0" stop-color="#d9edff"/>
      <stop offset=".6" stop-color="#82b7ff"/>
      <stop offset="1" stop-color="#4260ad"/>
    </radialGradient>
    <radialGradient id="head" cx=".36" cy=".26" r=".72">
      <stop offset="0" stop-color="#ffffff" stop-opacity=".85"/>
      <stop offset=".2" stop-color="#d9edff"/>
      <stop offset=".72" stop-color="#82b7ff"/>
      <stop offset="1" stop-color="#4260ad"/>
    </radialGradient>
    <filter id="softShadow" x="-30%" y="-30%" width="160%" height="160%">
      <feDropShadow dx="0" dy="8" stdDeviation="8" flood-color="#4260ad" flood-opacity=".35"/>
    </filter>
  </defs>
  <rect width="512" height="768" rx="48" fill="url(#bgp443)"/>
  <rect x="24" y="24" width="464" height="720" rx="40" fill="#ffffff" opacity=".08"/>
  <g opacity=".42"><circle cx="163" cy="67" r="1.2" fill="#fff" opacity="0.66"/><circle cx="330" cy="219" r="2.5" fill="#fff" opacity="0.61"/><circle cx="283" cy="483" r="2.4" fill="#fff" opacity="0.60"/><circle cx="512" cy="465" r="2.9" fill="#fff" opacity="0.46"/><circle cx="205" cy="159" r="0.9" fill="#fff" opacity="0.66"/><circle cx="463" cy="164" r="2.3" fill="#fff" opacity="0.29"/><circle cx="432" cy="526" r="1.8" fill="#fff" opacity="0.60"/><circle cx="317" cy="656" r="2.0" fill="#fff" opacity="0.33"/><circle cx="134" cy="41" r="2.3" fill="#fff" opacity="0.44"/><circle cx="44" cy="667" r="0.9" fill="#fff" opacity="0.27"/><circle cx="89" cy="215" r="1.8" fill="#fff" opacity="0.67"/><circle cx="165" cy="248" r="2.7" fill="#fff" opacity="0.52"/><circle cx="39" cy="645" r="2.1" fill="#fff" opacity="0.39"/><circle cx="239" cy="177" r="1.9" fill="#fff" opacity="0.53"/><circle cx="3" cy="119" r="1.7" fill="#fff" opacity="0.54"/><circle cx="286" cy="8" r="1.6" fill="#fff" opacity="0.47"/><circle cx="45" cy="625" r="2.7" fill="#fff" opacity="0.49"/><circle cx="21" cy="90" r="2.2" fill="#fff" opacity="0.56"/><circle cx="315" cy="464" r="1.1" fill="#fff" opacity="0.33"/><circle cx="198" cy="77" r="3.2" fill="#fff" opacity="0.32"/><circle cx="270" cy="398" r="1.3" fill="#fff" opacity="0.35"/><circle cx="263" cy="671" r="2.9" fill="#fff" opacity="0.50"/><circle cx="224" cy="246" r="2.5" fill="#fff" opacity="0.29"/><circle cx="192" cy="82" r="3.0" fill="#fff" opacity="0.41"/><circle cx="498" cy="455" r="1.3" fill="#fff" opacity="0.44"/><circle cx="73" cy="428" r="1.2" fill="#fff" opacity="0.32"/><circle cx="380" cy="281" r="1.9" fill="#fff" opacity="0.64"/><circle cx="347" cy="204" r="2.9" fill="#fff" opacity="0.38"/></g>
  <path d="M0 620 C92 590 171 620 259 600 C357 577 432 594 512 565 V768 H0Z" fill="#fff" opacity=".18"/>
  <ellipse cx="256" cy="662" rx="150" ry="34" fill="#4260ad" opacity=".28"/>
  <g transform="translate(0 122)">
    <path d="M219.1 306.4 C65.35000000000002 187.5 67.4 392.5 206.8 400.7" fill="#82b7ff" opacity=".78"/><path d="M292.9 306.4 C446.65 187.5 444.6 392.5 305.2 400.7" fill="#82b7ff" opacity=".78"/><ellipse cx="256" cy="343.3" rx="86.1" ry="110.69999999999999" fill="url(#body)" filter="url(#softShadow)"/><circle cx="256" cy="228.5" r="77.89999999999999" fill="url(#head)"/><path d="M245.75 226.45 L331.85 249 L249.85 269.5 Z" fill="#d9edff"/><path d="M210.9 154.70000000000002 C239.6 89.10000000000002 280.6 109.60000000000002 260.1 167" fill="#4260ad" opacity=".85"/><ellipse cx="223.2" cy="253.1" rx="14.349999999999998" ry="16.4" fill="#14213d"/><ellipse cx="288.8" cy="253.1" rx="14.349999999999998" ry="16.4" fill="#14213d"/><circle cx="229.35" cy="244.9" r="4.714999999999999" fill="#fff"/><circle cx="294.95" cy="244.9" r="4.714999999999999" fill="#fff"/><path d="M215 201.85000000000002 Q256 224.4 297 201.85000000000002" stroke="#d9edff" stroke-width="10.25" fill="none" stroke-linecap="round" opacity=".8"/>
  </g>
  <path d="M74 126 C170 65 334 65 438 126" stroke="#fff" stroke-width="16" stroke-linecap="round" opacity=".16"/>
  <path d="M63 676 C162 718 344 718 449 662" stroke="#fff" stroke-width="14" stroke-linecap="round" opacity=".16"/>
</svg>