<svg xmlns="http://www.w3.org/2000/svg" viewBox="0 0 512 768" role="img" aria-label="花蕾精 original portrait">
  
  <defs>
    <linearGradient id="bgp444" x1="0" y1="0" x2="1" y2="1">
      <stop offset="0" stop-color="#ffd7f3"/>
      <stop offset=".55" stop-color="#f47ac2"/>
      <stop offset="1" stop-color="#8e3b89"/>
    </linearGradient>
    <radialGradient id="body" cx=".36" cy=".25" r=".76">
      <stop offset="0" stop-color="#ffd7f3"/>
      <stop offset=".6" stop-color="#f47ac2"/>
      <stop offset="1" stop-color="#8e3b89"/>
    </radialGradient>
    <radialGradient id="head" cx=".36" cy=".26" r=".72">
      <stop offset="0" stop-color="#ffffff" stop-opacity=".85"/>
      <stop offset=".2" stop-color="#ffd7f3"/>
      <stop offset=".72" stop-color="#f47ac2"/>
      <stop offset="1" stop-color="#8e3b89"/>
    </radialGradient>
    <filter id="softShadow" x="-30%" y="-30%" width="160%" height="160%">
      <feDropShadow dx="0" dy="8" stdDeviation="8" flood-color="#8e3b89" flood-opacity=".35"/>
    </filter>
  </defs>
  <rect width="512" height="768" rx="48" fill="url(#bgp444)"/>
  <rect x="24" y="24" width="464" height="720" rx="40" fill="#ffffff" opacity=".08"/>
  <g opacity=".42"><circle cx="469" cy="62" r="2.1" fill="#fff" opacity="0.57"/><circle cx="401" cy="545" r="1.8" fill="#fff" opacity="0.28"/><circle cx="398" cy="87" r="2.7" fill="#fff" opacity="0.68"/><circle cx="152" cy="527" r="2.4" fill="#fff" opacity="0.54"/><circle cx="496" cy="576" r="1.9" fill="#fff" opacity="0.59"/><circle cx="211" cy="156" r="1.2" fill="#fff" opacity="0.59"/><circle cx="300" cy="348" r="2.8" fill="#fff" opacity="0.35"/><circle cx="15" cy="341" r="2.2" fill="#fff" opacity="0.60"/><circle cx="452" cy="242" r="1.6" fill="#fff" opacity="0.40"/><circle cx="347" cy="462" r="1.8" fill="#fff" opacity="0.63"/><circle cx="296" cy="383" r="2.7" fill="#fff" opacity="0.61"/><circle cx="466" cy="124" r="0.9" fill="#fff" opacity="0.56"/><circle cx="137" cy="588" r="1.2" fill="#fff" opacity="0.61"/><circle cx="243" cy="65" r="2.9" fill="#fff" opacity="0.44"/><circle cx="361" cy="253" r="1.4" fill="#fff" opacity="0.31"/><circle cx="395" cy="669" r="1.0" fill="#fff" opacity="0.28"/><circle cx="146" cy="212" r="0.9" fill="#fff" opacity="0.48"/><circle cx="476" cy="698" r="1.6" fill="#fff" opacity="0.38"/><circle cx="431" cy="60" r="1.5" fill="#fff" opacity="0.32"/><circle cx="361" cy="125" r="2.8" fill="#fff" opacity="0.49"/><circle cx="435" cy="94" r="0.8" fill="#fff" opacity="0.25"/><circle cx="310" cy="292" r="1.8" fill="#fff" opacity="0.28"/><circle cx="137" cy="314" r="1.0" fill="#fff" opacity="0.55"/><circle cx="64" cy="693" r="1.3" fill="#fff" opacity="0.63"/><circle cx="406" cy="581" r="3.2" fill="#fff" opacity="0.46"/><circle cx="449" cy="177" r="0.8" fill="#fff" opacity="0.47"/><circle cx="1" cy="570" r="1.4" fill="#fff" opacity="0.44"/><circle cx="130" cy="78" r="2.4" fill="#fff" opacity="0.69"/></g>
  <path d="M18 704 C124 595 205 659 256 580 C314 666 392 596 494 704 V768 H18Z" fill="#8e3b89" opacity=".18"/>
  <ellipse cx="256" cy="662" rx="150" ry="34" fill="#8e3b89" opacity=".28"/>
  <g transform="translate(0 122)">
    <path d="M231.4 400.7 C128.9 376.1 83.80000000000001 265.4 198.60000000000002 275.65" fill="#f47ac2" opacity=".82"/><path d="M280.6 400.7 C383.1 376.1 428.2 265.4 313.4 275.65" fill="#f47ac2" opacity=".82"/><ellipse cx="256" cy="339.2" rx="98.39999999999999" ry="116.85" fill="url(#body)" filter="url(#softShadow)"/><path d="M256 138.3 C169.9 175.20000000000002 161.7 259.25 256 251.05 C350.3 259.25 342.1 175.20000000000002 256 138.3Z" fill="#ffd7f3"/><circle cx="256" cy="253.1" r="77.89999999999999" fill="url(#head)"/><ellipse cx="223.2" cy="253.1" rx="14.349999999999998" ry="16.4" fill="#14213d"/><ellipse cx="288.8" cy="253.1" rx="14.349999999999998" ry="16.4" fill="#14213d"/><circle cx="229.35" cy="244.9" r="4.714999999999999" fill="#fff"/><circle cx="294.95" cy="244.9" r="4.714999999999999" fill="#fff"/><circle cx="256" cy="210.05" r="14.349999999999998" fill="#ffd7f3" opacity=".9"/>
  </g>
  <path d="M74 126 C170 65 334 65 438 126" stroke="#fff" stroke-width="16" stroke-linecap="round" opacity=".16"/>
  <path d="M63 676 C162 718 344 718 449 662" stroke="#fff" stroke-width="14" stroke-linecap="round" opacity=".16"/>
</svg>