<svg xmlns="http://www.w3.org/2000/svg" viewBox="0 0 512 768" role="img" aria-label="百花女王 original portrait">
  
  <defs>
    <linearGradient id="bgp446" x1="0" y1="0" x2="1" y2="1">
      <stop offset="0" stop-color="#ffd7f3"/>
      <stop offset=".55" stop-color="#f47ac2"/>
      <stop offset="1" stop-color="#8e3b89"/>
    </linearGradient>
    <radialGradient id="body" cx=".36" cy=".25" r=".76">
      <stop offset="0" stop-color="#ffd7f3"/>
      <stop offset=".6" stop-color="#f47ac2"/>
      <stop offset="1" stop-color="#8e3b89"/>
    </radialGradient>
    <radialGradient id="head" cx=".36" cy=".26" r=".72">
      <stop offset="0" stop-color="#ffffff" stop-opacity=".85"/>
      <stop offset=".2" stop-color="#ffd7f3"/>
      <stop offset=".72" stop-color="#f47ac2"/>
      <stop offset="1" stop-color="#8e3b89"/>
    </radialGradient>
    <filter id="softShadow" x="-30%" y="-30%" width="160%" height="160%">
      <feDropShadow dx="0" dy="8" stdDeviation="8" flood-color="#8e3b89" flood-opacity=".35"/>
    </filter>
  </defs>
  <rect width="512" height="768" rx="48" fill="url(#bgp446)"/>
  <rect x="24" y="24" width="464" height="720" rx="40" fill="#ffffff" opacity=".08"/>
  <g opacity=".42"><circle cx="123" cy="521" r="0.9" fill="#fff" opacity="0.58"/><circle cx="415" cy="479" r="1.1" fill="#fff" opacity="0.34"/><circle cx="19" cy="611" r="3.0" fill="#fff" opacity="0.27"/><circle cx="490" cy="84" r="2.9" fill="#fff" opacity="0.44"/><circle cx="44" cy="23" r="2.1" fill="#fff" opacity="0.55"/><circle cx="428" cy="425" r="2.6" fill="#fff" opacity="0.45"/><circle cx="147" cy="8" r="2.5" fill="#fff" opacity="0.40"/><circle cx="46" cy="355" r="1.8" fill="#fff" opacity="0.44"/><circle cx="335" cy="48" r="2.2" fill="#fff" opacity="0.61"/><circle cx="472" cy="607" r="3.1" fill="#fff" opacity="0.34"/><circle cx="412" cy="97" r="1.9" fill="#fff" opacity="0.31"/><circle cx="495" cy="272" r="1.0" fill="#fff" opacity="0.65"/><circle cx="506" cy="206" r="2.5" fill="#fff" opacity="0.43"/><circle cx="223" cy="350" r="1.3" fill="#fff" opacity="0.53"/><circle cx="15" cy="48" r="1.3" fill="#fff" opacity="0.40"/><circle cx="486" cy="407" r="2.5" fill="#fff" opacity="0.41"/><circle cx="446" cy="680" r="1.7" fill="#fff" opacity="0.32"/><circle cx="269" cy="72" r="2.0" fill="#fff" opacity="0.48"/><circle cx="142" cy="297" r="1.2" fill="#fff" opacity="0.61"/><circle cx="385" cy="41" r="2.6" fill="#fff" opacity="0.70"/><circle cx="117" cy="26" r="2.0" fill="#fff" opacity="0.42"/><circle cx="493" cy="60" r="1.6" fill="#fff" opacity="0.50"/><circle cx="432" cy="281" r="2.3" fill="#fff" opacity="0.63"/><circle cx="40" cy="529" r="2.3" fill="#fff" opacity="0.47"/><circle cx="490" cy="549" r="1.5" fill="#fff" opacity="0.54"/><circle cx="53" cy="51" r="2.6" fill="#fff" opacity="0.63"/><circle cx="466" cy="647" r="1.4" fill="#fff" opacity="0.41"/><circle cx="108" cy="366" r="2.7" fill="#fff" opacity="0.39"/></g>
  <path d="M18 704 C124 595 205 659 256 580 C314 666 392 596 494 704 V768 H18Z" fill="#8e3b89" opacity=".18"/>
  <ellipse cx="256" cy="662" rx="150" ry="34" fill="#8e3b89" opacity=".28"/>
  <g transform="translate(0 122)">
    <path d="M231.4 400.7 C128.9 376.1 83.80000000000001 265.4 198.60000000000002 275.65" fill="#f47ac2" opacity=".82"/><path d="M280.6 400.7 C383.1 376.1 428.2 265.4 313.4 275.65" fill="#f47ac2" opacity=".82"/><ellipse cx="256" cy="339.2" rx="98.39999999999999" ry="116.85" fill="url(#body)" filter="url(#softShadow)"/><path d="M256 138.3 C169.9 175.20000000000002 161.7 259.25 256 251.05 C350.3 259.25 342.1 175.20000000000002 256 138.3Z" fill="#ffd7f3"/><circle cx="256" cy="253.1" r="77.89999999999999" fill="url(#head)"/><ellipse cx="223.2" cy="253.1" rx="14.349999999999998" ry="16.4" fill="#14213d"/><ellipse cx="288.8" cy="253.1" rx="14.349999999999998" ry="16.4" fill="#14213d"/><circle cx="229.35" cy="244.9" r="4.714999999999999" fill="#fff"/><circle cx="294.95" cy="244.9" r="4.714999999999999" fill="#fff"/><circle cx="256" cy="210.05" r="14.349999999999998" fill="#ffd7f3" opacity=".9"/>
  </g>
  <path d="M74 126 C170 65 334 65 438 126" stroke="#fff" stroke-width="16" stroke-linecap="round" opacity=".16"/>
  <path d="M63 676 C162 718 344 718 449 662" stroke="#fff" stroke-width="14" stroke-linecap="round" opacity=".16"/>
</svg>