<svg xmlns="http://www.w3.org/2000/svg" viewBox="0 0 512 768" role="img" aria-label="掘地鼠 original portrait">
  
  <defs>
    <linearGradient id="bgp453" x1="0" y1="0" x2="1" y2="1">
      <stop offset="0" stop-color="#e9c68f"/>
      <stop offset=".55" stop-color="#a0713d"/>
      <stop offset="1" stop-color="#5a3b22"/>
    </linearGradient>
    <radialGradient id="body" cx=".36" cy=".25" r=".76">
      <stop offset="0" stop-color="#e9c68f"/>
      <stop offset=".6" stop-color="#a0713d"/>
      <stop offset="1" stop-color="#5a3b22"/>
    </radialGradient>
    <radialGradient id="head" cx=".36" cy=".26" r=".72">
      <stop offset="0" stop-color="#ffffff" stop-opacity=".85"/>
      <stop offset=".2" stop-color="#e9c68f"/>
      <stop offset=".72" stop-color="#a0713d"/>
      <stop offset="1" stop-color="#5a3b22"/>
    </radialGradient>
    <filter id="softShadow" x="-30%" y="-30%" width="160%" height="160%">
      <feDropShadow dx="0" dy="8" stdDeviation="8" flood-color="#5a3b22" flood-opacity=".35"/>
    </filter>
  </defs>
  <rect width="512" height="768" rx="48" fill="url(#bgp453)"/>
  <rect x="24" y="24" width="464" height="720" rx="40" fill="#ffffff" opacity=".08"/>
  <g opacity=".42"><circle cx="431" cy="255" r="1.3" fill="#fff" opacity="0.38"/><circle cx="323" cy="759" r="2.6" fill="#fff" opacity="0.36"/><circle cx="383" cy="511" r="2.7" fill="#fff" opacity="0.46"/><circle cx="474" cy="558" r="1.8" fill="#fff" opacity="0.41"/><circle cx="1" cy="602" r="1.9" fill="#fff" opacity="0.33"/><circle cx="241" cy="507" r="1.1" fill="#fff" opacity="0.69"/><circle cx="431" cy="372" r="0.9" fill="#fff" opacity="0.28"/><circle cx="41" cy="31" r="2.2" fill="#fff" opacity="0.37"/><circle cx="319" cy="97" r="1.2" fill="#fff" opacity="0.31"/><circle cx="455" cy="171" r="2.0" fill="#fff" opacity="0.69"/><circle cx="280" cy="524" r="1.2" fill="#fff" opacity="0.28"/><circle cx="378" cy="382" r="1.3" fill="#fff" opacity="0.46"/><circle cx="370" cy="29" r="2.5" fill="#fff" opacity="0.38"/><circle cx="56" cy="195" r="1.1" fill="#fff" opacity="0.51"/><circle cx="480" cy="471" r="2.6" fill="#fff" opacity="0.39"/><circle cx="242" cy="471" r="0.9" fill="#fff" opacity="0.34"/><circle cx="378" cy="232" r="1.4" fill="#fff" opacity="0.55"/><circle cx="372" cy="208" r="2.5" fill="#fff" opacity="0.44"/><circle cx="140" cy="14" r="0.8" fill="#fff" opacity="0.52"/><circle cx="373" cy="111" r="0.9" fill="#fff" opacity="0.44"/><circle cx="189" cy="352" r="2.2" fill="#fff" opacity="0.36"/><circle cx="511" cy="312" r="1.5" fill="#fff" opacity="0.39"/><circle cx="201" cy="383" r="2.5" fill="#fff" opacity="0.30"/><circle cx="394" cy="627" r="2.0" fill="#fff" opacity="0.61"/><circle cx="504" cy="194" r="1.2" fill="#fff" opacity="0.40"/><circle cx="423" cy="747" r="2.7" fill="#fff" opacity="0.70"/><circle cx="460" cy="153" r="2.8" fill="#fff" opacity="0.52"/><circle cx="133" cy="353" r="2.6" fill="#fff" opacity="0.69"/></g>
  <path d="M0 670 C96 613 167 665 256 620 C337 660 421 608 512 662 V768 H0Z" fill="#5a3b22" opacity=".15"/>
  <ellipse cx="256" cy="662" rx="150" ry="34" fill="#5a3b22" opacity=".28"/>
  <g transform="translate(0 122)">
    <path d="M159.65 347.4 C69.45000000000002 322.8 92 222.35000000000002 165.8 263.35" stroke="#a0713d" stroke-width="28.699999999999996" fill="none" stroke-linecap="round" opacity=".76"/><ellipse cx="256" cy="353.55" rx="108.64999999999999" ry="102.49999999999999" fill="url(#body)" filter="url(#softShadow)"/><path d="M184.25 212.10000000000002 L137.10000000000002 115.75000000000003 L231.4 175.20000000000002 Z" fill="#a0713d"/><path d="M327.75 212.10000000000002 L374.9 115.75000000000003 L280.6 175.20000000000002 Z" fill="#a0713d"/><circle cx="256" cy="234.65" r="92.24999999999999" fill="url(#head)"/><ellipse cx="221.15" cy="251.05" rx="16.4" ry="20.5" fill="#182033"/><ellipse cx="290.85" cy="251.05" rx="16.4" ry="20.5" fill="#182033"/><ellipse cx="223.2" cy="253.1" rx="14.349999999999998" ry="16.4" fill="#14213d"/><ellipse cx="288.8" cy="253.1" rx="14.349999999999998" ry="16.4" fill="#14213d"/><circle cx="229.35" cy="244.9" r="4.714999999999999" fill="#fff"/><circle cx="294.95" cy="244.9" r="4.714999999999999" fill="#fff"/><circle cx="256" cy="210.05" r="14.349999999999998" fill="#e9c68f" opacity=".9"/>
  </g>
  <path d="M74 126 C170 65 334 65 438 126" stroke="#fff" stroke-width="16" stroke-linecap="round" opacity=".16"/>
  <path d="M63 676 C162 718 344 718 449 662" stroke="#fff" stroke-width="14" stroke-linecap="round" opacity=".16"/>
</svg>