<svg xmlns="http://www.w3.org/2000/svg" viewBox="0 0 512 768" role="img" aria-label="穿山兽 original portrait">
  
  <defs>
    <linearGradient id="bgp454" x1="0" y1="0" x2="1" y2="1">
      <stop offset="0" stop-color="#e9c68f"/>
      <stop offset=".55" stop-color="#a0713d"/>
      <stop offset="1" stop-color="#5a3b22"/>
    </linearGradient>
    <radialGradient id="body" cx=".36" cy=".25" r=".76">
      <stop offset="0" stop-color="#e9c68f"/>
      <stop offset=".6" stop-color="#a0713d"/>
      <stop offset="1" stop-color="#5a3b22"/>
    </radialGradient>
    <radialGradient id="head" cx=".36" cy=".26" r=".72">
      <stop offset="0" stop-color="#ffffff" stop-opacity=".85"/>
      <stop offset=".2" stop-color="#e9c68f"/>
      <stop offset=".72" stop-color="#a0713d"/>
      <stop offset="1" stop-color="#5a3b22"/>
    </radialGradient>
    <filter id="softShadow" x="-30%" y="-30%" width="160%" height="160%">
      <feDropShadow dx="0" dy="8" stdDeviation="8" flood-color="#5a3b22" flood-opacity=".35"/>
    </filter>
  </defs>
  <rect width="512" height="768" rx="48" fill="url(#bgp454)"/>
  <rect x="24" y="24" width="464" height="720" rx="40" fill="#ffffff" opacity=".08"/>
  <g opacity=".42"><circle cx="210" cy="57" r="2.3" fill="#fff" opacity="0.38"/><circle cx="91" cy="416" r="1.6" fill="#fff" opacity="0.55"/><circle cx="204" cy="143" r="2.5" fill="#fff" opacity="0.40"/><circle cx="483" cy="309" r="2.7" fill="#fff" opacity="0.58"/><circle cx="155" cy="287" r="1.2" fill="#fff" opacity="0.43"/><circle cx="467" cy="329" r="2.2" fill="#fff" opacity="0.51"/><circle cx="226" cy="366" r="2.8" fill="#fff" opacity="0.51"/><circle cx="15" cy="13" r="0.9" fill="#fff" opacity="0.70"/><circle cx="284" cy="740" r="2.8" fill="#fff" opacity="0.46"/><circle cx="93" cy="71" r="2.8" fill="#fff" opacity="0.59"/><circle cx="442" cy="273" r="1.4" fill="#fff" opacity="0.59"/><circle cx="58" cy="388" r="1.2" fill="#fff" opacity="0.70"/><circle cx="181" cy="190" r="1.7" fill="#fff" opacity="0.32"/><circle cx="507" cy="65" r="3.0" fill="#fff" opacity="0.44"/><circle cx="365" cy="8" r="1.6" fill="#fff" opacity="0.64"/><circle cx="181" cy="663" r="1.3" fill="#fff" opacity="0.44"/><circle cx="438" cy="401" r="0.8" fill="#fff" opacity="0.67"/><circle cx="307" cy="535" r="1.8" fill="#fff" opacity="0.64"/><circle cx="412" cy="665" r="1.3" fill="#fff" opacity="0.62"/><circle cx="456" cy="27" r="1.2" fill="#fff" opacity="0.54"/><circle cx="355" cy="382" r="3.1" fill="#fff" opacity="0.27"/><circle cx="390" cy="696" r="2.9" fill="#fff" opacity="0.33"/><circle cx="105" cy="191" r="2.0" fill="#fff" opacity="0.31"/><circle cx="130" cy="611" r="0.9" fill="#fff" opacity="0.44"/><circle cx="144" cy="657" r="1.1" fill="#fff" opacity="0.62"/><circle cx="166" cy="665" r="2.1" fill="#fff" opacity="0.56"/><circle cx="138" cy="475" r="2.1" fill="#fff" opacity="0.65"/><circle cx="139" cy="213" r="2.9" fill="#fff" opacity="0.40"/></g>
  <path d="M24 680 L110 610 L186 666 L272 592 L356 674 L445 626 L512 704 V768 H0V704Z" fill="#5a3b22" opacity=".18"/>
  <ellipse cx="256" cy="662" rx="150" ry="34" fill="#5a3b22" opacity=".28"/>
  <g transform="translate(0 122)">
    <path d="M149.4 228.5 L219.1 156.75 H311.35 L376.95 242.85 L346.2 394.55 H163.75 Z" fill="url(#body)" filter="url(#softShadow)"/><path d="M198.60000000000002 179.3 L245.75 91.15 L280.6 171.10000000000002 Z" fill="#e9c68f"/><path d="M290.85 183.4 L344.15 113.70000000000002 L342.1 210.05 Z" fill="#a0713d"/><rect x="194.5" y="277.7" width="122.99999999999999" height="30.749999999999996" rx="14.349999999999998" fill="#5a3b22" opacity=".38"/><circle cx="227.3" cy="292.05" r="10.25" fill="#e9c68f"/><circle cx="284.7" cy="292.05" r="10.25" fill="#e9c68f"/><circle cx="256" cy="210.05" r="14.349999999999998" fill="#e9c68f" opacity=".9"/>
  </g>
  <path d="M74 126 C170 65 334 65 438 126" stroke="#fff" stroke-width="16" stroke-linecap="round" opacity=".16"/>
  <path d="M63 676 C162 718 344 718 449 662" stroke="#fff" stroke-width="14" stroke-linecap="round" opacity=".16"/>
</svg>