<svg xmlns="http://www.w3.org/2000/svg" viewBox="0 0 512 768" role="img" aria-label="大地巨人 original portrait">
  
  <defs>
    <linearGradient id="bgp455" x1="0" y1="0" x2="1" y2="1">
      <stop offset="0" stop-color="#e9c68f"/>
      <stop offset=".55" stop-color="#a0713d"/>
      <stop offset="1" stop-color="#5a3b22"/>
    </linearGradient>
    <radialGradient id="body" cx=".36" cy=".25" r=".76">
      <stop offset="0" stop-color="#e9c68f"/>
      <stop offset=".6" stop-color="#a0713d"/>
      <stop offset="1" stop-color="#5a3b22"/>
    </radialGradient>
    <radialGradient id="head" cx=".36" cy=".26" r=".72">
      <stop offset="0" stop-color="#ffffff" stop-opacity=".85"/>
      <stop offset=".2" stop-color="#e9c68f"/>
      <stop offset=".72" stop-color="#a0713d"/>
      <stop offset="1" stop-color="#5a3b22"/>
    </radialGradient>
    <filter id="softShadow" x="-30%" y="-30%" width="160%" height="160%">
      <feDropShadow dx="0" dy="8" stdDeviation="8" flood-color="#5a3b22" flood-opacity=".35"/>
    </filter>
  </defs>
  <rect width="512" height="768" rx="48" fill="url(#bgp455)"/>
  <rect x="24" y="24" width="464" height="720" rx="40" fill="#ffffff" opacity=".08"/>
  <g opacity=".42"><circle cx="488" cy="752" r="2.3" fill="#fff" opacity="0.30"/><circle cx="498" cy="271" r="1.6" fill="#fff" opacity="0.59"/><circle cx="330" cy="528" r="1.0" fill="#fff" opacity="0.63"/><circle cx="367" cy="415" r="2.4" fill="#fff" opacity="0.63"/><circle cx="462" cy="162" r="1.5" fill="#fff" opacity="0.30"/><circle cx="206" cy="618" r="2.1" fill="#fff" opacity="0.50"/><circle cx="45" cy="460" r="2.6" fill="#fff" opacity="0.41"/><circle cx="175" cy="460" r="1.9" fill="#fff" opacity="0.38"/><circle cx="383" cy="7" r="2.2" fill="#fff" opacity="0.65"/><circle cx="63" cy="761" r="1.8" fill="#fff" opacity="0.49"/><circle cx="63" cy="651" r="1.1" fill="#fff" opacity="0.36"/><circle cx="329" cy="486" r="1.6" fill="#fff" opacity="0.39"/><circle cx="441" cy="515" r="1.9" fill="#fff" opacity="0.32"/><circle cx="66" cy="665" r="1.3" fill="#fff" opacity="0.38"/><circle cx="370" cy="651" r="1.8" fill="#fff" opacity="0.29"/><circle cx="317" cy="87" r="1.3" fill="#fff" opacity="0.29"/><circle cx="42" cy="69" r="1.3" fill="#fff" opacity="0.54"/><circle cx="12" cy="409" r="1.2" fill="#fff" opacity="0.35"/><circle cx="155" cy="153" r="3.0" fill="#fff" opacity="0.31"/><circle cx="455" cy="232" r="2.9" fill="#fff" opacity="0.36"/><circle cx="397" cy="180" r="1.1" fill="#fff" opacity="0.44"/><circle cx="42" cy="687" r="1.6" fill="#fff" opacity="0.69"/><circle cx="368" cy="177" r="2.1" fill="#fff" opacity="0.67"/><circle cx="454" cy="729" r="3.1" fill="#fff" opacity="0.31"/><circle cx="482" cy="195" r="2.7" fill="#fff" opacity="0.48"/><circle cx="113" cy="44" r="2.8" fill="#fff" opacity="0.70"/><circle cx="241" cy="758" r="1.5" fill="#fff" opacity="0.46"/><circle cx="423" cy="265" r="2.1" fill="#fff" opacity="0.57"/></g>
  <path d="M24 680 L110 610 L186 666 L272 592 L356 674 L445 626 L512 704 V768 H0V704Z" fill="#5a3b22" opacity=".18"/>
  <ellipse cx="256" cy="662" rx="150" ry="34" fill="#5a3b22" opacity=".28"/>
  <g transform="translate(0 122)">
    <path d="M149.4 228.5 L219.1 156.75 H311.35 L376.95 242.85 L346.2 394.55 H163.75 Z" fill="url(#body)" filter="url(#softShadow)"/><path d="M198.60000000000002 179.3 L245.75 91.15 L280.6 171.10000000000002 Z" fill="#e9c68f"/><path d="M290.85 183.4 L344.15 113.70000000000002 L342.1 210.05 Z" fill="#a0713d"/><rect x="194.5" y="277.7" width="122.99999999999999" height="30.749999999999996" rx="14.349999999999998" fill="#5a3b22" opacity=".38"/><circle cx="227.3" cy="292.05" r="10.25" fill="#e9c68f"/><circle cx="284.7" cy="292.05" r="10.25" fill="#e9c68f"/><circle cx="256" cy="210.05" r="14.349999999999998" fill="#e9c68f" opacity=".9"/>
  </g>
  <path d="M74 126 C170 65 334 65 438 126" stroke="#fff" stroke-width="16" stroke-linecap="round" opacity=".16"/>
  <path d="M63 676 C162 718 344 718 449 662" stroke="#fff" stroke-width="14" stroke-linecap="round" opacity=".16"/>
</svg>