<svg xmlns="http://www.w3.org/2000/svg" viewBox="0 0 512 768" role="img" aria-label="露珠精灵 original portrait">
  
  <defs>
    <linearGradient id="bgp456" x1="0" y1="0" x2="1" y2="1">
      <stop offset="0" stop-color="#ffd7f3"/>
      <stop offset=".55" stop-color="#f47ac2"/>
      <stop offset="1" stop-color="#8e3b89"/>
    </linearGradient>
    <radialGradient id="body" cx=".36" cy=".25" r=".76">
      <stop offset="0" stop-color="#ffd7f3"/>
      <stop offset=".6" stop-color="#f47ac2"/>
      <stop offset="1" stop-color="#8e3b89"/>
    </radialGradient>
    <radialGradient id="head" cx=".36" cy=".26" r=".72">
      <stop offset="0" stop-color="#ffffff" stop-opacity=".85"/>
      <stop offset=".2" stop-color="#ffd7f3"/>
      <stop offset=".72" stop-color="#f47ac2"/>
      <stop offset="1" stop-color="#8e3b89"/>
    </radialGradient>
    <filter id="softShadow" x="-30%" y="-30%" width="160%" height="160%">
      <feDropShadow dx="0" dy="8" stdDeviation="8" flood-color="#8e3b89" flood-opacity=".35"/>
    </filter>
  </defs>
  <rect width="512" height="768" rx="48" fill="url(#bgp456)"/>
  <rect x="24" y="24" width="464" height="720" rx="40" fill="#ffffff" opacity=".08"/>
  <g opacity=".42"><circle cx="122" cy="94" r="2.8" fill="#fff" opacity="0.57"/><circle cx="362" cy="67" r="2.1" fill="#fff" opacity="0.35"/><circle cx="266" cy="269" r="3.1" fill="#fff" opacity="0.33"/><circle cx="112" cy="700" r="3.0" fill="#fff" opacity="0.27"/><circle cx="347" cy="649" r="2.3" fill="#fff" opacity="0.35"/><circle cx="3" cy="547" r="0.8" fill="#fff" opacity="0.65"/><circle cx="28" cy="228" r="3.1" fill="#fff" opacity="0.68"/><circle cx="363" cy="297" r="1.3" fill="#fff" opacity="0.67"/><circle cx="246" cy="718" r="1.2" fill="#fff" opacity="0.40"/><circle cx="9" cy="128" r="1.1" fill="#fff" opacity="0.63"/><circle cx="480" cy="467" r="1.3" fill="#fff" opacity="0.44"/><circle cx="411" cy="25" r="1.5" fill="#fff" opacity="0.37"/><circle cx="206" cy="395" r="3.0" fill="#fff" opacity="0.69"/><circle cx="176" cy="698" r="1.9" fill="#fff" opacity="0.28"/><circle cx="311" cy="319" r="3.1" fill="#fff" opacity="0.48"/><circle cx="57" cy="529" r="1.0" fill="#fff" opacity="0.34"/><circle cx="50" cy="104" r="0.9" fill="#fff" opacity="0.39"/><circle cx="446" cy="342" r="1.4" fill="#fff" opacity="0.62"/><circle cx="19" cy="267" r="1.7" fill="#fff" opacity="0.52"/><circle cx="438" cy="138" r="1.5" fill="#fff" opacity="0.32"/><circle cx="43" cy="122" r="2.7" fill="#fff" opacity="0.46"/><circle cx="174" cy="411" r="1.3" fill="#fff" opacity="0.54"/><circle cx="495" cy="416" r="1.8" fill="#fff" opacity="0.34"/><circle cx="425" cy="326" r="1.9" fill="#fff" opacity="0.43"/><circle cx="205" cy="595" r="2.6" fill="#fff" opacity="0.64"/><circle cx="294" cy="146" r="1.8" fill="#fff" opacity="0.50"/><circle cx="10" cy="303" r="3.0" fill="#fff" opacity="0.31"/><circle cx="466" cy="166" r="1.5" fill="#fff" opacity="0.67"/></g>
  <path d="M0 590 C76 555 120 612 197 582 C277 551 327 614 413 581 C462 562 489 570 512 585 V768 H0Z" fill="#8e3b89" opacity=".22"/>
  <ellipse cx="256" cy="662" rx="150" ry="34" fill="#8e3b89" opacity=".28"/>
  <g transform="translate(0 122)">
    <path d="M149.4 435.54999999999995 C100.20000000000002 304.35 167.85000000000002 156.75 264.2 154.70000000000002 C379 150.60000000000002 420 298.2 352.35 435.54999999999995 C317.5 400.7 288.8 458.1 256 419.15 C221.15 458.1 188.35000000000002 400.7 149.4 435.54999999999995Z" fill="url(#body)" filter="url(#softShadow)"/><circle cx="219.1" cy="253.1" r="16.4" fill="#1b1638"/><circle cx="292.9" cy="253.1" r="16.4" fill="#1b1638"/><path d="M239.6 312.55 Q256 331 280.6 310.5" stroke="#1b1638" stroke-width="10.25" fill="none" stroke-linecap="round"/><path d="M126.85000000000002 326.9 C40.75000000000003 296.15 83.80000000000001 201.85000000000002 137.10000000000002 238.75" fill="#f47ac2" opacity=".35"/><path d="M385.15 326.9 C471.25 296.15 428.2 201.85000000000002 374.9 238.75" fill="#f47ac2" opacity=".35"/><path d="M215 201.85000000000002 Q256 224.4 297 201.85000000000002" stroke="#ffd7f3" stroke-width="10.25" fill="none" stroke-linecap="round" opacity=".8"/>
  </g>
  <path d="M74 126 C170 65 334 65 438 126" stroke="#fff" stroke-width="16" stroke-linecap="round" opacity=".16"/>
  <path d="M63 676 C162 718 344 718 449 662" stroke="#fff" stroke-width="14" stroke-linecap="round" opacity=".16"/>
</svg>