<svg xmlns="http://www.w3.org/2000/svg" viewBox="0 0 512 768" role="img" aria-label="角甲虫 original portrait">
  
  <defs>
    <linearGradient id="bgp458" x1="0" y1="0" x2="1" y2="1">
      <stop offset="0" stop-color="#d9f67f"/>
      <stop offset=".55" stop-color="#86bd2d"/>
      <stop offset="1" stop-color="#3f6c1b"/>
    </linearGradient>
    <radialGradient id="body" cx=".36" cy=".25" r=".76">
      <stop offset="0" stop-color="#d9f67f"/>
      <stop offset=".6" stop-color="#86bd2d"/>
      <stop offset="1" stop-color="#3f6c1b"/>
    </radialGradient>
    <radialGradient id="head" cx=".36" cy=".26" r=".72">
      <stop offset="0" stop-color="#ffffff" stop-opacity=".85"/>
      <stop offset=".2" stop-color="#d9f67f"/>
      <stop offset=".72" stop-color="#86bd2d"/>
      <stop offset="1" stop-color="#3f6c1b"/>
    </radialGradient>
    <filter id="softShadow" x="-30%" y="-30%" width="160%" height="160%">
      <feDropShadow dx="0" dy="8" stdDeviation="8" flood-color="#3f6c1b" flood-opacity=".35"/>
    </filter>
  </defs>
  <rect width="512" height="768" rx="48" fill="url(#bgp458)"/>
  <rect x="24" y="24" width="464" height="720" rx="40" fill="#ffffff" opacity=".08"/>
  <g opacity=".42"><circle cx="29" cy="231" r="2.0" fill="#fff" opacity="0.46"/><circle cx="415" cy="229" r="3.0" fill="#fff" opacity="0.57"/><circle cx="445" cy="178" r="1.4" fill="#fff" opacity="0.43"/><circle cx="60" cy="542" r="2.6" fill="#fff" opacity="0.30"/><circle cx="181" cy="38" r="1.7" fill="#fff" opacity="0.69"/><circle cx="457" cy="450" r="0.8" fill="#fff" opacity="0.40"/><circle cx="136" cy="330" r="2.5" fill="#fff" opacity="0.34"/><circle cx="118" cy="751" r="1.3" fill="#fff" opacity="0.40"/><circle cx="73" cy="671" r="1.2" fill="#fff" opacity="0.60"/><circle cx="411" cy="663" r="1.4" fill="#fff" opacity="0.37"/><circle cx="320" cy="700" r="2.7" fill="#fff" opacity="0.39"/><circle cx="27" cy="213" r="1.5" fill="#fff" opacity="0.26"/><circle cx="491" cy="742" r="1.8" fill="#fff" opacity="0.38"/><circle cx="503" cy="39" r="0.9" fill="#fff" opacity="0.34"/><circle cx="482" cy="36" r="1.1" fill="#fff" opacity="0.32"/><circle cx="150" cy="512" r="0.8" fill="#fff" opacity="0.70"/><circle cx="148" cy="261" r="1.4" fill="#fff" opacity="0.49"/><circle cx="172" cy="334" r="2.2" fill="#fff" opacity="0.45"/><circle cx="72" cy="39" r="1.1" fill="#fff" opacity="0.57"/><circle cx="200" cy="198" r="1.3" fill="#fff" opacity="0.37"/><circle cx="435" cy="445" r="3.2" fill="#fff" opacity="0.29"/><circle cx="418" cy="147" r="1.0" fill="#fff" opacity="0.45"/><circle cx="368" cy="16" r="3.0" fill="#fff" opacity="0.30"/><circle cx="383" cy="149" r="0.9" fill="#fff" opacity="0.40"/><circle cx="110" cy="60" r="1.7" fill="#fff" opacity="0.63"/><circle cx="196" cy="270" r="1.8" fill="#fff" opacity="0.47"/><circle cx="220" cy="686" r="2.7" fill="#fff" opacity="0.35"/><circle cx="189" cy="537" r="3.1" fill="#fff" opacity="0.38"/></g>
  <path d="M69 625 C150 571 359 568 443 628" fill="#86bd2d" opacity=".14"/>
  <ellipse cx="256" cy="662" rx="150" ry="34" fill="#3f6c1b" opacity=".28"/>
  <g transform="translate(0 122)">
    <ellipse cx="178.10000000000002" cy="257.2" rx="69.69999999999999" ry="100.44999999999999" fill="#d9f67f" opacity=".55"/><ellipse cx="333.9" cy="257.2" rx="69.69999999999999" ry="100.44999999999999" fill="#d9f67f" opacity=".55"/><ellipse cx="256" cy="331" rx="65.6" ry="122.99999999999999" fill="url(#body)" filter="url(#softShadow)"/><circle cx="256" cy="214.15" r="69.69999999999999" fill="url(#head)"/><path d="M219.1 160.85000000000002 Q174 93.20000000000002 118.65 117.80000000000001" stroke="#3f6c1b" stroke-width="10.25" fill="none" stroke-linecap="round"/><path d="M292.9 160.85000000000002 Q338 93.20000000000002 393.35 117.80000000000001" stroke="#3f6c1b" stroke-width="10.25" fill="none" stroke-linecap="round"/><path d="M198.60000000000002 322.8 H313.4 M206.8 376.1 H305.2" stroke="#3f6c1b" stroke-width="8.2" opacity=".35"/><ellipse cx="223.2" cy="253.1" rx="14.349999999999998" ry="16.4" fill="#14213d"/><ellipse cx="288.8" cy="253.1" rx="14.349999999999998" ry="16.4" fill="#14213d"/><circle cx="229.35" cy="244.9" r="4.714999999999999" fill="#fff"/><circle cx="294.95" cy="244.9" r="4.714999999999999" fill="#fff"/><path d="M215 201.85000000000002 Q256 224.4 297 201.85000000000002" stroke="#d9f67f" stroke-width="10.25" fill="none" stroke-linecap="round" opacity=".8"/>
  </g>
  <path d="M74 126 C170 65 334 65 438 126" stroke="#fff" stroke-width="16" stroke-linecap="round" opacity=".16"/>
  <path d="M63 676 C162 718 344 718 449 662" stroke="#fff" stroke-width="14" stroke-linecap="round" opacity=".16"/>
</svg>