<svg xmlns="http://www.w3.org/2000/svg" viewBox="0 0 512 768" role="img" aria-label="修行僧 original portrait">
  
  <defs>
    <linearGradient id="bgp460" x1="0" y1="0" x2="1" y2="1">
      <stop offset="0" stop-color="#ffc0a6"/>
      <stop offset=".55" stop-color="#d95f3d"/>
      <stop offset="1" stop-color="#7a271d"/>
    </linearGradient>
    <radialGradient id="body" cx=".36" cy=".25" r=".76">
      <stop offset="0" stop-color="#ffc0a6"/>
      <stop offset=".6" stop-color="#d95f3d"/>
      <stop offset="1" stop-color="#7a271d"/>
    </radialGradient>
    <radialGradient id="head" cx=".36" cy=".26" r=".72">
      <stop offset="0" stop-color="#ffffff" stop-opacity=".85"/>
      <stop offset=".2" stop-color="#ffc0a6"/>
      <stop offset=".72" stop-color="#d95f3d"/>
      <stop offset="1" stop-color="#7a271d"/>
    </radialGradient>
    <filter id="softShadow" x="-30%" y="-30%" width="160%" height="160%">
      <feDropShadow dx="0" dy="8" stdDeviation="8" flood-color="#7a271d" flood-opacity=".35"/>
    </filter>
  </defs>
  <rect width="512" height="768" rx="48" fill="url(#bgp460)"/>
  <rect x="24" y="24" width="464" height="720" rx="40" fill="#ffffff" opacity=".08"/>
  <g opacity=".42"><circle cx="478" cy="191" r="0.8" fill="#fff" opacity="0.63"/><circle cx="512" cy="299" r="1.7" fill="#fff" opacity="0.46"/><circle cx="347" cy="736" r="2.6" fill="#fff" opacity="0.26"/><circle cx="449" cy="327" r="1.8" fill="#fff" opacity="0.67"/><circle cx="482" cy="445" r="2.0" fill="#fff" opacity="0.69"/><circle cx="155" cy="199" r="2.0" fill="#fff" opacity="0.30"/><circle cx="208" cy="269" r="1.0" fill="#fff" opacity="0.58"/><circle cx="459" cy="552" r="2.5" fill="#fff" opacity="0.38"/><circle cx="2" cy="235" r="3.2" fill="#fff" opacity="0.65"/><circle cx="157" cy="2" r="1.4" fill="#fff" opacity="0.43"/><circle cx="401" cy="531" r="0.9" fill="#fff" opacity="0.52"/><circle cx="411" cy="95" r="0.9" fill="#fff" opacity="0.40"/><circle cx="271" cy="21" r="1.0" fill="#fff" opacity="0.49"/><circle cx="43" cy="637" r="2.8" fill="#fff" opacity="0.44"/><circle cx="493" cy="90" r="1.3" fill="#fff" opacity="0.55"/><circle cx="417" cy="10" r="1.5" fill="#fff" opacity="0.40"/><circle cx="375" cy="306" r="2.2" fill="#fff" opacity="0.48"/><circle cx="25" cy="65" r="1.9" fill="#fff" opacity="0.50"/><circle cx="14" cy="190" r="1.0" fill="#fff" opacity="0.38"/><circle cx="17" cy="290" r="1.5" fill="#fff" opacity="0.33"/><circle cx="287" cy="459" r="1.6" fill="#fff" opacity="0.33"/><circle cx="269" cy="120" r="2.3" fill="#fff" opacity="0.69"/><circle cx="88" cy="404" r="1.4" fill="#fff" opacity="0.59"/><circle cx="195" cy="49" r="1.2" fill="#fff" opacity="0.31"/><circle cx="109" cy="172" r="2.8" fill="#fff" opacity="0.29"/><circle cx="284" cy="663" r="1.8" fill="#fff" opacity="0.66"/><circle cx="422" cy="516" r="2.7" fill="#fff" opacity="0.65"/><circle cx="125" cy="433" r="1.7" fill="#fff" opacity="0.52"/></g>
  <path d="M38 684 C128 596 386 596 475 684 V768 H38Z" fill="#7a271d" opacity=".17"/>
  <ellipse cx="256" cy="662" rx="150" ry="34" fill="#7a271d" opacity=".28"/>
  <g transform="translate(0 122)">
    <ellipse cx="256" cy="359.7" rx="110.69999999999999" ry="100.44999999999999" fill="url(#body)" filter="url(#softShadow)"/><circle cx="256" cy="232.60000000000002" r="86.1" fill="url(#head)"/><path d="M149.4 322.8 C51.00000000000003 304.35 85.85000000000002 423.25 165.8 402.75" fill="#7a271d"/><path d="M362.6 322.8 C461 304.35 426.15 423.25 346.2 402.75" fill="#7a271d"/><path d="M200.65 148.55 H311.35 L331.85 195.7 Q256 224.4 180.15 195.7 Z" fill="#ffc0a6" opacity=".85"/><ellipse cx="223.2" cy="253.1" rx="14.349999999999998" ry="16.4" fill="#14213d"/><ellipse cx="288.8" cy="253.1" rx="14.349999999999998" ry="16.4" fill="#14213d"/><circle cx="229.35" cy="244.9" r="4.714999999999999" fill="#fff"/><circle cx="294.95" cy="244.9" r="4.714999999999999" fill="#fff"/><path d="M215 201.85000000000002 Q256 224.4 297 201.85000000000002" stroke="#ffc0a6" stroke-width="10.25" fill="none" stroke-linecap="round" opacity=".8"/>
  </g>
  <path d="M74 126 C170 65 334 65 438 126" stroke="#fff" stroke-width="16" stroke-linecap="round" opacity=".16"/>
  <path d="M63 676 C162 718 344 718 449 662" stroke="#fff" stroke-width="14" stroke-linecap="round" opacity=".16"/>
</svg>