<svg xmlns="http://www.w3.org/2000/svg" viewBox="0 0 512 768" role="img" aria-label="小海马龙 original portrait">
  
  <defs>
    <linearGradient id="bgp466" x1="0" y1="0" x2="1" y2="1">
      <stop offset="0" stop-color="#b8ffe2"/>
      <stop offset=".55" stop-color="#22a889"/>
      <stop offset="1" stop-color="#1d506d"/>
    </linearGradient>
    <radialGradient id="body" cx=".36" cy=".25" r=".76">
      <stop offset="0" stop-color="#b8ffe2"/>
      <stop offset=".6" stop-color="#22a889"/>
      <stop offset="1" stop-color="#1d506d"/>
    </radialGradient>
    <radialGradient id="head" cx=".36" cy=".26" r=".72">
      <stop offset="0" stop-color="#ffffff" stop-opacity=".85"/>
      <stop offset=".2" stop-color="#b8ffe2"/>
      <stop offset=".72" stop-color="#22a889"/>
      <stop offset="1" stop-color="#1d506d"/>
    </radialGradient>
    <filter id="softShadow" x="-30%" y="-30%" width="160%" height="160%">
      <feDropShadow dx="0" dy="8" stdDeviation="8" flood-color="#1d506d" flood-opacity=".35"/>
    </filter>
  </defs>
  <rect width="512" height="768" rx="48" fill="url(#bgp466)"/>
  <rect x="24" y="24" width="464" height="720" rx="40" fill="#ffffff" opacity=".08"/>
  <g opacity=".42"><circle cx="460" cy="28" r="2.6" fill="#fff" opacity="0.64"/><circle cx="187" cy="321" r="0.9" fill="#fff" opacity="0.55"/><circle cx="115" cy="366" r="1.0" fill="#fff" opacity="0.27"/><circle cx="372" cy="92" r="2.3" fill="#fff" opacity="0.38"/><circle cx="467" cy="763" r="1.2" fill="#fff" opacity="0.43"/><circle cx="387" cy="288" r="2.5" fill="#fff" opacity="0.68"/><circle cx="134" cy="2" r="2.9" fill="#fff" opacity="0.50"/><circle cx="484" cy="342" r="2.3" fill="#fff" opacity="0.29"/><circle cx="207" cy="711" r="1.1" fill="#fff" opacity="0.38"/><circle cx="358" cy="712" r="2.0" fill="#fff" opacity="0.60"/><circle cx="313" cy="26" r="2.0" fill="#fff" opacity="0.65"/><circle cx="471" cy="246" r="2.5" fill="#fff" opacity="0.44"/><circle cx="282" cy="36" r="0.8" fill="#fff" opacity="0.32"/><circle cx="250" cy="740" r="1.2" fill="#fff" opacity="0.31"/><circle cx="153" cy="307" r="1.9" fill="#fff" opacity="0.38"/><circle cx="51" cy="96" r="2.6" fill="#fff" opacity="0.65"/><circle cx="498" cy="543" r="1.3" fill="#fff" opacity="0.44"/><circle cx="281" cy="283" r="2.6" fill="#fff" opacity="0.54"/><circle cx="211" cy="399" r="0.9" fill="#fff" opacity="0.65"/><circle cx="430" cy="548" r="2.2" fill="#fff" opacity="0.44"/><circle cx="420" cy="444" r="0.8" fill="#fff" opacity="0.26"/><circle cx="265" cy="481" r="2.2" fill="#fff" opacity="0.68"/><circle cx="430" cy="59" r="1.4" fill="#fff" opacity="0.58"/><circle cx="184" cy="175" r="1.3" fill="#fff" opacity="0.63"/><circle cx="495" cy="182" r="1.4" fill="#fff" opacity="0.39"/><circle cx="41" cy="740" r="1.4" fill="#fff" opacity="0.51"/><circle cx="478" cy="283" r="3.0" fill="#fff" opacity="0.59"/><circle cx="390" cy="547" r="2.9" fill="#fff" opacity="0.54"/></g>
  <path d="M70 600 C142 504 297 500 443 610" fill="#1d506d" opacity=".18"/><path d="M52 642 C146 578 341 580 471 650" fill="#1d506d" opacity=".16"/>
  <ellipse cx="256" cy="662" rx="150" ry="34" fill="#1d506d" opacity=".28"/>
  <g transform="translate(0 122)">
    <path d="M108.4 347.4 C161.7 224.4 292.9 175.20000000000002 389.25 253.1 C325.7 249 276.5 285.9 247.8 376.1" fill="#1d506d" opacity=".45"/><ellipse cx="256" cy="335.1" rx="110.69999999999999" ry="92.24999999999999" fill="url(#body)" filter="url(#softShadow)"/><path d="M167.85000000000002 253.1 L219.1 130.10000000000002 L249.85 244.9 Z" fill="#22a889"/><path d="M344.15 253.1 L292.9 130.10000000000002 L262.15 244.9 Z" fill="#22a889"/><ellipse cx="256" cy="267.45" rx="96.35" ry="86.1" fill="url(#head)"/><path d="M151.45 292.05 Q87.9 298.2 63.30000000000001 253.1" stroke="#b8ffe2" stroke-width="10.25" fill="none" stroke-linecap="round" opacity=".85"/><path d="M360.55 292.05 Q424.1 298.2 448.7 253.1" stroke="#b8ffe2" stroke-width="10.25" fill="none" stroke-linecap="round" opacity=".85"/><ellipse cx="223.2" cy="253.1" rx="14.349999999999998" ry="16.4" fill="#14213d"/><ellipse cx="288.8" cy="253.1" rx="14.349999999999998" ry="16.4" fill="#14213d"/><circle cx="229.35" cy="244.9" r="4.714999999999999" fill="#fff"/><circle cx="294.95" cy="244.9" r="4.714999999999999" fill="#fff"/><path d="M215 201.85000000000002 Q256 224.4 297 201.85000000000002" stroke="#b8ffe2" stroke-width="10.25" fill="none" stroke-linecap="round" opacity=".8"/>
  </g>
  <path d="M74 126 C170 65 334 65 438 126" stroke="#fff" stroke-width="16" stroke-linecap="round" opacity=".16"/>
  <path d="M63 676 C162 718 344 718 449 662" stroke="#fff" stroke-width="14" stroke-linecap="round" opacity=".16"/>
</svg>