<svg xmlns="http://www.w3.org/2000/svg" viewBox="0 0 512 768" role="img" aria-label="小药草 original portrait">
  
  <defs>
    <linearGradient id="bgp468" x1="0" y1="0" x2="1" y2="1">
      <stop offset="0" stop-color="#dcfff4"/>
      <stop offset=".55" stop-color="#4bd8a6"/>
      <stop offset="1" stop-color="#287565"/>
    </linearGradient>
    <radialGradient id="body" cx=".36" cy=".25" r=".76">
      <stop offset="0" stop-color="#dcfff4"/>
      <stop offset=".6" stop-color="#4bd8a6"/>
      <stop offset="1" stop-color="#287565"/>
    </radialGradient>
    <radialGradient id="head" cx=".36" cy=".26" r=".72">
      <stop offset="0" stop-color="#ffffff" stop-opacity=".85"/>
      <stop offset=".2" stop-color="#dcfff4"/>
      <stop offset=".72" stop-color="#4bd8a6"/>
      <stop offset="1" stop-color="#287565"/>
    </radialGradient>
    <filter id="softShadow" x="-30%" y="-30%" width="160%" height="160%">
      <feDropShadow dx="0" dy="8" stdDeviation="8" flood-color="#287565" flood-opacity=".35"/>
    </filter>
  </defs>
  <rect width="512" height="768" rx="48" fill="url(#bgp468)"/>
  <rect x="24" y="24" width="464" height="720" rx="40" fill="#ffffff" opacity=".08"/>
  <g opacity=".42"><circle cx="296" cy="492" r="2.6" fill="#fff" opacity="0.53"/><circle cx="54" cy="547" r="1.9" fill="#fff" opacity="0.30"/><circle cx="154" cy="412" r="2.7" fill="#fff" opacity="0.41"/><circle cx="85" cy="703" r="1.1" fill="#fff" opacity="0.33"/><circle cx="41" cy="107" r="0.9" fill="#fff" opacity="0.62"/><circle cx="332" cy="254" r="0.8" fill="#fff" opacity="0.50"/><circle cx="85" cy="182" r="2.8" fill="#fff" opacity="0.28"/><circle cx="507" cy="141" r="2.6" fill="#fff" opacity="0.54"/><circle cx="49" cy="422" r="2.8" fill="#fff" opacity="0.28"/><circle cx="142" cy="201" r="2.8" fill="#fff" opacity="0.34"/><circle cx="498" cy="82" r="3.0" fill="#fff" opacity="0.26"/><circle cx="281" cy="584" r="2.6" fill="#fff" opacity="0.54"/><circle cx="134" cy="197" r="2.0" fill="#fff" opacity="0.64"/><circle cx="510" cy="439" r="1.0" fill="#fff" opacity="0.40"/><circle cx="269" cy="503" r="2.0" fill="#fff" opacity="0.63"/><circle cx="20" cy="240" r="3.1" fill="#fff" opacity="0.55"/><circle cx="221" cy="450" r="2.2" fill="#fff" opacity="0.51"/><circle cx="256" cy="450" r="1.8" fill="#fff" opacity="0.29"/><circle cx="381" cy="420" r="2.3" fill="#fff" opacity="0.66"/><circle cx="98" cy="328" r="2.7" fill="#fff" opacity="0.29"/><circle cx="89" cy="155" r="2.2" fill="#fff" opacity="0.66"/><circle cx="113" cy="219" r="2.9" fill="#fff" opacity="0.47"/><circle cx="415" cy="374" r="1.3" fill="#fff" opacity="0.43"/><circle cx="468" cy="427" r="1.9" fill="#fff" opacity="0.55"/><circle cx="278" cy="743" r="1.1" fill="#fff" opacity="0.55"/><circle cx="378" cy="608" r="2.7" fill="#fff" opacity="0.51"/><circle cx="227" cy="742" r="2.0" fill="#fff" opacity="0.37"/><circle cx="487" cy="757" r="1.1" fill="#fff" opacity="0.37"/></g>
  <path d="M18 704 C124 595 205 659 256 580 C314 666 392 596 494 704 V768 H18Z" fill="#287565" opacity=".18"/>
  <ellipse cx="256" cy="662" rx="150" ry="34" fill="#287565" opacity=".28"/>
  <g transform="translate(0 122)">
    <path d="M231.4 400.7 C128.9 376.1 83.80000000000001 265.4 198.60000000000002 275.65" fill="#4bd8a6" opacity=".82"/><path d="M280.6 400.7 C383.1 376.1 428.2 265.4 313.4 275.65" fill="#4bd8a6" opacity=".82"/><ellipse cx="256" cy="339.2" rx="98.39999999999999" ry="116.85" fill="url(#body)" filter="url(#softShadow)"/><path d="M256 138.3 C169.9 175.20000000000002 161.7 259.25 256 251.05 C350.3 259.25 342.1 175.20000000000002 256 138.3Z" fill="#dcfff4"/><circle cx="256" cy="253.1" r="77.89999999999999" fill="url(#head)"/><ellipse cx="223.2" cy="253.1" rx="14.349999999999998" ry="16.4" fill="#14213d"/><ellipse cx="288.8" cy="253.1" rx="14.349999999999998" ry="16.4" fill="#14213d"/><circle cx="229.35" cy="244.9" r="4.714999999999999" fill="#fff"/><circle cx="294.95" cy="244.9" r="4.714999999999999" fill="#fff"/><circle cx="256" cy="210.05" r="14.349999999999998" fill="#dcfff4" opacity=".9"/>
  </g>
  <path d="M74 126 C170 65 334 65 438 126" stroke="#fff" stroke-width="16" stroke-linecap="round" opacity=".16"/>
  <path d="M63 676 C162 718 344 718 449 662" stroke="#fff" stroke-width="14" stroke-linecap="round" opacity=".16"/>
</svg>