<svg xmlns="http://www.w3.org/2000/svg" viewBox="0 0 512 768" role="img" aria-label="千年愈木 unique portrait">
  <defs>
    <linearGradient id="bg469" x1="0" y1="0" x2="1" y2="1"><stop offset="0" stop-color="#d9ffe9"/><stop offset=".55" stop-color="#4ade80"/><stop offset="1" stop-color="#145a32"/></linearGradient>
    <radialGradient id="body469" cx=".35" cy=".24" r=".78"><stop offset="0" stop-color="#fff" stop-opacity=".88"/><stop offset=".18" stop-color="#d9ffe9"/><stop offset=".68" stop-color="#4ade80"/><stop offset="1" stop-color="#145a32"/></radialGradient>
    <filter id="shadow469" x="-30%" y="-30%" width="160%" height="160%"><feDropShadow dx="0" dy="10" stdDeviation="9" flood-color="#145a32" flood-opacity=".36"/></filter>
  </defs>
  <rect width="512" height="768" rx="48" fill="url(#bg469)"/>
  <rect x="24" y="24" width="464" height="720" rx="40" fill="#fff" opacity=".08"/>
  <g opacity=".46"><circle cx="47" cy="537" r="3.4" fill="#fff" opacity="0.37"/><circle cx="308" cy="618" r="4.3" fill="#fff" opacity="0.53"/><circle cx="131" cy="414" r="1.7" fill="#fff" opacity="0.48"/><circle cx="127" cy="201" r="4.2" fill="#fff" opacity="0.44"/><circle cx="136" cy="126" r="2.5" fill="#fff" opacity="0.23"/><circle cx="391" cy="525" r="2.6" fill="#fff" opacity="0.33"/><circle cx="219" cy="125" r="2.4" fill="#fff" opacity="0.27"/><circle cx="321" cy="220" r="4.2" fill="#fff" opacity="0.26"/><circle cx="156" cy="577" r="1.6" fill="#fff" opacity="0.58"/><circle cx="42" cy="145" r="2.9" fill="#fff" opacity="0.55"/><circle cx="107" cy="335" r="2.1" fill="#fff" opacity="0.23"/><circle cx="358" cy="477" r="4.3" fill="#fff" opacity="0.51"/><circle cx="404" cy="509" r="4.5" fill="#fff" opacity="0.59"/><circle cx="386" cy="303" r="2.8" fill="#fff" opacity="0.59"/><circle cx="397" cy="316" r="3.7" fill="#fff" opacity="0.43"/></g>
  <path d="M0 596 C80 558 128 616 202 584 C281 550 332 618 418 582 C464 563 492 570 512 586 V768 H0Z" fill="#145a32" opacity=".22"/>
  <ellipse cx="256" cy="664" rx="154" ry="36" fill="#145a32" opacity=".3"/>
  <g transform="translate(0 84)"><path d="M151 500 C116 338 160 190 256 170 C352 190 396 338 361 500 C320 466 291 532 256 490 C221 532 192 466 151 500Z" fill="url(#body469)" filter="url(#shadow469)"/>
    <circle cx="217" cy="329" r="17" fill="#101827"/><circle cx="295" cy="329" r="17" fill="#101827"/>
    <circle cx="211" cy="323" r="5" fill="#fff" opacity=".75"/><circle cx="289" cy="323" r="5" fill="#fff" opacity=".75"/>
    <path d="M206 410 Q256 442 306 410" stroke="#145a32" stroke-width="12" fill="none" stroke-linecap="round" opacity=".72"/>
    <path d="M188 560 C228 600 288 600 326 560" stroke="#fff" stroke-width="12" stroke-linecap="round" opacity=".18" fill="none"/>
  </g>
  <path d="M72 128 C168 68 334 66 440 128" stroke="#fff" stroke-width="16" stroke-linecap="round" opacity=".16"/>
  <path d="M60 678 C164 722 348 718 452 662" stroke="#fff" stroke-width="14" stroke-linecap="round" opacity=".16"/>
</svg>