<svg xmlns="http://www.w3.org/2000/svg" viewBox="0 0 512 768" role="img" aria-label="黄金甲虫 original portrait">
  
  <defs>
    <linearGradient id="bgp473" x1="0" y1="0" x2="1" y2="1">
      <stop offset="0" stop-color="#d9f67f"/>
      <stop offset=".55" stop-color="#86bd2d"/>
      <stop offset="1" stop-color="#3f6c1b"/>
    </linearGradient>
    <radialGradient id="body" cx=".36" cy=".25" r=".76">
      <stop offset="0" stop-color="#d9f67f"/>
      <stop offset=".6" stop-color="#86bd2d"/>
      <stop offset="1" stop-color="#3f6c1b"/>
    </radialGradient>
    <radialGradient id="head" cx=".36" cy=".26" r=".72">
      <stop offset="0" stop-color="#ffffff" stop-opacity=".85"/>
      <stop offset=".2" stop-color="#d9f67f"/>
      <stop offset=".72" stop-color="#86bd2d"/>
      <stop offset="1" stop-color="#3f6c1b"/>
    </radialGradient>
    <filter id="softShadow" x="-30%" y="-30%" width="160%" height="160%">
      <feDropShadow dx="0" dy="8" stdDeviation="8" flood-color="#3f6c1b" flood-opacity=".35"/>
    </filter>
  </defs>
  <rect width="512" height="768" rx="48" fill="url(#bgp473)"/>
  <rect x="24" y="24" width="464" height="720" rx="40" fill="#ffffff" opacity=".08"/>
  <g opacity=".42"><circle cx="55" cy="458" r="1.1" fill="#fff" opacity="0.35"/><circle cx="434" cy="395" r="1.1" fill="#fff" opacity="0.64"/><circle cx="47" cy="403" r="2.6" fill="#fff" opacity="0.26"/><circle cx="404" cy="3" r="3.2" fill="#fff" opacity="0.62"/><circle cx="452" cy="264" r="2.1" fill="#fff" opacity="0.62"/><circle cx="80" cy="42" r="1.8" fill="#fff" opacity="0.37"/><circle cx="133" cy="608" r="2.8" fill="#fff" opacity="0.28"/><circle cx="381" cy="260" r="2.0" fill="#fff" opacity="0.38"/><circle cx="20" cy="509" r="1.0" fill="#fff" opacity="0.46"/><circle cx="179" cy="625" r="2.4" fill="#fff" opacity="0.54"/><circle cx="46" cy="55" r="1.9" fill="#fff" opacity="0.35"/><circle cx="205" cy="231" r="1.3" fill="#fff" opacity="0.48"/><circle cx="213" cy="324" r="2.3" fill="#fff" opacity="0.55"/><circle cx="448" cy="216" r="1.2" fill="#fff" opacity="0.32"/><circle cx="445" cy="508" r="1.5" fill="#fff" opacity="0.37"/><circle cx="270" cy="305" r="3.1" fill="#fff" opacity="0.43"/><circle cx="141" cy="229" r="1.8" fill="#fff" opacity="0.67"/><circle cx="190" cy="415" r="3.0" fill="#fff" opacity="0.39"/><circle cx="258" cy="385" r="1.7" fill="#fff" opacity="0.53"/><circle cx="441" cy="427" r="2.6" fill="#fff" opacity="0.40"/><circle cx="490" cy="118" r="0.9" fill="#fff" opacity="0.69"/><circle cx="106" cy="652" r="2.1" fill="#fff" opacity="0.49"/><circle cx="422" cy="686" r="1.4" fill="#fff" opacity="0.39"/><circle cx="96" cy="22" r="2.2" fill="#fff" opacity="0.27"/><circle cx="11" cy="339" r="2.5" fill="#fff" opacity="0.56"/><circle cx="371" cy="764" r="2.0" fill="#fff" opacity="0.31"/><circle cx="35" cy="98" r="1.9" fill="#fff" opacity="0.66"/><circle cx="55" cy="134" r="1.8" fill="#fff" opacity="0.57"/></g>
  <path d="M69 625 C150 571 359 568 443 628" fill="#86bd2d" opacity=".14"/>
  <ellipse cx="256" cy="662" rx="150" ry="34" fill="#3f6c1b" opacity=".28"/>
  <g transform="translate(0 122)">
    <ellipse cx="178.10000000000002" cy="257.2" rx="69.69999999999999" ry="100.44999999999999" fill="#d9f67f" opacity=".55"/><ellipse cx="333.9" cy="257.2" rx="69.69999999999999" ry="100.44999999999999" fill="#d9f67f" opacity=".55"/><ellipse cx="256" cy="331" rx="65.6" ry="122.99999999999999" fill="url(#body)" filter="url(#softShadow)"/><circle cx="256" cy="214.15" r="69.69999999999999" fill="url(#head)"/><path d="M219.1 160.85000000000002 Q174 93.20000000000002 118.65 117.80000000000001" stroke="#3f6c1b" stroke-width="10.25" fill="none" stroke-linecap="round"/><path d="M292.9 160.85000000000002 Q338 93.20000000000002 393.35 117.80000000000001" stroke="#3f6c1b" stroke-width="10.25" fill="none" stroke-linecap="round"/><path d="M198.60000000000002 322.8 H313.4 M206.8 376.1 H305.2" stroke="#3f6c1b" stroke-width="8.2" opacity=".35"/><ellipse cx="223.2" cy="253.1" rx="14.349999999999998" ry="16.4" fill="#14213d"/><ellipse cx="288.8" cy="253.1" rx="14.349999999999998" ry="16.4" fill="#14213d"/><circle cx="229.35" cy="244.9" r="4.714999999999999" fill="#fff"/><circle cx="294.95" cy="244.9" r="4.714999999999999" fill="#fff"/><path d="M215 201.85000000000002 Q256 224.4 297 201.85000000000002" stroke="#d9f67f" stroke-width="10.25" fill="none" stroke-linecap="round" opacity=".8"/>
  </g>
  <path d="M74 126 C170 65 334 65 438 126" stroke="#fff" stroke-width="16" stroke-linecap="round" opacity=".16"/>
  <path d="M63 676 C162 718 344 718 449 662" stroke="#fff" stroke-width="14" stroke-linecap="round" opacity=".16"/>
</svg>