<svg xmlns="http://www.w3.org/2000/svg" viewBox="0 0 512 768" role="img" aria-label="糖果精灵 original portrait">
  
  <defs>
    <linearGradient id="bgp474" x1="0" y1="0" x2="1" y2="1">
      <stop offset="0" stop-color="#ffd7f3"/>
      <stop offset=".55" stop-color="#f47ac2"/>
      <stop offset="1" stop-color="#8e3b89"/>
    </linearGradient>
    <radialGradient id="body" cx=".36" cy=".25" r=".76">
      <stop offset="0" stop-color="#ffd7f3"/>
      <stop offset=".6" stop-color="#f47ac2"/>
      <stop offset="1" stop-color="#8e3b89"/>
    </radialGradient>
    <radialGradient id="head" cx=".36" cy=".26" r=".72">
      <stop offset="0" stop-color="#ffffff" stop-opacity=".85"/>
      <stop offset=".2" stop-color="#ffd7f3"/>
      <stop offset=".72" stop-color="#f47ac2"/>
      <stop offset="1" stop-color="#8e3b89"/>
    </radialGradient>
    <filter id="softShadow" x="-30%" y="-30%" width="160%" height="160%">
      <feDropShadow dx="0" dy="8" stdDeviation="8" flood-color="#8e3b89" flood-opacity=".35"/>
    </filter>
  </defs>
  <rect width="512" height="768" rx="48" fill="url(#bgp474)"/>
  <rect x="24" y="24" width="464" height="720" rx="40" fill="#ffffff" opacity=".08"/>
  <g opacity=".42"><circle cx="484" cy="619" r="3.2" fill="#fff" opacity="0.29"/><circle cx="105" cy="5" r="2.4" fill="#fff" opacity="0.65"/><circle cx="62" cy="431" r="2.8" fill="#fff" opacity="0.36"/><circle cx="27" cy="288" r="2.5" fill="#fff" opacity="0.70"/><circle cx="121" cy="214" r="2.3" fill="#fff" opacity="0.57"/><circle cx="263" cy="305" r="1.3" fill="#fff" opacity="0.27"/><circle cx="27" cy="523" r="1.7" fill="#fff" opacity="0.31"/><circle cx="486" cy="295" r="1.7" fill="#fff" opacity="0.52"/><circle cx="135" cy="455" r="2.5" fill="#fff" opacity="0.41"/><circle cx="106" cy="371" r="2.8" fill="#fff" opacity="0.39"/><circle cx="264" cy="541" r="2.9" fill="#fff" opacity="0.43"/><circle cx="259" cy="49" r="3.1" fill="#fff" opacity="0.68"/><circle cx="394" cy="484" r="2.5" fill="#fff" opacity="0.31"/><circle cx="3" cy="217" r="1.5" fill="#fff" opacity="0.55"/><circle cx="325" cy="274" r="2.2" fill="#fff" opacity="0.57"/><circle cx="434" cy="761" r="2.4" fill="#fff" opacity="0.60"/><circle cx="221" cy="127" r="2.5" fill="#fff" opacity="0.61"/><circle cx="134" cy="435" r="1.2" fill="#fff" opacity="0.67"/><circle cx="339" cy="441" r="2.4" fill="#fff" opacity="0.29"/><circle cx="48" cy="404" r="2.0" fill="#fff" opacity="0.46"/><circle cx="450" cy="54" r="2.4" fill="#fff" opacity="0.63"/><circle cx="31" cy="284" r="1.3" fill="#fff" opacity="0.70"/><circle cx="210" cy="269" r="1.8" fill="#fff" opacity="0.27"/><circle cx="234" cy="292" r="2.2" fill="#fff" opacity="0.56"/><circle cx="52" cy="239" r="2.6" fill="#fff" opacity="0.50"/><circle cx="327" cy="159" r="2.5" fill="#fff" opacity="0.60"/><circle cx="144" cy="194" r="2.5" fill="#fff" opacity="0.51"/><circle cx="424" cy="593" r="2.4" fill="#fff" opacity="0.40"/></g>
  <path d="M18 704 C124 595 205 659 256 580 C314 666 392 596 494 704 V768 H18Z" fill="#8e3b89" opacity=".18"/>
  <ellipse cx="256" cy="662" rx="150" ry="34" fill="#8e3b89" opacity=".28"/>
  <g transform="translate(0 122)">
    <path d="M231.4 400.7 C128.9 376.1 83.80000000000001 265.4 198.60000000000002 275.65" fill="#f47ac2" opacity=".82"/><path d="M280.6 400.7 C383.1 376.1 428.2 265.4 313.4 275.65" fill="#f47ac2" opacity=".82"/><ellipse cx="256" cy="339.2" rx="98.39999999999999" ry="116.85" fill="url(#body)" filter="url(#softShadow)"/><path d="M256 138.3 C169.9 175.20000000000002 161.7 259.25 256 251.05 C350.3 259.25 342.1 175.20000000000002 256 138.3Z" fill="#ffd7f3"/><circle cx="256" cy="253.1" r="77.89999999999999" fill="url(#head)"/><ellipse cx="223.2" cy="253.1" rx="14.349999999999998" ry="16.4" fill="#14213d"/><ellipse cx="288.8" cy="253.1" rx="14.349999999999998" ry="16.4" fill="#14213d"/><circle cx="229.35" cy="244.9" r="4.714999999999999" fill="#fff"/><circle cx="294.95" cy="244.9" r="4.714999999999999" fill="#fff"/><circle cx="256" cy="210.05" r="14.349999999999998" fill="#ffd7f3" opacity=".9"/>
  </g>
  <path d="M74 126 C170 65 334 65 438 126" stroke="#fff" stroke-width="16" stroke-linecap="round" opacity=".16"/>
  <path d="M63 676 C162 718 344 718 449 662" stroke="#fff" stroke-width="14" stroke-linecap="round" opacity=".16"/>
</svg>