<svg xmlns="http://www.w3.org/2000/svg" viewBox="0 0 512 768" role="img" aria-label="甜梦天使 original portrait">
  
  <defs>
    <linearGradient id="bgp475" x1="0" y1="0" x2="1" y2="1">
      <stop offset="0" stop-color="#ffd7f3"/>
      <stop offset=".55" stop-color="#f47ac2"/>
      <stop offset="1" stop-color="#8e3b89"/>
    </linearGradient>
    <radialGradient id="body" cx=".36" cy=".25" r=".76">
      <stop offset="0" stop-color="#ffd7f3"/>
      <stop offset=".6" stop-color="#f47ac2"/>
      <stop offset="1" stop-color="#8e3b89"/>
    </radialGradient>
    <radialGradient id="head" cx=".36" cy=".26" r=".72">
      <stop offset="0" stop-color="#ffffff" stop-opacity=".85"/>
      <stop offset=".2" stop-color="#ffd7f3"/>
      <stop offset=".72" stop-color="#f47ac2"/>
      <stop offset="1" stop-color="#8e3b89"/>
    </radialGradient>
    <filter id="softShadow" x="-30%" y="-30%" width="160%" height="160%">
      <feDropShadow dx="0" dy="8" stdDeviation="8" flood-color="#8e3b89" flood-opacity=".35"/>
    </filter>
  </defs>
  <rect width="512" height="768" rx="48" fill="url(#bgp475)"/>
  <rect x="24" y="24" width="464" height="720" rx="40" fill="#ffffff" opacity=".08"/>
  <g opacity=".42"><circle cx="238" cy="587" r="2.7" fill="#fff" opacity="0.58"/><circle cx="460" cy="75" r="3.0" fill="#fff" opacity="0.54"/><circle cx="252" cy="521" r="1.8" fill="#fff" opacity="0.44"/><circle cx="309" cy="675" r="1.9" fill="#fff" opacity="0.49"/><circle cx="176" cy="290" r="1.1" fill="#fff" opacity="0.66"/><circle cx="278" cy="456" r="3.0" fill="#fff" opacity="0.69"/><circle cx="46" cy="253" r="2.3" fill="#fff" opacity="0.36"/><circle cx="293" cy="1" r="2.5" fill="#fff" opacity="0.35"/><circle cx="403" cy="274" r="2.0" fill="#fff" opacity="0.39"/><circle cx="331" cy="563" r="2.9" fill="#fff" opacity="0.47"/><circle cx="89" cy="253" r="1.6" fill="#fff" opacity="0.43"/><circle cx="504" cy="453" r="1.9" fill="#fff" opacity="0.68"/><circle cx="89" cy="471" r="1.3" fill="#fff" opacity="0.62"/><circle cx="182" cy="338" r="1.6" fill="#fff" opacity="0.47"/><circle cx="438" cy="696" r="2.3" fill="#fff" opacity="0.68"/><circle cx="363" cy="286" r="1.7" fill="#fff" opacity="0.36"/><circle cx="37" cy="316" r="1.3" fill="#fff" opacity="0.64"/><circle cx="264" cy="157" r="1.8" fill="#fff" opacity="0.68"/><circle cx="283" cy="366" r="2.3" fill="#fff" opacity="0.45"/><circle cx="408" cy="612" r="2.8" fill="#fff" opacity="0.68"/><circle cx="315" cy="112" r="1.7" fill="#fff" opacity="0.49"/><circle cx="82" cy="344" r="2.0" fill="#fff" opacity="0.35"/><circle cx="101" cy="515" r="3.1" fill="#fff" opacity="0.54"/><circle cx="375" cy="587" r="1.4" fill="#fff" opacity="0.35"/><circle cx="215" cy="380" r="2.2" fill="#fff" opacity="0.31"/><circle cx="42" cy="487" r="2.0" fill="#fff" opacity="0.41"/><circle cx="278" cy="260" r="1.0" fill="#fff" opacity="0.53"/><circle cx="173" cy="551" r="1.7" fill="#fff" opacity="0.49"/></g>
  <path d="M0 590 C76 555 120 612 197 582 C277 551 327 614 413 581 C462 562 489 570 512 585 V768 H0Z" fill="#8e3b89" opacity=".22"/>
  <ellipse cx="256" cy="662" rx="150" ry="34" fill="#8e3b89" opacity=".28"/>
  <g transform="translate(0 122)">
    <path d="M149.4 435.54999999999995 C100.20000000000002 304.35 167.85000000000002 156.75 264.2 154.70000000000002 C379 150.60000000000002 420 298.2 352.35 435.54999999999995 C317.5 400.7 288.8 458.1 256 419.15 C221.15 458.1 188.35000000000002 400.7 149.4 435.54999999999995Z" fill="url(#body)" filter="url(#softShadow)"/><circle cx="219.1" cy="253.1" r="16.4" fill="#1b1638"/><circle cx="292.9" cy="253.1" r="16.4" fill="#1b1638"/><path d="M239.6 312.55 Q256 331 280.6 310.5" stroke="#1b1638" stroke-width="10.25" fill="none" stroke-linecap="round"/><path d="M126.85000000000002 326.9 C40.75000000000003 296.15 83.80000000000001 201.85000000000002 137.10000000000002 238.75" fill="#f47ac2" opacity=".35"/><path d="M385.15 326.9 C471.25 296.15 428.2 201.85000000000002 374.9 238.75" fill="#f47ac2" opacity=".35"/><path d="M215 201.85000000000002 Q256 224.4 297 201.85000000000002" stroke="#ffd7f3" stroke-width="10.25" fill="none" stroke-linecap="round" opacity=".8"/>
  </g>
  <path d="M74 126 C170 65 334 65 438 126" stroke="#fff" stroke-width="16" stroke-linecap="round" opacity=".16"/>
  <path d="M63 676 C162 718 344 718 449 662" stroke="#fff" stroke-width="14" stroke-linecap="round" opacity=".16"/>
</svg>