<svg xmlns="http://www.w3.org/2000/svg" viewBox="0 0 512 768" role="img" aria-label="铁皮人 original portrait">
  
  <defs>
    <linearGradient id="bgp476" x1="0" y1="0" x2="1" y2="1">
      <stop offset="0" stop-color="#e8edf2"/>
      <stop offset=".55" stop-color="#9aa8b7"/>
      <stop offset="1" stop-color="#536271"/>
    </linearGradient>
    <radialGradient id="body" cx=".36" cy=".25" r=".76">
      <stop offset="0" stop-color="#e8edf2"/>
      <stop offset=".6" stop-color="#9aa8b7"/>
      <stop offset="1" stop-color="#536271"/>
    </radialGradient>
    <radialGradient id="head" cx=".36" cy=".26" r=".72">
      <stop offset="0" stop-color="#ffffff" stop-opacity=".85"/>
      <stop offset=".2" stop-color="#e8edf2"/>
      <stop offset=".72" stop-color="#9aa8b7"/>
      <stop offset="1" stop-color="#536271"/>
    </radialGradient>
    <filter id="softShadow" x="-30%" y="-30%" width="160%" height="160%">
      <feDropShadow dx="0" dy="8" stdDeviation="8" flood-color="#536271" flood-opacity=".35"/>
    </filter>
  </defs>
  <rect width="512" height="768" rx="48" fill="url(#bgp476)"/>
  <rect x="24" y="24" width="464" height="720" rx="40" fill="#ffffff" opacity=".08"/>
  <g opacity=".42"><circle cx="428" cy="472" r="2.9" fill="#fff" opacity="0.26"/><circle cx="281" cy="338" r="1.9" fill="#fff" opacity="0.54"/><circle cx="126" cy="263" r="2.6" fill="#fff" opacity="0.64"/><circle cx="470" cy="263" r="2.7" fill="#fff" opacity="0.63"/><circle cx="167" cy="710" r="2.2" fill="#fff" opacity="0.30"/><circle cx="47" cy="156" r="1.3" fill="#fff" opacity="0.52"/><circle cx="209" cy="0" r="2.0" fill="#fff" opacity="0.46"/><circle cx="184" cy="248" r="1.8" fill="#fff" opacity="0.29"/><circle cx="368" cy="56" r="1.7" fill="#fff" opacity="0.28"/><circle cx="449" cy="455" r="1.7" fill="#fff" opacity="0.40"/><circle cx="406" cy="2" r="1.3" fill="#fff" opacity="0.32"/><circle cx="464" cy="477" r="1.5" fill="#fff" opacity="0.28"/><circle cx="135" cy="655" r="1.9" fill="#fff" opacity="0.52"/><circle cx="403" cy="284" r="1.2" fill="#fff" opacity="0.62"/><circle cx="51" cy="92" r="3.1" fill="#fff" opacity="0.57"/><circle cx="206" cy="185" r="2.6" fill="#fff" opacity="0.61"/><circle cx="382" cy="603" r="2.5" fill="#fff" opacity="0.33"/><circle cx="189" cy="634" r="3.1" fill="#fff" opacity="0.45"/><circle cx="411" cy="432" r="2.6" fill="#fff" opacity="0.43"/><circle cx="151" cy="46" r="2.7" fill="#fff" opacity="0.37"/><circle cx="89" cy="485" r="2.8" fill="#fff" opacity="0.31"/><circle cx="221" cy="617" r="1.9" fill="#fff" opacity="0.40"/><circle cx="116" cy="213" r="1.7" fill="#fff" opacity="0.60"/><circle cx="468" cy="22" r="1.4" fill="#fff" opacity="0.43"/><circle cx="406" cy="248" r="1.6" fill="#fff" opacity="0.63"/><circle cx="424" cy="322" r="1.4" fill="#fff" opacity="0.51"/><circle cx="371" cy="640" r="2.6" fill="#fff" opacity="0.64"/><circle cx="185" cy="197" r="2.3" fill="#fff" opacity="0.37"/></g>
  <path d="M24 680 L110 610 L186 666 L272 592 L356 674 L445 626 L512 704 V768 H0V704Z" fill="#536271" opacity=".18"/>
  <ellipse cx="256" cy="662" rx="150" ry="34" fill="#536271" opacity=".28"/>
  <g transform="translate(0 122)">
    <path d="M149.4 228.5 L219.1 156.75 H311.35 L376.95 242.85 L346.2 394.55 H163.75 Z" fill="url(#body)" filter="url(#softShadow)"/><path d="M198.60000000000002 179.3 L245.75 91.15 L280.6 171.10000000000002 Z" fill="#e8edf2"/><path d="M290.85 183.4 L344.15 113.70000000000002 L342.1 210.05 Z" fill="#9aa8b7"/><rect x="194.5" y="277.7" width="122.99999999999999" height="30.749999999999996" rx="14.349999999999998" fill="#536271" opacity=".38"/><circle cx="227.3" cy="292.05" r="10.25" fill="#e8edf2"/><circle cx="284.7" cy="292.05" r="10.25" fill="#e8edf2"/><path d="M215 201.85000000000002 Q256 224.4 297 201.85000000000002" stroke="#e8edf2" stroke-width="10.25" fill="none" stroke-linecap="round" opacity=".8"/>
  </g>
  <path d="M74 126 C170 65 334 65 438 126" stroke="#fff" stroke-width="16" stroke-linecap="round" opacity=".16"/>
  <path d="M63 676 C162 718 344 718 449 662" stroke="#fff" stroke-width="14" stroke-linecap="round" opacity=".16"/>
</svg>