<svg xmlns="http://www.w3.org/2000/svg" viewBox="0 0 512 768" role="img" aria-label="机甲战士 original portrait">
  
  <defs>
    <linearGradient id="bgp477" x1="0" y1="0" x2="1" y2="1">
      <stop offset="0" stop-color="#e8edf2"/>
      <stop offset=".55" stop-color="#9aa8b7"/>
      <stop offset="1" stop-color="#536271"/>
    </linearGradient>
    <radialGradient id="body" cx=".36" cy=".25" r=".76">
      <stop offset="0" stop-color="#e8edf2"/>
      <stop offset=".6" stop-color="#9aa8b7"/>
      <stop offset="1" stop-color="#536271"/>
    </radialGradient>
    <radialGradient id="head" cx=".36" cy=".26" r=".72">
      <stop offset="0" stop-color="#ffffff" stop-opacity=".85"/>
      <stop offset=".2" stop-color="#e8edf2"/>
      <stop offset=".72" stop-color="#9aa8b7"/>
      <stop offset="1" stop-color="#536271"/>
    </radialGradient>
    <filter id="softShadow" x="-30%" y="-30%" width="160%" height="160%">
      <feDropShadow dx="0" dy="8" stdDeviation="8" flood-color="#536271" flood-opacity=".35"/>
    </filter>
  </defs>
  <rect width="512" height="768" rx="48" fill="url(#bgp477)"/>
  <rect x="24" y="24" width="464" height="720" rx="40" fill="#ffffff" opacity=".08"/>
  <g opacity=".42"><circle cx="44" cy="54" r="1.4" fill="#fff" opacity="0.35"/><circle cx="37" cy="131" r="3.0" fill="#fff" opacity="0.51"/><circle cx="171" cy="97" r="3.2" fill="#fff" opacity="0.69"/><circle cx="415" cy="217" r="1.5" fill="#fff" opacity="0.44"/><circle cx="116" cy="454" r="2.6" fill="#fff" opacity="0.39"/><circle cx="282" cy="153" r="1.2" fill="#fff" opacity="0.52"/><circle cx="373" cy="720" r="1.2" fill="#fff" opacity="0.42"/><circle cx="234" cy="412" r="2.5" fill="#fff" opacity="0.65"/><circle cx="128" cy="561" r="2.5" fill="#fff" opacity="0.53"/><circle cx="432" cy="475" r="2.0" fill="#fff" opacity="0.33"/><circle cx="155" cy="162" r="2.6" fill="#fff" opacity="0.54"/><circle cx="57" cy="202" r="2.0" fill="#fff" opacity="0.50"/><circle cx="239" cy="227" r="1.2" fill="#fff" opacity="0.36"/><circle cx="93" cy="476" r="2.5" fill="#fff" opacity="0.66"/><circle cx="162" cy="661" r="2.6" fill="#fff" opacity="0.42"/><circle cx="249" cy="447" r="1.0" fill="#fff" opacity="0.51"/><circle cx="133" cy="271" r="2.9" fill="#fff" opacity="0.58"/><circle cx="307" cy="204" r="1.7" fill="#fff" opacity="0.66"/><circle cx="158" cy="715" r="1.4" fill="#fff" opacity="0.32"/><circle cx="453" cy="278" r="2.9" fill="#fff" opacity="0.60"/><circle cx="59" cy="181" r="1.3" fill="#fff" opacity="0.34"/><circle cx="138" cy="387" r="2.0" fill="#fff" opacity="0.68"/><circle cx="40" cy="510" r="1.7" fill="#fff" opacity="0.55"/><circle cx="106" cy="627" r="1.6" fill="#fff" opacity="0.47"/><circle cx="155" cy="703" r="2.2" fill="#fff" opacity="0.65"/><circle cx="187" cy="419" r="3.1" fill="#fff" opacity="0.36"/><circle cx="300" cy="561" r="2.4" fill="#fff" opacity="0.33"/><circle cx="292" cy="125" r="2.5" fill="#fff" opacity="0.68"/></g>
  <path d="M69 625 C150 571 359 568 443 628" fill="#9aa8b7" opacity=".14"/>
  <ellipse cx="256" cy="662" rx="150" ry="34" fill="#536271" opacity=".28"/>
  <g transform="translate(0 122)">
    <ellipse cx="178.10000000000002" cy="257.2" rx="69.69999999999999" ry="100.44999999999999" fill="#e8edf2" opacity=".55"/><ellipse cx="333.9" cy="257.2" rx="69.69999999999999" ry="100.44999999999999" fill="#e8edf2" opacity=".55"/><ellipse cx="256" cy="331" rx="65.6" ry="122.99999999999999" fill="url(#body)" filter="url(#softShadow)"/><circle cx="256" cy="214.15" r="69.69999999999999" fill="url(#head)"/><path d="M219.1 160.85000000000002 Q174 93.20000000000002 118.65 117.80000000000001" stroke="#536271" stroke-width="10.25" fill="none" stroke-linecap="round"/><path d="M292.9 160.85000000000002 Q338 93.20000000000002 393.35 117.80000000000001" stroke="#536271" stroke-width="10.25" fill="none" stroke-linecap="round"/><path d="M198.60000000000002 322.8 H313.4 M206.8 376.1 H305.2" stroke="#536271" stroke-width="8.2" opacity=".35"/><ellipse cx="223.2" cy="253.1" rx="14.349999999999998" ry="16.4" fill="#14213d"/><ellipse cx="288.8" cy="253.1" rx="14.349999999999998" ry="16.4" fill="#14213d"/><circle cx="229.35" cy="244.9" r="4.714999999999999" fill="#fff"/><circle cx="294.95" cy="244.9" r="4.714999999999999" fill="#fff"/><path d="M215 201.85000000000002 Q256 224.4 297 201.85000000000002" stroke="#e8edf2" stroke-width="10.25" fill="none" stroke-linecap="round" opacity=".8"/>
  </g>
  <path d="M74 126 C170 65 334 65 438 126" stroke="#fff" stroke-width="16" stroke-linecap="round" opacity=".16"/>
  <path d="M63 676 C162 718 344 718 449 662" stroke="#fff" stroke-width="14" stroke-linecap="round" opacity=".16"/>
</svg>