<svg xmlns="http://www.w3.org/2000/svg" viewBox="0 0 512 768" role="img" aria-label="毒蘑菇 original portrait">
  
  <defs>
    <linearGradient id="bgp478" x1="0" y1="0" x2="1" y2="1">
      <stop offset="0" stop-color="#efb2ff"/>
      <stop offset=".55" stop-color="#9b5de5"/>
      <stop offset="1" stop-color="#4f2378"/>
    </linearGradient>
    <radialGradient id="body" cx=".36" cy=".25" r=".76">
      <stop offset="0" stop-color="#efb2ff"/>
      <stop offset=".6" stop-color="#9b5de5"/>
      <stop offset="1" stop-color="#4f2378"/>
    </radialGradient>
    <radialGradient id="head" cx=".36" cy=".26" r=".72">
      <stop offset="0" stop-color="#ffffff" stop-opacity=".85"/>
      <stop offset=".2" stop-color="#efb2ff"/>
      <stop offset=".72" stop-color="#9b5de5"/>
      <stop offset="1" stop-color="#4f2378"/>
    </radialGradient>
    <filter id="softShadow" x="-30%" y="-30%" width="160%" height="160%">
      <feDropShadow dx="0" dy="8" stdDeviation="8" flood-color="#4f2378" flood-opacity=".35"/>
    </filter>
  </defs>
  <rect width="512" height="768" rx="48" fill="url(#bgp478)"/>
  <rect x="24" y="24" width="464" height="720" rx="40" fill="#ffffff" opacity=".08"/>
  <g opacity=".42"><circle cx="153" cy="366" r="2.9" fill="#fff" opacity="0.26"/><circle cx="80" cy="136" r="2.7" fill="#fff" opacity="0.50"/><circle cx="337" cy="351" r="2.0" fill="#fff" opacity="0.52"/><circle cx="341" cy="693" r="0.9" fill="#fff" opacity="0.32"/><circle cx="200" cy="64" r="0.9" fill="#fff" opacity="0.39"/><circle cx="499" cy="208" r="2.4" fill="#fff" opacity="0.61"/><circle cx="261" cy="254" r="2.9" fill="#fff" opacity="0.49"/><circle cx="44" cy="142" r="2.3" fill="#fff" opacity="0.29"/><circle cx="511" cy="406" r="2.6" fill="#fff" opacity="0.46"/><circle cx="166" cy="666" r="1.0" fill="#fff" opacity="0.32"/><circle cx="318" cy="458" r="2.1" fill="#fff" opacity="0.53"/><circle cx="361" cy="478" r="2.3" fill="#fff" opacity="0.32"/><circle cx="337" cy="294" r="3.2" fill="#fff" opacity="0.26"/><circle cx="16" cy="666" r="0.9" fill="#fff" opacity="0.42"/><circle cx="388" cy="481" r="1.9" fill="#fff" opacity="0.49"/><circle cx="454" cy="468" r="2.1" fill="#fff" opacity="0.28"/><circle cx="456" cy="12" r="1.2" fill="#fff" opacity="0.38"/><circle cx="360" cy="347" r="1.3" fill="#fff" opacity="0.63"/><circle cx="384" cy="702" r="2.1" fill="#fff" opacity="0.46"/><circle cx="98" cy="726" r="2.7" fill="#fff" opacity="0.36"/><circle cx="132" cy="337" r="1.6" fill="#fff" opacity="0.65"/><circle cx="24" cy="697" r="2.6" fill="#fff" opacity="0.26"/><circle cx="359" cy="710" r="1.2" fill="#fff" opacity="0.33"/><circle cx="378" cy="733" r="1.3" fill="#fff" opacity="0.34"/><circle cx="217" cy="314" r="2.0" fill="#fff" opacity="0.43"/><circle cx="444" cy="668" r="1.1" fill="#fff" opacity="0.58"/><circle cx="253" cy="566" r="1.3" fill="#fff" opacity="0.39"/><circle cx="112" cy="517" r="2.6" fill="#fff" opacity="0.36"/></g>
  <path d="M18 704 C124 595 205 659 256 580 C314 666 392 596 494 704 V768 H18Z" fill="#4f2378" opacity=".18"/>
  <ellipse cx="256" cy="662" rx="150" ry="34" fill="#4f2378" opacity=".28"/>
  <g transform="translate(0 122)">
    <path d="M231.4 400.7 C128.9 376.1 83.80000000000001 265.4 198.60000000000002 275.65" fill="#9b5de5" opacity=".82"/><path d="M280.6 400.7 C383.1 376.1 428.2 265.4 313.4 275.65" fill="#9b5de5" opacity=".82"/><ellipse cx="256" cy="339.2" rx="98.39999999999999" ry="116.85" fill="url(#body)" filter="url(#softShadow)"/><path d="M256 138.3 C169.9 175.20000000000002 161.7 259.25 256 251.05 C350.3 259.25 342.1 175.20000000000002 256 138.3Z" fill="#efb2ff"/><circle cx="256" cy="253.1" r="77.89999999999999" fill="url(#head)"/><ellipse cx="223.2" cy="253.1" rx="14.349999999999998" ry="16.4" fill="#14213d"/><ellipse cx="288.8" cy="253.1" rx="14.349999999999998" ry="16.4" fill="#14213d"/><circle cx="229.35" cy="244.9" r="4.714999999999999" fill="#fff"/><circle cx="294.95" cy="244.9" r="4.714999999999999" fill="#fff"/><path d="M215 201.85000000000002 Q256 224.4 297 201.85000000000002" stroke="#efb2ff" stroke-width="10.25" fill="none" stroke-linecap="round" opacity=".8"/>
  </g>
  <path d="M74 126 C170 65 334 65 438 126" stroke="#fff" stroke-width="16" stroke-linecap="round" opacity=".16"/>
  <path d="M63 676 C162 718 344 718 449 662" stroke="#fff" stroke-width="14" stroke-linecap="round" opacity=".16"/>
</svg>