<svg xmlns="http://www.w3.org/2000/svg" viewBox="0 0 512 768" role="img" aria-label="剧毒菌王 original portrait">
  
  <defs>
    <linearGradient id="bgp479" x1="0" y1="0" x2="1" y2="1">
      <stop offset="0" stop-color="#efb2ff"/>
      <stop offset=".55" stop-color="#9b5de5"/>
      <stop offset="1" stop-color="#4f2378"/>
    </linearGradient>
    <radialGradient id="body" cx=".36" cy=".25" r=".76">
      <stop offset="0" stop-color="#efb2ff"/>
      <stop offset=".6" stop-color="#9b5de5"/>
      <stop offset="1" stop-color="#4f2378"/>
    </radialGradient>
    <radialGradient id="head" cx=".36" cy=".26" r=".72">
      <stop offset="0" stop-color="#ffffff" stop-opacity=".85"/>
      <stop offset=".2" stop-color="#efb2ff"/>
      <stop offset=".72" stop-color="#9b5de5"/>
      <stop offset="1" stop-color="#4f2378"/>
    </radialGradient>
    <filter id="softShadow" x="-30%" y="-30%" width="160%" height="160%">
      <feDropShadow dx="0" dy="8" stdDeviation="8" flood-color="#4f2378" flood-opacity=".35"/>
    </filter>
  </defs>
  <rect width="512" height="768" rx="48" fill="url(#bgp479)"/>
  <rect x="24" y="24" width="464" height="720" rx="40" fill="#ffffff" opacity=".08"/>
  <g opacity=".42"><circle cx="340" cy="3" r="3.0" fill="#fff" opacity="0.33"/><circle cx="187" cy="664" r="2.0" fill="#fff" opacity="0.68"/><circle cx="67" cy="161" r="1.7" fill="#fff" opacity="0.27"/><circle cx="17" cy="494" r="1.0" fill="#fff" opacity="0.28"/><circle cx="163" cy="73" r="2.1" fill="#fff" opacity="0.52"/><circle cx="14" cy="721" r="1.1" fill="#fff" opacity="0.33"/><circle cx="356" cy="516" r="1.2" fill="#fff" opacity="0.28"/><circle cx="193" cy="260" r="2.1" fill="#fff" opacity="0.65"/><circle cx="143" cy="715" r="1.1" fill="#fff" opacity="0.36"/><circle cx="477" cy="439" r="2.6" fill="#fff" opacity="0.53"/><circle cx="395" cy="25" r="1.6" fill="#fff" opacity="0.35"/><circle cx="161" cy="121" r="2.0" fill="#fff" opacity="0.43"/><circle cx="365" cy="525" r="3.1" fill="#fff" opacity="0.33"/><circle cx="459" cy="308" r="2.3" fill="#fff" opacity="0.33"/><circle cx="269" cy="132" r="1.3" fill="#fff" opacity="0.39"/><circle cx="3" cy="207" r="2.2" fill="#fff" opacity="0.69"/><circle cx="415" cy="461" r="2.8" fill="#fff" opacity="0.44"/><circle cx="385" cy="631" r="3.2" fill="#fff" opacity="0.70"/><circle cx="26" cy="491" r="1.0" fill="#fff" opacity="0.62"/><circle cx="149" cy="84" r="2.5" fill="#fff" opacity="0.37"/><circle cx="56" cy="54" r="1.3" fill="#fff" opacity="0.53"/><circle cx="39" cy="20" r="2.3" fill="#fff" opacity="0.45"/><circle cx="97" cy="106" r="2.0" fill="#fff" opacity="0.40"/><circle cx="46" cy="276" r="2.4" fill="#fff" opacity="0.60"/><circle cx="412" cy="428" r="1.8" fill="#fff" opacity="0.45"/><circle cx="413" cy="412" r="2.8" fill="#fff" opacity="0.26"/><circle cx="361" cy="278" r="2.2" fill="#fff" opacity="0.26"/><circle cx="315" cy="641" r="3.0" fill="#fff" opacity="0.32"/></g>
  <path d="M38 684 C128 596 386 596 475 684 V768 H38Z" fill="#4f2378" opacity=".17"/>
  <ellipse cx="256" cy="662" rx="150" ry="34" fill="#4f2378" opacity=".28"/>
  <g transform="translate(0 122)">
    <ellipse cx="256" cy="359.7" rx="110.69999999999999" ry="100.44999999999999" fill="url(#body)" filter="url(#softShadow)"/><circle cx="256" cy="232.60000000000002" r="86.1" fill="url(#head)"/><path d="M149.4 322.8 C51.00000000000003 304.35 85.85000000000002 423.25 165.8 402.75" fill="#4f2378"/><path d="M362.6 322.8 C461 304.35 426.15 423.25 346.2 402.75" fill="#4f2378"/><path d="M200.65 148.55 H311.35 L331.85 195.7 Q256 224.4 180.15 195.7 Z" fill="#efb2ff" opacity=".85"/><ellipse cx="223.2" cy="253.1" rx="14.349999999999998" ry="16.4" fill="#14213d"/><ellipse cx="288.8" cy="253.1" rx="14.349999999999998" ry="16.4" fill="#14213d"/><circle cx="229.35" cy="244.9" r="4.714999999999999" fill="#fff"/><circle cx="294.95" cy="244.9" r="4.714999999999999" fill="#fff"/><circle cx="256" cy="210.05" r="14.349999999999998" fill="#efb2ff" opacity=".9"/>
  </g>
  <path d="M74 126 C170 65 334 65 438 126" stroke="#fff" stroke-width="16" stroke-linecap="round" opacity=".16"/>
  <path d="M63 676 C162 718 344 718 449 662" stroke="#fff" stroke-width="14" stroke-linecap="round" opacity=".16"/>
</svg>