<svg xmlns="http://www.w3.org/2000/svg" viewBox="0 0 512 768" role="img" aria-label="暗黑龙神 original portrait">
  
  <defs>
    <linearGradient id="bgp480" x1="0" y1="0" x2="1" y2="1">
      <stop offset="0" stop-color="#9ba0bb"/>
      <stop offset=".55" stop-color="#4a4b68"/>
      <stop offset="1" stop-color="#171728"/>
    </linearGradient>
    <radialGradient id="body" cx=".36" cy=".25" r=".76">
      <stop offset="0" stop-color="#9ba0bb"/>
      <stop offset=".6" stop-color="#4a4b68"/>
      <stop offset="1" stop-color="#171728"/>
    </radialGradient>
    <radialGradient id="head" cx=".36" cy=".26" r=".72">
      <stop offset="0" stop-color="#ffffff" stop-opacity=".85"/>
      <stop offset=".2" stop-color="#9ba0bb"/>
      <stop offset=".72" stop-color="#4a4b68"/>
      <stop offset="1" stop-color="#171728"/>
    </radialGradient>
    <filter id="softShadow" x="-30%" y="-30%" width="160%" height="160%">
      <feDropShadow dx="0" dy="8" stdDeviation="8" flood-color="#171728" flood-opacity=".35"/>
    </filter>
  </defs>
  <rect width="512" height="768" rx="48" fill="url(#bgp480)"/>
  <rect x="24" y="24" width="464" height="720" rx="40" fill="#ffffff" opacity=".08"/>
  <g opacity=".42"><circle cx="385" cy="78" r="2.7" fill="#fff" opacity="0.53"/><circle cx="429" cy="360" r="2.0" fill="#fff" opacity="0.26"/><circle cx="365" cy="735" r="1.4" fill="#fff" opacity="0.44"/><circle cx="343" cy="437" r="2.6" fill="#fff" opacity="0.70"/><circle cx="207" cy="687" r="1.7" fill="#fff" opacity="0.55"/><circle cx="250" cy="566" r="3.1" fill="#fff" opacity="0.63"/><circle cx="504" cy="661" r="1.6" fill="#fff" opacity="0.40"/><circle cx="177" cy="45" r="2.9" fill="#fff" opacity="0.43"/><circle cx="32" cy="494" r="0.9" fill="#fff" opacity="0.27"/><circle cx="334" cy="45" r="2.0" fill="#fff" opacity="0.48"/><circle cx="45" cy="34" r="2.0" fill="#fff" opacity="0.60"/><circle cx="171" cy="25" r="2.5" fill="#fff" opacity="0.28"/><circle cx="82" cy="486" r="1.8" fill="#fff" opacity="0.67"/><circle cx="402" cy="478" r="1.8" fill="#fff" opacity="0.27"/><circle cx="475" cy="102" r="1.2" fill="#fff" opacity="0.37"/><circle cx="13" cy="716" r="3.0" fill="#fff" opacity="0.32"/><circle cx="259" cy="159" r="2.5" fill="#fff" opacity="0.62"/><circle cx="80" cy="58" r="3.0" fill="#fff" opacity="0.54"/><circle cx="338" cy="314" r="2.1" fill="#fff" opacity="0.53"/><circle cx="508" cy="493" r="2.6" fill="#fff" opacity="0.31"/><circle cx="62" cy="686" r="2.5" fill="#fff" opacity="0.60"/><circle cx="208" cy="490" r="3.2" fill="#fff" opacity="0.42"/><circle cx="57" cy="339" r="3.1" fill="#fff" opacity="0.50"/><circle cx="184" cy="268" r="2.5" fill="#fff" opacity="0.64"/><circle cx="267" cy="108" r="1.0" fill="#fff" opacity="0.68"/><circle cx="364" cy="761" r="1.2" fill="#fff" opacity="0.44"/><circle cx="214" cy="617" r="2.2" fill="#fff" opacity="0.63"/><circle cx="13" cy="709" r="1.0" fill="#fff" opacity="0.46"/></g>
  <path d="M70 600 C142 504 297 500 443 610" fill="#171728" opacity=".18"/><path d="M52 642 C146 578 341 580 471 650" fill="#171728" opacity=".16"/>
  <ellipse cx="256" cy="662" rx="150" ry="34" fill="#171728" opacity=".28"/>
  <g transform="translate(0 122)">
    <path d="M108.4 347.4 C161.7 224.4 292.9 175.20000000000002 389.25 253.1 C325.7 249 276.5 285.9 247.8 376.1" fill="#171728" opacity=".45"/><ellipse cx="256" cy="335.1" rx="110.69999999999999" ry="92.24999999999999" fill="url(#body)" filter="url(#softShadow)"/><path d="M167.85000000000002 253.1 L219.1 130.10000000000002 L249.85 244.9 Z" fill="#4a4b68"/><path d="M344.15 253.1 L292.9 130.10000000000002 L262.15 244.9 Z" fill="#4a4b68"/><ellipse cx="256" cy="267.45" rx="96.35" ry="86.1" fill="url(#head)"/><path d="M151.45 292.05 Q87.9 298.2 63.30000000000001 253.1" stroke="#9ba0bb" stroke-width="10.25" fill="none" stroke-linecap="round" opacity=".85"/><path d="M360.55 292.05 Q424.1 298.2 448.7 253.1" stroke="#9ba0bb" stroke-width="10.25" fill="none" stroke-linecap="round" opacity=".85"/><ellipse cx="223.2" cy="253.1" rx="14.349999999999998" ry="16.4" fill="#14213d"/><ellipse cx="288.8" cy="253.1" rx="14.349999999999998" ry="16.4" fill="#14213d"/><circle cx="229.35" cy="244.9" r="4.714999999999999" fill="#fff"/><circle cx="294.95" cy="244.9" r="4.714999999999999" fill="#fff"/><circle cx="256" cy="210.05" r="14.349999999999998" fill="#9ba0bb" opacity=".9"/>
  </g>
  <path d="M74 126 C170 65 334 65 438 126" stroke="#fff" stroke-width="16" stroke-linecap="round" opacity=".16"/>
  <path d="M63 676 C162 718 344 718 449 662" stroke="#fff" stroke-width="14" stroke-linecap="round" opacity=".16"/>
</svg>