<svg xmlns="http://www.w3.org/2000/svg" viewBox="0 0 512 768" role="img" aria-label="光明凤凰 original portrait">
  
  <defs>
    <linearGradient id="bgp481" x1="0" y1="0" x2="1" y2="1">
      <stop offset="0" stop-color="#ffd7f3"/>
      <stop offset=".55" stop-color="#f47ac2"/>
      <stop offset="1" stop-color="#8e3b89"/>
    </linearGradient>
    <radialGradient id="body" cx=".36" cy=".25" r=".76">
      <stop offset="0" stop-color="#ffd7f3"/>
      <stop offset=".6" stop-color="#f47ac2"/>
      <stop offset="1" stop-color="#8e3b89"/>
    </radialGradient>
    <radialGradient id="head" cx=".36" cy=".26" r=".72">
      <stop offset="0" stop-color="#ffffff" stop-opacity=".85"/>
      <stop offset=".2" stop-color="#ffd7f3"/>
      <stop offset=".72" stop-color="#f47ac2"/>
      <stop offset="1" stop-color="#8e3b89"/>
    </radialGradient>
    <filter id="softShadow" x="-30%" y="-30%" width="160%" height="160%">
      <feDropShadow dx="0" dy="8" stdDeviation="8" flood-color="#8e3b89" flood-opacity=".35"/>
    </filter>
  </defs>
  <rect width="512" height="768" rx="48" fill="url(#bgp481)"/>
  <rect x="24" y="24" width="464" height="720" rx="40" fill="#ffffff" opacity=".08"/>
  <g opacity=".42"><circle cx="262" cy="312" r="1.0" fill="#fff" opacity="0.32"/><circle cx="410" cy="531" r="1.9" fill="#fff" opacity="0.47"/><circle cx="448" cy="188" r="2.8" fill="#fff" opacity="0.54"/><circle cx="403" cy="240" r="2.7" fill="#fff" opacity="0.60"/><circle cx="335" cy="372" r="2.9" fill="#fff" opacity="0.30"/><circle cx="61" cy="332" r="2.7" fill="#fff" opacity="0.32"/><circle cx="22" cy="489" r="1.7" fill="#fff" opacity="0.57"/><circle cx="269" cy="235" r="1.0" fill="#fff" opacity="0.61"/><circle cx="404" cy="645" r="2.3" fill="#fff" opacity="0.67"/><circle cx="301" cy="736" r="1.4" fill="#fff" opacity="0.69"/><circle cx="456" cy="207" r="1.5" fill="#fff" opacity="0.49"/><circle cx="472" cy="368" r="2.8" fill="#fff" opacity="0.28"/><circle cx="414" cy="741" r="2.4" fill="#fff" opacity="0.28"/><circle cx="329" cy="471" r="3.0" fill="#fff" opacity="0.53"/><circle cx="382" cy="175" r="2.2" fill="#fff" opacity="0.68"/><circle cx="65" cy="502" r="1.6" fill="#fff" opacity="0.37"/><circle cx="351" cy="360" r="2.7" fill="#fff" opacity="0.70"/><circle cx="320" cy="640" r="2.9" fill="#fff" opacity="0.43"/><circle cx="226" cy="23" r="2.4" fill="#fff" opacity="0.63"/><circle cx="322" cy="4" r="2.1" fill="#fff" opacity="0.66"/><circle cx="46" cy="645" r="1.8" fill="#fff" opacity="0.36"/><circle cx="70" cy="76" r="2.8" fill="#fff" opacity="0.70"/><circle cx="459" cy="218" r="1.3" fill="#fff" opacity="0.42"/><circle cx="235" cy="671" r="3.1" fill="#fff" opacity="0.44"/><circle cx="349" cy="227" r="2.3" fill="#fff" opacity="0.67"/><circle cx="262" cy="732" r="1.0" fill="#fff" opacity="0.65"/><circle cx="452" cy="38" r="1.8" fill="#fff" opacity="0.44"/><circle cx="108" cy="628" r="1.2" fill="#fff" opacity="0.35"/></g>
  <path d="M0 620 C92 590 171 620 259 600 C357 577 432 594 512 565 V768 H0Z" fill="#fff" opacity=".18"/>
  <ellipse cx="256" cy="662" rx="150" ry="34" fill="#8e3b89" opacity=".28"/>
  <g transform="translate(0 122)">
    <path d="M219.1 306.4 C65.35000000000002 187.5 67.4 392.5 206.8 400.7" fill="#f47ac2" opacity=".78"/><path d="M292.9 306.4 C446.65 187.5 444.6 392.5 305.2 400.7" fill="#f47ac2" opacity=".78"/><ellipse cx="256" cy="343.3" rx="86.1" ry="110.69999999999999" fill="url(#body)" filter="url(#softShadow)"/><circle cx="256" cy="228.5" r="77.89999999999999" fill="url(#head)"/><path d="M245.75 226.45 L331.85 249 L249.85 269.5 Z" fill="#ffd7f3"/><path d="M210.9 154.70000000000002 C239.6 89.10000000000002 280.6 109.60000000000002 260.1 167" fill="#8e3b89" opacity=".85"/><ellipse cx="223.2" cy="253.1" rx="14.349999999999998" ry="16.4" fill="#14213d"/><ellipse cx="288.8" cy="253.1" rx="14.349999999999998" ry="16.4" fill="#14213d"/><circle cx="229.35" cy="244.9" r="4.714999999999999" fill="#fff"/><circle cx="294.95" cy="244.9" r="4.714999999999999" fill="#fff"/><circle cx="256" cy="210.05" r="14.349999999999998" fill="#ffd7f3" opacity=".9"/>
  </g>
  <path d="M74 126 C170 65 334 65 438 126" stroke="#fff" stroke-width="16" stroke-linecap="round" opacity=".16"/>
  <path d="M63 676 C162 718 344 718 449 662" stroke="#fff" stroke-width="14" stroke-linecap="round" opacity=".16"/>
</svg>