<svg xmlns="http://www.w3.org/2000/svg" viewBox="0 0 512 768" role="img" aria-label="大地母神 original portrait">
  
  <defs>
    <linearGradient id="bgp485" x1="0" y1="0" x2="1" y2="1">
      <stop offset="0" stop-color="#e9c68f"/>
      <stop offset=".55" stop-color="#a0713d"/>
      <stop offset="1" stop-color="#5a3b22"/>
    </linearGradient>
    <radialGradient id="body" cx=".36" cy=".25" r=".76">
      <stop offset="0" stop-color="#e9c68f"/>
      <stop offset=".6" stop-color="#a0713d"/>
      <stop offset="1" stop-color="#5a3b22"/>
    </radialGradient>
    <radialGradient id="head" cx=".36" cy=".26" r=".72">
      <stop offset="0" stop-color="#ffffff" stop-opacity=".85"/>
      <stop offset=".2" stop-color="#e9c68f"/>
      <stop offset=".72" stop-color="#a0713d"/>
      <stop offset="1" stop-color="#5a3b22"/>
    </radialGradient>
    <filter id="softShadow" x="-30%" y="-30%" width="160%" height="160%">
      <feDropShadow dx="0" dy="8" stdDeviation="8" flood-color="#5a3b22" flood-opacity=".35"/>
    </filter>
  </defs>
  <rect width="512" height="768" rx="48" fill="url(#bgp485)"/>
  <rect x="24" y="24" width="464" height="720" rx="40" fill="#ffffff" opacity=".08"/>
  <g opacity=".42"><circle cx="174" cy="634" r="1.0" fill="#fff" opacity="0.29"/><circle cx="259" cy="250" r="1.7" fill="#fff" opacity="0.42"/><circle cx="11" cy="317" r="0.8" fill="#fff" opacity="0.32"/><circle cx="490" cy="750" r="2.9" fill="#fff" opacity="0.32"/><circle cx="341" cy="691" r="3.0" fill="#fff" opacity="0.33"/><circle cx="142" cy="500" r="2.7" fill="#fff" opacity="0.27"/><circle cx="305" cy="128" r="1.4" fill="#fff" opacity="0.46"/><circle cx="287" cy="691" r="0.8" fill="#fff" opacity="0.55"/><circle cx="283" cy="183" r="2.5" fill="#fff" opacity="0.60"/><circle cx="207" cy="137" r="1.4" fill="#fff" opacity="0.52"/><circle cx="217" cy="243" r="1.1" fill="#fff" opacity="0.64"/><circle cx="97" cy="499" r="1.1" fill="#fff" opacity="0.59"/><circle cx="148" cy="468" r="2.3" fill="#fff" opacity="0.54"/><circle cx="486" cy="727" r="2.0" fill="#fff" opacity="0.56"/><circle cx="484" cy="641" r="1.9" fill="#fff" opacity="0.55"/><circle cx="456" cy="336" r="3.1" fill="#fff" opacity="0.35"/><circle cx="82" cy="235" r="1.7" fill="#fff" opacity="0.45"/><circle cx="444" cy="198" r="2.7" fill="#fff" opacity="0.26"/><circle cx="258" cy="597" r="2.3" fill="#fff" opacity="0.49"/><circle cx="39" cy="569" r="1.1" fill="#fff" opacity="0.53"/><circle cx="370" cy="11" r="1.3" fill="#fff" opacity="0.26"/><circle cx="155" cy="224" r="0.8" fill="#fff" opacity="0.61"/><circle cx="358" cy="1" r="1.2" fill="#fff" opacity="0.26"/><circle cx="495" cy="284" r="1.6" fill="#fff" opacity="0.70"/><circle cx="167" cy="578" r="2.8" fill="#fff" opacity="0.68"/><circle cx="395" cy="642" r="1.3" fill="#fff" opacity="0.55"/><circle cx="166" cy="42" r="1.5" fill="#fff" opacity="0.60"/><circle cx="211" cy="567" r="1.1" fill="#fff" opacity="0.60"/></g>
  <circle cx="256" cy="294" r="183" fill="#e9c68f" opacity=".12"/><circle cx="256" cy="294" r="141" fill="#fff" opacity=".1"/>
  <ellipse cx="256" cy="662" rx="150" ry="34" fill="#5a3b22" opacity=".28"/>
  <g transform="translate(0 122)">
    <ellipse cx="256" cy="339.2" rx="100.44999999999999" ry="112.74999999999999" fill="url(#body)" filter="url(#softShadow)"/><circle cx="256" cy="226.45" r="79.94999999999999" fill="url(#head)"/><ellipse cx="256" cy="214.15" rx="139.39999999999998" ry="36.9" fill="none" stroke="#e9c68f" stroke-width="14.349999999999998" opacity=".75" transform="rotate(-12 256 214.15)"/><path d="M256 103.45000000000002 L276.5 154.70000000000002 L333.9 156.75 L286.75 187.5 L303.15 242.85 L256 208 L208.85 242.85 L225.25 187.5 L178.10000000000002 156.75 L235.5 154.70000000000002 Z" fill="#a0713d"/><ellipse cx="223.2" cy="253.1" rx="14.349999999999998" ry="16.4" fill="#14213d"/><ellipse cx="288.8" cy="253.1" rx="14.349999999999998" ry="16.4" fill="#14213d"/><circle cx="229.35" cy="244.9" r="4.714999999999999" fill="#fff"/><circle cx="294.95" cy="244.9" r="4.714999999999999" fill="#fff"/><path d="M256 183.4 L278.55 212.10000000000002 L256 242.85 L233.45 212.10000000000002 Z" fill="#e9c68f" opacity=".92"/>
  </g>
  <path d="M74 126 C170 65 334 65 438 126" stroke="#fff" stroke-width="16" stroke-linecap="round" opacity=".16"/>
  <path d="M63 676 C162 718 344 718 449 662" stroke="#fff" stroke-width="14" stroke-linecap="round" opacity=".16"/>
</svg>