<svg xmlns="http://www.w3.org/2000/svg" viewBox="0 0 512 768" role="img" aria-label="永恒之树 original portrait">
  
  <defs>
    <linearGradient id="bgp486" x1="0" y1="0" x2="1" y2="1">
      <stop offset="0" stop-color="#c7f7a4"/>
      <stop offset=".55" stop-color="#43b957"/>
      <stop offset="1" stop-color="#1f6f43"/>
    </linearGradient>
    <radialGradient id="body" cx=".36" cy=".25" r=".76">
      <stop offset="0" stop-color="#c7f7a4"/>
      <stop offset=".6" stop-color="#43b957"/>
      <stop offset="1" stop-color="#1f6f43"/>
    </radialGradient>
    <radialGradient id="head" cx=".36" cy=".26" r=".72">
      <stop offset="0" stop-color="#ffffff" stop-opacity=".85"/>
      <stop offset=".2" stop-color="#c7f7a4"/>
      <stop offset=".72" stop-color="#43b957"/>
      <stop offset="1" stop-color="#1f6f43"/>
    </radialGradient>
    <filter id="softShadow" x="-30%" y="-30%" width="160%" height="160%">
      <feDropShadow dx="0" dy="8" stdDeviation="8" flood-color="#1f6f43" flood-opacity=".35"/>
    </filter>
  </defs>
  <rect width="512" height="768" rx="48" fill="url(#bgp486)"/>
  <rect x="24" y="24" width="464" height="720" rx="40" fill="#ffffff" opacity=".08"/>
  <g opacity=".42"><circle cx="352" cy="628" r="3.2" fill="#fff" opacity="0.53"/><circle cx="389" cy="672" r="2.6" fill="#fff" opacity="0.39"/><circle cx="473" cy="305" r="2.5" fill="#fff" opacity="0.59"/><circle cx="136" cy="389" r="2.1" fill="#fff" opacity="0.53"/><circle cx="200" cy="15" r="3.0" fill="#fff" opacity="0.38"/><circle cx="171" cy="767" r="1.6" fill="#fff" opacity="0.31"/><circle cx="379" cy="693" r="1.9" fill="#fff" opacity="0.52"/><circle cx="214" cy="290" r="2.2" fill="#fff" opacity="0.34"/><circle cx="380" cy="521" r="3.0" fill="#fff" opacity="0.54"/><circle cx="309" cy="422" r="2.2" fill="#fff" opacity="0.49"/><circle cx="13" cy="167" r="1.1" fill="#fff" opacity="0.51"/><circle cx="508" cy="16" r="2.9" fill="#fff" opacity="0.55"/><circle cx="38" cy="120" r="1.8" fill="#fff" opacity="0.41"/><circle cx="4" cy="282" r="2.6" fill="#fff" opacity="0.48"/><circle cx="312" cy="336" r="1.3" fill="#fff" opacity="0.38"/><circle cx="201" cy="318" r="2.2" fill="#fff" opacity="0.63"/><circle cx="149" cy="597" r="2.7" fill="#fff" opacity="0.61"/><circle cx="479" cy="706" r="2.5" fill="#fff" opacity="0.65"/><circle cx="204" cy="715" r="2.1" fill="#fff" opacity="0.33"/><circle cx="233" cy="526" r="3.2" fill="#fff" opacity="0.53"/><circle cx="232" cy="57" r="2.5" fill="#fff" opacity="0.41"/><circle cx="448" cy="450" r="2.8" fill="#fff" opacity="0.32"/><circle cx="379" cy="393" r="1.5" fill="#fff" opacity="0.47"/><circle cx="508" cy="451" r="2.7" fill="#fff" opacity="0.50"/><circle cx="108" cy="201" r="1.8" fill="#fff" opacity="0.51"/><circle cx="308" cy="547" r="2.7" fill="#fff" opacity="0.45"/><circle cx="388" cy="138" r="1.6" fill="#fff" opacity="0.69"/><circle cx="383" cy="7" r="1.1" fill="#fff" opacity="0.66"/></g>
  <path d="M18 704 C124 595 205 659 256 580 C314 666 392 596 494 704 V768 H18Z" fill="#1f6f43" opacity=".18"/>
  <ellipse cx="256" cy="662" rx="150" ry="34" fill="#1f6f43" opacity=".28"/>
  <g transform="translate(0 122)">
    <path d="M231.4 400.7 C128.9 376.1 83.80000000000001 265.4 198.60000000000002 275.65" fill="#43b957" opacity=".82"/><path d="M280.6 400.7 C383.1 376.1 428.2 265.4 313.4 275.65" fill="#43b957" opacity=".82"/><ellipse cx="256" cy="339.2" rx="98.39999999999999" ry="116.85" fill="url(#body)" filter="url(#softShadow)"/><path d="M256 138.3 C169.9 175.20000000000002 161.7 259.25 256 251.05 C350.3 259.25 342.1 175.20000000000002 256 138.3Z" fill="#c7f7a4"/><circle cx="256" cy="253.1" r="77.89999999999999" fill="url(#head)"/><ellipse cx="223.2" cy="253.1" rx="14.349999999999998" ry="16.4" fill="#14213d"/><ellipse cx="288.8" cy="253.1" rx="14.349999999999998" ry="16.4" fill="#14213d"/><circle cx="229.35" cy="244.9" r="4.714999999999999" fill="#fff"/><circle cx="294.95" cy="244.9" r="4.714999999999999" fill="#fff"/><path d="M215 201.85000000000002 Q256 224.4 297 201.85000000000002" stroke="#c7f7a4" stroke-width="10.25" fill="none" stroke-linecap="round" opacity=".8"/>
  </g>
  <path d="M74 126 C170 65 334 65 438 126" stroke="#fff" stroke-width="16" stroke-linecap="round" opacity=".16"/>
  <path d="M63 676 C162 718 344 718 449 662" stroke="#fff" stroke-width="14" stroke-linecap="round" opacity=".16"/>
</svg>