<svg xmlns="http://www.w3.org/2000/svg" viewBox="0 0 512 768" role="img" aria-label="冰霜女帝 original portrait">
  
  <defs>
    <linearGradient id="bgp489" x1="0" y1="0" x2="1" y2="1">
      <stop offset="0" stop-color="#d7fbff"/>
      <stop offset=".55" stop-color="#71d6e8"/>
      <stop offset="1" stop-color="#318aa3"/>
    </linearGradient>
    <radialGradient id="body" cx=".36" cy=".25" r=".76">
      <stop offset="0" stop-color="#d7fbff"/>
      <stop offset=".6" stop-color="#71d6e8"/>
      <stop offset="1" stop-color="#318aa3"/>
    </radialGradient>
    <radialGradient id="head" cx=".36" cy=".26" r=".72">
      <stop offset="0" stop-color="#ffffff" stop-opacity=".85"/>
      <stop offset=".2" stop-color="#d7fbff"/>
      <stop offset=".72" stop-color="#71d6e8"/>
      <stop offset="1" stop-color="#318aa3"/>
    </radialGradient>
    <filter id="softShadow" x="-30%" y="-30%" width="160%" height="160%">
      <feDropShadow dx="0" dy="8" stdDeviation="8" flood-color="#318aa3" flood-opacity=".35"/>
    </filter>
  </defs>
  <rect width="512" height="768" rx="48" fill="url(#bgp489)"/>
  <rect x="24" y="24" width="464" height="720" rx="40" fill="#ffffff" opacity=".08"/>
  <g opacity=".42"><circle cx="455" cy="375" r="1.4" fill="#fff" opacity="0.50"/><circle cx="423" cy="570" r="2.3" fill="#fff" opacity="0.40"/><circle cx="328" cy="133" r="2.5" fill="#fff" opacity="0.49"/><circle cx="158" cy="318" r="1.9" fill="#fff" opacity="0.32"/><circle cx="452" cy="527" r="2.2" fill="#fff" opacity="0.68"/><circle cx="289" cy="602" r="2.3" fill="#fff" opacity="0.54"/><circle cx="387" cy="583" r="1.7" fill="#fff" opacity="0.42"/><circle cx="147" cy="369" r="2.1" fill="#fff" opacity="0.54"/><circle cx="286" cy="148" r="1.7" fill="#fff" opacity="0.43"/><circle cx="359" cy="225" r="3.1" fill="#fff" opacity="0.59"/><circle cx="418" cy="439" r="3.2" fill="#fff" opacity="0.37"/><circle cx="419" cy="607" r="2.4" fill="#fff" opacity="0.66"/><circle cx="326" cy="315" r="2.6" fill="#fff" opacity="0.67"/><circle cx="268" cy="630" r="1.7" fill="#fff" opacity="0.37"/><circle cx="94" cy="57" r="2.3" fill="#fff" opacity="0.66"/><circle cx="141" cy="369" r="1.3" fill="#fff" opacity="0.43"/><circle cx="337" cy="1" r="1.1" fill="#fff" opacity="0.42"/><circle cx="297" cy="221" r="1.3" fill="#fff" opacity="0.55"/><circle cx="129" cy="671" r="1.9" fill="#fff" opacity="0.36"/><circle cx="148" cy="607" r="1.3" fill="#fff" opacity="0.37"/><circle cx="229" cy="98" r="2.5" fill="#fff" opacity="0.64"/><circle cx="394" cy="94" r="2.2" fill="#fff" opacity="0.44"/><circle cx="123" cy="381" r="2.6" fill="#fff" opacity="0.68"/><circle cx="102" cy="274" r="3.2" fill="#fff" opacity="0.55"/><circle cx="508" cy="438" r="1.8" fill="#fff" opacity="0.61"/><circle cx="238" cy="374" r="3.1" fill="#fff" opacity="0.66"/><circle cx="171" cy="486" r="2.3" fill="#fff" opacity="0.60"/><circle cx="24" cy="116" r="2.4" fill="#fff" opacity="0.65"/></g>
  <path d="M0 585 C86 541 164 618 248 574 C338 526 407 595 512 548 V768 H0Z" fill="#71d6e8" opacity=".2"/><path d="M0 650 C105 610 180 690 282 638 C370 594 426 650 512 618 V768 H0Z" fill="#d7fbff" opacity=".18"/>
  <ellipse cx="256" cy="662" rx="150" ry="34" fill="#318aa3" opacity=".28"/>
  <g transform="translate(0 122)">
    <path d="M110.45000000000002 326.9 L40.75000000000003 240.8 L44.85000000000002 413 Z" fill="#71d6e8" opacity=".86"/><ellipse cx="247.8" cy="322.8" rx="139.39999999999998" ry="88.14999999999999" fill="url(#body)" filter="url(#softShadow)"/><path d="M243.7 242.85 C288.8 136.25 358.5 173.15 342.1 263.35" fill="#71d6e8" opacity=".72"/><path d="M301.1 384.3 C338 458.1 411.79999999999995 413 362.6 359.7" fill="#d7fbff" opacity=".8"/><circle cx="329.8" cy="292.05" r="14.349999999999998" fill="#101828"/><circle cx="335.95" cy="285.9" r="4.714999999999999" fill="#fff"/><path d="M256 183.4 L278.55 212.10000000000002 L256 242.85 L233.45 212.10000000000002 Z" fill="#d7fbff" opacity=".92"/>
  </g>
  <path d="M74 126 C170 65 334 65 438 126" stroke="#fff" stroke-width="16" stroke-linecap="round" opacity=".16"/>
  <path d="M63 676 C162 718 344 718 449 662" stroke="#fff" stroke-width="14" stroke-linecap="round" opacity=".16"/>
</svg>