<svg xmlns="http://www.w3.org/2000/svg" viewBox="0 0 512 768" role="img" aria-label="治愈天使 original portrait">
  
  <defs>
    <linearGradient id="bgp49" x1="0" y1="0" x2="1" y2="1">
      <stop offset="0" stop-color="#ffd7f3"/>
      <stop offset=".55" stop-color="#f47ac2"/>
      <stop offset="1" stop-color="#8e3b89"/>
    </linearGradient>
    <radialGradient id="body" cx=".36" cy=".25" r=".76">
      <stop offset="0" stop-color="#ffd7f3"/>
      <stop offset=".6" stop-color="#f47ac2"/>
      <stop offset="1" stop-color="#8e3b89"/>
    </radialGradient>
    <radialGradient id="head" cx=".36" cy=".26" r=".72">
      <stop offset="0" stop-color="#ffffff" stop-opacity=".85"/>
      <stop offset=".2" stop-color="#ffd7f3"/>
      <stop offset=".72" stop-color="#f47ac2"/>
      <stop offset="1" stop-color="#8e3b89"/>
    </radialGradient>
    <filter id="softShadow" x="-30%" y="-30%" width="160%" height="160%">
      <feDropShadow dx="0" dy="8" stdDeviation="8" flood-color="#8e3b89" flood-opacity=".35"/>
    </filter>
  </defs>
  <rect width="512" height="768" rx="48" fill="url(#bgp49)"/>
  <rect x="24" y="24" width="464" height="720" rx="40" fill="#ffffff" opacity=".08"/>
  <g opacity=".42"><circle cx="104" cy="706" r="2.3" fill="#fff" opacity="0.34"/><circle cx="430" cy="460" r="3.1" fill="#fff" opacity="0.36"/><circle cx="116" cy="514" r="0.9" fill="#fff" opacity="0.48"/><circle cx="411" cy="360" r="1.9" fill="#fff" opacity="0.38"/><circle cx="224" cy="58" r="1.0" fill="#fff" opacity="0.70"/><circle cx="142" cy="71" r="2.5" fill="#fff" opacity="0.27"/><circle cx="266" cy="404" r="2.6" fill="#fff" opacity="0.58"/><circle cx="59" cy="530" r="2.7" fill="#fff" opacity="0.43"/><circle cx="332" cy="353" r="2.0" fill="#fff" opacity="0.42"/><circle cx="382" cy="42" r="2.5" fill="#fff" opacity="0.56"/><circle cx="180" cy="51" r="2.3" fill="#fff" opacity="0.48"/><circle cx="418" cy="220" r="2.7" fill="#fff" opacity="0.37"/><circle cx="266" cy="32" r="1.1" fill="#fff" opacity="0.32"/><circle cx="287" cy="323" r="2.9" fill="#fff" opacity="0.43"/><circle cx="196" cy="611" r="1.7" fill="#fff" opacity="0.65"/><circle cx="144" cy="154" r="1.9" fill="#fff" opacity="0.57"/><circle cx="388" cy="417" r="1.4" fill="#fff" opacity="0.69"/><circle cx="162" cy="165" r="1.5" fill="#fff" opacity="0.61"/><circle cx="339" cy="86" r="2.4" fill="#fff" opacity="0.41"/><circle cx="59" cy="380" r="3.0" fill="#fff" opacity="0.39"/><circle cx="118" cy="15" r="0.9" fill="#fff" opacity="0.59"/><circle cx="9" cy="377" r="1.6" fill="#fff" opacity="0.49"/><circle cx="111" cy="366" r="2.0" fill="#fff" opacity="0.61"/><circle cx="365" cy="443" r="1.8" fill="#fff" opacity="0.41"/><circle cx="101" cy="410" r="1.1" fill="#fff" opacity="0.48"/><circle cx="308" cy="365" r="1.8" fill="#fff" opacity="0.67"/><circle cx="278" cy="453" r="2.7" fill="#fff" opacity="0.25"/><circle cx="492" cy="261" r="1.9" fill="#fff" opacity="0.68"/></g>
  <circle cx="256" cy="294" r="185" fill="#ffd7f3" opacity=".12"/><circle cx="256" cy="294" r="143" fill="#fff" opacity=".1"/>
  <ellipse cx="256" cy="662" rx="150" ry="34" fill="#8e3b89" opacity=".28"/>
  <g transform="translate(0 122)">
    <ellipse cx="256" cy="339.2" rx="100.44999999999999" ry="112.74999999999999" fill="url(#body)" filter="url(#softShadow)"/><circle cx="256" cy="226.45" r="79.94999999999999" fill="url(#head)"/><ellipse cx="256" cy="214.15" rx="139.39999999999998" ry="36.9" fill="none" stroke="#ffd7f3" stroke-width="14.349999999999998" opacity=".75" transform="rotate(-12 256 214.15)"/><path d="M256 103.45000000000002 L276.5 154.70000000000002 L333.9 156.75 L286.75 187.5 L303.15 242.85 L256 208 L208.85 242.85 L225.25 187.5 L178.10000000000002 156.75 L235.5 154.70000000000002 Z" fill="#f47ac2"/><ellipse cx="223.2" cy="253.1" rx="14.349999999999998" ry="16.4" fill="#14213d"/><ellipse cx="288.8" cy="253.1" rx="14.349999999999998" ry="16.4" fill="#14213d"/><circle cx="229.35" cy="244.9" r="4.714999999999999" fill="#fff"/><circle cx="294.95" cy="244.9" r="4.714999999999999" fill="#fff"/><path d="M256 183.4 L278.55 212.10000000000002 L256 242.85 L233.45 212.10000000000002 Z" fill="#ffd7f3" opacity=".92"/>
  </g>
  <path d="M74 126 C170 65 334 65 438 126" stroke="#fff" stroke-width="16" stroke-linecap="round" opacity=".16"/>
  <path d="M63 676 C162 718 344 718 449 662" stroke="#fff" stroke-width="14" stroke-linecap="round" opacity=".16"/>
</svg>