<svg xmlns="http://www.w3.org/2000/svg" viewBox="0 0 512 768" role="img" aria-label="竹叶熊猫 original portrait">
  
  <defs>
    <linearGradient id="bgp490" x1="0" y1="0" x2="1" y2="1">
      <stop offset="0" stop-color="#ffc0a6"/>
      <stop offset=".55" stop-color="#d95f3d"/>
      <stop offset="1" stop-color="#7a271d"/>
    </linearGradient>
    <radialGradient id="body" cx=".36" cy=".25" r=".76">
      <stop offset="0" stop-color="#ffc0a6"/>
      <stop offset=".6" stop-color="#d95f3d"/>
      <stop offset="1" stop-color="#7a271d"/>
    </radialGradient>
    <radialGradient id="head" cx=".36" cy=".26" r=".72">
      <stop offset="0" stop-color="#ffffff" stop-opacity=".85"/>
      <stop offset=".2" stop-color="#ffc0a6"/>
      <stop offset=".72" stop-color="#d95f3d"/>
      <stop offset="1" stop-color="#7a271d"/>
    </radialGradient>
    <filter id="softShadow" x="-30%" y="-30%" width="160%" height="160%">
      <feDropShadow dx="0" dy="8" stdDeviation="8" flood-color="#7a271d" flood-opacity=".35"/>
    </filter>
  </defs>
  <rect width="512" height="768" rx="48" fill="url(#bgp490)"/>
  <rect x="24" y="24" width="464" height="720" rx="40" fill="#ffffff" opacity=".08"/>
  <g opacity=".42"><circle cx="417" cy="474" r="1.2" fill="#fff" opacity="0.54"/><circle cx="207" cy="253" r="2.7" fill="#fff" opacity="0.32"/><circle cx="437" cy="639" r="2.9" fill="#fff" opacity="0.31"/><circle cx="180" cy="397" r="3.1" fill="#fff" opacity="0.33"/><circle cx="297" cy="122" r="3.0" fill="#fff" opacity="0.41"/><circle cx="66" cy="717" r="1.1" fill="#fff" opacity="0.55"/><circle cx="265" cy="98" r="3.0" fill="#fff" opacity="0.37"/><circle cx="421" cy="256" r="3.0" fill="#fff" opacity="0.49"/><circle cx="331" cy="739" r="1.3" fill="#fff" opacity="0.62"/><circle cx="489" cy="637" r="3.0" fill="#fff" opacity="0.61"/><circle cx="411" cy="375" r="2.5" fill="#fff" opacity="0.29"/><circle cx="18" cy="352" r="1.2" fill="#fff" opacity="0.34"/><circle cx="178" cy="529" r="2.9" fill="#fff" opacity="0.57"/><circle cx="476" cy="249" r="1.9" fill="#fff" opacity="0.35"/><circle cx="505" cy="356" r="1.0" fill="#fff" opacity="0.42"/><circle cx="293" cy="658" r="3.0" fill="#fff" opacity="0.54"/><circle cx="472" cy="502" r="2.9" fill="#fff" opacity="0.60"/><circle cx="253" cy="261" r="2.3" fill="#fff" opacity="0.59"/><circle cx="473" cy="439" r="2.8" fill="#fff" opacity="0.47"/><circle cx="334" cy="629" r="2.4" fill="#fff" opacity="0.57"/><circle cx="336" cy="335" r="1.8" fill="#fff" opacity="0.44"/><circle cx="464" cy="42" r="2.6" fill="#fff" opacity="0.28"/><circle cx="474" cy="569" r="2.4" fill="#fff" opacity="0.31"/><circle cx="224" cy="445" r="0.9" fill="#fff" opacity="0.27"/><circle cx="357" cy="116" r="1.9" fill="#fff" opacity="0.29"/><circle cx="484" cy="631" r="1.2" fill="#fff" opacity="0.68"/><circle cx="324" cy="582" r="2.0" fill="#fff" opacity="0.57"/><circle cx="493" cy="501" r="3.0" fill="#fff" opacity="0.57"/></g>
  <path d="M18 704 C124 595 205 659 256 580 C314 666 392 596 494 704 V768 H18Z" fill="#7a271d" opacity=".18"/>
  <ellipse cx="256" cy="662" rx="150" ry="34" fill="#7a271d" opacity=".28"/>
  <g transform="translate(0 122)">
    <path d="M231.4 400.7 C128.9 376.1 83.80000000000001 265.4 198.60000000000002 275.65" fill="#d95f3d" opacity=".82"/><path d="M280.6 400.7 C383.1 376.1 428.2 265.4 313.4 275.65" fill="#d95f3d" opacity=".82"/><ellipse cx="256" cy="339.2" rx="98.39999999999999" ry="116.85" fill="url(#body)" filter="url(#softShadow)"/><path d="M256 138.3 C169.9 175.20000000000002 161.7 259.25 256 251.05 C350.3 259.25 342.1 175.20000000000002 256 138.3Z" fill="#ffc0a6"/><circle cx="256" cy="253.1" r="77.89999999999999" fill="url(#head)"/><ellipse cx="223.2" cy="253.1" rx="14.349999999999998" ry="16.4" fill="#14213d"/><ellipse cx="288.8" cy="253.1" rx="14.349999999999998" ry="16.4" fill="#14213d"/><circle cx="229.35" cy="244.9" r="4.714999999999999" fill="#fff"/><circle cx="294.95" cy="244.9" r="4.714999999999999" fill="#fff"/><path d="M215 201.85000000000002 Q256 224.4 297 201.85000000000002" stroke="#ffc0a6" stroke-width="10.25" fill="none" stroke-linecap="round" opacity=".8"/>
  </g>
  <path d="M74 126 C170 65 334 65 438 126" stroke="#fff" stroke-width="16" stroke-linecap="round" opacity=".16"/>
  <path d="M63 676 C162 718 344 718 449 662" stroke="#fff" stroke-width="14" stroke-linecap="round" opacity=".16"/>
</svg>