<svg xmlns="http://www.w3.org/2000/svg" viewBox="0 0 512 768" role="img" aria-label="沙漠蝎王 original portrait">
  
  <defs>
    <linearGradient id="bgp494" x1="0" y1="0" x2="1" y2="1">
      <stop offset="0" stop-color="#efb2ff"/>
      <stop offset=".55" stop-color="#9b5de5"/>
      <stop offset="1" stop-color="#4f2378"/>
    </linearGradient>
    <radialGradient id="body" cx=".36" cy=".25" r=".76">
      <stop offset="0" stop-color="#efb2ff"/>
      <stop offset=".6" stop-color="#9b5de5"/>
      <stop offset="1" stop-color="#4f2378"/>
    </radialGradient>
    <radialGradient id="head" cx=".36" cy=".26" r=".72">
      <stop offset="0" stop-color="#ffffff" stop-opacity=".85"/>
      <stop offset=".2" stop-color="#efb2ff"/>
      <stop offset=".72" stop-color="#9b5de5"/>
      <stop offset="1" stop-color="#4f2378"/>
    </radialGradient>
    <filter id="softShadow" x="-30%" y="-30%" width="160%" height="160%">
      <feDropShadow dx="0" dy="8" stdDeviation="8" flood-color="#4f2378" flood-opacity=".35"/>
    </filter>
  </defs>
  <rect width="512" height="768" rx="48" fill="url(#bgp494)"/>
  <rect x="24" y="24" width="464" height="720" rx="40" fill="#ffffff" opacity=".08"/>
  <g opacity=".42"><circle cx="139" cy="420" r="1.7" fill="#fff" opacity="0.68"/><circle cx="368" cy="410" r="1.8" fill="#fff" opacity="0.59"/><circle cx="13" cy="676" r="1.2" fill="#fff" opacity="0.38"/><circle cx="293" cy="511" r="2.4" fill="#fff" opacity="0.42"/><circle cx="139" cy="173" r="0.9" fill="#fff" opacity="0.40"/><circle cx="168" cy="446" r="2.8" fill="#fff" opacity="0.62"/><circle cx="383" cy="301" r="0.8" fill="#fff" opacity="0.49"/><circle cx="346" cy="685" r="2.7" fill="#fff" opacity="0.45"/><circle cx="340" cy="749" r="2.8" fill="#fff" opacity="0.66"/><circle cx="226" cy="209" r="2.4" fill="#fff" opacity="0.34"/><circle cx="458" cy="18" r="0.9" fill="#fff" opacity="0.43"/><circle cx="490" cy="703" r="2.0" fill="#fff" opacity="0.57"/><circle cx="495" cy="231" r="1.7" fill="#fff" opacity="0.41"/><circle cx="313" cy="158" r="2.7" fill="#fff" opacity="0.31"/><circle cx="374" cy="305" r="2.6" fill="#fff" opacity="0.30"/><circle cx="401" cy="348" r="2.0" fill="#fff" opacity="0.63"/><circle cx="293" cy="565" r="2.4" fill="#fff" opacity="0.27"/><circle cx="413" cy="163" r="1.9" fill="#fff" opacity="0.53"/><circle cx="12" cy="419" r="2.7" fill="#fff" opacity="0.66"/><circle cx="76" cy="599" r="3.0" fill="#fff" opacity="0.35"/><circle cx="82" cy="433" r="3.0" fill="#fff" opacity="0.47"/><circle cx="254" cy="307" r="2.3" fill="#fff" opacity="0.31"/><circle cx="38" cy="367" r="2.0" fill="#fff" opacity="0.48"/><circle cx="32" cy="207" r="3.1" fill="#fff" opacity="0.46"/><circle cx="491" cy="403" r="1.8" fill="#fff" opacity="0.31"/><circle cx="488" cy="629" r="2.9" fill="#fff" opacity="0.40"/><circle cx="414" cy="274" r="2.3" fill="#fff" opacity="0.38"/><circle cx="95" cy="325" r="2.4" fill="#fff" opacity="0.39"/></g>
  <path d="M69 625 C150 571 359 568 443 628" fill="#9b5de5" opacity=".14"/>
  <ellipse cx="256" cy="662" rx="150" ry="34" fill="#4f2378" opacity=".28"/>
  <g transform="translate(0 122)">
    <ellipse cx="178.10000000000002" cy="257.2" rx="69.69999999999999" ry="100.44999999999999" fill="#efb2ff" opacity=".55"/><ellipse cx="333.9" cy="257.2" rx="69.69999999999999" ry="100.44999999999999" fill="#efb2ff" opacity=".55"/><ellipse cx="256" cy="331" rx="65.6" ry="122.99999999999999" fill="url(#body)" filter="url(#softShadow)"/><circle cx="256" cy="214.15" r="69.69999999999999" fill="url(#head)"/><path d="M219.1 160.85000000000002 Q174 93.20000000000002 118.65 117.80000000000001" stroke="#4f2378" stroke-width="10.25" fill="none" stroke-linecap="round"/><path d="M292.9 160.85000000000002 Q338 93.20000000000002 393.35 117.80000000000001" stroke="#4f2378" stroke-width="10.25" fill="none" stroke-linecap="round"/><path d="M198.60000000000002 322.8 H313.4 M206.8 376.1 H305.2" stroke="#4f2378" stroke-width="8.2" opacity=".35"/><ellipse cx="223.2" cy="253.1" rx="14.349999999999998" ry="16.4" fill="#14213d"/><ellipse cx="288.8" cy="253.1" rx="14.349999999999998" ry="16.4" fill="#14213d"/><circle cx="229.35" cy="244.9" r="4.714999999999999" fill="#fff"/><circle cx="294.95" cy="244.9" r="4.714999999999999" fill="#fff"/><path d="M256 183.4 L278.55 212.10000000000002 L256 242.85 L233.45 212.10000000000002 Z" fill="#efb2ff" opacity=".92"/>
  </g>
  <path d="M74 126 C170 65 334 65 438 126" stroke="#fff" stroke-width="16" stroke-linecap="round" opacity=".16"/>
  <path d="M63 676 C162 718 344 718 449 662" stroke="#fff" stroke-width="14" stroke-linecap="round" opacity=".16"/>
</svg>