<svg xmlns="http://www.w3.org/2000/svg" viewBox="0 0 512 768" role="img" aria-label="极光鹿 original portrait">
  
  <defs>
    <linearGradient id="bgp495" x1="0" y1="0" x2="1" y2="1">
      <stop offset="0" stop-color="#d7fbff"/>
      <stop offset=".55" stop-color="#71d6e8"/>
      <stop offset="1" stop-color="#318aa3"/>
    </linearGradient>
    <radialGradient id="body" cx=".36" cy=".25" r=".76">
      <stop offset="0" stop-color="#d7fbff"/>
      <stop offset=".6" stop-color="#71d6e8"/>
      <stop offset="1" stop-color="#318aa3"/>
    </radialGradient>
    <radialGradient id="head" cx=".36" cy=".26" r=".72">
      <stop offset="0" stop-color="#ffffff" stop-opacity=".85"/>
      <stop offset=".2" stop-color="#d7fbff"/>
      <stop offset=".72" stop-color="#71d6e8"/>
      <stop offset="1" stop-color="#318aa3"/>
    </radialGradient>
    <filter id="softShadow" x="-30%" y="-30%" width="160%" height="160%">
      <feDropShadow dx="0" dy="8" stdDeviation="8" flood-color="#318aa3" flood-opacity=".35"/>
    </filter>
  </defs>
  <rect width="512" height="768" rx="48" fill="url(#bgp495)"/>
  <rect x="24" y="24" width="464" height="720" rx="40" fill="#ffffff" opacity=".08"/>
  <g opacity=".42"><circle cx="192" cy="64" r="0.9" fill="#fff" opacity="0.33"/><circle cx="355" cy="343" r="1.7" fill="#fff" opacity="0.51"/><circle cx="179" cy="694" r="1.6" fill="#fff" opacity="0.30"/><circle cx="47" cy="490" r="2.7" fill="#fff" opacity="0.38"/><circle cx="452" cy="306" r="2.8" fill="#fff" opacity="0.28"/><circle cx="200" cy="730" r="1.0" fill="#fff" opacity="0.32"/><circle cx="460" cy="47" r="0.8" fill="#fff" opacity="0.41"/><circle cx="466" cy="529" r="2.2" fill="#fff" opacity="0.58"/><circle cx="248" cy="376" r="1.1" fill="#fff" opacity="0.44"/><circle cx="475" cy="101" r="2.4" fill="#fff" opacity="0.68"/><circle cx="155" cy="317" r="3.0" fill="#fff" opacity="0.33"/><circle cx="292" cy="34" r="2.1" fill="#fff" opacity="0.40"/><circle cx="199" cy="502" r="1.9" fill="#fff" opacity="0.61"/><circle cx="140" cy="198" r="1.4" fill="#fff" opacity="0.44"/><circle cx="70" cy="480" r="2.5" fill="#fff" opacity="0.35"/><circle cx="432" cy="39" r="1.2" fill="#fff" opacity="0.47"/><circle cx="274" cy="621" r="1.5" fill="#fff" opacity="0.55"/><circle cx="196" cy="399" r="3.1" fill="#fff" opacity="0.40"/><circle cx="424" cy="153" r="2.6" fill="#fff" opacity="0.60"/><circle cx="449" cy="185" r="1.5" fill="#fff" opacity="0.57"/><circle cx="351" cy="60" r="1.2" fill="#fff" opacity="0.51"/><circle cx="61" cy="262" r="2.5" fill="#fff" opacity="0.47"/><circle cx="97" cy="165" r="1.1" fill="#fff" opacity="0.46"/><circle cx="376" cy="292" r="3.1" fill="#fff" opacity="0.37"/><circle cx="447" cy="26" r="1.7" fill="#fff" opacity="0.54"/><circle cx="60" cy="641" r="2.6" fill="#fff" opacity="0.26"/><circle cx="23" cy="459" r="0.9" fill="#fff" opacity="0.40"/><circle cx="369" cy="138" r="1.6" fill="#fff" opacity="0.48"/></g>
  <circle cx="256" cy="294" r="210" fill="#d7fbff" opacity=".12"/><circle cx="256" cy="294" r="168" fill="#fff" opacity=".1"/>
  <ellipse cx="256" cy="662" rx="150" ry="34" fill="#318aa3" opacity=".28"/>
  <g transform="translate(0 122)">
    <ellipse cx="256" cy="339.2" rx="100.44999999999999" ry="112.74999999999999" fill="url(#body)" filter="url(#softShadow)"/><circle cx="256" cy="226.45" r="79.94999999999999" fill="url(#head)"/><ellipse cx="256" cy="214.15" rx="139.39999999999998" ry="36.9" fill="none" stroke="#d7fbff" stroke-width="14.349999999999998" opacity=".75" transform="rotate(-12 256 214.15)"/><path d="M256 103.45000000000002 L276.5 154.70000000000002 L333.9 156.75 L286.75 187.5 L303.15 242.85 L256 208 L208.85 242.85 L225.25 187.5 L178.10000000000002 156.75 L235.5 154.70000000000002 Z" fill="#71d6e8"/><ellipse cx="223.2" cy="253.1" rx="14.349999999999998" ry="16.4" fill="#14213d"/><ellipse cx="288.8" cy="253.1" rx="14.349999999999998" ry="16.4" fill="#14213d"/><circle cx="229.35" cy="244.9" r="4.714999999999999" fill="#fff"/><circle cx="294.95" cy="244.9" r="4.714999999999999" fill="#fff"/><path d="M256 183.4 L278.55 212.10000000000002 L256 242.85 L233.45 212.10000000000002 Z" fill="#d7fbff" opacity=".92"/>
  </g>
  <path d="M74 126 C170 65 334 65 438 126" stroke="#fff" stroke-width="16" stroke-linecap="round" opacity=".16"/>
  <path d="M63 676 C162 718 344 718 449 662" stroke="#fff" stroke-width="14" stroke-linecap="round" opacity=".16"/>
</svg>