<svg xmlns="http://www.w3.org/2000/svg" viewBox="0 0 512 768" role="img" aria-label="瞌睡熊 original portrait">
  
  <defs>
    <linearGradient id="bgp50" x1="0" y1="0" x2="1" y2="1">
      <stop offset="0" stop-color="#f4e8d8"/>
      <stop offset=".55" stop-color="#b78f68"/>
      <stop offset="1" stop-color="#6d4f3f"/>
    </linearGradient>
    <radialGradient id="body" cx=".36" cy=".25" r=".76">
      <stop offset="0" stop-color="#f4e8d8"/>
      <stop offset=".6" stop-color="#b78f68"/>
      <stop offset="1" stop-color="#6d4f3f"/>
    </radialGradient>
    <radialGradient id="head" cx=".36" cy=".26" r=".72">
      <stop offset="0" stop-color="#ffffff" stop-opacity=".85"/>
      <stop offset=".2" stop-color="#f4e8d8"/>
      <stop offset=".72" stop-color="#b78f68"/>
      <stop offset="1" stop-color="#6d4f3f"/>
    </radialGradient>
    <filter id="softShadow" x="-30%" y="-30%" width="160%" height="160%">
      <feDropShadow dx="0" dy="8" stdDeviation="8" flood-color="#6d4f3f" flood-opacity=".35"/>
    </filter>
  </defs>
  <rect width="512" height="768" rx="48" fill="url(#bgp50)"/>
  <rect x="24" y="24" width="464" height="720" rx="40" fill="#ffffff" opacity=".08"/>
  <g opacity=".42"><circle cx="138" cy="213" r="2.0" fill="#fff" opacity="0.65"/><circle cx="35" cy="470" r="2.4" fill="#fff" opacity="0.70"/><circle cx="219" cy="9" r="2.6" fill="#fff" opacity="0.59"/><circle cx="489" cy="677" r="2.7" fill="#fff" opacity="0.49"/><circle cx="49" cy="466" r="2.5" fill="#fff" opacity="0.29"/><circle cx="62" cy="7" r="1.0" fill="#fff" opacity="0.41"/><circle cx="326" cy="503" r="2.9" fill="#fff" opacity="0.59"/><circle cx="386" cy="214" r="1.9" fill="#fff" opacity="0.54"/><circle cx="1" cy="343" r="0.9" fill="#fff" opacity="0.57"/><circle cx="141" cy="291" r="2.1" fill="#fff" opacity="0.61"/><circle cx="258" cy="461" r="3.2" fill="#fff" opacity="0.28"/><circle cx="371" cy="299" r="1.1" fill="#fff" opacity="0.61"/><circle cx="409" cy="608" r="1.2" fill="#fff" opacity="0.30"/><circle cx="113" cy="464" r="1.0" fill="#fff" opacity="0.58"/><circle cx="93" cy="593" r="3.0" fill="#fff" opacity="0.31"/><circle cx="425" cy="590" r="3.1" fill="#fff" opacity="0.55"/><circle cx="326" cy="363" r="1.4" fill="#fff" opacity="0.36"/><circle cx="490" cy="158" r="2.9" fill="#fff" opacity="0.33"/><circle cx="385" cy="158" r="2.0" fill="#fff" opacity="0.36"/><circle cx="196" cy="676" r="1.3" fill="#fff" opacity="0.46"/><circle cx="450" cy="504" r="2.1" fill="#fff" opacity="0.36"/><circle cx="134" cy="358" r="2.1" fill="#fff" opacity="0.43"/><circle cx="365" cy="53" r="2.7" fill="#fff" opacity="0.48"/><circle cx="487" cy="55" r="2.3" fill="#fff" opacity="0.52"/><circle cx="459" cy="90" r="1.2" fill="#fff" opacity="0.45"/><circle cx="7" cy="201" r="1.8" fill="#fff" opacity="0.39"/><circle cx="300" cy="651" r="2.5" fill="#fff" opacity="0.59"/><circle cx="37" cy="552" r="2.8" fill="#fff" opacity="0.33"/></g>
  <path d="M0 670 C96 613 167 665 256 620 C337 660 421 608 512 662 V768 H0Z" fill="#6d4f3f" opacity=".15"/>
  <ellipse cx="256" cy="662" rx="150" ry="34" fill="#6d4f3f" opacity=".28"/>
  <g transform="translate(0 122)">
    <path d="M352.35 347.4 C442.54999999999995 322.8 420 222.35000000000002 346.2 263.35" stroke="#b78f68" stroke-width="28.699999999999996" fill="none" stroke-linecap="round" opacity=".76"/><ellipse cx="256" cy="353.55" rx="108.64999999999999" ry="102.49999999999999" fill="url(#body)" filter="url(#softShadow)"/><path d="M184.25 212.10000000000002 L137.10000000000002 115.75000000000003 L231.4 175.20000000000002 Z" fill="#b78f68"/><path d="M327.75 212.10000000000002 L374.9 115.75000000000003 L280.6 175.20000000000002 Z" fill="#b78f68"/><circle cx="256" cy="234.65" r="92.24999999999999" fill="url(#head)"/><ellipse cx="221.15" cy="251.05" rx="16.4" ry="20.5" fill="#182033"/><ellipse cx="290.85" cy="251.05" rx="16.4" ry="20.5" fill="#182033"/><ellipse cx="223.2" cy="253.1" rx="14.349999999999998" ry="16.4" fill="#14213d"/><ellipse cx="288.8" cy="253.1" rx="14.349999999999998" ry="16.4" fill="#14213d"/><circle cx="229.35" cy="244.9" r="4.714999999999999" fill="#fff"/><circle cx="294.95" cy="244.9" r="4.714999999999999" fill="#fff"/><path d="M215 201.85000000000002 Q256 224.4 297 201.85000000000002" stroke="#f4e8d8" stroke-width="10.25" fill="none" stroke-linecap="round" opacity=".8"/>
  </g>
  <path d="M74 126 C170 65 334 65 438 126" stroke="#fff" stroke-width="16" stroke-linecap="round" opacity=".16"/>
  <path d="M63 676 C162 718 344 718 449 662" stroke="#fff" stroke-width="14" stroke-linecap="round" opacity=".16"/>
</svg>