<svg xmlns="http://www.w3.org/2000/svg" viewBox="0 0 512 768" role="img" aria-label="微风兔 original portrait">
  
  <defs>
    <linearGradient id="bgp501" x1="0" y1="0" x2="1" y2="1">
      <stop offset="0" stop-color="#d6fff8"/>
      <stop offset=".55" stop-color="#55c8b8"/>
      <stop offset="1" stop-color="#257173"/>
    </linearGradient>
    <radialGradient id="body" cx=".36" cy=".25" r=".76">
      <stop offset="0" stop-color="#d6fff8"/>
      <stop offset=".6" stop-color="#55c8b8"/>
      <stop offset="1" stop-color="#257173"/>
    </radialGradient>
    <radialGradient id="head" cx=".36" cy=".26" r=".72">
      <stop offset="0" stop-color="#ffffff" stop-opacity=".85"/>
      <stop offset=".2" stop-color="#d6fff8"/>
      <stop offset=".72" stop-color="#55c8b8"/>
      <stop offset="1" stop-color="#257173"/>
    </radialGradient>
    <filter id="softShadow" x="-30%" y="-30%" width="160%" height="160%">
      <feDropShadow dx="0" dy="8" stdDeviation="8" flood-color="#257173" flood-opacity=".35"/>
    </filter>
  </defs>
  <rect width="512" height="768" rx="48" fill="url(#bgp501)"/>
  <rect x="24" y="24" width="464" height="720" rx="40" fill="#ffffff" opacity=".08"/>
  <g opacity=".42"><circle cx="207" cy="233" r="1.3" fill="#fff" opacity="0.28"/><circle cx="137" cy="411" r="2.0" fill="#fff" opacity="0.31"/><circle cx="31" cy="702" r="1.7" fill="#fff" opacity="0.60"/><circle cx="456" cy="424" r="2.9" fill="#fff" opacity="0.48"/><circle cx="476" cy="283" r="2.9" fill="#fff" opacity="0.42"/><circle cx="176" cy="3" r="1.5" fill="#fff" opacity="0.31"/><circle cx="45" cy="478" r="1.7" fill="#fff" opacity="0.43"/><circle cx="47" cy="633" r="1.4" fill="#fff" opacity="0.60"/><circle cx="343" cy="720" r="1.0" fill="#fff" opacity="0.58"/><circle cx="155" cy="363" r="0.9" fill="#fff" opacity="0.57"/><circle cx="278" cy="14" r="0.8" fill="#fff" opacity="0.50"/><circle cx="141" cy="692" r="3.1" fill="#fff" opacity="0.56"/><circle cx="93" cy="475" r="1.1" fill="#fff" opacity="0.33"/><circle cx="329" cy="735" r="1.3" fill="#fff" opacity="0.58"/><circle cx="370" cy="396" r="1.4" fill="#fff" opacity="0.69"/><circle cx="256" cy="115" r="2.7" fill="#fff" opacity="0.58"/><circle cx="398" cy="614" r="1.6" fill="#fff" opacity="0.34"/><circle cx="140" cy="604" r="2.4" fill="#fff" opacity="0.41"/><circle cx="442" cy="686" r="1.8" fill="#fff" opacity="0.33"/><circle cx="492" cy="95" r="2.9" fill="#fff" opacity="0.66"/><circle cx="181" cy="401" r="1.2" fill="#fff" opacity="0.39"/><circle cx="47" cy="167" r="1.5" fill="#fff" opacity="0.29"/><circle cx="25" cy="447" r="1.2" fill="#fff" opacity="0.61"/><circle cx="393" cy="243" r="1.1" fill="#fff" opacity="0.27"/><circle cx="249" cy="140" r="3.1" fill="#fff" opacity="0.27"/><circle cx="237" cy="569" r="1.9" fill="#fff" opacity="0.68"/><circle cx="318" cy="640" r="2.6" fill="#fff" opacity="0.37"/><circle cx="234" cy="237" r="3.0" fill="#fff" opacity="0.63"/></g>
  <path d="M0 670 C96 613 167 665 256 620 C337 660 421 608 512 662 V768 H0Z" fill="#257173" opacity=".15"/>
  <ellipse cx="256" cy="662" rx="150" ry="34" fill="#257173" opacity=".28"/>
  <g transform="translate(0 122)">
    <path d="M352.35 347.4 C442.54999999999995 322.8 420 222.35000000000002 346.2 263.35" stroke="#55c8b8" stroke-width="28.699999999999996" fill="none" stroke-linecap="round" opacity=".76"/><ellipse cx="256" cy="353.55" rx="108.64999999999999" ry="102.49999999999999" fill="url(#body)" filter="url(#softShadow)"/><path d="M184.25 212.10000000000002 L137.10000000000002 115.75000000000003 L231.4 175.20000000000002 Z" fill="#55c8b8"/><path d="M327.75 212.10000000000002 L374.9 115.75000000000003 L280.6 175.20000000000002 Z" fill="#55c8b8"/><circle cx="256" cy="234.65" r="92.24999999999999" fill="url(#head)"/><ellipse cx="221.15" cy="251.05" rx="16.4" ry="20.5" fill="#182033"/><ellipse cx="290.85" cy="251.05" rx="16.4" ry="20.5" fill="#182033"/><ellipse cx="223.2" cy="253.1" rx="14.349999999999998" ry="16.4" fill="#14213d"/><ellipse cx="288.8" cy="253.1" rx="14.349999999999998" ry="16.4" fill="#14213d"/><circle cx="229.35" cy="244.9" r="4.714999999999999" fill="#fff"/><circle cx="294.95" cy="244.9" r="4.714999999999999" fill="#fff"/><path d="M215 201.85000000000002 Q256 224.4 297 201.85000000000002" stroke="#d6fff8" stroke-width="10.25" fill="none" stroke-linecap="round" opacity=".8"/>
  </g>
  <path d="M74 126 C170 65 334 65 438 126" stroke="#fff" stroke-width="16" stroke-linecap="round" opacity=".16"/>
  <path d="M63 676 C162 718 344 718 449 662" stroke="#fff" stroke-width="14" stroke-linecap="round" opacity=".16"/>
</svg>