<svg xmlns="http://www.w3.org/2000/svg" viewBox="0 0 512 768" role="img" aria-label="旋风兔 original portrait">
  
  <defs>
    <linearGradient id="bgp502" x1="0" y1="0" x2="1" y2="1">
      <stop offset="0" stop-color="#d6fff8"/>
      <stop offset=".55" stop-color="#55c8b8"/>
      <stop offset="1" stop-color="#257173"/>
    </linearGradient>
    <radialGradient id="body" cx=".36" cy=".25" r=".76">
      <stop offset="0" stop-color="#d6fff8"/>
      <stop offset=".6" stop-color="#55c8b8"/>
      <stop offset="1" stop-color="#257173"/>
    </radialGradient>
    <radialGradient id="head" cx=".36" cy=".26" r=".72">
      <stop offset="0" stop-color="#ffffff" stop-opacity=".85"/>
      <stop offset=".2" stop-color="#d6fff8"/>
      <stop offset=".72" stop-color="#55c8b8"/>
      <stop offset="1" stop-color="#257173"/>
    </radialGradient>
    <filter id="softShadow" x="-30%" y="-30%" width="160%" height="160%">
      <feDropShadow dx="0" dy="8" stdDeviation="8" flood-color="#257173" flood-opacity=".35"/>
    </filter>
  </defs>
  <rect width="512" height="768" rx="48" fill="url(#bgp502)"/>
  <rect x="24" y="24" width="464" height="720" rx="40" fill="#ffffff" opacity=".08"/>
  <g opacity=".42"><circle cx="0" cy="219" r="1.3" fill="#fff" opacity="0.60"/><circle cx="142" cy="593" r="2.4" fill="#fff" opacity="0.59"/><circle cx="326" cy="194" r="2.5" fill="#fff" opacity="0.65"/><circle cx="28" cy="37" r="1.5" fill="#fff" opacity="0.57"/><circle cx="95" cy="729" r="1.4" fill="#fff" opacity="0.60"/><circle cx="124" cy="645" r="2.8" fill="#fff" opacity="0.61"/><circle cx="377" cy="167" r="2.7" fill="#fff" opacity="0.61"/><circle cx="10" cy="595" r="1.9" fill="#fff" opacity="0.41"/><circle cx="338" cy="650" r="3.2" fill="#fff" opacity="0.45"/><circle cx="441" cy="283" r="1.8" fill="#fff" opacity="0.36"/><circle cx="157" cy="603" r="2.1" fill="#fff" opacity="0.30"/><circle cx="12" cy="385" r="3.1" fill="#fff" opacity="0.53"/><circle cx="277" cy="426" r="3.1" fill="#fff" opacity="0.57"/><circle cx="498" cy="622" r="1.8" fill="#fff" opacity="0.34"/><circle cx="134" cy="715" r="1.8" fill="#fff" opacity="0.35"/><circle cx="47" cy="328" r="1.0" fill="#fff" opacity="0.46"/><circle cx="405" cy="16" r="3.1" fill="#fff" opacity="0.25"/><circle cx="222" cy="425" r="2.3" fill="#fff" opacity="0.63"/><circle cx="346" cy="86" r="1.0" fill="#fff" opacity="0.43"/><circle cx="196" cy="67" r="2.7" fill="#fff" opacity="0.34"/><circle cx="442" cy="734" r="1.3" fill="#fff" opacity="0.59"/><circle cx="102" cy="42" r="0.9" fill="#fff" opacity="0.58"/><circle cx="153" cy="612" r="2.3" fill="#fff" opacity="0.35"/><circle cx="469" cy="547" r="1.0" fill="#fff" opacity="0.64"/><circle cx="463" cy="343" r="2.5" fill="#fff" opacity="0.59"/><circle cx="237" cy="656" r="3.1" fill="#fff" opacity="0.60"/><circle cx="292" cy="315" r="1.9" fill="#fff" opacity="0.70"/><circle cx="133" cy="653" r="0.9" fill="#fff" opacity="0.58"/></g>
  <path d="M0 670 C96 613 167 665 256 620 C337 660 421 608 512 662 V768 H0Z" fill="#257173" opacity=".15"/>
  <ellipse cx="256" cy="662" rx="150" ry="34" fill="#257173" opacity=".28"/>
  <g transform="translate(0 122)">
    <path d="M159.65 347.4 C69.45000000000002 322.8 92 222.35000000000002 165.8 263.35" stroke="#55c8b8" stroke-width="28.699999999999996" fill="none" stroke-linecap="round" opacity=".76"/><ellipse cx="256" cy="353.55" rx="108.64999999999999" ry="102.49999999999999" fill="url(#body)" filter="url(#softShadow)"/><path d="M184.25 212.10000000000002 L137.10000000000002 115.75000000000003 L231.4 175.20000000000002 Z" fill="#55c8b8"/><path d="M327.75 212.10000000000002 L374.9 115.75000000000003 L280.6 175.20000000000002 Z" fill="#55c8b8"/><circle cx="256" cy="234.65" r="92.24999999999999" fill="url(#head)"/><ellipse cx="221.15" cy="251.05" rx="16.4" ry="20.5" fill="#182033"/><ellipse cx="290.85" cy="251.05" rx="16.4" ry="20.5" fill="#182033"/><ellipse cx="223.2" cy="253.1" rx="14.349999999999998" ry="16.4" fill="#14213d"/><ellipse cx="288.8" cy="253.1" rx="14.349999999999998" ry="16.4" fill="#14213d"/><circle cx="229.35" cy="244.9" r="4.714999999999999" fill="#fff"/><circle cx="294.95" cy="244.9" r="4.714999999999999" fill="#fff"/><path d="M256 183.4 L278.55 212.10000000000002 L256 242.85 L233.45 212.10000000000002 Z" fill="#d6fff8" opacity=".92"/>
  </g>
  <path d="M74 126 C170 65 334 65 438 126" stroke="#fff" stroke-width="16" stroke-linecap="round" opacity=".16"/>
  <path d="M63 676 C162 718 344 718 449 662" stroke="#fff" stroke-width="14" stroke-linecap="round" opacity=".16"/>
</svg>