<svg xmlns="http://www.w3.org/2000/svg" viewBox="0 0 512 768" role="img" aria-label="暴风王兔 original portrait">
  
  <defs>
    <linearGradient id="bgp503" x1="0" y1="0" x2="1" y2="1">
      <stop offset="0" stop-color="#d6fff8"/>
      <stop offset=".55" stop-color="#55c8b8"/>
      <stop offset="1" stop-color="#257173"/>
    </linearGradient>
    <radialGradient id="body" cx=".36" cy=".25" r=".76">
      <stop offset="0" stop-color="#d6fff8"/>
      <stop offset=".6" stop-color="#55c8b8"/>
      <stop offset="1" stop-color="#257173"/>
    </radialGradient>
    <radialGradient id="head" cx=".36" cy=".26" r=".72">
      <stop offset="0" stop-color="#ffffff" stop-opacity=".85"/>
      <stop offset=".2" stop-color="#d6fff8"/>
      <stop offset=".72" stop-color="#55c8b8"/>
      <stop offset="1" stop-color="#257173"/>
    </radialGradient>
    <filter id="softShadow" x="-30%" y="-30%" width="160%" height="160%">
      <feDropShadow dx="0" dy="8" stdDeviation="8" flood-color="#257173" flood-opacity=".35"/>
    </filter>
  </defs>
  <rect width="512" height="768" rx="48" fill="url(#bgp503)"/>
  <rect x="24" y="24" width="464" height="720" rx="40" fill="#ffffff" opacity=".08"/>
  <g opacity=".42"><circle cx="304" cy="112" r="3.1" fill="#fff" opacity="0.60"/><circle cx="245" cy="72" r="1.8" fill="#fff" opacity="0.45"/><circle cx="505" cy="478" r="2.4" fill="#fff" opacity="0.36"/><circle cx="54" cy="370" r="2.4" fill="#fff" opacity="0.34"/><circle cx="366" cy="7" r="1.1" fill="#fff" opacity="0.68"/><circle cx="226" cy="45" r="1.5" fill="#fff" opacity="0.33"/><circle cx="280" cy="620" r="2.3" fill="#fff" opacity="0.68"/><circle cx="417" cy="606" r="0.8" fill="#fff" opacity="0.42"/><circle cx="70" cy="266" r="1.7" fill="#fff" opacity="0.35"/><circle cx="207" cy="410" r="1.3" fill="#fff" opacity="0.27"/><circle cx="218" cy="475" r="0.8" fill="#fff" opacity="0.57"/><circle cx="108" cy="749" r="3.1" fill="#fff" opacity="0.69"/><circle cx="291" cy="690" r="1.4" fill="#fff" opacity="0.33"/><circle cx="149" cy="628" r="1.0" fill="#fff" opacity="0.55"/><circle cx="418" cy="714" r="1.5" fill="#fff" opacity="0.47"/><circle cx="294" cy="729" r="1.6" fill="#fff" opacity="0.68"/><circle cx="227" cy="167" r="1.5" fill="#fff" opacity="0.46"/><circle cx="19" cy="492" r="0.9" fill="#fff" opacity="0.55"/><circle cx="136" cy="137" r="2.2" fill="#fff" opacity="0.39"/><circle cx="51" cy="473" r="3.0" fill="#fff" opacity="0.27"/><circle cx="201" cy="106" r="3.0" fill="#fff" opacity="0.28"/><circle cx="40" cy="212" r="1.2" fill="#fff" opacity="0.61"/><circle cx="55" cy="257" r="1.9" fill="#fff" opacity="0.63"/><circle cx="279" cy="260" r="1.7" fill="#fff" opacity="0.41"/><circle cx="5" cy="118" r="2.9" fill="#fff" opacity="0.52"/><circle cx="110" cy="762" r="2.3" fill="#fff" opacity="0.30"/><circle cx="106" cy="521" r="2.6" fill="#fff" opacity="0.68"/><circle cx="245" cy="400" r="1.5" fill="#fff" opacity="0.61"/></g>
  <path d="M38 684 C128 596 386 596 475 684 V768 H38Z" fill="#257173" opacity=".17"/>
  <ellipse cx="256" cy="662" rx="150" ry="34" fill="#257173" opacity=".28"/>
  <g transform="translate(0 122)">
    <ellipse cx="256" cy="359.7" rx="110.69999999999999" ry="100.44999999999999" fill="url(#body)" filter="url(#softShadow)"/><circle cx="256" cy="232.60000000000002" r="86.1" fill="url(#head)"/><path d="M149.4 322.8 C51.00000000000003 304.35 85.85000000000002 423.25 165.8 402.75" fill="#257173"/><path d="M362.6 322.8 C461 304.35 426.15 423.25 346.2 402.75" fill="#257173"/><path d="M200.65 148.55 H311.35 L331.85 195.7 Q256 224.4 180.15 195.7 Z" fill="#d6fff8" opacity=".85"/><ellipse cx="223.2" cy="253.1" rx="14.349999999999998" ry="16.4" fill="#14213d"/><ellipse cx="288.8" cy="253.1" rx="14.349999999999998" ry="16.4" fill="#14213d"/><circle cx="229.35" cy="244.9" r="4.714999999999999" fill="#fff"/><circle cx="294.95" cy="244.9" r="4.714999999999999" fill="#fff"/><path d="M256 183.4 L278.55 212.10000000000002 L256 242.85 L233.45 212.10000000000002 Z" fill="#d6fff8" opacity=".92"/>
  </g>
  <path d="M74 126 C170 65 334 65 438 126" stroke="#fff" stroke-width="16" stroke-linecap="round" opacity=".16"/>
  <path d="M63 676 C162 718 344 718 449 662" stroke="#fff" stroke-width="14" stroke-linecap="round" opacity=".16"/>
</svg>