<svg xmlns="http://www.w3.org/2000/svg" viewBox="0 0 512 768" role="img" aria-label="疾风隼 original portrait">
  
  <defs>
    <linearGradient id="bgp505" x1="0" y1="0" x2="1" y2="1">
      <stop offset="0" stop-color="#d6fff8"/>
      <stop offset=".55" stop-color="#55c8b8"/>
      <stop offset="1" stop-color="#257173"/>
    </linearGradient>
    <radialGradient id="body" cx=".36" cy=".25" r=".76">
      <stop offset="0" stop-color="#d6fff8"/>
      <stop offset=".6" stop-color="#55c8b8"/>
      <stop offset="1" stop-color="#257173"/>
    </radialGradient>
    <radialGradient id="head" cx=".36" cy=".26" r=".72">
      <stop offset="0" stop-color="#ffffff" stop-opacity=".85"/>
      <stop offset=".2" stop-color="#d6fff8"/>
      <stop offset=".72" stop-color="#55c8b8"/>
      <stop offset="1" stop-color="#257173"/>
    </radialGradient>
    <filter id="softShadow" x="-30%" y="-30%" width="160%" height="160%">
      <feDropShadow dx="0" dy="8" stdDeviation="8" flood-color="#257173" flood-opacity=".35"/>
    </filter>
  </defs>
  <rect width="512" height="768" rx="48" fill="url(#bgp505)"/>
  <rect x="24" y="24" width="464" height="720" rx="40" fill="#ffffff" opacity=".08"/>
  <g opacity=".42"><circle cx="500" cy="385" r="1.1" fill="#fff" opacity="0.47"/><circle cx="118" cy="200" r="0.9" fill="#fff" opacity="0.44"/><circle cx="48" cy="191" r="0.8" fill="#fff" opacity="0.59"/><circle cx="298" cy="540" r="1.8" fill="#fff" opacity="0.53"/><circle cx="489" cy="693" r="2.6" fill="#fff" opacity="0.57"/><circle cx="104" cy="530" r="2.4" fill="#fff" opacity="0.34"/><circle cx="205" cy="703" r="2.8" fill="#fff" opacity="0.68"/><circle cx="199" cy="601" r="1.1" fill="#fff" opacity="0.49"/><circle cx="409" cy="189" r="2.2" fill="#fff" opacity="0.54"/><circle cx="34" cy="50" r="3.0" fill="#fff" opacity="0.58"/><circle cx="4" cy="361" r="1.8" fill="#fff" opacity="0.60"/><circle cx="461" cy="705" r="1.4" fill="#fff" opacity="0.51"/><circle cx="24" cy="370" r="1.4" fill="#fff" opacity="0.32"/><circle cx="473" cy="677" r="2.0" fill="#fff" opacity="0.30"/><circle cx="181" cy="716" r="2.8" fill="#fff" opacity="0.40"/><circle cx="354" cy="621" r="2.6" fill="#fff" opacity="0.69"/><circle cx="368" cy="591" r="2.3" fill="#fff" opacity="0.49"/><circle cx="56" cy="608" r="1.8" fill="#fff" opacity="0.27"/><circle cx="215" cy="470" r="1.6" fill="#fff" opacity="0.35"/><circle cx="344" cy="605" r="2.0" fill="#fff" opacity="0.63"/><circle cx="15" cy="461" r="1.7" fill="#fff" opacity="0.60"/><circle cx="222" cy="233" r="1.9" fill="#fff" opacity="0.32"/><circle cx="206" cy="691" r="3.1" fill="#fff" opacity="0.31"/><circle cx="305" cy="566" r="1.0" fill="#fff" opacity="0.62"/><circle cx="212" cy="216" r="1.2" fill="#fff" opacity="0.69"/><circle cx="161" cy="323" r="1.4" fill="#fff" opacity="0.58"/><circle cx="373" cy="71" r="2.4" fill="#fff" opacity="0.55"/><circle cx="185" cy="555" r="2.7" fill="#fff" opacity="0.25"/></g>
  <path d="M0 620 C92 590 171 620 259 600 C357 577 432 594 512 565 V768 H0Z" fill="#fff" opacity=".18"/>
  <ellipse cx="256" cy="662" rx="150" ry="34" fill="#257173" opacity=".28"/>
  <g transform="translate(0 122)">
    <path d="M219.1 306.4 C65.35000000000002 187.5 67.4 392.5 206.8 400.7" fill="#55c8b8" opacity=".78"/><path d="M292.9 306.4 C446.65 187.5 444.6 392.5 305.2 400.7" fill="#55c8b8" opacity=".78"/><ellipse cx="256" cy="343.3" rx="86.1" ry="110.69999999999999" fill="url(#body)" filter="url(#softShadow)"/><circle cx="256" cy="228.5" r="77.89999999999999" fill="url(#head)"/><path d="M245.75 226.45 L331.85 249 L249.85 269.5 Z" fill="#d6fff8"/><path d="M210.9 154.70000000000002 C239.6 89.10000000000002 280.6 109.60000000000002 260.1 167" fill="#257173" opacity=".85"/><ellipse cx="223.2" cy="253.1" rx="14.349999999999998" ry="16.4" fill="#14213d"/><ellipse cx="288.8" cy="253.1" rx="14.349999999999998" ry="16.4" fill="#14213d"/><circle cx="229.35" cy="244.9" r="4.714999999999999" fill="#fff"/><circle cx="294.95" cy="244.9" r="4.714999999999999" fill="#fff"/><path d="M256 183.4 L278.55 212.10000000000002 L256 242.85 L233.45 212.10000000000002 Z" fill="#d6fff8" opacity=".92"/>
  </g>
  <path d="M74 126 C170 65 334 65 438 126" stroke="#fff" stroke-width="16" stroke-linecap="round" opacity=".16"/>
  <path d="M63 676 C162 718 344 718 449 662" stroke="#fff" stroke-width="14" stroke-linecap="round" opacity=".16"/>
</svg>