<svg xmlns="http://www.w3.org/2000/svg" viewBox="0 0 512 768" role="img" aria-label="浮空水母 original portrait">
  
  <defs>
    <linearGradient id="bgp507" x1="0" y1="0" x2="1" y2="1">
      <stop offset="0" stop-color="#d6fff8"/>
      <stop offset=".55" stop-color="#55c8b8"/>
      <stop offset="1" stop-color="#257173"/>
    </linearGradient>
    <radialGradient id="body" cx=".36" cy=".25" r=".76">
      <stop offset="0" stop-color="#d6fff8"/>
      <stop offset=".6" stop-color="#55c8b8"/>
      <stop offset="1" stop-color="#257173"/>
    </radialGradient>
    <radialGradient id="head" cx=".36" cy=".26" r=".72">
      <stop offset="0" stop-color="#ffffff" stop-opacity=".85"/>
      <stop offset=".2" stop-color="#d6fff8"/>
      <stop offset=".72" stop-color="#55c8b8"/>
      <stop offset="1" stop-color="#257173"/>
    </radialGradient>
    <filter id="softShadow" x="-30%" y="-30%" width="160%" height="160%">
      <feDropShadow dx="0" dy="8" stdDeviation="8" flood-color="#257173" flood-opacity=".35"/>
    </filter>
  </defs>
  <rect width="512" height="768" rx="48" fill="url(#bgp507)"/>
  <rect x="24" y="24" width="464" height="720" rx="40" fill="#ffffff" opacity=".08"/>
  <g opacity=".42"><circle cx="387" cy="427" r="2.6" fill="#fff" opacity="0.66"/><circle cx="501" cy="615" r="1.4" fill="#fff" opacity="0.38"/><circle cx="480" cy="677" r="2.2" fill="#fff" opacity="0.38"/><circle cx="231" cy="352" r="1.5" fill="#fff" opacity="0.26"/><circle cx="343" cy="235" r="2.7" fill="#fff" opacity="0.50"/><circle cx="358" cy="571" r="2.3" fill="#fff" opacity="0.47"/><circle cx="423" cy="149" r="1.2" fill="#fff" opacity="0.54"/><circle cx="88" cy="424" r="1.6" fill="#fff" opacity="0.57"/><circle cx="496" cy="225" r="1.4" fill="#fff" opacity="0.60"/><circle cx="62" cy="469" r="1.1" fill="#fff" opacity="0.66"/><circle cx="118" cy="699" r="1.4" fill="#fff" opacity="0.69"/><circle cx="315" cy="30" r="2.7" fill="#fff" opacity="0.53"/><circle cx="474" cy="3" r="1.9" fill="#fff" opacity="0.29"/><circle cx="507" cy="607" r="1.1" fill="#fff" opacity="0.68"/><circle cx="179" cy="625" r="1.4" fill="#fff" opacity="0.38"/><circle cx="410" cy="379" r="2.8" fill="#fff" opacity="0.25"/><circle cx="178" cy="83" r="0.8" fill="#fff" opacity="0.59"/><circle cx="383" cy="108" r="1.7" fill="#fff" opacity="0.31"/><circle cx="356" cy="571" r="0.9" fill="#fff" opacity="0.30"/><circle cx="36" cy="398" r="1.1" fill="#fff" opacity="0.69"/><circle cx="382" cy="266" r="1.5" fill="#fff" opacity="0.34"/><circle cx="448" cy="331" r="2.0" fill="#fff" opacity="0.55"/><circle cx="103" cy="242" r="2.3" fill="#fff" opacity="0.38"/><circle cx="249" cy="147" r="1.0" fill="#fff" opacity="0.44"/><circle cx="254" cy="448" r="1.4" fill="#fff" opacity="0.48"/><circle cx="415" cy="447" r="2.0" fill="#fff" opacity="0.44"/><circle cx="177" cy="744" r="1.1" fill="#fff" opacity="0.44"/><circle cx="407" cy="274" r="1.0" fill="#fff" opacity="0.30"/></g>
  <path d="M0 585 C86 541 164 618 248 574 C338 526 407 595 512 548 V768 H0Z" fill="#55c8b8" opacity=".2"/><path d="M0 650 C105 610 180 690 282 638 C370 594 426 650 512 618 V768 H0Z" fill="#d6fff8" opacity=".18"/>
  <ellipse cx="256" cy="662" rx="150" ry="34" fill="#257173" opacity=".28"/>
  <g transform="translate(0 122)">
    <path d="M110.45000000000002 326.9 L40.75000000000003 240.8 L44.85000000000002 413 Z" fill="#55c8b8" opacity=".86"/><ellipse cx="247.8" cy="322.8" rx="139.39999999999998" ry="88.14999999999999" fill="url(#body)" filter="url(#softShadow)"/><path d="M243.7 242.85 C288.8 136.25 358.5 173.15 342.1 263.35" fill="#55c8b8" opacity=".72"/><path d="M301.1 384.3 C338 458.1 411.79999999999995 413 362.6 359.7" fill="#d6fff8" opacity=".8"/><circle cx="329.8" cy="292.05" r="14.349999999999998" fill="#101828"/><circle cx="335.95" cy="285.9" r="4.714999999999999" fill="#fff"/><path d="M256 183.4 L278.55 212.10000000000002 L256 242.85 L233.45 212.10000000000002 Z" fill="#d6fff8" opacity=".92"/>
  </g>
  <path d="M74 126 C170 65 334 65 438 126" stroke="#fff" stroke-width="16" stroke-linecap="round" opacity=".16"/>
  <path d="M63 676 C162 718 344 718 449 662" stroke="#fff" stroke-width="14" stroke-linecap="round" opacity=".16"/>
</svg>