<svg xmlns="http://www.w3.org/2000/svg" viewBox="0 0 512 768" role="img" aria-label="风花仙子 original portrait">
  
  <defs>
    <linearGradient id="bgp510" x1="0" y1="0" x2="1" y2="1">
      <stop offset="0" stop-color="#d6fff8"/>
      <stop offset=".55" stop-color="#55c8b8"/>
      <stop offset="1" stop-color="#257173"/>
    </linearGradient>
    <radialGradient id="body" cx=".36" cy=".25" r=".76">
      <stop offset="0" stop-color="#d6fff8"/>
      <stop offset=".6" stop-color="#55c8b8"/>
      <stop offset="1" stop-color="#257173"/>
    </radialGradient>
    <radialGradient id="head" cx=".36" cy=".26" r=".72">
      <stop offset="0" stop-color="#ffffff" stop-opacity=".85"/>
      <stop offset=".2" stop-color="#d6fff8"/>
      <stop offset=".72" stop-color="#55c8b8"/>
      <stop offset="1" stop-color="#257173"/>
    </radialGradient>
    <filter id="softShadow" x="-30%" y="-30%" width="160%" height="160%">
      <feDropShadow dx="0" dy="8" stdDeviation="8" flood-color="#257173" flood-opacity=".35"/>
    </filter>
  </defs>
  <rect width="512" height="768" rx="48" fill="url(#bgp510)"/>
  <rect x="24" y="24" width="464" height="720" rx="40" fill="#ffffff" opacity=".08"/>
  <g opacity=".42"><circle cx="260" cy="661" r="1.8" fill="#fff" opacity="0.55"/><circle cx="268" cy="100" r="1.4" fill="#fff" opacity="0.49"/><circle cx="243" cy="346" r="2.6" fill="#fff" opacity="0.40"/><circle cx="108" cy="745" r="2.6" fill="#fff" opacity="0.49"/><circle cx="377" cy="750" r="3.2" fill="#fff" opacity="0.58"/><circle cx="330" cy="23" r="2.1" fill="#fff" opacity="0.37"/><circle cx="349" cy="391" r="2.1" fill="#fff" opacity="0.62"/><circle cx="34" cy="369" r="2.9" fill="#fff" opacity="0.54"/><circle cx="286" cy="63" r="1.6" fill="#fff" opacity="0.33"/><circle cx="431" cy="355" r="1.6" fill="#fff" opacity="0.39"/><circle cx="491" cy="294" r="1.3" fill="#fff" opacity="0.50"/><circle cx="489" cy="47" r="2.0" fill="#fff" opacity="0.36"/><circle cx="207" cy="761" r="2.5" fill="#fff" opacity="0.36"/><circle cx="217" cy="300" r="2.5" fill="#fff" opacity="0.28"/><circle cx="253" cy="572" r="2.6" fill="#fff" opacity="0.55"/><circle cx="466" cy="446" r="2.8" fill="#fff" opacity="0.65"/><circle cx="309" cy="159" r="1.5" fill="#fff" opacity="0.28"/><circle cx="401" cy="246" r="1.0" fill="#fff" opacity="0.66"/><circle cx="43" cy="497" r="2.9" fill="#fff" opacity="0.39"/><circle cx="83" cy="418" r="2.4" fill="#fff" opacity="0.33"/><circle cx="318" cy="764" r="1.7" fill="#fff" opacity="0.52"/><circle cx="380" cy="164" r="0.8" fill="#fff" opacity="0.42"/><circle cx="93" cy="410" r="1.9" fill="#fff" opacity="0.51"/><circle cx="294" cy="387" r="1.6" fill="#fff" opacity="0.69"/><circle cx="508" cy="543" r="3.1" fill="#fff" opacity="0.37"/><circle cx="469" cy="437" r="1.7" fill="#fff" opacity="0.62"/><circle cx="105" cy="119" r="2.7" fill="#fff" opacity="0.48"/><circle cx="497" cy="179" r="1.4" fill="#fff" opacity="0.26"/></g>
  <path d="M18 704 C124 595 205 659 256 580 C314 666 392 596 494 704 V768 H18Z" fill="#257173" opacity=".18"/>
  <ellipse cx="256" cy="662" rx="150" ry="34" fill="#257173" opacity=".28"/>
  <g transform="translate(0 122)">
    <path d="M231.4 400.7 C128.9 376.1 83.80000000000001 265.4 198.60000000000002 275.65" fill="#55c8b8" opacity=".82"/><path d="M280.6 400.7 C383.1 376.1 428.2 265.4 313.4 275.65" fill="#55c8b8" opacity=".82"/><ellipse cx="256" cy="339.2" rx="98.39999999999999" ry="116.85" fill="url(#body)" filter="url(#softShadow)"/><path d="M256 138.3 C169.9 175.20000000000002 161.7 259.25 256 251.05 C350.3 259.25 342.1 175.20000000000002 256 138.3Z" fill="#d6fff8"/><circle cx="256" cy="253.1" r="77.89999999999999" fill="url(#head)"/><ellipse cx="223.2" cy="253.1" rx="14.349999999999998" ry="16.4" fill="#14213d"/><ellipse cx="288.8" cy="253.1" rx="14.349999999999998" ry="16.4" fill="#14213d"/><circle cx="229.35" cy="244.9" r="4.714999999999999" fill="#fff"/><circle cx="294.95" cy="244.9" r="4.714999999999999" fill="#fff"/><circle cx="256" cy="210.05" r="14.349999999999998" fill="#d6fff8" opacity=".9"/>
  </g>
  <path d="M74 126 C170 65 334 65 438 126" stroke="#fff" stroke-width="16" stroke-linecap="round" opacity=".16"/>
  <path d="M63 676 C162 718 344 718 449 662" stroke="#fff" stroke-width="14" stroke-linecap="round" opacity=".16"/>
</svg>