<svg xmlns="http://www.w3.org/2000/svg" viewBox="0 0 512 768" role="img" aria-label="龙卷蛇 original portrait">
  
  <defs>
    <linearGradient id="bgp511" x1="0" y1="0" x2="1" y2="1">
      <stop offset="0" stop-color="#d6fff8"/>
      <stop offset=".55" stop-color="#55c8b8"/>
      <stop offset="1" stop-color="#257173"/>
    </linearGradient>
    <radialGradient id="body" cx=".36" cy=".25" r=".76">
      <stop offset="0" stop-color="#d6fff8"/>
      <stop offset=".6" stop-color="#55c8b8"/>
      <stop offset="1" stop-color="#257173"/>
    </radialGradient>
    <radialGradient id="head" cx=".36" cy=".26" r=".72">
      <stop offset="0" stop-color="#ffffff" stop-opacity=".85"/>
      <stop offset=".2" stop-color="#d6fff8"/>
      <stop offset=".72" stop-color="#55c8b8"/>
      <stop offset="1" stop-color="#257173"/>
    </radialGradient>
    <filter id="softShadow" x="-30%" y="-30%" width="160%" height="160%">
      <feDropShadow dx="0" dy="8" stdDeviation="8" flood-color="#257173" flood-opacity=".35"/>
    </filter>
  </defs>
  <rect width="512" height="768" rx="48" fill="url(#bgp511)"/>
  <rect x="24" y="24" width="464" height="720" rx="40" fill="#ffffff" opacity=".08"/>
  <g opacity=".42"><circle cx="253" cy="281" r="3.1" fill="#fff" opacity="0.40"/><circle cx="143" cy="97" r="1.3" fill="#fff" opacity="0.45"/><circle cx="68" cy="34" r="2.7" fill="#fff" opacity="0.60"/><circle cx="41" cy="735" r="1.5" fill="#fff" opacity="0.32"/><circle cx="402" cy="203" r="2.7" fill="#fff" opacity="0.59"/><circle cx="95" cy="283" r="0.9" fill="#fff" opacity="0.38"/><circle cx="140" cy="664" r="2.0" fill="#fff" opacity="0.33"/><circle cx="157" cy="636" r="1.1" fill="#fff" opacity="0.39"/><circle cx="149" cy="114" r="2.0" fill="#fff" opacity="0.43"/><circle cx="494" cy="576" r="2.9" fill="#fff" opacity="0.50"/><circle cx="324" cy="384" r="1.1" fill="#fff" opacity="0.41"/><circle cx="266" cy="582" r="1.5" fill="#fff" opacity="0.58"/><circle cx="353" cy="479" r="2.7" fill="#fff" opacity="0.64"/><circle cx="216" cy="449" r="3.2" fill="#fff" opacity="0.45"/><circle cx="389" cy="558" r="2.9" fill="#fff" opacity="0.63"/><circle cx="320" cy="145" r="1.9" fill="#fff" opacity="0.38"/><circle cx="194" cy="531" r="2.9" fill="#fff" opacity="0.68"/><circle cx="366" cy="562" r="3.1" fill="#fff" opacity="0.66"/><circle cx="84" cy="212" r="2.9" fill="#fff" opacity="0.58"/><circle cx="46" cy="48" r="1.4" fill="#fff" opacity="0.34"/><circle cx="497" cy="299" r="2.6" fill="#fff" opacity="0.40"/><circle cx="1" cy="716" r="2.5" fill="#fff" opacity="0.43"/><circle cx="507" cy="551" r="1.6" fill="#fff" opacity="0.67"/><circle cx="55" cy="97" r="3.0" fill="#fff" opacity="0.53"/><circle cx="431" cy="558" r="2.5" fill="#fff" opacity="0.68"/><circle cx="77" cy="143" r="1.7" fill="#fff" opacity="0.47"/><circle cx="46" cy="719" r="1.7" fill="#fff" opacity="0.41"/><circle cx="205" cy="682" r="1.8" fill="#fff" opacity="0.31"/></g>
  <path d="M70 600 C142 504 297 500 443 610" fill="#257173" opacity=".18"/><path d="M52 642 C146 578 341 580 471 650" fill="#257173" opacity=".16"/>
  <ellipse cx="256" cy="662" rx="150" ry="34" fill="#257173" opacity=".28"/>
  <g transform="translate(0 122)">
    <path d="M108.4 347.4 C161.7 224.4 292.9 175.20000000000002 389.25 253.1 C325.7 249 276.5 285.9 247.8 376.1" fill="#257173" opacity=".45"/><ellipse cx="256" cy="335.1" rx="110.69999999999999" ry="92.24999999999999" fill="url(#body)" filter="url(#softShadow)"/><path d="M167.85000000000002 253.1 L219.1 130.10000000000002 L249.85 244.9 Z" fill="#55c8b8"/><path d="M344.15 253.1 L292.9 130.10000000000002 L262.15 244.9 Z" fill="#55c8b8"/><ellipse cx="256" cy="267.45" rx="96.35" ry="86.1" fill="url(#head)"/><path d="M151.45 292.05 Q87.9 298.2 63.30000000000001 253.1" stroke="#d6fff8" stroke-width="10.25" fill="none" stroke-linecap="round" opacity=".85"/><path d="M360.55 292.05 Q424.1 298.2 448.7 253.1" stroke="#d6fff8" stroke-width="10.25" fill="none" stroke-linecap="round" opacity=".85"/><ellipse cx="223.2" cy="253.1" rx="14.349999999999998" ry="16.4" fill="#14213d"/><ellipse cx="288.8" cy="253.1" rx="14.349999999999998" ry="16.4" fill="#14213d"/><circle cx="229.35" cy="244.9" r="4.714999999999999" fill="#fff"/><circle cx="294.95" cy="244.9" r="4.714999999999999" fill="#fff"/><circle cx="256" cy="210.05" r="14.349999999999998" fill="#d6fff8" opacity=".9"/>
  </g>
  <path d="M74 126 C170 65 334 65 438 126" stroke="#fff" stroke-width="16" stroke-linecap="round" opacity=".16"/>
  <path d="M63 676 C162 718 344 718 449 662" stroke="#fff" stroke-width="14" stroke-linecap="round" opacity=".16"/>
</svg>