<svg xmlns="http://www.w3.org/2000/svg" viewBox="0 0 512 768" role="img" aria-label="气旋松鼠 original portrait">
  
  <defs>
    <linearGradient id="bgp513" x1="0" y1="0" x2="1" y2="1">
      <stop offset="0" stop-color="#d6fff8"/>
      <stop offset=".55" stop-color="#55c8b8"/>
      <stop offset="1" stop-color="#257173"/>
    </linearGradient>
    <radialGradient id="body" cx=".36" cy=".25" r=".76">
      <stop offset="0" stop-color="#d6fff8"/>
      <stop offset=".6" stop-color="#55c8b8"/>
      <stop offset="1" stop-color="#257173"/>
    </radialGradient>
    <radialGradient id="head" cx=".36" cy=".26" r=".72">
      <stop offset="0" stop-color="#ffffff" stop-opacity=".85"/>
      <stop offset=".2" stop-color="#d6fff8"/>
      <stop offset=".72" stop-color="#55c8b8"/>
      <stop offset="1" stop-color="#257173"/>
    </radialGradient>
    <filter id="softShadow" x="-30%" y="-30%" width="160%" height="160%">
      <feDropShadow dx="0" dy="8" stdDeviation="8" flood-color="#257173" flood-opacity=".35"/>
    </filter>
  </defs>
  <rect width="512" height="768" rx="48" fill="url(#bgp513)"/>
  <rect x="24" y="24" width="464" height="720" rx="40" fill="#ffffff" opacity=".08"/>
  <g opacity=".42"><circle cx="362" cy="331" r="1.9" fill="#fff" opacity="0.57"/><circle cx="177" cy="59" r="0.9" fill="#fff" opacity="0.62"/><circle cx="413" cy="714" r="1.0" fill="#fff" opacity="0.31"/><circle cx="55" cy="458" r="2.7" fill="#fff" opacity="0.61"/><circle cx="394" cy="153" r="1.6" fill="#fff" opacity="0.30"/><circle cx="143" cy="37" r="0.9" fill="#fff" opacity="0.58"/><circle cx="466" cy="306" r="2.9" fill="#fff" opacity="0.58"/><circle cx="472" cy="430" r="1.0" fill="#fff" opacity="0.60"/><circle cx="143" cy="413" r="3.1" fill="#fff" opacity="0.52"/><circle cx="285" cy="426" r="1.0" fill="#fff" opacity="0.69"/><circle cx="142" cy="389" r="3.2" fill="#fff" opacity="0.46"/><circle cx="333" cy="762" r="2.7" fill="#fff" opacity="0.62"/><circle cx="285" cy="764" r="2.9" fill="#fff" opacity="0.31"/><circle cx="11" cy="471" r="2.2" fill="#fff" opacity="0.27"/><circle cx="234" cy="546" r="1.5" fill="#fff" opacity="0.61"/><circle cx="295" cy="545" r="1.2" fill="#fff" opacity="0.60"/><circle cx="361" cy="327" r="2.6" fill="#fff" opacity="0.45"/><circle cx="431" cy="312" r="1.5" fill="#fff" opacity="0.30"/><circle cx="198" cy="46" r="2.5" fill="#fff" opacity="0.67"/><circle cx="464" cy="426" r="1.9" fill="#fff" opacity="0.29"/><circle cx="129" cy="49" r="2.5" fill="#fff" opacity="0.49"/><circle cx="121" cy="185" r="1.4" fill="#fff" opacity="0.56"/><circle cx="294" cy="767" r="0.9" fill="#fff" opacity="0.33"/><circle cx="489" cy="37" r="1.3" fill="#fff" opacity="0.32"/><circle cx="243" cy="706" r="1.3" fill="#fff" opacity="0.37"/><circle cx="167" cy="242" r="1.0" fill="#fff" opacity="0.57"/><circle cx="512" cy="378" r="1.9" fill="#fff" opacity="0.59"/><circle cx="20" cy="218" r="1.8" fill="#fff" opacity="0.53"/></g>
  <path d="M0 670 C96 613 167 665 256 620 C337 660 421 608 512 662 V768 H0Z" fill="#257173" opacity=".15"/>
  <ellipse cx="256" cy="662" rx="150" ry="34" fill="#257173" opacity=".28"/>
  <g transform="translate(0 122)">
    <path d="M159.65 347.4 C69.45000000000002 322.8 92 222.35000000000002 165.8 263.35" stroke="#55c8b8" stroke-width="28.699999999999996" fill="none" stroke-linecap="round" opacity=".76"/><ellipse cx="256" cy="353.55" rx="108.64999999999999" ry="102.49999999999999" fill="url(#body)" filter="url(#softShadow)"/><path d="M184.25 212.10000000000002 L137.10000000000002 115.75000000000003 L231.4 175.20000000000002 Z" fill="#55c8b8"/><path d="M327.75 212.10000000000002 L374.9 115.75000000000003 L280.6 175.20000000000002 Z" fill="#55c8b8"/><circle cx="256" cy="234.65" r="92.24999999999999" fill="url(#head)"/><ellipse cx="221.15" cy="251.05" rx="16.4" ry="20.5" fill="#182033"/><ellipse cx="290.85" cy="251.05" rx="16.4" ry="20.5" fill="#182033"/><ellipse cx="223.2" cy="253.1" rx="14.349999999999998" ry="16.4" fill="#14213d"/><ellipse cx="288.8" cy="253.1" rx="14.349999999999998" ry="16.4" fill="#14213d"/><circle cx="229.35" cy="244.9" r="4.714999999999999" fill="#fff"/><circle cx="294.95" cy="244.9" r="4.714999999999999" fill="#fff"/><path d="M256 183.4 L278.55 212.10000000000002 L256 242.85 L233.45 212.10000000000002 Z" fill="#d6fff8" opacity=".92"/>
  </g>
  <path d="M74 126 C170 65 334 65 438 126" stroke="#fff" stroke-width="16" stroke-linecap="round" opacity=".16"/>
  <path d="M63 676 C162 718 344 718 449 662" stroke="#fff" stroke-width="14" stroke-linecap="round" opacity=".16"/>
</svg>