<svg xmlns="http://www.w3.org/2000/svg" viewBox="0 0 512 768" role="img" aria-label="风行者 original portrait">
  
  <defs>
    <linearGradient id="bgp514" x1="0" y1="0" x2="1" y2="1">
      <stop offset="0" stop-color="#d6fff8"/>
      <stop offset=".55" stop-color="#55c8b8"/>
      <stop offset="1" stop-color="#257173"/>
    </linearGradient>
    <radialGradient id="body" cx=".36" cy=".25" r=".76">
      <stop offset="0" stop-color="#d6fff8"/>
      <stop offset=".6" stop-color="#55c8b8"/>
      <stop offset="1" stop-color="#257173"/>
    </radialGradient>
    <radialGradient id="head" cx=".36" cy=".26" r=".72">
      <stop offset="0" stop-color="#ffffff" stop-opacity=".85"/>
      <stop offset=".2" stop-color="#d6fff8"/>
      <stop offset=".72" stop-color="#55c8b8"/>
      <stop offset="1" stop-color="#257173"/>
    </radialGradient>
    <filter id="softShadow" x="-30%" y="-30%" width="160%" height="160%">
      <feDropShadow dx="0" dy="8" stdDeviation="8" flood-color="#257173" flood-opacity=".35"/>
    </filter>
  </defs>
  <rect width="512" height="768" rx="48" fill="url(#bgp514)"/>
  <rect x="24" y="24" width="464" height="720" rx="40" fill="#ffffff" opacity=".08"/>
  <g opacity=".42"><circle cx="176" cy="759" r="3.1" fill="#fff" opacity="0.55"/><circle cx="478" cy="257" r="2.8" fill="#fff" opacity="0.47"/><circle cx="30" cy="17" r="2.4" fill="#fff" opacity="0.68"/><circle cx="122" cy="477" r="2.8" fill="#fff" opacity="0.53"/><circle cx="131" cy="709" r="2.4" fill="#fff" opacity="0.30"/><circle cx="50" cy="730" r="2.7" fill="#fff" opacity="0.53"/><circle cx="315" cy="628" r="3.2" fill="#fff" opacity="0.29"/><circle cx="274" cy="190" r="2.3" fill="#fff" opacity="0.30"/><circle cx="48" cy="723" r="2.3" fill="#fff" opacity="0.47"/><circle cx="131" cy="117" r="2.9" fill="#fff" opacity="0.65"/><circle cx="117" cy="33" r="0.8" fill="#fff" opacity="0.30"/><circle cx="491" cy="374" r="1.3" fill="#fff" opacity="0.55"/><circle cx="434" cy="184" r="1.3" fill="#fff" opacity="0.39"/><circle cx="128" cy="422" r="1.3" fill="#fff" opacity="0.43"/><circle cx="132" cy="446" r="1.1" fill="#fff" opacity="0.43"/><circle cx="18" cy="179" r="1.2" fill="#fff" opacity="0.58"/><circle cx="471" cy="464" r="1.3" fill="#fff" opacity="0.27"/><circle cx="152" cy="609" r="2.4" fill="#fff" opacity="0.50"/><circle cx="340" cy="605" r="3.0" fill="#fff" opacity="0.47"/><circle cx="59" cy="224" r="1.0" fill="#fff" opacity="0.30"/><circle cx="141" cy="213" r="1.1" fill="#fff" opacity="0.53"/><circle cx="254" cy="384" r="0.8" fill="#fff" opacity="0.64"/><circle cx="31" cy="288" r="1.3" fill="#fff" opacity="0.25"/><circle cx="179" cy="370" r="1.3" fill="#fff" opacity="0.39"/><circle cx="222" cy="1" r="1.2" fill="#fff" opacity="0.38"/><circle cx="348" cy="335" r="2.9" fill="#fff" opacity="0.49"/><circle cx="275" cy="126" r="1.2" fill="#fff" opacity="0.35"/><circle cx="349" cy="463" r="2.2" fill="#fff" opacity="0.56"/></g>
  <path d="M0 620 C92 590 171 620 259 600 C357 577 432 594 512 565 V768 H0Z" fill="#fff" opacity=".18"/>
  <ellipse cx="256" cy="662" rx="150" ry="34" fill="#257173" opacity=".28"/>
  <g transform="translate(0 122)">
    <path d="M219.1 306.4 C65.35000000000002 187.5 67.4 392.5 206.8 400.7" fill="#55c8b8" opacity=".78"/><path d="M292.9 306.4 C446.65 187.5 444.6 392.5 305.2 400.7" fill="#55c8b8" opacity=".78"/><ellipse cx="256" cy="343.3" rx="86.1" ry="110.69999999999999" fill="url(#body)" filter="url(#softShadow)"/><circle cx="256" cy="228.5" r="77.89999999999999" fill="url(#head)"/><path d="M245.75 226.45 L331.85 249 L249.85 269.5 Z" fill="#d6fff8"/><path d="M210.9 154.70000000000002 C239.6 89.10000000000002 280.6 109.60000000000002 260.1 167" fill="#257173" opacity=".85"/><ellipse cx="223.2" cy="253.1" rx="14.349999999999998" ry="16.4" fill="#14213d"/><ellipse cx="288.8" cy="253.1" rx="14.349999999999998" ry="16.4" fill="#14213d"/><circle cx="229.35" cy="244.9" r="4.714999999999999" fill="#fff"/><circle cx="294.95" cy="244.9" r="4.714999999999999" fill="#fff"/><path d="M215 201.85000000000002 Q256 224.4 297 201.85000000000002" stroke="#d6fff8" stroke-width="10.25" fill="none" stroke-linecap="round" opacity=".8"/>
  </g>
  <path d="M74 126 C170 65 334 65 438 126" stroke="#fff" stroke-width="16" stroke-linecap="round" opacity=".16"/>
  <path d="M63 676 C162 718 344 718 449 662" stroke="#fff" stroke-width="14" stroke-linecap="round" opacity=".16"/>
</svg>