<svg xmlns="http://www.w3.org/2000/svg" viewBox="0 0 512 768" role="img" aria-label="光辉蛾 original portrait">
  
  <defs>
    <linearGradient id="bgp517" x1="0" y1="0" x2="1" y2="1">
      <stop offset="0" stop-color="#fffbe0"/>
      <stop offset=".55" stop-color="#f2cf62"/>
      <stop offset="1" stop-color="#80651c"/>
    </linearGradient>
    <radialGradient id="body" cx=".36" cy=".25" r=".76">
      <stop offset="0" stop-color="#fffbe0"/>
      <stop offset=".6" stop-color="#f2cf62"/>
      <stop offset="1" stop-color="#80651c"/>
    </radialGradient>
    <radialGradient id="head" cx=".36" cy=".26" r=".72">
      <stop offset="0" stop-color="#ffffff" stop-opacity=".85"/>
      <stop offset=".2" stop-color="#fffbe0"/>
      <stop offset=".72" stop-color="#f2cf62"/>
      <stop offset="1" stop-color="#80651c"/>
    </radialGradient>
    <filter id="softShadow" x="-30%" y="-30%" width="160%" height="160%">
      <feDropShadow dx="0" dy="8" stdDeviation="8" flood-color="#80651c" flood-opacity=".35"/>
    </filter>
  </defs>
  <rect width="512" height="768" rx="48" fill="url(#bgp517)"/>
  <rect x="24" y="24" width="464" height="720" rx="40" fill="#ffffff" opacity=".08"/>
  <g opacity=".42"><circle cx="307" cy="546" r="1.8" fill="#fff" opacity="0.44"/><circle cx="255" cy="483" r="2.2" fill="#fff" opacity="0.40"/><circle cx="140" cy="391" r="2.7" fill="#fff" opacity="0.43"/><circle cx="385" cy="654" r="1.5" fill="#fff" opacity="0.40"/><circle cx="31" cy="198" r="1.3" fill="#fff" opacity="0.26"/><circle cx="380" cy="118" r="2.7" fill="#fff" opacity="0.39"/><circle cx="252" cy="49" r="2.7" fill="#fff" opacity="0.60"/><circle cx="472" cy="701" r="2.7" fill="#fff" opacity="0.62"/><circle cx="27" cy="302" r="2.6" fill="#fff" opacity="0.38"/><circle cx="360" cy="263" r="2.1" fill="#fff" opacity="0.33"/><circle cx="203" cy="95" r="1.6" fill="#fff" opacity="0.34"/><circle cx="30" cy="730" r="1.8" fill="#fff" opacity="0.45"/><circle cx="434" cy="380" r="2.2" fill="#fff" opacity="0.40"/><circle cx="209" cy="230" r="2.1" fill="#fff" opacity="0.48"/><circle cx="332" cy="309" r="1.2" fill="#fff" opacity="0.53"/><circle cx="66" cy="500" r="1.7" fill="#fff" opacity="0.37"/><circle cx="11" cy="646" r="3.1" fill="#fff" opacity="0.53"/><circle cx="71" cy="513" r="1.6" fill="#fff" opacity="0.30"/><circle cx="297" cy="319" r="2.4" fill="#fff" opacity="0.64"/><circle cx="224" cy="285" r="1.5" fill="#fff" opacity="0.67"/><circle cx="476" cy="236" r="2.3" fill="#fff" opacity="0.35"/><circle cx="362" cy="633" r="1.0" fill="#fff" opacity="0.42"/><circle cx="484" cy="209" r="1.6" fill="#fff" opacity="0.37"/><circle cx="335" cy="180" r="2.7" fill="#fff" opacity="0.59"/><circle cx="193" cy="250" r="1.4" fill="#fff" opacity="0.40"/><circle cx="237" cy="451" r="1.2" fill="#fff" opacity="0.61"/><circle cx="293" cy="32" r="1.6" fill="#fff" opacity="0.63"/><circle cx="272" cy="250" r="3.0" fill="#fff" opacity="0.38"/></g>
  <path d="M69 625 C150 571 359 568 443 628" fill="#f2cf62" opacity=".14"/>
  <ellipse cx="256" cy="662" rx="150" ry="34" fill="#80651c" opacity=".28"/>
  <g transform="translate(0 122)">
    <ellipse cx="178.10000000000002" cy="257.2" rx="69.69999999999999" ry="100.44999999999999" fill="#fffbe0" opacity=".55"/><ellipse cx="333.9" cy="257.2" rx="69.69999999999999" ry="100.44999999999999" fill="#fffbe0" opacity=".55"/><ellipse cx="256" cy="331" rx="65.6" ry="122.99999999999999" fill="url(#body)" filter="url(#softShadow)"/><circle cx="256" cy="214.15" r="69.69999999999999" fill="url(#head)"/><path d="M219.1 160.85000000000002 Q174 93.20000000000002 118.65 117.80000000000001" stroke="#80651c" stroke-width="10.25" fill="none" stroke-linecap="round"/><path d="M292.9 160.85000000000002 Q338 93.20000000000002 393.35 117.80000000000001" stroke="#80651c" stroke-width="10.25" fill="none" stroke-linecap="round"/><path d="M198.60000000000002 322.8 H313.4 M206.8 376.1 H305.2" stroke="#80651c" stroke-width="8.2" opacity=".35"/><ellipse cx="223.2" cy="253.1" rx="14.349999999999998" ry="16.4" fill="#14213d"/><ellipse cx="288.8" cy="253.1" rx="14.349999999999998" ry="16.4" fill="#14213d"/><circle cx="229.35" cy="244.9" r="4.714999999999999" fill="#fff"/><circle cx="294.95" cy="244.9" r="4.714999999999999" fill="#fff"/><path d="M256 183.4 L278.55 212.10000000000002 L256 242.85 L233.45 212.10000000000002 Z" fill="#fffbe0" opacity=".92"/>
  </g>
  <path d="M74 126 C170 65 334 65 438 126" stroke="#fff" stroke-width="16" stroke-linecap="round" opacity=".16"/>
  <path d="M63 676 C162 718 344 718 449 662" stroke="#fff" stroke-width="14" stroke-linecap="round" opacity=".16"/>
</svg>