<svg xmlns="http://www.w3.org/2000/svg" viewBox="0 0 512 768" role="img" aria-label="晨光猫 original portrait">
  
  <defs>
    <linearGradient id="bgp519" x1="0" y1="0" x2="1" y2="1">
      <stop offset="0" stop-color="#fffbe0"/>
      <stop offset=".55" stop-color="#f2cf62"/>
      <stop offset="1" stop-color="#80651c"/>
    </linearGradient>
    <radialGradient id="body" cx=".36" cy=".25" r=".76">
      <stop offset="0" stop-color="#fffbe0"/>
      <stop offset=".6" stop-color="#f2cf62"/>
      <stop offset="1" stop-color="#80651c"/>
    </radialGradient>
    <radialGradient id="head" cx=".36" cy=".26" r=".72">
      <stop offset="0" stop-color="#ffffff" stop-opacity=".85"/>
      <stop offset=".2" stop-color="#fffbe0"/>
      <stop offset=".72" stop-color="#f2cf62"/>
      <stop offset="1" stop-color="#80651c"/>
    </radialGradient>
    <filter id="softShadow" x="-30%" y="-30%" width="160%" height="160%">
      <feDropShadow dx="0" dy="8" stdDeviation="8" flood-color="#80651c" flood-opacity=".35"/>
    </filter>
  </defs>
  <rect width="512" height="768" rx="48" fill="url(#bgp519)"/>
  <rect x="24" y="24" width="464" height="720" rx="40" fill="#ffffff" opacity=".08"/>
  <g opacity=".42"><circle cx="416" cy="107" r="2.1" fill="#fff" opacity="0.68"/><circle cx="150" cy="747" r="1.6" fill="#fff" opacity="0.45"/><circle cx="380" cy="555" r="2.7" fill="#fff" opacity="0.67"/><circle cx="19" cy="373" r="1.7" fill="#fff" opacity="0.51"/><circle cx="178" cy="369" r="1.5" fill="#fff" opacity="0.59"/><circle cx="176" cy="197" r="1.8" fill="#fff" opacity="0.68"/><circle cx="181" cy="149" r="1.2" fill="#fff" opacity="0.38"/><circle cx="75" cy="588" r="2.6" fill="#fff" opacity="0.46"/><circle cx="485" cy="186" r="2.7" fill="#fff" opacity="0.28"/><circle cx="150" cy="323" r="2.6" fill="#fff" opacity="0.44"/><circle cx="44" cy="86" r="2.8" fill="#fff" opacity="0.50"/><circle cx="433" cy="485" r="3.1" fill="#fff" opacity="0.34"/><circle cx="126" cy="29" r="1.2" fill="#fff" opacity="0.37"/><circle cx="159" cy="121" r="1.9" fill="#fff" opacity="0.54"/><circle cx="246" cy="405" r="1.2" fill="#fff" opacity="0.66"/><circle cx="504" cy="81" r="2.0" fill="#fff" opacity="0.38"/><circle cx="216" cy="292" r="1.9" fill="#fff" opacity="0.54"/><circle cx="175" cy="497" r="1.1" fill="#fff" opacity="0.53"/><circle cx="405" cy="605" r="2.6" fill="#fff" opacity="0.29"/><circle cx="402" cy="399" r="2.7" fill="#fff" opacity="0.51"/><circle cx="199" cy="187" r="1.2" fill="#fff" opacity="0.38"/><circle cx="461" cy="120" r="2.9" fill="#fff" opacity="0.56"/><circle cx="335" cy="109" r="1.7" fill="#fff" opacity="0.56"/><circle cx="261" cy="360" r="1.4" fill="#fff" opacity="0.44"/><circle cx="479" cy="436" r="1.3" fill="#fff" opacity="0.39"/><circle cx="314" cy="399" r="1.5" fill="#fff" opacity="0.68"/><circle cx="27" cy="342" r="2.9" fill="#fff" opacity="0.66"/><circle cx="472" cy="431" r="2.4" fill="#fff" opacity="0.37"/></g>
  <circle cx="256" cy="294" r="183" fill="#fffbe0" opacity=".12"/><circle cx="256" cy="294" r="141" fill="#fff" opacity=".1"/>
  <ellipse cx="256" cy="662" rx="150" ry="34" fill="#80651c" opacity=".28"/>
  <g transform="translate(0 122)">
    <ellipse cx="256" cy="339.2" rx="100.44999999999999" ry="112.74999999999999" fill="url(#body)" filter="url(#softShadow)"/><circle cx="256" cy="226.45" r="79.94999999999999" fill="url(#head)"/><ellipse cx="256" cy="214.15" rx="139.39999999999998" ry="36.9" fill="none" stroke="#fffbe0" stroke-width="14.349999999999998" opacity=".75" transform="rotate(-12 256 214.15)"/><path d="M256 103.45000000000002 L276.5 154.70000000000002 L333.9 156.75 L286.75 187.5 L303.15 242.85 L256 208 L208.85 242.85 L225.25 187.5 L178.10000000000002 156.75 L235.5 154.70000000000002 Z" fill="#f2cf62"/><ellipse cx="223.2" cy="253.1" rx="14.349999999999998" ry="16.4" fill="#14213d"/><ellipse cx="288.8" cy="253.1" rx="14.349999999999998" ry="16.4" fill="#14213d"/><circle cx="229.35" cy="244.9" r="4.714999999999999" fill="#fff"/><circle cx="294.95" cy="244.9" r="4.714999999999999" fill="#fff"/><path d="M215 201.85000000000002 Q256 224.4 297 201.85000000000002" stroke="#fffbe0" stroke-width="10.25" fill="none" stroke-linecap="round" opacity=".8"/>
  </g>
  <path d="M74 126 C170 65 334 65 438 126" stroke="#fff" stroke-width="16" stroke-linecap="round" opacity=".16"/>
  <path d="M63 676 C162 718 344 718 449 662" stroke="#fff" stroke-width="14" stroke-linecap="round" opacity=".16"/>
</svg>