<svg xmlns="http://www.w3.org/2000/svg" viewBox="0 0 512 768" role="img" aria-label="棱镜水晶 original portrait">
  
  <defs>
    <linearGradient id="bgp522" x1="0" y1="0" x2="1" y2="1">
      <stop offset="0" stop-color="#fffbe0"/>
      <stop offset=".55" stop-color="#f2cf62"/>
      <stop offset="1" stop-color="#80651c"/>
    </linearGradient>
    <radialGradient id="body" cx=".36" cy=".25" r=".76">
      <stop offset="0" stop-color="#fffbe0"/>
      <stop offset=".6" stop-color="#f2cf62"/>
      <stop offset="1" stop-color="#80651c"/>
    </radialGradient>
    <radialGradient id="head" cx=".36" cy=".26" r=".72">
      <stop offset="0" stop-color="#ffffff" stop-opacity=".85"/>
      <stop offset=".2" stop-color="#fffbe0"/>
      <stop offset=".72" stop-color="#f2cf62"/>
      <stop offset="1" stop-color="#80651c"/>
    </radialGradient>
    <filter id="softShadow" x="-30%" y="-30%" width="160%" height="160%">
      <feDropShadow dx="0" dy="8" stdDeviation="8" flood-color="#80651c" flood-opacity=".35"/>
    </filter>
  </defs>
  <rect width="512" height="768" rx="48" fill="url(#bgp522)"/>
  <rect x="24" y="24" width="464" height="720" rx="40" fill="#ffffff" opacity=".08"/>
  <g opacity=".42"><circle cx="436" cy="562" r="2.3" fill="#fff" opacity="0.52"/><circle cx="240" cy="689" r="2.8" fill="#fff" opacity="0.37"/><circle cx="483" cy="148" r="2.1" fill="#fff" opacity="0.63"/><circle cx="477" cy="38" r="1.6" fill="#fff" opacity="0.66"/><circle cx="177" cy="625" r="1.9" fill="#fff" opacity="0.43"/><circle cx="377" cy="105" r="2.7" fill="#fff" opacity="0.54"/><circle cx="382" cy="369" r="2.6" fill="#fff" opacity="0.46"/><circle cx="284" cy="457" r="1.8" fill="#fff" opacity="0.47"/><circle cx="129" cy="203" r="3.0" fill="#fff" opacity="0.41"/><circle cx="458" cy="61" r="2.4" fill="#fff" opacity="0.36"/><circle cx="399" cy="509" r="1.7" fill="#fff" opacity="0.25"/><circle cx="57" cy="571" r="2.1" fill="#fff" opacity="0.27"/><circle cx="364" cy="505" r="2.6" fill="#fff" opacity="0.56"/><circle cx="255" cy="138" r="2.2" fill="#fff" opacity="0.29"/><circle cx="21" cy="407" r="1.1" fill="#fff" opacity="0.35"/><circle cx="170" cy="235" r="2.1" fill="#fff" opacity="0.57"/><circle cx="508" cy="524" r="1.2" fill="#fff" opacity="0.38"/><circle cx="495" cy="658" r="2.5" fill="#fff" opacity="0.67"/><circle cx="426" cy="130" r="1.4" fill="#fff" opacity="0.30"/><circle cx="250" cy="257" r="2.7" fill="#fff" opacity="0.48"/><circle cx="427" cy="704" r="2.9" fill="#fff" opacity="0.44"/><circle cx="184" cy="26" r="1.7" fill="#fff" opacity="0.60"/><circle cx="438" cy="53" r="2.7" fill="#fff" opacity="0.55"/><circle cx="90" cy="456" r="0.9" fill="#fff" opacity="0.29"/><circle cx="230" cy="106" r="1.2" fill="#fff" opacity="0.33"/><circle cx="489" cy="186" r="1.2" fill="#fff" opacity="0.30"/><circle cx="280" cy="740" r="2.0" fill="#fff" opacity="0.26"/><circle cx="302" cy="266" r="1.7" fill="#fff" opacity="0.66"/></g>
  <path d="M0 585 C86 541 164 618 248 574 C338 526 407 595 512 548 V768 H0Z" fill="#f2cf62" opacity=".2"/><path d="M0 650 C105 610 180 690 282 638 C370 594 426 650 512 618 V768 H0Z" fill="#fffbe0" opacity=".18"/>
  <ellipse cx="256" cy="662" rx="150" ry="34" fill="#80651c" opacity=".28"/>
  <g transform="translate(0 122)">
    <path d="M110.45000000000002 326.9 L40.75000000000003 240.8 L44.85000000000002 413 Z" fill="#f2cf62" opacity=".86"/><ellipse cx="247.8" cy="322.8" rx="139.39999999999998" ry="88.14999999999999" fill="url(#body)" filter="url(#softShadow)"/><path d="M243.7 242.85 C288.8 136.25 358.5 173.15 342.1 263.35" fill="#f2cf62" opacity=".72"/><path d="M301.1 384.3 C338 458.1 411.79999999999995 413 362.6 359.7" fill="#fffbe0" opacity=".8"/><circle cx="329.8" cy="292.05" r="14.349999999999998" fill="#101828"/><circle cx="335.95" cy="285.9" r="4.714999999999999" fill="#fff"/><circle cx="256" cy="210.05" r="14.349999999999998" fill="#fffbe0" opacity=".9"/>
  </g>
  <path d="M74 126 C170 65 334 65 438 126" stroke="#fff" stroke-width="16" stroke-linecap="round" opacity=".16"/>
  <path d="M63 676 C162 718 344 718 449 662" stroke="#fff" stroke-width="14" stroke-linecap="round" opacity=".16"/>
</svg>