<svg xmlns="http://www.w3.org/2000/svg" viewBox="0 0 512 768" role="img" aria-label="虹光宝石 original portrait">
  
  <defs>
    <linearGradient id="bgp523" x1="0" y1="0" x2="1" y2="1">
      <stop offset="0" stop-color="#fffbe0"/>
      <stop offset=".55" stop-color="#f2cf62"/>
      <stop offset="1" stop-color="#80651c"/>
    </linearGradient>
    <radialGradient id="body" cx=".36" cy=".25" r=".76">
      <stop offset="0" stop-color="#fffbe0"/>
      <stop offset=".6" stop-color="#f2cf62"/>
      <stop offset="1" stop-color="#80651c"/>
    </radialGradient>
    <radialGradient id="head" cx=".36" cy=".26" r=".72">
      <stop offset="0" stop-color="#ffffff" stop-opacity=".85"/>
      <stop offset=".2" stop-color="#fffbe0"/>
      <stop offset=".72" stop-color="#f2cf62"/>
      <stop offset="1" stop-color="#80651c"/>
    </radialGradient>
    <filter id="softShadow" x="-30%" y="-30%" width="160%" height="160%">
      <feDropShadow dx="0" dy="8" stdDeviation="8" flood-color="#80651c" flood-opacity=".35"/>
    </filter>
  </defs>
  <rect width="512" height="768" rx="48" fill="url(#bgp523)"/>
  <rect x="24" y="24" width="464" height="720" rx="40" fill="#ffffff" opacity=".08"/>
  <g opacity=".42"><circle cx="132" cy="694" r="2.6" fill="#fff" opacity="0.53"/><circle cx="436" cy="519" r="1.1" fill="#fff" opacity="0.37"/><circle cx="452" cy="550" r="2.5" fill="#fff" opacity="0.33"/><circle cx="447" cy="569" r="2.1" fill="#fff" opacity="0.47"/><circle cx="383" cy="657" r="1.3" fill="#fff" opacity="0.67"/><circle cx="381" cy="563" r="1.9" fill="#fff" opacity="0.50"/><circle cx="429" cy="582" r="1.3" fill="#fff" opacity="0.65"/><circle cx="491" cy="653" r="2.0" fill="#fff" opacity="0.48"/><circle cx="288" cy="504" r="1.9" fill="#fff" opacity="0.36"/><circle cx="311" cy="471" r="3.0" fill="#fff" opacity="0.31"/><circle cx="397" cy="418" r="1.9" fill="#fff" opacity="0.60"/><circle cx="430" cy="151" r="1.8" fill="#fff" opacity="0.59"/><circle cx="171" cy="353" r="2.8" fill="#fff" opacity="0.42"/><circle cx="295" cy="277" r="1.9" fill="#fff" opacity="0.43"/><circle cx="20" cy="54" r="2.5" fill="#fff" opacity="0.56"/><circle cx="279" cy="355" r="2.9" fill="#fff" opacity="0.36"/><circle cx="178" cy="69" r="2.8" fill="#fff" opacity="0.46"/><circle cx="19" cy="120" r="2.2" fill="#fff" opacity="0.44"/><circle cx="175" cy="270" r="2.5" fill="#fff" opacity="0.66"/><circle cx="478" cy="735" r="2.2" fill="#fff" opacity="0.26"/><circle cx="322" cy="178" r="1.1" fill="#fff" opacity="0.46"/><circle cx="102" cy="77" r="1.7" fill="#fff" opacity="0.29"/><circle cx="67" cy="562" r="2.4" fill="#fff" opacity="0.32"/><circle cx="327" cy="77" r="2.7" fill="#fff" opacity="0.65"/><circle cx="228" cy="10" r="3.0" fill="#fff" opacity="0.52"/><circle cx="117" cy="373" r="2.3" fill="#fff" opacity="0.27"/><circle cx="369" cy="567" r="2.9" fill="#fff" opacity="0.59"/><circle cx="143" cy="697" r="2.7" fill="#fff" opacity="0.68"/></g>
  <path d="M24 680 L110 610 L186 666 L272 592 L356 674 L445 626 L512 704 V768 H0V704Z" fill="#80651c" opacity=".18"/>
  <ellipse cx="256" cy="662" rx="150" ry="34" fill="#80651c" opacity=".28"/>
  <g transform="translate(0 122)">
    <path d="M149.4 228.5 L219.1 156.75 H311.35 L376.95 242.85 L346.2 394.55 H163.75 Z" fill="url(#body)" filter="url(#softShadow)"/><path d="M198.60000000000002 179.3 L245.75 91.15 L280.6 171.10000000000002 Z" fill="#fffbe0"/><path d="M290.85 183.4 L344.15 113.70000000000002 L342.1 210.05 Z" fill="#f2cf62"/><rect x="194.5" y="277.7" width="122.99999999999999" height="30.749999999999996" rx="14.349999999999998" fill="#80651c" opacity=".38"/><circle cx="227.3" cy="292.05" r="10.25" fill="#fffbe0"/><circle cx="284.7" cy="292.05" r="10.25" fill="#fffbe0"/><path d="M256 183.4 L278.55 212.10000000000002 L256 242.85 L233.45 212.10000000000002 Z" fill="#fffbe0" opacity=".92"/>
  </g>
  <path d="M74 126 C170 65 334 65 438 126" stroke="#fff" stroke-width="16" stroke-linecap="round" opacity=".16"/>
  <path d="M63 676 C162 718 344 718 449 662" stroke="#fff" stroke-width="14" stroke-linecap="round" opacity=".16"/>
</svg>