<svg xmlns="http://www.w3.org/2000/svg" viewBox="0 0 512 768" role="img" aria-label="日轮鸟 original portrait">
  
  <defs>
    <linearGradient id="bgp528" x1="0" y1="0" x2="1" y2="1">
      <stop offset="0" stop-color="#fffbe0"/>
      <stop offset=".55" stop-color="#f2cf62"/>
      <stop offset="1" stop-color="#80651c"/>
    </linearGradient>
    <radialGradient id="body" cx=".36" cy=".25" r=".76">
      <stop offset="0" stop-color="#fffbe0"/>
      <stop offset=".6" stop-color="#f2cf62"/>
      <stop offset="1" stop-color="#80651c"/>
    </radialGradient>
    <radialGradient id="head" cx=".36" cy=".26" r=".72">
      <stop offset="0" stop-color="#ffffff" stop-opacity=".85"/>
      <stop offset=".2" stop-color="#fffbe0"/>
      <stop offset=".72" stop-color="#f2cf62"/>
      <stop offset="1" stop-color="#80651c"/>
    </radialGradient>
    <filter id="softShadow" x="-30%" y="-30%" width="160%" height="160%">
      <feDropShadow dx="0" dy="8" stdDeviation="8" flood-color="#80651c" flood-opacity=".35"/>
    </filter>
  </defs>
  <rect width="512" height="768" rx="48" fill="url(#bgp528)"/>
  <rect x="24" y="24" width="464" height="720" rx="40" fill="#ffffff" opacity=".08"/>
  <g opacity=".42"><circle cx="409" cy="578" r="0.9" fill="#fff" opacity="0.31"/><circle cx="60" cy="548" r="2.3" fill="#fff" opacity="0.54"/><circle cx="233" cy="340" r="1.1" fill="#fff" opacity="0.50"/><circle cx="162" cy="451" r="1.0" fill="#fff" opacity="0.58"/><circle cx="500" cy="489" r="3.2" fill="#fff" opacity="0.65"/><circle cx="209" cy="609" r="1.6" fill="#fff" opacity="0.55"/><circle cx="166" cy="21" r="2.6" fill="#fff" opacity="0.48"/><circle cx="176" cy="284" r="1.5" fill="#fff" opacity="0.32"/><circle cx="471" cy="53" r="2.3" fill="#fff" opacity="0.39"/><circle cx="448" cy="89" r="3.0" fill="#fff" opacity="0.39"/><circle cx="508" cy="209" r="1.7" fill="#fff" opacity="0.64"/><circle cx="8" cy="505" r="1.4" fill="#fff" opacity="0.64"/><circle cx="246" cy="153" r="1.2" fill="#fff" opacity="0.28"/><circle cx="8" cy="382" r="1.4" fill="#fff" opacity="0.59"/><circle cx="396" cy="359" r="2.7" fill="#fff" opacity="0.29"/><circle cx="194" cy="521" r="2.0" fill="#fff" opacity="0.30"/><circle cx="425" cy="251" r="2.5" fill="#fff" opacity="0.43"/><circle cx="331" cy="478" r="1.4" fill="#fff" opacity="0.41"/><circle cx="243" cy="689" r="0.9" fill="#fff" opacity="0.31"/><circle cx="329" cy="676" r="2.1" fill="#fff" opacity="0.39"/><circle cx="292" cy="417" r="3.0" fill="#fff" opacity="0.31"/><circle cx="164" cy="316" r="2.3" fill="#fff" opacity="0.59"/><circle cx="46" cy="352" r="0.9" fill="#fff" opacity="0.45"/><circle cx="153" cy="322" r="3.0" fill="#fff" opacity="0.47"/><circle cx="162" cy="281" r="1.3" fill="#fff" opacity="0.48"/><circle cx="141" cy="592" r="1.8" fill="#fff" opacity="0.31"/><circle cx="109" cy="69" r="2.1" fill="#fff" opacity="0.67"/><circle cx="89" cy="364" r="1.7" fill="#fff" opacity="0.47"/></g>
  <path d="M0 620 C92 590 171 620 259 600 C357 577 432 594 512 565 V768 H0Z" fill="#fff" opacity=".18"/>
  <ellipse cx="256" cy="662" rx="150" ry="34" fill="#80651c" opacity=".28"/>
  <g transform="translate(0 122)">
    <path d="M219.1 306.4 C65.35000000000002 187.5 67.4 392.5 206.8 400.7" fill="#f2cf62" opacity=".78"/><path d="M292.9 306.4 C446.65 187.5 444.6 392.5 305.2 400.7" fill="#f2cf62" opacity=".78"/><ellipse cx="256" cy="343.3" rx="86.1" ry="110.69999999999999" fill="url(#body)" filter="url(#softShadow)"/><circle cx="256" cy="228.5" r="77.89999999999999" fill="url(#head)"/><path d="M245.75 226.45 L331.85 249 L249.85 269.5 Z" fill="#fffbe0"/><path d="M210.9 154.70000000000002 C239.6 89.10000000000002 280.6 109.60000000000002 260.1 167" fill="#80651c" opacity=".85"/><ellipse cx="223.2" cy="253.1" rx="14.349999999999998" ry="16.4" fill="#14213d"/><ellipse cx="288.8" cy="253.1" rx="14.349999999999998" ry="16.4" fill="#14213d"/><circle cx="229.35" cy="244.9" r="4.714999999999999" fill="#fff"/><circle cx="294.95" cy="244.9" r="4.714999999999999" fill="#fff"/><circle cx="256" cy="210.05" r="14.349999999999998" fill="#fffbe0" opacity=".9"/>
  </g>
  <path d="M74 126 C170 65 334 65 438 126" stroke="#fff" stroke-width="16" stroke-linecap="round" opacity=".16"/>
  <path d="M63 676 C162 718 344 718 449 662" stroke="#fff" stroke-width="14" stroke-linecap="round" opacity=".16"/>
</svg>