<svg xmlns="http://www.w3.org/2000/svg" viewBox="0 0 512 768" role="img" aria-label="天照使者 original portrait">
  
  <defs>
    <linearGradient id="bgp530" x1="0" y1="0" x2="1" y2="1">
      <stop offset="0" stop-color="#fffbe0"/>
      <stop offset=".55" stop-color="#f2cf62"/>
      <stop offset="1" stop-color="#80651c"/>
    </linearGradient>
    <radialGradient id="body" cx=".36" cy=".25" r=".76">
      <stop offset="0" stop-color="#fffbe0"/>
      <stop offset=".6" stop-color="#f2cf62"/>
      <stop offset="1" stop-color="#80651c"/>
    </radialGradient>
    <radialGradient id="head" cx=".36" cy=".26" r=".72">
      <stop offset="0" stop-color="#ffffff" stop-opacity=".85"/>
      <stop offset=".2" stop-color="#fffbe0"/>
      <stop offset=".72" stop-color="#f2cf62"/>
      <stop offset="1" stop-color="#80651c"/>
    </radialGradient>
    <filter id="softShadow" x="-30%" y="-30%" width="160%" height="160%">
      <feDropShadow dx="0" dy="8" stdDeviation="8" flood-color="#80651c" flood-opacity=".35"/>
    </filter>
  </defs>
  <rect width="512" height="768" rx="48" fill="url(#bgp530)"/>
  <rect x="24" y="24" width="464" height="720" rx="40" fill="#ffffff" opacity=".08"/>
  <g opacity=".42"><circle cx="336" cy="516" r="1.0" fill="#fff" opacity="0.47"/><circle cx="353" cy="496" r="0.9" fill="#fff" opacity="0.31"/><circle cx="6" cy="236" r="1.8" fill="#fff" opacity="0.28"/><circle cx="158" cy="132" r="2.0" fill="#fff" opacity="0.33"/><circle cx="450" cy="659" r="1.8" fill="#fff" opacity="0.47"/><circle cx="406" cy="640" r="1.5" fill="#fff" opacity="0.70"/><circle cx="459" cy="430" r="2.6" fill="#fff" opacity="0.49"/><circle cx="356" cy="653" r="2.9" fill="#fff" opacity="0.34"/><circle cx="169" cy="560" r="1.4" fill="#fff" opacity="0.54"/><circle cx="453" cy="151" r="2.2" fill="#fff" opacity="0.56"/><circle cx="208" cy="690" r="1.0" fill="#fff" opacity="0.45"/><circle cx="132" cy="595" r="3.0" fill="#fff" opacity="0.27"/><circle cx="179" cy="225" r="3.1" fill="#fff" opacity="0.34"/><circle cx="450" cy="488" r="1.7" fill="#fff" opacity="0.64"/><circle cx="498" cy="61" r="1.4" fill="#fff" opacity="0.34"/><circle cx="140" cy="649" r="2.0" fill="#fff" opacity="0.52"/><circle cx="250" cy="112" r="1.2" fill="#fff" opacity="0.58"/><circle cx="355" cy="171" r="2.8" fill="#fff" opacity="0.52"/><circle cx="149" cy="589" r="1.4" fill="#fff" opacity="0.66"/><circle cx="487" cy="413" r="2.2" fill="#fff" opacity="0.35"/><circle cx="504" cy="195" r="2.6" fill="#fff" opacity="0.37"/><circle cx="34" cy="578" r="1.2" fill="#fff" opacity="0.42"/><circle cx="235" cy="88" r="2.7" fill="#fff" opacity="0.42"/><circle cx="105" cy="724" r="1.1" fill="#fff" opacity="0.69"/><circle cx="141" cy="756" r="1.8" fill="#fff" opacity="0.31"/><circle cx="64" cy="69" r="1.8" fill="#fff" opacity="0.34"/><circle cx="234" cy="752" r="2.8" fill="#fff" opacity="0.61"/><circle cx="252" cy="136" r="3.2" fill="#fff" opacity="0.48"/></g>
  <circle cx="256" cy="294" r="188" fill="#fffbe0" opacity=".12"/><circle cx="256" cy="294" r="146" fill="#fff" opacity=".1"/>
  <ellipse cx="256" cy="662" rx="150" ry="34" fill="#80651c" opacity=".28"/>
  <g transform="translate(0 122)">
    <ellipse cx="256" cy="339.2" rx="100.44999999999999" ry="112.74999999999999" fill="url(#body)" filter="url(#softShadow)"/><circle cx="256" cy="226.45" r="79.94999999999999" fill="url(#head)"/><ellipse cx="256" cy="214.15" rx="139.39999999999998" ry="36.9" fill="none" stroke="#fffbe0" stroke-width="14.349999999999998" opacity=".75" transform="rotate(-12 256 214.15)"/><path d="M256 103.45000000000002 L276.5 154.70000000000002 L333.9 156.75 L286.75 187.5 L303.15 242.85 L256 208 L208.85 242.85 L225.25 187.5 L178.10000000000002 156.75 L235.5 154.70000000000002 Z" fill="#f2cf62"/><ellipse cx="223.2" cy="253.1" rx="14.349999999999998" ry="16.4" fill="#14213d"/><ellipse cx="288.8" cy="253.1" rx="14.349999999999998" ry="16.4" fill="#14213d"/><circle cx="229.35" cy="244.9" r="4.714999999999999" fill="#fff"/><circle cx="294.95" cy="244.9" r="4.714999999999999" fill="#fff"/><circle cx="256" cy="210.05" r="14.349999999999998" fill="#fffbe0" opacity=".9"/>
  </g>
  <path d="M74 126 C170 65 334 65 438 126" stroke="#fff" stroke-width="16" stroke-linecap="round" opacity=".16"/>
  <path d="M63 676 C162 718 344 718 449 662" stroke="#fff" stroke-width="14" stroke-linecap="round" opacity=".16"/>
</svg>