<svg xmlns="http://www.w3.org/2000/svg" viewBox="0 0 512 768" role="img" aria-label="深渊鱼 original portrait">
  
  <defs>
    <linearGradient id="bgp539" x1="0" y1="0" x2="1" y2="1">
      <stop offset="0" stop-color="#9ba0bb"/>
      <stop offset=".55" stop-color="#4a4b68"/>
      <stop offset="1" stop-color="#171728"/>
    </linearGradient>
    <radialGradient id="body" cx=".36" cy=".25" r=".76">
      <stop offset="0" stop-color="#9ba0bb"/>
      <stop offset=".6" stop-color="#4a4b68"/>
      <stop offset="1" stop-color="#171728"/>
    </radialGradient>
    <radialGradient id="head" cx=".36" cy=".26" r=".72">
      <stop offset="0" stop-color="#ffffff" stop-opacity=".85"/>
      <stop offset=".2" stop-color="#9ba0bb"/>
      <stop offset=".72" stop-color="#4a4b68"/>
      <stop offset="1" stop-color="#171728"/>
    </radialGradient>
    <filter id="softShadow" x="-30%" y="-30%" width="160%" height="160%">
      <feDropShadow dx="0" dy="8" stdDeviation="8" flood-color="#171728" flood-opacity=".35"/>
    </filter>
  </defs>
  <rect width="512" height="768" rx="48" fill="url(#bgp539)"/>
  <rect x="24" y="24" width="464" height="720" rx="40" fill="#ffffff" opacity=".08"/>
  <g opacity=".42"><circle cx="435" cy="7" r="1.3" fill="#fff" opacity="0.58"/><circle cx="128" cy="759" r="2.6" fill="#fff" opacity="0.49"/><circle cx="209" cy="211" r="2.0" fill="#fff" opacity="0.67"/><circle cx="41" cy="100" r="1.5" fill="#fff" opacity="0.66"/><circle cx="399" cy="669" r="2.7" fill="#fff" opacity="0.41"/><circle cx="275" cy="517" r="1.0" fill="#fff" opacity="0.55"/><circle cx="60" cy="120" r="3.1" fill="#fff" opacity="0.27"/><circle cx="415" cy="475" r="0.9" fill="#fff" opacity="0.45"/><circle cx="79" cy="237" r="1.3" fill="#fff" opacity="0.62"/><circle cx="348" cy="425" r="1.1" fill="#fff" opacity="0.53"/><circle cx="348" cy="224" r="2.3" fill="#fff" opacity="0.53"/><circle cx="390" cy="355" r="1.2" fill="#fff" opacity="0.32"/><circle cx="96" cy="733" r="2.6" fill="#fff" opacity="0.61"/><circle cx="349" cy="296" r="1.4" fill="#fff" opacity="0.27"/><circle cx="49" cy="453" r="1.3" fill="#fff" opacity="0.40"/><circle cx="4" cy="635" r="1.4" fill="#fff" opacity="0.25"/><circle cx="107" cy="207" r="2.0" fill="#fff" opacity="0.47"/><circle cx="493" cy="384" r="2.3" fill="#fff" opacity="0.37"/><circle cx="321" cy="196" r="1.2" fill="#fff" opacity="0.51"/><circle cx="107" cy="224" r="1.8" fill="#fff" opacity="0.40"/><circle cx="361" cy="466" r="2.6" fill="#fff" opacity="0.50"/><circle cx="190" cy="280" r="2.6" fill="#fff" opacity="0.55"/><circle cx="283" cy="243" r="3.1" fill="#fff" opacity="0.40"/><circle cx="177" cy="690" r="2.0" fill="#fff" opacity="0.59"/><circle cx="109" cy="126" r="3.1" fill="#fff" opacity="0.27"/><circle cx="13" cy="200" r="2.6" fill="#fff" opacity="0.53"/><circle cx="129" cy="469" r="2.0" fill="#fff" opacity="0.32"/><circle cx="332" cy="558" r="1.0" fill="#fff" opacity="0.70"/></g>
  <path d="M0 585 C86 541 164 618 248 574 C338 526 407 595 512 548 V768 H0Z" fill="#4a4b68" opacity=".2"/><path d="M0 650 C105 610 180 690 282 638 C370 594 426 650 512 618 V768 H0Z" fill="#9ba0bb" opacity=".18"/>
  <ellipse cx="256" cy="662" rx="150" ry="34" fill="#171728" opacity=".28"/>
  <g transform="translate(0 122)">
    <path d="M110.45000000000002 326.9 L40.75000000000003 240.8 L44.85000000000002 413 Z" fill="#4a4b68" opacity=".86"/><ellipse cx="247.8" cy="322.8" rx="139.39999999999998" ry="88.14999999999999" fill="url(#body)" filter="url(#softShadow)"/><path d="M243.7 242.85 C288.8 136.25 358.5 173.15 342.1 263.35" fill="#4a4b68" opacity=".72"/><path d="M301.1 384.3 C338 458.1 411.79999999999995 413 362.6 359.7" fill="#9ba0bb" opacity=".8"/><circle cx="329.8" cy="292.05" r="14.349999999999998" fill="#101828"/><circle cx="335.95" cy="285.9" r="4.714999999999999" fill="#fff"/><circle cx="256" cy="210.05" r="14.349999999999998" fill="#9ba0bb" opacity=".9"/>
  </g>
  <path d="M74 126 C170 65 334 65 438 126" stroke="#fff" stroke-width="16" stroke-linecap="round" opacity=".16"/>
  <path d="M63 676 C162 718 344 718 449 662" stroke="#fff" stroke-width="14" stroke-linecap="round" opacity=".16"/>
</svg>