<svg xmlns="http://www.w3.org/2000/svg" viewBox="0 0 512 768" role="img" aria-label="火山幼龙 original portrait">
  
  <defs>
    <linearGradient id="bgp543" x1="0" y1="0" x2="1" y2="1">
      <stop offset="0" stop-color="#ffd166"/>
      <stop offset=".55" stop-color="#ff6b35"/>
      <stop offset="1" stop-color="#a92d1d"/>
    </linearGradient>
    <radialGradient id="body" cx=".36" cy=".25" r=".76">
      <stop offset="0" stop-color="#ffd166"/>
      <stop offset=".6" stop-color="#ff6b35"/>
      <stop offset="1" stop-color="#a92d1d"/>
    </radialGradient>
    <radialGradient id="head" cx=".36" cy=".26" r=".72">
      <stop offset="0" stop-color="#ffffff" stop-opacity=".85"/>
      <stop offset=".2" stop-color="#ffd166"/>
      <stop offset=".72" stop-color="#ff6b35"/>
      <stop offset="1" stop-color="#a92d1d"/>
    </radialGradient>
    <filter id="softShadow" x="-30%" y="-30%" width="160%" height="160%">
      <feDropShadow dx="0" dy="8" stdDeviation="8" flood-color="#a92d1d" flood-opacity=".35"/>
    </filter>
  </defs>
  <rect width="512" height="768" rx="48" fill="url(#bgp543)"/>
  <rect x="24" y="24" width="464" height="720" rx="40" fill="#ffffff" opacity=".08"/>
  <g opacity=".42"><circle cx="386" cy="563" r="1.6" fill="#fff" opacity="0.46"/><circle cx="227" cy="207" r="1.7" fill="#fff" opacity="0.65"/><circle cx="464" cy="346" r="2.9" fill="#fff" opacity="0.45"/><circle cx="403" cy="394" r="3.0" fill="#fff" opacity="0.59"/><circle cx="89" cy="441" r="3.1" fill="#fff" opacity="0.37"/><circle cx="375" cy="30" r="1.1" fill="#fff" opacity="0.58"/><circle cx="442" cy="7" r="1.2" fill="#fff" opacity="0.51"/><circle cx="207" cy="581" r="2.3" fill="#fff" opacity="0.69"/><circle cx="277" cy="659" r="3.0" fill="#fff" opacity="0.59"/><circle cx="299" cy="235" r="1.6" fill="#fff" opacity="0.57"/><circle cx="205" cy="510" r="1.1" fill="#fff" opacity="0.50"/><circle cx="139" cy="594" r="1.2" fill="#fff" opacity="0.70"/><circle cx="449" cy="360" r="1.3" fill="#fff" opacity="0.61"/><circle cx="102" cy="302" r="2.9" fill="#fff" opacity="0.59"/><circle cx="464" cy="202" r="1.6" fill="#fff" opacity="0.57"/><circle cx="327" cy="429" r="2.7" fill="#fff" opacity="0.26"/><circle cx="385" cy="665" r="3.1" fill="#fff" opacity="0.50"/><circle cx="199" cy="280" r="1.5" fill="#fff" opacity="0.26"/><circle cx="11" cy="387" r="3.2" fill="#fff" opacity="0.27"/><circle cx="328" cy="461" r="2.1" fill="#fff" opacity="0.38"/><circle cx="50" cy="752" r="1.5" fill="#fff" opacity="0.59"/><circle cx="20" cy="593" r="0.8" fill="#fff" opacity="0.28"/><circle cx="304" cy="485" r="2.1" fill="#fff" opacity="0.62"/><circle cx="232" cy="517" r="2.9" fill="#fff" opacity="0.70"/><circle cx="353" cy="714" r="1.5" fill="#fff" opacity="0.35"/><circle cx="4" cy="456" r="2.6" fill="#fff" opacity="0.43"/><circle cx="361" cy="381" r="1.0" fill="#fff" opacity="0.62"/><circle cx="222" cy="346" r="1.2" fill="#fff" opacity="0.31"/></g>
  <path d="M70 600 C142 504 297 500 443 610" fill="#a92d1d" opacity=".18"/><path d="M52 642 C146 578 341 580 471 650" fill="#a92d1d" opacity=".16"/>
  <ellipse cx="256" cy="662" rx="150" ry="34" fill="#a92d1d" opacity=".28"/>
  <g transform="translate(0 122)">
    <path d="M108.4 347.4 C161.7 224.4 292.9 175.20000000000002 389.25 253.1 C325.7 249 276.5 285.9 247.8 376.1" fill="#a92d1d" opacity=".45"/><ellipse cx="256" cy="335.1" rx="110.69999999999999" ry="92.24999999999999" fill="url(#body)" filter="url(#softShadow)"/><path d="M167.85000000000002 253.1 L219.1 130.10000000000002 L249.85 244.9 Z" fill="#ff6b35"/><path d="M344.15 253.1 L292.9 130.10000000000002 L262.15 244.9 Z" fill="#ff6b35"/><ellipse cx="256" cy="267.45" rx="96.35" ry="86.1" fill="url(#head)"/><path d="M151.45 292.05 Q87.9 298.2 63.30000000000001 253.1" stroke="#ffd166" stroke-width="10.25" fill="none" stroke-linecap="round" opacity=".85"/><path d="M360.55 292.05 Q424.1 298.2 448.7 253.1" stroke="#ffd166" stroke-width="10.25" fill="none" stroke-linecap="round" opacity=".85"/><ellipse cx="223.2" cy="253.1" rx="14.349999999999998" ry="16.4" fill="#14213d"/><ellipse cx="288.8" cy="253.1" rx="14.349999999999998" ry="16.4" fill="#14213d"/><circle cx="229.35" cy="244.9" r="4.714999999999999" fill="#fff"/><circle cx="294.95" cy="244.9" r="4.714999999999999" fill="#fff"/><circle cx="256" cy="210.05" r="14.349999999999998" fill="#ffd166" opacity=".9"/>
  </g>
  <path d="M74 126 C170 65 334 65 438 126" stroke="#fff" stroke-width="16" stroke-linecap="round" opacity=".16"/>
  <path d="M63 676 C162 718 344 718 449 662" stroke="#fff" stroke-width="14" stroke-linecap="round" opacity=".16"/>
</svg>