<svg xmlns="http://www.w3.org/2000/svg" viewBox="0 0 512 768" role="img" aria-label="森之守护者 original portrait">
  
  <defs>
    <linearGradient id="bgp555" x1="0" y1="0" x2="1" y2="1">
      <stop offset="0" stop-color="#c7f7a4"/>
      <stop offset=".55" stop-color="#43b957"/>
      <stop offset="1" stop-color="#1f6f43"/>
    </linearGradient>
    <radialGradient id="body" cx=".36" cy=".25" r=".76">
      <stop offset="0" stop-color="#c7f7a4"/>
      <stop offset=".6" stop-color="#43b957"/>
      <stop offset="1" stop-color="#1f6f43"/>
    </radialGradient>
    <radialGradient id="head" cx=".36" cy=".26" r=".72">
      <stop offset="0" stop-color="#ffffff" stop-opacity=".85"/>
      <stop offset=".2" stop-color="#c7f7a4"/>
      <stop offset=".72" stop-color="#43b957"/>
      <stop offset="1" stop-color="#1f6f43"/>
    </radialGradient>
    <filter id="softShadow" x="-30%" y="-30%" width="160%" height="160%">
      <feDropShadow dx="0" dy="8" stdDeviation="8" flood-color="#1f6f43" flood-opacity=".35"/>
    </filter>
  </defs>
  <rect width="512" height="768" rx="48" fill="url(#bgp555)"/>
  <rect x="24" y="24" width="464" height="720" rx="40" fill="#ffffff" opacity=".08"/>
  <g opacity=".42"><circle cx="54" cy="352" r="2.4" fill="#fff" opacity="0.55"/><circle cx="507" cy="744" r="2.1" fill="#fff" opacity="0.55"/><circle cx="423" cy="215" r="3.0" fill="#fff" opacity="0.35"/><circle cx="32" cy="531" r="3.1" fill="#fff" opacity="0.39"/><circle cx="72" cy="72" r="2.7" fill="#fff" opacity="0.64"/><circle cx="120" cy="695" r="1.2" fill="#fff" opacity="0.52"/><circle cx="365" cy="79" r="1.6" fill="#fff" opacity="0.27"/><circle cx="4" cy="106" r="1.9" fill="#fff" opacity="0.48"/><circle cx="229" cy="241" r="2.2" fill="#fff" opacity="0.66"/><circle cx="190" cy="77" r="1.6" fill="#fff" opacity="0.49"/><circle cx="148" cy="559" r="2.3" fill="#fff" opacity="0.27"/><circle cx="10" cy="192" r="1.9" fill="#fff" opacity="0.31"/><circle cx="510" cy="261" r="1.0" fill="#fff" opacity="0.42"/><circle cx="224" cy="450" r="2.4" fill="#fff" opacity="0.33"/><circle cx="103" cy="515" r="2.1" fill="#fff" opacity="0.36"/><circle cx="498" cy="124" r="1.5" fill="#fff" opacity="0.66"/><circle cx="153" cy="18" r="0.8" fill="#fff" opacity="0.59"/><circle cx="87" cy="88" r="2.1" fill="#fff" opacity="0.42"/><circle cx="426" cy="172" r="2.8" fill="#fff" opacity="0.31"/><circle cx="164" cy="578" r="3.1" fill="#fff" opacity="0.61"/><circle cx="408" cy="42" r="2.7" fill="#fff" opacity="0.31"/><circle cx="245" cy="593" r="1.6" fill="#fff" opacity="0.51"/><circle cx="96" cy="528" r="2.1" fill="#fff" opacity="0.27"/><circle cx="201" cy="610" r="3.1" fill="#fff" opacity="0.29"/><circle cx="444" cy="526" r="2.6" fill="#fff" opacity="0.46"/><circle cx="509" cy="175" r="1.8" fill="#fff" opacity="0.60"/><circle cx="367" cy="709" r="2.5" fill="#fff" opacity="0.63"/><circle cx="358" cy="516" r="2.4" fill="#fff" opacity="0.56"/></g>
  <path d="M18 704 C124 595 205 659 256 580 C314 666 392 596 494 704 V768 H18Z" fill="#1f6f43" opacity=".18"/>
  <ellipse cx="256" cy="662" rx="150" ry="34" fill="#1f6f43" opacity=".28"/>
  <g transform="translate(0 122)">
    <path d="M231.4 400.7 C128.9 376.1 83.80000000000001 265.4 198.60000000000002 275.65" fill="#43b957" opacity=".82"/><path d="M280.6 400.7 C383.1 376.1 428.2 265.4 313.4 275.65" fill="#43b957" opacity=".82"/><ellipse cx="256" cy="339.2" rx="98.39999999999999" ry="116.85" fill="url(#body)" filter="url(#softShadow)"/><path d="M256 138.3 C169.9 175.20000000000002 161.7 259.25 256 251.05 C350.3 259.25 342.1 175.20000000000002 256 138.3Z" fill="#c7f7a4"/><circle cx="256" cy="253.1" r="77.89999999999999" fill="url(#head)"/><ellipse cx="223.2" cy="253.1" rx="14.349999999999998" ry="16.4" fill="#14213d"/><ellipse cx="288.8" cy="253.1" rx="14.349999999999998" ry="16.4" fill="#14213d"/><circle cx="229.35" cy="244.9" r="4.714999999999999" fill="#fff"/><circle cx="294.95" cy="244.9" r="4.714999999999999" fill="#fff"/><path d="M215 201.85000000000002 Q256 224.4 297 201.85000000000002" stroke="#c7f7a4" stroke-width="10.25" fill="none" stroke-linecap="round" opacity=".8"/>
  </g>
  <path d="M74 126 C170 65 334 65 438 126" stroke="#fff" stroke-width="16" stroke-linecap="round" opacity=".16"/>
  <path d="M63 676 C162 718 344 718 449 662" stroke="#fff" stroke-width="14" stroke-linecap="round" opacity=".16"/>
</svg>