<svg xmlns="http://www.w3.org/2000/svg" viewBox="0 0 512 768" role="img" aria-label="莲叶蛙 original portrait">
  
  <defs>
    <linearGradient id="bgp558" x1="0" y1="0" x2="1" y2="1">
      <stop offset="0" stop-color="#c7f7a4"/>
      <stop offset=".55" stop-color="#43b957"/>
      <stop offset="1" stop-color="#1f6f43"/>
    </linearGradient>
    <radialGradient id="body" cx=".36" cy=".25" r=".76">
      <stop offset="0" stop-color="#c7f7a4"/>
      <stop offset=".6" stop-color="#43b957"/>
      <stop offset="1" stop-color="#1f6f43"/>
    </radialGradient>
    <radialGradient id="head" cx=".36" cy=".26" r=".72">
      <stop offset="0" stop-color="#ffffff" stop-opacity=".85"/>
      <stop offset=".2" stop-color="#c7f7a4"/>
      <stop offset=".72" stop-color="#43b957"/>
      <stop offset="1" stop-color="#1f6f43"/>
    </radialGradient>
    <filter id="softShadow" x="-30%" y="-30%" width="160%" height="160%">
      <feDropShadow dx="0" dy="8" stdDeviation="8" flood-color="#1f6f43" flood-opacity=".35"/>
    </filter>
  </defs>
  <rect width="512" height="768" rx="48" fill="url(#bgp558)"/>
  <rect x="24" y="24" width="464" height="720" rx="40" fill="#ffffff" opacity=".08"/>
  <g opacity=".42"><circle cx="405" cy="474" r="2.7" fill="#fff" opacity="0.36"/><circle cx="389" cy="206" r="2.0" fill="#fff" opacity="0.69"/><circle cx="270" cy="737" r="1.0" fill="#fff" opacity="0.31"/><circle cx="198" cy="515" r="2.1" fill="#fff" opacity="0.32"/><circle cx="317" cy="700" r="2.8" fill="#fff" opacity="0.55"/><circle cx="403" cy="275" r="1.9" fill="#fff" opacity="0.59"/><circle cx="166" cy="480" r="1.5" fill="#fff" opacity="0.48"/><circle cx="375" cy="129" r="2.9" fill="#fff" opacity="0.61"/><circle cx="223" cy="146" r="2.4" fill="#fff" opacity="0.40"/><circle cx="130" cy="329" r="2.2" fill="#fff" opacity="0.38"/><circle cx="282" cy="226" r="2.6" fill="#fff" opacity="0.52"/><circle cx="80" cy="422" r="3.2" fill="#fff" opacity="0.45"/><circle cx="93" cy="438" r="1.8" fill="#fff" opacity="0.50"/><circle cx="315" cy="177" r="0.9" fill="#fff" opacity="0.38"/><circle cx="510" cy="553" r="2.2" fill="#fff" opacity="0.49"/><circle cx="455" cy="37" r="1.6" fill="#fff" opacity="0.35"/><circle cx="350" cy="667" r="1.2" fill="#fff" opacity="0.65"/><circle cx="150" cy="106" r="2.6" fill="#fff" opacity="0.55"/><circle cx="332" cy="747" r="2.9" fill="#fff" opacity="0.26"/><circle cx="4" cy="46" r="2.9" fill="#fff" opacity="0.38"/><circle cx="256" cy="523" r="1.1" fill="#fff" opacity="0.56"/><circle cx="83" cy="280" r="3.2" fill="#fff" opacity="0.55"/><circle cx="448" cy="756" r="1.6" fill="#fff" opacity="0.31"/><circle cx="397" cy="321" r="1.7" fill="#fff" opacity="0.37"/><circle cx="54" cy="524" r="1.7" fill="#fff" opacity="0.32"/><circle cx="250" cy="742" r="2.3" fill="#fff" opacity="0.58"/><circle cx="44" cy="709" r="1.7" fill="#fff" opacity="0.53"/><circle cx="47" cy="582" r="1.8" fill="#fff" opacity="0.42"/></g>
  <path d="M0 585 C86 541 164 618 248 574 C338 526 407 595 512 548 V768 H0Z" fill="#43b957" opacity=".2"/><path d="M0 650 C105 610 180 690 282 638 C370 594 426 650 512 618 V768 H0Z" fill="#c7f7a4" opacity=".18"/>
  <ellipse cx="256" cy="662" rx="150" ry="34" fill="#1f6f43" opacity=".28"/>
  <g transform="translate(0 122)">
    <path d="M110.45000000000002 326.9 L40.75000000000003 240.8 L44.85000000000002 413 Z" fill="#43b957" opacity=".86"/><ellipse cx="247.8" cy="322.8" rx="139.39999999999998" ry="88.14999999999999" fill="url(#body)" filter="url(#softShadow)"/><path d="M243.7 242.85 C288.8 136.25 358.5 173.15 342.1 263.35" fill="#43b957" opacity=".72"/><path d="M301.1 384.3 C338 458.1 411.79999999999995 413 362.6 359.7" fill="#c7f7a4" opacity=".8"/><circle cx="329.8" cy="292.05" r="14.349999999999998" fill="#101828"/><circle cx="335.95" cy="285.9" r="4.714999999999999" fill="#fff"/><path d="M215 201.85000000000002 Q256 224.4 297 201.85000000000002" stroke="#c7f7a4" stroke-width="10.25" fill="none" stroke-linecap="round" opacity=".8"/>
  </g>
  <path d="M74 126 C170 65 334 65 438 126" stroke="#fff" stroke-width="16" stroke-linecap="round" opacity=".16"/>
  <path d="M63 676 C162 718 344 718 449 662" stroke="#fff" stroke-width="14" stroke-linecap="round" opacity=".16"/>
</svg>