<svg xmlns="http://www.w3.org/2000/svg" viewBox="0 0 512 768" role="img" aria-label="电火花 original portrait">
  
  <defs>
    <linearGradient id="bgp559" x1="0" y1="0" x2="1" y2="1">
      <stop offset="0" stop-color="#fff27a"/>
      <stop offset=".55" stop-color="#f9c80e"/>
      <stop offset="1" stop-color="#7a5200"/>
    </linearGradient>
    <radialGradient id="body" cx=".36" cy=".25" r=".76">
      <stop offset="0" stop-color="#fff27a"/>
      <stop offset=".6" stop-color="#f9c80e"/>
      <stop offset="1" stop-color="#7a5200"/>
    </radialGradient>
    <radialGradient id="head" cx=".36" cy=".26" r=".72">
      <stop offset="0" stop-color="#ffffff" stop-opacity=".85"/>
      <stop offset=".2" stop-color="#fff27a"/>
      <stop offset=".72" stop-color="#f9c80e"/>
      <stop offset="1" stop-color="#7a5200"/>
    </radialGradient>
    <filter id="softShadow" x="-30%" y="-30%" width="160%" height="160%">
      <feDropShadow dx="0" dy="8" stdDeviation="8" flood-color="#7a5200" flood-opacity=".35"/>
    </filter>
  </defs>
  <rect width="512" height="768" rx="48" fill="url(#bgp559)"/>
  <rect x="24" y="24" width="464" height="720" rx="40" fill="#ffffff" opacity=".08"/>
  <g opacity=".42"><circle cx="438" cy="402" r="1.8" fill="#fff" opacity="0.26"/><circle cx="146" cy="172" r="1.1" fill="#fff" opacity="0.70"/><circle cx="384" cy="766" r="2.6" fill="#fff" opacity="0.68"/><circle cx="236" cy="422" r="2.9" fill="#fff" opacity="0.33"/><circle cx="203" cy="16" r="1.5" fill="#fff" opacity="0.35"/><circle cx="419" cy="319" r="2.8" fill="#fff" opacity="0.59"/><circle cx="452" cy="756" r="1.4" fill="#fff" opacity="0.49"/><circle cx="195" cy="315" r="2.3" fill="#fff" opacity="0.66"/><circle cx="127" cy="360" r="2.4" fill="#fff" opacity="0.58"/><circle cx="275" cy="652" r="1.9" fill="#fff" opacity="0.48"/><circle cx="182" cy="361" r="2.2" fill="#fff" opacity="0.25"/><circle cx="231" cy="236" r="2.1" fill="#fff" opacity="0.55"/><circle cx="484" cy="359" r="3.0" fill="#fff" opacity="0.58"/><circle cx="94" cy="762" r="2.7" fill="#fff" opacity="0.34"/><circle cx="52" cy="136" r="1.3" fill="#fff" opacity="0.68"/><circle cx="344" cy="349" r="2.4" fill="#fff" opacity="0.58"/><circle cx="422" cy="633" r="1.7" fill="#fff" opacity="0.54"/><circle cx="238" cy="126" r="0.8" fill="#fff" opacity="0.44"/><circle cx="76" cy="236" r="1.9" fill="#fff" opacity="0.39"/><circle cx="328" cy="470" r="2.7" fill="#fff" opacity="0.25"/><circle cx="38" cy="140" r="2.3" fill="#fff" opacity="0.30"/><circle cx="424" cy="406" r="3.2" fill="#fff" opacity="0.49"/><circle cx="277" cy="280" r="2.5" fill="#fff" opacity="0.35"/><circle cx="256" cy="13" r="2.8" fill="#fff" opacity="0.64"/><circle cx="286" cy="58" r="1.8" fill="#fff" opacity="0.30"/><circle cx="66" cy="248" r="2.4" fill="#fff" opacity="0.49"/><circle cx="357" cy="268" r="0.9" fill="#fff" opacity="0.61"/><circle cx="267" cy="360" r="0.9" fill="#fff" opacity="0.26"/></g>
  <path d="M18 704 C124 595 205 659 256 580 C314 666 392 596 494 704 V768 H18Z" fill="#7a5200" opacity=".18"/>
  <ellipse cx="256" cy="662" rx="150" ry="34" fill="#7a5200" opacity=".28"/>
  <g transform="translate(0 122)">
    <path d="M231.4 400.7 C128.9 376.1 83.80000000000001 265.4 198.60000000000002 275.65" fill="#f9c80e" opacity=".82"/><path d="M280.6 400.7 C383.1 376.1 428.2 265.4 313.4 275.65" fill="#f9c80e" opacity=".82"/><ellipse cx="256" cy="339.2" rx="98.39999999999999" ry="116.85" fill="url(#body)" filter="url(#softShadow)"/><path d="M256 138.3 C169.9 175.20000000000002 161.7 259.25 256 251.05 C350.3 259.25 342.1 175.20000000000002 256 138.3Z" fill="#fff27a"/><circle cx="256" cy="253.1" r="77.89999999999999" fill="url(#head)"/><ellipse cx="223.2" cy="253.1" rx="14.349999999999998" ry="16.4" fill="#14213d"/><ellipse cx="288.8" cy="253.1" rx="14.349999999999998" ry="16.4" fill="#14213d"/><circle cx="229.35" cy="244.9" r="4.714999999999999" fill="#fff"/><circle cx="294.95" cy="244.9" r="4.714999999999999" fill="#fff"/><path d="M256 183.4 L278.55 212.10000000000002 L256 242.85 L233.45 212.10000000000002 Z" fill="#fff27a" opacity=".92"/>
  </g>
  <path d="M74 126 C170 65 334 65 438 126" stroke="#fff" stroke-width="16" stroke-linecap="round" opacity=".16"/>
  <path d="M63 676 C162 718 344 718 449 662" stroke="#fff" stroke-width="14" stroke-linecap="round" opacity=".16"/>
</svg>