<svg xmlns="http://www.w3.org/2000/svg" viewBox="0 0 512 768" role="img" aria-label="雷暴兽 original portrait">
  
  <defs>
    <linearGradient id="bgp560" x1="0" y1="0" x2="1" y2="1">
      <stop offset="0" stop-color="#fff27a"/>
      <stop offset=".55" stop-color="#f9c80e"/>
      <stop offset="1" stop-color="#7a5200"/>
    </linearGradient>
    <radialGradient id="body" cx=".36" cy=".25" r=".76">
      <stop offset="0" stop-color="#fff27a"/>
      <stop offset=".6" stop-color="#f9c80e"/>
      <stop offset="1" stop-color="#7a5200"/>
    </radialGradient>
    <radialGradient id="head" cx=".36" cy=".26" r=".72">
      <stop offset="0" stop-color="#ffffff" stop-opacity=".85"/>
      <stop offset=".2" stop-color="#fff27a"/>
      <stop offset=".72" stop-color="#f9c80e"/>
      <stop offset="1" stop-color="#7a5200"/>
    </radialGradient>
    <filter id="softShadow" x="-30%" y="-30%" width="160%" height="160%">
      <feDropShadow dx="0" dy="8" stdDeviation="8" flood-color="#7a5200" flood-opacity=".35"/>
    </filter>
  </defs>
  <rect width="512" height="768" rx="48" fill="url(#bgp560)"/>
  <rect x="24" y="24" width="464" height="720" rx="40" fill="#ffffff" opacity=".08"/>
  <g opacity=".42"><circle cx="289" cy="113" r="2.2" fill="#fff" opacity="0.51"/><circle cx="160" cy="540" r="1.4" fill="#fff" opacity="0.29"/><circle cx="232" cy="126" r="1.0" fill="#fff" opacity="0.45"/><circle cx="84" cy="512" r="1.8" fill="#fff" opacity="0.31"/><circle cx="338" cy="79" r="2.8" fill="#fff" opacity="0.32"/><circle cx="167" cy="698" r="2.0" fill="#fff" opacity="0.45"/><circle cx="487" cy="767" r="2.5" fill="#fff" opacity="0.26"/><circle cx="229" cy="63" r="0.8" fill="#fff" opacity="0.52"/><circle cx="292" cy="344" r="2.2" fill="#fff" opacity="0.64"/><circle cx="232" cy="381" r="2.6" fill="#fff" opacity="0.50"/><circle cx="291" cy="673" r="2.7" fill="#fff" opacity="0.27"/><circle cx="70" cy="731" r="2.2" fill="#fff" opacity="0.48"/><circle cx="262" cy="331" r="1.9" fill="#fff" opacity="0.41"/><circle cx="237" cy="256" r="2.1" fill="#fff" opacity="0.65"/><circle cx="65" cy="279" r="2.7" fill="#fff" opacity="0.67"/><circle cx="302" cy="709" r="3.0" fill="#fff" opacity="0.37"/><circle cx="222" cy="586" r="2.8" fill="#fff" opacity="0.47"/><circle cx="488" cy="397" r="1.4" fill="#fff" opacity="0.39"/><circle cx="40" cy="218" r="3.1" fill="#fff" opacity="0.69"/><circle cx="256" cy="406" r="2.0" fill="#fff" opacity="0.48"/><circle cx="265" cy="434" r="1.2" fill="#fff" opacity="0.27"/><circle cx="211" cy="206" r="1.3" fill="#fff" opacity="0.45"/><circle cx="310" cy="205" r="2.1" fill="#fff" opacity="0.64"/><circle cx="405" cy="612" r="0.9" fill="#fff" opacity="0.44"/><circle cx="239" cy="747" r="1.4" fill="#fff" opacity="0.41"/><circle cx="407" cy="382" r="0.9" fill="#fff" opacity="0.36"/><circle cx="69" cy="527" r="2.1" fill="#fff" opacity="0.41"/><circle cx="415" cy="257" r="2.0" fill="#fff" opacity="0.39"/></g>
  <path d="M0 670 C96 613 167 665 256 620 C337 660 421 608 512 662 V768 H0Z" fill="#7a5200" opacity=".15"/>
  <ellipse cx="256" cy="662" rx="150" ry="34" fill="#7a5200" opacity=".28"/>
  <g transform="translate(0 122)">
    <path d="M159.65 347.4 C69.45000000000002 322.8 92 222.35000000000002 165.8 263.35" stroke="#f9c80e" stroke-width="28.699999999999996" fill="none" stroke-linecap="round" opacity=".76"/><ellipse cx="256" cy="353.55" rx="108.64999999999999" ry="102.49999999999999" fill="url(#body)" filter="url(#softShadow)"/><path d="M184.25 212.10000000000002 L137.10000000000002 115.75000000000003 L231.4 175.20000000000002 Z" fill="#f9c80e"/><path d="M327.75 212.10000000000002 L374.9 115.75000000000003 L280.6 175.20000000000002 Z" fill="#f9c80e"/><circle cx="256" cy="234.65" r="92.24999999999999" fill="url(#head)"/><ellipse cx="221.15" cy="251.05" rx="16.4" ry="20.5" fill="#182033"/><ellipse cx="290.85" cy="251.05" rx="16.4" ry="20.5" fill="#182033"/><ellipse cx="223.2" cy="253.1" rx="14.349999999999998" ry="16.4" fill="#14213d"/><ellipse cx="288.8" cy="253.1" rx="14.349999999999998" ry="16.4" fill="#14213d"/><circle cx="229.35" cy="244.9" r="4.714999999999999" fill="#fff"/><circle cx="294.95" cy="244.9" r="4.714999999999999" fill="#fff"/><path d="M215 201.85000000000002 Q256 224.4 297 201.85000000000002" stroke="#fff27a" stroke-width="10.25" fill="none" stroke-linecap="round" opacity=".8"/>
  </g>
  <path d="M74 126 C170 65 334 65 438 126" stroke="#fff" stroke-width="16" stroke-linecap="round" opacity=".16"/>
  <path d="M63 676 C162 718 344 718 449 662" stroke="#fff" stroke-width="14" stroke-linecap="round" opacity=".16"/>
</svg>