<svg xmlns="http://www.w3.org/2000/svg" viewBox="0 0 512 768" role="img" aria-label="电磁章鱼 original portrait">
  
  <defs>
    <linearGradient id="bgp561" x1="0" y1="0" x2="1" y2="1">
      <stop offset="0" stop-color="#fff27a"/>
      <stop offset=".55" stop-color="#f9c80e"/>
      <stop offset="1" stop-color="#7a5200"/>
    </linearGradient>
    <radialGradient id="body" cx=".36" cy=".25" r=".76">
      <stop offset="0" stop-color="#fff27a"/>
      <stop offset=".6" stop-color="#f9c80e"/>
      <stop offset="1" stop-color="#7a5200"/>
    </radialGradient>
    <radialGradient id="head" cx=".36" cy=".26" r=".72">
      <stop offset="0" stop-color="#ffffff" stop-opacity=".85"/>
      <stop offset=".2" stop-color="#fff27a"/>
      <stop offset=".72" stop-color="#f9c80e"/>
      <stop offset="1" stop-color="#7a5200"/>
    </radialGradient>
    <filter id="softShadow" x="-30%" y="-30%" width="160%" height="160%">
      <feDropShadow dx="0" dy="8" stdDeviation="8" flood-color="#7a5200" flood-opacity=".35"/>
    </filter>
  </defs>
  <rect width="512" height="768" rx="48" fill="url(#bgp561)"/>
  <rect x="24" y="24" width="464" height="720" rx="40" fill="#ffffff" opacity=".08"/>
  <g opacity=".42"><circle cx="304" cy="601" r="2.3" fill="#fff" opacity="0.26"/><circle cx="491" cy="159" r="0.9" fill="#fff" opacity="0.57"/><circle cx="408" cy="291" r="1.8" fill="#fff" opacity="0.27"/><circle cx="507" cy="720" r="2.5" fill="#fff" opacity="0.41"/><circle cx="186" cy="316" r="0.9" fill="#fff" opacity="0.37"/><circle cx="215" cy="673" r="2.2" fill="#fff" opacity="0.35"/><circle cx="75" cy="765" r="3.0" fill="#fff" opacity="0.39"/><circle cx="255" cy="263" r="2.1" fill="#fff" opacity="0.42"/><circle cx="25" cy="234" r="0.8" fill="#fff" opacity="0.40"/><circle cx="148" cy="470" r="2.5" fill="#fff" opacity="0.58"/><circle cx="242" cy="317" r="3.0" fill="#fff" opacity="0.52"/><circle cx="105" cy="59" r="3.0" fill="#fff" opacity="0.52"/><circle cx="358" cy="233" r="2.7" fill="#fff" opacity="0.30"/><circle cx="205" cy="64" r="1.7" fill="#fff" opacity="0.53"/><circle cx="283" cy="353" r="3.1" fill="#fff" opacity="0.47"/><circle cx="153" cy="380" r="2.2" fill="#fff" opacity="0.47"/><circle cx="6" cy="33" r="2.4" fill="#fff" opacity="0.51"/><circle cx="360" cy="392" r="0.9" fill="#fff" opacity="0.31"/><circle cx="434" cy="324" r="2.0" fill="#fff" opacity="0.29"/><circle cx="89" cy="443" r="1.7" fill="#fff" opacity="0.69"/><circle cx="110" cy="222" r="1.7" fill="#fff" opacity="0.63"/><circle cx="85" cy="586" r="2.3" fill="#fff" opacity="0.26"/><circle cx="467" cy="539" r="1.3" fill="#fff" opacity="0.45"/><circle cx="178" cy="703" r="2.9" fill="#fff" opacity="0.47"/><circle cx="466" cy="624" r="1.7" fill="#fff" opacity="0.34"/><circle cx="377" cy="417" r="2.1" fill="#fff" opacity="0.56"/><circle cx="254" cy="100" r="3.1" fill="#fff" opacity="0.54"/><circle cx="112" cy="201" r="2.2" fill="#fff" opacity="0.49"/></g>
  <path d="M0 585 C86 541 164 618 248 574 C338 526 407 595 512 548 V768 H0Z" fill="#f9c80e" opacity=".2"/><path d="M0 650 C105 610 180 690 282 638 C370 594 426 650 512 618 V768 H0Z" fill="#fff27a" opacity=".18"/>
  <ellipse cx="256" cy="662" rx="150" ry="34" fill="#7a5200" opacity=".28"/>
  <g transform="translate(0 122)">
    <path d="M110.45000000000002 326.9 L40.75000000000003 240.8 L44.85000000000002 413 Z" fill="#f9c80e" opacity=".86"/><ellipse cx="247.8" cy="322.8" rx="139.39999999999998" ry="88.14999999999999" fill="url(#body)" filter="url(#softShadow)"/><path d="M243.7 242.85 C288.8 136.25 358.5 173.15 342.1 263.35" fill="#f9c80e" opacity=".72"/><path d="M301.1 384.3 C338 458.1 411.79999999999995 413 362.6 359.7" fill="#fff27a" opacity=".8"/><circle cx="329.8" cy="292.05" r="14.349999999999998" fill="#101828"/><circle cx="335.95" cy="285.9" r="4.714999999999999" fill="#fff"/><path d="M215 201.85000000000002 Q256 224.4 297 201.85000000000002" stroke="#fff27a" stroke-width="10.25" fill="none" stroke-linecap="round" opacity=".8"/>
  </g>
  <path d="M74 126 C170 65 334 65 438 126" stroke="#fff" stroke-width="16" stroke-linecap="round" opacity=".16"/>
  <path d="M63 676 C162 718 344 718 449 662" stroke="#fff" stroke-width="14" stroke-linecap="round" opacity=".16"/>
</svg>