<svg xmlns="http://www.w3.org/2000/svg" viewBox="0 0 512 768" role="img" aria-label="冰晶兔 original portrait">
  
  <defs>
    <linearGradient id="bgp564" x1="0" y1="0" x2="1" y2="1">
      <stop offset="0" stop-color="#d7fbff"/>
      <stop offset=".55" stop-color="#71d6e8"/>
      <stop offset="1" stop-color="#318aa3"/>
    </linearGradient>
    <radialGradient id="body" cx=".36" cy=".25" r=".76">
      <stop offset="0" stop-color="#d7fbff"/>
      <stop offset=".6" stop-color="#71d6e8"/>
      <stop offset="1" stop-color="#318aa3"/>
    </radialGradient>
    <radialGradient id="head" cx=".36" cy=".26" r=".72">
      <stop offset="0" stop-color="#ffffff" stop-opacity=".85"/>
      <stop offset=".2" stop-color="#d7fbff"/>
      <stop offset=".72" stop-color="#71d6e8"/>
      <stop offset="1" stop-color="#318aa3"/>
    </radialGradient>
    <filter id="softShadow" x="-30%" y="-30%" width="160%" height="160%">
      <feDropShadow dx="0" dy="8" stdDeviation="8" flood-color="#318aa3" flood-opacity=".35"/>
    </filter>
  </defs>
  <rect width="512" height="768" rx="48" fill="url(#bgp564)"/>
  <rect x="24" y="24" width="464" height="720" rx="40" fill="#ffffff" opacity=".08"/>
  <g opacity=".42"><circle cx="215" cy="667" r="3.1" fill="#fff" opacity="0.67"/><circle cx="422" cy="639" r="2.4" fill="#fff" opacity="0.52"/><circle cx="38" cy="233" r="0.9" fill="#fff" opacity="0.64"/><circle cx="449" cy="662" r="1.3" fill="#fff" opacity="0.65"/><circle cx="426" cy="635" r="1.0" fill="#fff" opacity="0.61"/><circle cx="275" cy="196" r="1.1" fill="#fff" opacity="0.68"/><circle cx="372" cy="694" r="3.1" fill="#fff" opacity="0.54"/><circle cx="321" cy="297" r="2.2" fill="#fff" opacity="0.36"/><circle cx="478" cy="723" r="1.4" fill="#fff" opacity="0.56"/><circle cx="67" cy="536" r="2.6" fill="#fff" opacity="0.52"/><circle cx="256" cy="663" r="1.9" fill="#fff" opacity="0.42"/><circle cx="170" cy="625" r="1.6" fill="#fff" opacity="0.33"/><circle cx="131" cy="568" r="0.9" fill="#fff" opacity="0.61"/><circle cx="167" cy="463" r="2.7" fill="#fff" opacity="0.50"/><circle cx="329" cy="356" r="1.7" fill="#fff" opacity="0.60"/><circle cx="16" cy="442" r="2.8" fill="#fff" opacity="0.64"/><circle cx="343" cy="279" r="2.8" fill="#fff" opacity="0.67"/><circle cx="316" cy="584" r="1.4" fill="#fff" opacity="0.28"/><circle cx="228" cy="503" r="2.3" fill="#fff" opacity="0.31"/><circle cx="273" cy="131" r="1.4" fill="#fff" opacity="0.38"/><circle cx="177" cy="365" r="1.9" fill="#fff" opacity="0.62"/><circle cx="273" cy="146" r="2.8" fill="#fff" opacity="0.26"/><circle cx="102" cy="767" r="1.5" fill="#fff" opacity="0.54"/><circle cx="378" cy="307" r="2.0" fill="#fff" opacity="0.66"/><circle cx="240" cy="547" r="2.8" fill="#fff" opacity="0.45"/><circle cx="118" cy="223" r="1.6" fill="#fff" opacity="0.69"/><circle cx="437" cy="520" r="2.2" fill="#fff" opacity="0.65"/><circle cx="71" cy="374" r="3.0" fill="#fff" opacity="0.52"/></g>
  <path d="M24 680 L110 610 L186 666 L272 592 L356 674 L445 626 L512 704 V768 H0V704Z" fill="#318aa3" opacity=".18"/>
  <ellipse cx="256" cy="662" rx="150" ry="34" fill="#318aa3" opacity=".28"/>
  <g transform="translate(0 122)">
    <path d="M149.4 228.5 L219.1 156.75 H311.35 L376.95 242.85 L346.2 394.55 H163.75 Z" fill="url(#body)" filter="url(#softShadow)"/><path d="M198.60000000000002 179.3 L245.75 91.15 L280.6 171.10000000000002 Z" fill="#d7fbff"/><path d="M290.85 183.4 L344.15 113.70000000000002 L342.1 210.05 Z" fill="#71d6e8"/><rect x="194.5" y="277.7" width="122.99999999999999" height="30.749999999999996" rx="14.349999999999998" fill="#318aa3" opacity=".38"/><circle cx="227.3" cy="292.05" r="10.25" fill="#d7fbff"/><circle cx="284.7" cy="292.05" r="10.25" fill="#d7fbff"/><path d="M256 183.4 L278.55 212.10000000000002 L256 242.85 L233.45 212.10000000000002 Z" fill="#d7fbff" opacity=".92"/>
  </g>
  <path d="M74 126 C170 65 334 65 438 126" stroke="#fff" stroke-width="16" stroke-linecap="round" opacity=".16"/>
  <path d="M63 676 C162 718 344 718 449 662" stroke="#fff" stroke-width="14" stroke-linecap="round" opacity=".16"/>
</svg>