<svg xmlns="http://www.w3.org/2000/svg" viewBox="0 0 512 768" role="img" aria-label="雪花精灵 original portrait">
  
  <defs>
    <linearGradient id="bgp566" x1="0" y1="0" x2="1" y2="1">
      <stop offset="0" stop-color="#d7fbff"/>
      <stop offset=".55" stop-color="#71d6e8"/>
      <stop offset="1" stop-color="#318aa3"/>
    </linearGradient>
    <radialGradient id="body" cx=".36" cy=".25" r=".76">
      <stop offset="0" stop-color="#d7fbff"/>
      <stop offset=".6" stop-color="#71d6e8"/>
      <stop offset="1" stop-color="#318aa3"/>
    </radialGradient>
    <radialGradient id="head" cx=".36" cy=".26" r=".72">
      <stop offset="0" stop-color="#ffffff" stop-opacity=".85"/>
      <stop offset=".2" stop-color="#d7fbff"/>
      <stop offset=".72" stop-color="#71d6e8"/>
      <stop offset="1" stop-color="#318aa3"/>
    </radialGradient>
    <filter id="softShadow" x="-30%" y="-30%" width="160%" height="160%">
      <feDropShadow dx="0" dy="8" stdDeviation="8" flood-color="#318aa3" flood-opacity=".35"/>
    </filter>
  </defs>
  <rect width="512" height="768" rx="48" fill="url(#bgp566)"/>
  <rect x="24" y="24" width="464" height="720" rx="40" fill="#ffffff" opacity=".08"/>
  <g opacity=".42"><circle cx="256" cy="12" r="1.5" fill="#fff" opacity="0.32"/><circle cx="141" cy="596" r="0.9" fill="#fff" opacity="0.65"/><circle cx="404" cy="427" r="2.9" fill="#fff" opacity="0.34"/><circle cx="19" cy="393" r="2.2" fill="#fff" opacity="0.42"/><circle cx="478" cy="166" r="1.3" fill="#fff" opacity="0.26"/><circle cx="28" cy="544" r="1.6" fill="#fff" opacity="0.41"/><circle cx="463" cy="8" r="1.6" fill="#fff" opacity="0.55"/><circle cx="401" cy="608" r="3.0" fill="#fff" opacity="0.53"/><circle cx="288" cy="564" r="2.8" fill="#fff" opacity="0.31"/><circle cx="164" cy="761" r="2.4" fill="#fff" opacity="0.58"/><circle cx="247" cy="333" r="2.2" fill="#fff" opacity="0.32"/><circle cx="231" cy="719" r="1.9" fill="#fff" opacity="0.46"/><circle cx="469" cy="724" r="2.5" fill="#fff" opacity="0.48"/><circle cx="285" cy="19" r="2.8" fill="#fff" opacity="0.34"/><circle cx="269" cy="419" r="1.7" fill="#fff" opacity="0.29"/><circle cx="253" cy="478" r="1.5" fill="#fff" opacity="0.63"/><circle cx="367" cy="338" r="2.7" fill="#fff" opacity="0.30"/><circle cx="340" cy="72" r="3.1" fill="#fff" opacity="0.36"/><circle cx="44" cy="717" r="1.6" fill="#fff" opacity="0.34"/><circle cx="39" cy="358" r="1.2" fill="#fff" opacity="0.56"/><circle cx="354" cy="561" r="0.9" fill="#fff" opacity="0.28"/><circle cx="414" cy="159" r="2.1" fill="#fff" opacity="0.45"/><circle cx="159" cy="294" r="1.3" fill="#fff" opacity="0.49"/><circle cx="165" cy="435" r="1.0" fill="#fff" opacity="0.52"/><circle cx="216" cy="511" r="3.2" fill="#fff" opacity="0.70"/><circle cx="385" cy="741" r="1.7" fill="#fff" opacity="0.44"/><circle cx="125" cy="730" r="2.4" fill="#fff" opacity="0.27"/><circle cx="194" cy="269" r="3.2" fill="#fff" opacity="0.59"/></g>
  <path d="M18 704 C124 595 205 659 256 580 C314 666 392 596 494 704 V768 H18Z" fill="#318aa3" opacity=".18"/>
  <ellipse cx="256" cy="662" rx="150" ry="34" fill="#318aa3" opacity=".28"/>
  <g transform="translate(0 122)">
    <path d="M231.4 400.7 C128.9 376.1 83.80000000000001 265.4 198.60000000000002 275.65" fill="#71d6e8" opacity=".82"/><path d="M280.6 400.7 C383.1 376.1 428.2 265.4 313.4 275.65" fill="#71d6e8" opacity=".82"/><ellipse cx="256" cy="339.2" rx="98.39999999999999" ry="116.85" fill="url(#body)" filter="url(#softShadow)"/><path d="M256 138.3 C169.9 175.20000000000002 161.7 259.25 256 251.05 C350.3 259.25 342.1 175.20000000000002 256 138.3Z" fill="#d7fbff"/><circle cx="256" cy="253.1" r="77.89999999999999" fill="url(#head)"/><ellipse cx="223.2" cy="253.1" rx="14.349999999999998" ry="16.4" fill="#14213d"/><ellipse cx="288.8" cy="253.1" rx="14.349999999999998" ry="16.4" fill="#14213d"/><circle cx="229.35" cy="244.9" r="4.714999999999999" fill="#fff"/><circle cx="294.95" cy="244.9" r="4.714999999999999" fill="#fff"/><circle cx="256" cy="210.05" r="14.349999999999998" fill="#d7fbff" opacity=".9"/>
  </g>
  <path d="M74 126 C170 65 334 65 438 126" stroke="#fff" stroke-width="16" stroke-linecap="round" opacity=".16"/>
  <path d="M63 676 C162 718 344 718 449 662" stroke="#fff" stroke-width="14" stroke-linecap="round" opacity=".16"/>
</svg>