<svg xmlns="http://www.w3.org/2000/svg" viewBox="0 0 512 768" role="img" aria-label="冰川巨人 original portrait">
  
  <defs>
    <linearGradient id="bgp567" x1="0" y1="0" x2="1" y2="1">
      <stop offset="0" stop-color="#d7fbff"/>
      <stop offset=".55" stop-color="#71d6e8"/>
      <stop offset="1" stop-color="#318aa3"/>
    </linearGradient>
    <radialGradient id="body" cx=".36" cy=".25" r=".76">
      <stop offset="0" stop-color="#d7fbff"/>
      <stop offset=".6" stop-color="#71d6e8"/>
      <stop offset="1" stop-color="#318aa3"/>
    </radialGradient>
    <radialGradient id="head" cx=".36" cy=".26" r=".72">
      <stop offset="0" stop-color="#ffffff" stop-opacity=".85"/>
      <stop offset=".2" stop-color="#d7fbff"/>
      <stop offset=".72" stop-color="#71d6e8"/>
      <stop offset="1" stop-color="#318aa3"/>
    </radialGradient>
    <filter id="softShadow" x="-30%" y="-30%" width="160%" height="160%">
      <feDropShadow dx="0" dy="8" stdDeviation="8" flood-color="#318aa3" flood-opacity=".35"/>
    </filter>
  </defs>
  <rect width="512" height="768" rx="48" fill="url(#bgp567)"/>
  <rect x="24" y="24" width="464" height="720" rx="40" fill="#ffffff" opacity=".08"/>
  <g opacity=".42"><circle cx="9" cy="279" r="1.5" fill="#fff" opacity="0.33"/><circle cx="281" cy="124" r="2.6" fill="#fff" opacity="0.51"/><circle cx="320" cy="703" r="1.5" fill="#fff" opacity="0.68"/><circle cx="417" cy="430" r="1.9" fill="#fff" opacity="0.58"/><circle cx="10" cy="455" r="2.5" fill="#fff" opacity="0.63"/><circle cx="457" cy="728" r="1.9" fill="#fff" opacity="0.28"/><circle cx="466" cy="399" r="1.7" fill="#fff" opacity="0.53"/><circle cx="209" cy="601" r="1.4" fill="#fff" opacity="0.29"/><circle cx="71" cy="77" r="3.0" fill="#fff" opacity="0.70"/><circle cx="167" cy="47" r="2.0" fill="#fff" opacity="0.56"/><circle cx="44" cy="703" r="1.5" fill="#fff" opacity="0.47"/><circle cx="488" cy="447" r="2.6" fill="#fff" opacity="0.40"/><circle cx="402" cy="627" r="2.6" fill="#fff" opacity="0.27"/><circle cx="250" cy="19" r="1.3" fill="#fff" opacity="0.25"/><circle cx="334" cy="635" r="1.0" fill="#fff" opacity="0.45"/><circle cx="375" cy="466" r="2.3" fill="#fff" opacity="0.42"/><circle cx="342" cy="531" r="1.6" fill="#fff" opacity="0.57"/><circle cx="264" cy="279" r="1.9" fill="#fff" opacity="0.60"/><circle cx="386" cy="715" r="2.5" fill="#fff" opacity="0.52"/><circle cx="497" cy="190" r="2.4" fill="#fff" opacity="0.43"/><circle cx="155" cy="197" r="1.9" fill="#fff" opacity="0.64"/><circle cx="32" cy="374" r="1.8" fill="#fff" opacity="0.56"/><circle cx="81" cy="445" r="1.5" fill="#fff" opacity="0.26"/><circle cx="272" cy="56" r="2.4" fill="#fff" opacity="0.67"/><circle cx="475" cy="508" r="2.0" fill="#fff" opacity="0.31"/><circle cx="363" cy="736" r="3.0" fill="#fff" opacity="0.28"/><circle cx="190" cy="637" r="1.7" fill="#fff" opacity="0.64"/><circle cx="156" cy="115" r="2.5" fill="#fff" opacity="0.38"/></g>
  <path d="M0 585 C86 541 164 618 248 574 C338 526 407 595 512 548 V768 H0Z" fill="#71d6e8" opacity=".2"/><path d="M0 650 C105 610 180 690 282 638 C370 594 426 650 512 618 V768 H0Z" fill="#d7fbff" opacity=".18"/>
  <ellipse cx="256" cy="662" rx="150" ry="34" fill="#318aa3" opacity=".28"/>
  <g transform="translate(0 122)">
    <path d="M110.45000000000002 326.9 L40.75000000000003 240.8 L44.85000000000002 413 Z" fill="#71d6e8" opacity=".86"/><ellipse cx="247.8" cy="322.8" rx="139.39999999999998" ry="88.14999999999999" fill="url(#body)" filter="url(#softShadow)"/><path d="M243.7 242.85 C288.8 136.25 358.5 173.15 342.1 263.35" fill="#71d6e8" opacity=".72"/><path d="M301.1 384.3 C338 458.1 411.79999999999995 413 362.6 359.7" fill="#d7fbff" opacity=".8"/><circle cx="329.8" cy="292.05" r="14.349999999999998" fill="#101828"/><circle cx="335.95" cy="285.9" r="4.714999999999999" fill="#fff"/><path d="M256 183.4 L278.55 212.10000000000002 L256 242.85 L233.45 212.10000000000002 Z" fill="#d7fbff" opacity=".92"/>
  </g>
  <path d="M74 126 C170 65 334 65 438 126" stroke="#fff" stroke-width="16" stroke-linecap="round" opacity=".16"/>
  <path d="M63 676 C162 718 344 718 449 662" stroke="#fff" stroke-width="14" stroke-linecap="round" opacity=".16"/>
</svg>