<svg xmlns="http://www.w3.org/2000/svg" viewBox="0 0 512 768" role="img" aria-label="寒霜狐 original portrait">
  
  <defs>
    <linearGradient id="bgp568" x1="0" y1="0" x2="1" y2="1">
      <stop offset="0" stop-color="#d7fbff"/>
      <stop offset=".55" stop-color="#71d6e8"/>
      <stop offset="1" stop-color="#318aa3"/>
    </linearGradient>
    <radialGradient id="body" cx=".36" cy=".25" r=".76">
      <stop offset="0" stop-color="#d7fbff"/>
      <stop offset=".6" stop-color="#71d6e8"/>
      <stop offset="1" stop-color="#318aa3"/>
    </radialGradient>
    <radialGradient id="head" cx=".36" cy=".26" r=".72">
      <stop offset="0" stop-color="#ffffff" stop-opacity=".85"/>
      <stop offset=".2" stop-color="#d7fbff"/>
      <stop offset=".72" stop-color="#71d6e8"/>
      <stop offset="1" stop-color="#318aa3"/>
    </radialGradient>
    <filter id="softShadow" x="-30%" y="-30%" width="160%" height="160%">
      <feDropShadow dx="0" dy="8" stdDeviation="8" flood-color="#318aa3" flood-opacity=".35"/>
    </filter>
  </defs>
  <rect width="512" height="768" rx="48" fill="url(#bgp568)"/>
  <rect x="24" y="24" width="464" height="720" rx="40" fill="#ffffff" opacity=".08"/>
  <g opacity=".42"><circle cx="378" cy="375" r="2.4" fill="#fff" opacity="0.49"/><circle cx="337" cy="120" r="1.5" fill="#fff" opacity="0.33"/><circle cx="281" cy="235" r="2.1" fill="#fff" opacity="0.47"/><circle cx="315" cy="168" r="1.6" fill="#fff" opacity="0.66"/><circle cx="366" cy="72" r="2.5" fill="#fff" opacity="0.27"/><circle cx="488" cy="438" r="2.3" fill="#fff" opacity="0.60"/><circle cx="116" cy="756" r="1.6" fill="#fff" opacity="0.60"/><circle cx="405" cy="316" r="2.5" fill="#fff" opacity="0.40"/><circle cx="184" cy="540" r="2.4" fill="#fff" opacity="0.43"/><circle cx="488" cy="433" r="2.9" fill="#fff" opacity="0.35"/><circle cx="180" cy="685" r="2.1" fill="#fff" opacity="0.28"/><circle cx="22" cy="230" r="2.6" fill="#fff" opacity="0.27"/><circle cx="51" cy="68" r="2.6" fill="#fff" opacity="0.53"/><circle cx="498" cy="649" r="2.8" fill="#fff" opacity="0.64"/><circle cx="122" cy="383" r="1.8" fill="#fff" opacity="0.28"/><circle cx="417" cy="470" r="2.0" fill="#fff" opacity="0.58"/><circle cx="177" cy="352" r="1.0" fill="#fff" opacity="0.38"/><circle cx="88" cy="629" r="2.8" fill="#fff" opacity="0.26"/><circle cx="268" cy="473" r="1.1" fill="#fff" opacity="0.51"/><circle cx="385" cy="581" r="2.9" fill="#fff" opacity="0.25"/><circle cx="436" cy="583" r="2.5" fill="#fff" opacity="0.52"/><circle cx="57" cy="95" r="2.9" fill="#fff" opacity="0.38"/><circle cx="132" cy="616" r="3.0" fill="#fff" opacity="0.31"/><circle cx="213" cy="373" r="2.5" fill="#fff" opacity="0.63"/><circle cx="423" cy="289" r="2.8" fill="#fff" opacity="0.56"/><circle cx="181" cy="128" r="2.1" fill="#fff" opacity="0.47"/><circle cx="126" cy="297" r="2.1" fill="#fff" opacity="0.52"/><circle cx="31" cy="564" r="1.2" fill="#fff" opacity="0.68"/></g>
  <path d="M0 670 C96 613 167 665 256 620 C337 660 421 608 512 662 V768 H0Z" fill="#318aa3" opacity=".15"/>
  <ellipse cx="256" cy="662" rx="150" ry="34" fill="#318aa3" opacity=".28"/>
  <g transform="translate(0 122)">
    <path d="M352.35 347.4 C442.54999999999995 322.8 420 222.35000000000002 346.2 263.35" stroke="#71d6e8" stroke-width="28.699999999999996" fill="none" stroke-linecap="round" opacity=".76"/><ellipse cx="256" cy="353.55" rx="108.64999999999999" ry="102.49999999999999" fill="url(#body)" filter="url(#softShadow)"/><path d="M184.25 212.10000000000002 L137.10000000000002 115.75000000000003 L231.4 175.20000000000002 Z" fill="#71d6e8"/><path d="M327.75 212.10000000000002 L374.9 115.75000000000003 L280.6 175.20000000000002 Z" fill="#71d6e8"/><circle cx="256" cy="234.65" r="92.24999999999999" fill="url(#head)"/><ellipse cx="221.15" cy="251.05" rx="16.4" ry="20.5" fill="#182033"/><ellipse cx="290.85" cy="251.05" rx="16.4" ry="20.5" fill="#182033"/><ellipse cx="223.2" cy="253.1" rx="14.349999999999998" ry="16.4" fill="#14213d"/><ellipse cx="288.8" cy="253.1" rx="14.349999999999998" ry="16.4" fill="#14213d"/><circle cx="229.35" cy="244.9" r="4.714999999999999" fill="#fff"/><circle cx="294.95" cy="244.9" r="4.714999999999999" fill="#fff"/><circle cx="256" cy="210.05" r="14.349999999999998" fill="#d7fbff" opacity=".9"/>
  </g>
  <path d="M74 126 C170 65 334 65 438 126" stroke="#fff" stroke-width="16" stroke-linecap="round" opacity=".16"/>
  <path d="M63 676 C162 718 344 718 449 662" stroke="#fff" stroke-width="14" stroke-linecap="round" opacity=".16"/>
</svg>