<svg xmlns="http://www.w3.org/2000/svg" viewBox="0 0 512 768" role="img" aria-label="拳击猴 original portrait">
  
  <defs>
    <linearGradient id="bgp569" x1="0" y1="0" x2="1" y2="1">
      <stop offset="0" stop-color="#ffc0a6"/>
      <stop offset=".55" stop-color="#d95f3d"/>
      <stop offset="1" stop-color="#7a271d"/>
    </linearGradient>
    <radialGradient id="body" cx=".36" cy=".25" r=".76">
      <stop offset="0" stop-color="#ffc0a6"/>
      <stop offset=".6" stop-color="#d95f3d"/>
      <stop offset="1" stop-color="#7a271d"/>
    </radialGradient>
    <radialGradient id="head" cx=".36" cy=".26" r=".72">
      <stop offset="0" stop-color="#ffffff" stop-opacity=".85"/>
      <stop offset=".2" stop-color="#ffc0a6"/>
      <stop offset=".72" stop-color="#d95f3d"/>
      <stop offset="1" stop-color="#7a271d"/>
    </radialGradient>
    <filter id="softShadow" x="-30%" y="-30%" width="160%" height="160%">
      <feDropShadow dx="0" dy="8" stdDeviation="8" flood-color="#7a271d" flood-opacity=".35"/>
    </filter>
  </defs>
  <rect width="512" height="768" rx="48" fill="url(#bgp569)"/>
  <rect x="24" y="24" width="464" height="720" rx="40" fill="#ffffff" opacity=".08"/>
  <g opacity=".42"><circle cx="92" cy="706" r="3.1" fill="#fff" opacity="0.48"/><circle cx="451" cy="214" r="1.9" fill="#fff" opacity="0.42"/><circle cx="34" cy="625" r="0.9" fill="#fff" opacity="0.47"/><circle cx="220" cy="585" r="2.6" fill="#fff" opacity="0.30"/><circle cx="342" cy="497" r="2.5" fill="#fff" opacity="0.54"/><circle cx="210" cy="712" r="2.5" fill="#fff" opacity="0.60"/><circle cx="286" cy="471" r="2.4" fill="#fff" opacity="0.41"/><circle cx="20" cy="156" r="0.9" fill="#fff" opacity="0.42"/><circle cx="92" cy="211" r="2.7" fill="#fff" opacity="0.58"/><circle cx="368" cy="749" r="1.6" fill="#fff" opacity="0.26"/><circle cx="138" cy="329" r="1.5" fill="#fff" opacity="0.31"/><circle cx="469" cy="619" r="2.6" fill="#fff" opacity="0.58"/><circle cx="82" cy="648" r="1.7" fill="#fff" opacity="0.52"/><circle cx="62" cy="544" r="2.2" fill="#fff" opacity="0.26"/><circle cx="207" cy="259" r="2.1" fill="#fff" opacity="0.54"/><circle cx="307" cy="661" r="2.1" fill="#fff" opacity="0.39"/><circle cx="171" cy="261" r="0.9" fill="#fff" opacity="0.29"/><circle cx="475" cy="269" r="0.9" fill="#fff" opacity="0.31"/><circle cx="307" cy="6" r="2.2" fill="#fff" opacity="0.39"/><circle cx="92" cy="573" r="3.1" fill="#fff" opacity="0.38"/><circle cx="134" cy="353" r="1.6" fill="#fff" opacity="0.42"/><circle cx="278" cy="134" r="1.8" fill="#fff" opacity="0.64"/><circle cx="183" cy="384" r="1.9" fill="#fff" opacity="0.44"/><circle cx="154" cy="402" r="1.5" fill="#fff" opacity="0.50"/><circle cx="412" cy="406" r="2.0" fill="#fff" opacity="0.39"/><circle cx="49" cy="147" r="2.9" fill="#fff" opacity="0.39"/><circle cx="12" cy="355" r="0.9" fill="#fff" opacity="0.56"/><circle cx="458" cy="622" r="2.2" fill="#fff" opacity="0.61"/></g>
  <path d="M38 684 C128 596 386 596 475 684 V768 H38Z" fill="#7a271d" opacity=".17"/>
  <ellipse cx="256" cy="662" rx="150" ry="34" fill="#7a271d" opacity=".28"/>
  <g transform="translate(0 122)">
    <ellipse cx="256" cy="359.7" rx="110.69999999999999" ry="100.44999999999999" fill="url(#body)" filter="url(#softShadow)"/><circle cx="256" cy="232.60000000000002" r="86.1" fill="url(#head)"/><path d="M149.4 322.8 C51.00000000000003 304.35 85.85000000000002 423.25 165.8 402.75" fill="#7a271d"/><path d="M362.6 322.8 C461 304.35 426.15 423.25 346.2 402.75" fill="#7a271d"/><path d="M200.65 148.55 H311.35 L331.85 195.7 Q256 224.4 180.15 195.7 Z" fill="#ffc0a6" opacity=".85"/><ellipse cx="223.2" cy="253.1" rx="14.349999999999998" ry="16.4" fill="#14213d"/><ellipse cx="288.8" cy="253.1" rx="14.349999999999998" ry="16.4" fill="#14213d"/><circle cx="229.35" cy="244.9" r="4.714999999999999" fill="#fff"/><circle cx="294.95" cy="244.9" r="4.714999999999999" fill="#fff"/><path d="M215 201.85000000000002 Q256 224.4 297 201.85000000000002" stroke="#ffc0a6" stroke-width="10.25" fill="none" stroke-linecap="round" opacity=".8"/>
  </g>
  <path d="M74 126 C170 65 334 65 438 126" stroke="#fff" stroke-width="16" stroke-linecap="round" opacity=".16"/>
  <path d="M63 676 C162 718 344 718 449 662" stroke="#fff" stroke-width="14" stroke-linecap="round" opacity=".16"/>
</svg>