<svg xmlns="http://www.w3.org/2000/svg" viewBox="0 0 512 768" role="img" aria-label="武道家 original portrait">
  
  <defs>
    <linearGradient id="bgp571" x1="0" y1="0" x2="1" y2="1">
      <stop offset="0" stop-color="#ffc0a6"/>
      <stop offset=".55" stop-color="#d95f3d"/>
      <stop offset="1" stop-color="#7a271d"/>
    </linearGradient>
    <radialGradient id="body" cx=".36" cy=".25" r=".76">
      <stop offset="0" stop-color="#ffc0a6"/>
      <stop offset=".6" stop-color="#d95f3d"/>
      <stop offset="1" stop-color="#7a271d"/>
    </radialGradient>
    <radialGradient id="head" cx=".36" cy=".26" r=".72">
      <stop offset="0" stop-color="#ffffff" stop-opacity=".85"/>
      <stop offset=".2" stop-color="#ffc0a6"/>
      <stop offset=".72" stop-color="#d95f3d"/>
      <stop offset="1" stop-color="#7a271d"/>
    </radialGradient>
    <filter id="softShadow" x="-30%" y="-30%" width="160%" height="160%">
      <feDropShadow dx="0" dy="8" stdDeviation="8" flood-color="#7a271d" flood-opacity=".35"/>
    </filter>
  </defs>
  <rect width="512" height="768" rx="48" fill="url(#bgp571)"/>
  <rect x="24" y="24" width="464" height="720" rx="40" fill="#ffffff" opacity=".08"/>
  <g opacity=".42"><circle cx="508" cy="50" r="2.6" fill="#fff" opacity="0.65"/><circle cx="506" cy="348" r="1.3" fill="#fff" opacity="0.56"/><circle cx="191" cy="399" r="2.0" fill="#fff" opacity="0.60"/><circle cx="117" cy="348" r="1.9" fill="#fff" opacity="0.55"/><circle cx="236" cy="281" r="1.0" fill="#fff" opacity="0.33"/><circle cx="106" cy="454" r="3.1" fill="#fff" opacity="0.40"/><circle cx="50" cy="415" r="3.1" fill="#fff" opacity="0.58"/><circle cx="492" cy="454" r="3.1" fill="#fff" opacity="0.59"/><circle cx="302" cy="698" r="1.0" fill="#fff" opacity="0.32"/><circle cx="367" cy="524" r="1.6" fill="#fff" opacity="0.55"/><circle cx="208" cy="658" r="2.9" fill="#fff" opacity="0.64"/><circle cx="398" cy="250" r="1.0" fill="#fff" opacity="0.43"/><circle cx="189" cy="533" r="0.9" fill="#fff" opacity="0.36"/><circle cx="198" cy="321" r="2.7" fill="#fff" opacity="0.60"/><circle cx="86" cy="212" r="2.2" fill="#fff" opacity="0.35"/><circle cx="461" cy="541" r="1.9" fill="#fff" opacity="0.38"/><circle cx="197" cy="391" r="3.0" fill="#fff" opacity="0.26"/><circle cx="220" cy="457" r="2.2" fill="#fff" opacity="0.37"/><circle cx="392" cy="59" r="2.7" fill="#fff" opacity="0.51"/><circle cx="328" cy="403" r="2.5" fill="#fff" opacity="0.51"/><circle cx="236" cy="48" r="1.6" fill="#fff" opacity="0.64"/><circle cx="30" cy="308" r="3.2" fill="#fff" opacity="0.50"/><circle cx="108" cy="208" r="1.6" fill="#fff" opacity="0.48"/><circle cx="354" cy="678" r="2.3" fill="#fff" opacity="0.47"/><circle cx="86" cy="618" r="1.9" fill="#fff" opacity="0.70"/><circle cx="13" cy="534" r="1.9" fill="#fff" opacity="0.52"/><circle cx="484" cy="564" r="1.3" fill="#fff" opacity="0.65"/><circle cx="245" cy="529" r="1.8" fill="#fff" opacity="0.40"/></g>
  <path d="M38 684 C128 596 386 596 475 684 V768 H38Z" fill="#7a271d" opacity=".17"/>
  <ellipse cx="256" cy="662" rx="150" ry="34" fill="#7a271d" opacity=".28"/>
  <g transform="translate(0 122)">
    <ellipse cx="256" cy="359.7" rx="110.69999999999999" ry="100.44999999999999" fill="url(#body)" filter="url(#softShadow)"/><circle cx="256" cy="232.60000000000002" r="86.1" fill="url(#head)"/><path d="M149.4 322.8 C51.00000000000003 304.35 85.85000000000002 423.25 165.8 402.75" fill="#7a271d"/><path d="M362.6 322.8 C461 304.35 426.15 423.25 346.2 402.75" fill="#7a271d"/><path d="M200.65 148.55 H311.35 L331.85 195.7 Q256 224.4 180.15 195.7 Z" fill="#ffc0a6" opacity=".85"/><ellipse cx="223.2" cy="253.1" rx="14.349999999999998" ry="16.4" fill="#14213d"/><ellipse cx="288.8" cy="253.1" rx="14.349999999999998" ry="16.4" fill="#14213d"/><circle cx="229.35" cy="244.9" r="4.714999999999999" fill="#fff"/><circle cx="294.95" cy="244.9" r="4.714999999999999" fill="#fff"/><path d="M256 183.4 L278.55 212.10000000000002 L256 242.85 L233.45 212.10000000000002 Z" fill="#ffc0a6" opacity=".92"/>
  </g>
  <path d="M74 126 C170 65 334 65 438 126" stroke="#fff" stroke-width="16" stroke-linecap="round" opacity=".16"/>
  <path d="M63 676 C162 718 344 718 449 662" stroke="#fff" stroke-width="14" stroke-linecap="round" opacity=".16"/>
</svg>