<svg xmlns="http://www.w3.org/2000/svg" viewBox="0 0 512 768" role="img" aria-label="铁拳蟹 original portrait">
  
  <defs>
    <linearGradient id="bgp572" x1="0" y1="0" x2="1" y2="1">
      <stop offset="0" stop-color="#ffc0a6"/>
      <stop offset=".55" stop-color="#d95f3d"/>
      <stop offset="1" stop-color="#7a271d"/>
    </linearGradient>
    <radialGradient id="body" cx=".36" cy=".25" r=".76">
      <stop offset="0" stop-color="#ffc0a6"/>
      <stop offset=".6" stop-color="#d95f3d"/>
      <stop offset="1" stop-color="#7a271d"/>
    </radialGradient>
    <radialGradient id="head" cx=".36" cy=".26" r=".72">
      <stop offset="0" stop-color="#ffffff" stop-opacity=".85"/>
      <stop offset=".2" stop-color="#ffc0a6"/>
      <stop offset=".72" stop-color="#d95f3d"/>
      <stop offset="1" stop-color="#7a271d"/>
    </radialGradient>
    <filter id="softShadow" x="-30%" y="-30%" width="160%" height="160%">
      <feDropShadow dx="0" dy="8" stdDeviation="8" flood-color="#7a271d" flood-opacity=".35"/>
    </filter>
  </defs>
  <rect width="512" height="768" rx="48" fill="url(#bgp572)"/>
  <rect x="24" y="24" width="464" height="720" rx="40" fill="#ffffff" opacity=".08"/>
  <g opacity=".42"><circle cx="274" cy="102" r="1.1" fill="#fff" opacity="0.50"/><circle cx="240" cy="268" r="1.4" fill="#fff" opacity="0.34"/><circle cx="383" cy="750" r="1.3" fill="#fff" opacity="0.66"/><circle cx="156" cy="550" r="3.1" fill="#fff" opacity="0.29"/><circle cx="475" cy="117" r="3.1" fill="#fff" opacity="0.42"/><circle cx="490" cy="345" r="1.3" fill="#fff" opacity="0.63"/><circle cx="305" cy="704" r="3.2" fill="#fff" opacity="0.60"/><circle cx="85" cy="764" r="1.8" fill="#fff" opacity="0.62"/><circle cx="287" cy="167" r="1.7" fill="#fff" opacity="0.64"/><circle cx="22" cy="433" r="2.5" fill="#fff" opacity="0.61"/><circle cx="459" cy="407" r="1.7" fill="#fff" opacity="0.40"/><circle cx="384" cy="485" r="3.2" fill="#fff" opacity="0.32"/><circle cx="61" cy="333" r="2.1" fill="#fff" opacity="0.58"/><circle cx="100" cy="118" r="3.0" fill="#fff" opacity="0.58"/><circle cx="128" cy="690" r="3.1" fill="#fff" opacity="0.68"/><circle cx="394" cy="697" r="2.4" fill="#fff" opacity="0.35"/><circle cx="257" cy="365" r="1.5" fill="#fff" opacity="0.31"/><circle cx="349" cy="92" r="1.8" fill="#fff" opacity="0.30"/><circle cx="452" cy="463" r="2.2" fill="#fff" opacity="0.63"/><circle cx="364" cy="257" r="1.8" fill="#fff" opacity="0.59"/><circle cx="115" cy="400" r="1.0" fill="#fff" opacity="0.69"/><circle cx="16" cy="250" r="1.6" fill="#fff" opacity="0.57"/><circle cx="267" cy="700" r="2.0" fill="#fff" opacity="0.40"/><circle cx="192" cy="666" r="3.0" fill="#fff" opacity="0.31"/><circle cx="394" cy="394" r="1.6" fill="#fff" opacity="0.29"/><circle cx="269" cy="143" r="1.3" fill="#fff" opacity="0.28"/><circle cx="193" cy="434" r="2.9" fill="#fff" opacity="0.37"/><circle cx="242" cy="304" r="2.5" fill="#fff" opacity="0.53"/></g>
  <path d="M0 585 C86 541 164 618 248 574 C338 526 407 595 512 548 V768 H0Z" fill="#d95f3d" opacity=".2"/><path d="M0 650 C105 610 180 690 282 638 C370 594 426 650 512 618 V768 H0Z" fill="#ffc0a6" opacity=".18"/>
  <ellipse cx="256" cy="662" rx="150" ry="34" fill="#7a271d" opacity=".28"/>
  <g transform="translate(0 122)">
    <path d="M110.45000000000002 326.9 L40.75000000000003 240.8 L44.85000000000002 413 Z" fill="#d95f3d" opacity=".86"/><ellipse cx="247.8" cy="322.8" rx="139.39999999999998" ry="88.14999999999999" fill="url(#body)" filter="url(#softShadow)"/><path d="M243.7 242.85 C288.8 136.25 358.5 173.15 342.1 263.35" fill="#d95f3d" opacity=".72"/><path d="M301.1 384.3 C338 458.1 411.79999999999995 413 362.6 359.7" fill="#ffc0a6" opacity=".8"/><circle cx="329.8" cy="292.05" r="14.349999999999998" fill="#101828"/><circle cx="335.95" cy="285.9" r="4.714999999999999" fill="#fff"/><path d="M256 183.4 L278.55 212.10000000000002 L256 242.85 L233.45 212.10000000000002 Z" fill="#ffc0a6" opacity=".92"/>
  </g>
  <path d="M74 126 C170 65 334 65 438 126" stroke="#fff" stroke-width="16" stroke-linecap="round" opacity=".16"/>
  <path d="M63 676 C162 718 344 718 449 662" stroke="#fff" stroke-width="14" stroke-linecap="round" opacity=".16"/>
</svg>