<svg xmlns="http://www.w3.org/2000/svg" viewBox="0 0 512 768" role="img" aria-label="相扑力士 original portrait">
  
  <defs>
    <linearGradient id="bgp573" x1="0" y1="0" x2="1" y2="1">
      <stop offset="0" stop-color="#ffc0a6"/>
      <stop offset=".55" stop-color="#d95f3d"/>
      <stop offset="1" stop-color="#7a271d"/>
    </linearGradient>
    <radialGradient id="body" cx=".36" cy=".25" r=".76">
      <stop offset="0" stop-color="#ffc0a6"/>
      <stop offset=".6" stop-color="#d95f3d"/>
      <stop offset="1" stop-color="#7a271d"/>
    </radialGradient>
    <radialGradient id="head" cx=".36" cy=".26" r=".72">
      <stop offset="0" stop-color="#ffffff" stop-opacity=".85"/>
      <stop offset=".2" stop-color="#ffc0a6"/>
      <stop offset=".72" stop-color="#d95f3d"/>
      <stop offset="1" stop-color="#7a271d"/>
    </radialGradient>
    <filter id="softShadow" x="-30%" y="-30%" width="160%" height="160%">
      <feDropShadow dx="0" dy="8" stdDeviation="8" flood-color="#7a271d" flood-opacity=".35"/>
    </filter>
  </defs>
  <rect width="512" height="768" rx="48" fill="url(#bgp573)"/>
  <rect x="24" y="24" width="464" height="720" rx="40" fill="#ffffff" opacity=".08"/>
  <g opacity=".42"><circle cx="340" cy="525" r="1.4" fill="#fff" opacity="0.53"/><circle cx="261" cy="677" r="1.4" fill="#fff" opacity="0.30"/><circle cx="63" cy="702" r="1.4" fill="#fff" opacity="0.32"/><circle cx="459" cy="279" r="2.3" fill="#fff" opacity="0.26"/><circle cx="35" cy="125" r="2.6" fill="#fff" opacity="0.25"/><circle cx="177" cy="177" r="2.9" fill="#fff" opacity="0.47"/><circle cx="122" cy="447" r="2.0" fill="#fff" opacity="0.34"/><circle cx="480" cy="616" r="1.8" fill="#fff" opacity="0.43"/><circle cx="468" cy="10" r="1.2" fill="#fff" opacity="0.27"/><circle cx="404" cy="365" r="1.7" fill="#fff" opacity="0.68"/><circle cx="126" cy="692" r="1.1" fill="#fff" opacity="0.25"/><circle cx="333" cy="340" r="1.8" fill="#fff" opacity="0.30"/><circle cx="402" cy="138" r="2.2" fill="#fff" opacity="0.69"/><circle cx="218" cy="58" r="1.4" fill="#fff" opacity="0.47"/><circle cx="313" cy="457" r="2.2" fill="#fff" opacity="0.33"/><circle cx="188" cy="184" r="2.1" fill="#fff" opacity="0.47"/><circle cx="166" cy="384" r="1.0" fill="#fff" opacity="0.27"/><circle cx="26" cy="563" r="2.4" fill="#fff" opacity="0.57"/><circle cx="84" cy="485" r="2.1" fill="#fff" opacity="0.44"/><circle cx="405" cy="731" r="1.9" fill="#fff" opacity="0.26"/><circle cx="361" cy="677" r="1.0" fill="#fff" opacity="0.28"/><circle cx="281" cy="647" r="2.1" fill="#fff" opacity="0.48"/><circle cx="287" cy="464" r="2.9" fill="#fff" opacity="0.37"/><circle cx="362" cy="508" r="3.0" fill="#fff" opacity="0.36"/><circle cx="274" cy="348" r="0.9" fill="#fff" opacity="0.35"/><circle cx="314" cy="707" r="3.2" fill="#fff" opacity="0.49"/><circle cx="488" cy="426" r="2.8" fill="#fff" opacity="0.62"/><circle cx="250" cy="17" r="3.2" fill="#fff" opacity="0.27"/></g>
  <path d="M38 684 C128 596 386 596 475 684 V768 H38Z" fill="#7a271d" opacity=".17"/>
  <ellipse cx="256" cy="662" rx="150" ry="34" fill="#7a271d" opacity=".28"/>
  <g transform="translate(0 122)">
    <ellipse cx="256" cy="359.7" rx="110.69999999999999" ry="100.44999999999999" fill="url(#body)" filter="url(#softShadow)"/><circle cx="256" cy="232.60000000000002" r="86.1" fill="url(#head)"/><path d="M149.4 322.8 C51.00000000000003 304.35 85.85000000000002 423.25 165.8 402.75" fill="#7a271d"/><path d="M362.6 322.8 C461 304.35 426.15 423.25 346.2 402.75" fill="#7a271d"/><path d="M200.65 148.55 H311.35 L331.85 195.7 Q256 224.4 180.15 195.7 Z" fill="#ffc0a6" opacity=".85"/><ellipse cx="223.2" cy="253.1" rx="14.349999999999998" ry="16.4" fill="#14213d"/><ellipse cx="288.8" cy="253.1" rx="14.349999999999998" ry="16.4" fill="#14213d"/><circle cx="229.35" cy="244.9" r="4.714999999999999" fill="#fff"/><circle cx="294.95" cy="244.9" r="4.714999999999999" fill="#fff"/><path d="M256 183.4 L278.55 212.10000000000002 L256 242.85 L233.45 212.10000000000002 Z" fill="#ffc0a6" opacity=".92"/>
  </g>
  <path d="M74 126 C170 65 334 65 438 126" stroke="#fff" stroke-width="16" stroke-linecap="round" opacity=".16"/>
  <path d="M63 676 C162 718 344 718 449 662" stroke="#fff" stroke-width="14" stroke-linecap="round" opacity=".16"/>
</svg>