<svg xmlns="http://www.w3.org/2000/svg" viewBox="0 0 512 768" role="img" aria-label="横纲力士 unique portrait">
  <defs>
    <linearGradient id="bg573" x1="0" y1="0" x2="1" y2="1"><stop offset="0" stop-color="#ffc3a0"/><stop offset=".55" stop-color="#d05a3b"/><stop offset="1" stop-color="#6d2b1f"/></linearGradient>
    <radialGradient id="body573" cx=".35" cy=".24" r=".78"><stop offset="0" stop-color="#fff" stop-opacity=".88"/><stop offset=".18" stop-color="#ffc3a0"/><stop offset=".68" stop-color="#d05a3b"/><stop offset="1" stop-color="#6d2b1f"/></radialGradient>
    <filter id="shadow573" x="-30%" y="-30%" width="160%" height="160%"><feDropShadow dx="0" dy="10" stdDeviation="9" flood-color="#6d2b1f" flood-opacity=".36"/></filter>
  </defs>
  <rect width="512" height="768" rx="48" fill="url(#bg573)"/>
  <rect x="24" y="24" width="464" height="720" rx="40" fill="#fff" opacity=".08"/>
  <g opacity=".46"><circle cx="429" cy="301" r="4.0" fill="#fff" opacity="0.23"/><circle cx="462" cy="571" r="2.9" fill="#fff" opacity="0.28"/><circle cx="228" cy="238" r="3.8" fill="#fff" opacity="0.63"/><circle cx="238" cy="206" r="4.2" fill="#fff" opacity="0.32"/><circle cx="286" cy="170" r="2.1" fill="#fff" opacity="0.60"/><circle cx="302" cy="177" r="4.2" fill="#fff" opacity="0.56"/><circle cx="51" cy="583" r="5.1" fill="#fff" opacity="0.41"/><circle cx="153" cy="202" r="4.5" fill="#fff" opacity="0.57"/><circle cx="95" cy="471" r="4.0" fill="#fff" opacity="0.64"/><circle cx="184" cy="439" r="2.0" fill="#fff" opacity="0.33"/><circle cx="419" cy="514" r="2.8" fill="#fff" opacity="0.37"/><circle cx="69" cy="176" r="4.6" fill="#fff" opacity="0.29"/><circle cx="381" cy="202" r="3.7" fill="#fff" opacity="0.30"/><circle cx="294" cy="119" r="3.4" fill="#fff" opacity="0.24"/></g>
  <path d="M0 596 C80 558 128 616 202 584 C281 550 332 618 418 582 C464 563 492 570 512 586 V768 H0Z" fill="#6d2b1f" opacity=".22"/>
  <ellipse cx="256" cy="664" rx="154" ry="36" fill="#6d2b1f" opacity=".3"/>
  <g transform="translate(0 84)"><path d="M148 520 C118 346 156 196 256 164 C356 196 394 346 364 520 C326 488 292 532 256 496 C220 532 186 488 148 520Z" fill="url(#body573)" filter="url(#shadow573)"/>
    <circle cx="209" cy="337" r="17" fill="#6d2b1f"/><circle cx="303" cy="337" r="17" fill="#6d2b1f"/>
    <circle cx="203" cy="331" r="5" fill="#fff" opacity=".75"/><circle cx="297" cy="331" r="5" fill="#fff" opacity=".75"/>
    <path d="M214 248 Q256 284 298 248" stroke="#ffc3a0" stroke-width="14" fill="none" stroke-linecap="round" opacity=".74"/>
    <path d="M188 560 C228 600 288 600 326 560" stroke="#fff" stroke-width="12" stroke-linecap="round" opacity=".18" fill="none"/>
  </g>
  <path d="M72 128 C168 68 334 66 440 128" stroke="#fff" stroke-width="16" stroke-linecap="round" opacity=".16"/>
  <path d="M60 678 C164 722 348 718 452 662" stroke="#fff" stroke-width="14" stroke-linecap="round" opacity=".16"/>
</svg>