<svg xmlns="http://www.w3.org/2000/svg" viewBox="0 0 512 768" role="img" aria-label="毒菇 original portrait">
  
  <defs>
    <linearGradient id="bgp574" x1="0" y1="0" x2="1" y2="1">
      <stop offset="0" stop-color="#efb2ff"/>
      <stop offset=".55" stop-color="#9b5de5"/>
      <stop offset="1" stop-color="#4f2378"/>
    </linearGradient>
    <radialGradient id="body" cx=".36" cy=".25" r=".76">
      <stop offset="0" stop-color="#efb2ff"/>
      <stop offset=".6" stop-color="#9b5de5"/>
      <stop offset="1" stop-color="#4f2378"/>
    </radialGradient>
    <radialGradient id="head" cx=".36" cy=".26" r=".72">
      <stop offset="0" stop-color="#ffffff" stop-opacity=".85"/>
      <stop offset=".2" stop-color="#efb2ff"/>
      <stop offset=".72" stop-color="#9b5de5"/>
      <stop offset="1" stop-color="#4f2378"/>
    </radialGradient>
    <filter id="softShadow" x="-30%" y="-30%" width="160%" height="160%">
      <feDropShadow dx="0" dy="8" stdDeviation="8" flood-color="#4f2378" flood-opacity=".35"/>
    </filter>
  </defs>
  <rect width="512" height="768" rx="48" fill="url(#bgp574)"/>
  <rect x="24" y="24" width="464" height="720" rx="40" fill="#ffffff" opacity=".08"/>
  <g opacity=".42"><circle cx="51" cy="655" r="2.5" fill="#fff" opacity="0.48"/><circle cx="482" cy="250" r="3.1" fill="#fff" opacity="0.46"/><circle cx="479" cy="545" r="1.7" fill="#fff" opacity="0.31"/><circle cx="3" cy="340" r="1.6" fill="#fff" opacity="0.49"/><circle cx="482" cy="111" r="3.0" fill="#fff" opacity="0.40"/><circle cx="58" cy="642" r="1.2" fill="#fff" opacity="0.32"/><circle cx="268" cy="411" r="1.9" fill="#fff" opacity="0.47"/><circle cx="327" cy="92" r="3.1" fill="#fff" opacity="0.42"/><circle cx="384" cy="323" r="1.2" fill="#fff" opacity="0.38"/><circle cx="264" cy="540" r="2.4" fill="#fff" opacity="0.51"/><circle cx="485" cy="73" r="1.3" fill="#fff" opacity="0.54"/><circle cx="145" cy="484" r="1.7" fill="#fff" opacity="0.60"/><circle cx="205" cy="160" r="1.9" fill="#fff" opacity="0.62"/><circle cx="246" cy="184" r="2.8" fill="#fff" opacity="0.62"/><circle cx="404" cy="619" r="2.1" fill="#fff" opacity="0.55"/><circle cx="69" cy="504" r="1.9" fill="#fff" opacity="0.52"/><circle cx="335" cy="665" r="2.1" fill="#fff" opacity="0.57"/><circle cx="323" cy="288" r="1.4" fill="#fff" opacity="0.35"/><circle cx="415" cy="361" r="0.8" fill="#fff" opacity="0.29"/><circle cx="294" cy="156" r="1.2" fill="#fff" opacity="0.28"/><circle cx="334" cy="412" r="1.1" fill="#fff" opacity="0.48"/><circle cx="286" cy="721" r="1.2" fill="#fff" opacity="0.35"/><circle cx="413" cy="727" r="1.5" fill="#fff" opacity="0.40"/><circle cx="374" cy="616" r="2.2" fill="#fff" opacity="0.62"/><circle cx="108" cy="646" r="2.2" fill="#fff" opacity="0.63"/><circle cx="124" cy="362" r="1.9" fill="#fff" opacity="0.54"/><circle cx="356" cy="409" r="1.2" fill="#fff" opacity="0.28"/><circle cx="313" cy="63" r="2.0" fill="#fff" opacity="0.40"/></g>
  <path d="M18 704 C124 595 205 659 256 580 C314 666 392 596 494 704 V768 H18Z" fill="#4f2378" opacity=".18"/>
  <ellipse cx="256" cy="662" rx="150" ry="34" fill="#4f2378" opacity=".28"/>
  <g transform="translate(0 122)">
    <path d="M231.4 400.7 C128.9 376.1 83.80000000000001 265.4 198.60000000000002 275.65" fill="#9b5de5" opacity=".82"/><path d="M280.6 400.7 C383.1 376.1 428.2 265.4 313.4 275.65" fill="#9b5de5" opacity=".82"/><ellipse cx="256" cy="339.2" rx="98.39999999999999" ry="116.85" fill="url(#body)" filter="url(#softShadow)"/><path d="M256 138.3 C169.9 175.20000000000002 161.7 259.25 256 251.05 C350.3 259.25 342.1 175.20000000000002 256 138.3Z" fill="#efb2ff"/><circle cx="256" cy="253.1" r="77.89999999999999" fill="url(#head)"/><ellipse cx="223.2" cy="253.1" rx="14.349999999999998" ry="16.4" fill="#14213d"/><ellipse cx="288.8" cy="253.1" rx="14.349999999999998" ry="16.4" fill="#14213d"/><circle cx="229.35" cy="244.9" r="4.714999999999999" fill="#fff"/><circle cx="294.95" cy="244.9" r="4.714999999999999" fill="#fff"/><path d="M256 183.4 L278.55 212.10000000000002 L256 242.85 L233.45 212.10000000000002 Z" fill="#efb2ff" opacity=".92"/>
  </g>
  <path d="M74 126 C170 65 334 65 438 126" stroke="#fff" stroke-width="16" stroke-linecap="round" opacity=".16"/>
  <path d="M63 676 C162 718 344 718 449 662" stroke="#fff" stroke-width="14" stroke-linecap="round" opacity=".16"/>
</svg>