<svg xmlns="http://www.w3.org/2000/svg" viewBox="0 0 512 768" role="img" aria-label="瘴气菇王 original portrait">
  
  <defs>
    <linearGradient id="bgp575" x1="0" y1="0" x2="1" y2="1">
      <stop offset="0" stop-color="#efb2ff"/>
      <stop offset=".55" stop-color="#9b5de5"/>
      <stop offset="1" stop-color="#4f2378"/>
    </linearGradient>
    <radialGradient id="body" cx=".36" cy=".25" r=".76">
      <stop offset="0" stop-color="#efb2ff"/>
      <stop offset=".6" stop-color="#9b5de5"/>
      <stop offset="1" stop-color="#4f2378"/>
    </radialGradient>
    <radialGradient id="head" cx=".36" cy=".26" r=".72">
      <stop offset="0" stop-color="#ffffff" stop-opacity=".85"/>
      <stop offset=".2" stop-color="#efb2ff"/>
      <stop offset=".72" stop-color="#9b5de5"/>
      <stop offset="1" stop-color="#4f2378"/>
    </radialGradient>
    <filter id="softShadow" x="-30%" y="-30%" width="160%" height="160%">
      <feDropShadow dx="0" dy="8" stdDeviation="8" flood-color="#4f2378" flood-opacity=".35"/>
    </filter>
  </defs>
  <rect width="512" height="768" rx="48" fill="url(#bgp575)"/>
  <rect x="24" y="24" width="464" height="720" rx="40" fill="#ffffff" opacity=".08"/>
  <g opacity=".42"><circle cx="370" cy="307" r="1.7" fill="#fff" opacity="0.40"/><circle cx="473" cy="61" r="3.1" fill="#fff" opacity="0.51"/><circle cx="510" cy="176" r="2.5" fill="#fff" opacity="0.32"/><circle cx="445" cy="60" r="2.0" fill="#fff" opacity="0.47"/><circle cx="12" cy="632" r="1.9" fill="#fff" opacity="0.46"/><circle cx="99" cy="767" r="1.7" fill="#fff" opacity="0.44"/><circle cx="418" cy="629" r="0.9" fill="#fff" opacity="0.60"/><circle cx="147" cy="672" r="1.9" fill="#fff" opacity="0.30"/><circle cx="108" cy="586" r="2.1" fill="#fff" opacity="0.48"/><circle cx="127" cy="43" r="3.0" fill="#fff" opacity="0.31"/><circle cx="211" cy="387" r="3.1" fill="#fff" opacity="0.37"/><circle cx="420" cy="537" r="2.0" fill="#fff" opacity="0.28"/><circle cx="405" cy="607" r="1.4" fill="#fff" opacity="0.65"/><circle cx="455" cy="71" r="3.2" fill="#fff" opacity="0.67"/><circle cx="158" cy="240" r="2.9" fill="#fff" opacity="0.26"/><circle cx="166" cy="455" r="2.9" fill="#fff" opacity="0.35"/><circle cx="49" cy="158" r="1.1" fill="#fff" opacity="0.55"/><circle cx="335" cy="209" r="2.4" fill="#fff" opacity="0.40"/><circle cx="128" cy="266" r="2.9" fill="#fff" opacity="0.40"/><circle cx="334" cy="82" r="3.0" fill="#fff" opacity="0.50"/><circle cx="236" cy="460" r="1.3" fill="#fff" opacity="0.29"/><circle cx="512" cy="26" r="2.9" fill="#fff" opacity="0.36"/><circle cx="123" cy="80" r="1.1" fill="#fff" opacity="0.31"/><circle cx="345" cy="39" r="1.5" fill="#fff" opacity="0.56"/><circle cx="21" cy="325" r="2.9" fill="#fff" opacity="0.42"/><circle cx="499" cy="336" r="1.0" fill="#fff" opacity="0.50"/><circle cx="94" cy="619" r="2.1" fill="#fff" opacity="0.38"/><circle cx="184" cy="695" r="1.4" fill="#fff" opacity="0.47"/></g>
  <path d="M18 704 C124 595 205 659 256 580 C314 666 392 596 494 704 V768 H18Z" fill="#4f2378" opacity=".18"/>
  <ellipse cx="256" cy="662" rx="150" ry="34" fill="#4f2378" opacity=".28"/>
  <g transform="translate(0 122)">
    <path d="M231.4 400.7 C128.9 376.1 83.80000000000001 265.4 198.60000000000002 275.65" fill="#9b5de5" opacity=".82"/><path d="M280.6 400.7 C383.1 376.1 428.2 265.4 313.4 275.65" fill="#9b5de5" opacity=".82"/><ellipse cx="256" cy="339.2" rx="98.39999999999999" ry="116.85" fill="url(#body)" filter="url(#softShadow)"/><path d="M256 138.3 C169.9 175.20000000000002 161.7 259.25 256 251.05 C350.3 259.25 342.1 175.20000000000002 256 138.3Z" fill="#efb2ff"/><circle cx="256" cy="253.1" r="77.89999999999999" fill="url(#head)"/><ellipse cx="223.2" cy="253.1" rx="14.349999999999998" ry="16.4" fill="#14213d"/><ellipse cx="288.8" cy="253.1" rx="14.349999999999998" ry="16.4" fill="#14213d"/><circle cx="229.35" cy="244.9" r="4.714999999999999" fill="#fff"/><circle cx="294.95" cy="244.9" r="4.714999999999999" fill="#fff"/><path d="M256 183.4 L278.55 212.10000000000002 L256 242.85 L233.45 212.10000000000002 Z" fill="#efb2ff" opacity=".92"/>
  </g>
  <path d="M74 126 C170 65 334 65 438 126" stroke="#fff" stroke-width="16" stroke-linecap="round" opacity=".16"/>
  <path d="M63 676 C162 718 344 718 449 662" stroke="#fff" stroke-width="14" stroke-linecap="round" opacity=".16"/>
</svg>