<svg xmlns="http://www.w3.org/2000/svg" viewBox="0 0 512 768" role="img" aria-label="剧毒蛙 original portrait">
  
  <defs>
    <linearGradient id="bgp576" x1="0" y1="0" x2="1" y2="1">
      <stop offset="0" stop-color="#efb2ff"/>
      <stop offset=".55" stop-color="#9b5de5"/>
      <stop offset="1" stop-color="#4f2378"/>
    </linearGradient>
    <radialGradient id="body" cx=".36" cy=".25" r=".76">
      <stop offset="0" stop-color="#efb2ff"/>
      <stop offset=".6" stop-color="#9b5de5"/>
      <stop offset="1" stop-color="#4f2378"/>
    </radialGradient>
    <radialGradient id="head" cx=".36" cy=".26" r=".72">
      <stop offset="0" stop-color="#ffffff" stop-opacity=".85"/>
      <stop offset=".2" stop-color="#efb2ff"/>
      <stop offset=".72" stop-color="#9b5de5"/>
      <stop offset="1" stop-color="#4f2378"/>
    </radialGradient>
    <filter id="softShadow" x="-30%" y="-30%" width="160%" height="160%">
      <feDropShadow dx="0" dy="8" stdDeviation="8" flood-color="#4f2378" flood-opacity=".35"/>
    </filter>
  </defs>
  <rect width="512" height="768" rx="48" fill="url(#bgp576)"/>
  <rect x="24" y="24" width="464" height="720" rx="40" fill="#ffffff" opacity=".08"/>
  <g opacity=".42"><circle cx="344" cy="619" r="1.9" fill="#fff" opacity="0.52"/><circle cx="26" cy="671" r="2.0" fill="#fff" opacity="0.25"/><circle cx="103" cy="58" r="1.2" fill="#fff" opacity="0.58"/><circle cx="332" cy="398" r="3.2" fill="#fff" opacity="0.47"/><circle cx="322" cy="202" r="1.3" fill="#fff" opacity="0.41"/><circle cx="29" cy="12" r="1.7" fill="#fff" opacity="0.41"/><circle cx="383" cy="538" r="1.9" fill="#fff" opacity="0.35"/><circle cx="453" cy="574" r="2.6" fill="#fff" opacity="0.36"/><circle cx="375" cy="416" r="1.9" fill="#fff" opacity="0.27"/><circle cx="134" cy="497" r="3.1" fill="#fff" opacity="0.45"/><circle cx="316" cy="759" r="2.7" fill="#fff" opacity="0.69"/><circle cx="220" cy="34" r="2.8" fill="#fff" opacity="0.48"/><circle cx="5" cy="252" r="1.1" fill="#fff" opacity="0.29"/><circle cx="85" cy="642" r="1.4" fill="#fff" opacity="0.25"/><circle cx="261" cy="699" r="2.1" fill="#fff" opacity="0.65"/><circle cx="431" cy="93" r="2.0" fill="#fff" opacity="0.61"/><circle cx="297" cy="614" r="2.3" fill="#fff" opacity="0.38"/><circle cx="24" cy="201" r="3.1" fill="#fff" opacity="0.36"/><circle cx="258" cy="271" r="2.0" fill="#fff" opacity="0.37"/><circle cx="402" cy="545" r="2.4" fill="#fff" opacity="0.49"/><circle cx="233" cy="479" r="1.9" fill="#fff" opacity="0.35"/><circle cx="358" cy="567" r="1.9" fill="#fff" opacity="0.60"/><circle cx="93" cy="727" r="2.2" fill="#fff" opacity="0.59"/><circle cx="212" cy="269" r="1.1" fill="#fff" opacity="0.44"/><circle cx="459" cy="472" r="0.9" fill="#fff" opacity="0.34"/><circle cx="123" cy="134" r="0.9" fill="#fff" opacity="0.38"/><circle cx="213" cy="47" r="1.8" fill="#fff" opacity="0.29"/><circle cx="413" cy="155" r="2.2" fill="#fff" opacity="0.59"/></g>
  <path d="M0 585 C86 541 164 618 248 574 C338 526 407 595 512 548 V768 H0Z" fill="#9b5de5" opacity=".2"/><path d="M0 650 C105 610 180 690 282 638 C370 594 426 650 512 618 V768 H0Z" fill="#efb2ff" opacity=".18"/>
  <ellipse cx="256" cy="662" rx="150" ry="34" fill="#4f2378" opacity=".28"/>
  <g transform="translate(0 122)">
    <path d="M110.45000000000002 326.9 L40.75000000000003 240.8 L44.85000000000002 413 Z" fill="#9b5de5" opacity=".86"/><ellipse cx="247.8" cy="322.8" rx="139.39999999999998" ry="88.14999999999999" fill="url(#body)" filter="url(#softShadow)"/><path d="M243.7 242.85 C288.8 136.25 358.5 173.15 342.1 263.35" fill="#9b5de5" opacity=".72"/><path d="M301.1 384.3 C338 458.1 411.79999999999995 413 362.6 359.7" fill="#efb2ff" opacity=".8"/><circle cx="329.8" cy="292.05" r="14.349999999999998" fill="#101828"/><circle cx="335.95" cy="285.9" r="4.714999999999999" fill="#fff"/><path d="M215 201.85000000000002 Q256 224.4 297 201.85000000000002" stroke="#efb2ff" stroke-width="10.25" fill="none" stroke-linecap="round" opacity=".8"/>
  </g>
  <path d="M74 126 C170 65 334 65 438 126" stroke="#fff" stroke-width="16" stroke-linecap="round" opacity=".16"/>
  <path d="M63 676 C162 718 344 718 449 662" stroke="#fff" stroke-width="14" stroke-linecap="round" opacity=".16"/>
</svg>