<svg xmlns="http://www.w3.org/2000/svg" viewBox="0 0 512 768" role="img" aria-label="沙隐地虫 unique portrait">
  <defs>
    <linearGradient id="bg580" x1="0" y1="0" x2="1" y2="1"><stop offset="0" stop-color="#edd3a3"/><stop offset=".55" stop-color="#b07d42"/><stop offset="1" stop-color="#5d3b1f"/></linearGradient>
    <radialGradient id="body580" cx=".35" cy=".24" r=".78"><stop offset="0" stop-color="#fff" stop-opacity=".88"/><stop offset=".18" stop-color="#edd3a3"/><stop offset=".68" stop-color="#b07d42"/><stop offset="1" stop-color="#5d3b1f"/></radialGradient>
    <filter id="shadow580" x="-30%" y="-30%" width="160%" height="160%"><feDropShadow dx="0" dy="10" stdDeviation="9" flood-color="#5d3b1f" flood-opacity=".36"/></filter>
  </defs>
  <rect width="512" height="768" rx="48" fill="url(#bg580)"/>
  <rect x="24" y="24" width="464" height="720" rx="40" fill="#fff" opacity=".08"/>
  <g opacity=".46"><circle cx="430" cy="371" r="3.2" fill="#fff" opacity="0.27"/><circle cx="392" cy="228" r="3.0" fill="#fff" opacity="0.55"/><circle cx="203" cy="325" r="4.7" fill="#fff" opacity="0.41"/><circle cx="379" cy="528" r="4.3" fill="#fff" opacity="0.47"/><circle cx="331" cy="623" r="3.4" fill="#fff" opacity="0.31"/><circle cx="327" cy="479" r="2.5" fill="#fff" opacity="0.51"/><circle cx="47" cy="87" r="4.4" fill="#fff" opacity="0.44"/><circle cx="454" cy="426" r="2.3" fill="#fff" opacity="0.35"/><circle cx="260" cy="247" r="5.3" fill="#fff" opacity="0.29"/><circle cx="148" cy="171" r="4.9" fill="#fff" opacity="0.60"/><circle cx="409" cy="351" r="3.6" fill="#fff" opacity="0.31"/><circle cx="388" cy="572" r="4.2" fill="#fff" opacity="0.62"/><circle cx="241" cy="206" r="4.5" fill="#fff" opacity="0.45"/></g>
  <path d="M0 596 C80 558 128 616 202 584 C281 550 332 618 418 582 C464 563 492 570 512 586 V768 H0Z" fill="#5d3b1f" opacity=".22"/>
  <ellipse cx="256" cy="664" rx="154" ry="36" fill="#5d3b1f" opacity=".3"/>
  <g transform="translate(0 84)"><path d="M316 492 C426 508 425 604 334 594 C391 562 368 528 302 536" fill="none" stroke="#b07d42" stroke-width="34" stroke-linecap="round" opacity=".72"/><path d="M178 196 L133 114 L221 170 Z" fill="#b07d42" opacity=".8"/><path d="M334 196 L379 114 L291 170 Z" fill="#b07d42" opacity=".8"/><path d="M151 500 C116 338 160 190 256 170 C352 190 396 338 361 500 C320 466 291 532 256 490 C221 532 192 466 151 500Z" fill="url(#body580)" filter="url(#shadow580)"/>
    <circle cx="215" cy="331" r="17" fill="#101827"/><circle cx="297" cy="331" r="17" fill="#101827"/>
    <circle cx="209" cy="325" r="5" fill="#fff" opacity=".75"/><circle cx="291" cy="325" r="5" fill="#fff" opacity=".75"/>
    <path d="M206 410 Q256 442 306 410" stroke="#5d3b1f" stroke-width="12" fill="none" stroke-linecap="round" opacity=".72"/>
    <path d="M188 560 C228 600 288 600 326 560" stroke="#fff" stroke-width="12" stroke-linecap="round" opacity=".18" fill="none"/>
  </g>
  <path d="M72 128 C168 68 334 66 440 128" stroke="#fff" stroke-width="16" stroke-linecap="round" opacity=".16"/>
  <path d="M60 678 C164 722 348 718 452 662" stroke="#fff" stroke-width="14" stroke-linecap="round" opacity=".16"/>
</svg>