<svg xmlns="http://www.w3.org/2000/svg" viewBox="0 0 512 768" role="img" aria-label="沙丘虫 original portrait">
  
  <defs>
    <linearGradient id="bgp580" x1="0" y1="0" x2="1" y2="1">
      <stop offset="0" stop-color="#e9c68f"/>
      <stop offset=".55" stop-color="#a0713d"/>
      <stop offset="1" stop-color="#5a3b22"/>
    </linearGradient>
    <radialGradient id="body" cx=".36" cy=".25" r=".76">
      <stop offset="0" stop-color="#e9c68f"/>
      <stop offset=".6" stop-color="#a0713d"/>
      <stop offset="1" stop-color="#5a3b22"/>
    </radialGradient>
    <radialGradient id="head" cx=".36" cy=".26" r=".72">
      <stop offset="0" stop-color="#ffffff" stop-opacity=".85"/>
      <stop offset=".2" stop-color="#e9c68f"/>
      <stop offset=".72" stop-color="#a0713d"/>
      <stop offset="1" stop-color="#5a3b22"/>
    </radialGradient>
    <filter id="softShadow" x="-30%" y="-30%" width="160%" height="160%">
      <feDropShadow dx="0" dy="8" stdDeviation="8" flood-color="#5a3b22" flood-opacity=".35"/>
    </filter>
  </defs>
  <rect width="512" height="768" rx="48" fill="url(#bgp580)"/>
  <rect x="24" y="24" width="464" height="720" rx="40" fill="#ffffff" opacity=".08"/>
  <g opacity=".42"><circle cx="454" cy="748" r="2.0" fill="#fff" opacity="0.37"/><circle cx="89" cy="641" r="0.8" fill="#fff" opacity="0.47"/><circle cx="365" cy="280" r="1.5" fill="#fff" opacity="0.36"/><circle cx="304" cy="105" r="1.0" fill="#fff" opacity="0.49"/><circle cx="139" cy="304" r="2.2" fill="#fff" opacity="0.39"/><circle cx="105" cy="425" r="1.6" fill="#fff" opacity="0.65"/><circle cx="466" cy="109" r="1.1" fill="#fff" opacity="0.68"/><circle cx="184" cy="759" r="2.4" fill="#fff" opacity="0.58"/><circle cx="471" cy="265" r="2.6" fill="#fff" opacity="0.67"/><circle cx="23" cy="417" r="2.6" fill="#fff" opacity="0.63"/><circle cx="511" cy="685" r="1.7" fill="#fff" opacity="0.25"/><circle cx="9" cy="284" r="2.5" fill="#fff" opacity="0.30"/><circle cx="350" cy="321" r="1.1" fill="#fff" opacity="0.35"/><circle cx="76" cy="567" r="0.8" fill="#fff" opacity="0.62"/><circle cx="186" cy="556" r="1.8" fill="#fff" opacity="0.70"/><circle cx="123" cy="114" r="1.7" fill="#fff" opacity="0.25"/><circle cx="468" cy="615" r="3.1" fill="#fff" opacity="0.58"/><circle cx="275" cy="339" r="2.3" fill="#fff" opacity="0.32"/><circle cx="443" cy="54" r="2.9" fill="#fff" opacity="0.46"/><circle cx="456" cy="415" r="1.4" fill="#fff" opacity="0.34"/><circle cx="226" cy="663" r="3.1" fill="#fff" opacity="0.35"/><circle cx="446" cy="25" r="1.1" fill="#fff" opacity="0.53"/><circle cx="439" cy="32" r="1.5" fill="#fff" opacity="0.33"/><circle cx="284" cy="219" r="1.9" fill="#fff" opacity="0.45"/><circle cx="324" cy="315" r="3.2" fill="#fff" opacity="0.52"/><circle cx="68" cy="425" r="1.1" fill="#fff" opacity="0.31"/><circle cx="281" cy="591" r="2.5" fill="#fff" opacity="0.51"/><circle cx="441" cy="448" r="2.5" fill="#fff" opacity="0.56"/></g>
  <path d="M69 625 C150 571 359 568 443 628" fill="#a0713d" opacity=".14"/>
  <ellipse cx="256" cy="662" rx="150" ry="34" fill="#5a3b22" opacity=".28"/>
  <g transform="translate(0 122)">
    <ellipse cx="178.10000000000002" cy="257.2" rx="69.69999999999999" ry="100.44999999999999" fill="#e9c68f" opacity=".55"/><ellipse cx="333.9" cy="257.2" rx="69.69999999999999" ry="100.44999999999999" fill="#e9c68f" opacity=".55"/><ellipse cx="256" cy="331" rx="65.6" ry="122.99999999999999" fill="url(#body)" filter="url(#softShadow)"/><circle cx="256" cy="214.15" r="69.69999999999999" fill="url(#head)"/><path d="M219.1 160.85000000000002 Q174 93.20000000000002 118.65 117.80000000000001" stroke="#5a3b22" stroke-width="10.25" fill="none" stroke-linecap="round"/><path d="M292.9 160.85000000000002 Q338 93.20000000000002 393.35 117.80000000000001" stroke="#5a3b22" stroke-width="10.25" fill="none" stroke-linecap="round"/><path d="M198.60000000000002 322.8 H313.4 M206.8 376.1 H305.2" stroke="#5a3b22" stroke-width="8.2" opacity=".35"/><ellipse cx="223.2" cy="253.1" rx="14.349999999999998" ry="16.4" fill="#14213d"/><ellipse cx="288.8" cy="253.1" rx="14.349999999999998" ry="16.4" fill="#14213d"/><circle cx="229.35" cy="244.9" r="4.714999999999999" fill="#fff"/><circle cx="294.95" cy="244.9" r="4.714999999999999" fill="#fff"/><path d="M256 183.4 L278.55 212.10000000000002 L256 242.85 L233.45 212.10000000000002 Z" fill="#e9c68f" opacity=".92"/>
  </g>
  <path d="M74 126 C170 65 334 65 438 126" stroke="#fff" stroke-width="16" stroke-linecap="round" opacity=".16"/>
  <path d="M63 676 C162 718 344 718 449 662" stroke="#fff" stroke-width="14" stroke-linecap="round" opacity=".16"/>
</svg>