<svg xmlns="http://www.w3.org/2000/svg" viewBox="0 0 512 768" role="img" aria-label="大地鲶鱼 original portrait">
  
  <defs>
    <linearGradient id="bgp581" x1="0" y1="0" x2="1" y2="1">
      <stop offset="0" stop-color="#e9c68f"/>
      <stop offset=".55" stop-color="#a0713d"/>
      <stop offset="1" stop-color="#5a3b22"/>
    </linearGradient>
    <radialGradient id="body" cx=".36" cy=".25" r=".76">
      <stop offset="0" stop-color="#e9c68f"/>
      <stop offset=".6" stop-color="#a0713d"/>
      <stop offset="1" stop-color="#5a3b22"/>
    </radialGradient>
    <radialGradient id="head" cx=".36" cy=".26" r=".72">
      <stop offset="0" stop-color="#ffffff" stop-opacity=".85"/>
      <stop offset=".2" stop-color="#e9c68f"/>
      <stop offset=".72" stop-color="#a0713d"/>
      <stop offset="1" stop-color="#5a3b22"/>
    </radialGradient>
    <filter id="softShadow" x="-30%" y="-30%" width="160%" height="160%">
      <feDropShadow dx="0" dy="8" stdDeviation="8" flood-color="#5a3b22" flood-opacity=".35"/>
    </filter>
  </defs>
  <rect width="512" height="768" rx="48" fill="url(#bgp581)"/>
  <rect x="24" y="24" width="464" height="720" rx="40" fill="#ffffff" opacity=".08"/>
  <g opacity=".42"><circle cx="376" cy="630" r="2.8" fill="#fff" opacity="0.61"/><circle cx="370" cy="255" r="2.8" fill="#fff" opacity="0.68"/><circle cx="248" cy="260" r="1.7" fill="#fff" opacity="0.67"/><circle cx="371" cy="253" r="3.0" fill="#fff" opacity="0.38"/><circle cx="285" cy="650" r="2.4" fill="#fff" opacity="0.60"/><circle cx="386" cy="142" r="2.7" fill="#fff" opacity="0.32"/><circle cx="432" cy="720" r="2.9" fill="#fff" opacity="0.27"/><circle cx="472" cy="524" r="1.4" fill="#fff" opacity="0.62"/><circle cx="508" cy="500" r="3.2" fill="#fff" opacity="0.59"/><circle cx="283" cy="189" r="0.8" fill="#fff" opacity="0.41"/><circle cx="293" cy="557" r="3.1" fill="#fff" opacity="0.63"/><circle cx="414" cy="498" r="2.9" fill="#fff" opacity="0.51"/><circle cx="342" cy="658" r="0.9" fill="#fff" opacity="0.38"/><circle cx="312" cy="686" r="1.1" fill="#fff" opacity="0.62"/><circle cx="68" cy="409" r="3.1" fill="#fff" opacity="0.52"/><circle cx="467" cy="649" r="2.9" fill="#fff" opacity="0.61"/><circle cx="211" cy="508" r="3.2" fill="#fff" opacity="0.51"/><circle cx="360" cy="384" r="1.3" fill="#fff" opacity="0.67"/><circle cx="447" cy="324" r="2.8" fill="#fff" opacity="0.51"/><circle cx="336" cy="56" r="2.0" fill="#fff" opacity="0.57"/><circle cx="379" cy="58" r="2.1" fill="#fff" opacity="0.53"/><circle cx="267" cy="78" r="2.8" fill="#fff" opacity="0.27"/><circle cx="459" cy="603" r="1.5" fill="#fff" opacity="0.30"/><circle cx="159" cy="354" r="3.2" fill="#fff" opacity="0.38"/><circle cx="414" cy="399" r="0.8" fill="#fff" opacity="0.60"/><circle cx="21" cy="189" r="1.4" fill="#fff" opacity="0.35"/><circle cx="363" cy="320" r="2.3" fill="#fff" opacity="0.56"/><circle cx="176" cy="751" r="1.2" fill="#fff" opacity="0.46"/></g>
  <path d="M0 585 C86 541 164 618 248 574 C338 526 407 595 512 548 V768 H0Z" fill="#a0713d" opacity=".2"/><path d="M0 650 C105 610 180 690 282 638 C370 594 426 650 512 618 V768 H0Z" fill="#e9c68f" opacity=".18"/>
  <ellipse cx="256" cy="662" rx="150" ry="34" fill="#5a3b22" opacity=".28"/>
  <g transform="translate(0 122)">
    <path d="M110.45000000000002 326.9 L40.75000000000003 240.8 L44.85000000000002 413 Z" fill="#a0713d" opacity=".86"/><ellipse cx="247.8" cy="322.8" rx="139.39999999999998" ry="88.14999999999999" fill="url(#body)" filter="url(#softShadow)"/><path d="M243.7 242.85 C288.8 136.25 358.5 173.15 342.1 263.35" fill="#a0713d" opacity=".72"/><path d="M301.1 384.3 C338 458.1 411.79999999999995 413 362.6 359.7" fill="#e9c68f" opacity=".8"/><circle cx="329.8" cy="292.05" r="14.349999999999998" fill="#101828"/><circle cx="335.95" cy="285.9" r="4.714999999999999" fill="#fff"/><path d="M215 201.85000000000002 Q256 224.4 297 201.85000000000002" stroke="#e9c68f" stroke-width="10.25" fill="none" stroke-linecap="round" opacity=".8"/>
  </g>
  <path d="M74 126 C170 65 334 65 438 126" stroke="#fff" stroke-width="16" stroke-linecap="round" opacity=".16"/>
  <path d="M63 676 C162 718 344 718 449 662" stroke="#fff" stroke-width="14" stroke-linecap="round" opacity=".16"/>
</svg>