<svg xmlns="http://www.w3.org/2000/svg" viewBox="0 0 512 768" role="img" aria-label="浮空气鸟 unique portrait">
  <defs>
    <linearGradient id="bg582" x1="0" y1="0" x2="1" y2="1"><stop offset="0" stop-color="#d5efff"/><stop offset=".55" stop-color="#82aaff"/><stop offset="1" stop-color="#355c9c"/></linearGradient>
    <radialGradient id="body582" cx=".35" cy=".24" r=".78"><stop offset="0" stop-color="#fff" stop-opacity=".88"/><stop offset=".18" stop-color="#d5efff"/><stop offset=".68" stop-color="#82aaff"/><stop offset="1" stop-color="#355c9c"/></radialGradient>
    <filter id="shadow582" x="-30%" y="-30%" width="160%" height="160%"><feDropShadow dx="0" dy="10" stdDeviation="9" flood-color="#355c9c" flood-opacity=".36"/></filter>
  </defs>
  <rect width="512" height="768" rx="48" fill="url(#bg582)"/>
  <rect x="24" y="24" width="464" height="720" rx="40" fill="#fff" opacity=".08"/>
  <g opacity=".46"><circle cx="77" cy="144" r="3.3" fill="#fff" opacity="0.25"/><circle cx="72" cy="611" r="3.3" fill="#fff" opacity="0.23"/><circle cx="328" cy="276" r="2.4" fill="#fff" opacity="0.57"/><circle cx="388" cy="257" r="3.8" fill="#fff" opacity="0.23"/><circle cx="74" cy="557" r="3.2" fill="#fff" opacity="0.55"/><circle cx="274" cy="94" r="2.8" fill="#fff" opacity="0.47"/><circle cx="464" cy="586" r="2.7" fill="#fff" opacity="0.60"/><circle cx="188" cy="521" r="2.7" fill="#fff" opacity="0.28"/><circle cx="181" cy="199" r="3.7" fill="#fff" opacity="0.43"/><circle cx="160" cy="326" r="1.7" fill="#fff" opacity="0.54"/><circle cx="421" cy="62" r="3.5" fill="#fff" opacity="0.44"/><circle cx="363" cy="508" r="3.2" fill="#fff" opacity="0.33"/><circle cx="446" cy="263" r="2.9" fill="#fff" opacity="0.56"/><circle cx="171" cy="558" r="1.2" fill="#fff" opacity="0.35"/><circle cx="155" cy="81" r="4.7" fill="#fff" opacity="0.58"/><circle cx="427" cy="572" r="3.3" fill="#fff" opacity="0.37"/><circle cx="65" cy="596" r="2.6" fill="#fff" opacity="0.61"/><circle cx="212" cy="491" r="1.2" fill="#fff" opacity="0.43"/></g>
  <path d="M0 596 C80 558 128 616 202 584 C281 550 332 618 418 582 C464 563 492 570 512 586 V768 H0Z" fill="#355c9c" opacity=".22"/>
  <ellipse cx="256" cy="664" rx="154" ry="36" fill="#355c9c" opacity=".3"/>
  <g transform="translate(0 84)"><circle cx="256" cy="357" r="128" fill="url(#body582)" filter="url(#shadow582)"/><circle cx="256" cy="357" r="70" fill="#d5efff" opacity=".26"/>
    <circle cx="213" cy="332" r="17" fill="#355c9c"/><circle cx="299" cy="332" r="17" fill="#355c9c"/>
    <circle cx="207" cy="326" r="5" fill="#fff" opacity=".75"/><circle cx="293" cy="326" r="5" fill="#fff" opacity=".75"/>
    <path d="M214 248 Q256 284 298 248" stroke="#d5efff" stroke-width="14" fill="none" stroke-linecap="round" opacity=".74"/>
    <path d="M188 560 C228 600 288 600 326 560" stroke="#fff" stroke-width="12" stroke-linecap="round" opacity=".18" fill="none"/>
  </g>
  <path d="M72 128 C168 68 334 66 440 128" stroke="#fff" stroke-width="16" stroke-linecap="round" opacity=".16"/>
  <path d="M60 678 C164 722 348 718 452 662" stroke="#fff" stroke-width="14" stroke-linecap="round" opacity=".16"/>
</svg>