<svg xmlns="http://www.w3.org/2000/svg" viewBox="0 0 512 768" role="img" aria-label="宝石甲虫 original portrait">
  
  <defs>
    <linearGradient id="bgp588" x1="0" y1="0" x2="1" y2="1">
      <stop offset="0" stop-color="#d9f67f"/>
      <stop offset=".55" stop-color="#86bd2d"/>
      <stop offset="1" stop-color="#3f6c1b"/>
    </linearGradient>
    <radialGradient id="body" cx=".36" cy=".25" r=".76">
      <stop offset="0" stop-color="#d9f67f"/>
      <stop offset=".6" stop-color="#86bd2d"/>
      <stop offset="1" stop-color="#3f6c1b"/>
    </radialGradient>
    <radialGradient id="head" cx=".36" cy=".26" r=".72">
      <stop offset="0" stop-color="#ffffff" stop-opacity=".85"/>
      <stop offset=".2" stop-color="#d9f67f"/>
      <stop offset=".72" stop-color="#86bd2d"/>
      <stop offset="1" stop-color="#3f6c1b"/>
    </radialGradient>
    <filter id="softShadow" x="-30%" y="-30%" width="160%" height="160%">
      <feDropShadow dx="0" dy="8" stdDeviation="8" flood-color="#3f6c1b" flood-opacity=".35"/>
    </filter>
  </defs>
  <rect width="512" height="768" rx="48" fill="url(#bgp588)"/>
  <rect x="24" y="24" width="464" height="720" rx="40" fill="#ffffff" opacity=".08"/>
  <g opacity=".42"><circle cx="334" cy="115" r="1.3" fill="#fff" opacity="0.39"/><circle cx="364" cy="340" r="3.0" fill="#fff" opacity="0.48"/><circle cx="240" cy="492" r="2.7" fill="#fff" opacity="0.56"/><circle cx="341" cy="85" r="2.5" fill="#fff" opacity="0.53"/><circle cx="445" cy="697" r="1.0" fill="#fff" opacity="0.37"/><circle cx="253" cy="650" r="1.6" fill="#fff" opacity="0.28"/><circle cx="42" cy="753" r="2.6" fill="#fff" opacity="0.35"/><circle cx="65" cy="235" r="3.1" fill="#fff" opacity="0.37"/><circle cx="84" cy="26" r="2.3" fill="#fff" opacity="0.47"/><circle cx="317" cy="176" r="2.8" fill="#fff" opacity="0.31"/><circle cx="242" cy="370" r="1.7" fill="#fff" opacity="0.58"/><circle cx="510" cy="747" r="1.1" fill="#fff" opacity="0.49"/><circle cx="67" cy="468" r="1.4" fill="#fff" opacity="0.45"/><circle cx="440" cy="515" r="1.3" fill="#fff" opacity="0.30"/><circle cx="36" cy="704" r="2.6" fill="#fff" opacity="0.66"/><circle cx="348" cy="280" r="2.7" fill="#fff" opacity="0.58"/><circle cx="55" cy="527" r="2.5" fill="#fff" opacity="0.44"/><circle cx="408" cy="670" r="1.7" fill="#fff" opacity="0.56"/><circle cx="136" cy="157" r="1.0" fill="#fff" opacity="0.50"/><circle cx="25" cy="379" r="2.8" fill="#fff" opacity="0.63"/><circle cx="371" cy="245" r="2.3" fill="#fff" opacity="0.30"/><circle cx="500" cy="533" r="1.7" fill="#fff" opacity="0.41"/><circle cx="263" cy="104" r="2.7" fill="#fff" opacity="0.61"/><circle cx="332" cy="640" r="2.4" fill="#fff" opacity="0.29"/><circle cx="248" cy="538" r="2.3" fill="#fff" opacity="0.66"/><circle cx="12" cy="187" r="1.8" fill="#fff" opacity="0.46"/><circle cx="347" cy="295" r="2.9" fill="#fff" opacity="0.37"/><circle cx="450" cy="2" r="3.2" fill="#fff" opacity="0.32"/></g>
  <path d="M69 625 C150 571 359 568 443 628" fill="#86bd2d" opacity=".14"/>
  <ellipse cx="256" cy="662" rx="150" ry="34" fill="#3f6c1b" opacity=".28"/>
  <g transform="translate(0 122)">
    <ellipse cx="178.10000000000002" cy="257.2" rx="69.69999999999999" ry="100.44999999999999" fill="#d9f67f" opacity=".55"/><ellipse cx="333.9" cy="257.2" rx="69.69999999999999" ry="100.44999999999999" fill="#d9f67f" opacity=".55"/><ellipse cx="256" cy="331" rx="65.6" ry="122.99999999999999" fill="url(#body)" filter="url(#softShadow)"/><circle cx="256" cy="214.15" r="69.69999999999999" fill="url(#head)"/><path d="M219.1 160.85000000000002 Q174 93.20000000000002 118.65 117.80000000000001" stroke="#3f6c1b" stroke-width="10.25" fill="none" stroke-linecap="round"/><path d="M292.9 160.85000000000002 Q338 93.20000000000002 393.35 117.80000000000001" stroke="#3f6c1b" stroke-width="10.25" fill="none" stroke-linecap="round"/><path d="M198.60000000000002 322.8 H313.4 M206.8 376.1 H305.2" stroke="#3f6c1b" stroke-width="8.2" opacity=".35"/><ellipse cx="223.2" cy="253.1" rx="14.349999999999998" ry="16.4" fill="#14213d"/><ellipse cx="288.8" cy="253.1" rx="14.349999999999998" ry="16.4" fill="#14213d"/><circle cx="229.35" cy="244.9" r="4.714999999999999" fill="#fff"/><circle cx="294.95" cy="244.9" r="4.714999999999999" fill="#fff"/><circle cx="256" cy="210.05" r="14.349999999999998" fill="#d9f67f" opacity=".9"/>
  </g>
  <path d="M74 126 C170 65 334 65 438 126" stroke="#fff" stroke-width="16" stroke-linecap="round" opacity=".16"/>
  <path d="M63 676 C162 718 344 718 449 662" stroke="#fff" stroke-width="14" stroke-linecap="round" opacity=".16"/>
</svg>