<svg xmlns="http://www.w3.org/2000/svg" viewBox="0 0 512 768" role="img" aria-label="钻石独角仙 original portrait">
  
  <defs>
    <linearGradient id="bgp589" x1="0" y1="0" x2="1" y2="1">
      <stop offset="0" stop-color="#d9f67f"/>
      <stop offset=".55" stop-color="#86bd2d"/>
      <stop offset="1" stop-color="#3f6c1b"/>
    </linearGradient>
    <radialGradient id="body" cx=".36" cy=".25" r=".76">
      <stop offset="0" stop-color="#d9f67f"/>
      <stop offset=".6" stop-color="#86bd2d"/>
      <stop offset="1" stop-color="#3f6c1b"/>
    </radialGradient>
    <radialGradient id="head" cx=".36" cy=".26" r=".72">
      <stop offset="0" stop-color="#ffffff" stop-opacity=".85"/>
      <stop offset=".2" stop-color="#d9f67f"/>
      <stop offset=".72" stop-color="#86bd2d"/>
      <stop offset="1" stop-color="#3f6c1b"/>
    </radialGradient>
    <filter id="softShadow" x="-30%" y="-30%" width="160%" height="160%">
      <feDropShadow dx="0" dy="8" stdDeviation="8" flood-color="#3f6c1b" flood-opacity=".35"/>
    </filter>
  </defs>
  <rect width="512" height="768" rx="48" fill="url(#bgp589)"/>
  <rect x="24" y="24" width="464" height="720" rx="40" fill="#ffffff" opacity=".08"/>
  <g opacity=".42"><circle cx="200" cy="597" r="3.1" fill="#fff" opacity="0.70"/><circle cx="223" cy="240" r="2.6" fill="#fff" opacity="0.32"/><circle cx="206" cy="760" r="2.3" fill="#fff" opacity="0.58"/><circle cx="244" cy="291" r="1.1" fill="#fff" opacity="0.53"/><circle cx="165" cy="231" r="1.7" fill="#fff" opacity="0.36"/><circle cx="288" cy="652" r="0.8" fill="#fff" opacity="0.63"/><circle cx="10" cy="586" r="1.8" fill="#fff" opacity="0.28"/><circle cx="24" cy="715" r="1.3" fill="#fff" opacity="0.51"/><circle cx="67" cy="538" r="2.2" fill="#fff" opacity="0.43"/><circle cx="14" cy="141" r="1.6" fill="#fff" opacity="0.35"/><circle cx="474" cy="641" r="1.7" fill="#fff" opacity="0.48"/><circle cx="359" cy="243" r="2.9" fill="#fff" opacity="0.69"/><circle cx="272" cy="42" r="1.1" fill="#fff" opacity="0.37"/><circle cx="273" cy="292" r="2.8" fill="#fff" opacity="0.54"/><circle cx="338" cy="553" r="1.6" fill="#fff" opacity="0.46"/><circle cx="509" cy="211" r="3.0" fill="#fff" opacity="0.63"/><circle cx="277" cy="661" r="1.1" fill="#fff" opacity="0.67"/><circle cx="366" cy="131" r="2.7" fill="#fff" opacity="0.50"/><circle cx="491" cy="433" r="1.4" fill="#fff" opacity="0.45"/><circle cx="268" cy="180" r="2.1" fill="#fff" opacity="0.52"/><circle cx="491" cy="598" r="3.0" fill="#fff" opacity="0.57"/><circle cx="40" cy="92" r="1.2" fill="#fff" opacity="0.37"/><circle cx="453" cy="521" r="2.1" fill="#fff" opacity="0.67"/><circle cx="195" cy="90" r="2.5" fill="#fff" opacity="0.34"/><circle cx="474" cy="428" r="1.9" fill="#fff" opacity="0.29"/><circle cx="13" cy="51" r="1.8" fill="#fff" opacity="0.54"/><circle cx="355" cy="700" r="2.5" fill="#fff" opacity="0.66"/><circle cx="33" cy="156" r="1.9" fill="#fff" opacity="0.64"/></g>
  <path d="M24 680 L110 610 L186 666 L272 592 L356 674 L445 626 L512 704 V768 H0V704Z" fill="#3f6c1b" opacity=".18"/>
  <ellipse cx="256" cy="662" rx="150" ry="34" fill="#3f6c1b" opacity=".28"/>
  <g transform="translate(0 122)">
    <path d="M149.4 228.5 L219.1 156.75 H311.35 L376.95 242.85 L346.2 394.55 H163.75 Z" fill="url(#body)" filter="url(#softShadow)"/><path d="M198.60000000000002 179.3 L245.75 91.15 L280.6 171.10000000000002 Z" fill="#d9f67f"/><path d="M290.85 183.4 L344.15 113.70000000000002 L342.1 210.05 Z" fill="#86bd2d"/><rect x="194.5" y="277.7" width="122.99999999999999" height="30.749999999999996" rx="14.349999999999998" fill="#3f6c1b" opacity=".38"/><circle cx="227.3" cy="292.05" r="10.25" fill="#d9f67f"/><circle cx="284.7" cy="292.05" r="10.25" fill="#d9f67f"/><path d="M215 201.85000000000002 Q256 224.4 297 201.85000000000002" stroke="#d9f67f" stroke-width="10.25" fill="none" stroke-linecap="round" opacity=".8"/>
  </g>
  <path d="M74 126 C170 65 334 65 438 126" stroke="#fff" stroke-width="16" stroke-linecap="round" opacity=".16"/>
  <path d="M63 676 C162 718 344 718 449 662" stroke="#fff" stroke-width="14" stroke-linecap="round" opacity=".16"/>
</svg>