<svg xmlns="http://www.w3.org/2000/svg" viewBox="0 0 512 768" role="img" aria-label="化石翼龙 original portrait">
  
  <defs>
    <linearGradient id="bgp593" x1="0" y1="0" x2="1" y2="1">
      <stop offset="0" stop-color="#ddd0b2"/>
      <stop offset=".55" stop-color="#8d7a5f"/>
      <stop offset="1" stop-color="#514438"/>
    </linearGradient>
    <radialGradient id="body" cx=".36" cy=".25" r=".76">
      <stop offset="0" stop-color="#ddd0b2"/>
      <stop offset=".6" stop-color="#8d7a5f"/>
      <stop offset="1" stop-color="#514438"/>
    </radialGradient>
    <radialGradient id="head" cx=".36" cy=".26" r=".72">
      <stop offset="0" stop-color="#ffffff" stop-opacity=".85"/>
      <stop offset=".2" stop-color="#ddd0b2"/>
      <stop offset=".72" stop-color="#8d7a5f"/>
      <stop offset="1" stop-color="#514438"/>
    </radialGradient>
    <filter id="softShadow" x="-30%" y="-30%" width="160%" height="160%">
      <feDropShadow dx="0" dy="8" stdDeviation="8" flood-color="#514438" flood-opacity=".35"/>
    </filter>
  </defs>
  <rect width="512" height="768" rx="48" fill="url(#bgp593)"/>
  <rect x="24" y="24" width="464" height="720" rx="40" fill="#ffffff" opacity=".08"/>
  <g opacity=".42"><circle cx="133" cy="235" r="2.4" fill="#fff" opacity="0.54"/><circle cx="165" cy="219" r="3.1" fill="#fff" opacity="0.34"/><circle cx="127" cy="594" r="2.1" fill="#fff" opacity="0.27"/><circle cx="317" cy="498" r="1.7" fill="#fff" opacity="0.46"/><circle cx="307" cy="495" r="3.2" fill="#fff" opacity="0.40"/><circle cx="7" cy="84" r="2.5" fill="#fff" opacity="0.65"/><circle cx="60" cy="280" r="1.2" fill="#fff" opacity="0.62"/><circle cx="333" cy="84" r="3.2" fill="#fff" opacity="0.26"/><circle cx="494" cy="639" r="3.2" fill="#fff" opacity="0.52"/><circle cx="128" cy="279" r="3.0" fill="#fff" opacity="0.65"/><circle cx="398" cy="461" r="0.9" fill="#fff" opacity="0.66"/><circle cx="3" cy="439" r="2.8" fill="#fff" opacity="0.31"/><circle cx="164" cy="226" r="1.5" fill="#fff" opacity="0.54"/><circle cx="441" cy="692" r="2.3" fill="#fff" opacity="0.39"/><circle cx="360" cy="459" r="2.9" fill="#fff" opacity="0.28"/><circle cx="120" cy="109" r="3.1" fill="#fff" opacity="0.70"/><circle cx="286" cy="476" r="1.8" fill="#fff" opacity="0.50"/><circle cx="146" cy="250" r="0.8" fill="#fff" opacity="0.27"/><circle cx="135" cy="763" r="2.4" fill="#fff" opacity="0.67"/><circle cx="203" cy="639" r="1.7" fill="#fff" opacity="0.51"/><circle cx="507" cy="95" r="3.1" fill="#fff" opacity="0.53"/><circle cx="431" cy="262" r="2.5" fill="#fff" opacity="0.69"/><circle cx="140" cy="301" r="0.8" fill="#fff" opacity="0.30"/><circle cx="457" cy="645" r="2.8" fill="#fff" opacity="0.50"/><circle cx="502" cy="532" r="2.9" fill="#fff" opacity="0.45"/><circle cx="461" cy="268" r="2.6" fill="#fff" opacity="0.66"/><circle cx="196" cy="602" r="1.7" fill="#fff" opacity="0.44"/><circle cx="451" cy="278" r="3.2" fill="#fff" opacity="0.63"/></g>
  <path d="M70 600 C142 504 297 500 443 610" fill="#514438" opacity=".18"/><path d="M52 642 C146 578 341 580 471 650" fill="#514438" opacity=".16"/>
  <ellipse cx="256" cy="662" rx="150" ry="34" fill="#514438" opacity=".28"/>
  <g transform="translate(0 122)">
    <path d="M108.4 347.4 C161.7 224.4 292.9 175.20000000000002 389.25 253.1 C325.7 249 276.5 285.9 247.8 376.1" fill="#514438" opacity=".45"/><ellipse cx="256" cy="335.1" rx="110.69999999999999" ry="92.24999999999999" fill="url(#body)" filter="url(#softShadow)"/><path d="M167.85000000000002 253.1 L219.1 130.10000000000002 L249.85 244.9 Z" fill="#8d7a5f"/><path d="M344.15 253.1 L292.9 130.10000000000002 L262.15 244.9 Z" fill="#8d7a5f"/><ellipse cx="256" cy="267.45" rx="96.35" ry="86.1" fill="url(#head)"/><path d="M151.45 292.05 Q87.9 298.2 63.30000000000001 253.1" stroke="#ddd0b2" stroke-width="10.25" fill="none" stroke-linecap="round" opacity=".85"/><path d="M360.55 292.05 Q424.1 298.2 448.7 253.1" stroke="#ddd0b2" stroke-width="10.25" fill="none" stroke-linecap="round" opacity=".85"/><ellipse cx="223.2" cy="253.1" rx="14.349999999999998" ry="16.4" fill="#14213d"/><ellipse cx="288.8" cy="253.1" rx="14.349999999999998" ry="16.4" fill="#14213d"/><circle cx="229.35" cy="244.9" r="4.714999999999999" fill="#fff"/><circle cx="294.95" cy="244.9" r="4.714999999999999" fill="#fff"/><circle cx="256" cy="210.05" r="14.349999999999998" fill="#ddd0b2" opacity=".9"/>
  </g>
  <path d="M74 126 C170 65 334 65 438 126" stroke="#fff" stroke-width="16" stroke-linecap="round" opacity=".16"/>
  <path d="M63 676 C162 718 344 718 449 662" stroke="#fff" stroke-width="14" stroke-linecap="round" opacity=".16"/>
</svg>