<svg xmlns="http://www.w3.org/2000/svg" viewBox="0 0 512 768" role="img" aria-label="古翼岩龙 unique portrait">
  <defs>
    <linearGradient id="bg593" x1="0" y1="0" x2="1" y2="1"><stop offset="0" stop-color="#d6c2a4"/><stop offset=".55" stop-color="#8d6e63"/><stop offset="1" stop-color="#4a3830"/></linearGradient>
    <radialGradient id="body593" cx=".35" cy=".24" r=".78"><stop offset="0" stop-color="#fff" stop-opacity=".88"/><stop offset=".18" stop-color="#d6c2a4"/><stop offset=".68" stop-color="#8d6e63"/><stop offset="1" stop-color="#4a3830"/></radialGradient>
    <filter id="shadow593" x="-30%" y="-30%" width="160%" height="160%"><feDropShadow dx="0" dy="10" stdDeviation="9" flood-color="#4a3830" flood-opacity=".36"/></filter>
  </defs>
  <rect width="512" height="768" rx="48" fill="url(#bg593)"/>
  <rect x="24" y="24" width="464" height="720" rx="40" fill="#fff" opacity=".08"/>
  <g opacity=".46"><circle cx="302" cy="208" r="3.4" fill="#fff" opacity="0.26"/><circle cx="95" cy="371" r="5.2" fill="#fff" opacity="0.41"/><circle cx="386" cy="622" r="4.5" fill="#fff" opacity="0.51"/><circle cx="196" cy="468" r="3.2" fill="#fff" opacity="0.40"/><circle cx="343" cy="76" r="5.3" fill="#fff" opacity="0.54"/><circle cx="117" cy="457" r="1.8" fill="#fff" opacity="0.28"/><circle cx="69" cy="218" r="1.4" fill="#fff" opacity="0.57"/><circle cx="84" cy="61" r="3.2" fill="#fff" opacity="0.25"/><circle cx="118" cy="453" r="1.3" fill="#fff" opacity="0.55"/><circle cx="362" cy="564" r="5.3" fill="#fff" opacity="0.42"/><circle cx="123" cy="571" r="2.6" fill="#fff" opacity="0.45"/><circle cx="149" cy="293" r="2.0" fill="#fff" opacity="0.33"/><circle cx="290" cy="293" r="4.0" fill="#fff" opacity="0.57"/><circle cx="197" cy="306" r="1.7" fill="#fff" opacity="0.28"/><circle cx="117" cy="438" r="3.5" fill="#fff" opacity="0.58"/><circle cx="412" cy="482" r="1.9" fill="#fff" opacity="0.33"/><circle cx="252" cy="62" r="3.8" fill="#fff" opacity="0.62"/></g>
  <path d="M0 596 C80 558 128 616 202 584 C281 550 332 618 418 582 C464 563 492 570 512 586 V768 H0Z" fill="#4a3830" opacity=".22"/>
  <ellipse cx="256" cy="664" rx="154" ry="36" fill="#4a3830" opacity=".3"/>
  <g transform="translate(0 84)"><path d="M156 354 C66 314 56 218 150 238 C126 274 138 319 190 338 Z" fill="#8d6e63" opacity=".58"/><path d="M356 354 C446 314 456 218 362 238 C386 274 374 319 322 338 Z" fill="#8d6e63" opacity=".58"/><path d="M151 500 C116 338 160 190 256 170 C352 190 396 338 361 500 C320 466 291 532 256 490 C221 532 192 466 151 500Z" fill="url(#body593)" filter="url(#shadow593)"/>
    <circle cx="216" cy="339" r="17" fill="#101827"/><circle cx="296" cy="339" r="17" fill="#101827"/>
    <circle cx="210" cy="333" r="5" fill="#fff" opacity=".75"/><circle cx="290" cy="333" r="5" fill="#fff" opacity=".75"/>
    <path d="M206 410 Q256 442 306 410" stroke="#4a3830" stroke-width="12" fill="none" stroke-linecap="round" opacity=".72"/>
    <path d="M188 560 C228 600 288 600 326 560" stroke="#fff" stroke-width="12" stroke-linecap="round" opacity=".18" fill="none"/>
  </g>
  <path d="M72 128 C168 68 334 66 440 128" stroke="#fff" stroke-width="16" stroke-linecap="round" opacity=".16"/>
  <path d="M60 678 C164 722 348 718 452 662" stroke="#fff" stroke-width="14" stroke-linecap="round" opacity=".16"/>
</svg>