<svg xmlns="http://www.w3.org/2000/svg" viewBox="0 0 512 768" role="img" aria-label="翠晶飞龙 unique portrait">
  <defs>
    <linearGradient id="bg598" x1="0" y1="0" x2="1" y2="1"><stop offset="0" stop-color="#c4b5fd"/><stop offset=".55" stop-color="#6d5dfc"/><stop offset="1" stop-color="#2b247a"/></linearGradient>
    <radialGradient id="body598" cx=".35" cy=".24" r=".78"><stop offset="0" stop-color="#fff" stop-opacity=".88"/><stop offset=".18" stop-color="#c4b5fd"/><stop offset=".68" stop-color="#6d5dfc"/><stop offset="1" stop-color="#2b247a"/></radialGradient>
    <filter id="shadow598" x="-30%" y="-30%" width="160%" height="160%"><feDropShadow dx="0" dy="10" stdDeviation="9" flood-color="#2b247a" flood-opacity=".36"/></filter>
  </defs>
  <rect width="512" height="768" rx="48" fill="url(#bg598)"/>
  <rect x="24" y="24" width="464" height="720" rx="40" fill="#fff" opacity=".08"/>
  <g opacity=".46"><circle cx="367" cy="311" r="4.1" fill="#fff" opacity="0.38"/><circle cx="344" cy="266" r="1.3" fill="#fff" opacity="0.45"/><circle cx="300" cy="553" r="5.2" fill="#fff" opacity="0.41"/><circle cx="108" cy="559" r="1.2" fill="#fff" opacity="0.58"/><circle cx="322" cy="438" r="4.2" fill="#fff" opacity="0.31"/><circle cx="145" cy="224" r="4.1" fill="#fff" opacity="0.52"/><circle cx="226" cy="317" r="4.9" fill="#fff" opacity="0.53"/><circle cx="306" cy="193" r="2.0" fill="#fff" opacity="0.43"/><circle cx="297" cy="167" r="1.3" fill="#fff" opacity="0.46"/><circle cx="161" cy="537" r="3.2" fill="#fff" opacity="0.57"/><circle cx="337" cy="470" r="4.6" fill="#fff" opacity="0.60"/><circle cx="357" cy="344" r="3.7" fill="#fff" opacity="0.46"/><circle cx="459" cy="404" r="2.9" fill="#fff" opacity="0.40"/></g>
  <path d="M0 596 C80 558 128 616 202 584 C281 550 332 618 418 582 C464 563 492 570 512 586 V768 H0Z" fill="#2b247a" opacity=".22"/>
  <ellipse cx="256" cy="664" rx="154" ry="36" fill="#2b247a" opacity=".3"/>
  <g transform="translate(0 84)"><path d="M316 492 C426 508 425 604 334 594 C391 562 368 528 302 536" fill="none" stroke="#6d5dfc" stroke-width="34" stroke-linecap="round" opacity=".72"/><path d="M178 196 L133 114 L221 170 Z" fill="#6d5dfc" opacity=".8"/><path d="M334 196 L379 114 L291 170 Z" fill="#6d5dfc" opacity=".8"/><path d="M151 500 C116 338 160 190 256 170 C352 190 396 338 361 500 C320 466 291 532 256 490 C221 532 192 466 151 500Z" fill="url(#body598)" filter="url(#shadow598)"/>
    <circle cx="218" cy="325" r="17" fill="#101827"/><circle cx="294" cy="325" r="17" fill="#101827"/>
    <circle cx="212" cy="319" r="5" fill="#fff" opacity=".75"/><circle cx="288" cy="319" r="5" fill="#fff" opacity=".75"/>
    <path d="M206 410 Q256 442 306 410" stroke="#2b247a" stroke-width="12" fill="none" stroke-linecap="round" opacity=".72"/>
    <path d="M188 560 C228 600 288 600 326 560" stroke="#fff" stroke-width="12" stroke-linecap="round" opacity=".18" fill="none"/>
  </g>
  <path d="M72 128 C168 68 334 66 440 128" stroke="#fff" stroke-width="16" stroke-linecap="round" opacity=".16"/>
  <path d="M60 678 C164 722 348 718 452 662" stroke="#fff" stroke-width="14" stroke-linecap="round" opacity=".16"/>
</svg>