<svg xmlns="http://www.w3.org/2000/svg" viewBox="0 0 512 768" role="img" aria-label="星之子 original portrait">
  
  <defs>
    <linearGradient id="bgp60" x1="0" y1="0" x2="1" y2="1">
      <stop offset="0" stop-color="#ffd7f3"/>
      <stop offset=".55" stop-color="#f47ac2"/>
      <stop offset="1" stop-color="#8e3b89"/>
    </linearGradient>
    <radialGradient id="body" cx=".36" cy=".25" r=".76">
      <stop offset="0" stop-color="#ffd7f3"/>
      <stop offset=".6" stop-color="#f47ac2"/>
      <stop offset="1" stop-color="#8e3b89"/>
    </radialGradient>
    <radialGradient id="head" cx=".36" cy=".26" r=".72">
      <stop offset="0" stop-color="#ffffff" stop-opacity=".85"/>
      <stop offset=".2" stop-color="#ffd7f3"/>
      <stop offset=".72" stop-color="#f47ac2"/>
      <stop offset="1" stop-color="#8e3b89"/>
    </radialGradient>
    <filter id="softShadow" x="-30%" y="-30%" width="160%" height="160%">
      <feDropShadow dx="0" dy="8" stdDeviation="8" flood-color="#8e3b89" flood-opacity=".35"/>
    </filter>
  </defs>
  <rect width="512" height="768" rx="48" fill="url(#bgp60)"/>
  <rect x="24" y="24" width="464" height="720" rx="40" fill="#ffffff" opacity=".08"/>
  <g opacity=".42"><circle cx="245" cy="474" r="2.1" fill="#fff" opacity="0.43"/><circle cx="298" cy="110" r="1.5" fill="#fff" opacity="0.26"/><circle cx="384" cy="540" r="2.6" fill="#fff" opacity="0.33"/><circle cx="281" cy="558" r="3.1" fill="#fff" opacity="0.31"/><circle cx="210" cy="314" r="2.6" fill="#fff" opacity="0.31"/><circle cx="434" cy="348" r="2.8" fill="#fff" opacity="0.69"/><circle cx="36" cy="738" r="1.9" fill="#fff" opacity="0.42"/><circle cx="65" cy="224" r="2.1" fill="#fff" opacity="0.59"/><circle cx="199" cy="761" r="1.8" fill="#fff" opacity="0.46"/><circle cx="273" cy="309" r="1.6" fill="#fff" opacity="0.34"/><circle cx="482" cy="392" r="1.0" fill="#fff" opacity="0.66"/><circle cx="91" cy="137" r="1.0" fill="#fff" opacity="0.42"/><circle cx="202" cy="399" r="2.6" fill="#fff" opacity="0.56"/><circle cx="310" cy="762" r="0.9" fill="#fff" opacity="0.61"/><circle cx="352" cy="592" r="3.1" fill="#fff" opacity="0.63"/><circle cx="221" cy="102" r="1.8" fill="#fff" opacity="0.51"/><circle cx="203" cy="477" r="2.9" fill="#fff" opacity="0.45"/><circle cx="491" cy="421" r="1.9" fill="#fff" opacity="0.67"/><circle cx="462" cy="353" r="1.4" fill="#fff" opacity="0.52"/><circle cx="328" cy="691" r="1.1" fill="#fff" opacity="0.29"/><circle cx="472" cy="475" r="1.1" fill="#fff" opacity="0.55"/><circle cx="189" cy="78" r="1.0" fill="#fff" opacity="0.57"/><circle cx="342" cy="231" r="1.7" fill="#fff" opacity="0.45"/><circle cx="414" cy="667" r="2.9" fill="#fff" opacity="0.39"/><circle cx="342" cy="230" r="3.1" fill="#fff" opacity="0.46"/><circle cx="8" cy="167" r="1.0" fill="#fff" opacity="0.26"/><circle cx="385" cy="265" r="1.5" fill="#fff" opacity="0.52"/><circle cx="235" cy="621" r="2.7" fill="#fff" opacity="0.30"/></g>
  <circle cx="256" cy="294" r="202" fill="#ffd7f3" opacity=".12"/><circle cx="256" cy="294" r="160" fill="#fff" opacity=".1"/>
  <ellipse cx="256" cy="662" rx="150" ry="34" fill="#8e3b89" opacity=".28"/>
  <g transform="translate(0 122)">
    <ellipse cx="256" cy="339.2" rx="100.44999999999999" ry="112.74999999999999" fill="url(#body)" filter="url(#softShadow)"/><circle cx="256" cy="226.45" r="79.94999999999999" fill="url(#head)"/><ellipse cx="256" cy="214.15" rx="139.39999999999998" ry="36.9" fill="none" stroke="#ffd7f3" stroke-width="14.349999999999998" opacity=".75" transform="rotate(-12 256 214.15)"/><path d="M256 103.45000000000002 L276.5 154.70000000000002 L333.9 156.75 L286.75 187.5 L303.15 242.85 L256 208 L208.85 242.85 L225.25 187.5 L178.10000000000002 156.75 L235.5 154.70000000000002 Z" fill="#f47ac2"/><ellipse cx="223.2" cy="253.1" rx="14.349999999999998" ry="16.4" fill="#14213d"/><ellipse cx="288.8" cy="253.1" rx="14.349999999999998" ry="16.4" fill="#14213d"/><circle cx="229.35" cy="244.9" r="4.714999999999999" fill="#fff"/><circle cx="294.95" cy="244.9" r="4.714999999999999" fill="#fff"/><circle cx="256" cy="210.05" r="14.349999999999998" fill="#ffd7f3" opacity=".9"/>
  </g>
  <path d="M74 126 C170 65 334 65 438 126" stroke="#fff" stroke-width="16" stroke-linecap="round" opacity=".16"/>
  <path d="M63 676 C162 718 344 718 449 662" stroke="#fff" stroke-width="14" stroke-linecap="round" opacity=".16"/>
</svg>