<svg xmlns="http://www.w3.org/2000/svg" viewBox="0 0 512 768" role="img" aria-label="岚神·风伯 original portrait">
  
  <defs>
    <linearGradient id="bgp601" x1="0" y1="0" x2="1" y2="1">
      <stop offset="0" stop-color="#d6fff8"/>
      <stop offset=".55" stop-color="#55c8b8"/>
      <stop offset="1" stop-color="#257173"/>
    </linearGradient>
    <radialGradient id="body" cx=".36" cy=".25" r=".76">
      <stop offset="0" stop-color="#d6fff8"/>
      <stop offset=".6" stop-color="#55c8b8"/>
      <stop offset="1" stop-color="#257173"/>
    </radialGradient>
    <radialGradient id="head" cx=".36" cy=".26" r=".72">
      <stop offset="0" stop-color="#ffffff" stop-opacity=".85"/>
      <stop offset=".2" stop-color="#d6fff8"/>
      <stop offset=".72" stop-color="#55c8b8"/>
      <stop offset="1" stop-color="#257173"/>
    </radialGradient>
    <filter id="softShadow" x="-30%" y="-30%" width="160%" height="160%">
      <feDropShadow dx="0" dy="8" stdDeviation="8" flood-color="#257173" flood-opacity=".35"/>
    </filter>
  </defs>
  <rect width="512" height="768" rx="48" fill="url(#bgp601)"/>
  <rect x="24" y="24" width="464" height="720" rx="40" fill="#ffffff" opacity=".08"/>
  <g opacity=".42"><circle cx="188" cy="299" r="2.5" fill="#fff" opacity="0.54"/><circle cx="280" cy="641" r="1.8" fill="#fff" opacity="0.33"/><circle cx="426" cy="268" r="2.4" fill="#fff" opacity="0.39"/><circle cx="251" cy="337" r="2.1" fill="#fff" opacity="0.63"/><circle cx="211" cy="616" r="1.1" fill="#fff" opacity="0.63"/><circle cx="489" cy="477" r="2.1" fill="#fff" opacity="0.51"/><circle cx="36" cy="344" r="1.5" fill="#fff" opacity="0.64"/><circle cx="115" cy="274" r="2.0" fill="#fff" opacity="0.55"/><circle cx="197" cy="247" r="2.1" fill="#fff" opacity="0.44"/><circle cx="369" cy="765" r="2.0" fill="#fff" opacity="0.29"/><circle cx="259" cy="589" r="2.3" fill="#fff" opacity="0.58"/><circle cx="499" cy="131" r="1.5" fill="#fff" opacity="0.59"/><circle cx="131" cy="314" r="1.4" fill="#fff" opacity="0.35"/><circle cx="359" cy="29" r="2.9" fill="#fff" opacity="0.41"/><circle cx="148" cy="106" r="1.7" fill="#fff" opacity="0.57"/><circle cx="291" cy="114" r="2.1" fill="#fff" opacity="0.69"/><circle cx="399" cy="367" r="2.7" fill="#fff" opacity="0.58"/><circle cx="87" cy="224" r="1.6" fill="#fff" opacity="0.53"/><circle cx="204" cy="599" r="2.2" fill="#fff" opacity="0.42"/><circle cx="409" cy="487" r="3.0" fill="#fff" opacity="0.56"/><circle cx="371" cy="239" r="2.4" fill="#fff" opacity="0.27"/><circle cx="350" cy="717" r="2.6" fill="#fff" opacity="0.60"/><circle cx="464" cy="680" r="2.0" fill="#fff" opacity="0.52"/><circle cx="197" cy="342" r="1.9" fill="#fff" opacity="0.63"/><circle cx="357" cy="545" r="1.6" fill="#fff" opacity="0.65"/><circle cx="357" cy="706" r="1.4" fill="#fff" opacity="0.65"/><circle cx="334" cy="62" r="2.5" fill="#fff" opacity="0.44"/><circle cx="412" cy="382" r="2.4" fill="#fff" opacity="0.70"/></g>
  <circle cx="256" cy="294" r="184" fill="#d6fff8" opacity=".12"/><circle cx="256" cy="294" r="142" fill="#fff" opacity=".1"/>
  <ellipse cx="256" cy="662" rx="150" ry="34" fill="#257173" opacity=".28"/>
  <g transform="translate(0 122)">
    <ellipse cx="256" cy="339.2" rx="100.44999999999999" ry="112.74999999999999" fill="url(#body)" filter="url(#softShadow)"/><circle cx="256" cy="226.45" r="79.94999999999999" fill="url(#head)"/><ellipse cx="256" cy="214.15" rx="139.39999999999998" ry="36.9" fill="none" stroke="#d6fff8" stroke-width="14.349999999999998" opacity=".75" transform="rotate(-12 256 214.15)"/><path d="M256 103.45000000000002 L276.5 154.70000000000002 L333.9 156.75 L286.75 187.5 L303.15 242.85 L256 208 L208.85 242.85 L225.25 187.5 L178.10000000000002 156.75 L235.5 154.70000000000002 Z" fill="#55c8b8"/><ellipse cx="223.2" cy="253.1" rx="14.349999999999998" ry="16.4" fill="#14213d"/><ellipse cx="288.8" cy="253.1" rx="14.349999999999998" ry="16.4" fill="#14213d"/><circle cx="229.35" cy="244.9" r="4.714999999999999" fill="#fff"/><circle cx="294.95" cy="244.9" r="4.714999999999999" fill="#fff"/><path d="M215 201.85000000000002 Q256 224.4 297 201.85000000000002" stroke="#d6fff8" stroke-width="10.25" fill="none" stroke-linecap="round" opacity=".8"/>
  </g>
  <path d="M74 126 C170 65 334 65 438 126" stroke="#fff" stroke-width="16" stroke-linecap="round" opacity=".16"/>
  <path d="M63 676 C162 718 344 718 449 662" stroke="#fff" stroke-width="14" stroke-linecap="round" opacity=".16"/>
</svg>