<svg xmlns="http://www.w3.org/2000/svg" viewBox="0 0 512 768" role="img" aria-label="苍穹凤凰 original portrait">
  
  <defs>
    <linearGradient id="bgp602" x1="0" y1="0" x2="1" y2="1">
      <stop offset="0" stop-color="#d6fff8"/>
      <stop offset=".55" stop-color="#55c8b8"/>
      <stop offset="1" stop-color="#257173"/>
    </linearGradient>
    <radialGradient id="body" cx=".36" cy=".25" r=".76">
      <stop offset="0" stop-color="#d6fff8"/>
      <stop offset=".6" stop-color="#55c8b8"/>
      <stop offset="1" stop-color="#257173"/>
    </radialGradient>
    <radialGradient id="head" cx=".36" cy=".26" r=".72">
      <stop offset="0" stop-color="#ffffff" stop-opacity=".85"/>
      <stop offset=".2" stop-color="#d6fff8"/>
      <stop offset=".72" stop-color="#55c8b8"/>
      <stop offset="1" stop-color="#257173"/>
    </radialGradient>
    <filter id="softShadow" x="-30%" y="-30%" width="160%" height="160%">
      <feDropShadow dx="0" dy="8" stdDeviation="8" flood-color="#257173" flood-opacity=".35"/>
    </filter>
  </defs>
  <rect width="512" height="768" rx="48" fill="url(#bgp602)"/>
  <rect x="24" y="24" width="464" height="720" rx="40" fill="#ffffff" opacity=".08"/>
  <g opacity=".42"><circle cx="95" cy="276" r="2.7" fill="#fff" opacity="0.57"/><circle cx="124" cy="765" r="2.6" fill="#fff" opacity="0.60"/><circle cx="199" cy="584" r="3.2" fill="#fff" opacity="0.43"/><circle cx="447" cy="639" r="2.0" fill="#fff" opacity="0.29"/><circle cx="392" cy="255" r="3.1" fill="#fff" opacity="0.29"/><circle cx="325" cy="605" r="1.0" fill="#fff" opacity="0.56"/><circle cx="27" cy="150" r="1.8" fill="#fff" opacity="0.59"/><circle cx="296" cy="151" r="2.2" fill="#fff" opacity="0.49"/><circle cx="4" cy="603" r="2.8" fill="#fff" opacity="0.67"/><circle cx="180" cy="738" r="3.0" fill="#fff" opacity="0.47"/><circle cx="219" cy="334" r="2.0" fill="#fff" opacity="0.34"/><circle cx="488" cy="59" r="3.0" fill="#fff" opacity="0.68"/><circle cx="25" cy="565" r="1.5" fill="#fff" opacity="0.39"/><circle cx="71" cy="560" r="2.0" fill="#fff" opacity="0.47"/><circle cx="424" cy="766" r="1.9" fill="#fff" opacity="0.41"/><circle cx="312" cy="284" r="1.5" fill="#fff" opacity="0.57"/><circle cx="408" cy="214" r="0.9" fill="#fff" opacity="0.65"/><circle cx="293" cy="458" r="1.8" fill="#fff" opacity="0.58"/><circle cx="138" cy="56" r="2.0" fill="#fff" opacity="0.30"/><circle cx="201" cy="5" r="0.9" fill="#fff" opacity="0.60"/><circle cx="298" cy="549" r="1.9" fill="#fff" opacity="0.37"/><circle cx="344" cy="684" r="2.4" fill="#fff" opacity="0.47"/><circle cx="123" cy="501" r="1.1" fill="#fff" opacity="0.58"/><circle cx="431" cy="245" r="1.5" fill="#fff" opacity="0.39"/><circle cx="167" cy="574" r="0.8" fill="#fff" opacity="0.65"/><circle cx="463" cy="406" r="1.7" fill="#fff" opacity="0.43"/><circle cx="354" cy="207" r="1.9" fill="#fff" opacity="0.59"/><circle cx="219" cy="96" r="0.8" fill="#fff" opacity="0.63"/></g>
  <path d="M0 620 C92 590 171 620 259 600 C357 577 432 594 512 565 V768 H0Z" fill="#fff" opacity=".18"/>
  <ellipse cx="256" cy="662" rx="150" ry="34" fill="#257173" opacity=".28"/>
  <g transform="translate(0 122)">
    <path d="M219.1 306.4 C65.35000000000002 187.5 67.4 392.5 206.8 400.7" fill="#55c8b8" opacity=".78"/><path d="M292.9 306.4 C446.65 187.5 444.6 392.5 305.2 400.7" fill="#55c8b8" opacity=".78"/><ellipse cx="256" cy="343.3" rx="86.1" ry="110.69999999999999" fill="url(#body)" filter="url(#softShadow)"/><circle cx="256" cy="228.5" r="77.89999999999999" fill="url(#head)"/><path d="M245.75 226.45 L331.85 249 L249.85 269.5 Z" fill="#d6fff8"/><path d="M210.9 154.70000000000002 C239.6 89.10000000000002 280.6 109.60000000000002 260.1 167" fill="#257173" opacity=".85"/><ellipse cx="223.2" cy="253.1" rx="14.349999999999998" ry="16.4" fill="#14213d"/><ellipse cx="288.8" cy="253.1" rx="14.349999999999998" ry="16.4" fill="#14213d"/><circle cx="229.35" cy="244.9" r="4.714999999999999" fill="#fff"/><circle cx="294.95" cy="244.9" r="4.714999999999999" fill="#fff"/><path d="M256 183.4 L278.55 212.10000000000002 L256 242.85 L233.45 212.10000000000002 Z" fill="#d6fff8" opacity=".92"/>
  </g>
  <path d="M74 126 C170 65 334 65 438 126" stroke="#fff" stroke-width="16" stroke-linecap="round" opacity=".16"/>
  <path d="M63 676 C162 718 344 718 449 662" stroke="#fff" stroke-width="14" stroke-linecap="round" opacity=".16"/>
</svg>