<svg xmlns="http://www.w3.org/2000/svg" viewBox="0 0 512 768" role="img" aria-label="真空之主 original portrait">
  
  <defs>
    <linearGradient id="bgp603" x1="0" y1="0" x2="1" y2="1">
      <stop offset="0" stop-color="#d6fff8"/>
      <stop offset=".55" stop-color="#55c8b8"/>
      <stop offset="1" stop-color="#257173"/>
    </linearGradient>
    <radialGradient id="body" cx=".36" cy=".25" r=".76">
      <stop offset="0" stop-color="#d6fff8"/>
      <stop offset=".6" stop-color="#55c8b8"/>
      <stop offset="1" stop-color="#257173"/>
    </radialGradient>
    <radialGradient id="head" cx=".36" cy=".26" r=".72">
      <stop offset="0" stop-color="#ffffff" stop-opacity=".85"/>
      <stop offset=".2" stop-color="#d6fff8"/>
      <stop offset=".72" stop-color="#55c8b8"/>
      <stop offset="1" stop-color="#257173"/>
    </radialGradient>
    <filter id="softShadow" x="-30%" y="-30%" width="160%" height="160%">
      <feDropShadow dx="0" dy="8" stdDeviation="8" flood-color="#257173" flood-opacity=".35"/>
    </filter>
  </defs>
  <rect width="512" height="768" rx="48" fill="url(#bgp603)"/>
  <rect x="24" y="24" width="464" height="720" rx="40" fill="#ffffff" opacity=".08"/>
  <g opacity=".42"><circle cx="15" cy="51" r="1.1" fill="#fff" opacity="0.70"/><circle cx="151" cy="464" r="1.1" fill="#fff" opacity="0.36"/><circle cx="1" cy="293" r="1.5" fill="#fff" opacity="0.69"/><circle cx="404" cy="5" r="1.6" fill="#fff" opacity="0.60"/><circle cx="315" cy="81" r="1.4" fill="#fff" opacity="0.36"/><circle cx="177" cy="467" r="1.4" fill="#fff" opacity="0.48"/><circle cx="275" cy="300" r="1.5" fill="#fff" opacity="0.67"/><circle cx="171" cy="763" r="2.1" fill="#fff" opacity="0.31"/><circle cx="296" cy="432" r="1.8" fill="#fff" opacity="0.29"/><circle cx="131" cy="139" r="1.7" fill="#fff" opacity="0.44"/><circle cx="287" cy="30" r="0.9" fill="#fff" opacity="0.37"/><circle cx="221" cy="189" r="1.6" fill="#fff" opacity="0.60"/><circle cx="292" cy="399" r="1.1" fill="#fff" opacity="0.61"/><circle cx="56" cy="389" r="1.1" fill="#fff" opacity="0.28"/><circle cx="201" cy="528" r="1.4" fill="#fff" opacity="0.48"/><circle cx="47" cy="745" r="2.7" fill="#fff" opacity="0.38"/><circle cx="180" cy="110" r="3.2" fill="#fff" opacity="0.54"/><circle cx="45" cy="39" r="2.5" fill="#fff" opacity="0.66"/><circle cx="213" cy="66" r="1.1" fill="#fff" opacity="0.45"/><circle cx="306" cy="260" r="2.3" fill="#fff" opacity="0.45"/><circle cx="168" cy="200" r="1.4" fill="#fff" opacity="0.62"/><circle cx="393" cy="594" r="1.4" fill="#fff" opacity="0.35"/><circle cx="295" cy="48" r="1.4" fill="#fff" opacity="0.48"/><circle cx="309" cy="669" r="2.7" fill="#fff" opacity="0.35"/><circle cx="73" cy="58" r="0.8" fill="#fff" opacity="0.29"/><circle cx="213" cy="167" r="0.8" fill="#fff" opacity="0.45"/><circle cx="288" cy="664" r="1.5" fill="#fff" opacity="0.41"/><circle cx="328" cy="288" r="1.8" fill="#fff" opacity="0.58"/></g>
  <circle cx="256" cy="294" r="198" fill="#d6fff8" opacity=".12"/><circle cx="256" cy="294" r="156" fill="#fff" opacity=".1"/>
  <ellipse cx="256" cy="662" rx="150" ry="34" fill="#257173" opacity=".28"/>
  <g transform="translate(0 122)">
    <ellipse cx="256" cy="339.2" rx="100.44999999999999" ry="112.74999999999999" fill="url(#body)" filter="url(#softShadow)"/><circle cx="256" cy="226.45" r="79.94999999999999" fill="url(#head)"/><ellipse cx="256" cy="214.15" rx="139.39999999999998" ry="36.9" fill="none" stroke="#d6fff8" stroke-width="14.349999999999998" opacity=".75" transform="rotate(-12 256 214.15)"/><path d="M256 103.45000000000002 L276.5 154.70000000000002 L333.9 156.75 L286.75 187.5 L303.15 242.85 L256 208 L208.85 242.85 L225.25 187.5 L178.10000000000002 156.75 L235.5 154.70000000000002 Z" fill="#55c8b8"/><ellipse cx="223.2" cy="253.1" rx="14.349999999999998" ry="16.4" fill="#14213d"/><ellipse cx="288.8" cy="253.1" rx="14.349999999999998" ry="16.4" fill="#14213d"/><circle cx="229.35" cy="244.9" r="4.714999999999999" fill="#fff"/><circle cx="294.95" cy="244.9" r="4.714999999999999" fill="#fff"/><path d="M215 201.85000000000002 Q256 224.4 297 201.85000000000002" stroke="#d6fff8" stroke-width="10.25" fill="none" stroke-linecap="round" opacity=".8"/>
  </g>
  <path d="M74 126 C170 65 334 65 438 126" stroke="#fff" stroke-width="16" stroke-linecap="round" opacity=".16"/>
  <path d="M63 676 C162 718 344 718 449 662" stroke="#fff" stroke-width="14" stroke-linecap="round" opacity=".16"/>
</svg>