<svg xmlns="http://www.w3.org/2000/svg" viewBox="0 0 512 768" role="img" aria-label="天照大神 original portrait">
  
  <defs>
    <linearGradient id="bgp604" x1="0" y1="0" x2="1" y2="1">
      <stop offset="0" stop-color="#fffbe0"/>
      <stop offset=".55" stop-color="#f2cf62"/>
      <stop offset="1" stop-color="#80651c"/>
    </linearGradient>
    <radialGradient id="body" cx=".36" cy=".25" r=".76">
      <stop offset="0" stop-color="#fffbe0"/>
      <stop offset=".6" stop-color="#f2cf62"/>
      <stop offset="1" stop-color="#80651c"/>
    </radialGradient>
    <radialGradient id="head" cx=".36" cy=".26" r=".72">
      <stop offset="0" stop-color="#ffffff" stop-opacity=".85"/>
      <stop offset=".2" stop-color="#fffbe0"/>
      <stop offset=".72" stop-color="#f2cf62"/>
      <stop offset="1" stop-color="#80651c"/>
    </radialGradient>
    <filter id="softShadow" x="-30%" y="-30%" width="160%" height="160%">
      <feDropShadow dx="0" dy="8" stdDeviation="8" flood-color="#80651c" flood-opacity=".35"/>
    </filter>
  </defs>
  <rect width="512" height="768" rx="48" fill="url(#bgp604)"/>
  <rect x="24" y="24" width="464" height="720" rx="40" fill="#ffffff" opacity=".08"/>
  <g opacity=".42"><circle cx="112" cy="225" r="1.3" fill="#fff" opacity="0.36"/><circle cx="60" cy="491" r="2.0" fill="#fff" opacity="0.60"/><circle cx="64" cy="746" r="1.1" fill="#fff" opacity="0.52"/><circle cx="401" cy="557" r="3.0" fill="#fff" opacity="0.35"/><circle cx="408" cy="570" r="2.2" fill="#fff" opacity="0.69"/><circle cx="105" cy="214" r="2.4" fill="#fff" opacity="0.51"/><circle cx="491" cy="208" r="3.1" fill="#fff" opacity="0.54"/><circle cx="398" cy="556" r="2.3" fill="#fff" opacity="0.39"/><circle cx="261" cy="632" r="1.8" fill="#fff" opacity="0.70"/><circle cx="24" cy="421" r="1.3" fill="#fff" opacity="0.42"/><circle cx="353" cy="718" r="2.0" fill="#fff" opacity="0.46"/><circle cx="470" cy="301" r="1.2" fill="#fff" opacity="0.28"/><circle cx="204" cy="288" r="2.0" fill="#fff" opacity="0.62"/><circle cx="223" cy="510" r="2.2" fill="#fff" opacity="0.35"/><circle cx="305" cy="311" r="1.6" fill="#fff" opacity="0.59"/><circle cx="360" cy="204" r="2.9" fill="#fff" opacity="0.39"/><circle cx="305" cy="366" r="3.0" fill="#fff" opacity="0.51"/><circle cx="267" cy="354" r="1.4" fill="#fff" opacity="0.48"/><circle cx="450" cy="666" r="1.9" fill="#fff" opacity="0.41"/><circle cx="300" cy="93" r="1.7" fill="#fff" opacity="0.34"/><circle cx="47" cy="334" r="0.9" fill="#fff" opacity="0.58"/><circle cx="395" cy="43" r="1.1" fill="#fff" opacity="0.48"/><circle cx="17" cy="254" r="2.6" fill="#fff" opacity="0.46"/><circle cx="253" cy="68" r="2.5" fill="#fff" opacity="0.57"/><circle cx="392" cy="416" r="2.1" fill="#fff" opacity="0.34"/><circle cx="166" cy="68" r="1.3" fill="#fff" opacity="0.57"/><circle cx="351" cy="419" r="2.6" fill="#fff" opacity="0.54"/><circle cx="292" cy="420" r="2.3" fill="#fff" opacity="0.50"/></g>
  <circle cx="256" cy="294" r="182" fill="#fffbe0" opacity=".12"/><circle cx="256" cy="294" r="140" fill="#fff" opacity=".1"/>
  <ellipse cx="256" cy="662" rx="150" ry="34" fill="#80651c" opacity=".28"/>
  <g transform="translate(0 122)">
    <ellipse cx="256" cy="339.2" rx="100.44999999999999" ry="112.74999999999999" fill="url(#body)" filter="url(#softShadow)"/><circle cx="256" cy="226.45" r="79.94999999999999" fill="url(#head)"/><ellipse cx="256" cy="214.15" rx="139.39999999999998" ry="36.9" fill="none" stroke="#fffbe0" stroke-width="14.349999999999998" opacity=".75" transform="rotate(-12 256 214.15)"/><path d="M256 103.45000000000002 L276.5 154.70000000000002 L333.9 156.75 L286.75 187.5 L303.15 242.85 L256 208 L208.85 242.85 L225.25 187.5 L178.10000000000002 156.75 L235.5 154.70000000000002 Z" fill="#f2cf62"/><ellipse cx="223.2" cy="253.1" rx="14.349999999999998" ry="16.4" fill="#14213d"/><ellipse cx="288.8" cy="253.1" rx="14.349999999999998" ry="16.4" fill="#14213d"/><circle cx="229.35" cy="244.9" r="4.714999999999999" fill="#fff"/><circle cx="294.95" cy="244.9" r="4.714999999999999" fill="#fff"/><path d="M256 183.4 L278.55 212.10000000000002 L256 242.85 L233.45 212.10000000000002 Z" fill="#fffbe0" opacity=".92"/>
  </g>
  <path d="M74 126 C170 65 334 65 438 126" stroke="#fff" stroke-width="16" stroke-linecap="round" opacity=".16"/>
  <path d="M63 676 C162 718 344 718 449 662" stroke="#fff" stroke-width="14" stroke-linecap="round" opacity=".16"/>
</svg>