<svg xmlns="http://www.w3.org/2000/svg" viewBox="0 0 512 768" role="img" aria-label="龙战天尊 original portrait">
  
  <defs>
    <linearGradient id="bgp614" x1="0" y1="0" x2="1" y2="1">
      <stop offset="0" stop-color="#ffd166"/>
      <stop offset=".55" stop-color="#ff6b35"/>
      <stop offset="1" stop-color="#a92d1d"/>
    </linearGradient>
    <radialGradient id="body" cx=".36" cy=".25" r=".76">
      <stop offset="0" stop-color="#ffd166"/>
      <stop offset=".6" stop-color="#ff6b35"/>
      <stop offset="1" stop-color="#a92d1d"/>
    </radialGradient>
    <radialGradient id="head" cx=".36" cy=".26" r=".72">
      <stop offset="0" stop-color="#ffffff" stop-opacity=".85"/>
      <stop offset=".2" stop-color="#ffd166"/>
      <stop offset=".72" stop-color="#ff6b35"/>
      <stop offset="1" stop-color="#a92d1d"/>
    </radialGradient>
    <filter id="softShadow" x="-30%" y="-30%" width="160%" height="160%">
      <feDropShadow dx="0" dy="8" stdDeviation="8" flood-color="#a92d1d" flood-opacity=".35"/>
    </filter>
  </defs>
  <rect width="512" height="768" rx="48" fill="url(#bgp614)"/>
  <rect x="24" y="24" width="464" height="720" rx="40" fill="#ffffff" opacity=".08"/>
  <g opacity=".42"><circle cx="416" cy="218" r="3.1" fill="#fff" opacity="0.33"/><circle cx="140" cy="153" r="3.1" fill="#fff" opacity="0.35"/><circle cx="177" cy="249" r="1.1" fill="#fff" opacity="0.30"/><circle cx="56" cy="389" r="0.9" fill="#fff" opacity="0.60"/><circle cx="198" cy="45" r="0.9" fill="#fff" opacity="0.56"/><circle cx="435" cy="22" r="1.8" fill="#fff" opacity="0.57"/><circle cx="58" cy="730" r="2.9" fill="#fff" opacity="0.45"/><circle cx="165" cy="583" r="1.1" fill="#fff" opacity="0.27"/><circle cx="287" cy="253" r="2.7" fill="#fff" opacity="0.39"/><circle cx="259" cy="244" r="3.0" fill="#fff" opacity="0.67"/><circle cx="413" cy="463" r="1.4" fill="#fff" opacity="0.38"/><circle cx="252" cy="67" r="0.9" fill="#fff" opacity="0.46"/><circle cx="104" cy="139" r="2.7" fill="#fff" opacity="0.55"/><circle cx="200" cy="196" r="1.8" fill="#fff" opacity="0.47"/><circle cx="67" cy="338" r="3.2" fill="#fff" opacity="0.28"/><circle cx="448" cy="193" r="1.9" fill="#fff" opacity="0.60"/><circle cx="36" cy="712" r="2.8" fill="#fff" opacity="0.33"/><circle cx="88" cy="626" r="1.9" fill="#fff" opacity="0.41"/><circle cx="372" cy="673" r="2.0" fill="#fff" opacity="0.28"/><circle cx="503" cy="670" r="1.9" fill="#fff" opacity="0.42"/><circle cx="121" cy="217" r="1.7" fill="#fff" opacity="0.64"/><circle cx="259" cy="761" r="0.9" fill="#fff" opacity="0.41"/><circle cx="427" cy="329" r="1.8" fill="#fff" opacity="0.67"/><circle cx="129" cy="765" r="1.5" fill="#fff" opacity="0.31"/><circle cx="76" cy="181" r="2.7" fill="#fff" opacity="0.61"/><circle cx="492" cy="15" r="1.3" fill="#fff" opacity="0.31"/><circle cx="398" cy="276" r="2.8" fill="#fff" opacity="0.43"/><circle cx="48" cy="438" r="2.5" fill="#fff" opacity="0.50"/></g>
  <path d="M70 600 C142 504 297 500 443 610" fill="#a92d1d" opacity=".18"/><path d="M52 642 C146 578 341 580 471 650" fill="#a92d1d" opacity=".16"/>
  <ellipse cx="256" cy="662" rx="150" ry="34" fill="#a92d1d" opacity=".28"/>
  <g transform="translate(0 122)">
    <path d="M108.4 347.4 C161.7 224.4 292.9 175.20000000000002 389.25 253.1 C325.7 249 276.5 285.9 247.8 376.1" fill="#a92d1d" opacity=".45"/><ellipse cx="256" cy="335.1" rx="110.69999999999999" ry="92.24999999999999" fill="url(#body)" filter="url(#softShadow)"/><path d="M167.85000000000002 253.1 L219.1 130.10000000000002 L249.85 244.9 Z" fill="#ff6b35"/><path d="M344.15 253.1 L292.9 130.10000000000002 L262.15 244.9 Z" fill="#ff6b35"/><ellipse cx="256" cy="267.45" rx="96.35" ry="86.1" fill="url(#head)"/><path d="M151.45 292.05 Q87.9 298.2 63.30000000000001 253.1" stroke="#ffd166" stroke-width="10.25" fill="none" stroke-linecap="round" opacity=".85"/><path d="M360.55 292.05 Q424.1 298.2 448.7 253.1" stroke="#ffd166" stroke-width="10.25" fill="none" stroke-linecap="round" opacity=".85"/><ellipse cx="223.2" cy="253.1" rx="14.349999999999998" ry="16.4" fill="#14213d"/><ellipse cx="288.8" cy="253.1" rx="14.349999999999998" ry="16.4" fill="#14213d"/><circle cx="229.35" cy="244.9" r="4.714999999999999" fill="#fff"/><circle cx="294.95" cy="244.9" r="4.714999999999999" fill="#fff"/><path d="M256 183.4 L278.55 212.10000000000002 L256 242.85 L233.45 212.10000000000002 Z" fill="#ffd166" opacity=".92"/>
  </g>
  <path d="M74 126 C170 65 334 65 438 126" stroke="#fff" stroke-width="16" stroke-linecap="round" opacity=".16"/>
  <path d="M63 676 C162 718 344 718 449 662" stroke="#fff" stroke-width="14" stroke-linecap="round" opacity=".16"/>
</svg>