<svg xmlns="http://www.w3.org/2000/svg" viewBox="0 0 512 768" role="img" aria-label="霜角幼狼 original portrait">
  
  <defs>
    <linearGradient id="bgp615" x1="0" y1="0" x2="1" y2="1">
      <stop offset="0" stop-color="#d7fbff"/>
      <stop offset=".55" stop-color="#71d6e8"/>
      <stop offset="1" stop-color="#318aa3"/>
    </linearGradient>
    <radialGradient id="body" cx=".36" cy=".25" r=".76">
      <stop offset="0" stop-color="#d7fbff"/>
      <stop offset=".6" stop-color="#71d6e8"/>
      <stop offset="1" stop-color="#318aa3"/>
    </radialGradient>
    <radialGradient id="head" cx=".36" cy=".26" r=".72">
      <stop offset="0" stop-color="#ffffff" stop-opacity=".85"/>
      <stop offset=".2" stop-color="#d7fbff"/>
      <stop offset=".72" stop-color="#71d6e8"/>
      <stop offset="1" stop-color="#318aa3"/>
    </radialGradient>
    <filter id="softShadow" x="-30%" y="-30%" width="160%" height="160%">
      <feDropShadow dx="0" dy="8" stdDeviation="8" flood-color="#318aa3" flood-opacity=".35"/>
    </filter>
  </defs>
  <rect width="512" height="768" rx="48" fill="url(#bgp615)"/>
  <rect x="24" y="24" width="464" height="720" rx="40" fill="#ffffff" opacity=".08"/>
  <g opacity=".42"><circle cx="117" cy="153" r="1.8" fill="#fff" opacity="0.53"/><circle cx="137" cy="674" r="2.9" fill="#fff" opacity="0.54"/><circle cx="0" cy="598" r="3.0" fill="#fff" opacity="0.55"/><circle cx="229" cy="433" r="1.4" fill="#fff" opacity="0.57"/><circle cx="252" cy="397" r="0.9" fill="#fff" opacity="0.64"/><circle cx="395" cy="762" r="2.0" fill="#fff" opacity="0.64"/><circle cx="366" cy="630" r="2.3" fill="#fff" opacity="0.38"/><circle cx="383" cy="222" r="1.6" fill="#fff" opacity="0.49"/><circle cx="190" cy="471" r="2.5" fill="#fff" opacity="0.27"/><circle cx="376" cy="338" r="1.5" fill="#fff" opacity="0.65"/><circle cx="213" cy="704" r="2.7" fill="#fff" opacity="0.33"/><circle cx="27" cy="197" r="2.1" fill="#fff" opacity="0.54"/><circle cx="134" cy="767" r="2.0" fill="#fff" opacity="0.33"/><circle cx="468" cy="363" r="0.9" fill="#fff" opacity="0.28"/><circle cx="458" cy="521" r="1.2" fill="#fff" opacity="0.40"/><circle cx="177" cy="262" r="1.5" fill="#fff" opacity="0.67"/><circle cx="309" cy="695" r="3.2" fill="#fff" opacity="0.31"/><circle cx="130" cy="524" r="2.8" fill="#fff" opacity="0.48"/><circle cx="413" cy="641" r="1.1" fill="#fff" opacity="0.29"/><circle cx="314" cy="592" r="1.5" fill="#fff" opacity="0.27"/><circle cx="103" cy="651" r="3.2" fill="#fff" opacity="0.43"/><circle cx="107" cy="113" r="1.3" fill="#fff" opacity="0.52"/><circle cx="342" cy="657" r="0.9" fill="#fff" opacity="0.32"/><circle cx="186" cy="394" r="2.2" fill="#fff" opacity="0.52"/><circle cx="167" cy="239" r="2.3" fill="#fff" opacity="0.51"/><circle cx="153" cy="750" r="3.1" fill="#fff" opacity="0.40"/><circle cx="480" cy="452" r="3.1" fill="#fff" opacity="0.33"/><circle cx="396" cy="223" r="2.6" fill="#fff" opacity="0.34"/></g>
  <path d="M0 670 C96 613 167 665 256 620 C337 660 421 608 512 662 V768 H0Z" fill="#318aa3" opacity=".15"/>
  <ellipse cx="256" cy="662" rx="150" ry="34" fill="#318aa3" opacity=".28"/>
  <g transform="translate(0 122)">
    <path d="M159.65 347.4 C69.45000000000002 322.8 92 222.35000000000002 165.8 263.35" stroke="#71d6e8" stroke-width="28.699999999999996" fill="none" stroke-linecap="round" opacity=".76"/><ellipse cx="256" cy="353.55" rx="108.64999999999999" ry="102.49999999999999" fill="url(#body)" filter="url(#softShadow)"/><path d="M184.25 212.10000000000002 L137.10000000000002 115.75000000000003 L231.4 175.20000000000002 Z" fill="#71d6e8"/><path d="M327.75 212.10000000000002 L374.9 115.75000000000003 L280.6 175.20000000000002 Z" fill="#71d6e8"/><circle cx="256" cy="234.65" r="92.24999999999999" fill="url(#head)"/><ellipse cx="221.15" cy="251.05" rx="16.4" ry="20.5" fill="#182033"/><ellipse cx="290.85" cy="251.05" rx="16.4" ry="20.5" fill="#182033"/><ellipse cx="223.2" cy="253.1" rx="14.349999999999998" ry="16.4" fill="#14213d"/><ellipse cx="288.8" cy="253.1" rx="14.349999999999998" ry="16.4" fill="#14213d"/><circle cx="229.35" cy="244.9" r="4.714999999999999" fill="#fff"/><circle cx="294.95" cy="244.9" r="4.714999999999999" fill="#fff"/><path d="M256 183.4 L278.55 212.10000000000002 L256 242.85 L233.45 212.10000000000002 Z" fill="#d7fbff" opacity=".92"/>
  </g>
  <path d="M74 126 C170 65 334 65 438 126" stroke="#fff" stroke-width="16" stroke-linecap="round" opacity=".16"/>
  <path d="M63 676 C162 718 344 718 449 662" stroke="#fff" stroke-width="14" stroke-linecap="round" opacity=".16"/>
</svg>