<svg xmlns="http://www.w3.org/2000/svg" viewBox="0 0 512 768" role="img" aria-label="冰牙巨狼 original portrait">
  
  <defs>
    <linearGradient id="bgp616" x1="0" y1="0" x2="1" y2="1">
      <stop offset="0" stop-color="#d7fbff"/>
      <stop offset=".55" stop-color="#71d6e8"/>
      <stop offset="1" stop-color="#318aa3"/>
    </linearGradient>
    <radialGradient id="body" cx=".36" cy=".25" r=".76">
      <stop offset="0" stop-color="#d7fbff"/>
      <stop offset=".6" stop-color="#71d6e8"/>
      <stop offset="1" stop-color="#318aa3"/>
    </radialGradient>
    <radialGradient id="head" cx=".36" cy=".26" r=".72">
      <stop offset="0" stop-color="#ffffff" stop-opacity=".85"/>
      <stop offset=".2" stop-color="#d7fbff"/>
      <stop offset=".72" stop-color="#71d6e8"/>
      <stop offset="1" stop-color="#318aa3"/>
    </radialGradient>
    <filter id="softShadow" x="-30%" y="-30%" width="160%" height="160%">
      <feDropShadow dx="0" dy="8" stdDeviation="8" flood-color="#318aa3" flood-opacity=".35"/>
    </filter>
  </defs>
  <rect width="512" height="768" rx="48" fill="url(#bgp616)"/>
  <rect x="24" y="24" width="464" height="720" rx="40" fill="#ffffff" opacity=".08"/>
  <g opacity=".42"><circle cx="336" cy="655" r="1.5" fill="#fff" opacity="0.65"/><circle cx="136" cy="614" r="1.5" fill="#fff" opacity="0.59"/><circle cx="178" cy="53" r="1.8" fill="#fff" opacity="0.27"/><circle cx="44" cy="267" r="1.5" fill="#fff" opacity="0.36"/><circle cx="91" cy="550" r="2.6" fill="#fff" opacity="0.39"/><circle cx="148" cy="247" r="2.0" fill="#fff" opacity="0.59"/><circle cx="271" cy="453" r="2.3" fill="#fff" opacity="0.53"/><circle cx="184" cy="309" r="1.7" fill="#fff" opacity="0.56"/><circle cx="75" cy="65" r="1.4" fill="#fff" opacity="0.54"/><circle cx="267" cy="76" r="1.4" fill="#fff" opacity="0.68"/><circle cx="494" cy="323" r="2.6" fill="#fff" opacity="0.63"/><circle cx="74" cy="752" r="2.8" fill="#fff" opacity="0.40"/><circle cx="89" cy="544" r="1.8" fill="#fff" opacity="0.26"/><circle cx="472" cy="421" r="1.8" fill="#fff" opacity="0.67"/><circle cx="382" cy="102" r="2.7" fill="#fff" opacity="0.25"/><circle cx="380" cy="321" r="2.0" fill="#fff" opacity="0.37"/><circle cx="144" cy="273" r="3.0" fill="#fff" opacity="0.69"/><circle cx="270" cy="422" r="1.3" fill="#fff" opacity="0.48"/><circle cx="484" cy="352" r="1.2" fill="#fff" opacity="0.32"/><circle cx="495" cy="439" r="1.8" fill="#fff" opacity="0.45"/><circle cx="140" cy="666" r="2.9" fill="#fff" opacity="0.44"/><circle cx="342" cy="275" r="1.1" fill="#fff" opacity="0.49"/><circle cx="306" cy="411" r="2.0" fill="#fff" opacity="0.25"/><circle cx="2" cy="139" r="2.6" fill="#fff" opacity="0.66"/><circle cx="333" cy="317" r="0.9" fill="#fff" opacity="0.26"/><circle cx="464" cy="157" r="2.7" fill="#fff" opacity="0.29"/><circle cx="21" cy="261" r="2.2" fill="#fff" opacity="0.53"/><circle cx="237" cy="91" r="1.6" fill="#fff" opacity="0.67"/></g>
  <path d="M0 670 C96 613 167 665 256 620 C337 660 421 608 512 662 V768 H0Z" fill="#318aa3" opacity=".15"/>
  <ellipse cx="256" cy="662" rx="150" ry="34" fill="#318aa3" opacity=".28"/>
  <g transform="translate(0 122)">
    <path d="M352.35 347.4 C442.54999999999995 322.8 420 222.35000000000002 346.2 263.35" stroke="#71d6e8" stroke-width="28.699999999999996" fill="none" stroke-linecap="round" opacity=".76"/><ellipse cx="256" cy="353.55" rx="108.64999999999999" ry="102.49999999999999" fill="url(#body)" filter="url(#softShadow)"/><path d="M184.25 212.10000000000002 L137.10000000000002 115.75000000000003 L231.4 175.20000000000002 Z" fill="#71d6e8"/><path d="M327.75 212.10000000000002 L374.9 115.75000000000003 L280.6 175.20000000000002 Z" fill="#71d6e8"/><circle cx="256" cy="234.65" r="92.24999999999999" fill="url(#head)"/><ellipse cx="221.15" cy="251.05" rx="16.4" ry="20.5" fill="#182033"/><ellipse cx="290.85" cy="251.05" rx="16.4" ry="20.5" fill="#182033"/><ellipse cx="223.2" cy="253.1" rx="14.349999999999998" ry="16.4" fill="#14213d"/><ellipse cx="288.8" cy="253.1" rx="14.349999999999998" ry="16.4" fill="#14213d"/><circle cx="229.35" cy="244.9" r="4.714999999999999" fill="#fff"/><circle cx="294.95" cy="244.9" r="4.714999999999999" fill="#fff"/><path d="M215 201.85000000000002 Q256 224.4 297 201.85000000000002" stroke="#d7fbff" stroke-width="10.25" fill="none" stroke-linecap="round" opacity=".8"/>
  </g>
  <path d="M74 126 C170 65 334 65 438 126" stroke="#fff" stroke-width="16" stroke-linecap="round" opacity=".16"/>
  <path d="M63 676 C162 718 344 718 449 662" stroke="#fff" stroke-width="14" stroke-linecap="round" opacity=".16"/>
</svg>