<svg xmlns="http://www.w3.org/2000/svg" viewBox="0 0 512 768" role="img" aria-label="极冻钢狼 original portrait">
  
  <defs>
    <linearGradient id="bgp618" x1="0" y1="0" x2="1" y2="1">
      <stop offset="0" stop-color="#d7fbff"/>
      <stop offset=".55" stop-color="#71d6e8"/>
      <stop offset="1" stop-color="#318aa3"/>
    </linearGradient>
    <radialGradient id="body" cx=".36" cy=".25" r=".76">
      <stop offset="0" stop-color="#d7fbff"/>
      <stop offset=".6" stop-color="#71d6e8"/>
      <stop offset="1" stop-color="#318aa3"/>
    </radialGradient>
    <radialGradient id="head" cx=".36" cy=".26" r=".72">
      <stop offset="0" stop-color="#ffffff" stop-opacity=".85"/>
      <stop offset=".2" stop-color="#d7fbff"/>
      <stop offset=".72" stop-color="#71d6e8"/>
      <stop offset="1" stop-color="#318aa3"/>
    </radialGradient>
    <filter id="softShadow" x="-30%" y="-30%" width="160%" height="160%">
      <feDropShadow dx="0" dy="8" stdDeviation="8" flood-color="#318aa3" flood-opacity=".35"/>
    </filter>
  </defs>
  <rect width="512" height="768" rx="48" fill="url(#bgp618)"/>
  <rect x="24" y="24" width="464" height="720" rx="40" fill="#ffffff" opacity=".08"/>
  <g opacity=".42"><circle cx="289" cy="493" r="2.1" fill="#fff" opacity="0.63"/><circle cx="89" cy="630" r="2.7" fill="#fff" opacity="0.60"/><circle cx="102" cy="357" r="2.9" fill="#fff" opacity="0.32"/><circle cx="247" cy="704" r="1.0" fill="#fff" opacity="0.50"/><circle cx="106" cy="581" r="2.0" fill="#fff" opacity="0.65"/><circle cx="136" cy="6" r="1.6" fill="#fff" opacity="0.35"/><circle cx="445" cy="517" r="1.9" fill="#fff" opacity="0.35"/><circle cx="412" cy="496" r="0.9" fill="#fff" opacity="0.52"/><circle cx="292" cy="231" r="1.8" fill="#fff" opacity="0.64"/><circle cx="398" cy="274" r="2.4" fill="#fff" opacity="0.68"/><circle cx="224" cy="666" r="2.4" fill="#fff" opacity="0.48"/><circle cx="404" cy="443" r="1.8" fill="#fff" opacity="0.62"/><circle cx="448" cy="515" r="0.9" fill="#fff" opacity="0.50"/><circle cx="2" cy="595" r="2.3" fill="#fff" opacity="0.51"/><circle cx="508" cy="601" r="1.8" fill="#fff" opacity="0.31"/><circle cx="294" cy="10" r="1.9" fill="#fff" opacity="0.70"/><circle cx="380" cy="155" r="1.6" fill="#fff" opacity="0.28"/><circle cx="442" cy="65" r="1.7" fill="#fff" opacity="0.66"/><circle cx="496" cy="652" r="2.7" fill="#fff" opacity="0.40"/><circle cx="279" cy="37" r="0.9" fill="#fff" opacity="0.59"/><circle cx="236" cy="553" r="1.8" fill="#fff" opacity="0.50"/><circle cx="361" cy="98" r="2.2" fill="#fff" opacity="0.41"/><circle cx="443" cy="672" r="1.5" fill="#fff" opacity="0.52"/><circle cx="148" cy="14" r="2.7" fill="#fff" opacity="0.35"/><circle cx="102" cy="356" r="3.0" fill="#fff" opacity="0.60"/><circle cx="30" cy="95" r="2.2" fill="#fff" opacity="0.70"/><circle cx="242" cy="534" r="2.1" fill="#fff" opacity="0.32"/><circle cx="88" cy="324" r="3.1" fill="#fff" opacity="0.34"/></g>
  <path d="M24 680 L110 610 L186 666 L272 592 L356 674 L445 626 L512 704 V768 H0V704Z" fill="#318aa3" opacity=".18"/>
  <ellipse cx="256" cy="662" rx="150" ry="34" fill="#318aa3" opacity=".28"/>
  <g transform="translate(0 122)">
    <path d="M149.4 228.5 L219.1 156.75 H311.35 L376.95 242.85 L346.2 394.55 H163.75 Z" fill="url(#body)" filter="url(#softShadow)"/><path d="M198.60000000000002 179.3 L245.75 91.15 L280.6 171.10000000000002 Z" fill="#d7fbff"/><path d="M290.85 183.4 L344.15 113.70000000000002 L342.1 210.05 Z" fill="#71d6e8"/><rect x="194.5" y="277.7" width="122.99999999999999" height="30.749999999999996" rx="14.349999999999998" fill="#318aa3" opacity=".38"/><circle cx="227.3" cy="292.05" r="10.25" fill="#d7fbff"/><circle cx="284.7" cy="292.05" r="10.25" fill="#d7fbff"/><path d="M215 201.85000000000002 Q256 224.4 297 201.85000000000002" stroke="#d7fbff" stroke-width="10.25" fill="none" stroke-linecap="round" opacity=".8"/>
  </g>
  <path d="M74 126 C170 65 334 65 438 126" stroke="#fff" stroke-width="16" stroke-linecap="round" opacity=".16"/>
  <path d="M63 676 C162 718 344 718 449 662" stroke="#fff" stroke-width="14" stroke-linecap="round" opacity=".16"/>
</svg>