<svg xmlns="http://www.w3.org/2000/svg" viewBox="0 0 512 768" role="img" aria-label="幻灵小狐 original portrait">
  
  <defs>
    <linearGradient id="bgp623" x1="0" y1="0" x2="1" y2="1">
      <stop offset="0" stop-color="#ffd0ec"/>
      <stop offset=".55" stop-color="#e056a7"/>
      <stop offset="1" stop-color="#6d327d"/>
    </linearGradient>
    <radialGradient id="body" cx=".36" cy=".25" r=".76">
      <stop offset="0" stop-color="#ffd0ec"/>
      <stop offset=".6" stop-color="#e056a7"/>
      <stop offset="1" stop-color="#6d327d"/>
    </radialGradient>
    <radialGradient id="head" cx=".36" cy=".26" r=".72">
      <stop offset="0" stop-color="#ffffff" stop-opacity=".85"/>
      <stop offset=".2" stop-color="#ffd0ec"/>
      <stop offset=".72" stop-color="#e056a7"/>
      <stop offset="1" stop-color="#6d327d"/>
    </radialGradient>
    <filter id="softShadow" x="-30%" y="-30%" width="160%" height="160%">
      <feDropShadow dx="0" dy="8" stdDeviation="8" flood-color="#6d327d" flood-opacity=".35"/>
    </filter>
  </defs>
  <rect width="512" height="768" rx="48" fill="url(#bgp623)"/>
  <rect x="24" y="24" width="464" height="720" rx="40" fill="#ffffff" opacity=".08"/>
  <g opacity=".42"><circle cx="335" cy="381" r="2.0" fill="#fff" opacity="0.48"/><circle cx="187" cy="357" r="2.8" fill="#fff" opacity="0.47"/><circle cx="493" cy="404" r="1.7" fill="#fff" opacity="0.65"/><circle cx="249" cy="588" r="2.4" fill="#fff" opacity="0.54"/><circle cx="213" cy="479" r="1.3" fill="#fff" opacity="0.67"/><circle cx="312" cy="130" r="0.8" fill="#fff" opacity="0.27"/><circle cx="259" cy="322" r="1.6" fill="#fff" opacity="0.47"/><circle cx="60" cy="498" r="3.2" fill="#fff" opacity="0.25"/><circle cx="245" cy="438" r="2.5" fill="#fff" opacity="0.28"/><circle cx="488" cy="603" r="0.9" fill="#fff" opacity="0.25"/><circle cx="101" cy="133" r="1.5" fill="#fff" opacity="0.36"/><circle cx="0" cy="509" r="1.3" fill="#fff" opacity="0.27"/><circle cx="90" cy="744" r="1.7" fill="#fff" opacity="0.32"/><circle cx="190" cy="603" r="1.6" fill="#fff" opacity="0.34"/><circle cx="4" cy="356" r="3.2" fill="#fff" opacity="0.40"/><circle cx="151" cy="570" r="3.1" fill="#fff" opacity="0.42"/><circle cx="475" cy="474" r="2.5" fill="#fff" opacity="0.63"/><circle cx="358" cy="465" r="1.9" fill="#fff" opacity="0.47"/><circle cx="371" cy="424" r="0.9" fill="#fff" opacity="0.27"/><circle cx="117" cy="297" r="3.1" fill="#fff" opacity="0.34"/><circle cx="397" cy="238" r="1.8" fill="#fff" opacity="0.69"/><circle cx="365" cy="756" r="1.7" fill="#fff" opacity="0.61"/><circle cx="310" cy="330" r="2.6" fill="#fff" opacity="0.52"/><circle cx="207" cy="292" r="2.9" fill="#fff" opacity="0.56"/><circle cx="171" cy="38" r="0.9" fill="#fff" opacity="0.30"/><circle cx="182" cy="702" r="1.7" fill="#fff" opacity="0.42"/><circle cx="169" cy="378" r="1.3" fill="#fff" opacity="0.39"/><circle cx="331" cy="127" r="2.7" fill="#fff" opacity="0.53"/></g>
  <path d="M0 590 C76 555 120 612 197 582 C277 551 327 614 413 581 C462 562 489 570 512 585 V768 H0Z" fill="#6d327d" opacity=".22"/>
  <ellipse cx="256" cy="662" rx="150" ry="34" fill="#6d327d" opacity=".28"/>
  <g transform="translate(0 122)">
    <path d="M149.4 435.54999999999995 C100.20000000000002 304.35 167.85000000000002 156.75 264.2 154.70000000000002 C379 150.60000000000002 420 298.2 352.35 435.54999999999995 C317.5 400.7 288.8 458.1 256 419.15 C221.15 458.1 188.35000000000002 400.7 149.4 435.54999999999995Z" fill="url(#body)" filter="url(#softShadow)"/><circle cx="219.1" cy="253.1" r="16.4" fill="#1b1638"/><circle cx="292.9" cy="253.1" r="16.4" fill="#1b1638"/><path d="M239.6 312.55 Q256 331 280.6 310.5" stroke="#1b1638" stroke-width="10.25" fill="none" stroke-linecap="round"/><path d="M126.85000000000002 326.9 C40.75000000000003 296.15 83.80000000000001 201.85000000000002 137.10000000000002 238.75" fill="#e056a7" opacity=".35"/><path d="M385.15 326.9 C471.25 296.15 428.2 201.85000000000002 374.9 238.75" fill="#e056a7" opacity=".35"/><path d="M256 183.4 L278.55 212.10000000000002 L256 242.85 L233.45 212.10000000000002 Z" fill="#ffd0ec" opacity=".92"/>
  </g>
  <path d="M74 126 C170 65 334 65 438 126" stroke="#fff" stroke-width="16" stroke-linecap="round" opacity=".16"/>
  <path d="M63 676 C162 718 344 718 449 662" stroke="#fff" stroke-width="14" stroke-linecap="round" opacity=".16"/>
</svg>