<svg xmlns="http://www.w3.org/2000/svg" viewBox="0 0 512 768" role="img" aria-label="樱华巫女 original portrait">
  
  <defs>
    <linearGradient id="bgp626" x1="0" y1="0" x2="1" y2="1">
      <stop offset="0" stop-color="#ffd0ec"/>
      <stop offset=".55" stop-color="#e056a7"/>
      <stop offset="1" stop-color="#6d327d"/>
    </linearGradient>
    <radialGradient id="body" cx=".36" cy=".25" r=".76">
      <stop offset="0" stop-color="#ffd0ec"/>
      <stop offset=".6" stop-color="#e056a7"/>
      <stop offset="1" stop-color="#6d327d"/>
    </radialGradient>
    <radialGradient id="head" cx=".36" cy=".26" r=".72">
      <stop offset="0" stop-color="#ffffff" stop-opacity=".85"/>
      <stop offset=".2" stop-color="#ffd0ec"/>
      <stop offset=".72" stop-color="#e056a7"/>
      <stop offset="1" stop-color="#6d327d"/>
    </radialGradient>
    <filter id="softShadow" x="-30%" y="-30%" width="160%" height="160%">
      <feDropShadow dx="0" dy="8" stdDeviation="8" flood-color="#6d327d" flood-opacity=".35"/>
    </filter>
  </defs>
  <rect width="512" height="768" rx="48" fill="url(#bgp626)"/>
  <rect x="24" y="24" width="464" height="720" rx="40" fill="#ffffff" opacity=".08"/>
  <g opacity=".42"><circle cx="511" cy="328" r="1.2" fill="#fff" opacity="0.28"/><circle cx="80" cy="616" r="1.6" fill="#fff" opacity="0.59"/><circle cx="313" cy="106" r="3.1" fill="#fff" opacity="0.58"/><circle cx="220" cy="552" r="0.9" fill="#fff" opacity="0.44"/><circle cx="503" cy="450" r="2.6" fill="#fff" opacity="0.56"/><circle cx="117" cy="476" r="2.3" fill="#fff" opacity="0.40"/><circle cx="130" cy="140" r="3.0" fill="#fff" opacity="0.44"/><circle cx="423" cy="228" r="2.6" fill="#fff" opacity="0.27"/><circle cx="120" cy="470" r="2.9" fill="#fff" opacity="0.68"/><circle cx="67" cy="303" r="3.0" fill="#fff" opacity="0.27"/><circle cx="0" cy="522" r="2.5" fill="#fff" opacity="0.39"/><circle cx="146" cy="729" r="2.5" fill="#fff" opacity="0.44"/><circle cx="54" cy="275" r="1.9" fill="#fff" opacity="0.27"/><circle cx="95" cy="22" r="1.2" fill="#fff" opacity="0.51"/><circle cx="136" cy="722" r="1.4" fill="#fff" opacity="0.33"/><circle cx="481" cy="635" r="1.2" fill="#fff" opacity="0.70"/><circle cx="326" cy="764" r="2.1" fill="#fff" opacity="0.25"/><circle cx="140" cy="685" r="1.0" fill="#fff" opacity="0.57"/><circle cx="238" cy="156" r="1.5" fill="#fff" opacity="0.31"/><circle cx="134" cy="89" r="0.8" fill="#fff" opacity="0.37"/><circle cx="212" cy="493" r="1.9" fill="#fff" opacity="0.44"/><circle cx="111" cy="596" r="3.1" fill="#fff" opacity="0.51"/><circle cx="198" cy="7" r="2.1" fill="#fff" opacity="0.28"/><circle cx="509" cy="534" r="1.0" fill="#fff" opacity="0.47"/><circle cx="79" cy="533" r="2.6" fill="#fff" opacity="0.58"/><circle cx="378" cy="762" r="1.6" fill="#fff" opacity="0.57"/><circle cx="217" cy="31" r="2.3" fill="#fff" opacity="0.64"/><circle cx="315" cy="651" r="3.2" fill="#fff" opacity="0.69"/></g>
  <circle cx="256" cy="294" r="211" fill="#ffd0ec" opacity=".12"/><circle cx="256" cy="294" r="169" fill="#fff" opacity=".1"/>
  <ellipse cx="256" cy="662" rx="150" ry="34" fill="#6d327d" opacity=".28"/>
  <g transform="translate(0 122)">
    <ellipse cx="256" cy="339.2" rx="100.44999999999999" ry="112.74999999999999" fill="url(#body)" filter="url(#softShadow)"/><circle cx="256" cy="226.45" r="79.94999999999999" fill="url(#head)"/><ellipse cx="256" cy="214.15" rx="139.39999999999998" ry="36.9" fill="none" stroke="#ffd0ec" stroke-width="14.349999999999998" opacity=".75" transform="rotate(-12 256 214.15)"/><path d="M256 103.45000000000002 L276.5 154.70000000000002 L333.9 156.75 L286.75 187.5 L303.15 242.85 L256 208 L208.85 242.85 L225.25 187.5 L178.10000000000002 156.75 L235.5 154.70000000000002 Z" fill="#e056a7"/><ellipse cx="223.2" cy="253.1" rx="14.349999999999998" ry="16.4" fill="#14213d"/><ellipse cx="288.8" cy="253.1" rx="14.349999999999998" ry="16.4" fill="#14213d"/><circle cx="229.35" cy="244.9" r="4.714999999999999" fill="#fff"/><circle cx="294.95" cy="244.9" r="4.714999999999999" fill="#fff"/><path d="M215 201.85000000000002 Q256 224.4 297 201.85000000000002" stroke="#ffd0ec" stroke-width="10.25" fill="none" stroke-linecap="round" opacity=".8"/>
  </g>
  <path d="M74 126 C170 65 334 65 438 126" stroke="#fff" stroke-width="16" stroke-linecap="round" opacity=".16"/>
  <path d="M63 676 C162 718 344 718 449 662" stroke="#fff" stroke-width="14" stroke-linecap="round" opacity=".16"/>
</svg>