<svg xmlns="http://www.w3.org/2000/svg" viewBox="0 0 512 768" role="img" aria-label="金甲快兔 original portrait">
  
  <defs>
    <linearGradient id="bgp629" x1="0" y1="0" x2="1" y2="1">
      <stop offset="0" stop-color="#d6fff8"/>
      <stop offset=".55" stop-color="#55c8b8"/>
      <stop offset="1" stop-color="#257173"/>
    </linearGradient>
    <radialGradient id="body" cx=".36" cy=".25" r=".76">
      <stop offset="0" stop-color="#d6fff8"/>
      <stop offset=".6" stop-color="#55c8b8"/>
      <stop offset="1" stop-color="#257173"/>
    </radialGradient>
    <radialGradient id="head" cx=".36" cy=".26" r=".72">
      <stop offset="0" stop-color="#ffffff" stop-opacity=".85"/>
      <stop offset=".2" stop-color="#d6fff8"/>
      <stop offset=".72" stop-color="#55c8b8"/>
      <stop offset="1" stop-color="#257173"/>
    </radialGradient>
    <filter id="softShadow" x="-30%" y="-30%" width="160%" height="160%">
      <feDropShadow dx="0" dy="8" stdDeviation="8" flood-color="#257173" flood-opacity=".35"/>
    </filter>
  </defs>
  <rect width="512" height="768" rx="48" fill="url(#bgp629)"/>
  <rect x="24" y="24" width="464" height="720" rx="40" fill="#ffffff" opacity=".08"/>
  <g opacity=".42"><circle cx="26" cy="648" r="2.9" fill="#fff" opacity="0.42"/><circle cx="347" cy="138" r="2.1" fill="#fff" opacity="0.41"/><circle cx="157" cy="157" r="1.8" fill="#fff" opacity="0.30"/><circle cx="19" cy="91" r="1.9" fill="#fff" opacity="0.63"/><circle cx="435" cy="549" r="1.6" fill="#fff" opacity="0.30"/><circle cx="420" cy="754" r="1.6" fill="#fff" opacity="0.44"/><circle cx="248" cy="627" r="2.9" fill="#fff" opacity="0.59"/><circle cx="463" cy="217" r="2.8" fill="#fff" opacity="0.67"/><circle cx="150" cy="96" r="1.9" fill="#fff" opacity="0.38"/><circle cx="248" cy="480" r="1.9" fill="#fff" opacity="0.54"/><circle cx="283" cy="99" r="2.2" fill="#fff" opacity="0.35"/><circle cx="255" cy="442" r="1.6" fill="#fff" opacity="0.29"/><circle cx="277" cy="647" r="1.6" fill="#fff" opacity="0.63"/><circle cx="103" cy="145" r="1.5" fill="#fff" opacity="0.51"/><circle cx="300" cy="347" r="1.4" fill="#fff" opacity="0.58"/><circle cx="113" cy="633" r="1.5" fill="#fff" opacity="0.56"/><circle cx="191" cy="379" r="2.7" fill="#fff" opacity="0.44"/><circle cx="369" cy="659" r="0.8" fill="#fff" opacity="0.25"/><circle cx="390" cy="687" r="2.4" fill="#fff" opacity="0.57"/><circle cx="249" cy="115" r="2.8" fill="#fff" opacity="0.45"/><circle cx="461" cy="649" r="1.7" fill="#fff" opacity="0.54"/><circle cx="60" cy="588" r="1.2" fill="#fff" opacity="0.58"/><circle cx="151" cy="186" r="2.3" fill="#fff" opacity="0.58"/><circle cx="227" cy="538" r="2.0" fill="#fff" opacity="0.47"/><circle cx="114" cy="386" r="2.6" fill="#fff" opacity="0.26"/><circle cx="318" cy="193" r="1.4" fill="#fff" opacity="0.53"/><circle cx="142" cy="615" r="1.0" fill="#fff" opacity="0.64"/><circle cx="252" cy="168" r="2.8" fill="#fff" opacity="0.60"/></g>
  <path d="M69 625 C150 571 359 568 443 628" fill="#55c8b8" opacity=".14"/>
  <ellipse cx="256" cy="662" rx="150" ry="34" fill="#257173" opacity=".28"/>
  <g transform="translate(0 122)">
    <ellipse cx="178.10000000000002" cy="257.2" rx="69.69999999999999" ry="100.44999999999999" fill="#d6fff8" opacity=".55"/><ellipse cx="333.9" cy="257.2" rx="69.69999999999999" ry="100.44999999999999" fill="#d6fff8" opacity=".55"/><ellipse cx="256" cy="331" rx="65.6" ry="122.99999999999999" fill="url(#body)" filter="url(#softShadow)"/><circle cx="256" cy="214.15" r="69.69999999999999" fill="url(#head)"/><path d="M219.1 160.85000000000002 Q174 93.20000000000002 118.65 117.80000000000001" stroke="#257173" stroke-width="10.25" fill="none" stroke-linecap="round"/><path d="M292.9 160.85000000000002 Q338 93.20000000000002 393.35 117.80000000000001" stroke="#257173" stroke-width="10.25" fill="none" stroke-linecap="round"/><path d="M198.60000000000002 322.8 H313.4 M206.8 376.1 H305.2" stroke="#257173" stroke-width="8.2" opacity=".35"/><ellipse cx="223.2" cy="253.1" rx="14.349999999999998" ry="16.4" fill="#14213d"/><ellipse cx="288.8" cy="253.1" rx="14.349999999999998" ry="16.4" fill="#14213d"/><circle cx="229.35" cy="244.9" r="4.714999999999999" fill="#fff"/><circle cx="294.95" cy="244.9" r="4.714999999999999" fill="#fff"/><path d="M215 201.85000000000002 Q256 224.4 297 201.85000000000002" stroke="#d6fff8" stroke-width="10.25" fill="none" stroke-linecap="round" opacity=".8"/>
  </g>
  <path d="M74 126 C170 65 334 65 438 126" stroke="#fff" stroke-width="16" stroke-linecap="round" opacity=".16"/>
  <path d="M63 676 C162 718 344 718 449 662" stroke="#fff" stroke-width="14" stroke-linecap="round" opacity=".16"/>
</svg>