<svg xmlns="http://www.w3.org/2000/svg" viewBox="0 0 512 768" role="img" aria-label="圣盾守卫 original portrait">
  
  <defs>
    <linearGradient id="bgp630" x1="0" y1="0" x2="1" y2="1">
      <stop offset="0" stop-color="#d6fff8"/>
      <stop offset=".55" stop-color="#55c8b8"/>
      <stop offset="1" stop-color="#257173"/>
    </linearGradient>
    <radialGradient id="body" cx=".36" cy=".25" r=".76">
      <stop offset="0" stop-color="#d6fff8"/>
      <stop offset=".6" stop-color="#55c8b8"/>
      <stop offset="1" stop-color="#257173"/>
    </radialGradient>
    <radialGradient id="head" cx=".36" cy=".26" r=".72">
      <stop offset="0" stop-color="#ffffff" stop-opacity=".85"/>
      <stop offset=".2" stop-color="#d6fff8"/>
      <stop offset=".72" stop-color="#55c8b8"/>
      <stop offset="1" stop-color="#257173"/>
    </radialGradient>
    <filter id="softShadow" x="-30%" y="-30%" width="160%" height="160%">
      <feDropShadow dx="0" dy="8" stdDeviation="8" flood-color="#257173" flood-opacity=".35"/>
    </filter>
  </defs>
  <rect width="512" height="768" rx="48" fill="url(#bgp630)"/>
  <rect x="24" y="24" width="464" height="720" rx="40" fill="#ffffff" opacity=".08"/>
  <g opacity=".42"><circle cx="475" cy="188" r="1.5" fill="#fff" opacity="0.45"/><circle cx="282" cy="169" r="2.1" fill="#fff" opacity="0.44"/><circle cx="53" cy="104" r="1.1" fill="#fff" opacity="0.32"/><circle cx="380" cy="473" r="2.9" fill="#fff" opacity="0.58"/><circle cx="229" cy="69" r="2.7" fill="#fff" opacity="0.69"/><circle cx="435" cy="757" r="2.1" fill="#fff" opacity="0.69"/><circle cx="29" cy="705" r="2.0" fill="#fff" opacity="0.56"/><circle cx="239" cy="362" r="1.9" fill="#fff" opacity="0.50"/><circle cx="260" cy="323" r="1.6" fill="#fff" opacity="0.38"/><circle cx="87" cy="417" r="3.0" fill="#fff" opacity="0.44"/><circle cx="139" cy="16" r="1.4" fill="#fff" opacity="0.28"/><circle cx="339" cy="468" r="2.1" fill="#fff" opacity="0.43"/><circle cx="181" cy="664" r="1.5" fill="#fff" opacity="0.28"/><circle cx="44" cy="248" r="3.1" fill="#fff" opacity="0.53"/><circle cx="431" cy="659" r="3.1" fill="#fff" opacity="0.42"/><circle cx="98" cy="200" r="2.8" fill="#fff" opacity="0.49"/><circle cx="240" cy="392" r="2.0" fill="#fff" opacity="0.30"/><circle cx="318" cy="10" r="2.2" fill="#fff" opacity="0.25"/><circle cx="429" cy="186" r="2.4" fill="#fff" opacity="0.68"/><circle cx="422" cy="543" r="3.0" fill="#fff" opacity="0.55"/><circle cx="459" cy="297" r="1.0" fill="#fff" opacity="0.58"/><circle cx="197" cy="155" r="1.3" fill="#fff" opacity="0.27"/><circle cx="438" cy="107" r="1.7" fill="#fff" opacity="0.65"/><circle cx="280" cy="124" r="1.3" fill="#fff" opacity="0.29"/><circle cx="307" cy="638" r="1.2" fill="#fff" opacity="0.42"/><circle cx="214" cy="530" r="1.7" fill="#fff" opacity="0.69"/><circle cx="466" cy="264" r="1.7" fill="#fff" opacity="0.45"/><circle cx="228" cy="147" r="2.2" fill="#fff" opacity="0.49"/></g>
  <circle cx="256" cy="294" r="192" fill="#d6fff8" opacity=".12"/><circle cx="256" cy="294" r="150" fill="#fff" opacity=".1"/>
  <ellipse cx="256" cy="662" rx="150" ry="34" fill="#257173" opacity=".28"/>
  <g transform="translate(0 122)">
    <ellipse cx="256" cy="339.2" rx="100.44999999999999" ry="112.74999999999999" fill="url(#body)" filter="url(#softShadow)"/><circle cx="256" cy="226.45" r="79.94999999999999" fill="url(#head)"/><ellipse cx="256" cy="214.15" rx="139.39999999999998" ry="36.9" fill="none" stroke="#d6fff8" stroke-width="14.349999999999998" opacity=".75" transform="rotate(-12 256 214.15)"/><path d="M256 103.45000000000002 L276.5 154.70000000000002 L333.9 156.75 L286.75 187.5 L303.15 242.85 L256 208 L208.85 242.85 L225.25 187.5 L178.10000000000002 156.75 L235.5 154.70000000000002 Z" fill="#55c8b8"/><ellipse cx="223.2" cy="253.1" rx="14.349999999999998" ry="16.4" fill="#14213d"/><ellipse cx="288.8" cy="253.1" rx="14.349999999999998" ry="16.4" fill="#14213d"/><circle cx="229.35" cy="244.9" r="4.714999999999999" fill="#fff"/><circle cx="294.95" cy="244.9" r="4.714999999999999" fill="#fff"/><path d="M256 183.4 L278.55 212.10000000000002 L256 242.85 L233.45 212.10000000000002 Z" fill="#d6fff8" opacity=".92"/>
  </g>
  <path d="M74 126 C170 65 334 65 438 126" stroke="#fff" stroke-width="16" stroke-linecap="round" opacity=".16"/>
  <path d="M63 676 C162 718 344 718 449 662" stroke="#fff" stroke-width="14" stroke-linecap="round" opacity=".16"/>
</svg>