<svg xmlns="http://www.w3.org/2000/svg" viewBox="0 0 512 768" role="img" aria-label="龙翼战士 original portrait">
  
  <defs>
    <linearGradient id="bgp632" x1="0" y1="0" x2="1" y2="1">
      <stop offset="0" stop-color="#ffc0a6"/>
      <stop offset=".55" stop-color="#d95f3d"/>
      <stop offset="1" stop-color="#7a271d"/>
    </linearGradient>
    <radialGradient id="body" cx=".36" cy=".25" r=".76">
      <stop offset="0" stop-color="#ffc0a6"/>
      <stop offset=".6" stop-color="#d95f3d"/>
      <stop offset="1" stop-color="#7a271d"/>
    </radialGradient>
    <radialGradient id="head" cx=".36" cy=".26" r=".72">
      <stop offset="0" stop-color="#ffffff" stop-opacity=".85"/>
      <stop offset=".2" stop-color="#ffc0a6"/>
      <stop offset=".72" stop-color="#d95f3d"/>
      <stop offset="1" stop-color="#7a271d"/>
    </radialGradient>
    <filter id="softShadow" x="-30%" y="-30%" width="160%" height="160%">
      <feDropShadow dx="0" dy="8" stdDeviation="8" flood-color="#7a271d" flood-opacity=".35"/>
    </filter>
  </defs>
  <rect width="512" height="768" rx="48" fill="url(#bgp632)"/>
  <rect x="24" y="24" width="464" height="720" rx="40" fill="#ffffff" opacity=".08"/>
  <g opacity=".42"><circle cx="457" cy="408" r="3.0" fill="#fff" opacity="0.42"/><circle cx="44" cy="257" r="1.0" fill="#fff" opacity="0.58"/><circle cx="57" cy="628" r="2.8" fill="#fff" opacity="0.61"/><circle cx="262" cy="143" r="2.5" fill="#fff" opacity="0.67"/><circle cx="270" cy="630" r="1.0" fill="#fff" opacity="0.62"/><circle cx="218" cy="363" r="2.4" fill="#fff" opacity="0.49"/><circle cx="55" cy="40" r="1.2" fill="#fff" opacity="0.38"/><circle cx="343" cy="596" r="3.0" fill="#fff" opacity="0.52"/><circle cx="8" cy="225" r="1.3" fill="#fff" opacity="0.64"/><circle cx="166" cy="680" r="2.4" fill="#fff" opacity="0.45"/><circle cx="137" cy="234" r="2.0" fill="#fff" opacity="0.52"/><circle cx="77" cy="27" r="2.9" fill="#fff" opacity="0.34"/><circle cx="99" cy="465" r="0.9" fill="#fff" opacity="0.30"/><circle cx="373" cy="277" r="3.2" fill="#fff" opacity="0.56"/><circle cx="71" cy="7" r="1.0" fill="#fff" opacity="0.51"/><circle cx="308" cy="192" r="1.5" fill="#fff" opacity="0.48"/><circle cx="403" cy="309" r="2.7" fill="#fff" opacity="0.26"/><circle cx="53" cy="354" r="1.2" fill="#fff" opacity="0.69"/><circle cx="427" cy="242" r="1.7" fill="#fff" opacity="0.29"/><circle cx="208" cy="312" r="1.1" fill="#fff" opacity="0.52"/><circle cx="235" cy="100" r="1.3" fill="#fff" opacity="0.32"/><circle cx="151" cy="49" r="3.2" fill="#fff" opacity="0.46"/><circle cx="227" cy="33" r="2.0" fill="#fff" opacity="0.58"/><circle cx="230" cy="528" r="1.6" fill="#fff" opacity="0.68"/><circle cx="130" cy="91" r="2.3" fill="#fff" opacity="0.50"/><circle cx="70" cy="359" r="3.0" fill="#fff" opacity="0.34"/><circle cx="96" cy="458" r="2.1" fill="#fff" opacity="0.64"/><circle cx="209" cy="540" r="0.9" fill="#fff" opacity="0.70"/></g>
  <path d="M70 600 C142 504 297 500 443 610" fill="#7a271d" opacity=".18"/><path d="M52 642 C146 578 341 580 471 650" fill="#7a271d" opacity=".16"/>
  <ellipse cx="256" cy="662" rx="150" ry="34" fill="#7a271d" opacity=".28"/>
  <g transform="translate(0 122)">
    <path d="M108.4 347.4 C161.7 224.4 292.9 175.20000000000002 389.25 253.1 C325.7 249 276.5 285.9 247.8 376.1" fill="#7a271d" opacity=".45"/><ellipse cx="256" cy="335.1" rx="110.69999999999999" ry="92.24999999999999" fill="url(#body)" filter="url(#softShadow)"/><path d="M167.85000000000002 253.1 L219.1 130.10000000000002 L249.85 244.9 Z" fill="#d95f3d"/><path d="M344.15 253.1 L292.9 130.10000000000002 L262.15 244.9 Z" fill="#d95f3d"/><ellipse cx="256" cy="267.45" rx="96.35" ry="86.1" fill="url(#head)"/><path d="M151.45 292.05 Q87.9 298.2 63.30000000000001 253.1" stroke="#ffc0a6" stroke-width="10.25" fill="none" stroke-linecap="round" opacity=".85"/><path d="M360.55 292.05 Q424.1 298.2 448.7 253.1" stroke="#ffc0a6" stroke-width="10.25" fill="none" stroke-linecap="round" opacity=".85"/><ellipse cx="223.2" cy="253.1" rx="14.349999999999998" ry="16.4" fill="#14213d"/><ellipse cx="288.8" cy="253.1" rx="14.349999999999998" ry="16.4" fill="#14213d"/><circle cx="229.35" cy="244.9" r="4.714999999999999" fill="#fff"/><circle cx="294.95" cy="244.9" r="4.714999999999999" fill="#fff"/><circle cx="256" cy="210.05" r="14.349999999999998" fill="#ffc0a6" opacity=".9"/>
  </g>
  <path d="M74 126 C170 65 334 65 438 126" stroke="#fff" stroke-width="16" stroke-linecap="round" opacity=".16"/>
  <path d="M63 676 C162 718 344 718 449 662" stroke="#fff" stroke-width="14" stroke-linecap="round" opacity=".16"/>
</svg>