<svg xmlns="http://www.w3.org/2000/svg" viewBox="0 0 512 768" role="img" aria-label="小石怪 original portrait">
  
  <defs>
    <linearGradient id="bgp64" x1="0" y1="0" x2="1" y2="1">
      <stop offset="0" stop-color="#ddd0b2"/>
      <stop offset=".55" stop-color="#8d7a5f"/>
      <stop offset="1" stop-color="#514438"/>
    </linearGradient>
    <radialGradient id="body" cx=".36" cy=".25" r=".76">
      <stop offset="0" stop-color="#ddd0b2"/>
      <stop offset=".6" stop-color="#8d7a5f"/>
      <stop offset="1" stop-color="#514438"/>
    </radialGradient>
    <radialGradient id="head" cx=".36" cy=".26" r=".72">
      <stop offset="0" stop-color="#ffffff" stop-opacity=".85"/>
      <stop offset=".2" stop-color="#ddd0b2"/>
      <stop offset=".72" stop-color="#8d7a5f"/>
      <stop offset="1" stop-color="#514438"/>
    </radialGradient>
    <filter id="softShadow" x="-30%" y="-30%" width="160%" height="160%">
      <feDropShadow dx="0" dy="8" stdDeviation="8" flood-color="#514438" flood-opacity=".35"/>
    </filter>
  </defs>
  <rect width="512" height="768" rx="48" fill="url(#bgp64)"/>
  <rect x="24" y="24" width="464" height="720" rx="40" fill="#ffffff" opacity=".08"/>
  <g opacity=".42"><circle cx="64" cy="80" r="2.9" fill="#fff" opacity="0.44"/><circle cx="432" cy="5" r="1.8" fill="#fff" opacity="0.43"/><circle cx="473" cy="269" r="2.7" fill="#fff" opacity="0.69"/><circle cx="445" cy="579" r="2.1" fill="#fff" opacity="0.55"/><circle cx="148" cy="572" r="1.2" fill="#fff" opacity="0.58"/><circle cx="334" cy="739" r="3.2" fill="#fff" opacity="0.60"/><circle cx="447" cy="641" r="1.4" fill="#fff" opacity="0.38"/><circle cx="86" cy="2" r="1.1" fill="#fff" opacity="0.56"/><circle cx="427" cy="132" r="2.3" fill="#fff" opacity="0.33"/><circle cx="474" cy="580" r="1.9" fill="#fff" opacity="0.68"/><circle cx="445" cy="369" r="2.3" fill="#fff" opacity="0.47"/><circle cx="390" cy="719" r="2.3" fill="#fff" opacity="0.55"/><circle cx="187" cy="482" r="2.6" fill="#fff" opacity="0.29"/><circle cx="52" cy="390" r="2.6" fill="#fff" opacity="0.54"/><circle cx="5" cy="598" r="2.5" fill="#fff" opacity="0.68"/><circle cx="386" cy="617" r="2.7" fill="#fff" opacity="0.49"/><circle cx="137" cy="3" r="2.8" fill="#fff" opacity="0.62"/><circle cx="117" cy="559" r="2.8" fill="#fff" opacity="0.40"/><circle cx="413" cy="412" r="3.0" fill="#fff" opacity="0.59"/><circle cx="512" cy="764" r="2.0" fill="#fff" opacity="0.52"/><circle cx="43" cy="202" r="2.1" fill="#fff" opacity="0.68"/><circle cx="174" cy="149" r="2.2" fill="#fff" opacity="0.37"/><circle cx="462" cy="679" r="2.4" fill="#fff" opacity="0.26"/><circle cx="503" cy="54" r="2.1" fill="#fff" opacity="0.38"/><circle cx="105" cy="243" r="3.0" fill="#fff" opacity="0.63"/><circle cx="424" cy="195" r="2.7" fill="#fff" opacity="0.65"/><circle cx="129" cy="440" r="1.8" fill="#fff" opacity="0.69"/><circle cx="72" cy="387" r="2.1" fill="#fff" opacity="0.52"/></g>
  <path d="M24 680 L110 610 L186 666 L272 592 L356 674 L445 626 L512 704 V768 H0V704Z" fill="#514438" opacity=".18"/>
  <ellipse cx="256" cy="662" rx="150" ry="34" fill="#514438" opacity=".28"/>
  <g transform="translate(0 122)">
    <path d="M149.4 228.5 L219.1 156.75 H311.35 L376.95 242.85 L346.2 394.55 H163.75 Z" fill="url(#body)" filter="url(#softShadow)"/><path d="M198.60000000000002 179.3 L245.75 91.15 L280.6 171.10000000000002 Z" fill="#ddd0b2"/><path d="M290.85 183.4 L344.15 113.70000000000002 L342.1 210.05 Z" fill="#8d7a5f"/><rect x="194.5" y="277.7" width="122.99999999999999" height="30.749999999999996" rx="14.349999999999998" fill="#514438" opacity=".38"/><circle cx="227.3" cy="292.05" r="10.25" fill="#ddd0b2"/><circle cx="284.7" cy="292.05" r="10.25" fill="#ddd0b2"/><circle cx="256" cy="210.05" r="14.349999999999998" fill="#ddd0b2" opacity=".9"/>
  </g>
  <path d="M74 126 C170 65 334 65 438 126" stroke="#fff" stroke-width="16" stroke-linecap="round" opacity=".16"/>
  <path d="M63 676 C162 718 344 718 449 662" stroke="#fff" stroke-width="14" stroke-linecap="round" opacity=".16"/>
</svg>