<svg xmlns="http://www.w3.org/2000/svg" viewBox="0 0 512 768" role="img" aria-label="拳棘仙人 original portrait">
  
  <defs>
    <linearGradient id="bgp640" x1="0" y1="0" x2="1" y2="1">
      <stop offset="0" stop-color="#c7f7a4"/>
      <stop offset=".55" stop-color="#43b957"/>
      <stop offset="1" stop-color="#1f6f43"/>
    </linearGradient>
    <radialGradient id="body" cx=".36" cy=".25" r=".76">
      <stop offset="0" stop-color="#c7f7a4"/>
      <stop offset=".6" stop-color="#43b957"/>
      <stop offset="1" stop-color="#1f6f43"/>
    </radialGradient>
    <radialGradient id="head" cx=".36" cy=".26" r=".72">
      <stop offset="0" stop-color="#ffffff" stop-opacity=".85"/>
      <stop offset=".2" stop-color="#c7f7a4"/>
      <stop offset=".72" stop-color="#43b957"/>
      <stop offset="1" stop-color="#1f6f43"/>
    </radialGradient>
    <filter id="softShadow" x="-30%" y="-30%" width="160%" height="160%">
      <feDropShadow dx="0" dy="8" stdDeviation="8" flood-color="#1f6f43" flood-opacity=".35"/>
    </filter>
  </defs>
  <rect width="512" height="768" rx="48" fill="url(#bgp640)"/>
  <rect x="24" y="24" width="464" height="720" rx="40" fill="#ffffff" opacity=".08"/>
  <g opacity=".42"><circle cx="406" cy="706" r="2.1" fill="#fff" opacity="0.44"/><circle cx="273" cy="730" r="2.1" fill="#fff" opacity="0.43"/><circle cx="55" cy="353" r="3.2" fill="#fff" opacity="0.33"/><circle cx="170" cy="426" r="0.9" fill="#fff" opacity="0.44"/><circle cx="256" cy="239" r="2.2" fill="#fff" opacity="0.35"/><circle cx="368" cy="182" r="0.8" fill="#fff" opacity="0.68"/><circle cx="212" cy="317" r="1.0" fill="#fff" opacity="0.50"/><circle cx="305" cy="352" r="2.7" fill="#fff" opacity="0.27"/><circle cx="372" cy="694" r="0.8" fill="#fff" opacity="0.59"/><circle cx="204" cy="301" r="0.9" fill="#fff" opacity="0.52"/><circle cx="27" cy="570" r="3.1" fill="#fff" opacity="0.54"/><circle cx="476" cy="157" r="2.3" fill="#fff" opacity="0.48"/><circle cx="337" cy="735" r="0.9" fill="#fff" opacity="0.67"/><circle cx="224" cy="519" r="2.5" fill="#fff" opacity="0.31"/><circle cx="428" cy="159" r="1.9" fill="#fff" opacity="0.68"/><circle cx="79" cy="580" r="2.1" fill="#fff" opacity="0.52"/><circle cx="113" cy="292" r="1.5" fill="#fff" opacity="0.35"/><circle cx="486" cy="75" r="1.8" fill="#fff" opacity="0.43"/><circle cx="348" cy="369" r="1.8" fill="#fff" opacity="0.49"/><circle cx="496" cy="647" r="2.2" fill="#fff" opacity="0.60"/><circle cx="30" cy="285" r="1.5" fill="#fff" opacity="0.36"/><circle cx="490" cy="174" r="2.2" fill="#fff" opacity="0.61"/><circle cx="393" cy="424" r="1.9" fill="#fff" opacity="0.41"/><circle cx="154" cy="277" r="1.1" fill="#fff" opacity="0.70"/><circle cx="312" cy="473" r="1.1" fill="#fff" opacity="0.48"/><circle cx="95" cy="510" r="1.1" fill="#fff" opacity="0.45"/><circle cx="443" cy="395" r="2.8" fill="#fff" opacity="0.27"/><circle cx="262" cy="723" r="3.1" fill="#fff" opacity="0.43"/></g>
  <path d="M38 684 C128 596 386 596 475 684 V768 H38Z" fill="#1f6f43" opacity=".17"/>
  <ellipse cx="256" cy="662" rx="150" ry="34" fill="#1f6f43" opacity=".28"/>
  <g transform="translate(0 122)">
    <ellipse cx="256" cy="359.7" rx="110.69999999999999" ry="100.44999999999999" fill="url(#body)" filter="url(#softShadow)"/><circle cx="256" cy="232.60000000000002" r="86.1" fill="url(#head)"/><path d="M149.4 322.8 C51.00000000000003 304.35 85.85000000000002 423.25 165.8 402.75" fill="#1f6f43"/><path d="M362.6 322.8 C461 304.35 426.15 423.25 346.2 402.75" fill="#1f6f43"/><path d="M200.65 148.55 H311.35 L331.85 195.7 Q256 224.4 180.15 195.7 Z" fill="#c7f7a4" opacity=".85"/><ellipse cx="223.2" cy="253.1" rx="14.349999999999998" ry="16.4" fill="#14213d"/><ellipse cx="288.8" cy="253.1" rx="14.349999999999998" ry="16.4" fill="#14213d"/><circle cx="229.35" cy="244.9" r="4.714999999999999" fill="#fff"/><circle cx="294.95" cy="244.9" r="4.714999999999999" fill="#fff"/><circle cx="256" cy="210.05" r="14.349999999999998" fill="#c7f7a4" opacity=".9"/>
  </g>
  <path d="M74 126 C170 65 334 65 438 126" stroke="#fff" stroke-width="16" stroke-linecap="round" opacity=".16"/>
  <path d="M63 676 C162 718 344 718 449 662" stroke="#fff" stroke-width="14" stroke-linecap="round" opacity=".16"/>
</svg>