<svg xmlns="http://www.w3.org/2000/svg" viewBox="0 0 512 768" role="img" aria-label="百花仙子 original portrait">
  
  <defs>
    <linearGradient id="bgp641" x1="0" y1="0" x2="1" y2="1">
      <stop offset="0" stop-color="#c7f7a4"/>
      <stop offset=".55" stop-color="#43b957"/>
      <stop offset="1" stop-color="#1f6f43"/>
    </linearGradient>
    <radialGradient id="body" cx=".36" cy=".25" r=".76">
      <stop offset="0" stop-color="#c7f7a4"/>
      <stop offset=".6" stop-color="#43b957"/>
      <stop offset="1" stop-color="#1f6f43"/>
    </radialGradient>
    <radialGradient id="head" cx=".36" cy=".26" r=".72">
      <stop offset="0" stop-color="#ffffff" stop-opacity=".85"/>
      <stop offset=".2" stop-color="#c7f7a4"/>
      <stop offset=".72" stop-color="#43b957"/>
      <stop offset="1" stop-color="#1f6f43"/>
    </radialGradient>
    <filter id="softShadow" x="-30%" y="-30%" width="160%" height="160%">
      <feDropShadow dx="0" dy="8" stdDeviation="8" flood-color="#1f6f43" flood-opacity=".35"/>
    </filter>
  </defs>
  <rect width="512" height="768" rx="48" fill="url(#bgp641)"/>
  <rect x="24" y="24" width="464" height="720" rx="40" fill="#ffffff" opacity=".08"/>
  <g opacity=".42"><circle cx="51" cy="215" r="1.0" fill="#fff" opacity="0.52"/><circle cx="357" cy="20" r="1.9" fill="#fff" opacity="0.64"/><circle cx="93" cy="330" r="2.3" fill="#fff" opacity="0.27"/><circle cx="338" cy="11" r="2.0" fill="#fff" opacity="0.26"/><circle cx="313" cy="576" r="2.1" fill="#fff" opacity="0.68"/><circle cx="472" cy="230" r="1.5" fill="#fff" opacity="0.35"/><circle cx="106" cy="586" r="2.8" fill="#fff" opacity="0.30"/><circle cx="253" cy="489" r="2.5" fill="#fff" opacity="0.29"/><circle cx="413" cy="228" r="2.4" fill="#fff" opacity="0.27"/><circle cx="155" cy="111" r="1.1" fill="#fff" opacity="0.37"/><circle cx="380" cy="408" r="1.9" fill="#fff" opacity="0.26"/><circle cx="203" cy="328" r="1.0" fill="#fff" opacity="0.43"/><circle cx="54" cy="242" r="0.9" fill="#fff" opacity="0.57"/><circle cx="415" cy="88" r="3.1" fill="#fff" opacity="0.34"/><circle cx="97" cy="549" r="2.7" fill="#fff" opacity="0.35"/><circle cx="76" cy="415" r="2.0" fill="#fff" opacity="0.28"/><circle cx="250" cy="498" r="2.4" fill="#fff" opacity="0.63"/><circle cx="285" cy="725" r="2.9" fill="#fff" opacity="0.32"/><circle cx="421" cy="444" r="1.2" fill="#fff" opacity="0.54"/><circle cx="310" cy="305" r="1.0" fill="#fff" opacity="0.35"/><circle cx="296" cy="534" r="3.0" fill="#fff" opacity="0.47"/><circle cx="333" cy="23" r="2.7" fill="#fff" opacity="0.49"/><circle cx="339" cy="52" r="2.8" fill="#fff" opacity="0.60"/><circle cx="428" cy="166" r="1.8" fill="#fff" opacity="0.51"/><circle cx="457" cy="419" r="2.5" fill="#fff" opacity="0.25"/><circle cx="48" cy="632" r="2.8" fill="#fff" opacity="0.37"/><circle cx="493" cy="177" r="2.0" fill="#fff" opacity="0.45"/><circle cx="129" cy="346" r="2.1" fill="#fff" opacity="0.58"/></g>
  <path d="M18 704 C124 595 205 659 256 580 C314 666 392 596 494 704 V768 H18Z" fill="#1f6f43" opacity=".18"/>
  <ellipse cx="256" cy="662" rx="150" ry="34" fill="#1f6f43" opacity=".28"/>
  <g transform="translate(0 122)">
    <path d="M231.4 400.7 C128.9 376.1 83.80000000000001 265.4 198.60000000000002 275.65" fill="#43b957" opacity=".82"/><path d="M280.6 400.7 C383.1 376.1 428.2 265.4 313.4 275.65" fill="#43b957" opacity=".82"/><ellipse cx="256" cy="339.2" rx="98.39999999999999" ry="116.85" fill="url(#body)" filter="url(#softShadow)"/><path d="M256 138.3 C169.9 175.20000000000002 161.7 259.25 256 251.05 C350.3 259.25 342.1 175.20000000000002 256 138.3Z" fill="#c7f7a4"/><circle cx="256" cy="253.1" r="77.89999999999999" fill="url(#head)"/><ellipse cx="223.2" cy="253.1" rx="14.349999999999998" ry="16.4" fill="#14213d"/><ellipse cx="288.8" cy="253.1" rx="14.349999999999998" ry="16.4" fill="#14213d"/><circle cx="229.35" cy="244.9" r="4.714999999999999" fill="#fff"/><circle cx="294.95" cy="244.9" r="4.714999999999999" fill="#fff"/><path d="M215 201.85000000000002 Q256 224.4 297 201.85000000000002" stroke="#c7f7a4" stroke-width="10.25" fill="none" stroke-linecap="round" opacity=".8"/>
  </g>
  <path d="M74 126 C170 65 334 65 438 126" stroke="#fff" stroke-width="16" stroke-linecap="round" opacity=".16"/>
  <path d="M63 676 C162 718 344 718 449 662" stroke="#fff" stroke-width="14" stroke-linecap="round" opacity=".16"/>
</svg>