<svg xmlns="http://www.w3.org/2000/svg" viewBox="0 0 512 768" role="img" aria-label="荆棘女皇 original portrait">
  
  <defs>
    <linearGradient id="bgp642" x1="0" y1="0" x2="1" y2="1">
      <stop offset="0" stop-color="#c7f7a4"/>
      <stop offset=".55" stop-color="#43b957"/>
      <stop offset="1" stop-color="#1f6f43"/>
    </linearGradient>
    <radialGradient id="body" cx=".36" cy=".25" r=".76">
      <stop offset="0" stop-color="#c7f7a4"/>
      <stop offset=".6" stop-color="#43b957"/>
      <stop offset="1" stop-color="#1f6f43"/>
    </radialGradient>
    <radialGradient id="head" cx=".36" cy=".26" r=".72">
      <stop offset="0" stop-color="#ffffff" stop-opacity=".85"/>
      <stop offset=".2" stop-color="#c7f7a4"/>
      <stop offset=".72" stop-color="#43b957"/>
      <stop offset="1" stop-color="#1f6f43"/>
    </radialGradient>
    <filter id="softShadow" x="-30%" y="-30%" width="160%" height="160%">
      <feDropShadow dx="0" dy="8" stdDeviation="8" flood-color="#1f6f43" flood-opacity=".35"/>
    </filter>
  </defs>
  <rect width="512" height="768" rx="48" fill="url(#bgp642)"/>
  <rect x="24" y="24" width="464" height="720" rx="40" fill="#ffffff" opacity=".08"/>
  <g opacity=".42"><circle cx="429" cy="707" r="1.6" fill="#fff" opacity="0.34"/><circle cx="161" cy="164" r="1.2" fill="#fff" opacity="0.51"/><circle cx="340" cy="553" r="1.1" fill="#fff" opacity="0.49"/><circle cx="286" cy="361" r="1.3" fill="#fff" opacity="0.33"/><circle cx="336" cy="446" r="2.0" fill="#fff" opacity="0.27"/><circle cx="182" cy="367" r="1.8" fill="#fff" opacity="0.31"/><circle cx="198" cy="591" r="2.2" fill="#fff" opacity="0.30"/><circle cx="185" cy="488" r="3.1" fill="#fff" opacity="0.61"/><circle cx="215" cy="345" r="2.2" fill="#fff" opacity="0.39"/><circle cx="416" cy="150" r="1.2" fill="#fff" opacity="0.66"/><circle cx="54" cy="476" r="3.1" fill="#fff" opacity="0.49"/><circle cx="485" cy="486" r="1.3" fill="#fff" opacity="0.36"/><circle cx="507" cy="123" r="2.5" fill="#fff" opacity="0.39"/><circle cx="105" cy="607" r="1.6" fill="#fff" opacity="0.30"/><circle cx="138" cy="135" r="1.8" fill="#fff" opacity="0.34"/><circle cx="414" cy="353" r="2.0" fill="#fff" opacity="0.39"/><circle cx="485" cy="113" r="1.0" fill="#fff" opacity="0.28"/><circle cx="467" cy="37" r="3.1" fill="#fff" opacity="0.33"/><circle cx="364" cy="560" r="3.1" fill="#fff" opacity="0.45"/><circle cx="313" cy="318" r="1.9" fill="#fff" opacity="0.69"/><circle cx="93" cy="332" r="1.5" fill="#fff" opacity="0.58"/><circle cx="433" cy="489" r="2.9" fill="#fff" opacity="0.25"/><circle cx="7" cy="138" r="1.5" fill="#fff" opacity="0.25"/><circle cx="177" cy="401" r="1.7" fill="#fff" opacity="0.69"/><circle cx="263" cy="353" r="2.0" fill="#fff" opacity="0.39"/><circle cx="413" cy="413" r="2.1" fill="#fff" opacity="0.51"/><circle cx="286" cy="382" r="2.6" fill="#fff" opacity="0.59"/><circle cx="447" cy="375" r="2.5" fill="#fff" opacity="0.51"/></g>
  <path d="M38 684 C128 596 386 596 475 684 V768 H38Z" fill="#1f6f43" opacity=".17"/>
  <ellipse cx="256" cy="662" rx="150" ry="34" fill="#1f6f43" opacity=".28"/>
  <g transform="translate(0 122)">
    <ellipse cx="256" cy="359.7" rx="110.69999999999999" ry="100.44999999999999" fill="url(#body)" filter="url(#softShadow)"/><circle cx="256" cy="232.60000000000002" r="86.1" fill="url(#head)"/><path d="M149.4 322.8 C51.00000000000003 304.35 85.85000000000002 423.25 165.8 402.75" fill="#1f6f43"/><path d="M362.6 322.8 C461 304.35 426.15 423.25 346.2 402.75" fill="#1f6f43"/><path d="M200.65 148.55 H311.35 L331.85 195.7 Q256 224.4 180.15 195.7 Z" fill="#c7f7a4" opacity=".85"/><ellipse cx="223.2" cy="253.1" rx="14.349999999999998" ry="16.4" fill="#14213d"/><ellipse cx="288.8" cy="253.1" rx="14.349999999999998" ry="16.4" fill="#14213d"/><circle cx="229.35" cy="244.9" r="4.714999999999999" fill="#fff"/><circle cx="294.95" cy="244.9" r="4.714999999999999" fill="#fff"/><path d="M215 201.85000000000002 Q256 224.4 297 201.85000000000002" stroke="#c7f7a4" stroke-width="10.25" fill="none" stroke-linecap="round" opacity=".8"/>
  </g>
  <path d="M74 126 C170 65 334 65 438 126" stroke="#fff" stroke-width="16" stroke-linecap="round" opacity=".16"/>
  <path d="M63 676 C162 718 344 718 449 662" stroke="#fff" stroke-width="14" stroke-linecap="round" opacity=".16"/>
</svg>