<svg xmlns="http://www.w3.org/2000/svg" viewBox="0 0 512 768" role="img" aria-label="炽天圣翼 original portrait">
  
  <defs>
    <linearGradient id="bgp650" x1="0" y1="0" x2="1" y2="1">
      <stop offset="0" stop-color="#fffbe0"/>
      <stop offset=".55" stop-color="#f2cf62"/>
      <stop offset="1" stop-color="#80651c"/>
    </linearGradient>
    <radialGradient id="body" cx=".36" cy=".25" r=".76">
      <stop offset="0" stop-color="#fffbe0"/>
      <stop offset=".6" stop-color="#f2cf62"/>
      <stop offset="1" stop-color="#80651c"/>
    </radialGradient>
    <radialGradient id="head" cx=".36" cy=".26" r=".72">
      <stop offset="0" stop-color="#ffffff" stop-opacity=".85"/>
      <stop offset=".2" stop-color="#fffbe0"/>
      <stop offset=".72" stop-color="#f2cf62"/>
      <stop offset="1" stop-color="#80651c"/>
    </radialGradient>
    <filter id="softShadow" x="-30%" y="-30%" width="160%" height="160%">
      <feDropShadow dx="0" dy="8" stdDeviation="8" flood-color="#80651c" flood-opacity=".35"/>
    </filter>
  </defs>
  <rect width="512" height="768" rx="48" fill="url(#bgp650)"/>
  <rect x="24" y="24" width="464" height="720" rx="40" fill="#ffffff" opacity=".08"/>
  <g opacity=".42"><circle cx="499" cy="295" r="1.5" fill="#fff" opacity="0.50"/><circle cx="324" cy="2" r="2.5" fill="#fff" opacity="0.53"/><circle cx="144" cy="463" r="2.2" fill="#fff" opacity="0.55"/><circle cx="225" cy="209" r="1.6" fill="#fff" opacity="0.38"/><circle cx="19" cy="310" r="2.5" fill="#fff" opacity="0.52"/><circle cx="14" cy="36" r="1.5" fill="#fff" opacity="0.46"/><circle cx="462" cy="588" r="1.8" fill="#fff" opacity="0.36"/><circle cx="328" cy="750" r="1.0" fill="#fff" opacity="0.39"/><circle cx="230" cy="175" r="2.4" fill="#fff" opacity="0.58"/><circle cx="395" cy="285" r="3.1" fill="#fff" opacity="0.42"/><circle cx="69" cy="318" r="1.7" fill="#fff" opacity="0.38"/><circle cx="361" cy="245" r="1.1" fill="#fff" opacity="0.44"/><circle cx="362" cy="300" r="1.0" fill="#fff" opacity="0.49"/><circle cx="262" cy="475" r="2.4" fill="#fff" opacity="0.41"/><circle cx="412" cy="85" r="2.7" fill="#fff" opacity="0.26"/><circle cx="109" cy="26" r="1.4" fill="#fff" opacity="0.38"/><circle cx="401" cy="351" r="1.8" fill="#fff" opacity="0.67"/><circle cx="30" cy="181" r="1.7" fill="#fff" opacity="0.68"/><circle cx="161" cy="239" r="1.4" fill="#fff" opacity="0.46"/><circle cx="463" cy="758" r="2.8" fill="#fff" opacity="0.36"/><circle cx="267" cy="327" r="2.8" fill="#fff" opacity="0.26"/><circle cx="436" cy="729" r="2.3" fill="#fff" opacity="0.58"/><circle cx="313" cy="502" r="1.1" fill="#fff" opacity="0.36"/><circle cx="288" cy="157" r="2.0" fill="#fff" opacity="0.42"/><circle cx="101" cy="362" r="1.9" fill="#fff" opacity="0.54"/><circle cx="378" cy="98" r="1.0" fill="#fff" opacity="0.70"/><circle cx="167" cy="309" r="1.3" fill="#fff" opacity="0.33"/><circle cx="473" cy="562" r="1.3" fill="#fff" opacity="0.48"/></g>
  <path d="M0 620 C92 590 171 620 259 600 C357 577 432 594 512 565 V768 H0Z" fill="#fff" opacity=".18"/>
  <ellipse cx="256" cy="662" rx="150" ry="34" fill="#80651c" opacity=".28"/>
  <g transform="translate(0 122)">
    <path d="M219.1 306.4 C65.35000000000002 187.5 67.4 392.5 206.8 400.7" fill="#f2cf62" opacity=".78"/><path d="M292.9 306.4 C446.65 187.5 444.6 392.5 305.2 400.7" fill="#f2cf62" opacity=".78"/><ellipse cx="256" cy="343.3" rx="86.1" ry="110.69999999999999" fill="url(#body)" filter="url(#softShadow)"/><circle cx="256" cy="228.5" r="77.89999999999999" fill="url(#head)"/><path d="M245.75 226.45 L331.85 249 L249.85 269.5 Z" fill="#fffbe0"/><path d="M210.9 154.70000000000002 C239.6 89.10000000000002 280.6 109.60000000000002 260.1 167" fill="#80651c" opacity=".85"/><ellipse cx="223.2" cy="253.1" rx="14.349999999999998" ry="16.4" fill="#14213d"/><ellipse cx="288.8" cy="253.1" rx="14.349999999999998" ry="16.4" fill="#14213d"/><circle cx="229.35" cy="244.9" r="4.714999999999999" fill="#fff"/><circle cx="294.95" cy="244.9" r="4.714999999999999" fill="#fff"/><circle cx="256" cy="210.05" r="14.349999999999998" fill="#fffbe0" opacity=".9"/>
  </g>
  <path d="M74 126 C170 65 334 65 438 126" stroke="#fff" stroke-width="16" stroke-linecap="round" opacity=".16"/>
  <path d="M63 676 C162 718 344 718 449 662" stroke="#fff" stroke-width="14" stroke-linecap="round" opacity=".16"/>
</svg>