<svg xmlns="http://www.w3.org/2000/svg" viewBox="0 0 512 768" role="img" aria-label="圣爪白猫 original portrait">
  
  <defs>
    <linearGradient id="bgp651" x1="0" y1="0" x2="1" y2="1">
      <stop offset="0" stop-color="#ffd7f3"/>
      <stop offset=".55" stop-color="#f47ac2"/>
      <stop offset="1" stop-color="#8e3b89"/>
    </linearGradient>
    <radialGradient id="body" cx=".36" cy=".25" r=".76">
      <stop offset="0" stop-color="#ffd7f3"/>
      <stop offset=".6" stop-color="#f47ac2"/>
      <stop offset="1" stop-color="#8e3b89"/>
    </radialGradient>
    <radialGradient id="head" cx=".36" cy=".26" r=".72">
      <stop offset="0" stop-color="#ffffff" stop-opacity=".85"/>
      <stop offset=".2" stop-color="#ffd7f3"/>
      <stop offset=".72" stop-color="#f47ac2"/>
      <stop offset="1" stop-color="#8e3b89"/>
    </radialGradient>
    <filter id="softShadow" x="-30%" y="-30%" width="160%" height="160%">
      <feDropShadow dx="0" dy="8" stdDeviation="8" flood-color="#8e3b89" flood-opacity=".35"/>
    </filter>
  </defs>
  <rect width="512" height="768" rx="48" fill="url(#bgp651)"/>
  <rect x="24" y="24" width="464" height="720" rx="40" fill="#ffffff" opacity=".08"/>
  <g opacity=".42"><circle cx="381" cy="150" r="1.7" fill="#fff" opacity="0.44"/><circle cx="4" cy="636" r="1.9" fill="#fff" opacity="0.47"/><circle cx="55" cy="298" r="1.2" fill="#fff" opacity="0.38"/><circle cx="454" cy="355" r="1.8" fill="#fff" opacity="0.67"/><circle cx="123" cy="671" r="1.7" fill="#fff" opacity="0.56"/><circle cx="405" cy="259" r="1.1" fill="#fff" opacity="0.50"/><circle cx="501" cy="10" r="1.1" fill="#fff" opacity="0.38"/><circle cx="276" cy="140" r="2.3" fill="#fff" opacity="0.65"/><circle cx="164" cy="369" r="2.7" fill="#fff" opacity="0.43"/><circle cx="332" cy="640" r="2.2" fill="#fff" opacity="0.52"/><circle cx="430" cy="34" r="2.7" fill="#fff" opacity="0.38"/><circle cx="117" cy="442" r="1.6" fill="#fff" opacity="0.47"/><circle cx="329" cy="272" r="2.1" fill="#fff" opacity="0.36"/><circle cx="106" cy="757" r="1.9" fill="#fff" opacity="0.63"/><circle cx="422" cy="564" r="1.5" fill="#fff" opacity="0.51"/><circle cx="417" cy="399" r="1.0" fill="#fff" opacity="0.40"/><circle cx="449" cy="90" r="2.0" fill="#fff" opacity="0.39"/><circle cx="103" cy="600" r="2.2" fill="#fff" opacity="0.31"/><circle cx="266" cy="766" r="1.2" fill="#fff" opacity="0.33"/><circle cx="23" cy="343" r="1.3" fill="#fff" opacity="0.59"/><circle cx="244" cy="319" r="1.5" fill="#fff" opacity="0.51"/><circle cx="432" cy="256" r="3.1" fill="#fff" opacity="0.57"/><circle cx="77" cy="135" r="3.0" fill="#fff" opacity="0.54"/><circle cx="278" cy="326" r="2.6" fill="#fff" opacity="0.34"/><circle cx="510" cy="515" r="2.7" fill="#fff" opacity="0.44"/><circle cx="150" cy="675" r="2.6" fill="#fff" opacity="0.65"/><circle cx="427" cy="680" r="2.4" fill="#fff" opacity="0.31"/><circle cx="218" cy="165" r="2.0" fill="#fff" opacity="0.31"/></g>
  <circle cx="256" cy="294" r="202" fill="#ffd7f3" opacity=".12"/><circle cx="256" cy="294" r="160" fill="#fff" opacity=".1"/>
  <ellipse cx="256" cy="662" rx="150" ry="34" fill="#8e3b89" opacity=".28"/>
  <g transform="translate(0 122)">
    <ellipse cx="256" cy="339.2" rx="100.44999999999999" ry="112.74999999999999" fill="url(#body)" filter="url(#softShadow)"/><circle cx="256" cy="226.45" r="79.94999999999999" fill="url(#head)"/><ellipse cx="256" cy="214.15" rx="139.39999999999998" ry="36.9" fill="none" stroke="#ffd7f3" stroke-width="14.349999999999998" opacity=".75" transform="rotate(-12 256 214.15)"/><path d="M256 103.45000000000002 L276.5 154.70000000000002 L333.9 156.75 L286.75 187.5 L303.15 242.85 L256 208 L208.85 242.85 L225.25 187.5 L178.10000000000002 156.75 L235.5 154.70000000000002 Z" fill="#f47ac2"/><ellipse cx="223.2" cy="253.1" rx="14.349999999999998" ry="16.4" fill="#14213d"/><ellipse cx="288.8" cy="253.1" rx="14.349999999999998" ry="16.4" fill="#14213d"/><circle cx="229.35" cy="244.9" r="4.714999999999999" fill="#fff"/><circle cx="294.95" cy="244.9" r="4.714999999999999" fill="#fff"/><path d="M215 201.85000000000002 Q256 224.4 297 201.85000000000002" stroke="#ffd7f3" stroke-width="10.25" fill="none" stroke-linecap="round" opacity=".8"/>
  </g>
  <path d="M74 126 C170 65 334 65 438 126" stroke="#fff" stroke-width="16" stroke-linecap="round" opacity=".16"/>
  <path d="M63 676 C162 718 344 718 449 662" stroke="#fff" stroke-width="14" stroke-linecap="round" opacity=".16"/>
</svg>