<svg xmlns="http://www.w3.org/2000/svg" viewBox="0 0 512 768" role="img" aria-label="圣辉神龙 original portrait">
  
  <defs>
    <linearGradient id="bgp653" x1="0" y1="0" x2="1" y2="1">
      <stop offset="0" stop-color="#ffd7f3"/>
      <stop offset=".55" stop-color="#f47ac2"/>
      <stop offset="1" stop-color="#8e3b89"/>
    </linearGradient>
    <radialGradient id="body" cx=".36" cy=".25" r=".76">
      <stop offset="0" stop-color="#ffd7f3"/>
      <stop offset=".6" stop-color="#f47ac2"/>
      <stop offset="1" stop-color="#8e3b89"/>
    </radialGradient>
    <radialGradient id="head" cx=".36" cy=".26" r=".72">
      <stop offset="0" stop-color="#ffffff" stop-opacity=".85"/>
      <stop offset=".2" stop-color="#ffd7f3"/>
      <stop offset=".72" stop-color="#f47ac2"/>
      <stop offset="1" stop-color="#8e3b89"/>
    </radialGradient>
    <filter id="softShadow" x="-30%" y="-30%" width="160%" height="160%">
      <feDropShadow dx="0" dy="8" stdDeviation="8" flood-color="#8e3b89" flood-opacity=".35"/>
    </filter>
  </defs>
  <rect width="512" height="768" rx="48" fill="url(#bgp653)"/>
  <rect x="24" y="24" width="464" height="720" rx="40" fill="#ffffff" opacity=".08"/>
  <g opacity=".42"><circle cx="39" cy="498" r="1.8" fill="#fff" opacity="0.39"/><circle cx="85" cy="668" r="1.7" fill="#fff" opacity="0.64"/><circle cx="203" cy="659" r="2.8" fill="#fff" opacity="0.55"/><circle cx="264" cy="33" r="2.8" fill="#fff" opacity="0.58"/><circle cx="484" cy="326" r="3.0" fill="#fff" opacity="0.66"/><circle cx="12" cy="271" r="1.4" fill="#fff" opacity="0.27"/><circle cx="227" cy="266" r="1.8" fill="#fff" opacity="0.42"/><circle cx="156" cy="278" r="1.9" fill="#fff" opacity="0.36"/><circle cx="234" cy="569" r="2.0" fill="#fff" opacity="0.70"/><circle cx="504" cy="694" r="2.0" fill="#fff" opacity="0.69"/><circle cx="464" cy="212" r="2.7" fill="#fff" opacity="0.63"/><circle cx="90" cy="59" r="1.8" fill="#fff" opacity="0.60"/><circle cx="143" cy="26" r="2.7" fill="#fff" opacity="0.32"/><circle cx="126" cy="95" r="2.5" fill="#fff" opacity="0.48"/><circle cx="80" cy="721" r="1.9" fill="#fff" opacity="0.36"/><circle cx="112" cy="67" r="2.2" fill="#fff" opacity="0.42"/><circle cx="450" cy="706" r="1.8" fill="#fff" opacity="0.60"/><circle cx="98" cy="361" r="0.9" fill="#fff" opacity="0.45"/><circle cx="264" cy="645" r="1.3" fill="#fff" opacity="0.57"/><circle cx="210" cy="198" r="2.8" fill="#fff" opacity="0.53"/><circle cx="186" cy="1" r="1.5" fill="#fff" opacity="0.54"/><circle cx="354" cy="330" r="2.8" fill="#fff" opacity="0.46"/><circle cx="407" cy="92" r="2.0" fill="#fff" opacity="0.42"/><circle cx="357" cy="46" r="1.4" fill="#fff" opacity="0.33"/><circle cx="132" cy="450" r="2.8" fill="#fff" opacity="0.27"/><circle cx="11" cy="176" r="2.7" fill="#fff" opacity="0.27"/><circle cx="114" cy="287" r="0.8" fill="#fff" opacity="0.68"/><circle cx="153" cy="736" r="1.9" fill="#fff" opacity="0.44"/></g>
  <path d="M70 600 C142 504 297 500 443 610" fill="#8e3b89" opacity=".18"/><path d="M52 642 C146 578 341 580 471 650" fill="#8e3b89" opacity=".16"/>
  <ellipse cx="256" cy="662" rx="150" ry="34" fill="#8e3b89" opacity=".28"/>
  <g transform="translate(0 122)">
    <path d="M108.4 347.4 C161.7 224.4 292.9 175.20000000000002 389.25 253.1 C325.7 249 276.5 285.9 247.8 376.1" fill="#8e3b89" opacity=".45"/><ellipse cx="256" cy="335.1" rx="110.69999999999999" ry="92.24999999999999" fill="url(#body)" filter="url(#softShadow)"/><path d="M167.85000000000002 253.1 L219.1 130.10000000000002 L249.85 244.9 Z" fill="#f47ac2"/><path d="M344.15 253.1 L292.9 130.10000000000002 L262.15 244.9 Z" fill="#f47ac2"/><ellipse cx="256" cy="267.45" rx="96.35" ry="86.1" fill="url(#head)"/><path d="M151.45 292.05 Q87.9 298.2 63.30000000000001 253.1" stroke="#ffd7f3" stroke-width="10.25" fill="none" stroke-linecap="round" opacity=".85"/><path d="M360.55 292.05 Q424.1 298.2 448.7 253.1" stroke="#ffd7f3" stroke-width="10.25" fill="none" stroke-linecap="round" opacity=".85"/><ellipse cx="223.2" cy="253.1" rx="14.349999999999998" ry="16.4" fill="#14213d"/><ellipse cx="288.8" cy="253.1" rx="14.349999999999998" ry="16.4" fill="#14213d"/><circle cx="229.35" cy="244.9" r="4.714999999999999" fill="#fff"/><circle cx="294.95" cy="244.9" r="4.714999999999999" fill="#fff"/><path d="M215 201.85000000000002 Q256 224.4 297 201.85000000000002" stroke="#ffd7f3" stroke-width="10.25" fill="none" stroke-linecap="round" opacity=".8"/>
  </g>
  <path d="M74 126 C170 65 334 65 438 126" stroke="#fff" stroke-width="16" stroke-linecap="round" opacity=".16"/>
  <path d="M63 676 C162 718 344 718 449 662" stroke="#fff" stroke-width="14" stroke-linecap="round" opacity=".16"/>
</svg>