<svg xmlns="http://www.w3.org/2000/svg" viewBox="0 0 512 768" role="img" aria-label="天轮圣女 original portrait">
  
  <defs>
    <linearGradient id="bgp654" x1="0" y1="0" x2="1" y2="1">
      <stop offset="0" stop-color="#ffd7f3"/>
      <stop offset=".55" stop-color="#f47ac2"/>
      <stop offset="1" stop-color="#8e3b89"/>
    </linearGradient>
    <radialGradient id="body" cx=".36" cy=".25" r=".76">
      <stop offset="0" stop-color="#ffd7f3"/>
      <stop offset=".6" stop-color="#f47ac2"/>
      <stop offset="1" stop-color="#8e3b89"/>
    </radialGradient>
    <radialGradient id="head" cx=".36" cy=".26" r=".72">
      <stop offset="0" stop-color="#ffffff" stop-opacity=".85"/>
      <stop offset=".2" stop-color="#ffd7f3"/>
      <stop offset=".72" stop-color="#f47ac2"/>
      <stop offset="1" stop-color="#8e3b89"/>
    </radialGradient>
    <filter id="softShadow" x="-30%" y="-30%" width="160%" height="160%">
      <feDropShadow dx="0" dy="8" stdDeviation="8" flood-color="#8e3b89" flood-opacity=".35"/>
    </filter>
  </defs>
  <rect width="512" height="768" rx="48" fill="url(#bgp654)"/>
  <rect x="24" y="24" width="464" height="720" rx="40" fill="#ffffff" opacity=".08"/>
  <g opacity=".42"><circle cx="196" cy="625" r="1.8" fill="#fff" opacity="0.49"/><circle cx="479" cy="517" r="1.3" fill="#fff" opacity="0.33"/><circle cx="331" cy="264" r="1.4" fill="#fff" opacity="0.43"/><circle cx="110" cy="712" r="1.5" fill="#fff" opacity="0.47"/><circle cx="338" cy="106" r="2.0" fill="#fff" opacity="0.61"/><circle cx="203" cy="456" r="1.5" fill="#fff" opacity="0.32"/><circle cx="385" cy="160" r="1.0" fill="#fff" opacity="0.36"/><circle cx="357" cy="379" r="0.9" fill="#fff" opacity="0.63"/><circle cx="182" cy="272" r="1.6" fill="#fff" opacity="0.40"/><circle cx="241" cy="720" r="1.2" fill="#fff" opacity="0.46"/><circle cx="245" cy="348" r="3.0" fill="#fff" opacity="0.41"/><circle cx="367" cy="737" r="2.4" fill="#fff" opacity="0.38"/><circle cx="296" cy="460" r="1.1" fill="#fff" opacity="0.52"/><circle cx="234" cy="322" r="2.3" fill="#fff" opacity="0.56"/><circle cx="235" cy="360" r="2.8" fill="#fff" opacity="0.30"/><circle cx="124" cy="750" r="2.6" fill="#fff" opacity="0.26"/><circle cx="465" cy="35" r="1.6" fill="#fff" opacity="0.64"/><circle cx="199" cy="631" r="3.0" fill="#fff" opacity="0.47"/><circle cx="411" cy="131" r="2.1" fill="#fff" opacity="0.30"/><circle cx="21" cy="617" r="2.5" fill="#fff" opacity="0.64"/><circle cx="385" cy="410" r="2.2" fill="#fff" opacity="0.37"/><circle cx="474" cy="597" r="1.3" fill="#fff" opacity="0.54"/><circle cx="482" cy="209" r="2.8" fill="#fff" opacity="0.36"/><circle cx="482" cy="378" r="1.9" fill="#fff" opacity="0.39"/><circle cx="81" cy="476" r="2.9" fill="#fff" opacity="0.66"/><circle cx="229" cy="475" r="1.6" fill="#fff" opacity="0.66"/><circle cx="196" cy="159" r="2.5" fill="#fff" opacity="0.31"/><circle cx="81" cy="436" r="1.4" fill="#fff" opacity="0.32"/></g>
  <circle cx="256" cy="294" r="188" fill="#ffd7f3" opacity=".12"/><circle cx="256" cy="294" r="146" fill="#fff" opacity=".1"/>
  <ellipse cx="256" cy="662" rx="150" ry="34" fill="#8e3b89" opacity=".28"/>
  <g transform="translate(0 122)">
    <ellipse cx="256" cy="339.2" rx="100.44999999999999" ry="112.74999999999999" fill="url(#body)" filter="url(#softShadow)"/><circle cx="256" cy="226.45" r="79.94999999999999" fill="url(#head)"/><ellipse cx="256" cy="214.15" rx="139.39999999999998" ry="36.9" fill="none" stroke="#ffd7f3" stroke-width="14.349999999999998" opacity=".75" transform="rotate(-12 256 214.15)"/><path d="M256 103.45000000000002 L276.5 154.70000000000002 L333.9 156.75 L286.75 187.5 L303.15 242.85 L256 208 L208.85 242.85 L225.25 187.5 L178.10000000000002 156.75 L235.5 154.70000000000002 Z" fill="#f47ac2"/><ellipse cx="223.2" cy="253.1" rx="14.349999999999998" ry="16.4" fill="#14213d"/><ellipse cx="288.8" cy="253.1" rx="14.349999999999998" ry="16.4" fill="#14213d"/><circle cx="229.35" cy="244.9" r="4.714999999999999" fill="#fff"/><circle cx="294.95" cy="244.9" r="4.714999999999999" fill="#fff"/><path d="M215 201.85000000000002 Q256 224.4 297 201.85000000000002" stroke="#ffd7f3" stroke-width="10.25" fill="none" stroke-linecap="round" opacity=".8"/>
  </g>
  <path d="M74 126 C170 65 334 65 438 126" stroke="#fff" stroke-width="16" stroke-linecap="round" opacity=".16"/>
  <path d="M63 676 C162 718 344 718 449 662" stroke="#fff" stroke-width="14" stroke-linecap="round" opacity=".16"/>
</svg>