<svg xmlns="http://www.w3.org/2000/svg" viewBox="0 0 512 768" role="img" aria-label="毒丝幼虫 original portrait">
  
  <defs>
    <linearGradient id="bgp655" x1="0" y1="0" x2="1" y2="1">
      <stop offset="0" stop-color="#efb2ff"/>
      <stop offset=".55" stop-color="#9b5de5"/>
      <stop offset="1" stop-color="#4f2378"/>
    </linearGradient>
    <radialGradient id="body" cx=".36" cy=".25" r=".76">
      <stop offset="0" stop-color="#efb2ff"/>
      <stop offset=".6" stop-color="#9b5de5"/>
      <stop offset="1" stop-color="#4f2378"/>
    </radialGradient>
    <radialGradient id="head" cx=".36" cy=".26" r=".72">
      <stop offset="0" stop-color="#ffffff" stop-opacity=".85"/>
      <stop offset=".2" stop-color="#efb2ff"/>
      <stop offset=".72" stop-color="#9b5de5"/>
      <stop offset="1" stop-color="#4f2378"/>
    </radialGradient>
    <filter id="softShadow" x="-30%" y="-30%" width="160%" height="160%">
      <feDropShadow dx="0" dy="8" stdDeviation="8" flood-color="#4f2378" flood-opacity=".35"/>
    </filter>
  </defs>
  <rect width="512" height="768" rx="48" fill="url(#bgp655)"/>
  <rect x="24" y="24" width="464" height="720" rx="40" fill="#ffffff" opacity=".08"/>
  <g opacity=".42"><circle cx="38" cy="166" r="1.4" fill="#fff" opacity="0.44"/><circle cx="108" cy="455" r="1.4" fill="#fff" opacity="0.64"/><circle cx="107" cy="42" r="1.5" fill="#fff" opacity="0.28"/><circle cx="485" cy="424" r="1.3" fill="#fff" opacity="0.40"/><circle cx="129" cy="699" r="2.6" fill="#fff" opacity="0.41"/><circle cx="179" cy="730" r="1.8" fill="#fff" opacity="0.50"/><circle cx="501" cy="502" r="1.9" fill="#fff" opacity="0.69"/><circle cx="338" cy="433" r="1.2" fill="#fff" opacity="0.51"/><circle cx="65" cy="685" r="2.0" fill="#fff" opacity="0.52"/><circle cx="168" cy="204" r="1.8" fill="#fff" opacity="0.48"/><circle cx="138" cy="674" r="1.5" fill="#fff" opacity="0.51"/><circle cx="503" cy="16" r="1.1" fill="#fff" opacity="0.53"/><circle cx="228" cy="526" r="1.3" fill="#fff" opacity="0.54"/><circle cx="3" cy="218" r="2.5" fill="#fff" opacity="0.48"/><circle cx="59" cy="766" r="2.5" fill="#fff" opacity="0.33"/><circle cx="7" cy="364" r="1.8" fill="#fff" opacity="0.65"/><circle cx="170" cy="560" r="2.8" fill="#fff" opacity="0.32"/><circle cx="468" cy="291" r="1.0" fill="#fff" opacity="0.33"/><circle cx="347" cy="520" r="3.0" fill="#fff" opacity="0.53"/><circle cx="202" cy="300" r="1.8" fill="#fff" opacity="0.34"/><circle cx="394" cy="349" r="1.5" fill="#fff" opacity="0.53"/><circle cx="305" cy="150" r="2.2" fill="#fff" opacity="0.66"/><circle cx="283" cy="490" r="1.5" fill="#fff" opacity="0.30"/><circle cx="233" cy="13" r="1.4" fill="#fff" opacity="0.45"/><circle cx="156" cy="106" r="1.7" fill="#fff" opacity="0.44"/><circle cx="364" cy="606" r="0.8" fill="#fff" opacity="0.45"/><circle cx="499" cy="730" r="2.1" fill="#fff" opacity="0.48"/><circle cx="254" cy="331" r="1.8" fill="#fff" opacity="0.48"/></g>
  <path d="M69 625 C150 571 359 568 443 628" fill="#9b5de5" opacity=".14"/>
  <ellipse cx="256" cy="662" rx="150" ry="34" fill="#4f2378" opacity=".28"/>
  <g transform="translate(0 122)">
    <ellipse cx="178.10000000000002" cy="257.2" rx="69.69999999999999" ry="100.44999999999999" fill="#efb2ff" opacity=".55"/><ellipse cx="333.9" cy="257.2" rx="69.69999999999999" ry="100.44999999999999" fill="#efb2ff" opacity=".55"/><ellipse cx="256" cy="331" rx="65.6" ry="122.99999999999999" fill="url(#body)" filter="url(#softShadow)"/><circle cx="256" cy="214.15" r="69.69999999999999" fill="url(#head)"/><path d="M219.1 160.85000000000002 Q174 93.20000000000002 118.65 117.80000000000001" stroke="#4f2378" stroke-width="10.25" fill="none" stroke-linecap="round"/><path d="M292.9 160.85000000000002 Q338 93.20000000000002 393.35 117.80000000000001" stroke="#4f2378" stroke-width="10.25" fill="none" stroke-linecap="round"/><path d="M198.60000000000002 322.8 H313.4 M206.8 376.1 H305.2" stroke="#4f2378" stroke-width="8.2" opacity=".35"/><ellipse cx="223.2" cy="253.1" rx="14.349999999999998" ry="16.4" fill="#14213d"/><ellipse cx="288.8" cy="253.1" rx="14.349999999999998" ry="16.4" fill="#14213d"/><circle cx="229.35" cy="244.9" r="4.714999999999999" fill="#fff"/><circle cx="294.95" cy="244.9" r="4.714999999999999" fill="#fff"/><circle cx="256" cy="210.05" r="14.349999999999998" fill="#efb2ff" opacity=".9"/>
  </g>
  <path d="M74 126 C170 65 334 65 438 126" stroke="#fff" stroke-width="16" stroke-linecap="round" opacity=".16"/>
  <path d="M63 676 C162 718 344 718 449 662" stroke="#fff" stroke-width="14" stroke-linecap="round" opacity=".16"/>
</svg>