<svg xmlns="http://www.w3.org/2000/svg" viewBox="0 0 512 768" role="img" aria-label="噬魂螳魔 original portrait">
  
  <defs>
    <linearGradient id="bgp657" x1="0" y1="0" x2="1" y2="1">
      <stop offset="0" stop-color="#efb2ff"/>
      <stop offset=".55" stop-color="#9b5de5"/>
      <stop offset="1" stop-color="#4f2378"/>
    </linearGradient>
    <radialGradient id="body" cx=".36" cy=".25" r=".76">
      <stop offset="0" stop-color="#efb2ff"/>
      <stop offset=".6" stop-color="#9b5de5"/>
      <stop offset="1" stop-color="#4f2378"/>
    </radialGradient>
    <radialGradient id="head" cx=".36" cy=".26" r=".72">
      <stop offset="0" stop-color="#ffffff" stop-opacity=".85"/>
      <stop offset=".2" stop-color="#efb2ff"/>
      <stop offset=".72" stop-color="#9b5de5"/>
      <stop offset="1" stop-color="#4f2378"/>
    </radialGradient>
    <filter id="softShadow" x="-30%" y="-30%" width="160%" height="160%">
      <feDropShadow dx="0" dy="8" stdDeviation="8" flood-color="#4f2378" flood-opacity=".35"/>
    </filter>
  </defs>
  <rect width="512" height="768" rx="48" fill="url(#bgp657)"/>
  <rect x="24" y="24" width="464" height="720" rx="40" fill="#ffffff" opacity=".08"/>
  <g opacity=".42"><circle cx="69" cy="361" r="1.2" fill="#fff" opacity="0.27"/><circle cx="125" cy="576" r="1.8" fill="#fff" opacity="0.60"/><circle cx="57" cy="139" r="3.2" fill="#fff" opacity="0.42"/><circle cx="247" cy="533" r="2.5" fill="#fff" opacity="0.49"/><circle cx="313" cy="558" r="2.5" fill="#fff" opacity="0.46"/><circle cx="100" cy="554" r="1.9" fill="#fff" opacity="0.54"/><circle cx="147" cy="301" r="2.6" fill="#fff" opacity="0.68"/><circle cx="363" cy="211" r="1.9" fill="#fff" opacity="0.64"/><circle cx="36" cy="487" r="3.1" fill="#fff" opacity="0.51"/><circle cx="242" cy="37" r="2.5" fill="#fff" opacity="0.48"/><circle cx="22" cy="438" r="3.2" fill="#fff" opacity="0.32"/><circle cx="239" cy="224" r="0.8" fill="#fff" opacity="0.32"/><circle cx="295" cy="99" r="2.9" fill="#fff" opacity="0.51"/><circle cx="105" cy="690" r="3.0" fill="#fff" opacity="0.55"/><circle cx="163" cy="422" r="2.5" fill="#fff" opacity="0.40"/><circle cx="412" cy="667" r="1.2" fill="#fff" opacity="0.37"/><circle cx="343" cy="610" r="1.3" fill="#fff" opacity="0.51"/><circle cx="482" cy="164" r="2.6" fill="#fff" opacity="0.31"/><circle cx="243" cy="324" r="1.4" fill="#fff" opacity="0.69"/><circle cx="164" cy="604" r="1.0" fill="#fff" opacity="0.36"/><circle cx="176" cy="390" r="2.9" fill="#fff" opacity="0.27"/><circle cx="177" cy="636" r="1.8" fill="#fff" opacity="0.29"/><circle cx="86" cy="753" r="1.3" fill="#fff" opacity="0.36"/><circle cx="389" cy="115" r="2.6" fill="#fff" opacity="0.43"/><circle cx="210" cy="357" r="1.1" fill="#fff" opacity="0.27"/><circle cx="23" cy="416" r="3.1" fill="#fff" opacity="0.68"/><circle cx="229" cy="101" r="2.1" fill="#fff" opacity="0.26"/><circle cx="159" cy="678" r="2.8" fill="#fff" opacity="0.68"/></g>
  <path d="M69 625 C150 571 359 568 443 628" fill="#9b5de5" opacity=".14"/>
  <ellipse cx="256" cy="662" rx="150" ry="34" fill="#4f2378" opacity=".28"/>
  <g transform="translate(0 122)">
    <ellipse cx="178.10000000000002" cy="257.2" rx="69.69999999999999" ry="100.44999999999999" fill="#efb2ff" opacity=".55"/><ellipse cx="333.9" cy="257.2" rx="69.69999999999999" ry="100.44999999999999" fill="#efb2ff" opacity=".55"/><ellipse cx="256" cy="331" rx="65.6" ry="122.99999999999999" fill="url(#body)" filter="url(#softShadow)"/><circle cx="256" cy="214.15" r="69.69999999999999" fill="url(#head)"/><path d="M219.1 160.85000000000002 Q174 93.20000000000002 118.65 117.80000000000001" stroke="#4f2378" stroke-width="10.25" fill="none" stroke-linecap="round"/><path d="M292.9 160.85000000000002 Q338 93.20000000000002 393.35 117.80000000000001" stroke="#4f2378" stroke-width="10.25" fill="none" stroke-linecap="round"/><path d="M198.60000000000002 322.8 H313.4 M206.8 376.1 H305.2" stroke="#4f2378" stroke-width="8.2" opacity=".35"/><ellipse cx="223.2" cy="253.1" rx="14.349999999999998" ry="16.4" fill="#14213d"/><ellipse cx="288.8" cy="253.1" rx="14.349999999999998" ry="16.4" fill="#14213d"/><circle cx="229.35" cy="244.9" r="4.714999999999999" fill="#fff"/><circle cx="294.95" cy="244.9" r="4.714999999999999" fill="#fff"/><path d="M256 183.4 L278.55 212.10000000000002 L256 242.85 L233.45 212.10000000000002 Z" fill="#efb2ff" opacity=".92"/>
  </g>
  <path d="M74 126 C170 65 334 65 438 126" stroke="#fff" stroke-width="16" stroke-linecap="round" opacity=".16"/>
  <path d="M63 676 C162 718 344 718 449 662" stroke="#fff" stroke-width="14" stroke-linecap="round" opacity=".16"/>
</svg>