<svg xmlns="http://www.w3.org/2000/svg" viewBox="0 0 512 768" role="img" aria-label="天蝎帝王 original portrait">
  
  <defs>
    <linearGradient id="bgp658" x1="0" y1="0" x2="1" y2="1">
      <stop offset="0" stop-color="#efb2ff"/>
      <stop offset=".55" stop-color="#9b5de5"/>
      <stop offset="1" stop-color="#4f2378"/>
    </linearGradient>
    <radialGradient id="body" cx=".36" cy=".25" r=".76">
      <stop offset="0" stop-color="#efb2ff"/>
      <stop offset=".6" stop-color="#9b5de5"/>
      <stop offset="1" stop-color="#4f2378"/>
    </radialGradient>
    <radialGradient id="head" cx=".36" cy=".26" r=".72">
      <stop offset="0" stop-color="#ffffff" stop-opacity=".85"/>
      <stop offset=".2" stop-color="#efb2ff"/>
      <stop offset=".72" stop-color="#9b5de5"/>
      <stop offset="1" stop-color="#4f2378"/>
    </radialGradient>
    <filter id="softShadow" x="-30%" y="-30%" width="160%" height="160%">
      <feDropShadow dx="0" dy="8" stdDeviation="8" flood-color="#4f2378" flood-opacity=".35"/>
    </filter>
  </defs>
  <rect width="512" height="768" rx="48" fill="url(#bgp658)"/>
  <rect x="24" y="24" width="464" height="720" rx="40" fill="#ffffff" opacity=".08"/>
  <g opacity=".42"><circle cx="102" cy="299" r="2.8" fill="#fff" opacity="0.30"/><circle cx="428" cy="9" r="2.3" fill="#fff" opacity="0.52"/><circle cx="323" cy="669" r="1.5" fill="#fff" opacity="0.52"/><circle cx="188" cy="208" r="1.0" fill="#fff" opacity="0.65"/><circle cx="255" cy="362" r="0.9" fill="#fff" opacity="0.39"/><circle cx="299" cy="724" r="1.6" fill="#fff" opacity="0.55"/><circle cx="84" cy="237" r="1.0" fill="#fff" opacity="0.39"/><circle cx="407" cy="445" r="3.1" fill="#fff" opacity="0.62"/><circle cx="381" cy="88" r="0.9" fill="#fff" opacity="0.68"/><circle cx="61" cy="735" r="2.3" fill="#fff" opacity="0.41"/><circle cx="385" cy="379" r="1.3" fill="#fff" opacity="0.54"/><circle cx="152" cy="186" r="1.8" fill="#fff" opacity="0.28"/><circle cx="65" cy="667" r="2.2" fill="#fff" opacity="0.60"/><circle cx="158" cy="711" r="1.4" fill="#fff" opacity="0.32"/><circle cx="247" cy="228" r="1.2" fill="#fff" opacity="0.30"/><circle cx="446" cy="295" r="3.2" fill="#fff" opacity="0.69"/><circle cx="94" cy="239" r="1.8" fill="#fff" opacity="0.53"/><circle cx="77" cy="127" r="1.6" fill="#fff" opacity="0.68"/><circle cx="122" cy="462" r="2.0" fill="#fff" opacity="0.26"/><circle cx="268" cy="529" r="1.8" fill="#fff" opacity="0.33"/><circle cx="349" cy="590" r="2.9" fill="#fff" opacity="0.53"/><circle cx="439" cy="637" r="2.6" fill="#fff" opacity="0.43"/><circle cx="401" cy="450" r="1.4" fill="#fff" opacity="0.67"/><circle cx="313" cy="116" r="2.8" fill="#fff" opacity="0.30"/><circle cx="237" cy="49" r="2.9" fill="#fff" opacity="0.60"/><circle cx="481" cy="106" r="2.5" fill="#fff" opacity="0.36"/><circle cx="292" cy="556" r="2.1" fill="#fff" opacity="0.67"/><circle cx="229" cy="82" r="1.4" fill="#fff" opacity="0.66"/></g>
  <path d="M69 625 C150 571 359 568 443 628" fill="#9b5de5" opacity=".14"/>
  <ellipse cx="256" cy="662" rx="150" ry="34" fill="#4f2378" opacity=".28"/>
  <g transform="translate(0 122)">
    <ellipse cx="178.10000000000002" cy="257.2" rx="69.69999999999999" ry="100.44999999999999" fill="#efb2ff" opacity=".55"/><ellipse cx="333.9" cy="257.2" rx="69.69999999999999" ry="100.44999999999999" fill="#efb2ff" opacity=".55"/><ellipse cx="256" cy="331" rx="65.6" ry="122.99999999999999" fill="url(#body)" filter="url(#softShadow)"/><circle cx="256" cy="214.15" r="69.69999999999999" fill="url(#head)"/><path d="M219.1 160.85000000000002 Q174 93.20000000000002 118.65 117.80000000000001" stroke="#4f2378" stroke-width="10.25" fill="none" stroke-linecap="round"/><path d="M292.9 160.85000000000002 Q338 93.20000000000002 393.35 117.80000000000001" stroke="#4f2378" stroke-width="10.25" fill="none" stroke-linecap="round"/><path d="M198.60000000000002 322.8 H313.4 M206.8 376.1 H305.2" stroke="#4f2378" stroke-width="8.2" opacity=".35"/><ellipse cx="223.2" cy="253.1" rx="14.349999999999998" ry="16.4" fill="#14213d"/><ellipse cx="288.8" cy="253.1" rx="14.349999999999998" ry="16.4" fill="#14213d"/><circle cx="229.35" cy="244.9" r="4.714999999999999" fill="#fff"/><circle cx="294.95" cy="244.9" r="4.714999999999999" fill="#fff"/><circle cx="256" cy="210.05" r="14.349999999999998" fill="#efb2ff" opacity=".9"/>
  </g>
  <path d="M74 126 C170 65 334 65 438 126" stroke="#fff" stroke-width="16" stroke-linecap="round" opacity=".16"/>
  <path d="M63 676 C162 718 344 718 449 662" stroke="#fff" stroke-width="14" stroke-linecap="round" opacity=".16"/>
</svg>