<svg xmlns="http://www.w3.org/2000/svg" viewBox="0 0 512 768" role="img" aria-label="暴风巨鹰 original portrait">
  
  <defs>
    <linearGradient id="bgp660" x1="0" y1="0" x2="1" y2="1">
      <stop offset="0" stop-color="#d9edff"/>
      <stop offset=".55" stop-color="#82b7ff"/>
      <stop offset="1" stop-color="#4260ad"/>
    </linearGradient>
    <radialGradient id="body" cx=".36" cy=".25" r=".76">
      <stop offset="0" stop-color="#d9edff"/>
      <stop offset=".6" stop-color="#82b7ff"/>
      <stop offset="1" stop-color="#4260ad"/>
    </radialGradient>
    <radialGradient id="head" cx=".36" cy=".26" r=".72">
      <stop offset="0" stop-color="#ffffff" stop-opacity=".85"/>
      <stop offset=".2" stop-color="#d9edff"/>
      <stop offset=".72" stop-color="#82b7ff"/>
      <stop offset="1" stop-color="#4260ad"/>
    </radialGradient>
    <filter id="softShadow" x="-30%" y="-30%" width="160%" height="160%">
      <feDropShadow dx="0" dy="8" stdDeviation="8" flood-color="#4260ad" flood-opacity=".35"/>
    </filter>
  </defs>
  <rect width="512" height="768" rx="48" fill="url(#bgp660)"/>
  <rect x="24" y="24" width="464" height="720" rx="40" fill="#ffffff" opacity=".08"/>
  <g opacity=".42"><circle cx="443" cy="298" r="0.9" fill="#fff" opacity="0.56"/><circle cx="445" cy="121" r="2.3" fill="#fff" opacity="0.52"/><circle cx="502" cy="212" r="2.2" fill="#fff" opacity="0.65"/><circle cx="442" cy="665" r="2.8" fill="#fff" opacity="0.52"/><circle cx="106" cy="181" r="1.6" fill="#fff" opacity="0.56"/><circle cx="229" cy="108" r="1.0" fill="#fff" opacity="0.58"/><circle cx="13" cy="86" r="1.9" fill="#fff" opacity="0.32"/><circle cx="328" cy="326" r="3.0" fill="#fff" opacity="0.44"/><circle cx="380" cy="70" r="2.2" fill="#fff" opacity="0.48"/><circle cx="204" cy="382" r="0.8" fill="#fff" opacity="0.62"/><circle cx="391" cy="100" r="1.1" fill="#fff" opacity="0.36"/><circle cx="331" cy="94" r="1.1" fill="#fff" opacity="0.41"/><circle cx="119" cy="661" r="2.9" fill="#fff" opacity="0.49"/><circle cx="261" cy="648" r="1.9" fill="#fff" opacity="0.47"/><circle cx="36" cy="719" r="3.0" fill="#fff" opacity="0.33"/><circle cx="59" cy="300" r="2.5" fill="#fff" opacity="0.70"/><circle cx="219" cy="358" r="3.0" fill="#fff" opacity="0.42"/><circle cx="354" cy="614" r="3.0" fill="#fff" opacity="0.44"/><circle cx="240" cy="577" r="2.7" fill="#fff" opacity="0.26"/><circle cx="308" cy="257" r="1.9" fill="#fff" opacity="0.45"/><circle cx="47" cy="357" r="3.2" fill="#fff" opacity="0.53"/><circle cx="11" cy="174" r="1.1" fill="#fff" opacity="0.35"/><circle cx="245" cy="443" r="2.8" fill="#fff" opacity="0.40"/><circle cx="58" cy="489" r="2.4" fill="#fff" opacity="0.33"/><circle cx="182" cy="388" r="3.1" fill="#fff" opacity="0.58"/><circle cx="401" cy="294" r="2.9" fill="#fff" opacity="0.35"/><circle cx="49" cy="713" r="2.2" fill="#fff" opacity="0.42"/><circle cx="370" cy="79" r="1.8" fill="#fff" opacity="0.30"/></g>
  <path d="M0 620 C92 590 171 620 259 600 C357 577 432 594 512 565 V768 H0Z" fill="#fff" opacity=".18"/>
  <ellipse cx="256" cy="662" rx="150" ry="34" fill="#4260ad" opacity=".28"/>
  <g transform="translate(0 122)">
    <path d="M219.1 306.4 C65.35000000000002 187.5 67.4 392.5 206.8 400.7" fill="#82b7ff" opacity=".78"/><path d="M292.9 306.4 C446.65 187.5 444.6 392.5 305.2 400.7" fill="#82b7ff" opacity=".78"/><ellipse cx="256" cy="343.3" rx="86.1" ry="110.69999999999999" fill="url(#body)" filter="url(#softShadow)"/><circle cx="256" cy="228.5" r="77.89999999999999" fill="url(#head)"/><path d="M245.75 226.45 L331.85 249 L249.85 269.5 Z" fill="#d9edff"/><path d="M210.9 154.70000000000002 C239.6 89.10000000000002 280.6 109.60000000000002 260.1 167" fill="#4260ad" opacity=".85"/><ellipse cx="223.2" cy="253.1" rx="14.349999999999998" ry="16.4" fill="#14213d"/><ellipse cx="288.8" cy="253.1" rx="14.349999999999998" ry="16.4" fill="#14213d"/><circle cx="229.35" cy="244.9" r="4.714999999999999" fill="#fff"/><circle cx="294.95" cy="244.9" r="4.714999999999999" fill="#fff"/><circle cx="256" cy="210.05" r="14.349999999999998" fill="#d9edff" opacity=".9"/>
  </g>
  <path d="M74 126 C170 65 334 65 438 126" stroke="#fff" stroke-width="16" stroke-linecap="round" opacity=".16"/>
  <path d="M63 676 C162 718 344 718 449 662" stroke="#fff" stroke-width="14" stroke-linecap="round" opacity=".16"/>
</svg>