<svg xmlns="http://www.w3.org/2000/svg" viewBox="0 0 512 768" role="img" aria-label="圣铁合体 original portrait">
  
  <defs>
    <linearGradient id="bgp665" x1="0" y1="0" x2="1" y2="1">
      <stop offset="0" stop-color="#e8edf2"/>
      <stop offset=".55" stop-color="#9aa8b7"/>
      <stop offset="1" stop-color="#536271"/>
    </linearGradient>
    <radialGradient id="body" cx=".36" cy=".25" r=".76">
      <stop offset="0" stop-color="#e8edf2"/>
      <stop offset=".6" stop-color="#9aa8b7"/>
      <stop offset="1" stop-color="#536271"/>
    </radialGradient>
    <radialGradient id="head" cx=".36" cy=".26" r=".72">
      <stop offset="0" stop-color="#ffffff" stop-opacity=".85"/>
      <stop offset=".2" stop-color="#e8edf2"/>
      <stop offset=".72" stop-color="#9aa8b7"/>
      <stop offset="1" stop-color="#536271"/>
    </radialGradient>
    <filter id="softShadow" x="-30%" y="-30%" width="160%" height="160%">
      <feDropShadow dx="0" dy="8" stdDeviation="8" flood-color="#536271" flood-opacity=".35"/>
    </filter>
  </defs>
  <rect width="512" height="768" rx="48" fill="url(#bgp665)"/>
  <rect x="24" y="24" width="464" height="720" rx="40" fill="#ffffff" opacity=".08"/>
  <g opacity=".42"><circle cx="2" cy="104" r="1.7" fill="#fff" opacity="0.59"/><circle cx="454" cy="613" r="1.6" fill="#fff" opacity="0.25"/><circle cx="414" cy="490" r="0.9" fill="#fff" opacity="0.40"/><circle cx="398" cy="92" r="3.2" fill="#fff" opacity="0.27"/><circle cx="122" cy="162" r="0.9" fill="#fff" opacity="0.38"/><circle cx="354" cy="157" r="1.5" fill="#fff" opacity="0.64"/><circle cx="40" cy="532" r="3.0" fill="#fff" opacity="0.50"/><circle cx="349" cy="418" r="1.4" fill="#fff" opacity="0.37"/><circle cx="490" cy="73" r="2.1" fill="#fff" opacity="0.33"/><circle cx="501" cy="251" r="2.7" fill="#fff" opacity="0.63"/><circle cx="420" cy="745" r="1.4" fill="#fff" opacity="0.38"/><circle cx="423" cy="52" r="2.7" fill="#fff" opacity="0.68"/><circle cx="157" cy="729" r="1.2" fill="#fff" opacity="0.61"/><circle cx="493" cy="438" r="1.6" fill="#fff" opacity="0.54"/><circle cx="479" cy="111" r="1.4" fill="#fff" opacity="0.50"/><circle cx="450" cy="91" r="1.5" fill="#fff" opacity="0.45"/><circle cx="357" cy="450" r="2.7" fill="#fff" opacity="0.57"/><circle cx="269" cy="608" r="2.1" fill="#fff" opacity="0.37"/><circle cx="400" cy="584" r="2.5" fill="#fff" opacity="0.69"/><circle cx="35" cy="546" r="2.1" fill="#fff" opacity="0.60"/><circle cx="117" cy="338" r="2.7" fill="#fff" opacity="0.69"/><circle cx="24" cy="324" r="2.9" fill="#fff" opacity="0.58"/><circle cx="396" cy="123" r="1.2" fill="#fff" opacity="0.49"/><circle cx="340" cy="272" r="1.8" fill="#fff" opacity="0.34"/><circle cx="418" cy="17" r="1.5" fill="#fff" opacity="0.66"/><circle cx="92" cy="543" r="3.0" fill="#fff" opacity="0.26"/><circle cx="296" cy="641" r="1.6" fill="#fff" opacity="0.50"/><circle cx="386" cy="337" r="2.5" fill="#fff" opacity="0.37"/></g>
  <path d="M24 680 L110 610 L186 666 L272 592 L356 674 L445 626 L512 704 V768 H0V704Z" fill="#536271" opacity=".18"/>
  <ellipse cx="256" cy="662" rx="150" ry="34" fill="#536271" opacity=".28"/>
  <g transform="translate(0 122)">
    <path d="M149.4 228.5 L219.1 156.75 H311.35 L376.95 242.85 L346.2 394.55 H163.75 Z" fill="url(#body)" filter="url(#softShadow)"/><path d="M198.60000000000002 179.3 L245.75 91.15 L280.6 171.10000000000002 Z" fill="#e8edf2"/><path d="M290.85 183.4 L344.15 113.70000000000002 L342.1 210.05 Z" fill="#9aa8b7"/><rect x="194.5" y="277.7" width="122.99999999999999" height="30.749999999999996" rx="14.349999999999998" fill="#536271" opacity=".38"/><circle cx="227.3" cy="292.05" r="10.25" fill="#e8edf2"/><circle cx="284.7" cy="292.05" r="10.25" fill="#e8edf2"/><circle cx="256" cy="210.05" r="14.349999999999998" fill="#e8edf2" opacity=".9"/>
  </g>
  <path d="M74 126 C170 65 334 65 438 126" stroke="#fff" stroke-width="16" stroke-linecap="round" opacity=".16"/>
  <path d="M63 676 C162 718 344 718 449 662" stroke="#fff" stroke-width="14" stroke-linecap="round" opacity=".16"/>
</svg>