<svg xmlns="http://www.w3.org/2000/svg" viewBox="0 0 512 768" role="img" aria-label="钢铁巨神 original portrait">
  
  <defs>
    <linearGradient id="bgp666" x1="0" y1="0" x2="1" y2="1">
      <stop offset="0" stop-color="#e8edf2"/>
      <stop offset=".55" stop-color="#9aa8b7"/>
      <stop offset="1" stop-color="#536271"/>
    </linearGradient>
    <radialGradient id="body" cx=".36" cy=".25" r=".76">
      <stop offset="0" stop-color="#e8edf2"/>
      <stop offset=".6" stop-color="#9aa8b7"/>
      <stop offset="1" stop-color="#536271"/>
    </radialGradient>
    <radialGradient id="head" cx=".36" cy=".26" r=".72">
      <stop offset="0" stop-color="#ffffff" stop-opacity=".85"/>
      <stop offset=".2" stop-color="#e8edf2"/>
      <stop offset=".72" stop-color="#9aa8b7"/>
      <stop offset="1" stop-color="#536271"/>
    </radialGradient>
    <filter id="softShadow" x="-30%" y="-30%" width="160%" height="160%">
      <feDropShadow dx="0" dy="8" stdDeviation="8" flood-color="#536271" flood-opacity=".35"/>
    </filter>
  </defs>
  <rect width="512" height="768" rx="48" fill="url(#bgp666)"/>
  <rect x="24" y="24" width="464" height="720" rx="40" fill="#ffffff" opacity=".08"/>
  <g opacity=".42"><circle cx="57" cy="381" r="0.8" fill="#fff" opacity="0.62"/><circle cx="373" cy="261" r="2.2" fill="#fff" opacity="0.31"/><circle cx="372" cy="204" r="1.3" fill="#fff" opacity="0.62"/><circle cx="203" cy="259" r="1.6" fill="#fff" opacity="0.34"/><circle cx="445" cy="763" r="3.1" fill="#fff" opacity="0.32"/><circle cx="457" cy="82" r="0.9" fill="#fff" opacity="0.44"/><circle cx="429" cy="145" r="3.2" fill="#fff" opacity="0.65"/><circle cx="369" cy="317" r="1.4" fill="#fff" opacity="0.44"/><circle cx="266" cy="175" r="2.0" fill="#fff" opacity="0.40"/><circle cx="143" cy="566" r="0.8" fill="#fff" opacity="0.39"/><circle cx="349" cy="721" r="1.0" fill="#fff" opacity="0.45"/><circle cx="221" cy="437" r="1.5" fill="#fff" opacity="0.58"/><circle cx="499" cy="646" r="2.0" fill="#fff" opacity="0.32"/><circle cx="149" cy="314" r="1.9" fill="#fff" opacity="0.34"/><circle cx="419" cy="407" r="0.8" fill="#fff" opacity="0.38"/><circle cx="311" cy="73" r="0.9" fill="#fff" opacity="0.56"/><circle cx="76" cy="123" r="1.1" fill="#fff" opacity="0.58"/><circle cx="409" cy="671" r="1.0" fill="#fff" opacity="0.63"/><circle cx="35" cy="261" r="1.3" fill="#fff" opacity="0.54"/><circle cx="169" cy="241" r="2.4" fill="#fff" opacity="0.52"/><circle cx="99" cy="167" r="2.6" fill="#fff" opacity="0.55"/><circle cx="486" cy="568" r="1.1" fill="#fff" opacity="0.39"/><circle cx="239" cy="233" r="1.1" fill="#fff" opacity="0.53"/><circle cx="91" cy="151" r="1.4" fill="#fff" opacity="0.42"/><circle cx="64" cy="323" r="1.5" fill="#fff" opacity="0.39"/><circle cx="0" cy="425" r="2.6" fill="#fff" opacity="0.37"/><circle cx="154" cy="326" r="1.5" fill="#fff" opacity="0.36"/><circle cx="66" cy="115" r="1.1" fill="#fff" opacity="0.47"/></g>
  <path d="M24 680 L110 610 L186 666 L272 592 L356 674 L445 626 L512 704 V768 H0V704Z" fill="#536271" opacity=".18"/>
  <ellipse cx="256" cy="662" rx="150" ry="34" fill="#536271" opacity=".28"/>
  <g transform="translate(0 122)">
    <path d="M149.4 228.5 L219.1 156.75 H311.35 L376.95 242.85 L346.2 394.55 H163.75 Z" fill="url(#body)" filter="url(#softShadow)"/><path d="M198.60000000000002 179.3 L245.75 91.15 L280.6 171.10000000000002 Z" fill="#e8edf2"/><path d="M290.85 183.4 L344.15 113.70000000000002 L342.1 210.05 Z" fill="#9aa8b7"/><rect x="194.5" y="277.7" width="122.99999999999999" height="30.749999999999996" rx="14.349999999999998" fill="#536271" opacity=".38"/><circle cx="227.3" cy="292.05" r="10.25" fill="#e8edf2"/><circle cx="284.7" cy="292.05" r="10.25" fill="#e8edf2"/><circle cx="256" cy="210.05" r="14.349999999999998" fill="#e8edf2" opacity=".9"/>
  </g>
  <path d="M74 126 C170 65 334 65 438 126" stroke="#fff" stroke-width="16" stroke-linecap="round" opacity=".16"/>
  <path d="M63 676 C162 718 344 718 449 662" stroke="#fff" stroke-width="14" stroke-linecap="round" opacity=".16"/>
</svg>