<svg xmlns="http://www.w3.org/2000/svg" viewBox="0 0 512 768" role="img" aria-label="烈焰幼狮 original portrait">
  
  <defs>
    <linearGradient id="bgp667" x1="0" y1="0" x2="1" y2="1">
      <stop offset="0" stop-color="#ffc0a6"/>
      <stop offset=".55" stop-color="#d95f3d"/>
      <stop offset="1" stop-color="#7a271d"/>
    </linearGradient>
    <radialGradient id="body" cx=".36" cy=".25" r=".76">
      <stop offset="0" stop-color="#ffc0a6"/>
      <stop offset=".6" stop-color="#d95f3d"/>
      <stop offset="1" stop-color="#7a271d"/>
    </radialGradient>
    <radialGradient id="head" cx=".36" cy=".26" r=".72">
      <stop offset="0" stop-color="#ffffff" stop-opacity=".85"/>
      <stop offset=".2" stop-color="#ffc0a6"/>
      <stop offset=".72" stop-color="#d95f3d"/>
      <stop offset="1" stop-color="#7a271d"/>
    </radialGradient>
    <filter id="softShadow" x="-30%" y="-30%" width="160%" height="160%">
      <feDropShadow dx="0" dy="8" stdDeviation="8" flood-color="#7a271d" flood-opacity=".35"/>
    </filter>
  </defs>
  <rect width="512" height="768" rx="48" fill="url(#bgp667)"/>
  <rect x="24" y="24" width="464" height="720" rx="40" fill="#ffffff" opacity=".08"/>
  <g opacity=".42"><circle cx="193" cy="113" r="1.9" fill="#fff" opacity="0.54"/><circle cx="480" cy="444" r="3.1" fill="#fff" opacity="0.26"/><circle cx="386" cy="57" r="1.4" fill="#fff" opacity="0.43"/><circle cx="349" cy="19" r="2.5" fill="#fff" opacity="0.27"/><circle cx="426" cy="53" r="3.0" fill="#fff" opacity="0.57"/><circle cx="451" cy="31" r="3.1" fill="#fff" opacity="0.39"/><circle cx="500" cy="81" r="2.7" fill="#fff" opacity="0.27"/><circle cx="275" cy="153" r="2.1" fill="#fff" opacity="0.35"/><circle cx="386" cy="461" r="1.0" fill="#fff" opacity="0.50"/><circle cx="208" cy="197" r="1.8" fill="#fff" opacity="0.28"/><circle cx="465" cy="301" r="2.7" fill="#fff" opacity="0.45"/><circle cx="480" cy="46" r="1.0" fill="#fff" opacity="0.33"/><circle cx="144" cy="282" r="1.4" fill="#fff" opacity="0.40"/><circle cx="129" cy="247" r="2.6" fill="#fff" opacity="0.28"/><circle cx="365" cy="372" r="3.0" fill="#fff" opacity="0.52"/><circle cx="502" cy="239" r="2.7" fill="#fff" opacity="0.63"/><circle cx="89" cy="261" r="1.4" fill="#fff" opacity="0.67"/><circle cx="104" cy="759" r="1.3" fill="#fff" opacity="0.61"/><circle cx="449" cy="193" r="1.3" fill="#fff" opacity="0.36"/><circle cx="187" cy="529" r="0.9" fill="#fff" opacity="0.49"/><circle cx="351" cy="215" r="3.0" fill="#fff" opacity="0.55"/><circle cx="511" cy="641" r="3.2" fill="#fff" opacity="0.58"/><circle cx="382" cy="428" r="2.3" fill="#fff" opacity="0.29"/><circle cx="213" cy="123" r="2.3" fill="#fff" opacity="0.38"/><circle cx="210" cy="46" r="1.9" fill="#fff" opacity="0.62"/><circle cx="120" cy="365" r="1.7" fill="#fff" opacity="0.64"/><circle cx="148" cy="375" r="2.3" fill="#fff" opacity="0.30"/><circle cx="298" cy="100" r="3.2" fill="#fff" opacity="0.36"/></g>
  <path d="M0 670 C96 613 167 665 256 620 C337 660 421 608 512 662 V768 H0Z" fill="#7a271d" opacity=".15"/>
  <ellipse cx="256" cy="662" rx="150" ry="34" fill="#7a271d" opacity=".28"/>
  <g transform="translate(0 122)">
    <path d="M159.65 347.4 C69.45000000000002 322.8 92 222.35000000000002 165.8 263.35" stroke="#d95f3d" stroke-width="28.699999999999996" fill="none" stroke-linecap="round" opacity=".76"/><ellipse cx="256" cy="353.55" rx="108.64999999999999" ry="102.49999999999999" fill="url(#body)" filter="url(#softShadow)"/><path d="M184.25 212.10000000000002 L137.10000000000002 115.75000000000003 L231.4 175.20000000000002 Z" fill="#d95f3d"/><path d="M327.75 212.10000000000002 L374.9 115.75000000000003 L280.6 175.20000000000002 Z" fill="#d95f3d"/><circle cx="256" cy="234.65" r="92.24999999999999" fill="url(#head)"/><ellipse cx="221.15" cy="251.05" rx="16.4" ry="20.5" fill="#182033"/><ellipse cx="290.85" cy="251.05" rx="16.4" ry="20.5" fill="#182033"/><ellipse cx="223.2" cy="253.1" rx="14.349999999999998" ry="16.4" fill="#14213d"/><ellipse cx="288.8" cy="253.1" rx="14.349999999999998" ry="16.4" fill="#14213d"/><circle cx="229.35" cy="244.9" r="4.714999999999999" fill="#fff"/><circle cx="294.95" cy="244.9" r="4.714999999999999" fill="#fff"/><circle cx="256" cy="210.05" r="14.349999999999998" fill="#ffc0a6" opacity=".9"/>
  </g>
  <path d="M74 126 C170 65 334 65 438 126" stroke="#fff" stroke-width="16" stroke-linecap="round" opacity=".16"/>
  <path d="M63 676 C162 718 344 718 449 662" stroke="#fff" stroke-width="14" stroke-linecap="round" opacity=".16"/>
</svg>