<svg xmlns="http://www.w3.org/2000/svg" viewBox="0 0 512 768" role="img" aria-label="三头地鼠 original portrait">
  
  <defs>
    <linearGradient id="bgp67" x1="0" y1="0" x2="1" y2="1">
      <stop offset="0" stop-color="#e9c68f"/>
      <stop offset=".55" stop-color="#a0713d"/>
      <stop offset="1" stop-color="#5a3b22"/>
    </linearGradient>
    <radialGradient id="body" cx=".36" cy=".25" r=".76">
      <stop offset="0" stop-color="#e9c68f"/>
      <stop offset=".6" stop-color="#a0713d"/>
      <stop offset="1" stop-color="#5a3b22"/>
    </radialGradient>
    <radialGradient id="head" cx=".36" cy=".26" r=".72">
      <stop offset="0" stop-color="#ffffff" stop-opacity=".85"/>
      <stop offset=".2" stop-color="#e9c68f"/>
      <stop offset=".72" stop-color="#a0713d"/>
      <stop offset="1" stop-color="#5a3b22"/>
    </radialGradient>
    <filter id="softShadow" x="-30%" y="-30%" width="160%" height="160%">
      <feDropShadow dx="0" dy="8" stdDeviation="8" flood-color="#5a3b22" flood-opacity=".35"/>
    </filter>
  </defs>
  <rect width="512" height="768" rx="48" fill="url(#bgp67)"/>
  <rect x="24" y="24" width="464" height="720" rx="40" fill="#ffffff" opacity=".08"/>
  <g opacity=".42"><circle cx="463" cy="516" r="1.6" fill="#fff" opacity="0.42"/><circle cx="188" cy="438" r="1.4" fill="#fff" opacity="0.59"/><circle cx="107" cy="371" r="1.7" fill="#fff" opacity="0.36"/><circle cx="287" cy="617" r="2.3" fill="#fff" opacity="0.40"/><circle cx="99" cy="495" r="2.5" fill="#fff" opacity="0.62"/><circle cx="287" cy="393" r="3.0" fill="#fff" opacity="0.33"/><circle cx="502" cy="96" r="2.3" fill="#fff" opacity="0.55"/><circle cx="132" cy="231" r="0.9" fill="#fff" opacity="0.34"/><circle cx="82" cy="52" r="1.9" fill="#fff" opacity="0.69"/><circle cx="443" cy="370" r="1.1" fill="#fff" opacity="0.43"/><circle cx="178" cy="151" r="2.8" fill="#fff" opacity="0.69"/><circle cx="174" cy="131" r="1.7" fill="#fff" opacity="0.57"/><circle cx="143" cy="58" r="1.9" fill="#fff" opacity="0.53"/><circle cx="279" cy="227" r="1.4" fill="#fff" opacity="0.30"/><circle cx="56" cy="75" r="1.4" fill="#fff" opacity="0.60"/><circle cx="382" cy="67" r="2.2" fill="#fff" opacity="0.44"/><circle cx="231" cy="290" r="1.1" fill="#fff" opacity="0.29"/><circle cx="100" cy="670" r="2.3" fill="#fff" opacity="0.31"/><circle cx="364" cy="522" r="1.5" fill="#fff" opacity="0.44"/><circle cx="462" cy="45" r="2.6" fill="#fff" opacity="0.50"/><circle cx="445" cy="224" r="1.0" fill="#fff" opacity="0.33"/><circle cx="360" cy="274" r="1.8" fill="#fff" opacity="0.65"/><circle cx="365" cy="297" r="1.2" fill="#fff" opacity="0.64"/><circle cx="51" cy="767" r="1.9" fill="#fff" opacity="0.26"/><circle cx="302" cy="523" r="2.0" fill="#fff" opacity="0.47"/><circle cx="356" cy="270" r="2.5" fill="#fff" opacity="0.43"/><circle cx="503" cy="680" r="1.5" fill="#fff" opacity="0.56"/><circle cx="351" cy="513" r="3.0" fill="#fff" opacity="0.41"/></g>
  <path d="M0 670 C96 613 167 665 256 620 C337 660 421 608 512 662 V768 H0Z" fill="#5a3b22" opacity=".15"/>
  <ellipse cx="256" cy="662" rx="150" ry="34" fill="#5a3b22" opacity=".28"/>
  <g transform="translate(0 122)">
    <path d="M352.35 347.4 C442.54999999999995 322.8 420 222.35000000000002 346.2 263.35" stroke="#a0713d" stroke-width="28.699999999999996" fill="none" stroke-linecap="round" opacity=".76"/><ellipse cx="256" cy="353.55" rx="108.64999999999999" ry="102.49999999999999" fill="url(#body)" filter="url(#softShadow)"/><path d="M184.25 212.10000000000002 L137.10000000000002 115.75000000000003 L231.4 175.20000000000002 Z" fill="#a0713d"/><path d="M327.75 212.10000000000002 L374.9 115.75000000000003 L280.6 175.20000000000002 Z" fill="#a0713d"/><circle cx="256" cy="234.65" r="92.24999999999999" fill="url(#head)"/><ellipse cx="221.15" cy="251.05" rx="16.4" ry="20.5" fill="#182033"/><ellipse cx="290.85" cy="251.05" rx="16.4" ry="20.5" fill="#182033"/><ellipse cx="223.2" cy="253.1" rx="14.349999999999998" ry="16.4" fill="#14213d"/><ellipse cx="288.8" cy="253.1" rx="14.349999999999998" ry="16.4" fill="#14213d"/><circle cx="229.35" cy="244.9" r="4.714999999999999" fill="#fff"/><circle cx="294.95" cy="244.9" r="4.714999999999999" fill="#fff"/><path d="M256 183.4 L278.55 212.10000000000002 L256 242.85 L233.45 212.10000000000002 Z" fill="#e9c68f" opacity=".92"/>
  </g>
  <path d="M74 126 C170 65 334 65 438 126" stroke="#fff" stroke-width="16" stroke-linecap="round" opacity=".16"/>
  <path d="M63 676 C162 718 344 718 449 662" stroke="#fff" stroke-width="14" stroke-linecap="round" opacity=".16"/>
</svg>