<svg xmlns="http://www.w3.org/2000/svg" viewBox="0 0 512 768" role="img" aria-label="星云法师 original portrait">
  
  <defs>
    <linearGradient id="bgp671" x1="0" y1="0" x2="1" y2="1">
      <stop offset="0" stop-color="#ffd0ec"/>
      <stop offset=".55" stop-color="#e056a7"/>
      <stop offset="1" stop-color="#6d327d"/>
    </linearGradient>
    <radialGradient id="body" cx=".36" cy=".25" r=".76">
      <stop offset="0" stop-color="#ffd0ec"/>
      <stop offset=".6" stop-color="#e056a7"/>
      <stop offset="1" stop-color="#6d327d"/>
    </radialGradient>
    <radialGradient id="head" cx=".36" cy=".26" r=".72">
      <stop offset="0" stop-color="#ffffff" stop-opacity=".85"/>
      <stop offset=".2" stop-color="#ffd0ec"/>
      <stop offset=".72" stop-color="#e056a7"/>
      <stop offset="1" stop-color="#6d327d"/>
    </radialGradient>
    <filter id="softShadow" x="-30%" y="-30%" width="160%" height="160%">
      <feDropShadow dx="0" dy="8" stdDeviation="8" flood-color="#6d327d" flood-opacity=".35"/>
    </filter>
  </defs>
  <rect width="512" height="768" rx="48" fill="url(#bgp671)"/>
  <rect x="24" y="24" width="464" height="720" rx="40" fill="#ffffff" opacity=".08"/>
  <g opacity=".42"><circle cx="491" cy="152" r="2.8" fill="#fff" opacity="0.45"/><circle cx="124" cy="570" r="2.9" fill="#fff" opacity="0.57"/><circle cx="101" cy="237" r="2.7" fill="#fff" opacity="0.39"/><circle cx="442" cy="666" r="1.6" fill="#fff" opacity="0.34"/><circle cx="457" cy="627" r="2.9" fill="#fff" opacity="0.27"/><circle cx="465" cy="554" r="1.4" fill="#fff" opacity="0.31"/><circle cx="327" cy="653" r="2.8" fill="#fff" opacity="0.39"/><circle cx="328" cy="458" r="2.3" fill="#fff" opacity="0.63"/><circle cx="351" cy="371" r="2.6" fill="#fff" opacity="0.27"/><circle cx="167" cy="16" r="1.4" fill="#fff" opacity="0.67"/><circle cx="96" cy="500" r="1.6" fill="#fff" opacity="0.44"/><circle cx="281" cy="398" r="2.2" fill="#fff" opacity="0.58"/><circle cx="444" cy="389" r="1.8" fill="#fff" opacity="0.42"/><circle cx="78" cy="200" r="1.4" fill="#fff" opacity="0.33"/><circle cx="25" cy="112" r="1.6" fill="#fff" opacity="0.39"/><circle cx="22" cy="754" r="2.2" fill="#fff" opacity="0.49"/><circle cx="68" cy="591" r="0.9" fill="#fff" opacity="0.27"/><circle cx="217" cy="663" r="1.3" fill="#fff" opacity="0.46"/><circle cx="321" cy="428" r="1.7" fill="#fff" opacity="0.45"/><circle cx="70" cy="750" r="2.3" fill="#fff" opacity="0.53"/><circle cx="310" cy="313" r="1.7" fill="#fff" opacity="0.53"/><circle cx="378" cy="184" r="2.1" fill="#fff" opacity="0.36"/><circle cx="93" cy="53" r="2.6" fill="#fff" opacity="0.70"/><circle cx="437" cy="392" r="1.2" fill="#fff" opacity="0.66"/><circle cx="183" cy="347" r="2.0" fill="#fff" opacity="0.65"/><circle cx="399" cy="392" r="2.4" fill="#fff" opacity="0.42"/><circle cx="302" cy="99" r="1.6" fill="#fff" opacity="0.55"/><circle cx="488" cy="714" r="2.0" fill="#fff" opacity="0.59"/></g>
  <circle cx="256" cy="294" r="191" fill="#ffd0ec" opacity=".12"/><circle cx="256" cy="294" r="149" fill="#fff" opacity=".1"/>
  <ellipse cx="256" cy="662" rx="150" ry="34" fill="#6d327d" opacity=".28"/>
  <g transform="translate(0 122)">
    <ellipse cx="256" cy="339.2" rx="100.44999999999999" ry="112.74999999999999" fill="url(#body)" filter="url(#softShadow)"/><circle cx="256" cy="226.45" r="79.94999999999999" fill="url(#head)"/><ellipse cx="256" cy="214.15" rx="139.39999999999998" ry="36.9" fill="none" stroke="#ffd0ec" stroke-width="14.349999999999998" opacity=".75" transform="rotate(-12 256 214.15)"/><path d="M256 103.45000000000002 L276.5 154.70000000000002 L333.9 156.75 L286.75 187.5 L303.15 242.85 L256 208 L208.85 242.85 L225.25 187.5 L178.10000000000002 156.75 L235.5 154.70000000000002 Z" fill="#e056a7"/><ellipse cx="223.2" cy="253.1" rx="14.349999999999998" ry="16.4" fill="#14213d"/><ellipse cx="288.8" cy="253.1" rx="14.349999999999998" ry="16.4" fill="#14213d"/><circle cx="229.35" cy="244.9" r="4.714999999999999" fill="#fff"/><circle cx="294.95" cy="244.9" r="4.714999999999999" fill="#fff"/><path d="M215 201.85000000000002 Q256 224.4 297 201.85000000000002" stroke="#ffd0ec" stroke-width="10.25" fill="none" stroke-linecap="round" opacity=".8"/>
  </g>
  <path d="M74 126 C170 65 334 65 438 126" stroke="#fff" stroke-width="16" stroke-linecap="round" opacity=".16"/>
  <path d="M63 676 C162 718 344 718 449 662" stroke="#fff" stroke-width="14" stroke-linecap="round" opacity=".16"/>
</svg>