<svg xmlns="http://www.w3.org/2000/svg" viewBox="0 0 512 768" role="img" aria-label="熔岩猎犬 original portrait">
  
  <defs>
    <linearGradient id="bgp677" x1="0" y1="0" x2="1" y2="1">
      <stop offset="0" stop-color="#ffd166"/>
      <stop offset=".55" stop-color="#ff6b35"/>
      <stop offset="1" stop-color="#a92d1d"/>
    </linearGradient>
    <radialGradient id="body" cx=".36" cy=".25" r=".76">
      <stop offset="0" stop-color="#ffd166"/>
      <stop offset=".6" stop-color="#ff6b35"/>
      <stop offset="1" stop-color="#a92d1d"/>
    </radialGradient>
    <radialGradient id="head" cx=".36" cy=".26" r=".72">
      <stop offset="0" stop-color="#ffffff" stop-opacity=".85"/>
      <stop offset=".2" stop-color="#ffd166"/>
      <stop offset=".72" stop-color="#ff6b35"/>
      <stop offset="1" stop-color="#a92d1d"/>
    </radialGradient>
    <filter id="softShadow" x="-30%" y="-30%" width="160%" height="160%">
      <feDropShadow dx="0" dy="8" stdDeviation="8" flood-color="#a92d1d" flood-opacity=".35"/>
    </filter>
  </defs>
  <rect width="512" height="768" rx="48" fill="url(#bgp677)"/>
  <rect x="24" y="24" width="464" height="720" rx="40" fill="#ffffff" opacity=".08"/>
  <g opacity=".42"><circle cx="404" cy="102" r="2.0" fill="#fff" opacity="0.69"/><circle cx="366" cy="64" r="1.2" fill="#fff" opacity="0.53"/><circle cx="502" cy="198" r="1.1" fill="#fff" opacity="0.29"/><circle cx="396" cy="420" r="2.0" fill="#fff" opacity="0.40"/><circle cx="59" cy="538" r="3.0" fill="#fff" opacity="0.43"/><circle cx="20" cy="549" r="1.6" fill="#fff" opacity="0.44"/><circle cx="496" cy="288" r="2.3" fill="#fff" opacity="0.54"/><circle cx="436" cy="302" r="1.7" fill="#fff" opacity="0.29"/><circle cx="74" cy="394" r="2.9" fill="#fff" opacity="0.46"/><circle cx="446" cy="506" r="2.2" fill="#fff" opacity="0.32"/><circle cx="234" cy="235" r="1.5" fill="#fff" opacity="0.46"/><circle cx="367" cy="218" r="3.1" fill="#fff" opacity="0.35"/><circle cx="382" cy="704" r="2.3" fill="#fff" opacity="0.54"/><circle cx="472" cy="211" r="1.0" fill="#fff" opacity="0.28"/><circle cx="76" cy="648" r="2.3" fill="#fff" opacity="0.25"/><circle cx="86" cy="602" r="1.0" fill="#fff" opacity="0.30"/><circle cx="312" cy="567" r="2.3" fill="#fff" opacity="0.68"/><circle cx="435" cy="12" r="1.3" fill="#fff" opacity="0.42"/><circle cx="345" cy="165" r="1.3" fill="#fff" opacity="0.64"/><circle cx="370" cy="376" r="2.7" fill="#fff" opacity="0.43"/><circle cx="269" cy="198" r="0.9" fill="#fff" opacity="0.52"/><circle cx="171" cy="635" r="1.8" fill="#fff" opacity="0.62"/><circle cx="171" cy="479" r="1.0" fill="#fff" opacity="0.36"/><circle cx="334" cy="576" r="3.0" fill="#fff" opacity="0.54"/><circle cx="46" cy="482" r="1.0" fill="#fff" opacity="0.32"/><circle cx="424" cy="423" r="2.1" fill="#fff" opacity="0.38"/><circle cx="368" cy="140" r="1.3" fill="#fff" opacity="0.46"/><circle cx="245" cy="125" r="1.2" fill="#fff" opacity="0.51"/></g>
  <path d="M24 680 L110 610 L186 666 L272 592 L356 674 L445 626 L512 704 V768 H0V704Z" fill="#a92d1d" opacity=".18"/>
  <ellipse cx="256" cy="662" rx="150" ry="34" fill="#a92d1d" opacity=".28"/>
  <g transform="translate(0 122)">
    <path d="M149.4 228.5 L219.1 156.75 H311.35 L376.95 242.85 L346.2 394.55 H163.75 Z" fill="url(#body)" filter="url(#softShadow)"/><path d="M198.60000000000002 179.3 L245.75 91.15 L280.6 171.10000000000002 Z" fill="#ffd166"/><path d="M290.85 183.4 L344.15 113.70000000000002 L342.1 210.05 Z" fill="#ff6b35"/><rect x="194.5" y="277.7" width="122.99999999999999" height="30.749999999999996" rx="14.349999999999998" fill="#a92d1d" opacity=".38"/><circle cx="227.3" cy="292.05" r="10.25" fill="#ffd166"/><circle cx="284.7" cy="292.05" r="10.25" fill="#ffd166"/><circle cx="256" cy="210.05" r="14.349999999999998" fill="#ffd166" opacity=".9"/>
  </g>
  <path d="M74 126 C170 65 334 65 438 126" stroke="#fff" stroke-width="16" stroke-linecap="round" opacity=".16"/>
  <path d="M63 676 C162 718 344 718 449 662" stroke="#fff" stroke-width="14" stroke-linecap="round" opacity=".16"/>
</svg>