<svg xmlns="http://www.w3.org/2000/svg" viewBox="0 0 512 768" role="img" aria-label="火山巨兽 original portrait">
  
  <defs>
    <linearGradient id="bgp678" x1="0" y1="0" x2="1" y2="1">
      <stop offset="0" stop-color="#e9c68f"/>
      <stop offset=".55" stop-color="#a0713d"/>
      <stop offset="1" stop-color="#5a3b22"/>
    </linearGradient>
    <radialGradient id="body" cx=".36" cy=".25" r=".76">
      <stop offset="0" stop-color="#e9c68f"/>
      <stop offset=".6" stop-color="#a0713d"/>
      <stop offset="1" stop-color="#5a3b22"/>
    </radialGradient>
    <radialGradient id="head" cx=".36" cy=".26" r=".72">
      <stop offset="0" stop-color="#ffffff" stop-opacity=".85"/>
      <stop offset=".2" stop-color="#e9c68f"/>
      <stop offset=".72" stop-color="#a0713d"/>
      <stop offset="1" stop-color="#5a3b22"/>
    </radialGradient>
    <filter id="softShadow" x="-30%" y="-30%" width="160%" height="160%">
      <feDropShadow dx="0" dy="8" stdDeviation="8" flood-color="#5a3b22" flood-opacity=".35"/>
    </filter>
  </defs>
  <rect width="512" height="768" rx="48" fill="url(#bgp678)"/>
  <rect x="24" y="24" width="464" height="720" rx="40" fill="#ffffff" opacity=".08"/>
  <g opacity=".42"><circle cx="189" cy="668" r="2.3" fill="#fff" opacity="0.58"/><circle cx="311" cy="391" r="1.2" fill="#fff" opacity="0.60"/><circle cx="201" cy="277" r="2.2" fill="#fff" opacity="0.52"/><circle cx="493" cy="701" r="2.4" fill="#fff" opacity="0.44"/><circle cx="410" cy="142" r="2.8" fill="#fff" opacity="0.57"/><circle cx="267" cy="238" r="2.7" fill="#fff" opacity="0.52"/><circle cx="194" cy="415" r="2.4" fill="#fff" opacity="0.53"/><circle cx="62" cy="614" r="1.7" fill="#fff" opacity="0.65"/><circle cx="480" cy="8" r="0.9" fill="#fff" opacity="0.38"/><circle cx="307" cy="131" r="0.9" fill="#fff" opacity="0.50"/><circle cx="294" cy="175" r="2.9" fill="#fff" opacity="0.68"/><circle cx="239" cy="387" r="2.0" fill="#fff" opacity="0.70"/><circle cx="343" cy="484" r="2.2" fill="#fff" opacity="0.30"/><circle cx="491" cy="307" r="1.0" fill="#fff" opacity="0.60"/><circle cx="38" cy="381" r="2.2" fill="#fff" opacity="0.50"/><circle cx="428" cy="696" r="2.9" fill="#fff" opacity="0.66"/><circle cx="112" cy="555" r="2.6" fill="#fff" opacity="0.49"/><circle cx="298" cy="124" r="1.1" fill="#fff" opacity="0.45"/><circle cx="95" cy="563" r="2.7" fill="#fff" opacity="0.49"/><circle cx="292" cy="16" r="0.8" fill="#fff" opacity="0.46"/><circle cx="416" cy="721" r="1.2" fill="#fff" opacity="0.53"/><circle cx="284" cy="717" r="1.7" fill="#fff" opacity="0.31"/><circle cx="226" cy="666" r="2.6" fill="#fff" opacity="0.61"/><circle cx="154" cy="110" r="3.1" fill="#fff" opacity="0.68"/><circle cx="258" cy="4" r="2.5" fill="#fff" opacity="0.62"/><circle cx="180" cy="634" r="1.1" fill="#fff" opacity="0.70"/><circle cx="104" cy="161" r="2.1" fill="#fff" opacity="0.68"/><circle cx="111" cy="432" r="3.0" fill="#fff" opacity="0.64"/></g>
  <path d="M24 680 L110 610 L186 666 L272 592 L356 674 L445 626 L512 704 V768 H0V704Z" fill="#5a3b22" opacity=".18"/>
  <ellipse cx="256" cy="662" rx="150" ry="34" fill="#5a3b22" opacity=".28"/>
  <g transform="translate(0 122)">
    <path d="M149.4 228.5 L219.1 156.75 H311.35 L376.95 242.85 L346.2 394.55 H163.75 Z" fill="url(#body)" filter="url(#softShadow)"/><path d="M198.60000000000002 179.3 L245.75 91.15 L280.6 171.10000000000002 Z" fill="#e9c68f"/><path d="M290.85 183.4 L344.15 113.70000000000002 L342.1 210.05 Z" fill="#a0713d"/><rect x="194.5" y="277.7" width="122.99999999999999" height="30.749999999999996" rx="14.349999999999998" fill="#5a3b22" opacity=".38"/><circle cx="227.3" cy="292.05" r="10.25" fill="#e9c68f"/><circle cx="284.7" cy="292.05" r="10.25" fill="#e9c68f"/><path d="M215 201.85000000000002 Q256 224.4 297 201.85000000000002" stroke="#e9c68f" stroke-width="10.25" fill="none" stroke-linecap="round" opacity=".8"/>
  </g>
  <path d="M74 126 C170 65 334 65 438 126" stroke="#fff" stroke-width="16" stroke-linecap="round" opacity=".16"/>
  <path d="M63 676 C162 718 344 718 449 662" stroke="#fff" stroke-width="14" stroke-linecap="round" opacity=".16"/>
</svg>