<svg xmlns="http://www.w3.org/2000/svg" viewBox="0 0 512 768" role="img" aria-label="深渊灯鱼 original portrait">
  
  <defs>
    <linearGradient id="bgp679" x1="0" y1="0" x2="1" y2="1">
      <stop offset="0" stop-color="#9ee8ff"/>
      <stop offset=".55" stop-color="#2397d5"/>
      <stop offset="1" stop-color="#0b4f8f"/>
    </linearGradient>
    <radialGradient id="body" cx=".36" cy=".25" r=".76">
      <stop offset="0" stop-color="#9ee8ff"/>
      <stop offset=".6" stop-color="#2397d5"/>
      <stop offset="1" stop-color="#0b4f8f"/>
    </radialGradient>
    <radialGradient id="head" cx=".36" cy=".26" r=".72">
      <stop offset="0" stop-color="#ffffff" stop-opacity=".85"/>
      <stop offset=".2" stop-color="#9ee8ff"/>
      <stop offset=".72" stop-color="#2397d5"/>
      <stop offset="1" stop-color="#0b4f8f"/>
    </radialGradient>
    <filter id="softShadow" x="-30%" y="-30%" width="160%" height="160%">
      <feDropShadow dx="0" dy="8" stdDeviation="8" flood-color="#0b4f8f" flood-opacity=".35"/>
    </filter>
  </defs>
  <rect width="512" height="768" rx="48" fill="url(#bgp679)"/>
  <rect x="24" y="24" width="464" height="720" rx="40" fill="#ffffff" opacity=".08"/>
  <g opacity=".42"><circle cx="43" cy="216" r="2.5" fill="#fff" opacity="0.39"/><circle cx="467" cy="291" r="2.1" fill="#fff" opacity="0.38"/><circle cx="235" cy="339" r="1.3" fill="#fff" opacity="0.34"/><circle cx="364" cy="233" r="1.8" fill="#fff" opacity="0.41"/><circle cx="221" cy="318" r="1.0" fill="#fff" opacity="0.60"/><circle cx="127" cy="338" r="1.8" fill="#fff" opacity="0.59"/><circle cx="419" cy="109" r="2.7" fill="#fff" opacity="0.59"/><circle cx="398" cy="186" r="2.2" fill="#fff" opacity="0.27"/><circle cx="97" cy="304" r="2.1" fill="#fff" opacity="0.49"/><circle cx="104" cy="202" r="1.9" fill="#fff" opacity="0.58"/><circle cx="151" cy="301" r="2.4" fill="#fff" opacity="0.41"/><circle cx="432" cy="294" r="1.5" fill="#fff" opacity="0.53"/><circle cx="327" cy="697" r="3.0" fill="#fff" opacity="0.64"/><circle cx="465" cy="695" r="2.7" fill="#fff" opacity="0.31"/><circle cx="282" cy="761" r="1.5" fill="#fff" opacity="0.55"/><circle cx="26" cy="307" r="1.6" fill="#fff" opacity="0.59"/><circle cx="120" cy="702" r="2.7" fill="#fff" opacity="0.58"/><circle cx="259" cy="480" r="1.9" fill="#fff" opacity="0.51"/><circle cx="478" cy="91" r="3.2" fill="#fff" opacity="0.58"/><circle cx="283" cy="642" r="1.2" fill="#fff" opacity="0.30"/><circle cx="150" cy="112" r="3.0" fill="#fff" opacity="0.32"/><circle cx="393" cy="301" r="1.8" fill="#fff" opacity="0.33"/><circle cx="188" cy="653" r="1.5" fill="#fff" opacity="0.51"/><circle cx="481" cy="491" r="1.9" fill="#fff" opacity="0.31"/><circle cx="131" cy="428" r="2.2" fill="#fff" opacity="0.44"/><circle cx="483" cy="413" r="0.8" fill="#fff" opacity="0.32"/><circle cx="311" cy="433" r="3.1" fill="#fff" opacity="0.51"/><circle cx="138" cy="118" r="1.9" fill="#fff" opacity="0.68"/></g>
  <path d="M0 585 C86 541 164 618 248 574 C338 526 407 595 512 548 V768 H0Z" fill="#2397d5" opacity=".2"/><path d="M0 650 C105 610 180 690 282 638 C370 594 426 650 512 618 V768 H0Z" fill="#9ee8ff" opacity=".18"/>
  <ellipse cx="256" cy="662" rx="150" ry="34" fill="#0b4f8f" opacity=".28"/>
  <g transform="translate(0 122)">
    <path d="M110.45000000000002 326.9 L40.75000000000003 240.8 L44.85000000000002 413 Z" fill="#2397d5" opacity=".86"/><ellipse cx="247.8" cy="322.8" rx="139.39999999999998" ry="88.14999999999999" fill="url(#body)" filter="url(#softShadow)"/><path d="M243.7 242.85 C288.8 136.25 358.5 173.15 342.1 263.35" fill="#2397d5" opacity=".72"/><path d="M301.1 384.3 C338 458.1 411.79999999999995 413 362.6 359.7" fill="#9ee8ff" opacity=".8"/><circle cx="329.8" cy="292.05" r="14.349999999999998" fill="#101828"/><circle cx="335.95" cy="285.9" r="4.714999999999999" fill="#fff"/><path d="M215 201.85000000000002 Q256 224.4 297 201.85000000000002" stroke="#9ee8ff" stroke-width="10.25" fill="none" stroke-linecap="round" opacity=".8"/>
  </g>
  <path d="M74 126 C170 65 334 65 438 126" stroke="#fff" stroke-width="16" stroke-linecap="round" opacity=".16"/>
  <path d="M63 676 C162 718 344 718 449 662" stroke="#fff" stroke-width="14" stroke-linecap="round" opacity=".16"/>
</svg>