<svg xmlns="http://www.w3.org/2000/svg" viewBox="0 0 512 768" role="img" aria-label="穿山甲 original portrait">
  
  <defs>
    <linearGradient id="bgp68" x1="0" y1="0" x2="1" y2="1">
      <stop offset="0" stop-color="#e9c68f"/>
      <stop offset=".55" stop-color="#a0713d"/>
      <stop offset="1" stop-color="#5a3b22"/>
    </linearGradient>
    <radialGradient id="body" cx=".36" cy=".25" r=".76">
      <stop offset="0" stop-color="#e9c68f"/>
      <stop offset=".6" stop-color="#a0713d"/>
      <stop offset="1" stop-color="#5a3b22"/>
    </radialGradient>
    <radialGradient id="head" cx=".36" cy=".26" r=".72">
      <stop offset="0" stop-color="#ffffff" stop-opacity=".85"/>
      <stop offset=".2" stop-color="#e9c68f"/>
      <stop offset=".72" stop-color="#a0713d"/>
      <stop offset="1" stop-color="#5a3b22"/>
    </radialGradient>
    <filter id="softShadow" x="-30%" y="-30%" width="160%" height="160%">
      <feDropShadow dx="0" dy="8" stdDeviation="8" flood-color="#5a3b22" flood-opacity=".35"/>
    </filter>
  </defs>
  <rect width="512" height="768" rx="48" fill="url(#bgp68)"/>
  <rect x="24" y="24" width="464" height="720" rx="40" fill="#ffffff" opacity=".08"/>
  <g opacity=".42"><circle cx="121" cy="219" r="2.4" fill="#fff" opacity="0.41"/><circle cx="202" cy="88" r="2.7" fill="#fff" opacity="0.36"/><circle cx="263" cy="502" r="2.7" fill="#fff" opacity="0.35"/><circle cx="339" cy="631" r="2.3" fill="#fff" opacity="0.32"/><circle cx="167" cy="496" r="2.7" fill="#fff" opacity="0.47"/><circle cx="379" cy="662" r="3.0" fill="#fff" opacity="0.61"/><circle cx="36" cy="135" r="2.5" fill="#fff" opacity="0.63"/><circle cx="425" cy="676" r="1.0" fill="#fff" opacity="0.28"/><circle cx="436" cy="214" r="1.9" fill="#fff" opacity="0.70"/><circle cx="441" cy="340" r="1.1" fill="#fff" opacity="0.57"/><circle cx="207" cy="743" r="1.2" fill="#fff" opacity="0.65"/><circle cx="242" cy="137" r="0.9" fill="#fff" opacity="0.39"/><circle cx="406" cy="97" r="1.0" fill="#fff" opacity="0.64"/><circle cx="451" cy="28" r="1.8" fill="#fff" opacity="0.34"/><circle cx="406" cy="555" r="0.9" fill="#fff" opacity="0.68"/><circle cx="215" cy="586" r="2.7" fill="#fff" opacity="0.40"/><circle cx="364" cy="340" r="1.2" fill="#fff" opacity="0.35"/><circle cx="125" cy="700" r="2.4" fill="#fff" opacity="0.28"/><circle cx="339" cy="439" r="2.5" fill="#fff" opacity="0.27"/><circle cx="63" cy="616" r="1.5" fill="#fff" opacity="0.64"/><circle cx="445" cy="182" r="1.2" fill="#fff" opacity="0.69"/><circle cx="137" cy="487" r="1.5" fill="#fff" opacity="0.68"/><circle cx="491" cy="215" r="2.3" fill="#fff" opacity="0.43"/><circle cx="456" cy="94" r="1.0" fill="#fff" opacity="0.47"/><circle cx="300" cy="686" r="1.2" fill="#fff" opacity="0.64"/><circle cx="313" cy="700" r="1.8" fill="#fff" opacity="0.26"/><circle cx="74" cy="185" r="1.8" fill="#fff" opacity="0.25"/><circle cx="283" cy="694" r="0.8" fill="#fff" opacity="0.66"/></g>
  <path d="M69 625 C150 571 359 568 443 628" fill="#a0713d" opacity=".14"/>
  <ellipse cx="256" cy="662" rx="150" ry="34" fill="#5a3b22" opacity=".28"/>
  <g transform="translate(0 122)">
    <ellipse cx="178.10000000000002" cy="257.2" rx="69.69999999999999" ry="100.44999999999999" fill="#e9c68f" opacity=".55"/><ellipse cx="333.9" cy="257.2" rx="69.69999999999999" ry="100.44999999999999" fill="#e9c68f" opacity=".55"/><ellipse cx="256" cy="331" rx="65.6" ry="122.99999999999999" fill="url(#body)" filter="url(#softShadow)"/><circle cx="256" cy="214.15" r="69.69999999999999" fill="url(#head)"/><path d="M219.1 160.85000000000002 Q174 93.20000000000002 118.65 117.80000000000001" stroke="#5a3b22" stroke-width="10.25" fill="none" stroke-linecap="round"/><path d="M292.9 160.85000000000002 Q338 93.20000000000002 393.35 117.80000000000001" stroke="#5a3b22" stroke-width="10.25" fill="none" stroke-linecap="round"/><path d="M198.60000000000002 322.8 H313.4 M206.8 376.1 H305.2" stroke="#5a3b22" stroke-width="8.2" opacity=".35"/><ellipse cx="223.2" cy="253.1" rx="14.349999999999998" ry="16.4" fill="#14213d"/><ellipse cx="288.8" cy="253.1" rx="14.349999999999998" ry="16.4" fill="#14213d"/><circle cx="229.35" cy="244.9" r="4.714999999999999" fill="#fff"/><circle cx="294.95" cy="244.9" r="4.714999999999999" fill="#fff"/><circle cx="256" cy="210.05" r="14.349999999999998" fill="#e9c68f" opacity=".9"/>
  </g>
  <path d="M74 126 C170 65 334 65 438 126" stroke="#fff" stroke-width="16" stroke-linecap="round" opacity=".16"/>
  <path d="M63 676 C162 718 344 718 449 662" stroke="#fff" stroke-width="14" stroke-linecap="round" opacity=".16"/>
</svg>