<svg xmlns="http://www.w3.org/2000/svg" viewBox="0 0 512 768" role="img" aria-label="暗潮鲛人 original portrait">
  
  <defs>
    <linearGradient id="bgp680" x1="0" y1="0" x2="1" y2="1">
      <stop offset="0" stop-color="#9ee8ff"/>
      <stop offset=".55" stop-color="#2397d5"/>
      <stop offset="1" stop-color="#0b4f8f"/>
    </linearGradient>
    <radialGradient id="body" cx=".36" cy=".25" r=".76">
      <stop offset="0" stop-color="#9ee8ff"/>
      <stop offset=".6" stop-color="#2397d5"/>
      <stop offset="1" stop-color="#0b4f8f"/>
    </radialGradient>
    <radialGradient id="head" cx=".36" cy=".26" r=".72">
      <stop offset="0" stop-color="#ffffff" stop-opacity=".85"/>
      <stop offset=".2" stop-color="#9ee8ff"/>
      <stop offset=".72" stop-color="#2397d5"/>
      <stop offset="1" stop-color="#0b4f8f"/>
    </radialGradient>
    <filter id="softShadow" x="-30%" y="-30%" width="160%" height="160%">
      <feDropShadow dx="0" dy="8" stdDeviation="8" flood-color="#0b4f8f" flood-opacity=".35"/>
    </filter>
  </defs>
  <rect width="512" height="768" rx="48" fill="url(#bgp680)"/>
  <rect x="24" y="24" width="464" height="720" rx="40" fill="#ffffff" opacity=".08"/>
  <g opacity=".42"><circle cx="432" cy="30" r="2.0" fill="#fff" opacity="0.48"/><circle cx="488" cy="183" r="3.0" fill="#fff" opacity="0.56"/><circle cx="339" cy="337" r="1.1" fill="#fff" opacity="0.34"/><circle cx="328" cy="417" r="2.2" fill="#fff" opacity="0.31"/><circle cx="411" cy="235" r="1.3" fill="#fff" opacity="0.31"/><circle cx="350" cy="482" r="2.7" fill="#fff" opacity="0.28"/><circle cx="252" cy="691" r="1.5" fill="#fff" opacity="0.47"/><circle cx="463" cy="546" r="1.0" fill="#fff" opacity="0.28"/><circle cx="402" cy="481" r="3.2" fill="#fff" opacity="0.52"/><circle cx="453" cy="693" r="0.9" fill="#fff" opacity="0.42"/><circle cx="305" cy="36" r="2.8" fill="#fff" opacity="0.36"/><circle cx="286" cy="405" r="1.1" fill="#fff" opacity="0.69"/><circle cx="16" cy="645" r="1.2" fill="#fff" opacity="0.60"/><circle cx="470" cy="56" r="1.3" fill="#fff" opacity="0.46"/><circle cx="63" cy="527" r="1.2" fill="#fff" opacity="0.47"/><circle cx="92" cy="268" r="1.1" fill="#fff" opacity="0.68"/><circle cx="157" cy="765" r="1.6" fill="#fff" opacity="0.66"/><circle cx="388" cy="323" r="1.5" fill="#fff" opacity="0.54"/><circle cx="493" cy="594" r="1.3" fill="#fff" opacity="0.66"/><circle cx="10" cy="678" r="1.0" fill="#fff" opacity="0.66"/><circle cx="268" cy="754" r="1.3" fill="#fff" opacity="0.58"/><circle cx="330" cy="563" r="1.4" fill="#fff" opacity="0.55"/><circle cx="106" cy="181" r="2.1" fill="#fff" opacity="0.33"/><circle cx="272" cy="541" r="1.4" fill="#fff" opacity="0.42"/><circle cx="86" cy="654" r="1.2" fill="#fff" opacity="0.30"/><circle cx="289" cy="344" r="1.9" fill="#fff" opacity="0.63"/><circle cx="322" cy="221" r="1.6" fill="#fff" opacity="0.45"/><circle cx="484" cy="581" r="3.2" fill="#fff" opacity="0.50"/></g>
  <path d="M0 585 C86 541 164 618 248 574 C338 526 407 595 512 548 V768 H0Z" fill="#2397d5" opacity=".2"/><path d="M0 650 C105 610 180 690 282 638 C370 594 426 650 512 618 V768 H0Z" fill="#9ee8ff" opacity=".18"/>
  <ellipse cx="256" cy="662" rx="150" ry="34" fill="#0b4f8f" opacity=".28"/>
  <g transform="translate(0 122)">
    <path d="M110.45000000000002 326.9 L40.75000000000003 240.8 L44.85000000000002 413 Z" fill="#2397d5" opacity=".86"/><ellipse cx="247.8" cy="322.8" rx="139.39999999999998" ry="88.14999999999999" fill="url(#body)" filter="url(#softShadow)"/><path d="M243.7 242.85 C288.8 136.25 358.5 173.15 342.1 263.35" fill="#2397d5" opacity=".72"/><path d="M301.1 384.3 C338 458.1 411.79999999999995 413 362.6 359.7" fill="#9ee8ff" opacity=".8"/><circle cx="329.8" cy="292.05" r="14.349999999999998" fill="#101828"/><circle cx="335.95" cy="285.9" r="4.714999999999999" fill="#fff"/><circle cx="256" cy="210.05" r="14.349999999999998" fill="#9ee8ff" opacity=".9"/>
  </g>
  <path d="M74 126 C170 65 334 65 438 126" stroke="#fff" stroke-width="16" stroke-linecap="round" opacity=".16"/>
  <path d="M63 676 C162 718 344 718 449 662" stroke="#fff" stroke-width="14" stroke-linecap="round" opacity=".16"/>
</svg>