<svg xmlns="http://www.w3.org/2000/svg" viewBox="0 0 512 768" role="img" aria-label="极虹晶核 unique portrait">
  <defs>
    <linearGradient id="bg683" x1="0" y1="0" x2="1" y2="1"><stop offset="0" stop-color="#ffd6f3"/><stop offset=".55" stop-color="#ff8bd6"/><stop offset="1" stop-color="#4a3830"/></linearGradient>
    <radialGradient id="body683" cx=".35" cy=".24" r=".78"><stop offset="0" stop-color="#fff" stop-opacity=".88"/><stop offset=".18" stop-color="#ffd6f3"/><stop offset=".68" stop-color="#ff8bd6"/><stop offset="1" stop-color="#4a3830"/></radialGradient>
    <filter id="shadow683" x="-30%" y="-30%" width="160%" height="160%"><feDropShadow dx="0" dy="10" stdDeviation="9" flood-color="#4a3830" flood-opacity=".36"/></filter>
  </defs>
  <rect width="512" height="768" rx="48" fill="url(#bg683)"/>
  <rect x="24" y="24" width="464" height="720" rx="40" fill="#fff" opacity=".08"/>
  <g opacity=".46"><circle cx="179" cy="444" r="4.1" fill="#fff" opacity="0.37"/><circle cx="230" cy="217" r="4.8" fill="#fff" opacity="0.50"/><circle cx="140" cy="159" r="5.0" fill="#fff" opacity="0.40"/><circle cx="57" cy="282" r="3.7" fill="#fff" opacity="0.41"/><circle cx="170" cy="524" r="5.4" fill="#fff" opacity="0.32"/><circle cx="69" cy="247" r="3.0" fill="#fff" opacity="0.39"/><circle cx="264" cy="279" r="2.0" fill="#fff" opacity="0.29"/><circle cx="196" cy="376" r="4.5" fill="#fff" opacity="0.55"/><circle cx="50" cy="196" r="1.6" fill="#fff" opacity="0.45"/><circle cx="271" cy="230" r="3.2" fill="#fff" opacity="0.27"/><circle cx="374" cy="232" r="3.3" fill="#fff" opacity="0.31"/><circle cx="61" cy="289" r="2.5" fill="#fff" opacity="0.54"/><circle cx="112" cy="334" r="2.4" fill="#fff" opacity="0.35"/><circle cx="285" cy="526" r="1.7" fill="#fff" opacity="0.61"/><circle cx="281" cy="567" r="5.4" fill="#fff" opacity="0.43"/><circle cx="83" cy="506" r="3.9" fill="#fff" opacity="0.51"/><circle cx="288" cy="96" r="2.3" fill="#fff" opacity="0.54"/><circle cx="106" cy="396" r="1.2" fill="#fff" opacity="0.46"/></g>
  <path d="M0 596 C80 558 128 616 202 584 C281 550 332 618 418 582 C464 563 492 570 512 586 V768 H0Z" fill="#4a3830" opacity=".22"/>
  <ellipse cx="256" cy="664" rx="154" ry="36" fill="#4a3830" opacity=".3"/>
  <g transform="translate(0 84)"><circle cx="256" cy="357" r="128" fill="url(#body683)" filter="url(#shadow683)"/><circle cx="256" cy="357" r="70" fill="#d6c2a4" opacity=".26"/>
    <circle cx="214" cy="331" r="17" fill="#4a3830"/><circle cx="298" cy="331" r="17" fill="#4a3830"/>
    <circle cx="208" cy="325" r="5" fill="#fff" opacity=".75"/><circle cx="292" cy="325" r="5" fill="#fff" opacity=".75"/>
    <path d="M214 248 Q256 284 298 248" stroke="#d6c2a4" stroke-width="14" fill="none" stroke-linecap="round" opacity=".74"/>
    <path d="M188 560 C228 600 288 600 326 560" stroke="#fff" stroke-width="12" stroke-linecap="round" opacity=".18" fill="none"/>
  </g>
  <path d="M72 128 C168 68 334 66 440 128" stroke="#fff" stroke-width="16" stroke-linecap="round" opacity=".16"/>
  <path d="M60 678 C164 722 348 718 452 662" stroke="#fff" stroke-width="14" stroke-linecap="round" opacity=".16"/>
</svg>