<svg xmlns="http://www.w3.org/2000/svg" viewBox="0 0 512 768" role="img" aria-label="闪电雏鸟 original portrait">
  
  <defs>
    <linearGradient id="bgp684" x1="0" y1="0" x2="1" y2="1">
      <stop offset="0" stop-color="#fff27a"/>
      <stop offset=".55" stop-color="#f9c80e"/>
      <stop offset="1" stop-color="#7a5200"/>
    </linearGradient>
    <radialGradient id="body" cx=".36" cy=".25" r=".76">
      <stop offset="0" stop-color="#fff27a"/>
      <stop offset=".6" stop-color="#f9c80e"/>
      <stop offset="1" stop-color="#7a5200"/>
    </radialGradient>
    <radialGradient id="head" cx=".36" cy=".26" r=".72">
      <stop offset="0" stop-color="#ffffff" stop-opacity=".85"/>
      <stop offset=".2" stop-color="#fff27a"/>
      <stop offset=".72" stop-color="#f9c80e"/>
      <stop offset="1" stop-color="#7a5200"/>
    </radialGradient>
    <filter id="softShadow" x="-30%" y="-30%" width="160%" height="160%">
      <feDropShadow dx="0" dy="8" stdDeviation="8" flood-color="#7a5200" flood-opacity=".35"/>
    </filter>
  </defs>
  <rect width="512" height="768" rx="48" fill="url(#bgp684)"/>
  <rect x="24" y="24" width="464" height="720" rx="40" fill="#ffffff" opacity=".08"/>
  <g opacity=".42"><circle cx="98" cy="48" r="2.5" fill="#fff" opacity="0.45"/><circle cx="443" cy="496" r="3.1" fill="#fff" opacity="0.48"/><circle cx="44" cy="683" r="1.4" fill="#fff" opacity="0.49"/><circle cx="447" cy="432" r="2.1" fill="#fff" opacity="0.65"/><circle cx="472" cy="294" r="2.4" fill="#fff" opacity="0.61"/><circle cx="119" cy="549" r="2.1" fill="#fff" opacity="0.67"/><circle cx="210" cy="152" r="1.8" fill="#fff" opacity="0.43"/><circle cx="262" cy="651" r="2.7" fill="#fff" opacity="0.55"/><circle cx="150" cy="50" r="3.1" fill="#fff" opacity="0.28"/><circle cx="165" cy="427" r="1.0" fill="#fff" opacity="0.35"/><circle cx="365" cy="735" r="2.4" fill="#fff" opacity="0.26"/><circle cx="304" cy="296" r="3.2" fill="#fff" opacity="0.65"/><circle cx="86" cy="329" r="2.6" fill="#fff" opacity="0.63"/><circle cx="28" cy="729" r="3.0" fill="#fff" opacity="0.26"/><circle cx="393" cy="80" r="1.3" fill="#fff" opacity="0.52"/><circle cx="473" cy="481" r="2.5" fill="#fff" opacity="0.42"/><circle cx="259" cy="147" r="1.5" fill="#fff" opacity="0.56"/><circle cx="3" cy="649" r="2.5" fill="#fff" opacity="0.58"/><circle cx="317" cy="156" r="1.7" fill="#fff" opacity="0.41"/><circle cx="315" cy="10" r="1.3" fill="#fff" opacity="0.60"/><circle cx="407" cy="720" r="1.3" fill="#fff" opacity="0.64"/><circle cx="45" cy="332" r="2.8" fill="#fff" opacity="0.55"/><circle cx="110" cy="439" r="3.0" fill="#fff" opacity="0.48"/><circle cx="95" cy="145" r="1.1" fill="#fff" opacity="0.33"/><circle cx="128" cy="378" r="1.6" fill="#fff" opacity="0.65"/><circle cx="439" cy="571" r="2.6" fill="#fff" opacity="0.30"/><circle cx="64" cy="294" r="1.6" fill="#fff" opacity="0.52"/><circle cx="82" cy="317" r="2.8" fill="#fff" opacity="0.49"/></g>
  <path d="M0 620 C92 590 171 620 259 600 C357 577 432 594 512 565 V768 H0Z" fill="#fff" opacity=".18"/>
  <ellipse cx="256" cy="662" rx="150" ry="34" fill="#7a5200" opacity=".28"/>
  <g transform="translate(0 122)">
    <path d="M219.1 306.4 C65.35000000000002 187.5 67.4 392.5 206.8 400.7" fill="#f9c80e" opacity=".78"/><path d="M292.9 306.4 C446.65 187.5 444.6 392.5 305.2 400.7" fill="#f9c80e" opacity=".78"/><ellipse cx="256" cy="343.3" rx="86.1" ry="110.69999999999999" fill="url(#body)" filter="url(#softShadow)"/><circle cx="256" cy="228.5" r="77.89999999999999" fill="url(#head)"/><path d="M245.75 226.45 L331.85 249 L249.85 269.5 Z" fill="#fff27a"/><path d="M210.9 154.70000000000002 C239.6 89.10000000000002 280.6 109.60000000000002 260.1 167" fill="#7a5200" opacity=".85"/><ellipse cx="223.2" cy="253.1" rx="14.349999999999998" ry="16.4" fill="#14213d"/><ellipse cx="288.8" cy="253.1" rx="14.349999999999998" ry="16.4" fill="#14213d"/><circle cx="229.35" cy="244.9" r="4.714999999999999" fill="#fff"/><circle cx="294.95" cy="244.9" r="4.714999999999999" fill="#fff"/><circle cx="256" cy="210.05" r="14.349999999999998" fill="#fff27a" opacity=".9"/>
  </g>
  <path d="M74 126 C170 65 334 65 438 126" stroke="#fff" stroke-width="16" stroke-linecap="round" opacity=".16"/>
  <path d="M63 676 C162 718 344 718 449 662" stroke="#fff" stroke-width="14" stroke-linecap="round" opacity=".16"/>
</svg>