<svg xmlns="http://www.w3.org/2000/svg" viewBox="0 0 512 768" role="img" aria-label="雷鸣神鹫 original portrait">
  
  <defs>
    <linearGradient id="bgp685" x1="0" y1="0" x2="1" y2="1">
      <stop offset="0" stop-color="#d9edff"/>
      <stop offset=".55" stop-color="#82b7ff"/>
      <stop offset="1" stop-color="#4260ad"/>
    </linearGradient>
    <radialGradient id="body" cx=".36" cy=".25" r=".76">
      <stop offset="0" stop-color="#d9edff"/>
      <stop offset=".6" stop-color="#82b7ff"/>
      <stop offset="1" stop-color="#4260ad"/>
    </radialGradient>
    <radialGradient id="head" cx=".36" cy=".26" r=".72">
      <stop offset="0" stop-color="#ffffff" stop-opacity=".85"/>
      <stop offset=".2" stop-color="#d9edff"/>
      <stop offset=".72" stop-color="#82b7ff"/>
      <stop offset="1" stop-color="#4260ad"/>
    </radialGradient>
    <filter id="softShadow" x="-30%" y="-30%" width="160%" height="160%">
      <feDropShadow dx="0" dy="8" stdDeviation="8" flood-color="#4260ad" flood-opacity=".35"/>
    </filter>
  </defs>
  <rect width="512" height="768" rx="48" fill="url(#bgp685)"/>
  <rect x="24" y="24" width="464" height="720" rx="40" fill="#ffffff" opacity=".08"/>
  <g opacity=".42"><circle cx="163" cy="72" r="2.0" fill="#fff" opacity="0.26"/><circle cx="187" cy="120" r="1.3" fill="#fff" opacity="0.53"/><circle cx="294" cy="97" r="1.6" fill="#fff" opacity="0.53"/><circle cx="496" cy="495" r="1.6" fill="#fff" opacity="0.45"/><circle cx="298" cy="615" r="1.6" fill="#fff" opacity="0.26"/><circle cx="351" cy="395" r="1.7" fill="#fff" opacity="0.66"/><circle cx="54" cy="54" r="2.7" fill="#fff" opacity="0.65"/><circle cx="242" cy="91" r="1.1" fill="#fff" opacity="0.56"/><circle cx="118" cy="567" r="0.9" fill="#fff" opacity="0.33"/><circle cx="480" cy="289" r="1.0" fill="#fff" opacity="0.54"/><circle cx="425" cy="143" r="2.1" fill="#fff" opacity="0.31"/><circle cx="499" cy="630" r="1.2" fill="#fff" opacity="0.44"/><circle cx="318" cy="328" r="1.9" fill="#fff" opacity="0.25"/><circle cx="253" cy="79" r="2.0" fill="#fff" opacity="0.28"/><circle cx="293" cy="427" r="1.8" fill="#fff" opacity="0.49"/><circle cx="25" cy="6" r="1.4" fill="#fff" opacity="0.45"/><circle cx="68" cy="472" r="1.5" fill="#fff" opacity="0.43"/><circle cx="121" cy="581" r="1.7" fill="#fff" opacity="0.38"/><circle cx="397" cy="665" r="1.9" fill="#fff" opacity="0.42"/><circle cx="92" cy="100" r="2.7" fill="#fff" opacity="0.69"/><circle cx="290" cy="31" r="2.2" fill="#fff" opacity="0.36"/><circle cx="402" cy="174" r="1.9" fill="#fff" opacity="0.50"/><circle cx="108" cy="693" r="2.8" fill="#fff" opacity="0.59"/><circle cx="406" cy="572" r="1.8" fill="#fff" opacity="0.50"/><circle cx="277" cy="89" r="1.2" fill="#fff" opacity="0.34"/><circle cx="158" cy="127" r="2.9" fill="#fff" opacity="0.60"/><circle cx="206" cy="300" r="2.0" fill="#fff" opacity="0.33"/><circle cx="175" cy="592" r="2.0" fill="#fff" opacity="0.57"/></g>
  <circle cx="256" cy="294" r="209" fill="#d9edff" opacity=".12"/><circle cx="256" cy="294" r="167" fill="#fff" opacity=".1"/>
  <ellipse cx="256" cy="662" rx="150" ry="34" fill="#4260ad" opacity=".28"/>
  <g transform="translate(0 122)">
    <ellipse cx="256" cy="339.2" rx="100.44999999999999" ry="112.74999999999999" fill="url(#body)" filter="url(#softShadow)"/><circle cx="256" cy="226.45" r="79.94999999999999" fill="url(#head)"/><ellipse cx="256" cy="214.15" rx="139.39999999999998" ry="36.9" fill="none" stroke="#d9edff" stroke-width="14.349999999999998" opacity=".75" transform="rotate(-12 256 214.15)"/><path d="M256 103.45000000000002 L276.5 154.70000000000002 L333.9 156.75 L286.75 187.5 L303.15 242.85 L256 208 L208.85 242.85 L225.25 187.5 L178.10000000000002 156.75 L235.5 154.70000000000002 Z" fill="#82b7ff"/><ellipse cx="223.2" cy="253.1" rx="14.349999999999998" ry="16.4" fill="#14213d"/><ellipse cx="288.8" cy="253.1" rx="14.349999999999998" ry="16.4" fill="#14213d"/><circle cx="229.35" cy="244.9" r="4.714999999999999" fill="#fff"/><circle cx="294.95" cy="244.9" r="4.714999999999999" fill="#fff"/><circle cx="256" cy="210.05" r="14.349999999999998" fill="#d9edff" opacity=".9"/>
  </g>
  <path d="M74 126 C170 65 334 65 438 126" stroke="#fff" stroke-width="16" stroke-linecap="round" opacity=".16"/>
  <path d="M63 676 C162 718 344 718 449 662" stroke="#fff" stroke-width="14" stroke-linecap="round" opacity=".16"/>
</svg>