<svg xmlns="http://www.w3.org/2000/svg" viewBox="0 0 512 768" role="img" aria-label="极地雪狐 original portrait">
  
  <defs>
    <linearGradient id="bgp688" x1="0" y1="0" x2="1" y2="1">
      <stop offset="0" stop-color="#d7fbff"/>
      <stop offset=".55" stop-color="#71d6e8"/>
      <stop offset="1" stop-color="#318aa3"/>
    </linearGradient>
    <radialGradient id="body" cx=".36" cy=".25" r=".76">
      <stop offset="0" stop-color="#d7fbff"/>
      <stop offset=".6" stop-color="#71d6e8"/>
      <stop offset="1" stop-color="#318aa3"/>
    </radialGradient>
    <radialGradient id="head" cx=".36" cy=".26" r=".72">
      <stop offset="0" stop-color="#ffffff" stop-opacity=".85"/>
      <stop offset=".2" stop-color="#d7fbff"/>
      <stop offset=".72" stop-color="#71d6e8"/>
      <stop offset="1" stop-color="#318aa3"/>
    </radialGradient>
    <filter id="softShadow" x="-30%" y="-30%" width="160%" height="160%">
      <feDropShadow dx="0" dy="8" stdDeviation="8" flood-color="#318aa3" flood-opacity=".35"/>
    </filter>
  </defs>
  <rect width="512" height="768" rx="48" fill="url(#bgp688)"/>
  <rect x="24" y="24" width="464" height="720" rx="40" fill="#ffffff" opacity=".08"/>
  <g opacity=".42"><circle cx="384" cy="392" r="3.0" fill="#fff" opacity="0.33"/><circle cx="413" cy="132" r="1.6" fill="#fff" opacity="0.60"/><circle cx="15" cy="229" r="0.9" fill="#fff" opacity="0.44"/><circle cx="451" cy="112" r="1.0" fill="#fff" opacity="0.50"/><circle cx="418" cy="395" r="0.8" fill="#fff" opacity="0.49"/><circle cx="427" cy="129" r="2.1" fill="#fff" opacity="0.49"/><circle cx="396" cy="532" r="2.0" fill="#fff" opacity="0.50"/><circle cx="32" cy="163" r="1.3" fill="#fff" opacity="0.46"/><circle cx="493" cy="205" r="2.1" fill="#fff" opacity="0.49"/><circle cx="500" cy="245" r="3.0" fill="#fff" opacity="0.56"/><circle cx="464" cy="28" r="1.2" fill="#fff" opacity="0.55"/><circle cx="298" cy="257" r="0.8" fill="#fff" opacity="0.59"/><circle cx="494" cy="206" r="2.7" fill="#fff" opacity="0.46"/><circle cx="443" cy="365" r="2.1" fill="#fff" opacity="0.35"/><circle cx="354" cy="447" r="1.6" fill="#fff" opacity="0.34"/><circle cx="383" cy="268" r="1.6" fill="#fff" opacity="0.58"/><circle cx="295" cy="557" r="2.6" fill="#fff" opacity="0.68"/><circle cx="441" cy="666" r="2.7" fill="#fff" opacity="0.68"/><circle cx="482" cy="149" r="0.9" fill="#fff" opacity="0.62"/><circle cx="101" cy="687" r="3.0" fill="#fff" opacity="0.34"/><circle cx="100" cy="549" r="1.2" fill="#fff" opacity="0.53"/><circle cx="439" cy="355" r="2.5" fill="#fff" opacity="0.33"/><circle cx="352" cy="631" r="2.1" fill="#fff" opacity="0.39"/><circle cx="106" cy="15" r="2.1" fill="#fff" opacity="0.55"/><circle cx="168" cy="82" r="1.1" fill="#fff" opacity="0.39"/><circle cx="93" cy="279" r="1.5" fill="#fff" opacity="0.36"/><circle cx="218" cy="277" r="2.3" fill="#fff" opacity="0.57"/><circle cx="157" cy="211" r="1.3" fill="#fff" opacity="0.28"/></g>
  <path d="M0 670 C96 613 167 665 256 620 C337 660 421 608 512 662 V768 H0Z" fill="#318aa3" opacity=".15"/>
  <ellipse cx="256" cy="662" rx="150" ry="34" fill="#318aa3" opacity=".28"/>
  <g transform="translate(0 122)">
    <path d="M159.65 347.4 C69.45000000000002 322.8 92 222.35000000000002 165.8 263.35" stroke="#71d6e8" stroke-width="28.699999999999996" fill="none" stroke-linecap="round" opacity=".76"/><ellipse cx="256" cy="353.55" rx="108.64999999999999" ry="102.49999999999999" fill="url(#body)" filter="url(#softShadow)"/><path d="M184.25 212.10000000000002 L137.10000000000002 115.75000000000003 L231.4 175.20000000000002 Z" fill="#71d6e8"/><path d="M327.75 212.10000000000002 L374.9 115.75000000000003 L280.6 175.20000000000002 Z" fill="#71d6e8"/><circle cx="256" cy="234.65" r="92.24999999999999" fill="url(#head)"/><ellipse cx="221.15" cy="251.05" rx="16.4" ry="20.5" fill="#182033"/><ellipse cx="290.85" cy="251.05" rx="16.4" ry="20.5" fill="#182033"/><ellipse cx="223.2" cy="253.1" rx="14.349999999999998" ry="16.4" fill="#14213d"/><ellipse cx="288.8" cy="253.1" rx="14.349999999999998" ry="16.4" fill="#14213d"/><circle cx="229.35" cy="244.9" r="4.714999999999999" fill="#fff"/><circle cx="294.95" cy="244.9" r="4.714999999999999" fill="#fff"/><circle cx="256" cy="210.05" r="14.349999999999998" fill="#d7fbff" opacity=".9"/>
  </g>
  <path d="M74 126 C170 65 334 65 438 126" stroke="#fff" stroke-width="16" stroke-linecap="round" opacity=".16"/>
  <path d="M63 676 C162 718 344 718 449 662" stroke="#fff" stroke-width="14" stroke-linecap="round" opacity=".16"/>
</svg>