<svg xmlns="http://www.w3.org/2000/svg" viewBox="0 0 512 768" role="img" aria-label="大地陶偶 original portrait">
  
  <defs>
    <linearGradient id="bgp689" x1="0" y1="0" x2="1" y2="1">
      <stop offset="0" stop-color="#e9c68f"/>
      <stop offset=".55" stop-color="#a0713d"/>
      <stop offset="1" stop-color="#5a3b22"/>
    </linearGradient>
    <radialGradient id="body" cx=".36" cy=".25" r=".76">
      <stop offset="0" stop-color="#e9c68f"/>
      <stop offset=".6" stop-color="#a0713d"/>
      <stop offset="1" stop-color="#5a3b22"/>
    </radialGradient>
    <radialGradient id="head" cx=".36" cy=".26" r=".72">
      <stop offset="0" stop-color="#ffffff" stop-opacity=".85"/>
      <stop offset=".2" stop-color="#e9c68f"/>
      <stop offset=".72" stop-color="#a0713d"/>
      <stop offset="1" stop-color="#5a3b22"/>
    </radialGradient>
    <filter id="softShadow" x="-30%" y="-30%" width="160%" height="160%">
      <feDropShadow dx="0" dy="8" stdDeviation="8" flood-color="#5a3b22" flood-opacity=".35"/>
    </filter>
  </defs>
  <rect width="512" height="768" rx="48" fill="url(#bgp689)"/>
  <rect x="24" y="24" width="464" height="720" rx="40" fill="#ffffff" opacity=".08"/>
  <g opacity=".42"><circle cx="120" cy="259" r="0.9" fill="#fff" opacity="0.25"/><circle cx="363" cy="25" r="1.2" fill="#fff" opacity="0.68"/><circle cx="34" cy="597" r="1.9" fill="#fff" opacity="0.38"/><circle cx="13" cy="94" r="1.5" fill="#fff" opacity="0.46"/><circle cx="220" cy="685" r="1.9" fill="#fff" opacity="0.38"/><circle cx="371" cy="210" r="1.4" fill="#fff" opacity="0.64"/><circle cx="200" cy="14" r="1.4" fill="#fff" opacity="0.39"/><circle cx="129" cy="397" r="2.2" fill="#fff" opacity="0.34"/><circle cx="91" cy="189" r="2.7" fill="#fff" opacity="0.61"/><circle cx="413" cy="398" r="1.2" fill="#fff" opacity="0.34"/><circle cx="97" cy="692" r="1.9" fill="#fff" opacity="0.30"/><circle cx="440" cy="477" r="1.9" fill="#fff" opacity="0.68"/><circle cx="315" cy="585" r="2.4" fill="#fff" opacity="0.52"/><circle cx="198" cy="297" r="1.1" fill="#fff" opacity="0.41"/><circle cx="3" cy="23" r="2.2" fill="#fff" opacity="0.49"/><circle cx="116" cy="35" r="0.9" fill="#fff" opacity="0.33"/><circle cx="179" cy="314" r="2.4" fill="#fff" opacity="0.47"/><circle cx="223" cy="540" r="2.1" fill="#fff" opacity="0.59"/><circle cx="280" cy="458" r="1.9" fill="#fff" opacity="0.29"/><circle cx="273" cy="217" r="2.4" fill="#fff" opacity="0.68"/><circle cx="202" cy="189" r="2.8" fill="#fff" opacity="0.69"/><circle cx="312" cy="486" r="2.3" fill="#fff" opacity="0.60"/><circle cx="356" cy="151" r="1.2" fill="#fff" opacity="0.35"/><circle cx="148" cy="453" r="2.3" fill="#fff" opacity="0.56"/><circle cx="207" cy="90" r="1.9" fill="#fff" opacity="0.32"/><circle cx="436" cy="715" r="1.8" fill="#fff" opacity="0.62"/><circle cx="488" cy="557" r="1.5" fill="#fff" opacity="0.59"/><circle cx="212" cy="348" r="2.2" fill="#fff" opacity="0.68"/></g>
  <path d="M24 680 L110 610 L186 666 L272 592 L356 674 L445 626 L512 704 V768 H0V704Z" fill="#5a3b22" opacity=".18"/>
  <ellipse cx="256" cy="662" rx="150" ry="34" fill="#5a3b22" opacity=".28"/>
  <g transform="translate(0 122)">
    <path d="M149.4 228.5 L219.1 156.75 H311.35 L376.95 242.85 L346.2 394.55 H163.75 Z" fill="url(#body)" filter="url(#softShadow)"/><path d="M198.60000000000002 179.3 L245.75 91.15 L280.6 171.10000000000002 Z" fill="#e9c68f"/><path d="M290.85 183.4 L344.15 113.70000000000002 L342.1 210.05 Z" fill="#a0713d"/><rect x="194.5" y="277.7" width="122.99999999999999" height="30.749999999999996" rx="14.349999999999998" fill="#5a3b22" opacity=".38"/><circle cx="227.3" cy="292.05" r="10.25" fill="#e9c68f"/><circle cx="284.7" cy="292.05" r="10.25" fill="#e9c68f"/><circle cx="256" cy="210.05" r="14.349999999999998" fill="#e9c68f" opacity=".9"/>
  </g>
  <path d="M74 126 C170 65 334 65 438 126" stroke="#fff" stroke-width="16" stroke-linecap="round" opacity=".16"/>
  <path d="M63 676 C162 718 344 718 449 662" stroke="#fff" stroke-width="14" stroke-linecap="round" opacity=".16"/>
</svg>