<svg xmlns="http://www.w3.org/2000/svg" viewBox="0 0 512 768" role="img" aria-label="虹彩蝶仙 original portrait">
  
  <defs>
    <linearGradient id="bgp690" x1="0" y1="0" x2="1" y2="1">
      <stop offset="0" stop-color="#d9f67f"/>
      <stop offset=".55" stop-color="#86bd2d"/>
      <stop offset="1" stop-color="#3f6c1b"/>
    </linearGradient>
    <radialGradient id="body" cx=".36" cy=".25" r=".76">
      <stop offset="0" stop-color="#d9f67f"/>
      <stop offset=".6" stop-color="#86bd2d"/>
      <stop offset="1" stop-color="#3f6c1b"/>
    </radialGradient>
    <radialGradient id="head" cx=".36" cy=".26" r=".72">
      <stop offset="0" stop-color="#ffffff" stop-opacity=".85"/>
      <stop offset=".2" stop-color="#d9f67f"/>
      <stop offset=".72" stop-color="#86bd2d"/>
      <stop offset="1" stop-color="#3f6c1b"/>
    </radialGradient>
    <filter id="softShadow" x="-30%" y="-30%" width="160%" height="160%">
      <feDropShadow dx="0" dy="8" stdDeviation="8" flood-color="#3f6c1b" flood-opacity=".35"/>
    </filter>
  </defs>
  <rect width="512" height="768" rx="48" fill="url(#bgp690)"/>
  <rect x="24" y="24" width="464" height="720" rx="40" fill="#ffffff" opacity=".08"/>
  <g opacity=".42"><circle cx="485" cy="51" r="3.1" fill="#fff" opacity="0.49"/><circle cx="365" cy="591" r="1.9" fill="#fff" opacity="0.67"/><circle cx="409" cy="191" r="1.6" fill="#fff" opacity="0.56"/><circle cx="41" cy="282" r="1.3" fill="#fff" opacity="0.63"/><circle cx="304" cy="691" r="2.2" fill="#fff" opacity="0.47"/><circle cx="85" cy="484" r="2.9" fill="#fff" opacity="0.47"/><circle cx="453" cy="686" r="1.0" fill="#fff" opacity="0.26"/><circle cx="369" cy="43" r="1.1" fill="#fff" opacity="0.66"/><circle cx="364" cy="637" r="1.8" fill="#fff" opacity="0.52"/><circle cx="182" cy="181" r="2.9" fill="#fff" opacity="0.29"/><circle cx="431" cy="248" r="1.5" fill="#fff" opacity="0.61"/><circle cx="410" cy="192" r="1.2" fill="#fff" opacity="0.35"/><circle cx="303" cy="392" r="2.0" fill="#fff" opacity="0.31"/><circle cx="285" cy="242" r="1.3" fill="#fff" opacity="0.51"/><circle cx="148" cy="606" r="1.9" fill="#fff" opacity="0.52"/><circle cx="416" cy="103" r="2.7" fill="#fff" opacity="0.47"/><circle cx="374" cy="665" r="1.0" fill="#fff" opacity="0.51"/><circle cx="471" cy="317" r="1.8" fill="#fff" opacity="0.59"/><circle cx="391" cy="729" r="1.1" fill="#fff" opacity="0.41"/><circle cx="203" cy="624" r="1.6" fill="#fff" opacity="0.34"/><circle cx="423" cy="681" r="2.6" fill="#fff" opacity="0.63"/><circle cx="3" cy="468" r="2.6" fill="#fff" opacity="0.50"/><circle cx="55" cy="412" r="1.1" fill="#fff" opacity="0.58"/><circle cx="408" cy="257" r="2.5" fill="#fff" opacity="0.43"/><circle cx="149" cy="711" r="1.3" fill="#fff" opacity="0.44"/><circle cx="51" cy="93" r="2.8" fill="#fff" opacity="0.55"/><circle cx="181" cy="260" r="1.7" fill="#fff" opacity="0.33"/><circle cx="409" cy="687" r="1.3" fill="#fff" opacity="0.52"/></g>
  <path d="M69 625 C150 571 359 568 443 628" fill="#86bd2d" opacity=".14"/>
  <ellipse cx="256" cy="662" rx="150" ry="34" fill="#3f6c1b" opacity=".28"/>
  <g transform="translate(0 122)">
    <ellipse cx="178.10000000000002" cy="257.2" rx="69.69999999999999" ry="100.44999999999999" fill="#d9f67f" opacity=".55"/><ellipse cx="333.9" cy="257.2" rx="69.69999999999999" ry="100.44999999999999" fill="#d9f67f" opacity=".55"/><ellipse cx="256" cy="331" rx="65.6" ry="122.99999999999999" fill="url(#body)" filter="url(#softShadow)"/><circle cx="256" cy="214.15" r="69.69999999999999" fill="url(#head)"/><path d="M219.1 160.85000000000002 Q174 93.20000000000002 118.65 117.80000000000001" stroke="#3f6c1b" stroke-width="10.25" fill="none" stroke-linecap="round"/><path d="M292.9 160.85000000000002 Q338 93.20000000000002 393.35 117.80000000000001" stroke="#3f6c1b" stroke-width="10.25" fill="none" stroke-linecap="round"/><path d="M198.60000000000002 322.8 H313.4 M206.8 376.1 H305.2" stroke="#3f6c1b" stroke-width="8.2" opacity=".35"/><ellipse cx="223.2" cy="253.1" rx="14.349999999999998" ry="16.4" fill="#14213d"/><ellipse cx="288.8" cy="253.1" rx="14.349999999999998" ry="16.4" fill="#14213d"/><circle cx="229.35" cy="244.9" r="4.714999999999999" fill="#fff"/><circle cx="294.95" cy="244.9" r="4.714999999999999" fill="#fff"/><path d="M215 201.85000000000002 Q256 224.4 297 201.85000000000002" stroke="#d9f67f" stroke-width="10.25" fill="none" stroke-linecap="round" opacity=".8"/>
  </g>
  <path d="M74 126 C170 65 334 65 438 126" stroke="#fff" stroke-width="16" stroke-linecap="round" opacity=".16"/>
  <path d="M63 676 C162 718 344 718 449 662" stroke="#fff" stroke-width="14" stroke-linecap="round" opacity=".16"/>
</svg>