<svg xmlns="http://www.w3.org/2000/svg" viewBox="0 0 512 768" role="img" aria-label="天照金凰 original portrait">
  
  <defs>
    <linearGradient id="bgp691" x1="0" y1="0" x2="1" y2="1">
      <stop offset="0" stop-color="#fffbe0"/>
      <stop offset=".55" stop-color="#f2cf62"/>
      <stop offset="1" stop-color="#80651c"/>
    </linearGradient>
    <radialGradient id="body" cx=".36" cy=".25" r=".76">
      <stop offset="0" stop-color="#fffbe0"/>
      <stop offset=".6" stop-color="#f2cf62"/>
      <stop offset="1" stop-color="#80651c"/>
    </radialGradient>
    <radialGradient id="head" cx=".36" cy=".26" r=".72">
      <stop offset="0" stop-color="#ffffff" stop-opacity=".85"/>
      <stop offset=".2" stop-color="#fffbe0"/>
      <stop offset=".72" stop-color="#f2cf62"/>
      <stop offset="1" stop-color="#80651c"/>
    </radialGradient>
    <filter id="softShadow" x="-30%" y="-30%" width="160%" height="160%">
      <feDropShadow dx="0" dy="8" stdDeviation="8" flood-color="#80651c" flood-opacity=".35"/>
    </filter>
  </defs>
  <rect width="512" height="768" rx="48" fill="url(#bgp691)"/>
  <rect x="24" y="24" width="464" height="720" rx="40" fill="#ffffff" opacity=".08"/>
  <g opacity=".42"><circle cx="202" cy="213" r="1.0" fill="#fff" opacity="0.50"/><circle cx="493" cy="379" r="1.7" fill="#fff" opacity="0.31"/><circle cx="52" cy="375" r="1.3" fill="#fff" opacity="0.70"/><circle cx="170" cy="440" r="3.1" fill="#fff" opacity="0.54"/><circle cx="225" cy="108" r="1.9" fill="#fff" opacity="0.27"/><circle cx="250" cy="695" r="2.4" fill="#fff" opacity="0.39"/><circle cx="92" cy="672" r="2.5" fill="#fff" opacity="0.44"/><circle cx="318" cy="425" r="1.5" fill="#fff" opacity="0.51"/><circle cx="142" cy="638" r="1.9" fill="#fff" opacity="0.30"/><circle cx="504" cy="533" r="1.9" fill="#fff" opacity="0.50"/><circle cx="427" cy="754" r="1.8" fill="#fff" opacity="0.45"/><circle cx="365" cy="754" r="0.8" fill="#fff" opacity="0.58"/><circle cx="237" cy="374" r="2.9" fill="#fff" opacity="0.54"/><circle cx="448" cy="712" r="1.5" fill="#fff" opacity="0.49"/><circle cx="448" cy="351" r="1.7" fill="#fff" opacity="0.66"/><circle cx="257" cy="532" r="0.8" fill="#fff" opacity="0.25"/><circle cx="232" cy="96" r="1.1" fill="#fff" opacity="0.33"/><circle cx="217" cy="52" r="3.0" fill="#fff" opacity="0.60"/><circle cx="201" cy="161" r="2.4" fill="#fff" opacity="0.69"/><circle cx="85" cy="286" r="1.5" fill="#fff" opacity="0.60"/><circle cx="448" cy="189" r="2.5" fill="#fff" opacity="0.29"/><circle cx="300" cy="582" r="1.6" fill="#fff" opacity="0.56"/><circle cx="330" cy="113" r="3.1" fill="#fff" opacity="0.60"/><circle cx="360" cy="543" r="0.9" fill="#fff" opacity="0.33"/><circle cx="254" cy="686" r="1.1" fill="#fff" opacity="0.54"/><circle cx="360" cy="270" r="1.5" fill="#fff" opacity="0.47"/><circle cx="435" cy="25" r="1.3" fill="#fff" opacity="0.67"/><circle cx="72" cy="706" r="1.1" fill="#fff" opacity="0.42"/></g>
  <path d="M24 680 L110 610 L186 666 L272 592 L356 674 L445 626 L512 704 V768 H0V704Z" fill="#80651c" opacity=".18"/>
  <ellipse cx="256" cy="662" rx="150" ry="34" fill="#80651c" opacity=".28"/>
  <g transform="translate(0 122)">
    <path d="M149.4 228.5 L219.1 156.75 H311.35 L376.95 242.85 L346.2 394.55 H163.75 Z" fill="url(#body)" filter="url(#softShadow)"/><path d="M198.60000000000002 179.3 L245.75 91.15 L280.6 171.10000000000002 Z" fill="#fffbe0"/><path d="M290.85 183.4 L344.15 113.70000000000002 L342.1 210.05 Z" fill="#f2cf62"/><rect x="194.5" y="277.7" width="122.99999999999999" height="30.749999999999996" rx="14.349999999999998" fill="#80651c" opacity=".38"/><circle cx="227.3" cy="292.05" r="10.25" fill="#fffbe0"/><circle cx="284.7" cy="292.05" r="10.25" fill="#fffbe0"/><path d="M215 201.85000000000002 Q256 224.4 297 201.85000000000002" stroke="#fffbe0" stroke-width="10.25" fill="none" stroke-linecap="round" opacity=".8"/>
  </g>
  <path d="M74 126 C170 65 334 65 438 126" stroke="#fff" stroke-width="16" stroke-linecap="round" opacity=".16"/>
  <path d="M63 676 C162 718 344 718 449 662" stroke="#fff" stroke-width="14" stroke-linecap="round" opacity=".16"/>
</svg>