<svg xmlns="http://www.w3.org/2000/svg" viewBox="0 0 512 768" role="img" aria-label="混沌终焉 original portrait">
  
  <defs>
    <linearGradient id="bgp694" x1="0" y1="0" x2="1" y2="1">
      <stop offset="0" stop-color="#d5c6ff"/>
      <stop offset=".55" stop-color="#7367b8"/>
      <stop offset="1" stop-color="#2d2357"/>
    </linearGradient>
    <radialGradient id="body" cx=".36" cy=".25" r=".76">
      <stop offset="0" stop-color="#d5c6ff"/>
      <stop offset=".6" stop-color="#7367b8"/>
      <stop offset="1" stop-color="#2d2357"/>
    </radialGradient>
    <radialGradient id="head" cx=".36" cy=".26" r=".72">
      <stop offset="0" stop-color="#ffffff" stop-opacity=".85"/>
      <stop offset=".2" stop-color="#d5c6ff"/>
      <stop offset=".72" stop-color="#7367b8"/>
      <stop offset="1" stop-color="#2d2357"/>
    </radialGradient>
    <filter id="softShadow" x="-30%" y="-30%" width="160%" height="160%">
      <feDropShadow dx="0" dy="8" stdDeviation="8" flood-color="#2d2357" flood-opacity=".35"/>
    </filter>
  </defs>
  <rect width="512" height="768" rx="48" fill="url(#bgp694)"/>
  <rect x="24" y="24" width="464" height="720" rx="40" fill="#ffffff" opacity=".08"/>
  <g opacity=".42"><circle cx="267" cy="35" r="1.2" fill="#fff" opacity="0.53"/><circle cx="237" cy="543" r="1.9" fill="#fff" opacity="0.56"/><circle cx="276" cy="698" r="2.4" fill="#fff" opacity="0.40"/><circle cx="232" cy="694" r="1.8" fill="#fff" opacity="0.63"/><circle cx="356" cy="361" r="2.4" fill="#fff" opacity="0.59"/><circle cx="165" cy="397" r="1.9" fill="#fff" opacity="0.53"/><circle cx="430" cy="588" r="2.4" fill="#fff" opacity="0.29"/><circle cx="148" cy="137" r="2.3" fill="#fff" opacity="0.35"/><circle cx="382" cy="241" r="2.9" fill="#fff" opacity="0.39"/><circle cx="490" cy="665" r="2.2" fill="#fff" opacity="0.55"/><circle cx="456" cy="253" r="2.6" fill="#fff" opacity="0.34"/><circle cx="21" cy="390" r="1.0" fill="#fff" opacity="0.31"/><circle cx="148" cy="423" r="2.2" fill="#fff" opacity="0.61"/><circle cx="460" cy="615" r="2.5" fill="#fff" opacity="0.56"/><circle cx="497" cy="742" r="0.9" fill="#fff" opacity="0.61"/><circle cx="303" cy="77" r="3.0" fill="#fff" opacity="0.31"/><circle cx="461" cy="11" r="2.5" fill="#fff" opacity="0.46"/><circle cx="67" cy="71" r="2.6" fill="#fff" opacity="0.39"/><circle cx="255" cy="592" r="1.8" fill="#fff" opacity="0.65"/><circle cx="507" cy="226" r="1.7" fill="#fff" opacity="0.59"/><circle cx="37" cy="327" r="1.7" fill="#fff" opacity="0.68"/><circle cx="256" cy="339" r="2.0" fill="#fff" opacity="0.63"/><circle cx="417" cy="113" r="1.8" fill="#fff" opacity="0.68"/><circle cx="282" cy="451" r="3.0" fill="#fff" opacity="0.63"/><circle cx="48" cy="665" r="2.6" fill="#fff" opacity="0.30"/><circle cx="131" cy="132" r="1.9" fill="#fff" opacity="0.49"/><circle cx="194" cy="123" r="3.1" fill="#fff" opacity="0.30"/><circle cx="432" cy="49" r="0.9" fill="#fff" opacity="0.67"/></g>
  <path d="M0 590 C76 555 120 612 197 582 C277 551 327 614 413 581 C462 562 489 570 512 585 V768 H0Z" fill="#2d2357" opacity=".22"/>
  <ellipse cx="256" cy="662" rx="150" ry="34" fill="#2d2357" opacity=".28"/>
  <g transform="translate(0 122)">
    <path d="M149.4 435.54999999999995 C100.20000000000002 304.35 167.85000000000002 156.75 264.2 154.70000000000002 C379 150.60000000000002 420 298.2 352.35 435.54999999999995 C317.5 400.7 288.8 458.1 256 419.15 C221.15 458.1 188.35000000000002 400.7 149.4 435.54999999999995Z" fill="url(#body)" filter="url(#softShadow)"/><circle cx="219.1" cy="253.1" r="16.4" fill="#1b1638"/><circle cx="292.9" cy="253.1" r="16.4" fill="#1b1638"/><path d="M239.6 312.55 Q256 331 280.6 310.5" stroke="#1b1638" stroke-width="10.25" fill="none" stroke-linecap="round"/><path d="M126.85000000000002 326.9 C40.75000000000003 296.15 83.80000000000001 201.85000000000002 137.10000000000002 238.75" fill="#7367b8" opacity=".35"/><path d="M385.15 326.9 C471.25 296.15 428.2 201.85000000000002 374.9 238.75" fill="#7367b8" opacity=".35"/><circle cx="256" cy="210.05" r="14.349999999999998" fill="#d5c6ff" opacity=".9"/>
  </g>
  <path d="M74 126 C170 65 334 65 438 126" stroke="#fff" stroke-width="16" stroke-linecap="round" opacity=".16"/>
  <path d="M63 676 C162 718 344 718 449 662" stroke="#fff" stroke-width="14" stroke-linecap="round" opacity=".16"/>
</svg>