<svg xmlns="http://www.w3.org/2000/svg" viewBox="0 0 512 768" role="img" aria-label="奥米加兽 original portrait">
  
  <defs>
    <linearGradient id="bgp696" x1="0" y1="0" x2="1" y2="1">
      <stop offset="0" stop-color="#b8ffe2"/>
      <stop offset=".55" stop-color="#22a889"/>
      <stop offset="1" stop-color="#1d506d"/>
    </linearGradient>
    <radialGradient id="body" cx=".36" cy=".25" r=".76">
      <stop offset="0" stop-color="#b8ffe2"/>
      <stop offset=".6" stop-color="#22a889"/>
      <stop offset="1" stop-color="#1d506d"/>
    </radialGradient>
    <radialGradient id="head" cx=".36" cy=".26" r=".72">
      <stop offset="0" stop-color="#ffffff" stop-opacity=".85"/>
      <stop offset=".2" stop-color="#b8ffe2"/>
      <stop offset=".72" stop-color="#22a889"/>
      <stop offset="1" stop-color="#1d506d"/>
    </radialGradient>
    <filter id="softShadow" x="-30%" y="-30%" width="160%" height="160%">
      <feDropShadow dx="0" dy="8" stdDeviation="8" flood-color="#1d506d" flood-opacity=".35"/>
    </filter>
  </defs>
  <rect width="512" height="768" rx="48" fill="url(#bgp696)"/>
  <rect x="24" y="24" width="464" height="720" rx="40" fill="#ffffff" opacity=".08"/>
  <g opacity=".42"><circle cx="268" cy="486" r="2.5" fill="#fff" opacity="0.42"/><circle cx="343" cy="647" r="2.8" fill="#fff" opacity="0.51"/><circle cx="129" cy="60" r="2.7" fill="#fff" opacity="0.26"/><circle cx="94" cy="373" r="1.2" fill="#fff" opacity="0.37"/><circle cx="401" cy="240" r="2.7" fill="#fff" opacity="0.26"/><circle cx="463" cy="257" r="1.9" fill="#fff" opacity="0.68"/><circle cx="284" cy="377" r="1.4" fill="#fff" opacity="0.51"/><circle cx="51" cy="673" r="2.5" fill="#fff" opacity="0.39"/><circle cx="185" cy="605" r="1.6" fill="#fff" opacity="0.69"/><circle cx="188" cy="678" r="1.4" fill="#fff" opacity="0.52"/><circle cx="272" cy="480" r="3.2" fill="#fff" opacity="0.27"/><circle cx="99" cy="172" r="1.7" fill="#fff" opacity="0.49"/><circle cx="380" cy="420" r="2.9" fill="#fff" opacity="0.45"/><circle cx="320" cy="442" r="1.7" fill="#fff" opacity="0.37"/><circle cx="10" cy="480" r="1.4" fill="#fff" opacity="0.56"/><circle cx="291" cy="65" r="1.5" fill="#fff" opacity="0.42"/><circle cx="344" cy="694" r="3.1" fill="#fff" opacity="0.64"/><circle cx="408" cy="248" r="1.2" fill="#fff" opacity="0.44"/><circle cx="461" cy="468" r="1.2" fill="#fff" opacity="0.36"/><circle cx="507" cy="126" r="1.3" fill="#fff" opacity="0.59"/><circle cx="104" cy="542" r="2.2" fill="#fff" opacity="0.34"/><circle cx="377" cy="353" r="2.1" fill="#fff" opacity="0.55"/><circle cx="160" cy="284" r="1.9" fill="#fff" opacity="0.50"/><circle cx="255" cy="381" r="2.7" fill="#fff" opacity="0.44"/><circle cx="28" cy="278" r="1.6" fill="#fff" opacity="0.68"/><circle cx="74" cy="459" r="1.7" fill="#fff" opacity="0.55"/><circle cx="379" cy="468" r="3.1" fill="#fff" opacity="0.49"/><circle cx="47" cy="197" r="1.8" fill="#fff" opacity="0.28"/></g>
  <path d="M70 600 C142 504 297 500 443 610" fill="#1d506d" opacity=".18"/><path d="M52 642 C146 578 341 580 471 650" fill="#1d506d" opacity=".16"/>
  <ellipse cx="256" cy="662" rx="150" ry="34" fill="#1d506d" opacity=".28"/>
  <g transform="translate(0 122)">
    <path d="M108.4 347.4 C161.7 224.4 292.9 175.20000000000002 389.25 253.1 C325.7 249 276.5 285.9 247.8 376.1" fill="#1d506d" opacity=".45"/><ellipse cx="256" cy="335.1" rx="110.69999999999999" ry="92.24999999999999" fill="url(#body)" filter="url(#softShadow)"/><path d="M167.85000000000002 253.1 L219.1 130.10000000000002 L249.85 244.9 Z" fill="#22a889"/><path d="M344.15 253.1 L292.9 130.10000000000002 L262.15 244.9 Z" fill="#22a889"/><ellipse cx="256" cy="267.45" rx="96.35" ry="86.1" fill="url(#head)"/><path d="M151.45 292.05 Q87.9 298.2 63.30000000000001 253.1" stroke="#b8ffe2" stroke-width="10.25" fill="none" stroke-linecap="round" opacity=".85"/><path d="M360.55 292.05 Q424.1 298.2 448.7 253.1" stroke="#b8ffe2" stroke-width="10.25" fill="none" stroke-linecap="round" opacity=".85"/><ellipse cx="223.2" cy="253.1" rx="14.349999999999998" ry="16.4" fill="#14213d"/><ellipse cx="288.8" cy="253.1" rx="14.349999999999998" ry="16.4" fill="#14213d"/><circle cx="229.35" cy="244.9" r="4.714999999999999" fill="#fff"/><circle cx="294.95" cy="244.9" r="4.714999999999999" fill="#fff"/><path d="M256 183.4 L278.55 212.10000000000002 L256 242.85 L233.45 212.10000000000002 Z" fill="#b8ffe2" opacity=".92"/>
  </g>
  <path d="M74 126 C170 65 334 65 438 126" stroke="#fff" stroke-width="16" stroke-linecap="round" opacity=".16"/>
  <path d="M63 676 C162 718 344 718 449 662" stroke="#fff" stroke-width="14" stroke-linecap="round" opacity=".16"/>
</svg>