<svg xmlns="http://www.w3.org/2000/svg" viewBox="0 0 512 768" role="img" aria-label="创世巨神 original portrait">
  
  <defs>
    <linearGradient id="bgp698" x1="0" y1="0" x2="1" y2="1">
      <stop offset="0" stop-color="#e8edf2"/>
      <stop offset=".55" stop-color="#9aa8b7"/>
      <stop offset="1" stop-color="#536271"/>
    </linearGradient>
    <radialGradient id="body" cx=".36" cy=".25" r=".76">
      <stop offset="0" stop-color="#e8edf2"/>
      <stop offset=".6" stop-color="#9aa8b7"/>
      <stop offset="1" stop-color="#536271"/>
    </radialGradient>
    <radialGradient id="head" cx=".36" cy=".26" r=".72">
      <stop offset="0" stop-color="#ffffff" stop-opacity=".85"/>
      <stop offset=".2" stop-color="#e8edf2"/>
      <stop offset=".72" stop-color="#9aa8b7"/>
      <stop offset="1" stop-color="#536271"/>
    </radialGradient>
    <filter id="softShadow" x="-30%" y="-30%" width="160%" height="160%">
      <feDropShadow dx="0" dy="8" stdDeviation="8" flood-color="#536271" flood-opacity=".35"/>
    </filter>
  </defs>
  <rect width="512" height="768" rx="48" fill="url(#bgp698)"/>
  <rect x="24" y="24" width="464" height="720" rx="40" fill="#ffffff" opacity=".08"/>
  <g opacity=".42"><circle cx="254" cy="84" r="1.8" fill="#fff" opacity="0.36"/><circle cx="350" cy="689" r="2.2" fill="#fff" opacity="0.43"/><circle cx="389" cy="143" r="1.0" fill="#fff" opacity="0.52"/><circle cx="453" cy="496" r="1.2" fill="#fff" opacity="0.38"/><circle cx="345" cy="178" r="1.2" fill="#fff" opacity="0.40"/><circle cx="185" cy="528" r="2.4" fill="#fff" opacity="0.33"/><circle cx="9" cy="368" r="3.0" fill="#fff" opacity="0.64"/><circle cx="417" cy="145" r="2.1" fill="#fff" opacity="0.30"/><circle cx="106" cy="726" r="1.9" fill="#fff" opacity="0.69"/><circle cx="429" cy="517" r="1.6" fill="#fff" opacity="0.52"/><circle cx="256" cy="27" r="1.7" fill="#fff" opacity="0.68"/><circle cx="292" cy="525" r="1.4" fill="#fff" opacity="0.37"/><circle cx="482" cy="11" r="1.3" fill="#fff" opacity="0.56"/><circle cx="84" cy="698" r="0.9" fill="#fff" opacity="0.51"/><circle cx="342" cy="635" r="0.9" fill="#fff" opacity="0.47"/><circle cx="74" cy="308" r="3.0" fill="#fff" opacity="0.55"/><circle cx="89" cy="550" r="1.9" fill="#fff" opacity="0.46"/><circle cx="373" cy="726" r="1.0" fill="#fff" opacity="0.36"/><circle cx="373" cy="225" r="2.8" fill="#fff" opacity="0.53"/><circle cx="220" cy="64" r="1.6" fill="#fff" opacity="0.69"/><circle cx="276" cy="516" r="0.8" fill="#fff" opacity="0.53"/><circle cx="274" cy="347" r="2.1" fill="#fff" opacity="0.29"/><circle cx="20" cy="258" r="1.3" fill="#fff" opacity="0.41"/><circle cx="264" cy="526" r="2.3" fill="#fff" opacity="0.29"/><circle cx="189" cy="581" r="1.9" fill="#fff" opacity="0.69"/><circle cx="240" cy="613" r="1.8" fill="#fff" opacity="0.42"/><circle cx="264" cy="32" r="1.2" fill="#fff" opacity="0.26"/><circle cx="405" cy="525" r="1.5" fill="#fff" opacity="0.51"/></g>
  <circle cx="256" cy="294" r="187" fill="#e8edf2" opacity=".12"/><circle cx="256" cy="294" r="145" fill="#fff" opacity=".1"/>
  <ellipse cx="256" cy="662" rx="150" ry="34" fill="#536271" opacity=".28"/>
  <g transform="translate(0 122)">
    <ellipse cx="256" cy="339.2" rx="100.44999999999999" ry="112.74999999999999" fill="url(#body)" filter="url(#softShadow)"/><circle cx="256" cy="226.45" r="79.94999999999999" fill="url(#head)"/><ellipse cx="256" cy="214.15" rx="139.39999999999998" ry="36.9" fill="none" stroke="#e8edf2" stroke-width="14.349999999999998" opacity=".75" transform="rotate(-12 256 214.15)"/><path d="M256 103.45000000000002 L276.5 154.70000000000002 L333.9 156.75 L286.75 187.5 L303.15 242.85 L256 208 L208.85 242.85 L225.25 187.5 L178.10000000000002 156.75 L235.5 154.70000000000002 Z" fill="#9aa8b7"/><ellipse cx="223.2" cy="253.1" rx="14.349999999999998" ry="16.4" fill="#14213d"/><ellipse cx="288.8" cy="253.1" rx="14.349999999999998" ry="16.4" fill="#14213d"/><circle cx="229.35" cy="244.9" r="4.714999999999999" fill="#fff"/><circle cx="294.95" cy="244.9" r="4.714999999999999" fill="#fff"/><path d="M215 201.85000000000002 Q256 224.4 297 201.85000000000002" stroke="#e8edf2" stroke-width="10.25" fill="none" stroke-linecap="round" opacity=".8"/>
  </g>
  <path d="M74 126 C170 65 334 65 438 126" stroke="#fff" stroke-width="16" stroke-linecap="round" opacity=".16"/>
  <path d="M63 676 C162 718 344 718 449 662" stroke="#fff" stroke-width="14" stroke-linecap="round" opacity=".16"/>
</svg>