<svg xmlns="http://www.w3.org/2000/svg" viewBox="0 0 512 768" role="img" aria-label="波导狗 original portrait">
  
  <defs>
    <linearGradient id="bgp70" x1="0" y1="0" x2="1" y2="1">
      <stop offset="0" stop-color="#ffc0a6"/>
      <stop offset=".55" stop-color="#d95f3d"/>
      <stop offset="1" stop-color="#7a271d"/>
    </linearGradient>
    <radialGradient id="body" cx=".36" cy=".25" r=".76">
      <stop offset="0" stop-color="#ffc0a6"/>
      <stop offset=".6" stop-color="#d95f3d"/>
      <stop offset="1" stop-color="#7a271d"/>
    </radialGradient>
    <radialGradient id="head" cx=".36" cy=".26" r=".72">
      <stop offset="0" stop-color="#ffffff" stop-opacity=".85"/>
      <stop offset=".2" stop-color="#ffc0a6"/>
      <stop offset=".72" stop-color="#d95f3d"/>
      <stop offset="1" stop-color="#7a271d"/>
    </radialGradient>
    <filter id="softShadow" x="-30%" y="-30%" width="160%" height="160%">
      <feDropShadow dx="0" dy="8" stdDeviation="8" flood-color="#7a271d" flood-opacity=".35"/>
    </filter>
  </defs>
  <rect width="512" height="768" rx="48" fill="url(#bgp70)"/>
  <rect x="24" y="24" width="464" height="720" rx="40" fill="#ffffff" opacity=".08"/>
  <g opacity=".42"><circle cx="493" cy="123" r="1.0" fill="#fff" opacity="0.49"/><circle cx="133" cy="561" r="1.9" fill="#fff" opacity="0.63"/><circle cx="255" cy="21" r="1.6" fill="#fff" opacity="0.47"/><circle cx="425" cy="58" r="1.5" fill="#fff" opacity="0.46"/><circle cx="346" cy="718" r="2.1" fill="#fff" opacity="0.41"/><circle cx="123" cy="172" r="2.9" fill="#fff" opacity="0.36"/><circle cx="500" cy="403" r="1.4" fill="#fff" opacity="0.65"/><circle cx="323" cy="667" r="1.1" fill="#fff" opacity="0.50"/><circle cx="437" cy="433" r="1.1" fill="#fff" opacity="0.62"/><circle cx="32" cy="119" r="1.3" fill="#fff" opacity="0.29"/><circle cx="105" cy="679" r="1.5" fill="#fff" opacity="0.59"/><circle cx="69" cy="462" r="1.7" fill="#fff" opacity="0.33"/><circle cx="214" cy="203" r="2.1" fill="#fff" opacity="0.36"/><circle cx="306" cy="631" r="2.7" fill="#fff" opacity="0.67"/><circle cx="223" cy="694" r="2.8" fill="#fff" opacity="0.27"/><circle cx="70" cy="348" r="2.4" fill="#fff" opacity="0.33"/><circle cx="6" cy="689" r="1.7" fill="#fff" opacity="0.25"/><circle cx="320" cy="454" r="2.7" fill="#fff" opacity="0.42"/><circle cx="418" cy="292" r="3.0" fill="#fff" opacity="0.33"/><circle cx="125" cy="369" r="1.8" fill="#fff" opacity="0.44"/><circle cx="474" cy="635" r="0.9" fill="#fff" opacity="0.70"/><circle cx="72" cy="517" r="1.1" fill="#fff" opacity="0.36"/><circle cx="429" cy="540" r="1.6" fill="#fff" opacity="0.68"/><circle cx="374" cy="210" r="1.5" fill="#fff" opacity="0.58"/><circle cx="424" cy="717" r="2.9" fill="#fff" opacity="0.35"/><circle cx="13" cy="566" r="1.8" fill="#fff" opacity="0.43"/><circle cx="252" cy="563" r="1.6" fill="#fff" opacity="0.56"/><circle cx="481" cy="240" r="2.8" fill="#fff" opacity="0.59"/></g>
  <path d="M0 670 C96 613 167 665 256 620 C337 660 421 608 512 662 V768 H0Z" fill="#7a271d" opacity=".15"/>
  <ellipse cx="256" cy="662" rx="150" ry="34" fill="#7a271d" opacity=".28"/>
  <g transform="translate(0 122)">
    <path d="M352.35 347.4 C442.54999999999995 322.8 420 222.35000000000002 346.2 263.35" stroke="#d95f3d" stroke-width="28.699999999999996" fill="none" stroke-linecap="round" opacity=".76"/><ellipse cx="256" cy="353.55" rx="108.64999999999999" ry="102.49999999999999" fill="url(#body)" filter="url(#softShadow)"/><path d="M184.25 212.10000000000002 L137.10000000000002 115.75000000000003 L231.4 175.20000000000002 Z" fill="#d95f3d"/><path d="M327.75 212.10000000000002 L374.9 115.75000000000003 L280.6 175.20000000000002 Z" fill="#d95f3d"/><circle cx="256" cy="234.65" r="92.24999999999999" fill="url(#head)"/><ellipse cx="221.15" cy="251.05" rx="16.4" ry="20.5" fill="#182033"/><ellipse cx="290.85" cy="251.05" rx="16.4" ry="20.5" fill="#182033"/><ellipse cx="223.2" cy="253.1" rx="14.349999999999998" ry="16.4" fill="#14213d"/><ellipse cx="288.8" cy="253.1" rx="14.349999999999998" ry="16.4" fill="#14213d"/><circle cx="229.35" cy="244.9" r="4.714999999999999" fill="#fff"/><circle cx="294.95" cy="244.9" r="4.714999999999999" fill="#fff"/><circle cx="256" cy="210.05" r="14.349999999999998" fill="#ffc0a6" opacity=".9"/>
  </g>
  <path d="M74 126 C170 65 334 65 438 126" stroke="#fff" stroke-width="16" stroke-linecap="round" opacity=".16"/>
  <path d="M63 676 C162 718 344 718 449 662" stroke="#fff" stroke-width="14" stroke-linecap="round" opacity=".16"/>
</svg>