<svg xmlns="http://www.w3.org/2000/svg" viewBox="0 0 512 768" role="img" aria-label="宇宙意志 original portrait">
  
  <defs>
    <linearGradient id="bgp700" x1="0" y1="0" x2="1" y2="1">
      <stop offset="0" stop-color="#fff0a6"/>
      <stop offset=".55" stop-color="#d9a441"/>
      <stop offset="1" stop-color="#754d12"/>
    </linearGradient>
    <radialGradient id="body" cx=".36" cy=".25" r=".76">
      <stop offset="0" stop-color="#fff0a6"/>
      <stop offset=".6" stop-color="#d9a441"/>
      <stop offset="1" stop-color="#754d12"/>
    </radialGradient>
    <radialGradient id="head" cx=".36" cy=".26" r=".72">
      <stop offset="0" stop-color="#ffffff" stop-opacity=".85"/>
      <stop offset=".2" stop-color="#fff0a6"/>
      <stop offset=".72" stop-color="#d9a441"/>
      <stop offset="1" stop-color="#754d12"/>
    </radialGradient>
    <filter id="softShadow" x="-30%" y="-30%" width="160%" height="160%">
      <feDropShadow dx="0" dy="8" stdDeviation="8" flood-color="#754d12" flood-opacity=".35"/>
    </filter>
  </defs>
  <rect width="512" height="768" rx="48" fill="url(#bgp700)"/>
  <rect x="24" y="24" width="464" height="720" rx="40" fill="#ffffff" opacity=".08"/>
  <g opacity=".42"><circle cx="405" cy="482" r="2.9" fill="#fff" opacity="0.67"/><circle cx="462" cy="461" r="1.2" fill="#fff" opacity="0.36"/><circle cx="164" cy="229" r="2.2" fill="#fff" opacity="0.38"/><circle cx="102" cy="88" r="2.4" fill="#fff" opacity="0.53"/><circle cx="66" cy="689" r="2.6" fill="#fff" opacity="0.40"/><circle cx="71" cy="268" r="2.7" fill="#fff" opacity="0.57"/><circle cx="467" cy="264" r="1.6" fill="#fff" opacity="0.29"/><circle cx="301" cy="317" r="1.4" fill="#fff" opacity="0.51"/><circle cx="294" cy="412" r="2.0" fill="#fff" opacity="0.25"/><circle cx="353" cy="223" r="1.1" fill="#fff" opacity="0.47"/><circle cx="359" cy="20" r="2.9" fill="#fff" opacity="0.51"/><circle cx="419" cy="97" r="2.2" fill="#fff" opacity="0.44"/><circle cx="134" cy="348" r="1.7" fill="#fff" opacity="0.57"/><circle cx="152" cy="150" r="1.7" fill="#fff" opacity="0.36"/><circle cx="198" cy="286" r="2.7" fill="#fff" opacity="0.63"/><circle cx="382" cy="72" r="3.0" fill="#fff" opacity="0.33"/><circle cx="241" cy="365" r="1.9" fill="#fff" opacity="0.35"/><circle cx="258" cy="223" r="2.4" fill="#fff" opacity="0.56"/><circle cx="206" cy="697" r="1.0" fill="#fff" opacity="0.34"/><circle cx="118" cy="482" r="2.4" fill="#fff" opacity="0.59"/><circle cx="384" cy="558" r="1.4" fill="#fff" opacity="0.26"/><circle cx="509" cy="64" r="1.9" fill="#fff" opacity="0.48"/><circle cx="161" cy="693" r="2.8" fill="#fff" opacity="0.65"/><circle cx="272" cy="657" r="2.6" fill="#fff" opacity="0.67"/><circle cx="161" cy="428" r="2.3" fill="#fff" opacity="0.61"/><circle cx="288" cy="368" r="3.1" fill="#fff" opacity="0.62"/><circle cx="478" cy="8" r="1.8" fill="#fff" opacity="0.46"/><circle cx="11" cy="630" r="2.6" fill="#fff" opacity="0.62"/></g>
  <circle cx="256" cy="294" r="214" fill="#fff0a6" opacity=".12"/><circle cx="256" cy="294" r="172" fill="#fff" opacity=".1"/>
  <ellipse cx="256" cy="662" rx="150" ry="34" fill="#754d12" opacity=".28"/>
  <g transform="translate(0 122)">
    <ellipse cx="256" cy="339.2" rx="100.44999999999999" ry="112.74999999999999" fill="url(#body)" filter="url(#softShadow)"/><circle cx="256" cy="226.45" r="79.94999999999999" fill="url(#head)"/><ellipse cx="256" cy="214.15" rx="139.39999999999998" ry="36.9" fill="none" stroke="#fff0a6" stroke-width="14.349999999999998" opacity=".75" transform="rotate(-12 256 214.15)"/><path d="M256 103.45000000000002 L276.5 154.70000000000002 L333.9 156.75 L286.75 187.5 L303.15 242.85 L256 208 L208.85 242.85 L225.25 187.5 L178.10000000000002 156.75 L235.5 154.70000000000002 Z" fill="#d9a441"/><ellipse cx="223.2" cy="253.1" rx="14.349999999999998" ry="16.4" fill="#14213d"/><ellipse cx="288.8" cy="253.1" rx="14.349999999999998" ry="16.4" fill="#14213d"/><circle cx="229.35" cy="244.9" r="4.714999999999999" fill="#fff"/><circle cx="294.95" cy="244.9" r="4.714999999999999" fill="#fff"/><path d="M256 183.4 L278.55 212.10000000000002 L256 242.85 L233.45 212.10000000000002 Z" fill="#fff0a6" opacity=".92"/>
  </g>
  <path d="M74 126 C170 65 334 65 438 126" stroke="#fff" stroke-width="16" stroke-linecap="round" opacity=".16"/>
  <path d="M63 676 C162 718 344 718 449 662" stroke="#fff" stroke-width="14" stroke-linecap="round" opacity=".16"/>
</svg>