<svg xmlns="http://www.w3.org/2000/svg" viewBox="0 0 512 768" role="img" aria-label="飞将战禽 original portrait">
  
  <defs>
    <linearGradient id="bgp701" x1="0" y1="0" x2="1" y2="1">
      <stop offset="0" stop-color="#ffc0a6"/>
      <stop offset=".55" stop-color="#d95f3d"/>
      <stop offset="1" stop-color="#7a271d"/>
    </linearGradient>
    <radialGradient id="body" cx=".36" cy=".25" r=".76">
      <stop offset="0" stop-color="#ffc0a6"/>
      <stop offset=".6" stop-color="#d95f3d"/>
      <stop offset="1" stop-color="#7a271d"/>
    </radialGradient>
    <radialGradient id="head" cx=".36" cy=".26" r=".72">
      <stop offset="0" stop-color="#ffffff" stop-opacity=".85"/>
      <stop offset=".2" stop-color="#ffc0a6"/>
      <stop offset=".72" stop-color="#d95f3d"/>
      <stop offset="1" stop-color="#7a271d"/>
    </radialGradient>
    <filter id="softShadow" x="-30%" y="-30%" width="160%" height="160%">
      <feDropShadow dx="0" dy="8" stdDeviation="8" flood-color="#7a271d" flood-opacity=".35"/>
    </filter>
  </defs>
  <rect width="512" height="768" rx="48" fill="url(#bgp701)"/>
  <rect x="24" y="24" width="464" height="720" rx="40" fill="#ffffff" opacity=".08"/>
  <g opacity=".42"><circle cx="215" cy="748" r="3.0" fill="#fff" opacity="0.68"/><circle cx="307" cy="630" r="3.0" fill="#fff" opacity="0.54"/><circle cx="61" cy="406" r="1.1" fill="#fff" opacity="0.47"/><circle cx="175" cy="128" r="1.3" fill="#fff" opacity="0.49"/><circle cx="500" cy="207" r="1.2" fill="#fff" opacity="0.48"/><circle cx="220" cy="531" r="2.4" fill="#fff" opacity="0.39"/><circle cx="483" cy="441" r="2.6" fill="#fff" opacity="0.39"/><circle cx="246" cy="731" r="2.6" fill="#fff" opacity="0.50"/><circle cx="217" cy="310" r="2.7" fill="#fff" opacity="0.62"/><circle cx="353" cy="686" r="0.8" fill="#fff" opacity="0.29"/><circle cx="397" cy="662" r="2.7" fill="#fff" opacity="0.65"/><circle cx="284" cy="479" r="1.4" fill="#fff" opacity="0.67"/><circle cx="368" cy="752" r="2.6" fill="#fff" opacity="0.60"/><circle cx="304" cy="558" r="0.8" fill="#fff" opacity="0.49"/><circle cx="313" cy="200" r="2.9" fill="#fff" opacity="0.60"/><circle cx="357" cy="154" r="1.6" fill="#fff" opacity="0.65"/><circle cx="94" cy="636" r="3.2" fill="#fff" opacity="0.41"/><circle cx="171" cy="585" r="2.7" fill="#fff" opacity="0.58"/><circle cx="38" cy="488" r="2.2" fill="#fff" opacity="0.40"/><circle cx="262" cy="702" r="0.9" fill="#fff" opacity="0.57"/><circle cx="167" cy="757" r="1.9" fill="#fff" opacity="0.58"/><circle cx="498" cy="638" r="1.3" fill="#fff" opacity="0.48"/><circle cx="411" cy="291" r="1.6" fill="#fff" opacity="0.68"/><circle cx="370" cy="47" r="1.2" fill="#fff" opacity="0.45"/><circle cx="248" cy="496" r="0.8" fill="#fff" opacity="0.51"/><circle cx="396" cy="633" r="1.5" fill="#fff" opacity="0.41"/><circle cx="502" cy="398" r="2.1" fill="#fff" opacity="0.25"/><circle cx="232" cy="101" r="3.0" fill="#fff" opacity="0.68"/></g>
  <path d="M0 620 C92 590 171 620 259 600 C357 577 432 594 512 565 V768 H0Z" fill="#fff" opacity=".18"/>
  <ellipse cx="256" cy="662" rx="150" ry="34" fill="#7a271d" opacity=".28"/>
  <g transform="translate(0 122)">
    <path d="M219.1 306.4 C65.35000000000002 187.5 67.4 392.5 206.8 400.7" fill="#82b7ff" opacity=".78"/><path d="M292.9 306.4 C446.65 187.5 444.6 392.5 305.2 400.7" fill="#82b7ff" opacity=".78"/><ellipse cx="256" cy="343.3" rx="86.1" ry="110.69999999999999" fill="url(#body)" filter="url(#softShadow)"/><circle cx="256" cy="228.5" r="77.89999999999999" fill="url(#head)"/><path d="M245.75 226.45 L331.85 249 L249.85 269.5 Z" fill="#ffc0a6"/><path d="M210.9 154.70000000000002 C239.6 89.10000000000002 280.6 109.60000000000002 260.1 167" fill="#4260ad" opacity=".85"/><ellipse cx="223.2" cy="253.1" rx="14.349999999999998" ry="16.4" fill="#14213d"/><ellipse cx="288.8" cy="253.1" rx="14.349999999999998" ry="16.4" fill="#14213d"/><circle cx="229.35" cy="244.9" r="4.714999999999999" fill="#fff"/><circle cx="294.95" cy="244.9" r="4.714999999999999" fill="#fff"/><circle cx="256" cy="210.05" r="14.349999999999998" fill="#ffc0a6" opacity=".9"/>
  </g>
  <path d="M74 126 C170 65 334 65 438 126" stroke="#fff" stroke-width="16" stroke-linecap="round" opacity=".16"/>
  <path d="M63 676 C162 718 344 718 449 662" stroke="#fff" stroke-width="14" stroke-linecap="round" opacity=".16"/>
</svg>