<svg xmlns="http://www.w3.org/2000/svg" viewBox="0 0 512 768" role="img" aria-label="锦囊鼠师 original portrait">
  
  <defs>
    <linearGradient id="bgp702" x1="0" y1="0" x2="1" y2="1">
      <stop offset="0" stop-color="#fff27a"/>
      <stop offset=".55" stop-color="#f9c80e"/>
      <stop offset="1" stop-color="#7a5200"/>
    </linearGradient>
    <radialGradient id="body" cx=".36" cy=".25" r=".76">
      <stop offset="0" stop-color="#fff27a"/>
      <stop offset=".6" stop-color="#f9c80e"/>
      <stop offset="1" stop-color="#7a5200"/>
    </radialGradient>
    <radialGradient id="head" cx=".36" cy=".26" r=".72">
      <stop offset="0" stop-color="#ffffff" stop-opacity=".85"/>
      <stop offset=".2" stop-color="#fff27a"/>
      <stop offset=".72" stop-color="#f9c80e"/>
      <stop offset="1" stop-color="#7a5200"/>
    </radialGradient>
    <filter id="softShadow" x="-30%" y="-30%" width="160%" height="160%">
      <feDropShadow dx="0" dy="8" stdDeviation="8" flood-color="#7a5200" flood-opacity=".35"/>
    </filter>
  </defs>
  <rect width="512" height="768" rx="48" fill="url(#bgp702)"/>
  <rect x="24" y="24" width="464" height="720" rx="40" fill="#ffffff" opacity=".08"/>
  <g opacity=".42"><circle cx="427" cy="390" r="2.9" fill="#fff" opacity="0.45"/><circle cx="112" cy="168" r="1.2" fill="#fff" opacity="0.57"/><circle cx="322" cy="335" r="2.6" fill="#fff" opacity="0.31"/><circle cx="256" cy="634" r="1.9" fill="#fff" opacity="0.29"/><circle cx="34" cy="667" r="1.9" fill="#fff" opacity="0.27"/><circle cx="470" cy="365" r="1.5" fill="#fff" opacity="0.61"/><circle cx="245" cy="532" r="1.2" fill="#fff" opacity="0.31"/><circle cx="27" cy="702" r="0.9" fill="#fff" opacity="0.64"/><circle cx="314" cy="529" r="1.5" fill="#fff" opacity="0.34"/><circle cx="229" cy="486" r="1.8" fill="#fff" opacity="0.34"/><circle cx="77" cy="638" r="2.0" fill="#fff" opacity="0.68"/><circle cx="36" cy="656" r="3.1" fill="#fff" opacity="0.48"/><circle cx="12" cy="339" r="0.9" fill="#fff" opacity="0.37"/><circle cx="100" cy="613" r="2.2" fill="#fff" opacity="0.40"/><circle cx="506" cy="184" r="1.8" fill="#fff" opacity="0.59"/><circle cx="359" cy="291" r="2.3" fill="#fff" opacity="0.51"/><circle cx="424" cy="711" r="2.0" fill="#fff" opacity="0.70"/><circle cx="355" cy="224" r="3.2" fill="#fff" opacity="0.58"/><circle cx="358" cy="592" r="1.8" fill="#fff" opacity="0.60"/><circle cx="180" cy="78" r="2.1" fill="#fff" opacity="0.43"/><circle cx="348" cy="468" r="2.5" fill="#fff" opacity="0.41"/><circle cx="131" cy="598" r="2.4" fill="#fff" opacity="0.26"/><circle cx="36" cy="417" r="3.1" fill="#fff" opacity="0.55"/><circle cx="227" cy="409" r="2.3" fill="#fff" opacity="0.70"/><circle cx="40" cy="190" r="1.4" fill="#fff" opacity="0.35"/><circle cx="189" cy="399" r="1.1" fill="#fff" opacity="0.66"/><circle cx="329" cy="254" r="1.7" fill="#fff" opacity="0.65"/><circle cx="65" cy="144" r="1.1" fill="#fff" opacity="0.45"/></g>
  <path d="M0 670 C96 613 167 665 256 620 C337 660 421 608 512 662 V768 H0Z" fill="#8e3b89" opacity=".15"/>
  <ellipse cx="256" cy="662" rx="150" ry="34" fill="#7a5200" opacity=".28"/>
  <g transform="translate(0 122)">
    <path d="M352.35 347.4 C442.54999999999995 322.8 420 222.35000000000002 346.2 263.35" stroke="#f47ac2" stroke-width="28.699999999999996" fill="none" stroke-linecap="round" opacity=".76"/><ellipse cx="256" cy="353.55" rx="108.64999999999999" ry="102.49999999999999" fill="url(#body)" filter="url(#softShadow)"/><path d="M184.25 212.10000000000002 L137.10000000000002 115.75000000000003 L231.4 175.20000000000002 Z" fill="#f47ac2"/><path d="M327.75 212.10000000000002 L374.9 115.75000000000003 L280.6 175.20000000000002 Z" fill="#f47ac2"/><circle cx="256" cy="234.65" r="92.24999999999999" fill="url(#head)"/><ellipse cx="221.15" cy="251.05" rx="16.4" ry="20.5" fill="#182033"/><ellipse cx="290.85" cy="251.05" rx="16.4" ry="20.5" fill="#182033"/><ellipse cx="223.2" cy="253.1" rx="14.349999999999998" ry="16.4" fill="#14213d"/><ellipse cx="288.8" cy="253.1" rx="14.349999999999998" ry="16.4" fill="#14213d"/><circle cx="229.35" cy="244.9" r="4.714999999999999" fill="#fff"/><circle cx="294.95" cy="244.9" r="4.714999999999999" fill="#fff"/><path d="M256 183.4 L278.55 212.10000000000002 L256 242.85 L233.45 212.10000000000002 Z" fill="#fff27a" opacity=".92"/>
  </g>
  <path d="M74 126 C170 65 334 65 438 126" stroke="#fff" stroke-width="16" stroke-linecap="round" opacity=".16"/>
  <path d="M63 676 C162 718 344 718 449 662" stroke="#fff" stroke-width="14" stroke-linecap="round" opacity=".16"/>
</svg>