<svg xmlns="http://www.w3.org/2000/svg" viewBox="0 0 512 768" role="img" aria-label="涎甲蛹卒 original portrait">
  
  <defs>
    <linearGradient id="bgp704" x1="0" y1="0" x2="1" y2="1">
      <stop offset="0" stop-color="#b8ffe2"/>
      <stop offset=".55" stop-color="#22a889"/>
      <stop offset="1" stop-color="#1d506d"/>
    </linearGradient>
    <radialGradient id="body" cx=".36" cy=".25" r=".76">
      <stop offset="0" stop-color="#b8ffe2"/>
      <stop offset=".6" stop-color="#22a889"/>
      <stop offset="1" stop-color="#1d506d"/>
    </radialGradient>
    <radialGradient id="head" cx=".36" cy=".26" r=".72">
      <stop offset="0" stop-color="#ffffff" stop-opacity=".85"/>
      <stop offset=".2" stop-color="#b8ffe2"/>
      <stop offset=".72" stop-color="#22a889"/>
      <stop offset="1" stop-color="#1d506d"/>
    </radialGradient>
    <filter id="softShadow" x="-30%" y="-30%" width="160%" height="160%">
      <feDropShadow dx="0" dy="8" stdDeviation="8" flood-color="#1d506d" flood-opacity=".35"/>
    </filter>
  </defs>
  <rect width="512" height="768" rx="48" fill="url(#bgp704)"/>
  <rect x="24" y="24" width="464" height="720" rx="40" fill="#ffffff" opacity=".08"/>
  <g opacity=".42"><circle cx="327" cy="635" r="1.6" fill="#fff" opacity="0.63"/><circle cx="423" cy="447" r="1.0" fill="#fff" opacity="0.50"/><circle cx="247" cy="366" r="2.8" fill="#fff" opacity="0.61"/><circle cx="181" cy="540" r="3.1" fill="#fff" opacity="0.39"/><circle cx="200" cy="149" r="2.4" fill="#fff" opacity="0.37"/><circle cx="66" cy="145" r="2.2" fill="#fff" opacity="0.32"/><circle cx="134" cy="289" r="2.2" fill="#fff" opacity="0.36"/><circle cx="108" cy="588" r="1.4" fill="#fff" opacity="0.65"/><circle cx="460" cy="413" r="2.8" fill="#fff" opacity="0.30"/><circle cx="114" cy="621" r="1.6" fill="#fff" opacity="0.31"/><circle cx="385" cy="193" r="2.7" fill="#fff" opacity="0.56"/><circle cx="1" cy="80" r="3.0" fill="#fff" opacity="0.26"/><circle cx="40" cy="335" r="1.9" fill="#fff" opacity="0.30"/><circle cx="369" cy="405" r="2.6" fill="#fff" opacity="0.45"/><circle cx="279" cy="572" r="1.2" fill="#fff" opacity="0.66"/><circle cx="127" cy="103" r="2.6" fill="#fff" opacity="0.48"/><circle cx="437" cy="537" r="1.7" fill="#fff" opacity="0.45"/><circle cx="409" cy="666" r="0.9" fill="#fff" opacity="0.59"/><circle cx="360" cy="570" r="2.5" fill="#fff" opacity="0.58"/><circle cx="488" cy="175" r="1.0" fill="#fff" opacity="0.46"/><circle cx="133" cy="332" r="1.7" fill="#fff" opacity="0.26"/><circle cx="133" cy="560" r="2.5" fill="#fff" opacity="0.42"/><circle cx="37" cy="406" r="2.7" fill="#fff" opacity="0.48"/><circle cx="41" cy="609" r="2.9" fill="#fff" opacity="0.68"/><circle cx="457" cy="210" r="1.1" fill="#fff" opacity="0.27"/><circle cx="227" cy="719" r="1.9" fill="#fff" opacity="0.34"/><circle cx="376" cy="483" r="2.0" fill="#fff" opacity="0.27"/><circle cx="146" cy="490" r="1.3" fill="#fff" opacity="0.57"/></g>
  <path d="M69 625 C150 571 359 568 443 628" fill="#9b5de5" opacity=".14"/>
  <ellipse cx="256" cy="662" rx="150" ry="34" fill="#1d506d" opacity=".28"/>
  <g transform="translate(0 122)">
    <ellipse cx="178.10000000000002" cy="257.2" rx="69.69999999999999" ry="100.44999999999999" fill="#b8ffe2" opacity=".55"/><ellipse cx="333.9" cy="257.2" rx="69.69999999999999" ry="100.44999999999999" fill="#b8ffe2" opacity=".55"/><ellipse cx="256" cy="331" rx="65.6" ry="122.99999999999999" fill="url(#body)" filter="url(#softShadow)"/><circle cx="256" cy="214.15" r="69.69999999999999" fill="url(#head)"/><path d="M219.1 160.85000000000002 Q174 93.20000000000002 118.65 117.80000000000001" stroke="#4f2378" stroke-width="10.25" fill="none" stroke-linecap="round"/><path d="M292.9 160.85000000000002 Q338 93.20000000000002 393.35 117.80000000000001" stroke="#4f2378" stroke-width="10.25" fill="none" stroke-linecap="round"/><path d="M198.60000000000002 322.8 H313.4 M206.8 376.1 H305.2" stroke="#1d506d" stroke-width="8.2" opacity=".35"/><ellipse cx="223.2" cy="253.1" rx="14.349999999999998" ry="16.4" fill="#14213d"/><ellipse cx="288.8" cy="253.1" rx="14.349999999999998" ry="16.4" fill="#14213d"/><circle cx="229.35" cy="244.9" r="4.714999999999999" fill="#fff"/><circle cx="294.95" cy="244.9" r="4.714999999999999" fill="#fff"/><path d="M256 183.4 L278.55 212.10000000000002 L256 242.85 L233.45 212.10000000000002 Z" fill="#b8ffe2" opacity=".92"/>
  </g>
  <path d="M74 126 C170 65 334 65 438 126" stroke="#fff" stroke-width="16" stroke-linecap="round" opacity=".16"/>
  <path d="M63 676 C162 718 344 718 449 662" stroke="#fff" stroke-width="14" stroke-linecap="round" opacity=".16"/>
</svg>