<svg xmlns="http://www.w3.org/2000/svg" viewBox="0 0 512 768" role="img" aria-label="锁钥灵妖 original portrait">
  
  <defs>
    <linearGradient id="bgp707" x1="0" y1="0" x2="1" y2="1">
      <stop offset="0" stop-color="#e8edf2"/>
      <stop offset=".55" stop-color="#9aa8b7"/>
      <stop offset="1" stop-color="#536271"/>
    </linearGradient>
    <radialGradient id="body" cx=".36" cy=".25" r=".76">
      <stop offset="0" stop-color="#e8edf2"/>
      <stop offset=".6" stop-color="#9aa8b7"/>
      <stop offset="1" stop-color="#536271"/>
    </radialGradient>
    <radialGradient id="head" cx=".36" cy=".26" r=".72">
      <stop offset="0" stop-color="#ffffff" stop-opacity=".85"/>
      <stop offset=".2" stop-color="#e8edf2"/>
      <stop offset=".72" stop-color="#9aa8b7"/>
      <stop offset="1" stop-color="#536271"/>
    </radialGradient>
    <filter id="softShadow" x="-30%" y="-30%" width="160%" height="160%">
      <feDropShadow dx="0" dy="8" stdDeviation="8" flood-color="#536271" flood-opacity=".35"/>
    </filter>
  </defs>
  <rect width="512" height="768" rx="48" fill="url(#bgp707)"/>
  <rect x="24" y="24" width="464" height="720" rx="40" fill="#ffffff" opacity=".08"/>
  <g opacity=".42"><circle cx="449" cy="584" r="1.8" fill="#fff" opacity="0.34"/><circle cx="398" cy="292" r="1.7" fill="#fff" opacity="0.48"/><circle cx="103" cy="97" r="1.5" fill="#fff" opacity="0.30"/><circle cx="165" cy="390" r="1.3" fill="#fff" opacity="0.58"/><circle cx="332" cy="276" r="2.3" fill="#fff" opacity="0.39"/><circle cx="222" cy="732" r="2.9" fill="#fff" opacity="0.26"/><circle cx="143" cy="161" r="3.2" fill="#fff" opacity="0.55"/><circle cx="117" cy="45" r="1.0" fill="#fff" opacity="0.61"/><circle cx="4" cy="178" r="2.6" fill="#fff" opacity="0.39"/><circle cx="13" cy="102" r="1.5" fill="#fff" opacity="0.31"/><circle cx="128" cy="258" r="1.2" fill="#fff" opacity="0.30"/><circle cx="245" cy="644" r="2.3" fill="#fff" opacity="0.54"/><circle cx="418" cy="289" r="2.8" fill="#fff" opacity="0.30"/><circle cx="450" cy="443" r="2.5" fill="#fff" opacity="0.55"/><circle cx="11" cy="119" r="1.4" fill="#fff" opacity="0.34"/><circle cx="41" cy="314" r="3.2" fill="#fff" opacity="0.70"/><circle cx="111" cy="445" r="1.4" fill="#fff" opacity="0.63"/><circle cx="50" cy="754" r="2.4" fill="#fff" opacity="0.54"/><circle cx="73" cy="50" r="1.2" fill="#fff" opacity="0.49"/><circle cx="99" cy="472" r="2.2" fill="#fff" opacity="0.63"/><circle cx="102" cy="108" r="3.1" fill="#fff" opacity="0.31"/><circle cx="430" cy="314" r="1.3" fill="#fff" opacity="0.34"/><circle cx="155" cy="80" r="1.1" fill="#fff" opacity="0.46"/><circle cx="12" cy="686" r="2.2" fill="#fff" opacity="0.61"/><circle cx="460" cy="131" r="1.5" fill="#fff" opacity="0.63"/><circle cx="380" cy="490" r="2.7" fill="#fff" opacity="0.53"/><circle cx="493" cy="86" r="1.8" fill="#fff" opacity="0.32"/><circle cx="282" cy="113" r="1.1" fill="#fff" opacity="0.35"/></g>
  <path d="M0 590 C76 555 120 612 197 582 C277 551 327 614 413 581 C462 562 489 570 512 585 V768 H0Z" fill="#536271" opacity=".22"/>
  <ellipse cx="256" cy="662" rx="150" ry="34" fill="#536271" opacity=".28"/>
  <g transform="translate(0 122)">
    <path d="M149.4 435.54999999999995 C100.20000000000002 304.35 167.85000000000002 156.75 264.2 154.70000000000002 C379 150.60000000000002 420 298.2 352.35 435.54999999999995 C317.5 400.7 288.8 458.1 256 419.15 C221.15 458.1 188.35000000000002 400.7 149.4 435.54999999999995Z" fill="url(#body)" filter="url(#softShadow)"/><circle cx="219.1" cy="253.1" r="16.4" fill="#1b1638"/><circle cx="292.9" cy="253.1" r="16.4" fill="#1b1638"/><path d="M239.6 312.55 Q256 331 280.6 310.5" stroke="#1b1638" stroke-width="10.25" fill="none" stroke-linecap="round"/><path d="M126.85000000000002 326.9 C40.75000000000003 296.15 83.80000000000001 201.85000000000002 137.10000000000002 238.75" fill="#f47ac2" opacity=".35"/><path d="M385.15 326.9 C471.25 296.15 428.2 201.85000000000002 374.9 238.75" fill="#f47ac2" opacity=".35"/><circle cx="256" cy="210.05" r="14.349999999999998" fill="#e8edf2" opacity=".9"/>
  </g>
  <path d="M74 126 C170 65 334 65 438 126" stroke="#fff" stroke-width="16" stroke-linecap="round" opacity=".16"/>
  <path d="M63 676 C162 718 344 718 449 662" stroke="#fff" stroke-width="14" stroke-linecap="round" opacity=".16"/>
</svg>