<svg xmlns="http://www.w3.org/2000/svg" viewBox="0 0 512 768" role="img" aria-label="枯木幽卒 original portrait">
  
  <defs>
    <linearGradient id="bgp708" x1="0" y1="0" x2="1" y2="1">
      <stop offset="0" stop-color="#d5c6ff"/>
      <stop offset=".55" stop-color="#7367b8"/>
      <stop offset="1" stop-color="#2d2357"/>
    </linearGradient>
    <radialGradient id="body" cx=".36" cy=".25" r=".76">
      <stop offset="0" stop-color="#d5c6ff"/>
      <stop offset=".6" stop-color="#7367b8"/>
      <stop offset="1" stop-color="#2d2357"/>
    </radialGradient>
    <radialGradient id="head" cx=".36" cy=".26" r=".72">
      <stop offset="0" stop-color="#ffffff" stop-opacity=".85"/>
      <stop offset=".2" stop-color="#d5c6ff"/>
      <stop offset=".72" stop-color="#7367b8"/>
      <stop offset="1" stop-color="#2d2357"/>
    </radialGradient>
    <filter id="softShadow" x="-30%" y="-30%" width="160%" height="160%">
      <feDropShadow dx="0" dy="8" stdDeviation="8" flood-color="#2d2357" flood-opacity=".35"/>
    </filter>
  </defs>
  <rect width="512" height="768" rx="48" fill="url(#bgp708)"/>
  <rect x="24" y="24" width="464" height="720" rx="40" fill="#ffffff" opacity=".08"/>
  <g opacity=".42"><circle cx="22" cy="595" r="3.1" fill="#fff" opacity="0.60"/><circle cx="29" cy="224" r="0.8" fill="#fff" opacity="0.46"/><circle cx="486" cy="364" r="1.9" fill="#fff" opacity="0.26"/><circle cx="192" cy="19" r="2.4" fill="#fff" opacity="0.60"/><circle cx="45" cy="657" r="1.9" fill="#fff" opacity="0.55"/><circle cx="457" cy="74" r="1.8" fill="#fff" opacity="0.36"/><circle cx="481" cy="374" r="3.1" fill="#fff" opacity="0.58"/><circle cx="314" cy="424" r="1.4" fill="#fff" opacity="0.37"/><circle cx="501" cy="631" r="1.5" fill="#fff" opacity="0.27"/><circle cx="433" cy="18" r="2.2" fill="#fff" opacity="0.52"/><circle cx="370" cy="288" r="1.4" fill="#fff" opacity="0.61"/><circle cx="144" cy="328" r="3.2" fill="#fff" opacity="0.63"/><circle cx="438" cy="462" r="3.2" fill="#fff" opacity="0.33"/><circle cx="228" cy="123" r="1.6" fill="#fff" opacity="0.50"/><circle cx="278" cy="518" r="1.8" fill="#fff" opacity="0.26"/><circle cx="491" cy="331" r="1.2" fill="#fff" opacity="0.32"/><circle cx="451" cy="337" r="1.3" fill="#fff" opacity="0.47"/><circle cx="276" cy="16" r="1.6" fill="#fff" opacity="0.52"/><circle cx="454" cy="635" r="2.8" fill="#fff" opacity="0.27"/><circle cx="171" cy="101" r="1.9" fill="#fff" opacity="0.60"/><circle cx="136" cy="395" r="1.8" fill="#fff" opacity="0.46"/><circle cx="53" cy="344" r="1.5" fill="#fff" opacity="0.34"/><circle cx="183" cy="722" r="2.0" fill="#fff" opacity="0.28"/><circle cx="317" cy="305" r="2.8" fill="#fff" opacity="0.43"/><circle cx="156" cy="356" r="2.7" fill="#fff" opacity="0.29"/><circle cx="25" cy="137" r="1.9" fill="#fff" opacity="0.60"/><circle cx="50" cy="447" r="2.8" fill="#fff" opacity="0.34"/><circle cx="67" cy="371" r="1.6" fill="#fff" opacity="0.65"/></g>
  <path d="M18 704 C124 595 205 659 256 580 C314 666 392 596 494 704 V768 H18Z" fill="#1f6f43" opacity=".18"/>
  <ellipse cx="256" cy="662" rx="150" ry="34" fill="#2d2357" opacity=".28"/>
  <g transform="translate(0 122)">
    <path d="M231.4 400.7 C128.9 376.1 83.80000000000001 265.4 198.60000000000002 275.65" fill="#43b957" opacity=".82"/><path d="M280.6 400.7 C383.1 376.1 428.2 265.4 313.4 275.65" fill="#43b957" opacity=".82"/><ellipse cx="256" cy="339.2" rx="98.39999999999999" ry="116.85" fill="url(#body)" filter="url(#softShadow)"/><path d="M256 138.3 C169.9 175.20000000000002 161.7 259.25 256 251.05 C350.3 259.25 342.1 175.20000000000002 256 138.3Z" fill="#d5c6ff"/><circle cx="256" cy="253.1" r="77.89999999999999" fill="url(#head)"/><ellipse cx="223.2" cy="253.1" rx="14.349999999999998" ry="16.4" fill="#14213d"/><ellipse cx="288.8" cy="253.1" rx="14.349999999999998" ry="16.4" fill="#14213d"/><circle cx="229.35" cy="244.9" r="4.714999999999999" fill="#fff"/><circle cx="294.95" cy="244.9" r="4.714999999999999" fill="#fff"/><path d="M256 183.4 L278.55 212.10000000000002 L256 242.85 L233.45 212.10000000000002 Z" fill="#d5c6ff" opacity=".92"/>
  </g>
  <path d="M74 126 C170 65 334 65 438 126" stroke="#fff" stroke-width="16" stroke-linecap="round" opacity=".16"/>
  <path d="M63 676 C162 718 344 718 449 662" stroke="#fff" stroke-width="14" stroke-linecap="round" opacity=".16"/>
</svg>