<svg xmlns="http://www.w3.org/2000/svg" viewBox="0 0 512 768" role="img" aria-label="古碑鬼将 original portrait">
  
  <defs>
    <linearGradient id="bgp709" x1="0" y1="0" x2="1" y2="1">
      <stop offset="0" stop-color="#d5c6ff"/>
      <stop offset=".55" stop-color="#7367b8"/>
      <stop offset="1" stop-color="#2d2357"/>
    </linearGradient>
    <radialGradient id="body" cx=".36" cy=".25" r=".76">
      <stop offset="0" stop-color="#d5c6ff"/>
      <stop offset=".6" stop-color="#7367b8"/>
      <stop offset="1" stop-color="#2d2357"/>
    </radialGradient>
    <radialGradient id="head" cx=".36" cy=".26" r=".72">
      <stop offset="0" stop-color="#ffffff" stop-opacity=".85"/>
      <stop offset=".2" stop-color="#d5c6ff"/>
      <stop offset=".72" stop-color="#7367b8"/>
      <stop offset="1" stop-color="#2d2357"/>
    </radialGradient>
    <filter id="softShadow" x="-30%" y="-30%" width="160%" height="160%">
      <feDropShadow dx="0" dy="8" stdDeviation="8" flood-color="#2d2357" flood-opacity=".35"/>
    </filter>
  </defs>
  <rect width="512" height="768" rx="48" fill="url(#bgp709)"/>
  <rect x="24" y="24" width="464" height="720" rx="40" fill="#ffffff" opacity=".08"/>
  <g opacity=".42"><circle cx="222" cy="445" r="2.7" fill="#fff" opacity="0.31"/><circle cx="499" cy="514" r="2.8" fill="#fff" opacity="0.40"/><circle cx="35" cy="716" r="1.9" fill="#fff" opacity="0.58"/><circle cx="345" cy="136" r="1.2" fill="#fff" opacity="0.42"/><circle cx="405" cy="716" r="2.1" fill="#fff" opacity="0.33"/><circle cx="385" cy="629" r="1.5" fill="#fff" opacity="0.56"/><circle cx="46" cy="626" r="1.4" fill="#fff" opacity="0.68"/><circle cx="200" cy="228" r="2.5" fill="#fff" opacity="0.30"/><circle cx="404" cy="294" r="2.7" fill="#fff" opacity="0.68"/><circle cx="477" cy="212" r="1.6" fill="#fff" opacity="0.31"/><circle cx="83" cy="590" r="0.9" fill="#fff" opacity="0.36"/><circle cx="325" cy="653" r="2.6" fill="#fff" opacity="0.30"/><circle cx="314" cy="147" r="1.3" fill="#fff" opacity="0.34"/><circle cx="55" cy="95" r="2.7" fill="#fff" opacity="0.30"/><circle cx="229" cy="234" r="3.0" fill="#fff" opacity="0.53"/><circle cx="283" cy="71" r="1.7" fill="#fff" opacity="0.61"/><circle cx="478" cy="230" r="1.1" fill="#fff" opacity="0.30"/><circle cx="252" cy="120" r="3.1" fill="#fff" opacity="0.51"/><circle cx="224" cy="111" r="1.7" fill="#fff" opacity="0.68"/><circle cx="58" cy="659" r="2.5" fill="#fff" opacity="0.44"/><circle cx="287" cy="423" r="2.0" fill="#fff" opacity="0.37"/><circle cx="306" cy="748" r="2.8" fill="#fff" opacity="0.46"/><circle cx="501" cy="630" r="2.4" fill="#fff" opacity="0.46"/><circle cx="493" cy="686" r="1.9" fill="#fff" opacity="0.59"/><circle cx="254" cy="486" r="2.3" fill="#fff" opacity="0.53"/><circle cx="366" cy="466" r="1.5" fill="#fff" opacity="0.50"/><circle cx="283" cy="80" r="2.4" fill="#fff" opacity="0.50"/><circle cx="337" cy="263" r="1.4" fill="#fff" opacity="0.46"/></g>
  <path d="M0 590 C76 555 120 612 197 582 C277 551 327 614 413 581 C462 562 489 570 512 585 V768 H0Z" fill="#2d2357" opacity=".22"/>
  <ellipse cx="256" cy="662" rx="150" ry="34" fill="#2d2357" opacity=".28"/>
  <g transform="translate(0 122)">
    <path d="M149.4 435.54999999999995 C100.20000000000002 304.35 167.85000000000002 156.75 264.2 154.70000000000002 C379 150.60000000000002 420 298.2 352.35 435.54999999999995 C317.5 400.7 288.8 458.1 256 419.15 C221.15 458.1 188.35000000000002 400.7 149.4 435.54999999999995Z" fill="url(#body)" filter="url(#softShadow)"/><circle cx="219.1" cy="253.1" r="16.4" fill="#1b1638"/><circle cx="292.9" cy="253.1" r="16.4" fill="#1b1638"/><path d="M239.6 312.55 Q256 331 280.6 310.5" stroke="#1b1638" stroke-width="10.25" fill="none" stroke-linecap="round"/><path d="M126.85000000000002 326.9 C40.75000000000003 296.15 83.80000000000001 201.85000000000002 137.10000000000002 238.75" fill="#43b957" opacity=".35"/><path d="M385.15 326.9 C471.25 296.15 428.2 201.85000000000002 374.9 238.75" fill="#43b957" opacity=".35"/><path d="M256 183.4 L278.55 212.10000000000002 L256 242.85 L233.45 212.10000000000002 Z" fill="#d5c6ff" opacity=".92"/>
  </g>
  <path d="M74 126 C170 65 334 65 438 126" stroke="#fff" stroke-width="16" stroke-linecap="round" opacity=".16"/>
  <path d="M63 676 C162 718 344 718 449 662" stroke="#fff" stroke-width="14" stroke-linecap="round" opacity=".16"/>
</svg>