<svg xmlns="http://www.w3.org/2000/svg" viewBox="0 0 512 768" role="img" aria-label="波导勇者 original portrait">
  
  <defs>
    <linearGradient id="bgp71" x1="0" y1="0" x2="1" y2="1">
      <stop offset="0" stop-color="#ffc0a6"/>
      <stop offset=".55" stop-color="#d95f3d"/>
      <stop offset="1" stop-color="#7a271d"/>
    </linearGradient>
    <radialGradient id="body" cx=".36" cy=".25" r=".76">
      <stop offset="0" stop-color="#ffc0a6"/>
      <stop offset=".6" stop-color="#d95f3d"/>
      <stop offset="1" stop-color="#7a271d"/>
    </radialGradient>
    <radialGradient id="head" cx=".36" cy=".26" r=".72">
      <stop offset="0" stop-color="#ffffff" stop-opacity=".85"/>
      <stop offset=".2" stop-color="#ffc0a6"/>
      <stop offset=".72" stop-color="#d95f3d"/>
      <stop offset="1" stop-color="#7a271d"/>
    </radialGradient>
    <filter id="softShadow" x="-30%" y="-30%" width="160%" height="160%">
      <feDropShadow dx="0" dy="8" stdDeviation="8" flood-color="#7a271d" flood-opacity=".35"/>
    </filter>
  </defs>
  <rect width="512" height="768" rx="48" fill="url(#bgp71)"/>
  <rect x="24" y="24" width="464" height="720" rx="40" fill="#ffffff" opacity=".08"/>
  <g opacity=".42"><circle cx="260" cy="149" r="1.3" fill="#fff" opacity="0.58"/><circle cx="205" cy="754" r="1.6" fill="#fff" opacity="0.50"/><circle cx="117" cy="456" r="2.8" fill="#fff" opacity="0.31"/><circle cx="488" cy="422" r="2.4" fill="#fff" opacity="0.26"/><circle cx="100" cy="554" r="2.9" fill="#fff" opacity="0.48"/><circle cx="359" cy="117" r="0.9" fill="#fff" opacity="0.51"/><circle cx="410" cy="302" r="2.4" fill="#fff" opacity="0.42"/><circle cx="221" cy="327" r="2.9" fill="#fff" opacity="0.38"/><circle cx="50" cy="232" r="1.4" fill="#fff" opacity="0.41"/><circle cx="304" cy="572" r="1.1" fill="#fff" opacity="0.53"/><circle cx="44" cy="762" r="0.9" fill="#fff" opacity="0.28"/><circle cx="427" cy="467" r="1.7" fill="#fff" opacity="0.32"/><circle cx="165" cy="153" r="1.7" fill="#fff" opacity="0.39"/><circle cx="435" cy="284" r="3.0" fill="#fff" opacity="0.45"/><circle cx="5" cy="120" r="1.0" fill="#fff" opacity="0.40"/><circle cx="387" cy="593" r="1.3" fill="#fff" opacity="0.60"/><circle cx="144" cy="98" r="1.0" fill="#fff" opacity="0.31"/><circle cx="298" cy="520" r="1.5" fill="#fff" opacity="0.66"/><circle cx="19" cy="59" r="1.5" fill="#fff" opacity="0.67"/><circle cx="365" cy="185" r="1.7" fill="#fff" opacity="0.53"/><circle cx="335" cy="224" r="2.2" fill="#fff" opacity="0.29"/><circle cx="298" cy="43" r="1.4" fill="#fff" opacity="0.60"/><circle cx="509" cy="202" r="3.0" fill="#fff" opacity="0.38"/><circle cx="143" cy="367" r="3.1" fill="#fff" opacity="0.46"/><circle cx="428" cy="544" r="3.0" fill="#fff" opacity="0.33"/><circle cx="39" cy="307" r="1.9" fill="#fff" opacity="0.50"/><circle cx="109" cy="477" r="2.7" fill="#fff" opacity="0.52"/><circle cx="350" cy="202" r="2.4" fill="#fff" opacity="0.29"/></g>
  <path d="M38 684 C128 596 386 596 475 684 V768 H38Z" fill="#7a271d" opacity=".17"/>
  <ellipse cx="256" cy="662" rx="150" ry="34" fill="#7a271d" opacity=".28"/>
  <g transform="translate(0 122)">
    <ellipse cx="256" cy="359.7" rx="110.69999999999999" ry="100.44999999999999" fill="url(#body)" filter="url(#softShadow)"/><circle cx="256" cy="232.60000000000002" r="86.1" fill="url(#head)"/><path d="M149.4 322.8 C51.00000000000003 304.35 85.85000000000002 423.25 165.8 402.75" fill="#7a271d"/><path d="M362.6 322.8 C461 304.35 426.15 423.25 346.2 402.75" fill="#7a271d"/><path d="M200.65 148.55 H311.35 L331.85 195.7 Q256 224.4 180.15 195.7 Z" fill="#ffc0a6" opacity=".85"/><ellipse cx="223.2" cy="253.1" rx="14.349999999999998" ry="16.4" fill="#14213d"/><ellipse cx="288.8" cy="253.1" rx="14.349999999999998" ry="16.4" fill="#14213d"/><circle cx="229.35" cy="244.9" r="4.714999999999999" fill="#fff"/><circle cx="294.95" cy="244.9" r="4.714999999999999" fill="#fff"/><circle cx="256" cy="210.05" r="14.349999999999998" fill="#ffc0a6" opacity=".9"/>
  </g>
  <path d="M74 126 C170 65 334 65 438 126" stroke="#fff" stroke-width="16" stroke-linecap="round" opacity=".16"/>
  <path d="M63 676 C162 718 344 718 449 662" stroke="#fff" stroke-width="14" stroke-linecap="round" opacity=".16"/>
</svg>