<svg xmlns="http://www.w3.org/2000/svg" viewBox="0 0 512 768" role="img" aria-label="灯笼幽兵 original portrait">
  
  <defs>
    <linearGradient id="bgp710" x1="0" y1="0" x2="1" y2="1">
      <stop offset="0" stop-color="#d5c6ff"/>
      <stop offset=".55" stop-color="#7367b8"/>
      <stop offset="1" stop-color="#2d2357"/>
    </linearGradient>
    <radialGradient id="body" cx=".36" cy=".25" r=".76">
      <stop offset="0" stop-color="#d5c6ff"/>
      <stop offset=".6" stop-color="#7367b8"/>
      <stop offset="1" stop-color="#2d2357"/>
    </radialGradient>
    <radialGradient id="head" cx=".36" cy=".26" r=".72">
      <stop offset="0" stop-color="#ffffff" stop-opacity=".85"/>
      <stop offset=".2" stop-color="#d5c6ff"/>
      <stop offset=".72" stop-color="#7367b8"/>
      <stop offset="1" stop-color="#2d2357"/>
    </radialGradient>
    <filter id="softShadow" x="-30%" y="-30%" width="160%" height="160%">
      <feDropShadow dx="0" dy="8" stdDeviation="8" flood-color="#2d2357" flood-opacity=".35"/>
    </filter>
  </defs>
  <rect width="512" height="768" rx="48" fill="url(#bgp710)"/>
  <rect x="24" y="24" width="464" height="720" rx="40" fill="#ffffff" opacity=".08"/>
  <g opacity=".42"><circle cx="400" cy="114" r="2.1" fill="#fff" opacity="0.65"/><circle cx="378" cy="627" r="2.0" fill="#fff" opacity="0.44"/><circle cx="63" cy="371" r="2.2" fill="#fff" opacity="0.56"/><circle cx="137" cy="479" r="1.8" fill="#fff" opacity="0.54"/><circle cx="38" cy="432" r="0.8" fill="#fff" opacity="0.59"/><circle cx="283" cy="704" r="1.4" fill="#fff" opacity="0.53"/><circle cx="239" cy="443" r="1.8" fill="#fff" opacity="0.25"/><circle cx="64" cy="241" r="3.0" fill="#fff" opacity="0.38"/><circle cx="295" cy="477" r="3.0" fill="#fff" opacity="0.67"/><circle cx="64" cy="398" r="2.1" fill="#fff" opacity="0.40"/><circle cx="305" cy="202" r="3.2" fill="#fff" opacity="0.38"/><circle cx="440" cy="50" r="3.0" fill="#fff" opacity="0.65"/><circle cx="34" cy="712" r="1.5" fill="#fff" opacity="0.68"/><circle cx="372" cy="618" r="1.1" fill="#fff" opacity="0.36"/><circle cx="451" cy="621" r="2.8" fill="#fff" opacity="0.39"/><circle cx="441" cy="320" r="2.6" fill="#fff" opacity="0.32"/><circle cx="433" cy="504" r="0.8" fill="#fff" opacity="0.36"/><circle cx="396" cy="737" r="0.8" fill="#fff" opacity="0.45"/><circle cx="452" cy="421" r="1.7" fill="#fff" opacity="0.41"/><circle cx="10" cy="208" r="1.2" fill="#fff" opacity="0.27"/><circle cx="201" cy="559" r="1.9" fill="#fff" opacity="0.53"/><circle cx="344" cy="732" r="2.8" fill="#fff" opacity="0.43"/><circle cx="111" cy="571" r="1.7" fill="#fff" opacity="0.54"/><circle cx="376" cy="756" r="1.4" fill="#fff" opacity="0.37"/><circle cx="322" cy="258" r="2.7" fill="#fff" opacity="0.27"/><circle cx="283" cy="225" r="1.0" fill="#fff" opacity="0.32"/><circle cx="381" cy="529" r="0.8" fill="#fff" opacity="0.39"/><circle cx="161" cy="66" r="2.6" fill="#fff" opacity="0.61"/></g>
  <path d="M0 590 C76 555 120 612 197 582 C277 551 327 614 413 581 C462 562 489 570 512 585 V768 H0Z" fill="#2d2357" opacity=".22"/>
  <ellipse cx="256" cy="662" rx="150" ry="34" fill="#2d2357" opacity=".28"/>
  <g transform="translate(0 122)">
    <path d="M149.4 435.54999999999995 C100.20000000000002 304.35 167.85000000000002 156.75 264.2 154.70000000000002 C379 150.60000000000002 420 298.2 352.35 435.54999999999995 C317.5 400.7 288.8 458.1 256 419.15 C221.15 458.1 188.35000000000002 400.7 149.4 435.54999999999995Z" fill="url(#body)" filter="url(#softShadow)"/><circle cx="219.1" cy="253.1" r="16.4" fill="#1b1638"/><circle cx="292.9" cy="253.1" r="16.4" fill="#1b1638"/><path d="M239.6 312.55 Q256 331 280.6 310.5" stroke="#1b1638" stroke-width="10.25" fill="none" stroke-linecap="round"/><path d="M126.85000000000002 326.9 C40.75000000000003 296.15 83.80000000000001 201.85000000000002 137.10000000000002 238.75" fill="#43b957" opacity=".35"/><path d="M385.15 326.9 C471.25 296.15 428.2 201.85000000000002 374.9 238.75" fill="#43b957" opacity=".35"/><path d="M215 201.85000000000002 Q256 224.4 297 201.85000000000002" stroke="#d5c6ff" stroke-width="10.25" fill="none" stroke-linecap="round" opacity=".8"/>
  </g>
  <path d="M74 126 C170 65 334 65 438 126" stroke="#fff" stroke-width="16" stroke-linecap="round" opacity=".16"/>
  <path d="M63 676 C162 718 344 718 449 662" stroke="#fff" stroke-width="14" stroke-linecap="round" opacity=".16"/>
</svg>