<svg xmlns="http://www.w3.org/2000/svg" viewBox="0 0 512 768" role="img" aria-label="焰首鬼将 original portrait">
  
  <defs>
    <linearGradient id="bgp711" x1="0" y1="0" x2="1" y2="1">
      <stop offset="0" stop-color="#d5c6ff"/>
      <stop offset=".55" stop-color="#7367b8"/>
      <stop offset="1" stop-color="#2d2357"/>
    </linearGradient>
    <radialGradient id="body" cx=".36" cy=".25" r=".76">
      <stop offset="0" stop-color="#d5c6ff"/>
      <stop offset=".6" stop-color="#7367b8"/>
      <stop offset="1" stop-color="#2d2357"/>
    </radialGradient>
    <radialGradient id="head" cx=".36" cy=".26" r=".72">
      <stop offset="0" stop-color="#ffffff" stop-opacity=".85"/>
      <stop offset=".2" stop-color="#d5c6ff"/>
      <stop offset=".72" stop-color="#7367b8"/>
      <stop offset="1" stop-color="#2d2357"/>
    </radialGradient>
    <filter id="softShadow" x="-30%" y="-30%" width="160%" height="160%">
      <feDropShadow dx="0" dy="8" stdDeviation="8" flood-color="#2d2357" flood-opacity=".35"/>
    </filter>
  </defs>
  <rect width="512" height="768" rx="48" fill="url(#bgp711)"/>
  <rect x="24" y="24" width="464" height="720" rx="40" fill="#ffffff" opacity=".08"/>
  <g opacity=".42"><circle cx="439" cy="168" r="3.0" fill="#fff" opacity="0.33"/><circle cx="81" cy="560" r="3.1" fill="#fff" opacity="0.68"/><circle cx="294" cy="8" r="1.8" fill="#fff" opacity="0.36"/><circle cx="142" cy="408" r="2.8" fill="#fff" opacity="0.66"/><circle cx="259" cy="20" r="1.2" fill="#fff" opacity="0.64"/><circle cx="504" cy="398" r="1.7" fill="#fff" opacity="0.35"/><circle cx="166" cy="425" r="2.9" fill="#fff" opacity="0.65"/><circle cx="382" cy="47" r="2.0" fill="#fff" opacity="0.63"/><circle cx="503" cy="754" r="1.1" fill="#fff" opacity="0.29"/><circle cx="382" cy="214" r="1.9" fill="#fff" opacity="0.55"/><circle cx="283" cy="95" r="3.2" fill="#fff" opacity="0.65"/><circle cx="360" cy="69" r="1.7" fill="#fff" opacity="0.64"/><circle cx="480" cy="678" r="1.4" fill="#fff" opacity="0.53"/><circle cx="378" cy="262" r="1.0" fill="#fff" opacity="0.28"/><circle cx="329" cy="80" r="3.0" fill="#fff" opacity="0.69"/><circle cx="152" cy="729" r="2.7" fill="#fff" opacity="0.54"/><circle cx="292" cy="212" r="2.8" fill="#fff" opacity="0.64"/><circle cx="424" cy="504" r="1.1" fill="#fff" opacity="0.58"/><circle cx="140" cy="241" r="2.6" fill="#fff" opacity="0.63"/><circle cx="474" cy="368" r="2.9" fill="#fff" opacity="0.32"/><circle cx="248" cy="8" r="2.8" fill="#fff" opacity="0.57"/><circle cx="68" cy="470" r="1.7" fill="#fff" opacity="0.33"/><circle cx="355" cy="724" r="1.8" fill="#fff" opacity="0.61"/><circle cx="269" cy="537" r="2.8" fill="#fff" opacity="0.27"/><circle cx="38" cy="463" r="1.0" fill="#fff" opacity="0.65"/><circle cx="414" cy="209" r="2.9" fill="#fff" opacity="0.33"/><circle cx="263" cy="302" r="0.9" fill="#fff" opacity="0.37"/><circle cx="233" cy="328" r="1.6" fill="#fff" opacity="0.25"/></g>
  <path d="M0 590 C76 555 120 612 197 582 C277 551 327 614 413 581 C462 562 489 570 512 585 V768 H0Z" fill="#2d2357" opacity=".22"/>
  <ellipse cx="256" cy="662" rx="150" ry="34" fill="#2d2357" opacity=".28"/>
  <g transform="translate(0 122)">
    <path d="M149.4 435.54999999999995 C100.20000000000002 304.35 167.85000000000002 156.75 264.2 154.70000000000002 C379 150.60000000000002 420 298.2 352.35 435.54999999999995 C317.5 400.7 288.8 458.1 256 419.15 C221.15 458.1 188.35000000000002 400.7 149.4 435.54999999999995Z" fill="url(#body)" filter="url(#softShadow)"/><circle cx="219.1" cy="253.1" r="16.4" fill="#1b1638"/><circle cx="292.9" cy="253.1" r="16.4" fill="#1b1638"/><path d="M239.6 312.55 Q256 331 280.6 310.5" stroke="#1b1638" stroke-width="10.25" fill="none" stroke-linecap="round"/><path d="M126.85000000000002 326.9 C40.75000000000003 296.15 83.80000000000001 201.85000000000002 137.10000000000002 238.75" fill="#43b957" opacity=".35"/><path d="M385.15 326.9 C471.25 296.15 428.2 201.85000000000002 374.9 238.75" fill="#43b957" opacity=".35"/><path d="M215 201.85000000000002 Q256 224.4 297 201.85000000000002" stroke="#d5c6ff" stroke-width="10.25" fill="none" stroke-linecap="round" opacity=".8"/>
  </g>
  <path d="M74 126 C170 65 334 65 438 126" stroke="#fff" stroke-width="16" stroke-linecap="round" opacity=".16"/>
  <path d="M63 676 C162 718 344 718 449 662" stroke="#fff" stroke-width="14" stroke-linecap="round" opacity=".16"/>
</svg>