<svg xmlns="http://www.w3.org/2000/svg" viewBox="0 0 512 768" role="img" aria-label="霜翅冰蛾 original portrait">
  
  <defs>
    <linearGradient id="bgp712" x1="0" y1="0" x2="1" y2="1">
      <stop offset="0" stop-color="#d7fbff"/>
      <stop offset=".55" stop-color="#71d6e8"/>
      <stop offset="1" stop-color="#318aa3"/>
    </linearGradient>
    <radialGradient id="body" cx=".36" cy=".25" r=".76">
      <stop offset="0" stop-color="#d7fbff"/>
      <stop offset=".6" stop-color="#71d6e8"/>
      <stop offset="1" stop-color="#318aa3"/>
    </radialGradient>
    <radialGradient id="head" cx=".36" cy=".26" r=".72">
      <stop offset="0" stop-color="#ffffff" stop-opacity=".85"/>
      <stop offset=".2" stop-color="#d7fbff"/>
      <stop offset=".72" stop-color="#71d6e8"/>
      <stop offset="1" stop-color="#318aa3"/>
    </radialGradient>
    <filter id="softShadow" x="-30%" y="-30%" width="160%" height="160%">
      <feDropShadow dx="0" dy="8" stdDeviation="8" flood-color="#318aa3" flood-opacity=".35"/>
    </filter>
  </defs>
  <rect width="512" height="768" rx="48" fill="url(#bgp712)"/>
  <rect x="24" y="24" width="464" height="720" rx="40" fill="#ffffff" opacity=".08"/>
  <g opacity=".42"><circle cx="396" cy="703" r="2.7" fill="#fff" opacity="0.48"/><circle cx="305" cy="482" r="1.1" fill="#fff" opacity="0.46"/><circle cx="178" cy="415" r="2.9" fill="#fff" opacity="0.60"/><circle cx="334" cy="252" r="0.9" fill="#fff" opacity="0.44"/><circle cx="441" cy="415" r="1.7" fill="#fff" opacity="0.68"/><circle cx="460" cy="357" r="1.5" fill="#fff" opacity="0.67"/><circle cx="197" cy="258" r="2.0" fill="#fff" opacity="0.33"/><circle cx="296" cy="601" r="1.0" fill="#fff" opacity="0.56"/><circle cx="2" cy="675" r="1.0" fill="#fff" opacity="0.55"/><circle cx="465" cy="285" r="0.9" fill="#fff" opacity="0.52"/><circle cx="440" cy="514" r="1.9" fill="#fff" opacity="0.69"/><circle cx="206" cy="296" r="1.5" fill="#fff" opacity="0.30"/><circle cx="89" cy="20" r="1.3" fill="#fff" opacity="0.61"/><circle cx="308" cy="108" r="2.0" fill="#fff" opacity="0.35"/><circle cx="272" cy="375" r="2.5" fill="#fff" opacity="0.37"/><circle cx="112" cy="669" r="2.6" fill="#fff" opacity="0.62"/><circle cx="22" cy="702" r="2.5" fill="#fff" opacity="0.66"/><circle cx="234" cy="627" r="3.2" fill="#fff" opacity="0.33"/><circle cx="220" cy="199" r="2.4" fill="#fff" opacity="0.40"/><circle cx="433" cy="201" r="2.2" fill="#fff" opacity="0.45"/><circle cx="171" cy="610" r="0.9" fill="#fff" opacity="0.32"/><circle cx="447" cy="470" r="2.3" fill="#fff" opacity="0.67"/><circle cx="58" cy="62" r="2.3" fill="#fff" opacity="0.26"/><circle cx="116" cy="684" r="1.2" fill="#fff" opacity="0.69"/><circle cx="127" cy="155" r="2.6" fill="#fff" opacity="0.48"/><circle cx="280" cy="634" r="2.7" fill="#fff" opacity="0.26"/><circle cx="317" cy="674" r="2.5" fill="#fff" opacity="0.29"/><circle cx="118" cy="129" r="0.8" fill="#fff" opacity="0.27"/></g>
  <path d="M69 625 C150 571 359 568 443 628" fill="#8d7a5f" opacity=".14"/>
  <ellipse cx="256" cy="662" rx="150" ry="34" fill="#318aa3" opacity=".28"/>
  <g transform="translate(0 122)">
    <ellipse cx="178.10000000000002" cy="257.2" rx="69.69999999999999" ry="100.44999999999999" fill="#d7fbff" opacity=".55"/><ellipse cx="333.9" cy="257.2" rx="69.69999999999999" ry="100.44999999999999" fill="#d7fbff" opacity=".55"/><ellipse cx="256" cy="331" rx="65.6" ry="122.99999999999999" fill="url(#body)" filter="url(#softShadow)"/><circle cx="256" cy="214.15" r="69.69999999999999" fill="url(#head)"/><path d="M219.1 160.85000000000002 Q174 93.20000000000002 118.65 117.80000000000001" stroke="#514438" stroke-width="10.25" fill="none" stroke-linecap="round"/><path d="M292.9 160.85000000000002 Q338 93.20000000000002 393.35 117.80000000000001" stroke="#514438" stroke-width="10.25" fill="none" stroke-linecap="round"/><path d="M198.60000000000002 322.8 H313.4 M206.8 376.1 H305.2" stroke="#318aa3" stroke-width="8.2" opacity=".35"/><ellipse cx="223.2" cy="253.1" rx="14.349999999999998" ry="16.4" fill="#14213d"/><ellipse cx="288.8" cy="253.1" rx="14.349999999999998" ry="16.4" fill="#14213d"/><circle cx="229.35" cy="244.9" r="4.714999999999999" fill="#fff"/><circle cx="294.95" cy="244.9" r="4.714999999999999" fill="#fff"/><circle cx="256" cy="210.05" r="14.349999999999998" fill="#d7fbff" opacity=".9"/>
  </g>
  <path d="M74 126 C170 65 334 65 438 126" stroke="#fff" stroke-width="16" stroke-linecap="round" opacity=".16"/>
  <path d="M63 676 C162 718 344 718 449 662" stroke="#fff" stroke-width="14" stroke-linecap="round" opacity=".16"/>
</svg>