<svg xmlns="http://www.w3.org/2000/svg" viewBox="0 0 512 768" role="img" aria-label="铜甲战象 original portrait">
  
  <defs>
    <linearGradient id="bgp713" x1="0" y1="0" x2="1" y2="1">
      <stop offset="0" stop-color="#d7fbff"/>
      <stop offset=".55" stop-color="#71d6e8"/>
      <stop offset="1" stop-color="#318aa3"/>
    </linearGradient>
    <radialGradient id="body" cx=".36" cy=".25" r=".76">
      <stop offset="0" stop-color="#d7fbff"/>
      <stop offset=".6" stop-color="#71d6e8"/>
      <stop offset="1" stop-color="#318aa3"/>
    </radialGradient>
    <radialGradient id="head" cx=".36" cy=".26" r=".72">
      <stop offset="0" stop-color="#ffffff" stop-opacity=".85"/>
      <stop offset=".2" stop-color="#d7fbff"/>
      <stop offset=".72" stop-color="#71d6e8"/>
      <stop offset="1" stop-color="#318aa3"/>
    </radialGradient>
    <filter id="softShadow" x="-30%" y="-30%" width="160%" height="160%">
      <feDropShadow dx="0" dy="8" stdDeviation="8" flood-color="#318aa3" flood-opacity=".35"/>
    </filter>
  </defs>
  <rect width="512" height="768" rx="48" fill="url(#bgp713)"/>
  <rect x="24" y="24" width="464" height="720" rx="40" fill="#ffffff" opacity=".08"/>
  <g opacity=".42"><circle cx="151" cy="27" r="1.7" fill="#fff" opacity="0.36"/><circle cx="155" cy="57" r="2.5" fill="#fff" opacity="0.66"/><circle cx="488" cy="167" r="1.7" fill="#fff" opacity="0.28"/><circle cx="96" cy="162" r="1.7" fill="#fff" opacity="0.59"/><circle cx="392" cy="480" r="3.1" fill="#fff" opacity="0.62"/><circle cx="283" cy="142" r="2.4" fill="#fff" opacity="0.48"/><circle cx="362" cy="157" r="1.6" fill="#fff" opacity="0.53"/><circle cx="402" cy="490" r="1.6" fill="#fff" opacity="0.33"/><circle cx="433" cy="606" r="1.4" fill="#fff" opacity="0.58"/><circle cx="258" cy="623" r="2.1" fill="#fff" opacity="0.56"/><circle cx="420" cy="252" r="0.9" fill="#fff" opacity="0.35"/><circle cx="110" cy="684" r="2.3" fill="#fff" opacity="0.65"/><circle cx="340" cy="515" r="2.2" fill="#fff" opacity="0.54"/><circle cx="494" cy="684" r="1.8" fill="#fff" opacity="0.31"/><circle cx="78" cy="185" r="1.4" fill="#fff" opacity="0.29"/><circle cx="102" cy="721" r="3.2" fill="#fff" opacity="0.56"/><circle cx="243" cy="685" r="2.6" fill="#fff" opacity="0.27"/><circle cx="283" cy="100" r="2.7" fill="#fff" opacity="0.48"/><circle cx="306" cy="221" r="0.9" fill="#fff" opacity="0.58"/><circle cx="393" cy="763" r="3.1" fill="#fff" opacity="0.25"/><circle cx="18" cy="131" r="2.2" fill="#fff" opacity="0.27"/><circle cx="349" cy="730" r="1.4" fill="#fff" opacity="0.52"/><circle cx="125" cy="354" r="2.4" fill="#fff" opacity="0.69"/><circle cx="418" cy="481" r="2.4" fill="#fff" opacity="0.42"/><circle cx="299" cy="761" r="2.4" fill="#fff" opacity="0.48"/><circle cx="477" cy="235" r="2.4" fill="#fff" opacity="0.60"/><circle cx="412" cy="98" r="2.5" fill="#fff" opacity="0.25"/><circle cx="260" cy="332" r="1.5" fill="#fff" opacity="0.35"/></g>
  <path d="M69 625 C150 571 359 568 443 628" fill="#8d7a5f" opacity=".14"/>
  <ellipse cx="256" cy="662" rx="150" ry="34" fill="#318aa3" opacity=".28"/>
  <g transform="translate(0 122)">
    <ellipse cx="178.10000000000002" cy="257.2" rx="69.69999999999999" ry="100.44999999999999" fill="#d7fbff" opacity=".55"/><ellipse cx="333.9" cy="257.2" rx="69.69999999999999" ry="100.44999999999999" fill="#d7fbff" opacity=".55"/><ellipse cx="256" cy="331" rx="65.6" ry="122.99999999999999" fill="url(#body)" filter="url(#softShadow)"/><circle cx="256" cy="214.15" r="69.69999999999999" fill="url(#head)"/><path d="M219.1 160.85000000000002 Q174 93.20000000000002 118.65 117.80000000000001" stroke="#514438" stroke-width="10.25" fill="none" stroke-linecap="round"/><path d="M292.9 160.85000000000002 Q338 93.20000000000002 393.35 117.80000000000001" stroke="#514438" stroke-width="10.25" fill="none" stroke-linecap="round"/><path d="M198.60000000000002 322.8 H313.4 M206.8 376.1 H305.2" stroke="#318aa3" stroke-width="8.2" opacity=".35"/><ellipse cx="223.2" cy="253.1" rx="14.349999999999998" ry="16.4" fill="#14213d"/><ellipse cx="288.8" cy="253.1" rx="14.349999999999998" ry="16.4" fill="#14213d"/><circle cx="229.35" cy="244.9" r="4.714999999999999" fill="#fff"/><circle cx="294.95" cy="244.9" r="4.714999999999999" fill="#fff"/><circle cx="256" cy="210.05" r="14.349999999999998" fill="#d7fbff" opacity=".9"/>
  </g>
  <path d="M74 126 C170 65 334 65 438 126" stroke="#fff" stroke-width="16" stroke-linecap="round" opacity=".16"/>
  <path d="M63 676 C162 718 344 718 449 662" stroke="#fff" stroke-width="14" stroke-linecap="round" opacity=".16"/>
</svg>