<svg xmlns="http://www.w3.org/2000/svg" viewBox="0 0 512 768" role="img" aria-label="暗翼蝠卒 original portrait">
  
  <defs>
    <linearGradient id="bgp714" x1="0" y1="0" x2="1" y2="1">
      <stop offset="0" stop-color="#d9edff"/>
      <stop offset=".55" stop-color="#82b7ff"/>
      <stop offset="1" stop-color="#4260ad"/>
    </linearGradient>
    <radialGradient id="body" cx=".36" cy=".25" r=".76">
      <stop offset="0" stop-color="#d9edff"/>
      <stop offset=".6" stop-color="#82b7ff"/>
      <stop offset="1" stop-color="#4260ad"/>
    </radialGradient>
    <radialGradient id="head" cx=".36" cy=".26" r=".72">
      <stop offset="0" stop-color="#ffffff" stop-opacity=".85"/>
      <stop offset=".2" stop-color="#d9edff"/>
      <stop offset=".72" stop-color="#82b7ff"/>
      <stop offset="1" stop-color="#4260ad"/>
    </radialGradient>
    <filter id="softShadow" x="-30%" y="-30%" width="160%" height="160%">
      <feDropShadow dx="0" dy="8" stdDeviation="8" flood-color="#4260ad" flood-opacity=".35"/>
    </filter>
  </defs>
  <rect width="512" height="768" rx="48" fill="url(#bgp714)"/>
  <rect x="24" y="24" width="464" height="720" rx="40" fill="#ffffff" opacity=".08"/>
  <g opacity=".42"><circle cx="250" cy="216" r="2.7" fill="#fff" opacity="0.51"/><circle cx="418" cy="464" r="2.3" fill="#fff" opacity="0.57"/><circle cx="227" cy="710" r="0.8" fill="#fff" opacity="0.49"/><circle cx="476" cy="226" r="3.0" fill="#fff" opacity="0.60"/><circle cx="188" cy="552" r="1.6" fill="#fff" opacity="0.47"/><circle cx="25" cy="89" r="2.0" fill="#fff" opacity="0.60"/><circle cx="251" cy="396" r="2.6" fill="#fff" opacity="0.28"/><circle cx="379" cy="437" r="2.4" fill="#fff" opacity="0.65"/><circle cx="234" cy="305" r="2.0" fill="#fff" opacity="0.35"/><circle cx="473" cy="357" r="1.5" fill="#fff" opacity="0.28"/><circle cx="406" cy="401" r="2.1" fill="#fff" opacity="0.35"/><circle cx="65" cy="101" r="3.0" fill="#fff" opacity="0.46"/><circle cx="84" cy="180" r="1.0" fill="#fff" opacity="0.64"/><circle cx="237" cy="344" r="1.7" fill="#fff" opacity="0.35"/><circle cx="61" cy="126" r="1.1" fill="#fff" opacity="0.67"/><circle cx="92" cy="599" r="3.2" fill="#fff" opacity="0.41"/><circle cx="94" cy="227" r="2.6" fill="#fff" opacity="0.51"/><circle cx="182" cy="37" r="2.1" fill="#fff" opacity="0.43"/><circle cx="506" cy="471" r="2.9" fill="#fff" opacity="0.32"/><circle cx="482" cy="333" r="1.1" fill="#fff" opacity="0.53"/><circle cx="433" cy="484" r="2.8" fill="#fff" opacity="0.57"/><circle cx="253" cy="386" r="2.2" fill="#fff" opacity="0.38"/><circle cx="394" cy="27" r="2.9" fill="#fff" opacity="0.35"/><circle cx="466" cy="114" r="2.4" fill="#fff" opacity="0.59"/><circle cx="157" cy="156" r="3.2" fill="#fff" opacity="0.41"/><circle cx="178" cy="706" r="1.4" fill="#fff" opacity="0.50"/><circle cx="112" cy="735" r="1.8" fill="#fff" opacity="0.32"/><circle cx="172" cy="54" r="2.1" fill="#fff" opacity="0.62"/></g>
  <path d="M0 620 C92 590 171 620 259 600 C357 577 432 594 512 565 V768 H0Z" fill="#fff" opacity=".18"/>
  <ellipse cx="256" cy="662" rx="150" ry="34" fill="#4260ad" opacity=".28"/>
  <g transform="translate(0 122)">
    <path d="M219.1 306.4 C65.35000000000002 187.5 67.4 392.5 206.8 400.7" fill="#8b7ef4" opacity=".78"/><path d="M292.9 306.4 C446.65 187.5 444.6 392.5 305.2 400.7" fill="#8b7ef4" opacity=".78"/><ellipse cx="256" cy="343.3" rx="86.1" ry="110.69999999999999" fill="url(#body)" filter="url(#softShadow)"/><circle cx="256" cy="228.5" r="77.89999999999999" fill="url(#head)"/><path d="M245.75 226.45 L331.85 249 L249.85 269.5 Z" fill="#d9edff"/><path d="M210.9 154.70000000000002 C239.6 89.10000000000002 280.6 109.60000000000002 260.1 167" fill="#342d78" opacity=".85"/><ellipse cx="223.2" cy="253.1" rx="14.349999999999998" ry="16.4" fill="#14213d"/><ellipse cx="288.8" cy="253.1" rx="14.349999999999998" ry="16.4" fill="#14213d"/><circle cx="229.35" cy="244.9" r="4.714999999999999" fill="#fff"/><circle cx="294.95" cy="244.9" r="4.714999999999999" fill="#fff"/><path d="M215 201.85000000000002 Q256 224.4 297 201.85000000000002" stroke="#d9edff" stroke-width="10.25" fill="none" stroke-linecap="round" opacity=".8"/>
  </g>
  <path d="M74 126 C170 65 334 65 438 126" stroke="#fff" stroke-width="16" stroke-linecap="round" opacity=".16"/>
  <path d="M63 676 C162 718 344 718 449 662" stroke="#fff" stroke-width="14" stroke-linecap="round" opacity=".16"/>
</svg>