<svg xmlns="http://www.w3.org/2000/svg" viewBox="0 0 512 768" role="img" aria-label="沸泉火兽 original portrait">
  
  <defs>
    <linearGradient id="bgp721" x1="0" y1="0" x2="1" y2="1">
      <stop offset="0" stop-color="#ffd166"/>
      <stop offset=".55" stop-color="#ff6b35"/>
      <stop offset="1" stop-color="#a92d1d"/>
    </linearGradient>
    <radialGradient id="body" cx=".36" cy=".25" r=".76">
      <stop offset="0" stop-color="#ffd166"/>
      <stop offset=".6" stop-color="#ff6b35"/>
      <stop offset="1" stop-color="#a92d1d"/>
    </radialGradient>
    <radialGradient id="head" cx=".36" cy=".26" r=".72">
      <stop offset="0" stop-color="#ffffff" stop-opacity=".85"/>
      <stop offset=".2" stop-color="#ffd166"/>
      <stop offset=".72" stop-color="#ff6b35"/>
      <stop offset="1" stop-color="#a92d1d"/>
    </radialGradient>
    <filter id="softShadow" x="-30%" y="-30%" width="160%" height="160%">
      <feDropShadow dx="0" dy="8" stdDeviation="8" flood-color="#a92d1d" flood-opacity=".35"/>
    </filter>
  </defs>
  <rect width="512" height="768" rx="48" fill="url(#bgp721)"/>
  <rect x="24" y="24" width="464" height="720" rx="40" fill="#ffffff" opacity=".08"/>
  <g opacity=".42"><circle cx="417" cy="238" r="2.9" fill="#fff" opacity="0.65"/><circle cx="484" cy="100" r="2.7" fill="#fff" opacity="0.63"/><circle cx="34" cy="595" r="1.9" fill="#fff" opacity="0.61"/><circle cx="421" cy="336" r="0.9" fill="#fff" opacity="0.62"/><circle cx="389" cy="20" r="1.8" fill="#fff" opacity="0.32"/><circle cx="393" cy="530" r="1.9" fill="#fff" opacity="0.32"/><circle cx="18" cy="700" r="1.8" fill="#fff" opacity="0.29"/><circle cx="289" cy="265" r="3.0" fill="#fff" opacity="0.37"/><circle cx="188" cy="722" r="1.1" fill="#fff" opacity="0.65"/><circle cx="202" cy="246" r="1.7" fill="#fff" opacity="0.70"/><circle cx="134" cy="121" r="2.7" fill="#fff" opacity="0.33"/><circle cx="371" cy="187" r="2.3" fill="#fff" opacity="0.34"/><circle cx="118" cy="215" r="3.2" fill="#fff" opacity="0.32"/><circle cx="22" cy="755" r="1.6" fill="#fff" opacity="0.64"/><circle cx="79" cy="600" r="1.0" fill="#fff" opacity="0.63"/><circle cx="275" cy="185" r="2.4" fill="#fff" opacity="0.56"/><circle cx="390" cy="604" r="1.5" fill="#fff" opacity="0.41"/><circle cx="400" cy="50" r="2.9" fill="#fff" opacity="0.68"/><circle cx="225" cy="720" r="2.1" fill="#fff" opacity="0.44"/><circle cx="105" cy="171" r="1.9" fill="#fff" opacity="0.49"/><circle cx="396" cy="308" r="2.8" fill="#fff" opacity="0.29"/><circle cx="168" cy="547" r="1.0" fill="#fff" opacity="0.63"/><circle cx="305" cy="473" r="1.4" fill="#fff" opacity="0.58"/><circle cx="175" cy="375" r="1.9" fill="#fff" opacity="0.34"/><circle cx="34" cy="693" r="2.1" fill="#fff" opacity="0.32"/><circle cx="161" cy="320" r="2.3" fill="#fff" opacity="0.30"/><circle cx="89" cy="600" r="2.7" fill="#fff" opacity="0.53"/><circle cx="61" cy="365" r="2.9" fill="#fff" opacity="0.45"/></g>
  <path d="M0 670 C96 613 167 665 256 620 C337 660 421 608 512 662 V768 H0Z" fill="#0b4f8f" opacity=".15"/>
  <ellipse cx="256" cy="662" rx="150" ry="34" fill="#a92d1d" opacity=".28"/>
  <g transform="translate(0 122)">
    <path d="M352.35 347.4 C442.54999999999995 322.8 420 222.35000000000002 346.2 263.35" stroke="#2397d5" stroke-width="28.699999999999996" fill="none" stroke-linecap="round" opacity=".76"/><ellipse cx="256" cy="353.55" rx="108.64999999999999" ry="102.49999999999999" fill="url(#body)" filter="url(#softShadow)"/><path d="M184.25 212.10000000000002 L137.10000000000002 115.75000000000003 L231.4 175.20000000000002 Z" fill="#2397d5"/><path d="M327.75 212.10000000000002 L374.9 115.75000000000003 L280.6 175.20000000000002 Z" fill="#2397d5"/><circle cx="256" cy="234.65" r="92.24999999999999" fill="url(#head)"/><ellipse cx="221.15" cy="251.05" rx="16.4" ry="20.5" fill="#182033"/><ellipse cx="290.85" cy="251.05" rx="16.4" ry="20.5" fill="#182033"/><ellipse cx="223.2" cy="253.1" rx="14.349999999999998" ry="16.4" fill="#14213d"/><ellipse cx="288.8" cy="253.1" rx="14.349999999999998" ry="16.4" fill="#14213d"/><circle cx="229.35" cy="244.9" r="4.714999999999999" fill="#fff"/><circle cx="294.95" cy="244.9" r="4.714999999999999" fill="#fff"/><path d="M256 183.4 L278.55 212.10000000000002 L256 242.85 L233.45 212.10000000000002 Z" fill="#ffd166" opacity=".92"/>
  </g>
  <path d="M74 126 C170 65 334 65 438 126" stroke="#fff" stroke-width="16" stroke-linecap="round" opacity=".16"/>
  <path d="M63 676 C162 718 344 718 449 662" stroke="#fff" stroke-width="14" stroke-linecap="round" opacity=".16"/>
</svg>