<svg xmlns="http://www.w3.org/2000/svg" viewBox="0 0 512 768" role="img" aria-label="翠羽雏将 original portrait">
  
  <defs>
    <linearGradient id="bgp722" x1="0" y1="0" x2="1" y2="1">
      <stop offset="0" stop-color="#c7f7a4"/>
      <stop offset=".55" stop-color="#43b957"/>
      <stop offset="1" stop-color="#1f6f43"/>
    </linearGradient>
    <radialGradient id="body" cx=".36" cy=".25" r=".76">
      <stop offset="0" stop-color="#c7f7a4"/>
      <stop offset=".6" stop-color="#43b957"/>
      <stop offset="1" stop-color="#1f6f43"/>
    </radialGradient>
    <radialGradient id="head" cx=".36" cy=".26" r=".72">
      <stop offset="0" stop-color="#ffffff" stop-opacity=".85"/>
      <stop offset=".2" stop-color="#c7f7a4"/>
      <stop offset=".72" stop-color="#43b957"/>
      <stop offset="1" stop-color="#1f6f43"/>
    </radialGradient>
    <filter id="softShadow" x="-30%" y="-30%" width="160%" height="160%">
      <feDropShadow dx="0" dy="8" stdDeviation="8" flood-color="#1f6f43" flood-opacity=".35"/>
    </filter>
  </defs>
  <rect width="512" height="768" rx="48" fill="url(#bgp722)"/>
  <rect x="24" y="24" width="464" height="720" rx="40" fill="#ffffff" opacity=".08"/>
  <g opacity=".42"><circle cx="360" cy="575" r="1.7" fill="#fff" opacity="0.29"/><circle cx="244" cy="73" r="2.6" fill="#fff" opacity="0.34"/><circle cx="195" cy="359" r="2.9" fill="#fff" opacity="0.27"/><circle cx="469" cy="216" r="2.6" fill="#fff" opacity="0.66"/><circle cx="54" cy="148" r="2.9" fill="#fff" opacity="0.36"/><circle cx="329" cy="167" r="2.0" fill="#fff" opacity="0.38"/><circle cx="48" cy="22" r="2.3" fill="#fff" opacity="0.60"/><circle cx="509" cy="103" r="1.8" fill="#fff" opacity="0.44"/><circle cx="19" cy="184" r="0.9" fill="#fff" opacity="0.31"/><circle cx="506" cy="217" r="0.8" fill="#fff" opacity="0.60"/><circle cx="276" cy="538" r="0.9" fill="#fff" opacity="0.58"/><circle cx="303" cy="248" r="2.1" fill="#fff" opacity="0.42"/><circle cx="66" cy="5" r="1.1" fill="#fff" opacity="0.37"/><circle cx="398" cy="206" r="1.6" fill="#fff" opacity="0.65"/><circle cx="496" cy="89" r="2.5" fill="#fff" opacity="0.49"/><circle cx="444" cy="472" r="2.8" fill="#fff" opacity="0.63"/><circle cx="433" cy="26" r="1.8" fill="#fff" opacity="0.31"/><circle cx="358" cy="177" r="2.8" fill="#fff" opacity="0.37"/><circle cx="162" cy="202" r="1.9" fill="#fff" opacity="0.66"/><circle cx="110" cy="630" r="1.8" fill="#fff" opacity="0.31"/><circle cx="45" cy="643" r="1.0" fill="#fff" opacity="0.32"/><circle cx="246" cy="532" r="1.3" fill="#fff" opacity="0.68"/><circle cx="262" cy="25" r="2.9" fill="#fff" opacity="0.54"/><circle cx="450" cy="79" r="1.0" fill="#fff" opacity="0.26"/><circle cx="307" cy="652" r="2.2" fill="#fff" opacity="0.63"/><circle cx="294" cy="13" r="2.3" fill="#fff" opacity="0.49"/><circle cx="2" cy="188" r="2.5" fill="#fff" opacity="0.31"/><circle cx="127" cy="420" r="1.4" fill="#fff" opacity="0.39"/></g>
  <path d="M0 620 C92 590 171 620 259 600 C357 577 432 594 512 565 V768 H0Z" fill="#fff" opacity=".18"/>
  <ellipse cx="256" cy="662" rx="150" ry="34" fill="#1f6f43" opacity=".28"/>
  <g transform="translate(0 122)">
    <path d="M219.1 306.4 C65.35000000000002 187.5 67.4 392.5 206.8 400.7" fill="#82b7ff" opacity=".78"/><path d="M292.9 306.4 C446.65 187.5 444.6 392.5 305.2 400.7" fill="#82b7ff" opacity=".78"/><ellipse cx="256" cy="343.3" rx="86.1" ry="110.69999999999999" fill="url(#body)" filter="url(#softShadow)"/><circle cx="256" cy="228.5" r="77.89999999999999" fill="url(#head)"/><path d="M245.75 226.45 L331.85 249 L249.85 269.5 Z" fill="#c7f7a4"/><path d="M210.9 154.70000000000002 C239.6 89.10000000000002 280.6 109.60000000000002 260.1 167" fill="#4260ad" opacity=".85"/><ellipse cx="223.2" cy="253.1" rx="14.349999999999998" ry="16.4" fill="#14213d"/><ellipse cx="288.8" cy="253.1" rx="14.349999999999998" ry="16.4" fill="#14213d"/><circle cx="229.35" cy="244.9" r="4.714999999999999" fill="#fff"/><circle cx="294.95" cy="244.9" r="4.714999999999999" fill="#fff"/><circle cx="256" cy="210.05" r="14.349999999999998" fill="#c7f7a4" opacity=".9"/>
  </g>
  <path d="M74 126 C170 65 334 65 438 126" stroke="#fff" stroke-width="16" stroke-linecap="round" opacity=".16"/>
  <path d="M63 676 C162 718 344 718 449 662" stroke="#fff" stroke-width="14" stroke-linecap="round" opacity=".16"/>
</svg>