<svg xmlns="http://www.w3.org/2000/svg" viewBox="0 0 512 768" role="img" aria-label="炎猫校尉 original portrait">
  
  <defs>
    <linearGradient id="bgp726" x1="0" y1="0" x2="1" y2="1">
      <stop offset="0" stop-color="#ffd166"/>
      <stop offset=".55" stop-color="#ff6b35"/>
      <stop offset="1" stop-color="#a92d1d"/>
    </linearGradient>
    <radialGradient id="body" cx=".36" cy=".25" r=".76">
      <stop offset="0" stop-color="#ffd166"/>
      <stop offset=".6" stop-color="#ff6b35"/>
      <stop offset="1" stop-color="#a92d1d"/>
    </radialGradient>
    <radialGradient id="head" cx=".36" cy=".26" r=".72">
      <stop offset="0" stop-color="#ffffff" stop-opacity=".85"/>
      <stop offset=".2" stop-color="#ffd166"/>
      <stop offset=".72" stop-color="#ff6b35"/>
      <stop offset="1" stop-color="#a92d1d"/>
    </radialGradient>
    <filter id="softShadow" x="-30%" y="-30%" width="160%" height="160%">
      <feDropShadow dx="0" dy="8" stdDeviation="8" flood-color="#a92d1d" flood-opacity=".35"/>
    </filter>
  </defs>
  <rect width="512" height="768" rx="48" fill="url(#bgp726)"/>
  <rect x="24" y="24" width="464" height="720" rx="40" fill="#ffffff" opacity=".08"/>
  <g opacity=".42"><circle cx="103" cy="372" r="2.9" fill="#fff" opacity="0.66"/><circle cx="7" cy="682" r="1.9" fill="#fff" opacity="0.63"/><circle cx="507" cy="671" r="1.7" fill="#fff" opacity="0.63"/><circle cx="222" cy="73" r="1.3" fill="#fff" opacity="0.63"/><circle cx="507" cy="592" r="1.3" fill="#fff" opacity="0.44"/><circle cx="442" cy="704" r="1.8" fill="#fff" opacity="0.63"/><circle cx="411" cy="227" r="0.9" fill="#fff" opacity="0.63"/><circle cx="488" cy="554" r="2.7" fill="#fff" opacity="0.49"/><circle cx="204" cy="548" r="1.9" fill="#fff" opacity="0.41"/><circle cx="127" cy="160" r="1.3" fill="#fff" opacity="0.43"/><circle cx="408" cy="268" r="2.0" fill="#fff" opacity="0.66"/><circle cx="196" cy="230" r="2.9" fill="#fff" opacity="0.34"/><circle cx="261" cy="289" r="0.9" fill="#fff" opacity="0.40"/><circle cx="303" cy="228" r="2.3" fill="#fff" opacity="0.64"/><circle cx="167" cy="374" r="2.1" fill="#fff" opacity="0.64"/><circle cx="62" cy="69" r="2.6" fill="#fff" opacity="0.65"/><circle cx="349" cy="598" r="2.4" fill="#fff" opacity="0.46"/><circle cx="142" cy="517" r="1.2" fill="#fff" opacity="0.64"/><circle cx="87" cy="547" r="2.8" fill="#fff" opacity="0.66"/><circle cx="64" cy="384" r="2.3" fill="#fff" opacity="0.50"/><circle cx="69" cy="359" r="1.1" fill="#fff" opacity="0.49"/><circle cx="176" cy="648" r="2.4" fill="#fff" opacity="0.61"/><circle cx="63" cy="550" r="2.8" fill="#fff" opacity="0.48"/><circle cx="390" cy="466" r="1.6" fill="#fff" opacity="0.54"/><circle cx="108" cy="530" r="1.5" fill="#fff" opacity="0.34"/><circle cx="219" cy="399" r="1.5" fill="#fff" opacity="0.66"/><circle cx="276" cy="537" r="1.3" fill="#fff" opacity="0.54"/><circle cx="273" cy="2" r="2.4" fill="#fff" opacity="0.25"/></g>
  <path d="M0 670 C96 613 167 665 256 620 C337 660 421 608 512 662 V768 H0Z" fill="#171728" opacity=".15"/>
  <ellipse cx="256" cy="662" rx="150" ry="34" fill="#a92d1d" opacity=".28"/>
  <g transform="translate(0 122)">
    <path d="M352.35 347.4 C442.54999999999995 322.8 420 222.35000000000002 346.2 263.35" stroke="#4a4b68" stroke-width="28.699999999999996" fill="none" stroke-linecap="round" opacity=".76"/><ellipse cx="256" cy="353.55" rx="108.64999999999999" ry="102.49999999999999" fill="url(#body)" filter="url(#softShadow)"/><path d="M184.25 212.10000000000002 L137.10000000000002 115.75000000000003 L231.4 175.20000000000002 Z" fill="#4a4b68"/><path d="M327.75 212.10000000000002 L374.9 115.75000000000003 L280.6 175.20000000000002 Z" fill="#4a4b68"/><circle cx="256" cy="234.65" r="92.24999999999999" fill="url(#head)"/><ellipse cx="221.15" cy="251.05" rx="16.4" ry="20.5" fill="#182033"/><ellipse cx="290.85" cy="251.05" rx="16.4" ry="20.5" fill="#182033"/><ellipse cx="223.2" cy="253.1" rx="14.349999999999998" ry="16.4" fill="#14213d"/><ellipse cx="288.8" cy="253.1" rx="14.349999999999998" ry="16.4" fill="#14213d"/><circle cx="229.35" cy="244.9" r="4.714999999999999" fill="#fff"/><circle cx="294.95" cy="244.9" r="4.714999999999999" fill="#fff"/><path d="M215 201.85000000000002 Q256 224.4 297 201.85000000000002" stroke="#ffd166" stroke-width="10.25" fill="none" stroke-linecap="round" opacity=".8"/>
  </g>
  <path d="M74 126 C170 65 334 65 438 126" stroke="#fff" stroke-width="16" stroke-linecap="round" opacity=".16"/>
  <path d="M63 676 C162 718 344 718 449 662" stroke="#fff" stroke-width="14" stroke-linecap="round" opacity=".16"/>
</svg>