<svg xmlns="http://www.w3.org/2000/svg" viewBox="0 0 512 768" role="img" aria-label="碧波蜥卒 original portrait">
  
  <defs>
    <linearGradient id="bgp728" x1="0" y1="0" x2="1" y2="1">
      <stop offset="0" stop-color="#9ee8ff"/>
      <stop offset=".55" stop-color="#2397d5"/>
      <stop offset="1" stop-color="#0b4f8f"/>
    </linearGradient>
    <radialGradient id="body" cx=".36" cy=".25" r=".76">
      <stop offset="0" stop-color="#9ee8ff"/>
      <stop offset=".6" stop-color="#2397d5"/>
      <stop offset="1" stop-color="#0b4f8f"/>
    </radialGradient>
    <radialGradient id="head" cx=".36" cy=".26" r=".72">
      <stop offset="0" stop-color="#ffffff" stop-opacity=".85"/>
      <stop offset=".2" stop-color="#9ee8ff"/>
      <stop offset=".72" stop-color="#2397d5"/>
      <stop offset="1" stop-color="#0b4f8f"/>
    </radialGradient>
    <filter id="softShadow" x="-30%" y="-30%" width="160%" height="160%">
      <feDropShadow dx="0" dy="8" stdDeviation="8" flood-color="#0b4f8f" flood-opacity=".35"/>
    </filter>
  </defs>
  <rect width="512" height="768" rx="48" fill="url(#bgp728)"/>
  <rect x="24" y="24" width="464" height="720" rx="40" fill="#ffffff" opacity=".08"/>
  <g opacity=".42"><circle cx="345" cy="463" r="2.8" fill="#fff" opacity="0.36"/><circle cx="492" cy="604" r="2.7" fill="#fff" opacity="0.51"/><circle cx="379" cy="661" r="1.5" fill="#fff" opacity="0.38"/><circle cx="289" cy="675" r="1.0" fill="#fff" opacity="0.65"/><circle cx="224" cy="132" r="2.1" fill="#fff" opacity="0.53"/><circle cx="9" cy="720" r="1.9" fill="#fff" opacity="0.59"/><circle cx="80" cy="57" r="1.7" fill="#fff" opacity="0.64"/><circle cx="354" cy="477" r="3.0" fill="#fff" opacity="0.62"/><circle cx="130" cy="631" r="2.0" fill="#fff" opacity="0.34"/><circle cx="59" cy="394" r="1.2" fill="#fff" opacity="0.54"/><circle cx="10" cy="165" r="2.5" fill="#fff" opacity="0.49"/><circle cx="409" cy="20" r="1.0" fill="#fff" opacity="0.29"/><circle cx="492" cy="562" r="0.9" fill="#fff" opacity="0.61"/><circle cx="338" cy="449" r="1.2" fill="#fff" opacity="0.25"/><circle cx="138" cy="509" r="3.0" fill="#fff" opacity="0.43"/><circle cx="332" cy="250" r="2.1" fill="#fff" opacity="0.46"/><circle cx="14" cy="71" r="2.8" fill="#fff" opacity="0.66"/><circle cx="399" cy="106" r="2.9" fill="#fff" opacity="0.27"/><circle cx="252" cy="450" r="3.1" fill="#fff" opacity="0.51"/><circle cx="133" cy="26" r="2.1" fill="#fff" opacity="0.55"/><circle cx="441" cy="61" r="1.0" fill="#fff" opacity="0.67"/><circle cx="100" cy="181" r="2.4" fill="#fff" opacity="0.56"/><circle cx="397" cy="603" r="1.9" fill="#fff" opacity="0.30"/><circle cx="182" cy="170" r="2.9" fill="#fff" opacity="0.40"/><circle cx="18" cy="686" r="0.9" fill="#fff" opacity="0.49"/><circle cx="321" cy="257" r="1.6" fill="#fff" opacity="0.44"/><circle cx="363" cy="580" r="2.1" fill="#fff" opacity="0.39"/><circle cx="465" cy="197" r="2.0" fill="#fff" opacity="0.54"/></g>
  <path d="M70 600 C142 504 297 500 443 610" fill="#0b4f8f" opacity=".18"/><path d="M52 642 C146 578 341 580 471 650" fill="#6d4f3f" opacity=".16"/>
  <ellipse cx="256" cy="662" rx="150" ry="34" fill="#0b4f8f" opacity=".28"/>
  <g transform="translate(0 122)">
    <path d="M108.4 347.4 C161.7 224.4 292.9 175.20000000000002 389.25 253.1 C325.7 249 276.5 285.9 247.8 376.1" fill="#0b4f8f" opacity=".45"/><ellipse cx="256" cy="335.1" rx="110.69999999999999" ry="92.24999999999999" fill="url(#body)" filter="url(#softShadow)"/><path d="M167.85000000000002 253.1 L219.1 130.10000000000002 L249.85 244.9 Z" fill="#b78f68"/><path d="M344.15 253.1 L292.9 130.10000000000002 L262.15 244.9 Z" fill="#b78f68"/><ellipse cx="256" cy="267.45" rx="96.35" ry="86.1" fill="url(#head)"/><path d="M151.45 292.05 Q87.9 298.2 63.30000000000001 253.1" stroke="#9ee8ff" stroke-width="10.25" fill="none" stroke-linecap="round" opacity=".85"/><path d="M360.55 292.05 Q424.1 298.2 448.7 253.1" stroke="#9ee8ff" stroke-width="10.25" fill="none" stroke-linecap="round" opacity=".85"/><ellipse cx="223.2" cy="253.1" rx="14.349999999999998" ry="16.4" fill="#14213d"/><ellipse cx="288.8" cy="253.1" rx="14.349999999999998" ry="16.4" fill="#14213d"/><circle cx="229.35" cy="244.9" r="4.714999999999999" fill="#fff"/><circle cx="294.95" cy="244.9" r="4.714999999999999" fill="#fff"/><path d="M215 201.85000000000002 Q256 224.4 297 201.85000000000002" stroke="#9ee8ff" stroke-width="10.25" fill="none" stroke-linecap="round" opacity=".8"/>
  </g>
  <path d="M74 126 C170 65 334 65 438 126" stroke="#fff" stroke-width="16" stroke-linecap="round" opacity=".16"/>
  <path d="M63 676 C162 718 344 718 449 662" stroke="#fff" stroke-width="14" stroke-linecap="round" opacity=".16"/>
</svg>