<svg xmlns="http://www.w3.org/2000/svg" viewBox="0 0 512 768" role="img" aria-label="碧波蜥卫 original portrait">
  
  <defs>
    <linearGradient id="bgp729" x1="0" y1="0" x2="1" y2="1">
      <stop offset="0" stop-color="#9ee8ff"/>
      <stop offset=".55" stop-color="#2397d5"/>
      <stop offset="1" stop-color="#0b4f8f"/>
    </linearGradient>
    <radialGradient id="body" cx=".36" cy=".25" r=".76">
      <stop offset="0" stop-color="#9ee8ff"/>
      <stop offset=".6" stop-color="#2397d5"/>
      <stop offset="1" stop-color="#0b4f8f"/>
    </radialGradient>
    <radialGradient id="head" cx=".36" cy=".26" r=".72">
      <stop offset="0" stop-color="#ffffff" stop-opacity=".85"/>
      <stop offset=".2" stop-color="#9ee8ff"/>
      <stop offset=".72" stop-color="#2397d5"/>
      <stop offset="1" stop-color="#0b4f8f"/>
    </radialGradient>
    <filter id="softShadow" x="-30%" y="-30%" width="160%" height="160%">
      <feDropShadow dx="0" dy="8" stdDeviation="8" flood-color="#0b4f8f" flood-opacity=".35"/>
    </filter>
  </defs>
  <rect width="512" height="768" rx="48" fill="url(#bgp729)"/>
  <rect x="24" y="24" width="464" height="720" rx="40" fill="#ffffff" opacity=".08"/>
  <g opacity=".42"><circle cx="152" cy="740" r="1.5" fill="#fff" opacity="0.25"/><circle cx="493" cy="642" r="3.0" fill="#fff" opacity="0.27"/><circle cx="85" cy="410" r="1.6" fill="#fff" opacity="0.45"/><circle cx="45" cy="680" r="2.1" fill="#fff" opacity="0.51"/><circle cx="262" cy="275" r="2.6" fill="#fff" opacity="0.27"/><circle cx="269" cy="346" r="2.5" fill="#fff" opacity="0.47"/><circle cx="157" cy="708" r="3.0" fill="#fff" opacity="0.69"/><circle cx="160" cy="572" r="2.4" fill="#fff" opacity="0.67"/><circle cx="239" cy="218" r="1.8" fill="#fff" opacity="0.67"/><circle cx="170" cy="553" r="1.8" fill="#fff" opacity="0.41"/><circle cx="329" cy="65" r="1.5" fill="#fff" opacity="0.63"/><circle cx="414" cy="202" r="2.0" fill="#fff" opacity="0.64"/><circle cx="254" cy="624" r="2.0" fill="#fff" opacity="0.47"/><circle cx="111" cy="249" r="2.4" fill="#fff" opacity="0.33"/><circle cx="116" cy="504" r="2.4" fill="#fff" opacity="0.66"/><circle cx="60" cy="733" r="1.5" fill="#fff" opacity="0.38"/><circle cx="254" cy="736" r="2.0" fill="#fff" opacity="0.53"/><circle cx="348" cy="506" r="3.1" fill="#fff" opacity="0.46"/><circle cx="325" cy="391" r="2.9" fill="#fff" opacity="0.39"/><circle cx="141" cy="78" r="1.5" fill="#fff" opacity="0.32"/><circle cx="206" cy="526" r="2.4" fill="#fff" opacity="0.51"/><circle cx="193" cy="654" r="2.1" fill="#fff" opacity="0.52"/><circle cx="504" cy="214" r="1.1" fill="#fff" opacity="0.58"/><circle cx="171" cy="760" r="1.0" fill="#fff" opacity="0.41"/><circle cx="163" cy="10" r="1.9" fill="#fff" opacity="0.35"/><circle cx="53" cy="438" r="1.5" fill="#fff" opacity="0.47"/><circle cx="28" cy="297" r="1.1" fill="#fff" opacity="0.40"/><circle cx="345" cy="110" r="2.0" fill="#fff" opacity="0.66"/></g>
  <path d="M70 600 C142 504 297 500 443 610" fill="#0b4f8f" opacity=".18"/><path d="M52 642 C146 578 341 580 471 650" fill="#8e3b89" opacity=".16"/>
  <ellipse cx="256" cy="662" rx="150" ry="34" fill="#0b4f8f" opacity=".28"/>
  <g transform="translate(0 122)">
    <path d="M108.4 347.4 C161.7 224.4 292.9 175.20000000000002 389.25 253.1 C325.7 249 276.5 285.9 247.8 376.1" fill="#0b4f8f" opacity=".45"/><ellipse cx="256" cy="335.1" rx="110.69999999999999" ry="92.24999999999999" fill="url(#body)" filter="url(#softShadow)"/><path d="M167.85000000000002 253.1 L219.1 130.10000000000002 L249.85 244.9 Z" fill="#f47ac2"/><path d="M344.15 253.1 L292.9 130.10000000000002 L262.15 244.9 Z" fill="#f47ac2"/><ellipse cx="256" cy="267.45" rx="96.35" ry="86.1" fill="url(#head)"/><path d="M151.45 292.05 Q87.9 298.2 63.30000000000001 253.1" stroke="#9ee8ff" stroke-width="10.25" fill="none" stroke-linecap="round" opacity=".85"/><path d="M360.55 292.05 Q424.1 298.2 448.7 253.1" stroke="#9ee8ff" stroke-width="10.25" fill="none" stroke-linecap="round" opacity=".85"/><ellipse cx="223.2" cy="253.1" rx="14.349999999999998" ry="16.4" fill="#14213d"/><ellipse cx="288.8" cy="253.1" rx="14.349999999999998" ry="16.4" fill="#14213d"/><circle cx="229.35" cy="244.9" r="4.714999999999999" fill="#fff"/><circle cx="294.95" cy="244.9" r="4.714999999999999" fill="#fff"/><path d="M256 183.4 L278.55 212.10000000000002 L256 242.85 L233.45 212.10000000000002 Z" fill="#9ee8ff" opacity=".92"/>
  </g>
  <path d="M74 126 C170 65 334 65 438 126" stroke="#fff" stroke-width="16" stroke-linecap="round" opacity=".16"/>
  <path d="M63 676 C162 718 344 718 449 662" stroke="#fff" stroke-width="14" stroke-linecap="round" opacity=".16"/>
</svg>