<svg xmlns="http://www.w3.org/2000/svg" viewBox="0 0 512 768" role="img" aria-label="啄木哨兵 original portrait">
  
  <defs>
    <linearGradient id="bgp731" x1="0" y1="0" x2="1" y2="1">
      <stop offset="0" stop-color="#f4e8d8"/>
      <stop offset=".55" stop-color="#b78f68"/>
      <stop offset="1" stop-color="#6d4f3f"/>
    </linearGradient>
    <radialGradient id="body" cx=".36" cy=".25" r=".76">
      <stop offset="0" stop-color="#f4e8d8"/>
      <stop offset=".6" stop-color="#b78f68"/>
      <stop offset="1" stop-color="#6d4f3f"/>
    </radialGradient>
    <radialGradient id="head" cx=".36" cy=".26" r=".72">
      <stop offset="0" stop-color="#ffffff" stop-opacity=".85"/>
      <stop offset=".2" stop-color="#f4e8d8"/>
      <stop offset=".72" stop-color="#b78f68"/>
      <stop offset="1" stop-color="#6d4f3f"/>
    </radialGradient>
    <filter id="softShadow" x="-30%" y="-30%" width="160%" height="160%">
      <feDropShadow dx="0" dy="8" stdDeviation="8" flood-color="#6d4f3f" flood-opacity=".35"/>
    </filter>
  </defs>
  <rect width="512" height="768" rx="48" fill="url(#bgp731)"/>
  <rect x="24" y="24" width="464" height="720" rx="40" fill="#ffffff" opacity=".08"/>
  <g opacity=".42"><circle cx="114" cy="432" r="1.0" fill="#fff" opacity="0.45"/><circle cx="3" cy="705" r="1.0" fill="#fff" opacity="0.40"/><circle cx="110" cy="738" r="2.0" fill="#fff" opacity="0.68"/><circle cx="103" cy="503" r="3.1" fill="#fff" opacity="0.50"/><circle cx="196" cy="550" r="2.6" fill="#fff" opacity="0.57"/><circle cx="380" cy="431" r="1.3" fill="#fff" opacity="0.31"/><circle cx="271" cy="557" r="1.7" fill="#fff" opacity="0.69"/><circle cx="217" cy="541" r="2.1" fill="#fff" opacity="0.60"/><circle cx="184" cy="367" r="1.6" fill="#fff" opacity="0.64"/><circle cx="192" cy="310" r="1.5" fill="#fff" opacity="0.48"/><circle cx="408" cy="673" r="0.9" fill="#fff" opacity="0.68"/><circle cx="295" cy="704" r="2.8" fill="#fff" opacity="0.34"/><circle cx="389" cy="396" r="1.8" fill="#fff" opacity="0.29"/><circle cx="21" cy="267" r="2.3" fill="#fff" opacity="0.69"/><circle cx="60" cy="342" r="1.8" fill="#fff" opacity="0.49"/><circle cx="305" cy="50" r="2.8" fill="#fff" opacity="0.61"/><circle cx="103" cy="66" r="2.0" fill="#fff" opacity="0.30"/><circle cx="132" cy="638" r="1.5" fill="#fff" opacity="0.32"/><circle cx="356" cy="285" r="1.4" fill="#fff" opacity="0.36"/><circle cx="129" cy="519" r="1.4" fill="#fff" opacity="0.35"/><circle cx="406" cy="723" r="3.0" fill="#fff" opacity="0.56"/><circle cx="440" cy="178" r="1.7" fill="#fff" opacity="0.54"/><circle cx="466" cy="758" r="2.6" fill="#fff" opacity="0.29"/><circle cx="301" cy="494" r="1.2" fill="#fff" opacity="0.53"/><circle cx="67" cy="157" r="2.7" fill="#fff" opacity="0.30"/><circle cx="180" cy="114" r="2.3" fill="#fff" opacity="0.36"/><circle cx="411" cy="628" r="1.3" fill="#fff" opacity="0.65"/><circle cx="484" cy="75" r="1.6" fill="#fff" opacity="0.26"/></g>
  <path d="M18 704 C124 595 205 659 256 580 C314 666 392 596 494 704 V768 H18Z" fill="#4260ad" opacity=".18"/>
  <ellipse cx="256" cy="662" rx="150" ry="34" fill="#6d4f3f" opacity=".28"/>
  <g transform="translate(0 122)">
    <path d="M231.4 400.7 C128.9 376.1 83.80000000000001 265.4 198.60000000000002 275.65" fill="#82b7ff" opacity=".82"/><path d="M280.6 400.7 C383.1 376.1 428.2 265.4 313.4 275.65" fill="#82b7ff" opacity=".82"/><ellipse cx="256" cy="339.2" rx="98.39999999999999" ry="116.85" fill="url(#body)" filter="url(#softShadow)"/><path d="M256 138.3 C169.9 175.20000000000002 161.7 259.25 256 251.05 C350.3 259.25 342.1 175.20000000000002 256 138.3Z" fill="#f4e8d8"/><circle cx="256" cy="253.1" r="77.89999999999999" fill="url(#head)"/><ellipse cx="223.2" cy="253.1" rx="14.349999999999998" ry="16.4" fill="#14213d"/><ellipse cx="288.8" cy="253.1" rx="14.349999999999998" ry="16.4" fill="#14213d"/><circle cx="229.35" cy="244.9" r="4.714999999999999" fill="#fff"/><circle cx="294.95" cy="244.9" r="4.714999999999999" fill="#fff"/><circle cx="256" cy="210.05" r="14.349999999999998" fill="#f4e8d8" opacity=".9"/>
  </g>
  <path d="M74 126 C170 65 334 65 438 126" stroke="#fff" stroke-width="16" stroke-linecap="round" opacity=".16"/>
  <path d="M63 676 C162 718 344 718 449 662" stroke="#fff" stroke-width="14" stroke-linecap="round" opacity=".16"/>
</svg>