<svg xmlns="http://www.w3.org/2000/svg" viewBox="0 0 512 768" role="img" aria-label="密獴都督 original portrait">
  
  <defs>
    <linearGradient id="bgp735" x1="0" y1="0" x2="1" y2="1">
      <stop offset="0" stop-color="#f4e8d8"/>
      <stop offset=".55" stop-color="#b78f68"/>
      <stop offset="1" stop-color="#6d4f3f"/>
    </linearGradient>
    <radialGradient id="body" cx=".36" cy=".25" r=".76">
      <stop offset="0" stop-color="#f4e8d8"/>
      <stop offset=".6" stop-color="#b78f68"/>
      <stop offset="1" stop-color="#6d4f3f"/>
    </radialGradient>
    <radialGradient id="head" cx=".36" cy=".26" r=".72">
      <stop offset="0" stop-color="#ffffff" stop-opacity=".85"/>
      <stop offset=".2" stop-color="#f4e8d8"/>
      <stop offset=".72" stop-color="#b78f68"/>
      <stop offset="1" stop-color="#6d4f3f"/>
    </radialGradient>
    <filter id="softShadow" x="-30%" y="-30%" width="160%" height="160%">
      <feDropShadow dx="0" dy="8" stdDeviation="8" flood-color="#6d4f3f" flood-opacity=".35"/>
    </filter>
  </defs>
  <rect width="512" height="768" rx="48" fill="url(#bgp735)"/>
  <rect x="24" y="24" width="464" height="720" rx="40" fill="#ffffff" opacity=".08"/>
  <g opacity=".42"><circle cx="233" cy="202" r="1.6" fill="#fff" opacity="0.58"/><circle cx="209" cy="243" r="1.9" fill="#fff" opacity="0.26"/><circle cx="329" cy="715" r="2.1" fill="#fff" opacity="0.46"/><circle cx="317" cy="265" r="3.0" fill="#fff" opacity="0.47"/><circle cx="320" cy="244" r="2.9" fill="#fff" opacity="0.61"/><circle cx="388" cy="210" r="1.3" fill="#fff" opacity="0.52"/><circle cx="147" cy="437" r="1.2" fill="#fff" opacity="0.28"/><circle cx="127" cy="177" r="2.9" fill="#fff" opacity="0.57"/><circle cx="355" cy="155" r="1.6" fill="#fff" opacity="0.50"/><circle cx="420" cy="136" r="2.0" fill="#fff" opacity="0.36"/><circle cx="290" cy="269" r="2.7" fill="#fff" opacity="0.62"/><circle cx="18" cy="184" r="2.5" fill="#fff" opacity="0.50"/><circle cx="165" cy="169" r="2.3" fill="#fff" opacity="0.26"/><circle cx="51" cy="754" r="1.7" fill="#fff" opacity="0.42"/><circle cx="293" cy="181" r="3.0" fill="#fff" opacity="0.49"/><circle cx="417" cy="266" r="2.8" fill="#fff" opacity="0.26"/><circle cx="46" cy="58" r="2.6" fill="#fff" opacity="0.35"/><circle cx="2" cy="309" r="2.6" fill="#fff" opacity="0.28"/><circle cx="287" cy="2" r="2.2" fill="#fff" opacity="0.25"/><circle cx="310" cy="417" r="1.7" fill="#fff" opacity="0.57"/><circle cx="151" cy="615" r="2.6" fill="#fff" opacity="0.66"/><circle cx="23" cy="706" r="1.1" fill="#fff" opacity="0.47"/><circle cx="395" cy="587" r="2.2" fill="#fff" opacity="0.39"/><circle cx="58" cy="2" r="2.4" fill="#fff" opacity="0.63"/><circle cx="74" cy="235" r="2.6" fill="#fff" opacity="0.61"/><circle cx="479" cy="95" r="1.6" fill="#fff" opacity="0.68"/><circle cx="71" cy="690" r="1.4" fill="#fff" opacity="0.27"/><circle cx="479" cy="48" r="3.1" fill="#fff" opacity="0.57"/></g>
  <path d="M0 670 C96 613 167 665 256 620 C337 660 421 608 512 662 V768 H0Z" fill="#171728" opacity=".15"/>
  <ellipse cx="256" cy="662" rx="150" ry="34" fill="#6d4f3f" opacity=".28"/>
  <g transform="translate(0 122)">
    <path d="M159.65 347.4 C69.45000000000002 322.8 92 222.35000000000002 165.8 263.35" stroke="#4a4b68" stroke-width="28.699999999999996" fill="none" stroke-linecap="round" opacity=".76"/><ellipse cx="256" cy="353.55" rx="108.64999999999999" ry="102.49999999999999" fill="url(#body)" filter="url(#softShadow)"/><path d="M184.25 212.10000000000002 L137.10000000000002 115.75000000000003 L231.4 175.20000000000002 Z" fill="#4a4b68"/><path d="M327.75 212.10000000000002 L374.9 115.75000000000003 L280.6 175.20000000000002 Z" fill="#4a4b68"/><circle cx="256" cy="234.65" r="92.24999999999999" fill="url(#head)"/><ellipse cx="221.15" cy="251.05" rx="16.4" ry="20.5" fill="#182033"/><ellipse cx="290.85" cy="251.05" rx="16.4" ry="20.5" fill="#182033"/><ellipse cx="223.2" cy="253.1" rx="14.349999999999998" ry="16.4" fill="#14213d"/><ellipse cx="288.8" cy="253.1" rx="14.349999999999998" ry="16.4" fill="#14213d"/><circle cx="229.35" cy="244.9" r="4.714999999999999" fill="#fff"/><circle cx="294.95" cy="244.9" r="4.714999999999999" fill="#fff"/><path d="M256 183.4 L278.55 212.10000000000002 L256 242.85 L233.45 212.10000000000002 Z" fill="#f4e8d8" opacity=".92"/>
  </g>
  <path d="M74 126 C170 65 334 65 438 126" stroke="#fff" stroke-width="16" stroke-linecap="round" opacity=".16"/>
  <path d="M63 676 C162 718 344 718 449 662" stroke="#fff" stroke-width="14" stroke-linecap="round" opacity=".16"/>
</svg>