<svg xmlns="http://www.w3.org/2000/svg" viewBox="0 0 512 768" role="img" aria-label="雷戟天牛 original portrait">
  
  <defs>
    <linearGradient id="bgp738" x1="0" y1="0" x2="1" y2="1">
      <stop offset="0" stop-color="#d9f67f"/>
      <stop offset=".55" stop-color="#86bd2d"/>
      <stop offset="1" stop-color="#3f6c1b"/>
    </linearGradient>
    <radialGradient id="body" cx=".36" cy=".25" r=".76">
      <stop offset="0" stop-color="#d9f67f"/>
      <stop offset=".6" stop-color="#86bd2d"/>
      <stop offset="1" stop-color="#3f6c1b"/>
    </radialGradient>
    <radialGradient id="head" cx=".36" cy=".26" r=".72">
      <stop offset="0" stop-color="#ffffff" stop-opacity=".85"/>
      <stop offset=".2" stop-color="#d9f67f"/>
      <stop offset=".72" stop-color="#86bd2d"/>
      <stop offset="1" stop-color="#3f6c1b"/>
    </radialGradient>
    <filter id="softShadow" x="-30%" y="-30%" width="160%" height="160%">
      <feDropShadow dx="0" dy="8" stdDeviation="8" flood-color="#3f6c1b" flood-opacity=".35"/>
    </filter>
  </defs>
  <rect width="512" height="768" rx="48" fill="url(#bgp738)"/>
  <rect x="24" y="24" width="464" height="720" rx="40" fill="#ffffff" opacity=".08"/>
  <g opacity=".42"><circle cx="256" cy="138" r="2.3" fill="#fff" opacity="0.31"/><circle cx="53" cy="699" r="2.4" fill="#fff" opacity="0.55"/><circle cx="401" cy="10" r="2.3" fill="#fff" opacity="0.43"/><circle cx="370" cy="313" r="2.9" fill="#fff" opacity="0.51"/><circle cx="176" cy="128" r="0.8" fill="#fff" opacity="0.45"/><circle cx="23" cy="159" r="2.2" fill="#fff" opacity="0.51"/><circle cx="212" cy="548" r="3.2" fill="#fff" opacity="0.55"/><circle cx="356" cy="51" r="1.9" fill="#fff" opacity="0.50"/><circle cx="301" cy="543" r="1.6" fill="#fff" opacity="0.44"/><circle cx="495" cy="67" r="2.0" fill="#fff" opacity="0.52"/><circle cx="231" cy="116" r="2.9" fill="#fff" opacity="0.41"/><circle cx="372" cy="103" r="1.6" fill="#fff" opacity="0.56"/><circle cx="205" cy="255" r="1.3" fill="#fff" opacity="0.66"/><circle cx="134" cy="194" r="2.1" fill="#fff" opacity="0.44"/><circle cx="182" cy="166" r="2.3" fill="#fff" opacity="0.37"/><circle cx="449" cy="39" r="1.2" fill="#fff" opacity="0.55"/><circle cx="122" cy="187" r="2.8" fill="#fff" opacity="0.38"/><circle cx="131" cy="645" r="1.0" fill="#fff" opacity="0.61"/><circle cx="66" cy="276" r="3.1" fill="#fff" opacity="0.27"/><circle cx="146" cy="237" r="1.7" fill="#fff" opacity="0.46"/><circle cx="449" cy="551" r="2.2" fill="#fff" opacity="0.47"/><circle cx="55" cy="268" r="3.0" fill="#fff" opacity="0.63"/><circle cx="117" cy="597" r="1.9" fill="#fff" opacity="0.30"/><circle cx="92" cy="735" r="1.7" fill="#fff" opacity="0.28"/><circle cx="136" cy="365" r="2.2" fill="#fff" opacity="0.67"/><circle cx="493" cy="319" r="2.2" fill="#fff" opacity="0.59"/><circle cx="269" cy="492" r="1.9" fill="#fff" opacity="0.55"/><circle cx="468" cy="640" r="3.1" fill="#fff" opacity="0.51"/></g>
  <circle cx="256" cy="294" r="183" fill="#d9f67f" opacity=".12"/><circle cx="256" cy="294" r="141" fill="#fff" opacity=".1"/>
  <ellipse cx="256" cy="662" rx="150" ry="34" fill="#3f6c1b" opacity=".28"/>
  <g transform="translate(0 122)">
    <ellipse cx="256" cy="339.2" rx="100.44999999999999" ry="112.74999999999999" fill="url(#body)" filter="url(#softShadow)"/><circle cx="256" cy="226.45" r="79.94999999999999" fill="url(#head)"/><ellipse cx="256" cy="214.15" rx="139.39999999999998" ry="36.9" fill="none" stroke="#d9f67f" stroke-width="14.349999999999998" opacity=".75" transform="rotate(-12 256 214.15)"/><path d="M256 103.45000000000002 L276.5 154.70000000000002 L333.9 156.75 L286.75 187.5 L303.15 242.85 L256 208 L208.85 242.85 L225.25 187.5 L178.10000000000002 156.75 L235.5 154.70000000000002 Z" fill="#f9c80e"/><ellipse cx="223.2" cy="253.1" rx="14.349999999999998" ry="16.4" fill="#14213d"/><ellipse cx="288.8" cy="253.1" rx="14.349999999999998" ry="16.4" fill="#14213d"/><circle cx="229.35" cy="244.9" r="4.714999999999999" fill="#fff"/><circle cx="294.95" cy="244.9" r="4.714999999999999" fill="#fff"/><path d="M215 201.85000000000002 Q256 224.4 297 201.85000000000002" stroke="#d9f67f" stroke-width="10.25" fill="none" stroke-linecap="round" opacity=".8"/>
  </g>
  <path d="M74 126 C170 65 334 65 438 126" stroke="#fff" stroke-width="16" stroke-linecap="round" opacity=".16"/>
  <path d="M63 676 C162 718 344 718 449 662" stroke="#fff" stroke-width="14" stroke-linecap="round" opacity=".16"/>
</svg>