<svg xmlns="http://www.w3.org/2000/svg" viewBox="0 0 512 768" role="img" aria-label="水晶大岩蛇 original portrait">
  
  <defs>
    <linearGradient id="bgp74" x1="0" y1="0" x2="1" y2="1">
      <stop offset="0" stop-color="#d7fbff"/>
      <stop offset=".55" stop-color="#71d6e8"/>
      <stop offset="1" stop-color="#318aa3"/>
    </linearGradient>
    <radialGradient id="body" cx=".36" cy=".25" r=".76">
      <stop offset="0" stop-color="#d7fbff"/>
      <stop offset=".6" stop-color="#71d6e8"/>
      <stop offset="1" stop-color="#318aa3"/>
    </radialGradient>
    <radialGradient id="head" cx=".36" cy=".26" r=".72">
      <stop offset="0" stop-color="#ffffff" stop-opacity=".85"/>
      <stop offset=".2" stop-color="#d7fbff"/>
      <stop offset=".72" stop-color="#71d6e8"/>
      <stop offset="1" stop-color="#318aa3"/>
    </radialGradient>
    <filter id="softShadow" x="-30%" y="-30%" width="160%" height="160%">
      <feDropShadow dx="0" dy="8" stdDeviation="8" flood-color="#318aa3" flood-opacity=".35"/>
    </filter>
  </defs>
  <rect width="512" height="768" rx="48" fill="url(#bgp74)"/>
  <rect x="24" y="24" width="464" height="720" rx="40" fill="#ffffff" opacity=".08"/>
  <g opacity=".42"><circle cx="402" cy="55" r="2.5" fill="#fff" opacity="0.34"/><circle cx="97" cy="112" r="2.8" fill="#fff" opacity="0.55"/><circle cx="347" cy="190" r="3.2" fill="#fff" opacity="0.54"/><circle cx="58" cy="42" r="2.5" fill="#fff" opacity="0.46"/><circle cx="175" cy="705" r="2.6" fill="#fff" opacity="0.64"/><circle cx="148" cy="98" r="2.7" fill="#fff" opacity="0.29"/><circle cx="158" cy="64" r="2.7" fill="#fff" opacity="0.31"/><circle cx="468" cy="398" r="2.1" fill="#fff" opacity="0.32"/><circle cx="170" cy="27" r="2.1" fill="#fff" opacity="0.35"/><circle cx="306" cy="273" r="2.4" fill="#fff" opacity="0.57"/><circle cx="100" cy="551" r="2.6" fill="#fff" opacity="0.33"/><circle cx="16" cy="515" r="1.5" fill="#fff" opacity="0.46"/><circle cx="354" cy="290" r="1.3" fill="#fff" opacity="0.57"/><circle cx="76" cy="479" r="3.1" fill="#fff" opacity="0.36"/><circle cx="455" cy="387" r="2.3" fill="#fff" opacity="0.31"/><circle cx="98" cy="109" r="2.0" fill="#fff" opacity="0.64"/><circle cx="296" cy="30" r="2.3" fill="#fff" opacity="0.51"/><circle cx="63" cy="124" r="2.1" fill="#fff" opacity="0.26"/><circle cx="258" cy="125" r="2.6" fill="#fff" opacity="0.38"/><circle cx="225" cy="730" r="0.9" fill="#fff" opacity="0.56"/><circle cx="22" cy="458" r="1.1" fill="#fff" opacity="0.37"/><circle cx="499" cy="505" r="1.5" fill="#fff" opacity="0.46"/><circle cx="56" cy="372" r="1.5" fill="#fff" opacity="0.28"/><circle cx="321" cy="241" r="2.8" fill="#fff" opacity="0.32"/><circle cx="362" cy="710" r="1.6" fill="#fff" opacity="0.35"/><circle cx="388" cy="479" r="1.0" fill="#fff" opacity="0.66"/><circle cx="347" cy="440" r="1.3" fill="#fff" opacity="0.45"/><circle cx="294" cy="135" r="1.5" fill="#fff" opacity="0.49"/></g>
  <path d="M70 600 C142 504 297 500 443 610" fill="#318aa3" opacity=".18"/><path d="M52 642 C146 578 341 580 471 650" fill="#318aa3" opacity=".16"/>
  <ellipse cx="256" cy="662" rx="150" ry="34" fill="#318aa3" opacity=".28"/>
  <g transform="translate(0 122)">
    <path d="M108.4 347.4 C161.7 224.4 292.9 175.20000000000002 389.25 253.1 C325.7 249 276.5 285.9 247.8 376.1" fill="#318aa3" opacity=".45"/><ellipse cx="256" cy="335.1" rx="110.69999999999999" ry="92.24999999999999" fill="url(#body)" filter="url(#softShadow)"/><path d="M167.85000000000002 253.1 L219.1 130.10000000000002 L249.85 244.9 Z" fill="#71d6e8"/><path d="M344.15 253.1 L292.9 130.10000000000002 L262.15 244.9 Z" fill="#71d6e8"/><ellipse cx="256" cy="267.45" rx="96.35" ry="86.1" fill="url(#head)"/><path d="M151.45 292.05 Q87.9 298.2 63.30000000000001 253.1" stroke="#d7fbff" stroke-width="10.25" fill="none" stroke-linecap="round" opacity=".85"/><path d="M360.55 292.05 Q424.1 298.2 448.7 253.1" stroke="#d7fbff" stroke-width="10.25" fill="none" stroke-linecap="round" opacity=".85"/><ellipse cx="223.2" cy="253.1" rx="14.349999999999998" ry="16.4" fill="#14213d"/><ellipse cx="288.8" cy="253.1" rx="14.349999999999998" ry="16.4" fill="#14213d"/><circle cx="229.35" cy="244.9" r="4.714999999999999" fill="#fff"/><circle cx="294.95" cy="244.9" r="4.714999999999999" fill="#fff"/><circle cx="256" cy="210.05" r="14.349999999999998" fill="#d7fbff" opacity=".9"/>
  </g>
  <path d="M74 126 C170 65 334 65 438 126" stroke="#fff" stroke-width="16" stroke-linecap="round" opacity=".16"/>
  <path d="M63 676 C162 718 344 718 449 662" stroke="#fff" stroke-width="14" stroke-linecap="round" opacity=".16"/>
</svg>