<svg xmlns="http://www.w3.org/2000/svg" viewBox="0 0 512 768" role="img" aria-label="踏焰战兔 original portrait">
  
  <defs>
    <linearGradient id="bgp741" x1="0" y1="0" x2="1" y2="1">
      <stop offset="0" stop-color="#ffd166"/>
      <stop offset=".55" stop-color="#ff6b35"/>
      <stop offset="1" stop-color="#a92d1d"/>
    </linearGradient>
    <radialGradient id="body" cx=".36" cy=".25" r=".76">
      <stop offset="0" stop-color="#ffd166"/>
      <stop offset=".6" stop-color="#ff6b35"/>
      <stop offset="1" stop-color="#a92d1d"/>
    </radialGradient>
    <radialGradient id="head" cx=".36" cy=".26" r=".72">
      <stop offset="0" stop-color="#ffffff" stop-opacity=".85"/>
      <stop offset=".2" stop-color="#ffd166"/>
      <stop offset=".72" stop-color="#ff6b35"/>
      <stop offset="1" stop-color="#a92d1d"/>
    </radialGradient>
    <filter id="softShadow" x="-30%" y="-30%" width="160%" height="160%">
      <feDropShadow dx="0" dy="8" stdDeviation="8" flood-color="#a92d1d" flood-opacity=".35"/>
    </filter>
  </defs>
  <rect width="512" height="768" rx="48" fill="url(#bgp741)"/>
  <rect x="24" y="24" width="464" height="720" rx="40" fill="#ffffff" opacity=".08"/>
  <g opacity=".42"><circle cx="61" cy="263" r="1.5" fill="#fff" opacity="0.34"/><circle cx="409" cy="246" r="2.3" fill="#fff" opacity="0.47"/><circle cx="125" cy="349" r="3.1" fill="#fff" opacity="0.69"/><circle cx="212" cy="444" r="1.4" fill="#fff" opacity="0.38"/><circle cx="17" cy="392" r="3.0" fill="#fff" opacity="0.31"/><circle cx="247" cy="76" r="0.9" fill="#fff" opacity="0.43"/><circle cx="112" cy="399" r="3.2" fill="#fff" opacity="0.28"/><circle cx="193" cy="461" r="3.0" fill="#fff" opacity="0.35"/><circle cx="464" cy="252" r="2.7" fill="#fff" opacity="0.53"/><circle cx="387" cy="221" r="1.6" fill="#fff" opacity="0.29"/><circle cx="480" cy="720" r="2.3" fill="#fff" opacity="0.51"/><circle cx="90" cy="307" r="1.3" fill="#fff" opacity="0.33"/><circle cx="487" cy="480" r="1.9" fill="#fff" opacity="0.60"/><circle cx="286" cy="546" r="2.6" fill="#fff" opacity="0.43"/><circle cx="383" cy="208" r="2.3" fill="#fff" opacity="0.59"/><circle cx="272" cy="443" r="2.9" fill="#fff" opacity="0.57"/><circle cx="400" cy="348" r="2.8" fill="#fff" opacity="0.40"/><circle cx="135" cy="40" r="1.6" fill="#fff" opacity="0.54"/><circle cx="356" cy="507" r="1.0" fill="#fff" opacity="0.45"/><circle cx="473" cy="529" r="2.1" fill="#fff" opacity="0.30"/><circle cx="470" cy="565" r="1.2" fill="#fff" opacity="0.48"/><circle cx="42" cy="94" r="1.6" fill="#fff" opacity="0.49"/><circle cx="236" cy="645" r="2.9" fill="#fff" opacity="0.70"/><circle cx="64" cy="719" r="1.0" fill="#fff" opacity="0.69"/><circle cx="469" cy="638" r="1.5" fill="#fff" opacity="0.40"/><circle cx="48" cy="196" r="2.9" fill="#fff" opacity="0.28"/><circle cx="441" cy="692" r="1.4" fill="#fff" opacity="0.66"/><circle cx="234" cy="322" r="1.5" fill="#fff" opacity="0.57"/></g>
  <path d="M38 684 C128 596 386 596 475 684 V768 H38Z" fill="#a92d1d" opacity=".17"/>
  <ellipse cx="256" cy="662" rx="150" ry="34" fill="#a92d1d" opacity=".28"/>
  <g transform="translate(0 122)">
    <ellipse cx="256" cy="359.7" rx="110.69999999999999" ry="100.44999999999999" fill="url(#body)" filter="url(#softShadow)"/><circle cx="256" cy="232.60000000000002" r="86.1" fill="url(#head)"/><path d="M149.4 322.8 C51.00000000000003 304.35 85.85000000000002 423.25 165.8 402.75" fill="#4260ad"/><path d="M362.6 322.8 C461 304.35 426.15 423.25 346.2 402.75" fill="#4260ad"/><path d="M200.65 148.55 H311.35 L331.85 195.7 Q256 224.4 180.15 195.7 Z" fill="#ffd166" opacity=".85"/><ellipse cx="223.2" cy="253.1" rx="14.349999999999998" ry="16.4" fill="#14213d"/><ellipse cx="288.8" cy="253.1" rx="14.349999999999998" ry="16.4" fill="#14213d"/><circle cx="229.35" cy="244.9" r="4.714999999999999" fill="#fff"/><circle cx="294.95" cy="244.9" r="4.714999999999999" fill="#fff"/><path d="M215 201.85000000000002 Q256 224.4 297 201.85000000000002" stroke="#ffd166" stroke-width="10.25" fill="none" stroke-linecap="round" opacity=".8"/>
  </g>
  <path d="M74 126 C170 65 334 65 438 126" stroke="#fff" stroke-width="16" stroke-linecap="round" opacity=".16"/>
  <path d="M63 676 C162 718 344 718 449 662" stroke="#fff" stroke-width="14" stroke-linecap="round" opacity=".16"/>
</svg>