<svg xmlns="http://www.w3.org/2000/svg" viewBox="0 0 512 768" role="img" aria-label="雷棘海胆 original portrait">
  
  <defs>
    <linearGradient id="bgp748" x1="0" y1="0" x2="1" y2="1">
      <stop offset="0" stop-color="#efb2ff"/>
      <stop offset=".55" stop-color="#9b5de5"/>
      <stop offset="1" stop-color="#4f2378"/>
    </linearGradient>
    <radialGradient id="body" cx=".36" cy=".25" r=".76">
      <stop offset="0" stop-color="#efb2ff"/>
      <stop offset=".6" stop-color="#9b5de5"/>
      <stop offset="1" stop-color="#4f2378"/>
    </radialGradient>
    <radialGradient id="head" cx=".36" cy=".26" r=".72">
      <stop offset="0" stop-color="#ffffff" stop-opacity=".85"/>
      <stop offset=".2" stop-color="#efb2ff"/>
      <stop offset=".72" stop-color="#9b5de5"/>
      <stop offset="1" stop-color="#4f2378"/>
    </radialGradient>
    <filter id="softShadow" x="-30%" y="-30%" width="160%" height="160%">
      <feDropShadow dx="0" dy="8" stdDeviation="8" flood-color="#4f2378" flood-opacity=".35"/>
    </filter>
  </defs>
  <rect width="512" height="768" rx="48" fill="url(#bgp748)"/>
  <rect x="24" y="24" width="464" height="720" rx="40" fill="#ffffff" opacity=".08"/>
  <g opacity=".42"><circle cx="454" cy="412" r="3.1" fill="#fff" opacity="0.33"/><circle cx="404" cy="517" r="1.7" fill="#fff" opacity="0.56"/><circle cx="307" cy="129" r="2.1" fill="#fff" opacity="0.64"/><circle cx="260" cy="733" r="1.9" fill="#fff" opacity="0.28"/><circle cx="127" cy="553" r="1.9" fill="#fff" opacity="0.54"/><circle cx="310" cy="357" r="1.4" fill="#fff" opacity="0.30"/><circle cx="449" cy="200" r="2.0" fill="#fff" opacity="0.34"/><circle cx="154" cy="324" r="2.8" fill="#fff" opacity="0.28"/><circle cx="312" cy="118" r="1.9" fill="#fff" opacity="0.67"/><circle cx="343" cy="728" r="2.1" fill="#fff" opacity="0.37"/><circle cx="497" cy="352" r="0.9" fill="#fff" opacity="0.37"/><circle cx="246" cy="371" r="1.2" fill="#fff" opacity="0.53"/><circle cx="294" cy="423" r="1.5" fill="#fff" opacity="0.38"/><circle cx="125" cy="18" r="2.2" fill="#fff" opacity="0.44"/><circle cx="175" cy="355" r="1.0" fill="#fff" opacity="0.40"/><circle cx="158" cy="135" r="2.9" fill="#fff" opacity="0.49"/><circle cx="390" cy="580" r="1.5" fill="#fff" opacity="0.37"/><circle cx="186" cy="655" r="2.9" fill="#fff" opacity="0.34"/><circle cx="9" cy="56" r="3.1" fill="#fff" opacity="0.46"/><circle cx="200" cy="124" r="2.6" fill="#fff" opacity="0.36"/><circle cx="141" cy="706" r="2.8" fill="#fff" opacity="0.68"/><circle cx="490" cy="319" r="2.1" fill="#fff" opacity="0.64"/><circle cx="65" cy="240" r="1.0" fill="#fff" opacity="0.32"/><circle cx="213" cy="530" r="2.6" fill="#fff" opacity="0.61"/><circle cx="46" cy="513" r="1.6" fill="#fff" opacity="0.35"/><circle cx="279" cy="26" r="3.0" fill="#fff" opacity="0.49"/><circle cx="491" cy="14" r="3.1" fill="#fff" opacity="0.68"/><circle cx="476" cy="392" r="2.2" fill="#fff" opacity="0.65"/></g>
  <path d="M0 585 C86 541 164 618 248 574 C338 526 407 595 512 548 V768 H0Z" fill="#2397d5" opacity=".2"/><path d="M0 650 C105 610 180 690 282 638 C370 594 426 650 512 618 V768 H0Z" fill="#efb2ff" opacity=".18"/>
  <ellipse cx="256" cy="662" rx="150" ry="34" fill="#4f2378" opacity=".28"/>
  <g transform="translate(0 122)">
    <path d="M110.45000000000002 326.9 L40.75000000000003 240.8 L44.85000000000002 413 Z" fill="#2397d5" opacity=".86"/><ellipse cx="247.8" cy="322.8" rx="139.39999999999998" ry="88.14999999999999" fill="url(#body)" filter="url(#softShadow)"/><path d="M243.7 242.85 C288.8 136.25 358.5 173.15 342.1 263.35" fill="#2397d5" opacity=".72"/><path d="M301.1 384.3 C338 458.1 411.79999999999995 413 362.6 359.7" fill="#efb2ff" opacity=".8"/><circle cx="329.8" cy="292.05" r="14.349999999999998" fill="#101828"/><circle cx="335.95" cy="285.9" r="4.714999999999999" fill="#fff"/><path d="M256 183.4 L278.55 212.10000000000002 L256 242.85 L233.45 212.10000000000002 Z" fill="#efb2ff" opacity=".92"/>
  </g>
  <path d="M74 126 C170 65 334 65 438 126" stroke="#fff" stroke-width="16" stroke-linecap="round" opacity=".16"/>
  <path d="M63 676 C162 718 344 718 449 662" stroke="#fff" stroke-width="14" stroke-linecap="round" opacity=".16"/>
</svg>