<svg xmlns="http://www.w3.org/2000/svg" viewBox="0 0 512 768" role="img" aria-label="泥驹传骑 original portrait">
  
  <defs>
    <linearGradient id="bgp749" x1="0" y1="0" x2="1" y2="1">
      <stop offset="0" stop-color="#e9c68f"/>
      <stop offset=".55" stop-color="#a0713d"/>
      <stop offset="1" stop-color="#5a3b22"/>
    </linearGradient>
    <radialGradient id="body" cx=".36" cy=".25" r=".76">
      <stop offset="0" stop-color="#e9c68f"/>
      <stop offset=".6" stop-color="#a0713d"/>
      <stop offset="1" stop-color="#5a3b22"/>
    </radialGradient>
    <radialGradient id="head" cx=".36" cy=".26" r=".72">
      <stop offset="0" stop-color="#ffffff" stop-opacity=".85"/>
      <stop offset=".2" stop-color="#e9c68f"/>
      <stop offset=".72" stop-color="#a0713d"/>
      <stop offset="1" stop-color="#5a3b22"/>
    </radialGradient>
    <filter id="softShadow" x="-30%" y="-30%" width="160%" height="160%">
      <feDropShadow dx="0" dy="8" stdDeviation="8" flood-color="#5a3b22" flood-opacity=".35"/>
    </filter>
  </defs>
  <rect width="512" height="768" rx="48" fill="url(#bgp749)"/>
  <rect x="24" y="24" width="464" height="720" rx="40" fill="#ffffff" opacity=".08"/>
  <g opacity=".42"><circle cx="493" cy="528" r="1.4" fill="#fff" opacity="0.32"/><circle cx="279" cy="288" r="1.3" fill="#fff" opacity="0.43"/><circle cx="182" cy="94" r="2.3" fill="#fff" opacity="0.52"/><circle cx="208" cy="457" r="2.6" fill="#fff" opacity="0.30"/><circle cx="217" cy="294" r="1.4" fill="#fff" opacity="0.43"/><circle cx="101" cy="676" r="2.3" fill="#fff" opacity="0.70"/><circle cx="167" cy="469" r="1.5" fill="#fff" opacity="0.56"/><circle cx="138" cy="283" r="1.5" fill="#fff" opacity="0.61"/><circle cx="374" cy="597" r="1.5" fill="#fff" opacity="0.25"/><circle cx="476" cy="179" r="1.8" fill="#fff" opacity="0.50"/><circle cx="55" cy="223" r="2.1" fill="#fff" opacity="0.27"/><circle cx="469" cy="744" r="2.7" fill="#fff" opacity="0.49"/><circle cx="386" cy="375" r="2.2" fill="#fff" opacity="0.47"/><circle cx="123" cy="139" r="1.0" fill="#fff" opacity="0.51"/><circle cx="121" cy="105" r="2.8" fill="#fff" opacity="0.25"/><circle cx="454" cy="87" r="1.8" fill="#fff" opacity="0.60"/><circle cx="96" cy="746" r="0.8" fill="#fff" opacity="0.41"/><circle cx="139" cy="138" r="0.9" fill="#fff" opacity="0.63"/><circle cx="481" cy="301" r="3.0" fill="#fff" opacity="0.51"/><circle cx="422" cy="87" r="1.5" fill="#fff" opacity="0.53"/><circle cx="412" cy="151" r="1.9" fill="#fff" opacity="0.26"/><circle cx="308" cy="482" r="2.2" fill="#fff" opacity="0.54"/><circle cx="81" cy="302" r="1.3" fill="#fff" opacity="0.64"/><circle cx="17" cy="547" r="1.3" fill="#fff" opacity="0.64"/><circle cx="333" cy="630" r="0.9" fill="#fff" opacity="0.54"/><circle cx="14" cy="302" r="1.2" fill="#fff" opacity="0.44"/><circle cx="359" cy="724" r="1.6" fill="#fff" opacity="0.53"/><circle cx="385" cy="715" r="1.7" fill="#fff" opacity="0.57"/></g>
  <path d="M24 680 L110 610 L186 666 L272 592 L356 674 L445 626 L512 704 V768 H0V704Z" fill="#5a3b22" opacity=".18"/>
  <ellipse cx="256" cy="662" rx="150" ry="34" fill="#5a3b22" opacity=".28"/>
  <g transform="translate(0 122)">
    <path d="M149.4 228.5 L219.1 156.75 H311.35 L376.95 242.85 L346.2 394.55 H163.75 Z" fill="url(#body)" filter="url(#softShadow)"/><path d="M198.60000000000002 179.3 L245.75 91.15 L280.6 171.10000000000002 Z" fill="#e9c68f"/><path d="M290.85 183.4 L344.15 113.70000000000002 L342.1 210.05 Z" fill="#b78f68"/><rect x="194.5" y="277.7" width="122.99999999999999" height="30.749999999999996" rx="14.349999999999998" fill="#5a3b22" opacity=".38"/><circle cx="227.3" cy="292.05" r="10.25" fill="#e9c68f"/><circle cx="284.7" cy="292.05" r="10.25" fill="#e9c68f"/><path d="M215 201.85000000000002 Q256 224.4 297 201.85000000000002" stroke="#e9c68f" stroke-width="10.25" fill="none" stroke-linecap="round" opacity=".8"/>
  </g>
  <path d="M74 126 C170 65 334 65 438 126" stroke="#fff" stroke-width="16" stroke-linecap="round" opacity=".16"/>
  <path d="M63 676 C162 718 344 718 449 662" stroke="#fff" stroke-width="14" stroke-linecap="round" opacity=".16"/>
</svg>