<svg xmlns="http://www.w3.org/2000/svg" viewBox="0 0 512 768" role="img" aria-label="沼泽怪 original portrait">
  
  <defs>
    <linearGradient id="bgp75" x1="0" y1="0" x2="1" y2="1">
      <stop offset="0" stop-color="#e9c68f"/>
      <stop offset=".55" stop-color="#a0713d"/>
      <stop offset="1" stop-color="#5a3b22"/>
    </linearGradient>
    <radialGradient id="body" cx=".36" cy=".25" r=".76">
      <stop offset="0" stop-color="#e9c68f"/>
      <stop offset=".6" stop-color="#a0713d"/>
      <stop offset="1" stop-color="#5a3b22"/>
    </radialGradient>
    <radialGradient id="head" cx=".36" cy=".26" r=".72">
      <stop offset="0" stop-color="#ffffff" stop-opacity=".85"/>
      <stop offset=".2" stop-color="#e9c68f"/>
      <stop offset=".72" stop-color="#a0713d"/>
      <stop offset="1" stop-color="#5a3b22"/>
    </radialGradient>
    <filter id="softShadow" x="-30%" y="-30%" width="160%" height="160%">
      <feDropShadow dx="0" dy="8" stdDeviation="8" flood-color="#5a3b22" flood-opacity=".35"/>
    </filter>
  </defs>
  <rect width="512" height="768" rx="48" fill="url(#bgp75)"/>
  <rect x="24" y="24" width="464" height="720" rx="40" fill="#ffffff" opacity=".08"/>
  <g opacity=".42"><circle cx="283" cy="96" r="1.4" fill="#fff" opacity="0.41"/><circle cx="241" cy="367" r="2.6" fill="#fff" opacity="0.68"/><circle cx="337" cy="146" r="2.8" fill="#fff" opacity="0.28"/><circle cx="392" cy="381" r="1.3" fill="#fff" opacity="0.57"/><circle cx="252" cy="128" r="1.4" fill="#fff" opacity="0.34"/><circle cx="254" cy="580" r="2.0" fill="#fff" opacity="0.40"/><circle cx="258" cy="583" r="1.2" fill="#fff" opacity="0.48"/><circle cx="63" cy="638" r="1.0" fill="#fff" opacity="0.45"/><circle cx="194" cy="456" r="2.9" fill="#fff" opacity="0.64"/><circle cx="140" cy="613" r="2.5" fill="#fff" opacity="0.34"/><circle cx="0" cy="413" r="1.3" fill="#fff" opacity="0.67"/><circle cx="183" cy="157" r="1.6" fill="#fff" opacity="0.42"/><circle cx="239" cy="76" r="2.3" fill="#fff" opacity="0.61"/><circle cx="314" cy="277" r="1.9" fill="#fff" opacity="0.39"/><circle cx="408" cy="600" r="2.4" fill="#fff" opacity="0.64"/><circle cx="143" cy="102" r="1.6" fill="#fff" opacity="0.65"/><circle cx="3" cy="388" r="1.6" fill="#fff" opacity="0.28"/><circle cx="166" cy="480" r="1.0" fill="#fff" opacity="0.59"/><circle cx="427" cy="348" r="1.0" fill="#fff" opacity="0.48"/><circle cx="438" cy="660" r="2.7" fill="#fff" opacity="0.30"/><circle cx="367" cy="377" r="2.6" fill="#fff" opacity="0.65"/><circle cx="32" cy="518" r="1.4" fill="#fff" opacity="0.67"/><circle cx="280" cy="555" r="1.2" fill="#fff" opacity="0.38"/><circle cx="463" cy="608" r="3.2" fill="#fff" opacity="0.43"/><circle cx="151" cy="158" r="2.2" fill="#fff" opacity="0.61"/><circle cx="57" cy="148" r="3.1" fill="#fff" opacity="0.63"/><circle cx="66" cy="102" r="2.0" fill="#fff" opacity="0.51"/><circle cx="420" cy="758" r="1.4" fill="#fff" opacity="0.40"/></g>
  <path d="M24 680 L110 610 L186 666 L272 592 L356 674 L445 626 L512 704 V768 H0V704Z" fill="#5a3b22" opacity=".18"/>
  <ellipse cx="256" cy="662" rx="150" ry="34" fill="#5a3b22" opacity=".28"/>
  <g transform="translate(0 122)">
    <path d="M149.4 228.5 L219.1 156.75 H311.35 L376.95 242.85 L346.2 394.55 H163.75 Z" fill="url(#body)" filter="url(#softShadow)"/><path d="M198.60000000000002 179.3 L245.75 91.15 L280.6 171.10000000000002 Z" fill="#e9c68f"/><path d="M290.85 183.4 L344.15 113.70000000000002 L342.1 210.05 Z" fill="#a0713d"/><rect x="194.5" y="277.7" width="122.99999999999999" height="30.749999999999996" rx="14.349999999999998" fill="#5a3b22" opacity=".38"/><circle cx="227.3" cy="292.05" r="10.25" fill="#e9c68f"/><circle cx="284.7" cy="292.05" r="10.25" fill="#e9c68f"/><circle cx="256" cy="210.05" r="14.349999999999998" fill="#e9c68f" opacity=".9"/>
  </g>
  <path d="M74 126 C170 65 334 65 438 126" stroke="#fff" stroke-width="16" stroke-linecap="round" opacity=".16"/>
  <path d="M63 676 C162 718 344 718 449 662" stroke="#fff" stroke-width="14" stroke-linecap="round" opacity=".16"/>
</svg>