<svg xmlns="http://www.w3.org/2000/svg" viewBox="0 0 512 768" role="img" aria-label="草刃螳卒 original portrait">
  
  <defs>
    <linearGradient id="bgp753" x1="0" y1="0" x2="1" y2="1">
      <stop offset="0" stop-color="#c7f7a4"/>
      <stop offset=".55" stop-color="#43b957"/>
      <stop offset="1" stop-color="#1f6f43"/>
    </linearGradient>
    <radialGradient id="body" cx=".36" cy=".25" r=".76">
      <stop offset="0" stop-color="#c7f7a4"/>
      <stop offset=".6" stop-color="#43b957"/>
      <stop offset="1" stop-color="#1f6f43"/>
    </radialGradient>
    <radialGradient id="head" cx=".36" cy=".26" r=".72">
      <stop offset="0" stop-color="#ffffff" stop-opacity=".85"/>
      <stop offset=".2" stop-color="#c7f7a4"/>
      <stop offset=".72" stop-color="#43b957"/>
      <stop offset="1" stop-color="#1f6f43"/>
    </radialGradient>
    <filter id="softShadow" x="-30%" y="-30%" width="160%" height="160%">
      <feDropShadow dx="0" dy="8" stdDeviation="8" flood-color="#1f6f43" flood-opacity=".35"/>
    </filter>
  </defs>
  <rect width="512" height="768" rx="48" fill="url(#bgp753)"/>
  <rect x="24" y="24" width="464" height="720" rx="40" fill="#ffffff" opacity=".08"/>
  <g opacity=".42"><circle cx="185" cy="297" r="1.9" fill="#fff" opacity="0.39"/><circle cx="499" cy="165" r="2.6" fill="#fff" opacity="0.66"/><circle cx="47" cy="627" r="2.2" fill="#fff" opacity="0.40"/><circle cx="166" cy="557" r="2.7" fill="#fff" opacity="0.54"/><circle cx="367" cy="551" r="3.1" fill="#fff" opacity="0.48"/><circle cx="428" cy="695" r="3.1" fill="#fff" opacity="0.26"/><circle cx="309" cy="562" r="0.9" fill="#fff" opacity="0.63"/><circle cx="297" cy="441" r="1.9" fill="#fff" opacity="0.35"/><circle cx="390" cy="121" r="2.7" fill="#fff" opacity="0.46"/><circle cx="233" cy="546" r="1.6" fill="#fff" opacity="0.37"/><circle cx="206" cy="325" r="3.0" fill="#fff" opacity="0.52"/><circle cx="146" cy="418" r="2.3" fill="#fff" opacity="0.33"/><circle cx="279" cy="53" r="1.9" fill="#fff" opacity="0.42"/><circle cx="149" cy="636" r="2.3" fill="#fff" opacity="0.28"/><circle cx="348" cy="522" r="1.5" fill="#fff" opacity="0.26"/><circle cx="446" cy="749" r="3.1" fill="#fff" opacity="0.29"/><circle cx="373" cy="256" r="3.0" fill="#fff" opacity="0.36"/><circle cx="423" cy="404" r="2.3" fill="#fff" opacity="0.27"/><circle cx="268" cy="254" r="0.8" fill="#fff" opacity="0.29"/><circle cx="438" cy="430" r="1.2" fill="#fff" opacity="0.39"/><circle cx="495" cy="749" r="3.1" fill="#fff" opacity="0.42"/><circle cx="230" cy="139" r="1.3" fill="#fff" opacity="0.27"/><circle cx="203" cy="605" r="2.9" fill="#fff" opacity="0.47"/><circle cx="508" cy="104" r="0.8" fill="#fff" opacity="0.47"/><circle cx="301" cy="339" r="1.5" fill="#fff" opacity="0.25"/><circle cx="398" cy="111" r="2.3" fill="#fff" opacity="0.43"/><circle cx="376" cy="31" r="1.1" fill="#fff" opacity="0.50"/><circle cx="81" cy="629" r="1.9" fill="#fff" opacity="0.38"/></g>
  <path d="M69 625 C150 571 359 568 443 628" fill="#86bd2d" opacity=".14"/>
  <ellipse cx="256" cy="662" rx="150" ry="34" fill="#1f6f43" opacity=".28"/>
  <g transform="translate(0 122)">
    <ellipse cx="178.10000000000002" cy="257.2" rx="69.69999999999999" ry="100.44999999999999" fill="#c7f7a4" opacity=".55"/><ellipse cx="333.9" cy="257.2" rx="69.69999999999999" ry="100.44999999999999" fill="#c7f7a4" opacity=".55"/><ellipse cx="256" cy="331" rx="65.6" ry="122.99999999999999" fill="url(#body)" filter="url(#softShadow)"/><circle cx="256" cy="214.15" r="69.69999999999999" fill="url(#head)"/><path d="M219.1 160.85000000000002 Q174 93.20000000000002 118.65 117.80000000000001" stroke="#3f6c1b" stroke-width="10.25" fill="none" stroke-linecap="round"/><path d="M292.9 160.85000000000002 Q338 93.20000000000002 393.35 117.80000000000001" stroke="#3f6c1b" stroke-width="10.25" fill="none" stroke-linecap="round"/><path d="M198.60000000000002 322.8 H313.4 M206.8 376.1 H305.2" stroke="#1f6f43" stroke-width="8.2" opacity=".35"/><ellipse cx="223.2" cy="253.1" rx="14.349999999999998" ry="16.4" fill="#14213d"/><ellipse cx="288.8" cy="253.1" rx="14.349999999999998" ry="16.4" fill="#14213d"/><circle cx="229.35" cy="244.9" r="4.714999999999999" fill="#fff"/><circle cx="294.95" cy="244.9" r="4.714999999999999" fill="#fff"/><circle cx="256" cy="210.05" r="14.349999999999998" fill="#c7f7a4" opacity=".9"/>
  </g>
  <path d="M74 126 C170 65 334 65 438 126" stroke="#fff" stroke-width="16" stroke-linecap="round" opacity=".16"/>
  <path d="M63 676 C162 718 344 718 449 662" stroke="#fff" stroke-width="14" stroke-linecap="round" opacity=".16"/>
</svg>