<svg xmlns="http://www.w3.org/2000/svg" viewBox="0 0 512 768" role="img" aria-label="花刃螳将 original portrait">
  
  <defs>
    <linearGradient id="bgp754" x1="0" y1="0" x2="1" y2="1">
      <stop offset="0" stop-color="#c7f7a4"/>
      <stop offset=".55" stop-color="#43b957"/>
      <stop offset="1" stop-color="#1f6f43"/>
    </linearGradient>
    <radialGradient id="body" cx=".36" cy=".25" r=".76">
      <stop offset="0" stop-color="#c7f7a4"/>
      <stop offset=".6" stop-color="#43b957"/>
      <stop offset="1" stop-color="#1f6f43"/>
    </radialGradient>
    <radialGradient id="head" cx=".36" cy=".26" r=".72">
      <stop offset="0" stop-color="#ffffff" stop-opacity=".85"/>
      <stop offset=".2" stop-color="#c7f7a4"/>
      <stop offset=".72" stop-color="#43b957"/>
      <stop offset="1" stop-color="#1f6f43"/>
    </radialGradient>
    <filter id="softShadow" x="-30%" y="-30%" width="160%" height="160%">
      <feDropShadow dx="0" dy="8" stdDeviation="8" flood-color="#1f6f43" flood-opacity=".35"/>
    </filter>
  </defs>
  <rect width="512" height="768" rx="48" fill="url(#bgp754)"/>
  <rect x="24" y="24" width="464" height="720" rx="40" fill="#ffffff" opacity=".08"/>
  <g opacity=".42"><circle cx="131" cy="701" r="1.0" fill="#fff" opacity="0.42"/><circle cx="486" cy="303" r="2.3" fill="#fff" opacity="0.29"/><circle cx="286" cy="161" r="2.3" fill="#fff" opacity="0.42"/><circle cx="163" cy="449" r="2.1" fill="#fff" opacity="0.46"/><circle cx="227" cy="492" r="1.0" fill="#fff" opacity="0.64"/><circle cx="381" cy="620" r="3.1" fill="#fff" opacity="0.44"/><circle cx="465" cy="117" r="2.8" fill="#fff" opacity="0.65"/><circle cx="283" cy="536" r="2.6" fill="#fff" opacity="0.27"/><circle cx="70" cy="504" r="3.1" fill="#fff" opacity="0.51"/><circle cx="20" cy="237" r="2.9" fill="#fff" opacity="0.41"/><circle cx="365" cy="222" r="1.8" fill="#fff" opacity="0.62"/><circle cx="13" cy="358" r="2.9" fill="#fff" opacity="0.33"/><circle cx="356" cy="36" r="2.4" fill="#fff" opacity="0.65"/><circle cx="326" cy="704" r="1.9" fill="#fff" opacity="0.69"/><circle cx="402" cy="66" r="2.9" fill="#fff" opacity="0.68"/><circle cx="129" cy="209" r="1.6" fill="#fff" opacity="0.47"/><circle cx="295" cy="162" r="0.9" fill="#fff" opacity="0.36"/><circle cx="497" cy="234" r="3.1" fill="#fff" opacity="0.32"/><circle cx="491" cy="632" r="2.9" fill="#fff" opacity="0.66"/><circle cx="275" cy="316" r="3.0" fill="#fff" opacity="0.55"/><circle cx="303" cy="509" r="2.3" fill="#fff" opacity="0.69"/><circle cx="195" cy="418" r="3.2" fill="#fff" opacity="0.40"/><circle cx="289" cy="725" r="1.9" fill="#fff" opacity="0.33"/><circle cx="67" cy="58" r="3.0" fill="#fff" opacity="0.30"/><circle cx="344" cy="689" r="3.0" fill="#fff" opacity="0.62"/><circle cx="110" cy="268" r="2.3" fill="#fff" opacity="0.38"/><circle cx="366" cy="347" r="2.8" fill="#fff" opacity="0.40"/><circle cx="235" cy="170" r="3.0" fill="#fff" opacity="0.41"/></g>
  <path d="M69 625 C150 571 359 568 443 628" fill="#d95f3d" opacity=".14"/>
  <ellipse cx="256" cy="662" rx="150" ry="34" fill="#1f6f43" opacity=".28"/>
  <g transform="translate(0 122)">
    <ellipse cx="178.10000000000002" cy="257.2" rx="69.69999999999999" ry="100.44999999999999" fill="#c7f7a4" opacity=".55"/><ellipse cx="333.9" cy="257.2" rx="69.69999999999999" ry="100.44999999999999" fill="#c7f7a4" opacity=".55"/><ellipse cx="256" cy="331" rx="65.6" ry="122.99999999999999" fill="url(#body)" filter="url(#softShadow)"/><circle cx="256" cy="214.15" r="69.69999999999999" fill="url(#head)"/><path d="M219.1 160.85000000000002 Q174 93.20000000000002 118.65 117.80000000000001" stroke="#7a271d" stroke-width="10.25" fill="none" stroke-linecap="round"/><path d="M292.9 160.85000000000002 Q338 93.20000000000002 393.35 117.80000000000001" stroke="#7a271d" stroke-width="10.25" fill="none" stroke-linecap="round"/><path d="M198.60000000000002 322.8 H313.4 M206.8 376.1 H305.2" stroke="#1f6f43" stroke-width="8.2" opacity=".35"/><ellipse cx="223.2" cy="253.1" rx="14.349999999999998" ry="16.4" fill="#14213d"/><ellipse cx="288.8" cy="253.1" rx="14.349999999999998" ry="16.4" fill="#14213d"/><circle cx="229.35" cy="244.9" r="4.714999999999999" fill="#fff"/><circle cx="294.95" cy="244.9" r="4.714999999999999" fill="#fff"/><circle cx="256" cy="210.05" r="14.349999999999998" fill="#c7f7a4" opacity=".9"/>
  </g>
  <path d="M74 126 C170 65 334 65 438 126" stroke="#fff" stroke-width="16" stroke-linecap="round" opacity=".16"/>
  <path d="M63 676 C162 718 344 718 449 662" stroke="#fff" stroke-width="14" stroke-linecap="round" opacity=".16"/>
</svg>