<svg xmlns="http://www.w3.org/2000/svg" viewBox="0 0 512 768" role="img" aria-label="焰蜈幼卒 original portrait">
  
  <defs>
    <linearGradient id="bgp757" x1="0" y1="0" x2="1" y2="1">
      <stop offset="0" stop-color="#efb2ff"/>
      <stop offset=".55" stop-color="#9b5de5"/>
      <stop offset="1" stop-color="#4f2378"/>
    </linearGradient>
    <radialGradient id="body" cx=".36" cy=".25" r=".76">
      <stop offset="0" stop-color="#efb2ff"/>
      <stop offset=".6" stop-color="#9b5de5"/>
      <stop offset="1" stop-color="#4f2378"/>
    </radialGradient>
    <radialGradient id="head" cx=".36" cy=".26" r=".72">
      <stop offset="0" stop-color="#ffffff" stop-opacity=".85"/>
      <stop offset=".2" stop-color="#efb2ff"/>
      <stop offset=".72" stop-color="#9b5de5"/>
      <stop offset="1" stop-color="#4f2378"/>
    </radialGradient>
    <filter id="softShadow" x="-30%" y="-30%" width="160%" height="160%">
      <feDropShadow dx="0" dy="8" stdDeviation="8" flood-color="#4f2378" flood-opacity=".35"/>
    </filter>
  </defs>
  <rect width="512" height="768" rx="48" fill="url(#bgp757)"/>
  <rect x="24" y="24" width="464" height="720" rx="40" fill="#ffffff" opacity=".08"/>
  <g opacity=".42"><circle cx="344" cy="500" r="2.0" fill="#fff" opacity="0.53"/><circle cx="20" cy="601" r="2.9" fill="#fff" opacity="0.59"/><circle cx="300" cy="530" r="0.8" fill="#fff" opacity="0.30"/><circle cx="320" cy="727" r="1.5" fill="#fff" opacity="0.27"/><circle cx="450" cy="739" r="1.7" fill="#fff" opacity="0.67"/><circle cx="512" cy="358" r="0.9" fill="#fff" opacity="0.63"/><circle cx="442" cy="145" r="2.8" fill="#fff" opacity="0.64"/><circle cx="134" cy="111" r="3.1" fill="#fff" opacity="0.65"/><circle cx="91" cy="612" r="0.8" fill="#fff" opacity="0.62"/><circle cx="211" cy="566" r="1.9" fill="#fff" opacity="0.39"/><circle cx="318" cy="712" r="2.8" fill="#fff" opacity="0.30"/><circle cx="224" cy="22" r="1.7" fill="#fff" opacity="0.55"/><circle cx="390" cy="383" r="2.1" fill="#fff" opacity="0.68"/><circle cx="379" cy="285" r="2.8" fill="#fff" opacity="0.30"/><circle cx="108" cy="231" r="2.2" fill="#fff" opacity="0.60"/><circle cx="417" cy="483" r="2.2" fill="#fff" opacity="0.61"/><circle cx="326" cy="61" r="1.8" fill="#fff" opacity="0.43"/><circle cx="508" cy="324" r="2.1" fill="#fff" opacity="0.56"/><circle cx="82" cy="562" r="2.9" fill="#fff" opacity="0.70"/><circle cx="484" cy="378" r="2.0" fill="#fff" opacity="0.48"/><circle cx="503" cy="273" r="2.9" fill="#fff" opacity="0.49"/><circle cx="52" cy="329" r="1.2" fill="#fff" opacity="0.40"/><circle cx="33" cy="241" r="3.1" fill="#fff" opacity="0.65"/><circle cx="447" cy="276" r="1.5" fill="#fff" opacity="0.29"/><circle cx="98" cy="629" r="1.0" fill="#fff" opacity="0.37"/><circle cx="331" cy="668" r="2.9" fill="#fff" opacity="0.42"/><circle cx="438" cy="510" r="2.8" fill="#fff" opacity="0.59"/><circle cx="204" cy="472" r="1.6" fill="#fff" opacity="0.33"/></g>
  <path d="M0 670 C96 613 167 665 256 620 C337 660 421 608 512 662 V768 H0Z" fill="#a92d1d" opacity=".15"/>
  <ellipse cx="256" cy="662" rx="150" ry="34" fill="#4f2378" opacity=".28"/>
  <g transform="translate(0 122)">
    <path d="M159.65 347.4 C69.45000000000002 322.8 92 222.35000000000002 165.8 263.35" stroke="#ff6b35" stroke-width="28.699999999999996" fill="none" stroke-linecap="round" opacity=".76"/><ellipse cx="256" cy="353.55" rx="108.64999999999999" ry="102.49999999999999" fill="url(#body)" filter="url(#softShadow)"/><path d="M184.25 212.10000000000002 L137.10000000000002 115.75000000000003 L231.4 175.20000000000002 Z" fill="#ff6b35"/><path d="M327.75 212.10000000000002 L374.9 115.75000000000003 L280.6 175.20000000000002 Z" fill="#ff6b35"/><circle cx="256" cy="234.65" r="92.24999999999999" fill="url(#head)"/><ellipse cx="221.15" cy="251.05" rx="16.4" ry="20.5" fill="#182033"/><ellipse cx="290.85" cy="251.05" rx="16.4" ry="20.5" fill="#182033"/><ellipse cx="223.2" cy="253.1" rx="14.349999999999998" ry="16.4" fill="#14213d"/><ellipse cx="288.8" cy="253.1" rx="14.349999999999998" ry="16.4" fill="#14213d"/><circle cx="229.35" cy="244.9" r="4.714999999999999" fill="#fff"/><circle cx="294.95" cy="244.9" r="4.714999999999999" fill="#fff"/><path d="M256 183.4 L278.55 212.10000000000002 L256 242.85 L233.45 212.10000000000002 Z" fill="#efb2ff" opacity=".92"/>
  </g>
  <path d="M74 126 C170 65 334 65 438 126" stroke="#fff" stroke-width="16" stroke-linecap="round" opacity=".16"/>
  <path d="M63 676 C162 718 344 718 449 662" stroke="#fff" stroke-width="14" stroke-linecap="round" opacity=".16"/>
</svg>