<svg xmlns="http://www.w3.org/2000/svg" viewBox="0 0 512 768" role="img" aria-label="绒甲幼熊 original portrait">
  
  <defs>
    <linearGradient id="bgp759" x1="0" y1="0" x2="1" y2="1">
      <stop offset="0" stop-color="#f4e8d8"/>
      <stop offset=".55" stop-color="#b78f68"/>
      <stop offset="1" stop-color="#6d4f3f"/>
    </linearGradient>
    <radialGradient id="body" cx=".36" cy=".25" r=".76">
      <stop offset="0" stop-color="#f4e8d8"/>
      <stop offset=".6" stop-color="#b78f68"/>
      <stop offset="1" stop-color="#6d4f3f"/>
    </radialGradient>
    <radialGradient id="head" cx=".36" cy=".26" r=".72">
      <stop offset="0" stop-color="#ffffff" stop-opacity=".85"/>
      <stop offset=".2" stop-color="#f4e8d8"/>
      <stop offset=".72" stop-color="#b78f68"/>
      <stop offset="1" stop-color="#6d4f3f"/>
    </radialGradient>
    <filter id="softShadow" x="-30%" y="-30%" width="160%" height="160%">
      <feDropShadow dx="0" dy="8" stdDeviation="8" flood-color="#6d4f3f" flood-opacity=".35"/>
    </filter>
  </defs>
  <rect width="512" height="768" rx="48" fill="url(#bgp759)"/>
  <rect x="24" y="24" width="464" height="720" rx="40" fill="#ffffff" opacity=".08"/>
  <g opacity=".42"><circle cx="213" cy="291" r="2.6" fill="#fff" opacity="0.66"/><circle cx="56" cy="682" r="1.5" fill="#fff" opacity="0.40"/><circle cx="314" cy="393" r="1.8" fill="#fff" opacity="0.67"/><circle cx="163" cy="446" r="2.7" fill="#fff" opacity="0.47"/><circle cx="378" cy="271" r="2.9" fill="#fff" opacity="0.57"/><circle cx="143" cy="248" r="1.6" fill="#fff" opacity="0.53"/><circle cx="483" cy="264" r="2.2" fill="#fff" opacity="0.35"/><circle cx="414" cy="117" r="2.9" fill="#fff" opacity="0.33"/><circle cx="239" cy="284" r="2.6" fill="#fff" opacity="0.40"/><circle cx="242" cy="454" r="1.7" fill="#fff" opacity="0.51"/><circle cx="145" cy="98" r="1.7" fill="#fff" opacity="0.40"/><circle cx="72" cy="185" r="2.1" fill="#fff" opacity="0.61"/><circle cx="372" cy="467" r="1.2" fill="#fff" opacity="0.32"/><circle cx="33" cy="116" r="1.6" fill="#fff" opacity="0.27"/><circle cx="461" cy="154" r="2.6" fill="#fff" opacity="0.61"/><circle cx="243" cy="418" r="1.2" fill="#fff" opacity="0.51"/><circle cx="369" cy="38" r="2.7" fill="#fff" opacity="0.47"/><circle cx="152" cy="49" r="2.8" fill="#fff" opacity="0.48"/><circle cx="61" cy="491" r="2.9" fill="#fff" opacity="0.52"/><circle cx="425" cy="457" r="2.4" fill="#fff" opacity="0.49"/><circle cx="162" cy="412" r="2.7" fill="#fff" opacity="0.36"/><circle cx="277" cy="626" r="0.9" fill="#fff" opacity="0.62"/><circle cx="185" cy="681" r="2.4" fill="#fff" opacity="0.27"/><circle cx="324" cy="336" r="2.8" fill="#fff" opacity="0.65"/><circle cx="392" cy="445" r="2.0" fill="#fff" opacity="0.47"/><circle cx="155" cy="497" r="2.9" fill="#fff" opacity="0.68"/><circle cx="230" cy="419" r="3.0" fill="#fff" opacity="0.66"/><circle cx="283" cy="449" r="1.1" fill="#fff" opacity="0.58"/></g>
  <path d="M69 625 C150 571 359 568 443 628" fill="#d95f3d" opacity=".14"/>
  <ellipse cx="256" cy="662" rx="150" ry="34" fill="#6d4f3f" opacity=".28"/>
  <g transform="translate(0 122)">
    <ellipse cx="178.10000000000002" cy="257.2" rx="69.69999999999999" ry="100.44999999999999" fill="#f4e8d8" opacity=".55"/><ellipse cx="333.9" cy="257.2" rx="69.69999999999999" ry="100.44999999999999" fill="#f4e8d8" opacity=".55"/><ellipse cx="256" cy="331" rx="65.6" ry="122.99999999999999" fill="url(#body)" filter="url(#softShadow)"/><circle cx="256" cy="214.15" r="69.69999999999999" fill="url(#head)"/><path d="M219.1 160.85000000000002 Q174 93.20000000000002 118.65 117.80000000000001" stroke="#7a271d" stroke-width="10.25" fill="none" stroke-linecap="round"/><path d="M292.9 160.85000000000002 Q338 93.20000000000002 393.35 117.80000000000001" stroke="#7a271d" stroke-width="10.25" fill="none" stroke-linecap="round"/><path d="M198.60000000000002 322.8 H313.4 M206.8 376.1 H305.2" stroke="#6d4f3f" stroke-width="8.2" opacity=".35"/><ellipse cx="223.2" cy="253.1" rx="14.349999999999998" ry="16.4" fill="#14213d"/><ellipse cx="288.8" cy="253.1" rx="14.349999999999998" ry="16.4" fill="#14213d"/><circle cx="229.35" cy="244.9" r="4.714999999999999" fill="#fff"/><circle cx="294.95" cy="244.9" r="4.714999999999999" fill="#fff"/><path d="M256 183.4 L278.55 212.10000000000002 L256 242.85 L233.45 212.10000000000002 Z" fill="#f4e8d8" opacity=".92"/>
  </g>
  <path d="M74 126 C170 65 334 65 438 126" stroke="#fff" stroke-width="16" stroke-linecap="round" opacity=".16"/>
  <path d="M63 676 C162 718 344 718 449 662" stroke="#fff" stroke-width="14" stroke-linecap="round" opacity=".16"/>
</svg>