<svg xmlns="http://www.w3.org/2000/svg" viewBox="0 0 512 768" role="img" aria-label="雪球海豹 original portrait">
  
  <defs>
    <linearGradient id="bgp76" x1="0" y1="0" x2="1" y2="1">
      <stop offset="0" stop-color="#d7fbff"/>
      <stop offset=".55" stop-color="#71d6e8"/>
      <stop offset="1" stop-color="#318aa3"/>
    </linearGradient>
    <radialGradient id="body" cx=".36" cy=".25" r=".76">
      <stop offset="0" stop-color="#d7fbff"/>
      <stop offset=".6" stop-color="#71d6e8"/>
      <stop offset="1" stop-color="#318aa3"/>
    </radialGradient>
    <radialGradient id="head" cx=".36" cy=".26" r=".72">
      <stop offset="0" stop-color="#ffffff" stop-opacity=".85"/>
      <stop offset=".2" stop-color="#d7fbff"/>
      <stop offset=".72" stop-color="#71d6e8"/>
      <stop offset="1" stop-color="#318aa3"/>
    </radialGradient>
    <filter id="softShadow" x="-30%" y="-30%" width="160%" height="160%">
      <feDropShadow dx="0" dy="8" stdDeviation="8" flood-color="#318aa3" flood-opacity=".35"/>
    </filter>
  </defs>
  <rect width="512" height="768" rx="48" fill="url(#bgp76)"/>
  <rect x="24" y="24" width="464" height="720" rx="40" fill="#ffffff" opacity=".08"/>
  <g opacity=".42"><circle cx="164" cy="654" r="1.6" fill="#fff" opacity="0.61"/><circle cx="408" cy="501" r="2.2" fill="#fff" opacity="0.65"/><circle cx="185" cy="200" r="3.2" fill="#fff" opacity="0.46"/><circle cx="123" cy="321" r="1.0" fill="#fff" opacity="0.54"/><circle cx="284" cy="276" r="3.0" fill="#fff" opacity="0.44"/><circle cx="471" cy="52" r="2.7" fill="#fff" opacity="0.63"/><circle cx="117" cy="728" r="2.9" fill="#fff" opacity="0.28"/><circle cx="361" cy="764" r="2.2" fill="#fff" opacity="0.37"/><circle cx="264" cy="650" r="2.7" fill="#fff" opacity="0.36"/><circle cx="187" cy="296" r="2.4" fill="#fff" opacity="0.29"/><circle cx="397" cy="581" r="2.9" fill="#fff" opacity="0.41"/><circle cx="51" cy="661" r="1.6" fill="#fff" opacity="0.61"/><circle cx="500" cy="402" r="3.2" fill="#fff" opacity="0.42"/><circle cx="445" cy="750" r="2.7" fill="#fff" opacity="0.30"/><circle cx="14" cy="169" r="3.0" fill="#fff" opacity="0.46"/><circle cx="495" cy="167" r="0.9" fill="#fff" opacity="0.29"/><circle cx="366" cy="223" r="1.7" fill="#fff" opacity="0.61"/><circle cx="195" cy="109" r="2.9" fill="#fff" opacity="0.28"/><circle cx="183" cy="191" r="2.2" fill="#fff" opacity="0.49"/><circle cx="4" cy="106" r="1.2" fill="#fff" opacity="0.66"/><circle cx="340" cy="278" r="2.9" fill="#fff" opacity="0.35"/><circle cx="254" cy="342" r="2.4" fill="#fff" opacity="0.28"/><circle cx="293" cy="440" r="2.4" fill="#fff" opacity="0.25"/><circle cx="19" cy="358" r="2.7" fill="#fff" opacity="0.34"/><circle cx="495" cy="48" r="2.1" fill="#fff" opacity="0.49"/><circle cx="167" cy="245" r="2.9" fill="#fff" opacity="0.31"/><circle cx="450" cy="80" r="1.0" fill="#fff" opacity="0.65"/><circle cx="218" cy="109" r="2.0" fill="#fff" opacity="0.64"/></g>
  <path d="M0 585 C86 541 164 618 248 574 C338 526 407 595 512 548 V768 H0Z" fill="#71d6e8" opacity=".2"/><path d="M0 650 C105 610 180 690 282 638 C370 594 426 650 512 618 V768 H0Z" fill="#d7fbff" opacity=".18"/>
  <ellipse cx="256" cy="662" rx="150" ry="34" fill="#318aa3" opacity=".28"/>
  <g transform="translate(0 122)">
    <path d="M110.45000000000002 326.9 L40.75000000000003 240.8 L44.85000000000002 413 Z" fill="#71d6e8" opacity=".86"/><ellipse cx="247.8" cy="322.8" rx="139.39999999999998" ry="88.14999999999999" fill="url(#body)" filter="url(#softShadow)"/><path d="M243.7 242.85 C288.8 136.25 358.5 173.15 342.1 263.35" fill="#71d6e8" opacity=".72"/><path d="M301.1 384.3 C338 458.1 411.79999999999995 413 362.6 359.7" fill="#d7fbff" opacity=".8"/><circle cx="329.8" cy="292.05" r="14.349999999999998" fill="#101828"/><circle cx="335.95" cy="285.9" r="4.714999999999999" fill="#fff"/><path d="M215 201.85000000000002 Q256 224.4 297 201.85000000000002" stroke="#d7fbff" stroke-width="10.25" fill="none" stroke-linecap="round" opacity=".8"/>
  </g>
  <path d="M74 126 C170 65 334 65 438 126" stroke="#fff" stroke-width="16" stroke-linecap="round" opacity=".16"/>
  <path d="M63 676 C162 718 344 718 449 662" stroke="#fff" stroke-width="14" stroke-linecap="round" opacity=".16"/>
</svg>