<svg xmlns="http://www.w3.org/2000/svg" viewBox="0 0 512 768" role="img" aria-label="裂臂熊将 original portrait">
  
  <defs>
    <linearGradient id="bgp760" x1="0" y1="0" x2="1" y2="1">
      <stop offset="0" stop-color="#f4e8d8"/>
      <stop offset=".55" stop-color="#b78f68"/>
      <stop offset="1" stop-color="#6d4f3f"/>
    </linearGradient>
    <radialGradient id="body" cx=".36" cy=".25" r=".76">
      <stop offset="0" stop-color="#f4e8d8"/>
      <stop offset=".6" stop-color="#b78f68"/>
      <stop offset="1" stop-color="#6d4f3f"/>
    </radialGradient>
    <radialGradient id="head" cx=".36" cy=".26" r=".72">
      <stop offset="0" stop-color="#ffffff" stop-opacity=".85"/>
      <stop offset=".2" stop-color="#f4e8d8"/>
      <stop offset=".72" stop-color="#b78f68"/>
      <stop offset="1" stop-color="#6d4f3f"/>
    </radialGradient>
    <filter id="softShadow" x="-30%" y="-30%" width="160%" height="160%">
      <feDropShadow dx="0" dy="8" stdDeviation="8" flood-color="#6d4f3f" flood-opacity=".35"/>
    </filter>
  </defs>
  <rect width="512" height="768" rx="48" fill="url(#bgp760)"/>
  <rect x="24" y="24" width="464" height="720" rx="40" fill="#ffffff" opacity=".08"/>
  <g opacity=".42"><circle cx="344" cy="383" r="2.8" fill="#fff" opacity="0.50"/><circle cx="324" cy="431" r="1.0" fill="#fff" opacity="0.60"/><circle cx="304" cy="748" r="1.0" fill="#fff" opacity="0.26"/><circle cx="190" cy="169" r="2.6" fill="#fff" opacity="0.47"/><circle cx="266" cy="322" r="1.7" fill="#fff" opacity="0.49"/><circle cx="211" cy="518" r="1.0" fill="#fff" opacity="0.41"/><circle cx="153" cy="486" r="1.3" fill="#fff" opacity="0.55"/><circle cx="75" cy="396" r="2.9" fill="#fff" opacity="0.51"/><circle cx="192" cy="543" r="2.7" fill="#fff" opacity="0.32"/><circle cx="330" cy="14" r="1.3" fill="#fff" opacity="0.55"/><circle cx="391" cy="283" r="2.0" fill="#fff" opacity="0.61"/><circle cx="446" cy="152" r="2.2" fill="#fff" opacity="0.60"/><circle cx="258" cy="315" r="1.8" fill="#fff" opacity="0.46"/><circle cx="445" cy="646" r="3.2" fill="#fff" opacity="0.64"/><circle cx="331" cy="6" r="3.0" fill="#fff" opacity="0.63"/><circle cx="317" cy="125" r="2.5" fill="#fff" opacity="0.40"/><circle cx="309" cy="764" r="1.2" fill="#fff" opacity="0.37"/><circle cx="379" cy="243" r="2.7" fill="#fff" opacity="0.25"/><circle cx="251" cy="553" r="2.8" fill="#fff" opacity="0.52"/><circle cx="163" cy="723" r="2.5" fill="#fff" opacity="0.51"/><circle cx="227" cy="280" r="1.3" fill="#fff" opacity="0.60"/><circle cx="247" cy="704" r="2.6" fill="#fff" opacity="0.30"/><circle cx="438" cy="264" r="1.8" fill="#fff" opacity="0.32"/><circle cx="362" cy="707" r="1.5" fill="#fff" opacity="0.29"/><circle cx="201" cy="357" r="2.2" fill="#fff" opacity="0.54"/><circle cx="383" cy="710" r="1.3" fill="#fff" opacity="0.52"/><circle cx="92" cy="539" r="2.8" fill="#fff" opacity="0.47"/><circle cx="68" cy="567" r="1.2" fill="#fff" opacity="0.40"/></g>
  <path d="M38 684 C128 596 386 596 475 684 V768 H38Z" fill="#6d4f3f" opacity=".17"/>
  <ellipse cx="256" cy="662" rx="150" ry="34" fill="#6d4f3f" opacity=".28"/>
  <g transform="translate(0 122)">
    <ellipse cx="256" cy="359.7" rx="110.69999999999999" ry="100.44999999999999" fill="url(#body)" filter="url(#softShadow)"/><circle cx="256" cy="232.60000000000002" r="86.1" fill="url(#head)"/><path d="M149.4 322.8 C51.00000000000003 304.35 85.85000000000002 423.25 165.8 402.75" fill="#7a271d"/><path d="M362.6 322.8 C461 304.35 426.15 423.25 346.2 402.75" fill="#7a271d"/><path d="M200.65 148.55 H311.35 L331.85 195.7 Q256 224.4 180.15 195.7 Z" fill="#f4e8d8" opacity=".85"/><ellipse cx="223.2" cy="253.1" rx="14.349999999999998" ry="16.4" fill="#14213d"/><ellipse cx="288.8" cy="253.1" rx="14.349999999999998" ry="16.4" fill="#14213d"/><circle cx="229.35" cy="244.9" r="4.714999999999999" fill="#fff"/><circle cx="294.95" cy="244.9" r="4.714999999999999" fill="#fff"/><circle cx="256" cy="210.05" r="14.349999999999998" fill="#f4e8d8" opacity=".9"/>
  </g>
  <path d="M74 126 C170 65 334 65 438 126" stroke="#fff" stroke-width="16" stroke-linecap="round" opacity=".16"/>
  <path d="M63 676 C162 718 344 718 449 662" stroke="#fff" stroke-width="14" stroke-linecap="round" opacity=".16"/>
</svg>