<svg xmlns="http://www.w3.org/2000/svg" viewBox="0 0 512 768" role="img" aria-label="甜果舞姬 original portrait">
  
  <defs>
    <linearGradient id="bgp762" x1="0" y1="0" x2="1" y2="1">
      <stop offset="0" stop-color="#c7f7a4"/>
      <stop offset=".55" stop-color="#43b957"/>
      <stop offset="1" stop-color="#1f6f43"/>
    </linearGradient>
    <radialGradient id="body" cx=".36" cy=".25" r=".76">
      <stop offset="0" stop-color="#c7f7a4"/>
      <stop offset=".6" stop-color="#43b957"/>
      <stop offset="1" stop-color="#1f6f43"/>
    </radialGradient>
    <radialGradient id="head" cx=".36" cy=".26" r=".72">
      <stop offset="0" stop-color="#ffffff" stop-opacity=".85"/>
      <stop offset=".2" stop-color="#c7f7a4"/>
      <stop offset=".72" stop-color="#43b957"/>
      <stop offset="1" stop-color="#1f6f43"/>
    </radialGradient>
    <filter id="softShadow" x="-30%" y="-30%" width="160%" height="160%">
      <feDropShadow dx="0" dy="8" stdDeviation="8" flood-color="#1f6f43" flood-opacity=".35"/>
    </filter>
  </defs>
  <rect width="512" height="768" rx="48" fill="url(#bgp762)"/>
  <rect x="24" y="24" width="464" height="720" rx="40" fill="#ffffff" opacity=".08"/>
  <g opacity=".42"><circle cx="45" cy="751" r="1.7" fill="#fff" opacity="0.28"/><circle cx="283" cy="220" r="2.0" fill="#fff" opacity="0.59"/><circle cx="167" cy="683" r="2.4" fill="#fff" opacity="0.56"/><circle cx="367" cy="400" r="1.1" fill="#fff" opacity="0.56"/><circle cx="213" cy="36" r="1.1" fill="#fff" opacity="0.32"/><circle cx="76" cy="751" r="2.6" fill="#fff" opacity="0.37"/><circle cx="403" cy="230" r="2.7" fill="#fff" opacity="0.51"/><circle cx="489" cy="19" r="1.9" fill="#fff" opacity="0.67"/><circle cx="280" cy="632" r="2.8" fill="#fff" opacity="0.62"/><circle cx="106" cy="680" r="0.8" fill="#fff" opacity="0.65"/><circle cx="141" cy="654" r="0.8" fill="#fff" opacity="0.48"/><circle cx="66" cy="289" r="0.9" fill="#fff" opacity="0.30"/><circle cx="131" cy="168" r="1.7" fill="#fff" opacity="0.42"/><circle cx="299" cy="759" r="1.6" fill="#fff" opacity="0.33"/><circle cx="50" cy="434" r="1.7" fill="#fff" opacity="0.39"/><circle cx="340" cy="721" r="1.3" fill="#fff" opacity="0.46"/><circle cx="290" cy="180" r="1.9" fill="#fff" opacity="0.67"/><circle cx="270" cy="495" r="3.1" fill="#fff" opacity="0.68"/><circle cx="51" cy="380" r="1.5" fill="#fff" opacity="0.47"/><circle cx="17" cy="624" r="3.2" fill="#fff" opacity="0.42"/><circle cx="26" cy="467" r="2.9" fill="#fff" opacity="0.46"/><circle cx="68" cy="492" r="1.7" fill="#fff" opacity="0.65"/><circle cx="165" cy="746" r="1.9" fill="#fff" opacity="0.47"/><circle cx="357" cy="213" r="0.9" fill="#fff" opacity="0.54"/><circle cx="399" cy="688" r="2.9" fill="#fff" opacity="0.40"/><circle cx="498" cy="741" r="1.8" fill="#fff" opacity="0.51"/><circle cx="82" cy="468" r="3.1" fill="#fff" opacity="0.37"/><circle cx="67" cy="226" r="1.6" fill="#fff" opacity="0.31"/></g>
  <path d="M18 704 C124 595 205 659 256 580 C314 666 392 596 494 704 V768 H18Z" fill="#8e3b89" opacity=".18"/>
  <ellipse cx="256" cy="662" rx="150" ry="34" fill="#1f6f43" opacity=".28"/>
  <g transform="translate(0 122)">
    <path d="M231.4 400.7 C128.9 376.1 83.80000000000001 265.4 198.60000000000002 275.65" fill="#f47ac2" opacity=".82"/><path d="M280.6 400.7 C383.1 376.1 428.2 265.4 313.4 275.65" fill="#f47ac2" opacity=".82"/><ellipse cx="256" cy="339.2" rx="98.39999999999999" ry="116.85" fill="url(#body)" filter="url(#softShadow)"/><path d="M256 138.3 C169.9 175.20000000000002 161.7 259.25 256 251.05 C350.3 259.25 342.1 175.20000000000002 256 138.3Z" fill="#c7f7a4"/><circle cx="256" cy="253.1" r="77.89999999999999" fill="url(#head)"/><ellipse cx="223.2" cy="253.1" rx="14.349999999999998" ry="16.4" fill="#14213d"/><ellipse cx="288.8" cy="253.1" rx="14.349999999999998" ry="16.4" fill="#14213d"/><circle cx="229.35" cy="244.9" r="4.714999999999999" fill="#fff"/><circle cx="294.95" cy="244.9" r="4.714999999999999" fill="#fff"/><path d="M256 183.4 L278.55 212.10000000000002 L256 242.85 L233.45 212.10000000000002 Z" fill="#c7f7a4" opacity=".92"/>
  </g>
  <path d="M74 126 C170 65 334 65 438 126" stroke="#fff" stroke-width="16" stroke-linecap="round" opacity=".16"/>
  <path d="M63 676 C162 718 344 718 449 662" stroke="#fff" stroke-width="14" stroke-linecap="round" opacity=".16"/>
</svg>