<svg xmlns="http://www.w3.org/2000/svg" viewBox="0 0 512 768" role="img" aria-label="果冠女帝 original portrait">
  
  <defs>
    <linearGradient id="bgp763" x1="0" y1="0" x2="1" y2="1">
      <stop offset="0" stop-color="#c7f7a4"/>
      <stop offset=".55" stop-color="#43b957"/>
      <stop offset="1" stop-color="#1f6f43"/>
    </linearGradient>
    <radialGradient id="body" cx=".36" cy=".25" r=".76">
      <stop offset="0" stop-color="#c7f7a4"/>
      <stop offset=".6" stop-color="#43b957"/>
      <stop offset="1" stop-color="#1f6f43"/>
    </radialGradient>
    <radialGradient id="head" cx=".36" cy=".26" r=".72">
      <stop offset="0" stop-color="#ffffff" stop-opacity=".85"/>
      <stop offset=".2" stop-color="#c7f7a4"/>
      <stop offset=".72" stop-color="#43b957"/>
      <stop offset="1" stop-color="#1f6f43"/>
    </radialGradient>
    <filter id="softShadow" x="-30%" y="-30%" width="160%" height="160%">
      <feDropShadow dx="0" dy="8" stdDeviation="8" flood-color="#1f6f43" flood-opacity=".35"/>
    </filter>
  </defs>
  <rect width="512" height="768" rx="48" fill="url(#bgp763)"/>
  <rect x="24" y="24" width="464" height="720" rx="40" fill="#ffffff" opacity=".08"/>
  <g opacity=".42"><circle cx="132" cy="447" r="3.1" fill="#fff" opacity="0.30"/><circle cx="110" cy="374" r="1.0" fill="#fff" opacity="0.64"/><circle cx="260" cy="263" r="1.8" fill="#fff" opacity="0.54"/><circle cx="90" cy="767" r="1.6" fill="#fff" opacity="0.33"/><circle cx="51" cy="441" r="1.1" fill="#fff" opacity="0.69"/><circle cx="32" cy="389" r="2.6" fill="#fff" opacity="0.34"/><circle cx="66" cy="27" r="1.5" fill="#fff" opacity="0.43"/><circle cx="438" cy="1" r="2.5" fill="#fff" opacity="0.39"/><circle cx="140" cy="140" r="2.0" fill="#fff" opacity="0.50"/><circle cx="15" cy="335" r="1.9" fill="#fff" opacity="0.47"/><circle cx="198" cy="336" r="1.5" fill="#fff" opacity="0.31"/><circle cx="90" cy="286" r="2.7" fill="#fff" opacity="0.45"/><circle cx="283" cy="478" r="3.1" fill="#fff" opacity="0.57"/><circle cx="365" cy="548" r="1.3" fill="#fff" opacity="0.65"/><circle cx="247" cy="499" r="2.6" fill="#fff" opacity="0.30"/><circle cx="361" cy="212" r="1.6" fill="#fff" opacity="0.64"/><circle cx="445" cy="132" r="0.9" fill="#fff" opacity="0.40"/><circle cx="51" cy="744" r="2.0" fill="#fff" opacity="0.65"/><circle cx="298" cy="712" r="1.1" fill="#fff" opacity="0.53"/><circle cx="225" cy="593" r="1.7" fill="#fff" opacity="0.68"/><circle cx="490" cy="609" r="1.6" fill="#fff" opacity="0.43"/><circle cx="188" cy="595" r="2.2" fill="#fff" opacity="0.59"/><circle cx="376" cy="59" r="3.0" fill="#fff" opacity="0.36"/><circle cx="346" cy="425" r="1.9" fill="#fff" opacity="0.43"/><circle cx="460" cy="761" r="1.1" fill="#fff" opacity="0.42"/><circle cx="119" cy="163" r="2.4" fill="#fff" opacity="0.38"/><circle cx="310" cy="414" r="2.0" fill="#fff" opacity="0.37"/><circle cx="458" cy="559" r="1.0" fill="#fff" opacity="0.59"/></g>
  <path d="M18 704 C124 595 205 659 256 580 C314 666 392 596 494 704 V768 H18Z" fill="#7a271d" opacity=".18"/>
  <ellipse cx="256" cy="662" rx="150" ry="34" fill="#1f6f43" opacity=".28"/>
  <g transform="translate(0 122)">
    <path d="M231.4 400.7 C128.9 376.1 83.80000000000001 265.4 198.60000000000002 275.65" fill="#d95f3d" opacity=".82"/><path d="M280.6 400.7 C383.1 376.1 428.2 265.4 313.4 275.65" fill="#d95f3d" opacity=".82"/><ellipse cx="256" cy="339.2" rx="98.39999999999999" ry="116.85" fill="url(#body)" filter="url(#softShadow)"/><path d="M256 138.3 C169.9 175.20000000000002 161.7 259.25 256 251.05 C350.3 259.25 342.1 175.20000000000002 256 138.3Z" fill="#c7f7a4"/><circle cx="256" cy="253.1" r="77.89999999999999" fill="url(#head)"/><ellipse cx="223.2" cy="253.1" rx="14.349999999999998" ry="16.4" fill="#14213d"/><ellipse cx="288.8" cy="253.1" rx="14.349999999999998" ry="16.4" fill="#14213d"/><circle cx="229.35" cy="244.9" r="4.714999999999999" fill="#fff"/><circle cx="294.95" cy="244.9" r="4.714999999999999" fill="#fff"/><path d="M215 201.85000000000002 Q256 224.4 297 201.85000000000002" stroke="#c7f7a4" stroke-width="10.25" fill="none" stroke-linecap="round" opacity=".8"/>
  </g>
  <path d="M74 126 C170 65 334 65 438 126" stroke="#fff" stroke-width="16" stroke-linecap="round" opacity=".16"/>
  <path d="M63 676 C162 718 344 718 449 662" stroke="#fff" stroke-width="14" stroke-linecap="round" opacity=".16"/>
</svg>