<svg xmlns="http://www.w3.org/2000/svg" viewBox="0 0 512 768" role="img" aria-label="花环仙使 original portrait">
  
  <defs>
    <linearGradient id="bgp764" x1="0" y1="0" x2="1" y2="1">
      <stop offset="0" stop-color="#ffd7f3"/>
      <stop offset=".55" stop-color="#f47ac2"/>
      <stop offset="1" stop-color="#8e3b89"/>
    </linearGradient>
    <radialGradient id="body" cx=".36" cy=".25" r=".76">
      <stop offset="0" stop-color="#ffd7f3"/>
      <stop offset=".6" stop-color="#f47ac2"/>
      <stop offset="1" stop-color="#8e3b89"/>
    </radialGradient>
    <radialGradient id="head" cx=".36" cy=".26" r=".72">
      <stop offset="0" stop-color="#ffffff" stop-opacity=".85"/>
      <stop offset=".2" stop-color="#ffd7f3"/>
      <stop offset=".72" stop-color="#f47ac2"/>
      <stop offset="1" stop-color="#8e3b89"/>
    </radialGradient>
    <filter id="softShadow" x="-30%" y="-30%" width="160%" height="160%">
      <feDropShadow dx="0" dy="8" stdDeviation="8" flood-color="#8e3b89" flood-opacity=".35"/>
    </filter>
  </defs>
  <rect width="512" height="768" rx="48" fill="url(#bgp764)"/>
  <rect x="24" y="24" width="464" height="720" rx="40" fill="#ffffff" opacity=".08"/>
  <g opacity=".42"><circle cx="165" cy="534" r="2.4" fill="#fff" opacity="0.59"/><circle cx="361" cy="563" r="2.9" fill="#fff" opacity="0.54"/><circle cx="25" cy="308" r="2.3" fill="#fff" opacity="0.47"/><circle cx="351" cy="572" r="3.2" fill="#fff" opacity="0.59"/><circle cx="81" cy="51" r="3.2" fill="#fff" opacity="0.30"/><circle cx="131" cy="82" r="1.2" fill="#fff" opacity="0.40"/><circle cx="97" cy="330" r="2.5" fill="#fff" opacity="0.48"/><circle cx="187" cy="204" r="2.1" fill="#fff" opacity="0.28"/><circle cx="467" cy="159" r="1.2" fill="#fff" opacity="0.40"/><circle cx="259" cy="123" r="1.3" fill="#fff" opacity="0.55"/><circle cx="434" cy="35" r="1.9" fill="#fff" opacity="0.53"/><circle cx="390" cy="712" r="1.4" fill="#fff" opacity="0.65"/><circle cx="329" cy="324" r="3.1" fill="#fff" opacity="0.64"/><circle cx="405" cy="481" r="2.3" fill="#fff" opacity="0.50"/><circle cx="505" cy="363" r="1.8" fill="#fff" opacity="0.26"/><circle cx="310" cy="740" r="1.5" fill="#fff" opacity="0.67"/><circle cx="510" cy="144" r="1.2" fill="#fff" opacity="0.65"/><circle cx="95" cy="216" r="2.9" fill="#fff" opacity="0.30"/><circle cx="20" cy="236" r="2.8" fill="#fff" opacity="0.26"/><circle cx="443" cy="328" r="3.1" fill="#fff" opacity="0.56"/><circle cx="407" cy="694" r="2.2" fill="#fff" opacity="0.63"/><circle cx="240" cy="32" r="1.3" fill="#fff" opacity="0.65"/><circle cx="511" cy="267" r="2.1" fill="#fff" opacity="0.48"/><circle cx="103" cy="130" r="0.8" fill="#fff" opacity="0.66"/><circle cx="359" cy="721" r="2.7" fill="#fff" opacity="0.60"/><circle cx="412" cy="713" r="1.9" fill="#fff" opacity="0.54"/><circle cx="333" cy="496" r="2.3" fill="#fff" opacity="0.52"/><circle cx="267" cy="726" r="2.2" fill="#fff" opacity="0.58"/></g>
  <path d="M18 704 C124 595 205 659 256 580 C314 666 392 596 494 704 V768 H18Z" fill="#287565" opacity=".18"/>
  <ellipse cx="256" cy="662" rx="150" ry="34" fill="#8e3b89" opacity=".28"/>
  <g transform="translate(0 122)">
    <path d="M231.4 400.7 C128.9 376.1 83.80000000000001 265.4 198.60000000000002 275.65" fill="#4bd8a6" opacity=".82"/><path d="M280.6 400.7 C383.1 376.1 428.2 265.4 313.4 275.65" fill="#4bd8a6" opacity=".82"/><ellipse cx="256" cy="339.2" rx="98.39999999999999" ry="116.85" fill="url(#body)" filter="url(#softShadow)"/><path d="M256 138.3 C169.9 175.20000000000002 161.7 259.25 256 251.05 C350.3 259.25 342.1 175.20000000000002 256 138.3Z" fill="#ffd7f3"/><circle cx="256" cy="253.1" r="77.89999999999999" fill="url(#head)"/><ellipse cx="223.2" cy="253.1" rx="14.349999999999998" ry="16.4" fill="#14213d"/><ellipse cx="288.8" cy="253.1" rx="14.349999999999998" ry="16.4" fill="#14213d"/><circle cx="229.35" cy="244.9" r="4.714999999999999" fill="#fff"/><circle cx="294.95" cy="244.9" r="4.714999999999999" fill="#fff"/><path d="M215 201.85000000000002 Q256 224.4 297 201.85000000000002" stroke="#ffd7f3" stroke-width="10.25" fill="none" stroke-linecap="round" opacity=".8"/>
  </g>
  <path d="M74 126 C170 65 334 65 438 126" stroke="#fff" stroke-width="16" stroke-linecap="round" opacity=".16"/>
  <path d="M63 676 C162 718 344 718 449 662" stroke="#fff" stroke-width="14" stroke-linecap="round" opacity=".16"/>
</svg>