<svg xmlns="http://www.w3.org/2000/svg" viewBox="0 0 512 768" role="img" aria-label="合璧异兽 original portrait">
  
  <defs>
    <linearGradient id="bgp772" x1="0" y1="0" x2="1" y2="1">
      <stop offset="0" stop-color="#f4e8d8"/>
      <stop offset=".55" stop-color="#b78f68"/>
      <stop offset="1" stop-color="#6d4f3f"/>
    </linearGradient>
    <radialGradient id="body" cx=".36" cy=".25" r=".76">
      <stop offset="0" stop-color="#f4e8d8"/>
      <stop offset=".6" stop-color="#b78f68"/>
      <stop offset="1" stop-color="#6d4f3f"/>
    </radialGradient>
    <radialGradient id="head" cx=".36" cy=".26" r=".72">
      <stop offset="0" stop-color="#ffffff" stop-opacity=".85"/>
      <stop offset=".2" stop-color="#f4e8d8"/>
      <stop offset=".72" stop-color="#b78f68"/>
      <stop offset="1" stop-color="#6d4f3f"/>
    </radialGradient>
    <filter id="softShadow" x="-30%" y="-30%" width="160%" height="160%">
      <feDropShadow dx="0" dy="8" stdDeviation="8" flood-color="#6d4f3f" flood-opacity=".35"/>
    </filter>
  </defs>
  <rect width="512" height="768" rx="48" fill="url(#bgp772)"/>
  <rect x="24" y="24" width="464" height="720" rx="40" fill="#ffffff" opacity=".08"/>
  <g opacity=".42"><circle cx="214" cy="287" r="1.2" fill="#fff" opacity="0.47"/><circle cx="417" cy="499" r="1.4" fill="#fff" opacity="0.39"/><circle cx="117" cy="363" r="0.9" fill="#fff" opacity="0.40"/><circle cx="324" cy="436" r="3.0" fill="#fff" opacity="0.35"/><circle cx="297" cy="478" r="1.0" fill="#fff" opacity="0.41"/><circle cx="293" cy="370" r="1.5" fill="#fff" opacity="0.53"/><circle cx="216" cy="465" r="1.0" fill="#fff" opacity="0.46"/><circle cx="389" cy="107" r="2.6" fill="#fff" opacity="0.53"/><circle cx="31" cy="259" r="1.3" fill="#fff" opacity="0.27"/><circle cx="142" cy="415" r="1.1" fill="#fff" opacity="0.60"/><circle cx="78" cy="7" r="2.2" fill="#fff" opacity="0.26"/><circle cx="97" cy="768" r="2.8" fill="#fff" opacity="0.67"/><circle cx="481" cy="658" r="1.6" fill="#fff" opacity="0.61"/><circle cx="281" cy="523" r="1.8" fill="#fff" opacity="0.59"/><circle cx="118" cy="103" r="1.5" fill="#fff" opacity="0.31"/><circle cx="81" cy="246" r="0.8" fill="#fff" opacity="0.39"/><circle cx="163" cy="234" r="1.4" fill="#fff" opacity="0.67"/><circle cx="419" cy="579" r="2.6" fill="#fff" opacity="0.31"/><circle cx="368" cy="759" r="2.5" fill="#fff" opacity="0.39"/><circle cx="136" cy="257" r="2.4" fill="#fff" opacity="0.35"/><circle cx="341" cy="41" r="1.8" fill="#fff" opacity="0.32"/><circle cx="193" cy="192" r="2.1" fill="#fff" opacity="0.40"/><circle cx="58" cy="17" r="1.9" fill="#fff" opacity="0.32"/><circle cx="195" cy="145" r="2.3" fill="#fff" opacity="0.27"/><circle cx="178" cy="382" r="3.0" fill="#fff" opacity="0.45"/><circle cx="216" cy="109" r="2.1" fill="#fff" opacity="0.69"/><circle cx="133" cy="710" r="2.5" fill="#fff" opacity="0.31"/><circle cx="69" cy="107" r="2.1" fill="#fff" opacity="0.43"/></g>
  <path d="M0 670 C96 613 167 665 256 620 C337 660 421 608 512 662 V768 H0Z" fill="#536271" opacity=".15"/>
  <ellipse cx="256" cy="662" rx="150" ry="34" fill="#6d4f3f" opacity=".28"/>
  <g transform="translate(0 122)">
    <path d="M352.35 347.4 C442.54999999999995 322.8 420 222.35000000000002 346.2 263.35" stroke="#9aa8b7" stroke-width="28.699999999999996" fill="none" stroke-linecap="round" opacity=".76"/><ellipse cx="256" cy="353.55" rx="108.64999999999999" ry="102.49999999999999" fill="url(#body)" filter="url(#softShadow)"/><path d="M184.25 212.10000000000002 L137.10000000000002 115.75000000000003 L231.4 175.20000000000002 Z" fill="#9aa8b7"/><path d="M327.75 212.10000000000002 L374.9 115.75000000000003 L280.6 175.20000000000002 Z" fill="#9aa8b7"/><circle cx="256" cy="234.65" r="92.24999999999999" fill="url(#head)"/><ellipse cx="221.15" cy="251.05" rx="16.4" ry="20.5" fill="#182033"/><ellipse cx="290.85" cy="251.05" rx="16.4" ry="20.5" fill="#182033"/><ellipse cx="223.2" cy="253.1" rx="14.349999999999998" ry="16.4" fill="#14213d"/><ellipse cx="288.8" cy="253.1" rx="14.349999999999998" ry="16.4" fill="#14213d"/><circle cx="229.35" cy="244.9" r="4.714999999999999" fill="#fff"/><circle cx="294.95" cy="244.9" r="4.714999999999999" fill="#fff"/><circle cx="256" cy="210.05" r="14.349999999999998" fill="#f4e8d8" opacity=".9"/>
  </g>
  <path d="M74 126 C170 65 334 65 438 126" stroke="#fff" stroke-width="16" stroke-linecap="round" opacity=".16"/>
  <path d="M63 676 C162 718 344 718 449 662" stroke="#fff" stroke-width="14" stroke-linecap="round" opacity=".16"/>
</svg>