<svg xmlns="http://www.w3.org/2000/svg" viewBox="0 0 512 768" role="img" aria-label="盾甲战兽 original portrait">
  
  <defs>
    <linearGradient id="bgp773" x1="0" y1="0" x2="1" y2="1">
      <stop offset="0" stop-color="#f4e8d8"/>
      <stop offset=".55" stop-color="#b78f68"/>
      <stop offset="1" stop-color="#6d4f3f"/>
    </linearGradient>
    <radialGradient id="body" cx=".36" cy=".25" r=".76">
      <stop offset="0" stop-color="#f4e8d8"/>
      <stop offset=".6" stop-color="#b78f68"/>
      <stop offset="1" stop-color="#6d4f3f"/>
    </radialGradient>
    <radialGradient id="head" cx=".36" cy=".26" r=".72">
      <stop offset="0" stop-color="#ffffff" stop-opacity=".85"/>
      <stop offset=".2" stop-color="#f4e8d8"/>
      <stop offset=".72" stop-color="#b78f68"/>
      <stop offset="1" stop-color="#6d4f3f"/>
    </radialGradient>
    <filter id="softShadow" x="-30%" y="-30%" width="160%" height="160%">
      <feDropShadow dx="0" dy="8" stdDeviation="8" flood-color="#6d4f3f" flood-opacity=".35"/>
    </filter>
  </defs>
  <rect width="512" height="768" rx="48" fill="url(#bgp773)"/>
  <rect x="24" y="24" width="464" height="720" rx="40" fill="#ffffff" opacity=".08"/>
  <g opacity=".42"><circle cx="19" cy="531" r="1.1" fill="#fff" opacity="0.44"/><circle cx="193" cy="487" r="1.5" fill="#fff" opacity="0.32"/><circle cx="50" cy="377" r="1.2" fill="#fff" opacity="0.65"/><circle cx="173" cy="461" r="1.6" fill="#fff" opacity="0.40"/><circle cx="445" cy="328" r="3.0" fill="#fff" opacity="0.62"/><circle cx="457" cy="613" r="3.0" fill="#fff" opacity="0.54"/><circle cx="150" cy="711" r="1.2" fill="#fff" opacity="0.30"/><circle cx="423" cy="8" r="2.5" fill="#fff" opacity="0.54"/><circle cx="191" cy="138" r="1.2" fill="#fff" opacity="0.51"/><circle cx="99" cy="289" r="2.9" fill="#fff" opacity="0.39"/><circle cx="245" cy="38" r="1.0" fill="#fff" opacity="0.42"/><circle cx="100" cy="279" r="2.8" fill="#fff" opacity="0.54"/><circle cx="306" cy="163" r="1.9" fill="#fff" opacity="0.33"/><circle cx="158" cy="542" r="2.1" fill="#fff" opacity="0.66"/><circle cx="406" cy="122" r="1.2" fill="#fff" opacity="0.62"/><circle cx="117" cy="7" r="2.3" fill="#fff" opacity="0.55"/><circle cx="335" cy="717" r="1.0" fill="#fff" opacity="0.56"/><circle cx="18" cy="150" r="2.8" fill="#fff" opacity="0.29"/><circle cx="266" cy="333" r="0.9" fill="#fff" opacity="0.25"/><circle cx="400" cy="449" r="1.1" fill="#fff" opacity="0.26"/><circle cx="294" cy="494" r="2.2" fill="#fff" opacity="0.51"/><circle cx="22" cy="533" r="2.9" fill="#fff" opacity="0.54"/><circle cx="270" cy="545" r="2.5" fill="#fff" opacity="0.49"/><circle cx="418" cy="75" r="2.4" fill="#fff" opacity="0.49"/><circle cx="280" cy="306" r="1.5" fill="#fff" opacity="0.44"/><circle cx="294" cy="284" r="2.0" fill="#fff" opacity="0.46"/><circle cx="251" cy="467" r="2.3" fill="#fff" opacity="0.65"/><circle cx="229" cy="648" r="1.6" fill="#fff" opacity="0.38"/></g>
  <path d="M69 625 C150 571 359 568 443 628" fill="#f2cf62" opacity=".14"/>
  <ellipse cx="256" cy="662" rx="150" ry="34" fill="#6d4f3f" opacity=".28"/>
  <g transform="translate(0 122)">
    <ellipse cx="178.10000000000002" cy="257.2" rx="69.69999999999999" ry="100.44999999999999" fill="#f4e8d8" opacity=".55"/><ellipse cx="333.9" cy="257.2" rx="69.69999999999999" ry="100.44999999999999" fill="#f4e8d8" opacity=".55"/><ellipse cx="256" cy="331" rx="65.6" ry="122.99999999999999" fill="url(#body)" filter="url(#softShadow)"/><circle cx="256" cy="214.15" r="69.69999999999999" fill="url(#head)"/><path d="M219.1 160.85000000000002 Q174 93.20000000000002 118.65 117.80000000000001" stroke="#80651c" stroke-width="10.25" fill="none" stroke-linecap="round"/><path d="M292.9 160.85000000000002 Q338 93.20000000000002 393.35 117.80000000000001" stroke="#80651c" stroke-width="10.25" fill="none" stroke-linecap="round"/><path d="M198.60000000000002 322.8 H313.4 M206.8 376.1 H305.2" stroke="#6d4f3f" stroke-width="8.2" opacity=".35"/><ellipse cx="223.2" cy="253.1" rx="14.349999999999998" ry="16.4" fill="#14213d"/><ellipse cx="288.8" cy="253.1" rx="14.349999999999998" ry="16.4" fill="#14213d"/><circle cx="229.35" cy="244.9" r="4.714999999999999" fill="#fff"/><circle cx="294.95" cy="244.9" r="4.714999999999999" fill="#fff"/><circle cx="256" cy="210.05" r="14.349999999999998" fill="#f4e8d8" opacity=".9"/>
  </g>
  <path d="M74 126 C170 65 334 65 438 126" stroke="#fff" stroke-width="16" stroke-linecap="round" opacity=".16"/>
  <path d="M63 676 C162 718 344 718 449 662" stroke="#fff" stroke-width="14" stroke-linecap="round" opacity=".16"/>
</svg>