<svg xmlns="http://www.w3.org/2000/svg" viewBox="0 0 512 768" role="img" aria-label="爆甲炮龟 original portrait">
  
  <defs>
    <linearGradient id="bgp776" x1="0" y1="0" x2="1" y2="1">
      <stop offset="0" stop-color="#ffd166"/>
      <stop offset=".55" stop-color="#ff6b35"/>
      <stop offset="1" stop-color="#a92d1d"/>
    </linearGradient>
    <radialGradient id="body" cx=".36" cy=".25" r=".76">
      <stop offset="0" stop-color="#ffd166"/>
      <stop offset=".6" stop-color="#ff6b35"/>
      <stop offset="1" stop-color="#a92d1d"/>
    </radialGradient>
    <radialGradient id="head" cx=".36" cy=".26" r=".72">
      <stop offset="0" stop-color="#ffffff" stop-opacity=".85"/>
      <stop offset=".2" stop-color="#ffd166"/>
      <stop offset=".72" stop-color="#ff6b35"/>
      <stop offset="1" stop-color="#a92d1d"/>
    </radialGradient>
    <filter id="softShadow" x="-30%" y="-30%" width="160%" height="160%">
      <feDropShadow dx="0" dy="8" stdDeviation="8" flood-color="#a92d1d" flood-opacity=".35"/>
    </filter>
  </defs>
  <rect width="512" height="768" rx="48" fill="url(#bgp776)"/>
  <rect x="24" y="24" width="464" height="720" rx="40" fill="#ffffff" opacity=".08"/>
  <g opacity=".42"><circle cx="198" cy="191" r="2.8" fill="#fff" opacity="0.27"/><circle cx="440" cy="92" r="3.0" fill="#fff" opacity="0.27"/><circle cx="166" cy="575" r="3.0" fill="#fff" opacity="0.69"/><circle cx="253" cy="614" r="3.1" fill="#fff" opacity="0.45"/><circle cx="427" cy="683" r="3.0" fill="#fff" opacity="0.38"/><circle cx="221" cy="748" r="1.9" fill="#fff" opacity="0.32"/><circle cx="409" cy="457" r="2.2" fill="#fff" opacity="0.47"/><circle cx="271" cy="165" r="2.6" fill="#fff" opacity="0.27"/><circle cx="213" cy="717" r="2.0" fill="#fff" opacity="0.54"/><circle cx="28" cy="179" r="2.0" fill="#fff" opacity="0.40"/><circle cx="477" cy="759" r="1.5" fill="#fff" opacity="0.40"/><circle cx="370" cy="655" r="1.1" fill="#fff" opacity="0.65"/><circle cx="81" cy="266" r="2.5" fill="#fff" opacity="0.60"/><circle cx="47" cy="488" r="3.1" fill="#fff" opacity="0.40"/><circle cx="155" cy="709" r="0.8" fill="#fff" opacity="0.47"/><circle cx="462" cy="179" r="2.9" fill="#fff" opacity="0.51"/><circle cx="110" cy="523" r="2.9" fill="#fff" opacity="0.30"/><circle cx="88" cy="421" r="2.2" fill="#fff" opacity="0.38"/><circle cx="175" cy="149" r="1.4" fill="#fff" opacity="0.61"/><circle cx="7" cy="448" r="0.9" fill="#fff" opacity="0.33"/><circle cx="339" cy="261" r="3.1" fill="#fff" opacity="0.62"/><circle cx="263" cy="606" r="2.2" fill="#fff" opacity="0.55"/><circle cx="455" cy="374" r="1.7" fill="#fff" opacity="0.65"/><circle cx="227" cy="205" r="1.5" fill="#fff" opacity="0.36"/><circle cx="285" cy="389" r="2.5" fill="#fff" opacity="0.27"/><circle cx="90" cy="229" r="1.9" fill="#fff" opacity="0.35"/><circle cx="300" cy="533" r="2.6" fill="#fff" opacity="0.26"/><circle cx="173" cy="649" r="1.6" fill="#fff" opacity="0.46"/></g>
  <path d="M0 585 C86 541 164 618 248 574 C338 526 407 595 512 548 V768 H0Z" fill="#22a889" opacity=".2"/><path d="M0 650 C105 610 180 690 282 638 C370 594 426 650 512 618 V768 H0Z" fill="#ffd166" opacity=".18"/>
  <ellipse cx="256" cy="662" rx="150" ry="34" fill="#a92d1d" opacity=".28"/>
  <g transform="translate(0 122)">
    <path d="M110.45000000000002 326.9 L40.75000000000003 240.8 L44.85000000000002 413 Z" fill="#22a889" opacity=".86"/><ellipse cx="247.8" cy="322.8" rx="139.39999999999998" ry="88.14999999999999" fill="url(#body)" filter="url(#softShadow)"/><path d="M243.7 242.85 C288.8 136.25 358.5 173.15 342.1 263.35" fill="#22a889" opacity=".72"/><path d="M301.1 384.3 C338 458.1 411.79999999999995 413 362.6 359.7" fill="#ffd166" opacity=".8"/><circle cx="329.8" cy="292.05" r="14.349999999999998" fill="#101828"/><circle cx="335.95" cy="285.9" r="4.714999999999999" fill="#fff"/><path d="M215 201.85000000000002 Q256 224.4 297 201.85000000000002" stroke="#ffd166" stroke-width="10.25" fill="none" stroke-linecap="round" opacity=".8"/>
  </g>
  <path d="M74 126 C170 65 334 65 438 126" stroke="#fff" stroke-width="16" stroke-linecap="round" opacity=".16"/>
  <path d="M63 676 C162 718 344 718 449 662" stroke="#fff" stroke-width="14" stroke-linecap="round" opacity=".16"/>
</svg>