<svg xmlns="http://www.w3.org/2000/svg" viewBox="0 0 512 768" role="img" aria-label="雷棘铁丸 original portrait">
  
  <defs>
    <linearGradient id="bgp777" x1="0" y1="0" x2="1" y2="1">
      <stop offset="0" stop-color="#fff27a"/>
      <stop offset=".55" stop-color="#f9c80e"/>
      <stop offset="1" stop-color="#7a5200"/>
    </linearGradient>
    <radialGradient id="body" cx=".36" cy=".25" r=".76">
      <stop offset="0" stop-color="#fff27a"/>
      <stop offset=".6" stop-color="#f9c80e"/>
      <stop offset="1" stop-color="#7a5200"/>
    </radialGradient>
    <radialGradient id="head" cx=".36" cy=".26" r=".72">
      <stop offset="0" stop-color="#ffffff" stop-opacity=".85"/>
      <stop offset=".2" stop-color="#fff27a"/>
      <stop offset=".72" stop-color="#f9c80e"/>
      <stop offset="1" stop-color="#7a5200"/>
    </radialGradient>
    <filter id="softShadow" x="-30%" y="-30%" width="160%" height="160%">
      <feDropShadow dx="0" dy="8" stdDeviation="8" flood-color="#7a5200" flood-opacity=".35"/>
    </filter>
  </defs>
  <rect width="512" height="768" rx="48" fill="url(#bgp777)"/>
  <rect x="24" y="24" width="464" height="720" rx="40" fill="#ffffff" opacity=".08"/>
  <g opacity=".42"><circle cx="42" cy="198" r="0.8" fill="#fff" opacity="0.60"/><circle cx="404" cy="519" r="1.4" fill="#fff" opacity="0.32"/><circle cx="451" cy="224" r="0.9" fill="#fff" opacity="0.32"/><circle cx="198" cy="707" r="3.0" fill="#fff" opacity="0.63"/><circle cx="442" cy="376" r="2.3" fill="#fff" opacity="0.68"/><circle cx="302" cy="486" r="2.2" fill="#fff" opacity="0.25"/><circle cx="273" cy="324" r="1.8" fill="#fff" opacity="0.41"/><circle cx="336" cy="175" r="1.1" fill="#fff" opacity="0.49"/><circle cx="399" cy="502" r="1.1" fill="#fff" opacity="0.55"/><circle cx="271" cy="228" r="2.8" fill="#fff" opacity="0.49"/><circle cx="183" cy="452" r="0.8" fill="#fff" opacity="0.69"/><circle cx="288" cy="653" r="2.0" fill="#fff" opacity="0.64"/><circle cx="211" cy="562" r="1.9" fill="#fff" opacity="0.64"/><circle cx="286" cy="85" r="2.7" fill="#fff" opacity="0.55"/><circle cx="504" cy="126" r="2.3" fill="#fff" opacity="0.27"/><circle cx="396" cy="222" r="1.9" fill="#fff" opacity="0.62"/><circle cx="414" cy="305" r="1.2" fill="#fff" opacity="0.26"/><circle cx="465" cy="423" r="3.1" fill="#fff" opacity="0.33"/><circle cx="199" cy="308" r="0.9" fill="#fff" opacity="0.59"/><circle cx="420" cy="394" r="3.0" fill="#fff" opacity="0.60"/><circle cx="446" cy="635" r="2.7" fill="#fff" opacity="0.60"/><circle cx="274" cy="45" r="2.9" fill="#fff" opacity="0.41"/><circle cx="231" cy="403" r="1.8" fill="#fff" opacity="0.65"/><circle cx="250" cy="418" r="2.5" fill="#fff" opacity="0.49"/><circle cx="79" cy="472" r="3.1" fill="#fff" opacity="0.43"/><circle cx="208" cy="534" r="2.1" fill="#fff" opacity="0.32"/><circle cx="505" cy="750" r="2.3" fill="#fff" opacity="0.27"/><circle cx="6" cy="582" r="2.7" fill="#fff" opacity="0.58"/></g>
  <path d="M24 680 L110 610 L186 666 L272 592 L356 674 L445 626 L512 704 V768 H0V704Z" fill="#7a5200" opacity=".18"/>
  <ellipse cx="256" cy="662" rx="150" ry="34" fill="#7a5200" opacity=".28"/>
  <g transform="translate(0 122)">
    <path d="M149.4 228.5 L219.1 156.75 H311.35 L376.95 242.85 L346.2 394.55 H163.75 Z" fill="url(#body)" filter="url(#softShadow)"/><path d="M198.60000000000002 179.3 L245.75 91.15 L280.6 171.10000000000002 Z" fill="#fff27a"/><path d="M290.85 183.4 L344.15 113.70000000000002 L342.1 210.05 Z" fill="#9aa8b7"/><rect x="194.5" y="277.7" width="122.99999999999999" height="30.749999999999996" rx="14.349999999999998" fill="#7a5200" opacity=".38"/><circle cx="227.3" cy="292.05" r="10.25" fill="#fff27a"/><circle cx="284.7" cy="292.05" r="10.25" fill="#fff27a"/><circle cx="256" cy="210.05" r="14.349999999999998" fill="#fff27a" opacity=".9"/>
  </g>
  <path d="M74 126 C170 65 334 65 438 126" stroke="#fff" stroke-width="16" stroke-linecap="round" opacity=".16"/>
  <path d="M63 676 C162 718 344 718 449 662" stroke="#fff" stroke-width="14" stroke-linecap="round" opacity=".16"/>
</svg>