<svg xmlns="http://www.w3.org/2000/svg" viewBox="0 0 512 768" role="img" aria-label="幻纹妖鱼 original portrait">
  
  <defs>
    <linearGradient id="bgp779" x1="0" y1="0" x2="1" y2="1">
      <stop offset="0" stop-color="#9ee8ff"/>
      <stop offset=".55" stop-color="#2397d5"/>
      <stop offset="1" stop-color="#0b4f8f"/>
    </linearGradient>
    <radialGradient id="body" cx=".36" cy=".25" r=".76">
      <stop offset="0" stop-color="#9ee8ff"/>
      <stop offset=".6" stop-color="#2397d5"/>
      <stop offset="1" stop-color="#0b4f8f"/>
    </radialGradient>
    <radialGradient id="head" cx=".36" cy=".26" r=".72">
      <stop offset="0" stop-color="#ffffff" stop-opacity=".85"/>
      <stop offset=".2" stop-color="#9ee8ff"/>
      <stop offset=".72" stop-color="#2397d5"/>
      <stop offset="1" stop-color="#0b4f8f"/>
    </radialGradient>
    <filter id="softShadow" x="-30%" y="-30%" width="160%" height="160%">
      <feDropShadow dx="0" dy="8" stdDeviation="8" flood-color="#0b4f8f" flood-opacity=".35"/>
    </filter>
  </defs>
  <rect width="512" height="768" rx="48" fill="url(#bgp779)"/>
  <rect x="24" y="24" width="464" height="720" rx="40" fill="#ffffff" opacity=".08"/>
  <g opacity=".42"><circle cx="118" cy="767" r="2.2" fill="#fff" opacity="0.68"/><circle cx="128" cy="96" r="3.2" fill="#fff" opacity="0.50"/><circle cx="132" cy="53" r="1.3" fill="#fff" opacity="0.68"/><circle cx="183" cy="528" r="1.8" fill="#fff" opacity="0.40"/><circle cx="194" cy="552" r="1.3" fill="#fff" opacity="0.64"/><circle cx="146" cy="585" r="2.3" fill="#fff" opacity="0.47"/><circle cx="42" cy="183" r="1.8" fill="#fff" opacity="0.65"/><circle cx="399" cy="338" r="2.4" fill="#fff" opacity="0.39"/><circle cx="403" cy="728" r="2.0" fill="#fff" opacity="0.49"/><circle cx="239" cy="59" r="1.9" fill="#fff" opacity="0.46"/><circle cx="217" cy="672" r="2.4" fill="#fff" opacity="0.39"/><circle cx="299" cy="671" r="1.7" fill="#fff" opacity="0.35"/><circle cx="505" cy="681" r="2.0" fill="#fff" opacity="0.28"/><circle cx="232" cy="8" r="1.0" fill="#fff" opacity="0.31"/><circle cx="280" cy="249" r="2.9" fill="#fff" opacity="0.45"/><circle cx="359" cy="551" r="1.8" fill="#fff" opacity="0.63"/><circle cx="484" cy="378" r="2.4" fill="#fff" opacity="0.69"/><circle cx="449" cy="721" r="1.8" fill="#fff" opacity="0.61"/><circle cx="120" cy="293" r="1.1" fill="#fff" opacity="0.58"/><circle cx="377" cy="103" r="3.2" fill="#fff" opacity="0.47"/><circle cx="185" cy="222" r="3.2" fill="#fff" opacity="0.55"/><circle cx="263" cy="154" r="2.1" fill="#fff" opacity="0.33"/><circle cx="296" cy="707" r="2.4" fill="#fff" opacity="0.61"/><circle cx="466" cy="107" r="2.3" fill="#fff" opacity="0.33"/><circle cx="71" cy="389" r="2.7" fill="#fff" opacity="0.50"/><circle cx="42" cy="218" r="1.8" fill="#fff" opacity="0.60"/><circle cx="363" cy="397" r="1.9" fill="#fff" opacity="0.62"/><circle cx="163" cy="482" r="1.8" fill="#fff" opacity="0.56"/></g>
  <path d="M0 585 C86 541 164 618 248 574 C338 526 407 595 512 548 V768 H0Z" fill="#e056a7" opacity=".2"/><path d="M0 650 C105 610 180 690 282 638 C370 594 426 650 512 618 V768 H0Z" fill="#9ee8ff" opacity=".18"/>
  <ellipse cx="256" cy="662" rx="150" ry="34" fill="#0b4f8f" opacity=".28"/>
  <g transform="translate(0 122)">
    <path d="M110.45000000000002 326.9 L40.75000000000003 240.8 L44.85000000000002 413 Z" fill="#e056a7" opacity=".86"/><ellipse cx="247.8" cy="322.8" rx="139.39999999999998" ry="88.14999999999999" fill="url(#body)" filter="url(#softShadow)"/><path d="M243.7 242.85 C288.8 136.25 358.5 173.15 342.1 263.35" fill="#e056a7" opacity=".72"/><path d="M301.1 384.3 C338 458.1 411.79999999999995 413 362.6 359.7" fill="#9ee8ff" opacity=".8"/><circle cx="329.8" cy="292.05" r="14.349999999999998" fill="#101828"/><circle cx="335.95" cy="285.9" r="4.714999999999999" fill="#fff"/><circle cx="256" cy="210.05" r="14.349999999999998" fill="#9ee8ff" opacity=".9"/>
  </g>
  <path d="M74 126 C170 65 334 65 438 126" stroke="#fff" stroke-width="16" stroke-linecap="round" opacity=".16"/>
  <path d="M63 676 C162 718 344 718 449 662" stroke="#fff" stroke-width="14" stroke-linecap="round" opacity=".16"/>
</svg>