<svg xmlns="http://www.w3.org/2000/svg" viewBox="0 0 512 768" role="img" aria-label="暗影游龙 original portrait">
  
  <defs>
    <linearGradient id="bgp781" x1="0" y1="0" x2="1" y2="1">
      <stop offset="0" stop-color="#d5c6ff"/>
      <stop offset=".55" stop-color="#7367b8"/>
      <stop offset="1" stop-color="#2d2357"/>
    </linearGradient>
    <radialGradient id="body" cx=".36" cy=".25" r=".76">
      <stop offset="0" stop-color="#d5c6ff"/>
      <stop offset=".6" stop-color="#7367b8"/>
      <stop offset="1" stop-color="#2d2357"/>
    </radialGradient>
    <radialGradient id="head" cx=".36" cy=".26" r=".72">
      <stop offset="0" stop-color="#ffffff" stop-opacity=".85"/>
      <stop offset=".2" stop-color="#d5c6ff"/>
      <stop offset=".72" stop-color="#7367b8"/>
      <stop offset="1" stop-color="#2d2357"/>
    </radialGradient>
    <filter id="softShadow" x="-30%" y="-30%" width="160%" height="160%">
      <feDropShadow dx="0" dy="8" stdDeviation="8" flood-color="#2d2357" flood-opacity=".35"/>
    </filter>
  </defs>
  <rect width="512" height="768" rx="48" fill="url(#bgp781)"/>
  <rect x="24" y="24" width="464" height="720" rx="40" fill="#ffffff" opacity=".08"/>
  <g opacity=".42"><circle cx="283" cy="66" r="1.4" fill="#fff" opacity="0.54"/><circle cx="479" cy="108" r="1.7" fill="#fff" opacity="0.66"/><circle cx="264" cy="612" r="2.0" fill="#fff" opacity="0.54"/><circle cx="128" cy="219" r="2.3" fill="#fff" opacity="0.54"/><circle cx="471" cy="3" r="1.1" fill="#fff" opacity="0.61"/><circle cx="438" cy="676" r="2.7" fill="#fff" opacity="0.64"/><circle cx="31" cy="659" r="2.6" fill="#fff" opacity="0.46"/><circle cx="305" cy="601" r="2.4" fill="#fff" opacity="0.49"/><circle cx="131" cy="670" r="2.4" fill="#fff" opacity="0.43"/><circle cx="254" cy="152" r="1.8" fill="#fff" opacity="0.26"/><circle cx="1" cy="353" r="1.0" fill="#fff" opacity="0.64"/><circle cx="32" cy="499" r="1.0" fill="#fff" opacity="0.42"/><circle cx="142" cy="656" r="1.4" fill="#fff" opacity="0.56"/><circle cx="37" cy="72" r="3.1" fill="#fff" opacity="0.33"/><circle cx="148" cy="625" r="1.2" fill="#fff" opacity="0.51"/><circle cx="25" cy="137" r="1.7" fill="#fff" opacity="0.38"/><circle cx="152" cy="208" r="2.8" fill="#fff" opacity="0.51"/><circle cx="181" cy="531" r="2.1" fill="#fff" opacity="0.32"/><circle cx="307" cy="477" r="1.1" fill="#fff" opacity="0.62"/><circle cx="354" cy="416" r="3.1" fill="#fff" opacity="0.55"/><circle cx="96" cy="364" r="2.4" fill="#fff" opacity="0.40"/><circle cx="376" cy="616" r="2.4" fill="#fff" opacity="0.43"/><circle cx="72" cy="404" r="2.5" fill="#fff" opacity="0.59"/><circle cx="296" cy="190" r="2.9" fill="#fff" opacity="0.46"/><circle cx="5" cy="663" r="1.5" fill="#fff" opacity="0.58"/><circle cx="90" cy="763" r="2.2" fill="#fff" opacity="0.32"/><circle cx="322" cy="638" r="1.2" fill="#fff" opacity="0.45"/><circle cx="77" cy="183" r="1.4" fill="#fff" opacity="0.43"/></g>
  <path d="M70 600 C142 504 297 500 443 610" fill="#2d2357" opacity=".18"/><path d="M52 642 C146 578 341 580 471 650" fill="#1f6f43" opacity=".16"/>
  <ellipse cx="256" cy="662" rx="150" ry="34" fill="#2d2357" opacity=".28"/>
  <g transform="translate(0 122)">
    <path d="M108.4 347.4 C161.7 224.4 292.9 175.20000000000002 389.25 253.1 C325.7 249 276.5 285.9 247.8 376.1" fill="#2d2357" opacity=".45"/><ellipse cx="256" cy="335.1" rx="110.69999999999999" ry="92.24999999999999" fill="url(#body)" filter="url(#softShadow)"/><path d="M167.85000000000002 253.1 L219.1 130.10000000000002 L249.85 244.9 Z" fill="#43b957"/><path d="M344.15 253.1 L292.9 130.10000000000002 L262.15 244.9 Z" fill="#43b957"/><ellipse cx="256" cy="267.45" rx="96.35" ry="86.1" fill="url(#head)"/><path d="M151.45 292.05 Q87.9 298.2 63.30000000000001 253.1" stroke="#d5c6ff" stroke-width="10.25" fill="none" stroke-linecap="round" opacity=".85"/><path d="M360.55 292.05 Q424.1 298.2 448.7 253.1" stroke="#d5c6ff" stroke-width="10.25" fill="none" stroke-linecap="round" opacity=".85"/><ellipse cx="223.2" cy="253.1" rx="14.349999999999998" ry="16.4" fill="#14213d"/><ellipse cx="288.8" cy="253.1" rx="14.349999999999998" ry="16.4" fill="#14213d"/><circle cx="229.35" cy="244.9" r="4.714999999999999" fill="#fff"/><circle cx="294.95" cy="244.9" r="4.714999999999999" fill="#fff"/><path d="M256 183.4 L278.55 212.10000000000002 L256 242.85 L233.45 212.10000000000002 Z" fill="#d5c6ff" opacity=".92"/>
  </g>
  <path d="M74 126 C170 65 334 65 438 126" stroke="#fff" stroke-width="16" stroke-linecap="round" opacity=".16"/>
  <path d="M63 676 C162 718 344 718 449 662" stroke="#fff" stroke-width="14" stroke-linecap="round" opacity=".16"/>
</svg>