<svg xmlns="http://www.w3.org/2000/svg" viewBox="0 0 512 768" role="img" aria-label="原野守神 original portrait">
  
  <defs>
    <linearGradient id="bgp787" x1="0" y1="0" x2="1" y2="1">
      <stop offset="0" stop-color="#c7f7a4"/>
      <stop offset=".55" stop-color="#43b957"/>
      <stop offset="1" stop-color="#1f6f43"/>
    </linearGradient>
    <radialGradient id="body" cx=".36" cy=".25" r=".76">
      <stop offset="0" stop-color="#c7f7a4"/>
      <stop offset=".6" stop-color="#43b957"/>
      <stop offset="1" stop-color="#1f6f43"/>
    </radialGradient>
    <radialGradient id="head" cx=".36" cy=".26" r=".72">
      <stop offset="0" stop-color="#ffffff" stop-opacity=".85"/>
      <stop offset=".2" stop-color="#c7f7a4"/>
      <stop offset=".72" stop-color="#43b957"/>
      <stop offset="1" stop-color="#1f6f43"/>
    </radialGradient>
    <filter id="softShadow" x="-30%" y="-30%" width="160%" height="160%">
      <feDropShadow dx="0" dy="8" stdDeviation="8" flood-color="#1f6f43" flood-opacity=".35"/>
    </filter>
  </defs>
  <rect width="512" height="768" rx="48" fill="url(#bgp787)"/>
  <rect x="24" y="24" width="464" height="720" rx="40" fill="#ffffff" opacity=".08"/>
  <g opacity=".42"><circle cx="330" cy="69" r="2.1" fill="#fff" opacity="0.40"/><circle cx="211" cy="598" r="1.9" fill="#fff" opacity="0.27"/><circle cx="289" cy="731" r="3.1" fill="#fff" opacity="0.55"/><circle cx="289" cy="403" r="1.2" fill="#fff" opacity="0.41"/><circle cx="274" cy="601" r="3.0" fill="#fff" opacity="0.29"/><circle cx="41" cy="743" r="2.0" fill="#fff" opacity="0.62"/><circle cx="459" cy="645" r="1.7" fill="#fff" opacity="0.57"/><circle cx="132" cy="203" r="2.8" fill="#fff" opacity="0.30"/><circle cx="152" cy="549" r="3.0" fill="#fff" opacity="0.53"/><circle cx="340" cy="338" r="2.1" fill="#fff" opacity="0.29"/><circle cx="101" cy="716" r="2.2" fill="#fff" opacity="0.28"/><circle cx="19" cy="755" r="3.0" fill="#fff" opacity="0.61"/><circle cx="434" cy="173" r="2.6" fill="#fff" opacity="0.69"/><circle cx="363" cy="526" r="2.2" fill="#fff" opacity="0.61"/><circle cx="428" cy="228" r="0.9" fill="#fff" opacity="0.65"/><circle cx="154" cy="225" r="2.9" fill="#fff" opacity="0.48"/><circle cx="247" cy="226" r="1.5" fill="#fff" opacity="0.48"/><circle cx="98" cy="537" r="1.4" fill="#fff" opacity="0.56"/><circle cx="482" cy="568" r="0.9" fill="#fff" opacity="0.37"/><circle cx="418" cy="370" r="1.4" fill="#fff" opacity="0.54"/><circle cx="404" cy="534" r="2.1" fill="#fff" opacity="0.63"/><circle cx="135" cy="699" r="2.6" fill="#fff" opacity="0.30"/><circle cx="284" cy="411" r="2.0" fill="#fff" opacity="0.50"/><circle cx="253" cy="325" r="2.6" fill="#fff" opacity="0.50"/><circle cx="16" cy="444" r="2.4" fill="#fff" opacity="0.37"/><circle cx="406" cy="56" r="2.3" fill="#fff" opacity="0.56"/><circle cx="183" cy="482" r="2.2" fill="#fff" opacity="0.29"/><circle cx="294" cy="635" r="1.7" fill="#fff" opacity="0.27"/></g>
  <circle cx="256" cy="294" r="196" fill="#c7f7a4" opacity=".12"/><circle cx="256" cy="294" r="154" fill="#fff" opacity=".1"/>
  <ellipse cx="256" cy="662" rx="150" ry="34" fill="#1f6f43" opacity=".28"/>
  <g transform="translate(0 122)">
    <ellipse cx="256" cy="339.2" rx="100.44999999999999" ry="112.74999999999999" fill="url(#body)" filter="url(#softShadow)"/><circle cx="256" cy="226.45" r="79.94999999999999" fill="url(#head)"/><ellipse cx="256" cy="214.15" rx="139.39999999999998" ry="36.9" fill="none" stroke="#c7f7a4" stroke-width="14.349999999999998" opacity=".75" transform="rotate(-12 256 214.15)"/><path d="M256 103.45000000000002 L276.5 154.70000000000002 L333.9 156.75 L286.75 187.5 L303.15 242.85 L256 208 L208.85 242.85 L225.25 187.5 L178.10000000000002 156.75 L235.5 154.70000000000002 Z" fill="#f47ac2"/><ellipse cx="223.2" cy="253.1" rx="14.349999999999998" ry="16.4" fill="#14213d"/><ellipse cx="288.8" cy="253.1" rx="14.349999999999998" ry="16.4" fill="#14213d"/><circle cx="229.35" cy="244.9" r="4.714999999999999" fill="#fff"/><circle cx="294.95" cy="244.9" r="4.714999999999999" fill="#fff"/><circle cx="256" cy="210.05" r="14.349999999999998" fill="#c7f7a4" opacity=".9"/>
  </g>
  <path d="M74 126 C170 65 334 65 438 126" stroke="#fff" stroke-width="16" stroke-linecap="round" opacity=".16"/>
  <path d="M63 676 C162 718 344 718 449 662" stroke="#fff" stroke-width="14" stroke-linecap="round" opacity=".16"/>
</svg>