<svg xmlns="http://www.w3.org/2000/svg" viewBox="0 0 512 768" role="img" aria-label="碧海守神 original portrait">
  
  <defs>
    <linearGradient id="bgp788" x1="0" y1="0" x2="1" y2="1">
      <stop offset="0" stop-color="#9ee8ff"/>
      <stop offset=".55" stop-color="#2397d5"/>
      <stop offset="1" stop-color="#0b4f8f"/>
    </linearGradient>
    <radialGradient id="body" cx=".36" cy=".25" r=".76">
      <stop offset="0" stop-color="#9ee8ff"/>
      <stop offset=".6" stop-color="#2397d5"/>
      <stop offset="1" stop-color="#0b4f8f"/>
    </radialGradient>
    <radialGradient id="head" cx=".36" cy=".26" r=".72">
      <stop offset="0" stop-color="#ffffff" stop-opacity=".85"/>
      <stop offset=".2" stop-color="#9ee8ff"/>
      <stop offset=".72" stop-color="#2397d5"/>
      <stop offset="1" stop-color="#0b4f8f"/>
    </radialGradient>
    <filter id="softShadow" x="-30%" y="-30%" width="160%" height="160%">
      <feDropShadow dx="0" dy="8" stdDeviation="8" flood-color="#0b4f8f" flood-opacity=".35"/>
    </filter>
  </defs>
  <rect width="512" height="768" rx="48" fill="url(#bgp788)"/>
  <rect x="24" y="24" width="464" height="720" rx="40" fill="#ffffff" opacity=".08"/>
  <g opacity=".42"><circle cx="264" cy="758" r="1.4" fill="#fff" opacity="0.35"/><circle cx="418" cy="382" r="1.1" fill="#fff" opacity="0.64"/><circle cx="216" cy="686" r="2.0" fill="#fff" opacity="0.48"/><circle cx="252" cy="185" r="1.2" fill="#fff" opacity="0.44"/><circle cx="433" cy="386" r="2.3" fill="#fff" opacity="0.38"/><circle cx="215" cy="375" r="1.1" fill="#fff" opacity="0.64"/><circle cx="432" cy="223" r="2.4" fill="#fff" opacity="0.36"/><circle cx="251" cy="247" r="1.1" fill="#fff" opacity="0.60"/><circle cx="46" cy="603" r="1.5" fill="#fff" opacity="0.57"/><circle cx="461" cy="512" r="1.0" fill="#fff" opacity="0.33"/><circle cx="455" cy="760" r="1.2" fill="#fff" opacity="0.27"/><circle cx="364" cy="700" r="2.4" fill="#fff" opacity="0.60"/><circle cx="280" cy="173" r="3.2" fill="#fff" opacity="0.69"/><circle cx="357" cy="481" r="2.5" fill="#fff" opacity="0.68"/><circle cx="79" cy="455" r="1.3" fill="#fff" opacity="0.27"/><circle cx="39" cy="7" r="0.9" fill="#fff" opacity="0.58"/><circle cx="307" cy="195" r="3.0" fill="#fff" opacity="0.47"/><circle cx="346" cy="413" r="3.1" fill="#fff" opacity="0.38"/><circle cx="422" cy="519" r="1.2" fill="#fff" opacity="0.35"/><circle cx="228" cy="756" r="0.9" fill="#fff" opacity="0.32"/><circle cx="470" cy="293" r="1.4" fill="#fff" opacity="0.51"/><circle cx="466" cy="553" r="1.0" fill="#fff" opacity="0.49"/><circle cx="402" cy="51" r="2.7" fill="#fff" opacity="0.54"/><circle cx="482" cy="728" r="3.2" fill="#fff" opacity="0.39"/><circle cx="415" cy="754" r="2.3" fill="#fff" opacity="0.56"/><circle cx="23" cy="307" r="3.0" fill="#fff" opacity="0.47"/><circle cx="134" cy="275" r="1.7" fill="#fff" opacity="0.51"/><circle cx="76" cy="235" r="2.1" fill="#fff" opacity="0.56"/></g>
  <path d="M0 585 C86 541 164 618 248 574 C338 526 407 595 512 548 V768 H0Z" fill="#f47ac2" opacity=".2"/><path d="M0 650 C105 610 180 690 282 638 C370 594 426 650 512 618 V768 H0Z" fill="#9ee8ff" opacity=".18"/>
  <ellipse cx="256" cy="662" rx="150" ry="34" fill="#0b4f8f" opacity=".28"/>
  <g transform="translate(0 122)">
    <path d="M110.45000000000002 326.9 L40.75000000000003 240.8 L44.85000000000002 413 Z" fill="#f47ac2" opacity=".86"/><ellipse cx="247.8" cy="322.8" rx="139.39999999999998" ry="88.14999999999999" fill="url(#body)" filter="url(#softShadow)"/><path d="M243.7 242.85 C288.8 136.25 358.5 173.15 342.1 263.35" fill="#f47ac2" opacity=".72"/><path d="M301.1 384.3 C338 458.1 411.79999999999995 413 362.6 359.7" fill="#9ee8ff" opacity=".8"/><circle cx="329.8" cy="292.05" r="14.349999999999998" fill="#101828"/><circle cx="335.95" cy="285.9" r="4.714999999999999" fill="#fff"/><path d="M215 201.85000000000002 Q256 224.4 297 201.85000000000002" stroke="#9ee8ff" stroke-width="10.25" fill="none" stroke-linecap="round" opacity=".8"/>
  </g>
  <path d="M74 126 C170 65 334 65 438 126" stroke="#fff" stroke-width="16" stroke-linecap="round" opacity=".16"/>
  <path d="M63 676 C162 718 344 718 449 662" stroke="#fff" stroke-width="14" stroke-linecap="round" opacity=".16"/>
</svg>