<svg xmlns="http://www.w3.org/2000/svg" viewBox="0 0 512 768" role="img" aria-label="星尘幼灵 original portrait">
  
  <defs>
    <linearGradient id="bgp789" x1="0" y1="0" x2="1" y2="1">
      <stop offset="0" stop-color="#d9dcff"/>
      <stop offset=".55" stop-color="#7276ef"/>
      <stop offset="1" stop-color="#171b62"/>
    </linearGradient>
    <radialGradient id="body" cx=".36" cy=".25" r=".76">
      <stop offset="0" stop-color="#d9dcff"/>
      <stop offset=".6" stop-color="#7276ef"/>
      <stop offset="1" stop-color="#171b62"/>
    </radialGradient>
    <radialGradient id="head" cx=".36" cy=".26" r=".72">
      <stop offset="0" stop-color="#ffffff" stop-opacity=".85"/>
      <stop offset=".2" stop-color="#d9dcff"/>
      <stop offset=".72" stop-color="#7276ef"/>
      <stop offset="1" stop-color="#171b62"/>
    </radialGradient>
    <filter id="softShadow" x="-30%" y="-30%" width="160%" height="160%">
      <feDropShadow dx="0" dy="8" stdDeviation="8" flood-color="#171b62" flood-opacity=".35"/>
    </filter>
  </defs>
  <rect width="512" height="768" rx="48" fill="url(#bgp789)"/>
  <rect x="24" y="24" width="464" height="720" rx="40" fill="#ffffff" opacity=".08"/>
  <g opacity=".42"><circle cx="107" cy="78" r="3.0" fill="#fff" opacity="0.70"/><circle cx="263" cy="321" r="1.0" fill="#fff" opacity="0.53"/><circle cx="135" cy="344" r="1.5" fill="#fff" opacity="0.57"/><circle cx="177" cy="312" r="3.1" fill="#fff" opacity="0.46"/><circle cx="261" cy="716" r="2.8" fill="#fff" opacity="0.28"/><circle cx="11" cy="256" r="2.5" fill="#fff" opacity="0.51"/><circle cx="133" cy="187" r="1.7" fill="#fff" opacity="0.30"/><circle cx="325" cy="90" r="2.8" fill="#fff" opacity="0.67"/><circle cx="124" cy="259" r="2.5" fill="#fff" opacity="0.30"/><circle cx="100" cy="738" r="2.6" fill="#fff" opacity="0.64"/><circle cx="160" cy="678" r="1.9" fill="#fff" opacity="0.31"/><circle cx="6" cy="97" r="2.0" fill="#fff" opacity="0.61"/><circle cx="111" cy="706" r="3.1" fill="#fff" opacity="0.38"/><circle cx="468" cy="40" r="2.7" fill="#fff" opacity="0.34"/><circle cx="82" cy="420" r="1.6" fill="#fff" opacity="0.38"/><circle cx="207" cy="614" r="2.9" fill="#fff" opacity="0.40"/><circle cx="201" cy="230" r="2.0" fill="#fff" opacity="0.67"/><circle cx="264" cy="209" r="3.0" fill="#fff" opacity="0.61"/><circle cx="423" cy="199" r="1.1" fill="#fff" opacity="0.44"/><circle cx="30" cy="247" r="2.3" fill="#fff" opacity="0.38"/><circle cx="84" cy="48" r="2.5" fill="#fff" opacity="0.63"/><circle cx="265" cy="405" r="2.6" fill="#fff" opacity="0.64"/><circle cx="121" cy="705" r="3.1" fill="#fff" opacity="0.28"/><circle cx="253" cy="501" r="2.0" fill="#fff" opacity="0.68"/><circle cx="481" cy="571" r="2.8" fill="#fff" opacity="0.27"/><circle cx="57" cy="38" r="2.4" fill="#fff" opacity="0.26"/><circle cx="479" cy="466" r="1.8" fill="#fff" opacity="0.64"/><circle cx="358" cy="391" r="1.5" fill="#fff" opacity="0.34"/></g>
  <path d="M0 590 C76 555 120 612 197 582 C277 551 327 614 413 581 C462 562 489 570 512 585 V768 H0Z" fill="#171b62" opacity=".22"/>
  <ellipse cx="256" cy="662" rx="150" ry="34" fill="#171b62" opacity=".28"/>
  <g transform="translate(0 122)">
    <path d="M149.4 435.54999999999995 C100.20000000000002 304.35 167.85000000000002 156.75 264.2 154.70000000000002 C379 150.60000000000002 420 298.2 352.35 435.54999999999995 C317.5 400.7 288.8 458.1 256 419.15 C221.15 458.1 188.35000000000002 400.7 149.4 435.54999999999995Z" fill="url(#body)" filter="url(#softShadow)"/><circle cx="219.1" cy="253.1" r="16.4" fill="#1b1638"/><circle cx="292.9" cy="253.1" r="16.4" fill="#1b1638"/><path d="M239.6 312.55 Q256 331 280.6 310.5" stroke="#1b1638" stroke-width="10.25" fill="none" stroke-linecap="round"/><path d="M126.85000000000002 326.9 C40.75000000000003 296.15 83.80000000000001 201.85000000000002 137.10000000000002 238.75" fill="#f2cf62" opacity=".35"/><path d="M385.15 326.9 C471.25 296.15 428.2 201.85000000000002 374.9 238.75" fill="#f2cf62" opacity=".35"/><circle cx="256" cy="210.05" r="14.349999999999998" fill="#d9dcff" opacity=".9"/>
  </g>
  <path d="M74 126 C170 65 334 65 438 126" stroke="#fff" stroke-width="16" stroke-linecap="round" opacity=".16"/>
  <path d="M63 676 C162 718 344 718 449 662" stroke="#fff" stroke-width="14" stroke-linecap="round" opacity=".16"/>
</svg>