<svg xmlns="http://www.w3.org/2000/svg" viewBox="0 0 512 768" role="img" aria-label="金茧星胎 original portrait">
  
  <defs>
    <linearGradient id="bgp790" x1="0" y1="0" x2="1" y2="1">
      <stop offset="0" stop-color="#d9dcff"/>
      <stop offset=".55" stop-color="#7276ef"/>
      <stop offset="1" stop-color="#171b62"/>
    </linearGradient>
    <radialGradient id="body" cx=".36" cy=".25" r=".76">
      <stop offset="0" stop-color="#d9dcff"/>
      <stop offset=".6" stop-color="#7276ef"/>
      <stop offset="1" stop-color="#171b62"/>
    </radialGradient>
    <radialGradient id="head" cx=".36" cy=".26" r=".72">
      <stop offset="0" stop-color="#ffffff" stop-opacity=".85"/>
      <stop offset=".2" stop-color="#d9dcff"/>
      <stop offset=".72" stop-color="#7276ef"/>
      <stop offset="1" stop-color="#171b62"/>
    </radialGradient>
    <filter id="softShadow" x="-30%" y="-30%" width="160%" height="160%">
      <feDropShadow dx="0" dy="8" stdDeviation="8" flood-color="#171b62" flood-opacity=".35"/>
    </filter>
  </defs>
  <rect width="512" height="768" rx="48" fill="url(#bgp790)"/>
  <rect x="24" y="24" width="464" height="720" rx="40" fill="#ffffff" opacity=".08"/>
  <g opacity=".42"><circle cx="304" cy="611" r="2.8" fill="#fff" opacity="0.25"/><circle cx="476" cy="733" r="1.9" fill="#fff" opacity="0.62"/><circle cx="311" cy="316" r="1.0" fill="#fff" opacity="0.31"/><circle cx="413" cy="218" r="2.0" fill="#fff" opacity="0.61"/><circle cx="467" cy="517" r="2.6" fill="#fff" opacity="0.36"/><circle cx="95" cy="699" r="1.4" fill="#fff" opacity="0.51"/><circle cx="106" cy="536" r="1.0" fill="#fff" opacity="0.33"/><circle cx="25" cy="341" r="2.8" fill="#fff" opacity="0.45"/><circle cx="227" cy="253" r="1.5" fill="#fff" opacity="0.64"/><circle cx="43" cy="219" r="2.5" fill="#fff" opacity="0.56"/><circle cx="267" cy="745" r="2.9" fill="#fff" opacity="0.32"/><circle cx="459" cy="348" r="1.9" fill="#fff" opacity="0.51"/><circle cx="146" cy="245" r="0.9" fill="#fff" opacity="0.46"/><circle cx="97" cy="23" r="1.6" fill="#fff" opacity="0.62"/><circle cx="105" cy="494" r="2.6" fill="#fff" opacity="0.42"/><circle cx="5" cy="482" r="2.3" fill="#fff" opacity="0.52"/><circle cx="229" cy="120" r="1.5" fill="#fff" opacity="0.36"/><circle cx="95" cy="537" r="1.8" fill="#fff" opacity="0.43"/><circle cx="148" cy="3" r="0.9" fill="#fff" opacity="0.61"/><circle cx="162" cy="20" r="2.1" fill="#fff" opacity="0.59"/><circle cx="406" cy="513" r="2.5" fill="#fff" opacity="0.60"/><circle cx="344" cy="155" r="3.1" fill="#fff" opacity="0.32"/><circle cx="57" cy="7" r="2.2" fill="#fff" opacity="0.26"/><circle cx="32" cy="419" r="1.1" fill="#fff" opacity="0.59"/><circle cx="437" cy="246" r="2.3" fill="#fff" opacity="0.37"/><circle cx="117" cy="672" r="2.9" fill="#fff" opacity="0.61"/><circle cx="289" cy="129" r="2.4" fill="#fff" opacity="0.43"/><circle cx="381" cy="223" r="1.6" fill="#fff" opacity="0.57"/></g>
  <path d="M69 625 C150 571 359 568 443 628" fill="#f2cf62" opacity=".14"/>
  <ellipse cx="256" cy="662" rx="150" ry="34" fill="#171b62" opacity=".28"/>
  <g transform="translate(0 122)">
    <ellipse cx="178.10000000000002" cy="257.2" rx="69.69999999999999" ry="100.44999999999999" fill="#d9dcff" opacity=".55"/><ellipse cx="333.9" cy="257.2" rx="69.69999999999999" ry="100.44999999999999" fill="#d9dcff" opacity=".55"/><ellipse cx="256" cy="331" rx="65.6" ry="122.99999999999999" fill="url(#body)" filter="url(#softShadow)"/><circle cx="256" cy="214.15" r="69.69999999999999" fill="url(#head)"/><path d="M219.1 160.85000000000002 Q174 93.20000000000002 118.65 117.80000000000001" stroke="#80651c" stroke-width="10.25" fill="none" stroke-linecap="round"/><path d="M292.9 160.85000000000002 Q338 93.20000000000002 393.35 117.80000000000001" stroke="#80651c" stroke-width="10.25" fill="none" stroke-linecap="round"/><path d="M198.60000000000002 322.8 H313.4 M206.8 376.1 H305.2" stroke="#171b62" stroke-width="8.2" opacity=".35"/><ellipse cx="223.2" cy="253.1" rx="14.349999999999998" ry="16.4" fill="#14213d"/><ellipse cx="288.8" cy="253.1" rx="14.349999999999998" ry="16.4" fill="#14213d"/><circle cx="229.35" cy="244.9" r="4.714999999999999" fill="#fff"/><circle cx="294.95" cy="244.9" r="4.714999999999999" fill="#fff"/><circle cx="256" cy="210.05" r="14.349999999999998" fill="#d9dcff" opacity=".9"/>
  </g>
  <path d="M74 126 C170 65 334 65 438 126" stroke="#fff" stroke-width="16" stroke-linecap="round" opacity=".16"/>
  <path d="M63 676 C162 718 344 718 449 662" stroke="#fff" stroke-width="14" stroke-linecap="round" opacity=".16"/>
</svg>