<svg xmlns="http://www.w3.org/2000/svg" viewBox="0 0 512 768" role="img" aria-label="月华蝠灵 original portrait">
  
  <defs>
    <linearGradient id="bgp792" x1="0" y1="0" x2="1" y2="1">
      <stop offset="0" stop-color="#d5c6ff"/>
      <stop offset=".55" stop-color="#7367b8"/>
      <stop offset="1" stop-color="#2d2357"/>
    </linearGradient>
    <radialGradient id="body" cx=".36" cy=".25" r=".76">
      <stop offset="0" stop-color="#d5c6ff"/>
      <stop offset=".6" stop-color="#7367b8"/>
      <stop offset="1" stop-color="#2d2357"/>
    </radialGradient>
    <radialGradient id="head" cx=".36" cy=".26" r=".72">
      <stop offset="0" stop-color="#ffffff" stop-opacity=".85"/>
      <stop offset=".2" stop-color="#d5c6ff"/>
      <stop offset=".72" stop-color="#7367b8"/>
      <stop offset="1" stop-color="#2d2357"/>
    </radialGradient>
    <filter id="softShadow" x="-30%" y="-30%" width="160%" height="160%">
      <feDropShadow dx="0" dy="8" stdDeviation="8" flood-color="#2d2357" flood-opacity=".35"/>
    </filter>
  </defs>
  <rect width="512" height="768" rx="48" fill="url(#bgp792)"/>
  <rect x="24" y="24" width="464" height="720" rx="40" fill="#ffffff" opacity=".08"/>
  <g opacity=".42"><circle cx="20" cy="518" r="2.1" fill="#fff" opacity="0.51"/><circle cx="114" cy="98" r="2.4" fill="#fff" opacity="0.39"/><circle cx="95" cy="639" r="2.0" fill="#fff" opacity="0.36"/><circle cx="423" cy="427" r="1.0" fill="#fff" opacity="0.33"/><circle cx="370" cy="666" r="1.3" fill="#fff" opacity="0.42"/><circle cx="151" cy="506" r="2.8" fill="#fff" opacity="0.33"/><circle cx="283" cy="748" r="1.5" fill="#fff" opacity="0.26"/><circle cx="296" cy="400" r="3.1" fill="#fff" opacity="0.41"/><circle cx="448" cy="433" r="2.4" fill="#fff" opacity="0.35"/><circle cx="503" cy="365" r="2.4" fill="#fff" opacity="0.54"/><circle cx="320" cy="438" r="2.6" fill="#fff" opacity="0.30"/><circle cx="135" cy="341" r="1.2" fill="#fff" opacity="0.41"/><circle cx="287" cy="72" r="1.7" fill="#fff" opacity="0.57"/><circle cx="13" cy="213" r="1.7" fill="#fff" opacity="0.55"/><circle cx="263" cy="206" r="2.2" fill="#fff" opacity="0.66"/><circle cx="356" cy="440" r="0.9" fill="#fff" opacity="0.43"/><circle cx="334" cy="625" r="0.9" fill="#fff" opacity="0.56"/><circle cx="362" cy="24" r="2.4" fill="#fff" opacity="0.59"/><circle cx="138" cy="276" r="2.7" fill="#fff" opacity="0.62"/><circle cx="341" cy="49" r="1.3" fill="#fff" opacity="0.66"/><circle cx="408" cy="550" r="1.5" fill="#fff" opacity="0.58"/><circle cx="15" cy="119" r="1.5" fill="#fff" opacity="0.27"/><circle cx="452" cy="294" r="2.4" fill="#fff" opacity="0.32"/><circle cx="3" cy="426" r="2.4" fill="#fff" opacity="0.55"/><circle cx="264" cy="15" r="1.7" fill="#fff" opacity="0.39"/><circle cx="448" cy="433" r="1.3" fill="#fff" opacity="0.43"/><circle cx="147" cy="197" r="1.3" fill="#fff" opacity="0.68"/><circle cx="253" cy="240" r="0.9" fill="#fff" opacity="0.69"/></g>
  <path d="M0 620 C92 590 171 620 259 600 C357 577 432 594 512 565 V768 H0Z" fill="#fff" opacity=".18"/>
  <ellipse cx="256" cy="662" rx="150" ry="34" fill="#2d2357" opacity=".28"/>
  <g transform="translate(0 122)">
    <path d="M219.1 306.4 C65.35000000000002 187.5 67.4 392.5 206.8 400.7" fill="#7276ef" opacity=".78"/><path d="M292.9 306.4 C446.65 187.5 444.6 392.5 305.2 400.7" fill="#7276ef" opacity=".78"/><ellipse cx="256" cy="343.3" rx="86.1" ry="110.69999999999999" fill="url(#body)" filter="url(#softShadow)"/><circle cx="256" cy="228.5" r="77.89999999999999" fill="url(#head)"/><path d="M245.75 226.45 L331.85 249 L249.85 269.5 Z" fill="#d5c6ff"/><path d="M210.9 154.70000000000002 C239.6 89.10000000000002 280.6 109.60000000000002 260.1 167" fill="#171b62" opacity=".85"/><ellipse cx="223.2" cy="253.1" rx="14.349999999999998" ry="16.4" fill="#14213d"/><ellipse cx="288.8" cy="253.1" rx="14.349999999999998" ry="16.4" fill="#14213d"/><circle cx="229.35" cy="244.9" r="4.714999999999999" fill="#fff"/><circle cx="294.95" cy="244.9" r="4.714999999999999" fill="#fff"/><circle cx="256" cy="210.05" r="14.349999999999998" fill="#d5c6ff" opacity=".9"/>
  </g>
  <path d="M74 126 C170 65 334 65 438 126" stroke="#fff" stroke-width="16" stroke-linecap="round" opacity=".16"/>
  <path d="M63 676 C162 718 344 718 449 662" stroke="#fff" stroke-width="14" stroke-linecap="round" opacity=".16"/>
</svg>