<svg xmlns="http://www.w3.org/2000/svg" viewBox="0 0 512 768" role="img" aria-label="纤影飞仙 original portrait">
  
  <defs>
    <linearGradient id="bgp795" x1="0" y1="0" x2="1" y2="1">
      <stop offset="0" stop-color="#d9f67f"/>
      <stop offset=".55" stop-color="#86bd2d"/>
      <stop offset="1" stop-color="#3f6c1b"/>
    </linearGradient>
    <radialGradient id="body" cx=".36" cy=".25" r=".76">
      <stop offset="0" stop-color="#d9f67f"/>
      <stop offset=".6" stop-color="#86bd2d"/>
      <stop offset="1" stop-color="#3f6c1b"/>
    </radialGradient>
    <radialGradient id="head" cx=".36" cy=".26" r=".72">
      <stop offset="0" stop-color="#ffffff" stop-opacity=".85"/>
      <stop offset=".2" stop-color="#d9f67f"/>
      <stop offset=".72" stop-color="#86bd2d"/>
      <stop offset="1" stop-color="#3f6c1b"/>
    </radialGradient>
    <filter id="softShadow" x="-30%" y="-30%" width="160%" height="160%">
      <feDropShadow dx="0" dy="8" stdDeviation="8" flood-color="#3f6c1b" flood-opacity=".35"/>
    </filter>
  </defs>
  <rect width="512" height="768" rx="48" fill="url(#bgp795)"/>
  <rect x="24" y="24" width="464" height="720" rx="40" fill="#ffffff" opacity=".08"/>
  <g opacity=".42"><circle cx="304" cy="717" r="1.2" fill="#fff" opacity="0.29"/><circle cx="466" cy="36" r="2.1" fill="#fff" opacity="0.36"/><circle cx="172" cy="595" r="2.7" fill="#fff" opacity="0.62"/><circle cx="489" cy="313" r="2.2" fill="#fff" opacity="0.55"/><circle cx="237" cy="498" r="2.9" fill="#fff" opacity="0.26"/><circle cx="333" cy="247" r="2.5" fill="#fff" opacity="0.47"/><circle cx="132" cy="634" r="2.2" fill="#fff" opacity="0.32"/><circle cx="421" cy="735" r="2.1" fill="#fff" opacity="0.67"/><circle cx="426" cy="114" r="0.9" fill="#fff" opacity="0.68"/><circle cx="494" cy="660" r="2.7" fill="#fff" opacity="0.31"/><circle cx="187" cy="60" r="1.8" fill="#fff" opacity="0.40"/><circle cx="282" cy="214" r="2.5" fill="#fff" opacity="0.31"/><circle cx="436" cy="405" r="1.1" fill="#fff" opacity="0.25"/><circle cx="391" cy="460" r="1.2" fill="#fff" opacity="0.45"/><circle cx="408" cy="664" r="2.6" fill="#fff" opacity="0.37"/><circle cx="45" cy="727" r="1.4" fill="#fff" opacity="0.28"/><circle cx="24" cy="586" r="1.9" fill="#fff" opacity="0.63"/><circle cx="459" cy="748" r="1.8" fill="#fff" opacity="0.36"/><circle cx="71" cy="329" r="2.8" fill="#fff" opacity="0.53"/><circle cx="248" cy="633" r="2.2" fill="#fff" opacity="0.57"/><circle cx="228" cy="217" r="2.7" fill="#fff" opacity="0.44"/><circle cx="491" cy="416" r="2.1" fill="#fff" opacity="0.33"/><circle cx="194" cy="331" r="1.1" fill="#fff" opacity="0.48"/><circle cx="232" cy="652" r="2.3" fill="#fff" opacity="0.45"/><circle cx="488" cy="187" r="2.4" fill="#fff" opacity="0.66"/><circle cx="297" cy="386" r="0.9" fill="#fff" opacity="0.30"/><circle cx="160" cy="738" r="1.6" fill="#fff" opacity="0.48"/><circle cx="489" cy="585" r="3.1" fill="#fff" opacity="0.56"/></g>
  <path d="M0 620 C92 590 171 620 259 600 C357 577 432 594 512 565 V768 H0Z" fill="#fff" opacity=".18"/>
  <ellipse cx="256" cy="662" rx="150" ry="34" fill="#3f6c1b" opacity=".28"/>
  <g transform="translate(0 122)">
    <path d="M219.1 306.4 C65.35000000000002 187.5 67.4 392.5 206.8 400.7" fill="#f2cf62" opacity=".78"/><path d="M292.9 306.4 C446.65 187.5 444.6 392.5 305.2 400.7" fill="#f2cf62" opacity=".78"/><ellipse cx="256" cy="343.3" rx="86.1" ry="110.69999999999999" fill="url(#body)" filter="url(#softShadow)"/><circle cx="256" cy="228.5" r="77.89999999999999" fill="url(#head)"/><path d="M245.75 226.45 L331.85 249 L249.85 269.5 Z" fill="#d9f67f"/><path d="M210.9 154.70000000000002 C239.6 89.10000000000002 280.6 109.60000000000002 260.1 167" fill="#80651c" opacity=".85"/><ellipse cx="223.2" cy="253.1" rx="14.349999999999998" ry="16.4" fill="#14213d"/><ellipse cx="288.8" cy="253.1" rx="14.349999999999998" ry="16.4" fill="#14213d"/><circle cx="229.35" cy="244.9" r="4.714999999999999" fill="#fff"/><circle cx="294.95" cy="244.9" r="4.714999999999999" fill="#fff"/><circle cx="256" cy="210.05" r="14.349999999999998" fill="#d9f67f" opacity=".9"/>
  </g>
  <path d="M74 126 C170 65 334 65 438 126" stroke="#fff" stroke-width="16" stroke-linecap="round" opacity=".16"/>
  <path d="M63 676 C162 718 344 718 449 662" stroke="#fff" stroke-width="14" stroke-linecap="round" opacity=".16"/>
</svg>