<svg xmlns="http://www.w3.org/2000/svg" viewBox="0 0 512 768" role="img" aria-label="天铁竹灵 original portrait">
  
  <defs>
    <linearGradient id="bgp797" x1="0" y1="0" x2="1" y2="1">
      <stop offset="0" stop-color="#e8edf2"/>
      <stop offset=".55" stop-color="#9aa8b7"/>
      <stop offset="1" stop-color="#536271"/>
    </linearGradient>
    <radialGradient id="body" cx=".36" cy=".25" r=".76">
      <stop offset="0" stop-color="#e8edf2"/>
      <stop offset=".6" stop-color="#9aa8b7"/>
      <stop offset="1" stop-color="#536271"/>
    </radialGradient>
    <radialGradient id="head" cx=".36" cy=".26" r=".72">
      <stop offset="0" stop-color="#ffffff" stop-opacity=".85"/>
      <stop offset=".2" stop-color="#e8edf2"/>
      <stop offset=".72" stop-color="#9aa8b7"/>
      <stop offset="1" stop-color="#536271"/>
    </radialGradient>
    <filter id="softShadow" x="-30%" y="-30%" width="160%" height="160%">
      <feDropShadow dx="0" dy="8" stdDeviation="8" flood-color="#536271" flood-opacity=".35"/>
    </filter>
  </defs>
  <rect width="512" height="768" rx="48" fill="url(#bgp797)"/>
  <rect x="24" y="24" width="464" height="720" rx="40" fill="#ffffff" opacity=".08"/>
  <g opacity=".42"><circle cx="225" cy="162" r="2.4" fill="#fff" opacity="0.46"/><circle cx="136" cy="123" r="1.7" fill="#fff" opacity="0.41"/><circle cx="67" cy="631" r="1.5" fill="#fff" opacity="0.53"/><circle cx="312" cy="467" r="2.2" fill="#fff" opacity="0.62"/><circle cx="372" cy="284" r="2.5" fill="#fff" opacity="0.67"/><circle cx="32" cy="124" r="2.3" fill="#fff" opacity="0.67"/><circle cx="314" cy="187" r="1.3" fill="#fff" opacity="0.61"/><circle cx="326" cy="177" r="1.6" fill="#fff" opacity="0.64"/><circle cx="280" cy="697" r="1.1" fill="#fff" opacity="0.41"/><circle cx="286" cy="59" r="1.7" fill="#fff" opacity="0.29"/><circle cx="137" cy="42" r="2.6" fill="#fff" opacity="0.59"/><circle cx="375" cy="183" r="0.9" fill="#fff" opacity="0.34"/><circle cx="203" cy="624" r="2.1" fill="#fff" opacity="0.62"/><circle cx="326" cy="569" r="1.6" fill="#fff" opacity="0.47"/><circle cx="240" cy="436" r="1.3" fill="#fff" opacity="0.42"/><circle cx="302" cy="560" r="1.9" fill="#fff" opacity="0.60"/><circle cx="0" cy="32" r="1.0" fill="#fff" opacity="0.55"/><circle cx="40" cy="725" r="2.5" fill="#fff" opacity="0.56"/><circle cx="149" cy="230" r="1.6" fill="#fff" opacity="0.65"/><circle cx="240" cy="119" r="2.3" fill="#fff" opacity="0.49"/><circle cx="484" cy="204" r="3.0" fill="#fff" opacity="0.40"/><circle cx="92" cy="757" r="2.1" fill="#fff" opacity="0.29"/><circle cx="452" cy="465" r="2.2" fill="#fff" opacity="0.39"/><circle cx="419" cy="659" r="2.6" fill="#fff" opacity="0.53"/><circle cx="421" cy="170" r="3.2" fill="#fff" opacity="0.48"/><circle cx="473" cy="134" r="1.3" fill="#fff" opacity="0.51"/><circle cx="55" cy="555" r="1.4" fill="#fff" opacity="0.46"/><circle cx="176" cy="88" r="2.4" fill="#fff" opacity="0.56"/></g>
  <path d="M24 680 L110 610 L186 666 L272 592 L356 674 L445 626 L512 704 V768 H0V704Z" fill="#536271" opacity=".18"/>
  <ellipse cx="256" cy="662" rx="150" ry="34" fill="#536271" opacity=".28"/>
  <g transform="translate(0 122)">
    <path d="M149.4 228.5 L219.1 156.75 H311.35 L376.95 242.85 L346.2 394.55 H163.75 Z" fill="url(#body)" filter="url(#softShadow)"/><path d="M198.60000000000002 179.3 L245.75 91.15 L280.6 171.10000000000002 Z" fill="#e8edf2"/><path d="M290.85 183.4 L344.15 113.70000000000002 L342.1 210.05 Z" fill="#82b7ff"/><rect x="194.5" y="277.7" width="122.99999999999999" height="30.749999999999996" rx="14.349999999999998" fill="#536271" opacity=".38"/><circle cx="227.3" cy="292.05" r="10.25" fill="#e8edf2"/><circle cx="284.7" cy="292.05" r="10.25" fill="#e8edf2"/><circle cx="256" cy="210.05" r="14.349999999999998" fill="#e8edf2" opacity=".9"/>
  </g>
  <path d="M74 126 C170 65 334 65 438 126" stroke="#fff" stroke-width="16" stroke-linecap="round" opacity=".16"/>
  <path d="M63 676 C162 718 344 718 449 662" stroke="#fff" stroke-width="14" stroke-linecap="round" opacity=".16"/>
</svg>