<svg xmlns="http://www.w3.org/2000/svg" viewBox="0 0 512 768" role="img" aria-label="纸刃剑仙 original portrait">
  
  <defs>
    <linearGradient id="bgp798" x1="0" y1="0" x2="1" y2="1">
      <stop offset="0" stop-color="#c7f7a4"/>
      <stop offset=".55" stop-color="#43b957"/>
      <stop offset="1" stop-color="#1f6f43"/>
    </linearGradient>
    <radialGradient id="body" cx=".36" cy=".25" r=".76">
      <stop offset="0" stop-color="#c7f7a4"/>
      <stop offset=".6" stop-color="#43b957"/>
      <stop offset="1" stop-color="#1f6f43"/>
    </radialGradient>
    <radialGradient id="head" cx=".36" cy=".26" r=".72">
      <stop offset="0" stop-color="#ffffff" stop-opacity=".85"/>
      <stop offset=".2" stop-color="#c7f7a4"/>
      <stop offset=".72" stop-color="#43b957"/>
      <stop offset="1" stop-color="#1f6f43"/>
    </radialGradient>
    <filter id="softShadow" x="-30%" y="-30%" width="160%" height="160%">
      <feDropShadow dx="0" dy="8" stdDeviation="8" flood-color="#1f6f43" flood-opacity=".35"/>
    </filter>
  </defs>
  <rect width="512" height="768" rx="48" fill="url(#bgp798)"/>
  <rect x="24" y="24" width="464" height="720" rx="40" fill="#ffffff" opacity=".08"/>
  <g opacity=".42"><circle cx="118" cy="629" r="2.3" fill="#fff" opacity="0.65"/><circle cx="121" cy="666" r="1.2" fill="#fff" opacity="0.35"/><circle cx="241" cy="445" r="2.5" fill="#fff" opacity="0.69"/><circle cx="154" cy="415" r="1.0" fill="#fff" opacity="0.55"/><circle cx="379" cy="63" r="2.7" fill="#fff" opacity="0.60"/><circle cx="465" cy="745" r="1.5" fill="#fff" opacity="0.42"/><circle cx="239" cy="619" r="0.8" fill="#fff" opacity="0.48"/><circle cx="388" cy="312" r="1.7" fill="#fff" opacity="0.37"/><circle cx="234" cy="654" r="2.1" fill="#fff" opacity="0.27"/><circle cx="412" cy="633" r="0.9" fill="#fff" opacity="0.31"/><circle cx="183" cy="465" r="2.1" fill="#fff" opacity="0.67"/><circle cx="92" cy="468" r="2.5" fill="#fff" opacity="0.45"/><circle cx="45" cy="371" r="2.7" fill="#fff" opacity="0.30"/><circle cx="123" cy="208" r="1.5" fill="#fff" opacity="0.44"/><circle cx="36" cy="49" r="1.1" fill="#fff" opacity="0.35"/><circle cx="307" cy="193" r="1.9" fill="#fff" opacity="0.30"/><circle cx="339" cy="760" r="1.2" fill="#fff" opacity="0.32"/><circle cx="35" cy="363" r="2.1" fill="#fff" opacity="0.58"/><circle cx="247" cy="416" r="2.7" fill="#fff" opacity="0.37"/><circle cx="376" cy="603" r="1.6" fill="#fff" opacity="0.43"/><circle cx="130" cy="389" r="1.7" fill="#fff" opacity="0.55"/><circle cx="48" cy="732" r="2.3" fill="#fff" opacity="0.29"/><circle cx="438" cy="458" r="2.8" fill="#fff" opacity="0.48"/><circle cx="123" cy="698" r="1.9" fill="#fff" opacity="0.43"/><circle cx="382" cy="129" r="1.8" fill="#fff" opacity="0.25"/><circle cx="167" cy="560" r="2.7" fill="#fff" opacity="0.59"/><circle cx="78" cy="94" r="1.3" fill="#fff" opacity="0.53"/><circle cx="441" cy="200" r="1.5" fill="#fff" opacity="0.53"/></g>
  <path d="M38 684 C128 596 386 596 475 684 V768 H38Z" fill="#1f6f43" opacity=".17"/>
  <ellipse cx="256" cy="662" rx="150" ry="34" fill="#1f6f43" opacity=".28"/>
  <g transform="translate(0 122)">
    <ellipse cx="256" cy="359.7" rx="110.69999999999999" ry="100.44999999999999" fill="url(#body)" filter="url(#softShadow)"/><circle cx="256" cy="232.60000000000002" r="86.1" fill="url(#head)"/><path d="M149.4 322.8 C51.00000000000003 304.35 85.85000000000002 423.25 165.8 402.75" fill="#536271"/><path d="M362.6 322.8 C461 304.35 426.15 423.25 346.2 402.75" fill="#536271"/><path d="M200.65 148.55 H311.35 L331.85 195.7 Q256 224.4 180.15 195.7 Z" fill="#c7f7a4" opacity=".85"/><ellipse cx="223.2" cy="253.1" rx="14.349999999999998" ry="16.4" fill="#14213d"/><ellipse cx="288.8" cy="253.1" rx="14.349999999999998" ry="16.4" fill="#14213d"/><circle cx="229.35" cy="244.9" r="4.714999999999999" fill="#fff"/><circle cx="294.95" cy="244.9" r="4.714999999999999" fill="#fff"/><path d="M215 201.85000000000002 Q256 224.4 297 201.85000000000002" stroke="#c7f7a4" stroke-width="10.25" fill="none" stroke-linecap="round" opacity=".8"/>
  </g>
  <path d="M74 126 C170 65 334 65 438 126" stroke="#fff" stroke-width="16" stroke-linecap="round" opacity=".16"/>
  <path d="M63 676 C162 718 344 718 449 662" stroke="#fff" stroke-width="14" stroke-linecap="round" opacity=".16"/>
</svg>