<svg xmlns="http://www.w3.org/2000/svg" viewBox="0 0 512 768" role="img" aria-label="永劫魔龙 original portrait">
  
  <defs>
    <linearGradient id="bgp800" x1="0" y1="0" x2="1" y2="1">
      <stop offset="0" stop-color="#fffbe0"/>
      <stop offset=".55" stop-color="#f2cf62"/>
      <stop offset="1" stop-color="#80651c"/>
    </linearGradient>
    <radialGradient id="body" cx=".36" cy=".25" r=".76">
      <stop offset="0" stop-color="#fffbe0"/>
      <stop offset=".6" stop-color="#f2cf62"/>
      <stop offset="1" stop-color="#80651c"/>
    </radialGradient>
    <radialGradient id="head" cx=".36" cy=".26" r=".72">
      <stop offset="0" stop-color="#ffffff" stop-opacity=".85"/>
      <stop offset=".2" stop-color="#fffbe0"/>
      <stop offset=".72" stop-color="#f2cf62"/>
      <stop offset="1" stop-color="#80651c"/>
    </radialGradient>
    <filter id="softShadow" x="-30%" y="-30%" width="160%" height="160%">
      <feDropShadow dx="0" dy="8" stdDeviation="8" flood-color="#80651c" flood-opacity=".35"/>
    </filter>
  </defs>
  <rect width="512" height="768" rx="48" fill="url(#bgp800)"/>
  <rect x="24" y="24" width="464" height="720" rx="40" fill="#ffffff" opacity=".08"/>
  <g opacity=".42"><circle cx="234" cy="731" r="1.3" fill="#fff" opacity="0.40"/><circle cx="63" cy="698" r="3.0" fill="#fff" opacity="0.66"/><circle cx="309" cy="34" r="2.8" fill="#fff" opacity="0.70"/><circle cx="296" cy="343" r="1.8" fill="#fff" opacity="0.62"/><circle cx="249" cy="226" r="2.4" fill="#fff" opacity="0.33"/><circle cx="247" cy="48" r="1.6" fill="#fff" opacity="0.45"/><circle cx="173" cy="599" r="0.9" fill="#fff" opacity="0.27"/><circle cx="81" cy="463" r="3.0" fill="#fff" opacity="0.34"/><circle cx="414" cy="355" r="1.1" fill="#fff" opacity="0.47"/><circle cx="202" cy="601" r="2.8" fill="#fff" opacity="0.55"/><circle cx="61" cy="485" r="2.0" fill="#fff" opacity="0.36"/><circle cx="131" cy="304" r="1.9" fill="#fff" opacity="0.67"/><circle cx="143" cy="726" r="0.9" fill="#fff" opacity="0.52"/><circle cx="40" cy="371" r="2.4" fill="#fff" opacity="0.40"/><circle cx="190" cy="32" r="1.9" fill="#fff" opacity="0.69"/><circle cx="231" cy="548" r="1.7" fill="#fff" opacity="0.62"/><circle cx="158" cy="142" r="3.1" fill="#fff" opacity="0.42"/><circle cx="373" cy="162" r="1.2" fill="#fff" opacity="0.27"/><circle cx="396" cy="578" r="2.3" fill="#fff" opacity="0.37"/><circle cx="64" cy="603" r="1.0" fill="#fff" opacity="0.63"/><circle cx="488" cy="327" r="3.0" fill="#fff" opacity="0.45"/><circle cx="288" cy="179" r="2.6" fill="#fff" opacity="0.50"/><circle cx="184" cy="525" r="2.4" fill="#fff" opacity="0.39"/><circle cx="388" cy="528" r="3.1" fill="#fff" opacity="0.63"/><circle cx="332" cy="402" r="2.8" fill="#fff" opacity="0.29"/><circle cx="443" cy="667" r="1.9" fill="#fff" opacity="0.28"/><circle cx="103" cy="220" r="2.8" fill="#fff" opacity="0.59"/><circle cx="128" cy="29" r="2.9" fill="#fff" opacity="0.43"/></g>
  <path d="M70 600 C142 504 297 500 443 610" fill="#80651c" opacity=".18"/><path d="M52 642 C146 578 341 580 471 650" fill="#171b62" opacity=".16"/>
  <ellipse cx="256" cy="662" rx="150" ry="34" fill="#80651c" opacity=".28"/>
  <g transform="translate(0 122)">
    <path d="M108.4 347.4 C161.7 224.4 292.9 175.20000000000002 389.25 253.1 C325.7 249 276.5 285.9 247.8 376.1" fill="#80651c" opacity=".45"/><ellipse cx="256" cy="335.1" rx="110.69999999999999" ry="92.24999999999999" fill="url(#body)" filter="url(#softShadow)"/><path d="M167.85000000000002 253.1 L219.1 130.10000000000002 L249.85 244.9 Z" fill="#7276ef"/><path d="M344.15 253.1 L292.9 130.10000000000002 L262.15 244.9 Z" fill="#7276ef"/><ellipse cx="256" cy="267.45" rx="96.35" ry="86.1" fill="url(#head)"/><path d="M151.45 292.05 Q87.9 298.2 63.30000000000001 253.1" stroke="#fffbe0" stroke-width="10.25" fill="none" stroke-linecap="round" opacity=".85"/><path d="M360.55 292.05 Q424.1 298.2 448.7 253.1" stroke="#fffbe0" stroke-width="10.25" fill="none" stroke-linecap="round" opacity=".85"/><ellipse cx="223.2" cy="253.1" rx="14.349999999999998" ry="16.4" fill="#14213d"/><ellipse cx="288.8" cy="253.1" rx="14.349999999999998" ry="16.4" fill="#14213d"/><circle cx="229.35" cy="244.9" r="4.714999999999999" fill="#fff"/><circle cx="294.95" cy="244.9" r="4.714999999999999" fill="#fff"/><circle cx="256" cy="210.05" r="14.349999999999998" fill="#fffbe0" opacity=".9"/>
  </g>
  <path d="M74 126 C170 65 334 65 438 126" stroke="#fff" stroke-width="16" stroke-linecap="round" opacity=".16"/>
  <path d="M63 676 C162 718 344 718 449 662" stroke="#fff" stroke-width="14" stroke-linecap="round" opacity=".16"/>
</svg>