<svg xmlns="http://www.w3.org/2000/svg" viewBox="0 0 512 768" role="img" aria-label="沙漏幼虫 unique portrait">
  <defs>
    <linearGradient id="bg801" x1="0" y1="0" x2="1" y2="1"><stop offset="0" stop-color="#e9d5ff"/><stop offset=".55" stop-color="#8b5cf6"/><stop offset="1" stop-color="#312e81"/></linearGradient>
    <radialGradient id="body801" cx=".35" cy=".24" r=".78"><stop offset="0" stop-color="#fff" stop-opacity=".88"/><stop offset=".18" stop-color="#e9d5ff"/><stop offset=".68" stop-color="#8b5cf6"/><stop offset="1" stop-color="#312e81"/></radialGradient>
    <filter id="shadow801" x="-30%" y="-30%" width="160%" height="160%"><feDropShadow dx="0" dy="10" stdDeviation="9" flood-color="#312e81" flood-opacity=".36"/></filter>
  </defs>
  <rect width="512" height="768" rx="48" fill="url(#bg801)"/>
  <rect x="24" y="24" width="464" height="720" rx="40" fill="#fff" opacity=".08"/>
  <g opacity=".46"><circle cx="96" cy="578" r="1.9" fill="#fff" opacity="0.55"/><circle cx="53" cy="540" r="1.6" fill="#fff" opacity="0.27"/><circle cx="415" cy="148" r="4.8" fill="#fff" opacity="0.31"/><circle cx="110" cy="59" r="5.3" fill="#fff" opacity="0.29"/><circle cx="361" cy="593" r="2.3" fill="#fff" opacity="0.49"/><circle cx="70" cy="201" r="2.4" fill="#fff" opacity="0.40"/><circle cx="323" cy="327" r="3.0" fill="#fff" opacity="0.27"/><circle cx="267" cy="391" r="1.4" fill="#fff" opacity="0.63"/><circle cx="308" cy="342" r="2.4" fill="#fff" opacity="0.53"/><circle cx="278" cy="170" r="3.5" fill="#fff" opacity="0.51"/></g>
  <path d="M0 596 C80 558 128 616 202 584 C281 550 332 618 418 582 C464 563 492 570 512 586 V768 H0Z" fill="#312e81" opacity=".22"/>
  <ellipse cx="256" cy="664" rx="154" ry="36" fill="#312e81" opacity=".3"/>
  <g transform="translate(0 84)"><path d="M178 196 L133 114 L221 170 Z" fill="#8b5cf6" opacity=".8"/><path d="M334 196 L379 114 L291 170 Z" fill="#8b5cf6" opacity=".8"/><path d="M151 500 C116 338 160 190 256 170 C352 190 396 338 361 500 C320 466 291 532 256 490 C221 532 192 466 151 500Z" fill="url(#body801)" filter="url(#shadow801)"/>
    <circle cx="208" cy="337" r="17" fill="#312e81"/><circle cx="304" cy="337" r="17" fill="#312e81"/>
    <circle cx="202" cy="331" r="5" fill="#fff" opacity=".75"/><circle cx="298" cy="331" r="5" fill="#fff" opacity=".75"/>
    <path d="M214 248 Q256 284 298 248" stroke="#e9d5ff" stroke-width="14" fill="none" stroke-linecap="round" opacity=".74"/>
    <path d="M188 560 C228 600 288 600 326 560" stroke="#fff" stroke-width="12" stroke-linecap="round" opacity=".18" fill="none"/>
  </g>
  <path d="M72 128 C168 68 334 66 440 128" stroke="#fff" stroke-width="16" stroke-linecap="round" opacity=".16"/>
  <path d="M60 678 C164 722 348 718 452 662" stroke="#fff" stroke-width="14" stroke-linecap="round" opacity=".16"/>
</svg>