<svg xmlns="http://www.w3.org/2000/svg" viewBox="0 0 512 768" role="img" aria-label="永恒蝶皇 unique portrait">
  <defs>
    <linearGradient id="bg803" x1="0" y1="0" x2="1" y2="1"><stop offset="0" stop-color="#e9d5ff"/><stop offset=".55" stop-color="#8b5cf6"/><stop offset="1" stop-color="#355c9c"/></linearGradient>
    <radialGradient id="body803" cx=".35" cy=".24" r=".78"><stop offset="0" stop-color="#fff" stop-opacity=".88"/><stop offset=".18" stop-color="#e9d5ff"/><stop offset=".68" stop-color="#8b5cf6"/><stop offset="1" stop-color="#355c9c"/></radialGradient>
    <filter id="shadow803" x="-30%" y="-30%" width="160%" height="160%"><feDropShadow dx="0" dy="10" stdDeviation="9" flood-color="#355c9c" flood-opacity=".36"/></filter>
  </defs>
  <rect width="512" height="768" rx="48" fill="url(#bg803)"/>
  <rect x="24" y="24" width="464" height="720" rx="40" fill="#fff" opacity=".08"/>
  <g opacity=".46"><circle cx="341" cy="258" r="4.0" fill="#fff" opacity="0.37"/><circle cx="247" cy="283" r="3.5" fill="#fff" opacity="0.38"/><circle cx="304" cy="629" r="4.5" fill="#fff" opacity="0.44"/><circle cx="169" cy="579" r="2.0" fill="#fff" opacity="0.34"/><circle cx="173" cy="316" r="4.6" fill="#fff" opacity="0.46"/><circle cx="141" cy="487" r="5.0" fill="#fff" opacity="0.57"/><circle cx="220" cy="507" r="4.3" fill="#fff" opacity="0.50"/><circle cx="420" cy="104" r="2.8" fill="#fff" opacity="0.37"/><circle cx="79" cy="511" r="4.0" fill="#fff" opacity="0.45"/><circle cx="111" cy="265" r="2.8" fill="#fff" opacity="0.56"/><circle cx="383" cy="201" r="4.8" fill="#fff" opacity="0.39"/></g>
  <path d="M0 596 C80 558 128 616 202 584 C281 550 332 618 418 582 C464 563 492 570 512 586 V768 H0Z" fill="#355c9c" opacity=".22"/>
  <ellipse cx="256" cy="664" rx="154" ry="36" fill="#355c9c" opacity=".3"/>
  <g transform="translate(0 84)"><path d="M156 354 C66 314 56 218 150 238 C126 274 138 319 190 338 Z" fill="#82aaff" opacity=".58"/><path d="M356 354 C446 314 456 218 362 238 C386 274 374 319 322 338 Z" fill="#82aaff" opacity=".58"/><path d="M151 500 C116 338 160 190 256 170 C352 190 396 338 361 500 C320 466 291 532 256 490 C221 532 192 466 151 500Z" fill="url(#body803)" filter="url(#shadow803)"/>
    <circle cx="209" cy="330" r="17" fill="#101827"/><circle cx="303" cy="330" r="17" fill="#101827"/>
    <circle cx="203" cy="324" r="5" fill="#fff" opacity=".75"/><circle cx="297" cy="324" r="5" fill="#fff" opacity=".75"/>
    <path d="M206 410 Q256 442 306 410" stroke="#355c9c" stroke-width="12" fill="none" stroke-linecap="round" opacity=".72"/>
    <path d="M188 560 C228 600 288 600 326 560" stroke="#fff" stroke-width="12" stroke-linecap="round" opacity=".18" fill="none"/>
  </g>
  <path d="M72 128 C168 68 334 66 440 128" stroke="#fff" stroke-width="16" stroke-linecap="round" opacity=".16"/>
  <path d="M60 678 C164 722 348 718 452 662" stroke="#fff" stroke-width="14" stroke-linecap="round" opacity=".16"/>
</svg>