<svg xmlns="http://www.w3.org/2000/svg" viewBox="0 0 512 768" role="img" aria-label="时钟兔 unique portrait">
  <defs>
    <linearGradient id="bg804" x1="0" y1="0" x2="1" y2="1"><stop offset="0" stop-color="#e9d5ff"/><stop offset=".55" stop-color="#8b5cf6"/><stop offset="1" stop-color="#312e81"/></linearGradient>
    <radialGradient id="body804" cx=".35" cy=".24" r=".78"><stop offset="0" stop-color="#fff" stop-opacity=".88"/><stop offset=".18" stop-color="#e9d5ff"/><stop offset=".68" stop-color="#8b5cf6"/><stop offset="1" stop-color="#312e81"/></radialGradient>
    <filter id="shadow804" x="-30%" y="-30%" width="160%" height="160%"><feDropShadow dx="0" dy="10" stdDeviation="9" flood-color="#312e81" flood-opacity=".36"/></filter>
  </defs>
  <rect width="512" height="768" rx="48" fill="url(#bg804)"/>
  <rect x="24" y="24" width="464" height="720" rx="40" fill="#fff" opacity=".08"/>
  <g opacity=".46"><circle cx="131" cy="572" r="5.3" fill="#fff" opacity="0.24"/><circle cx="450" cy="136" r="4.7" fill="#fff" opacity="0.29"/><circle cx="187" cy="233" r="2.1" fill="#fff" opacity="0.46"/><circle cx="430" cy="336" r="1.3" fill="#fff" opacity="0.28"/><circle cx="170" cy="257" r="3.1" fill="#fff" opacity="0.47"/><circle cx="293" cy="92" r="3.9" fill="#fff" opacity="0.51"/><circle cx="303" cy="298" r="5.2" fill="#fff" opacity="0.39"/><circle cx="138" cy="260" r="2.3" fill="#fff" opacity="0.63"/><circle cx="354" cy="264" r="2.2" fill="#fff" opacity="0.48"/><circle cx="357" cy="459" r="2.8" fill="#fff" opacity="0.61"/><circle cx="302" cy="410" r="4.1" fill="#fff" opacity="0.49"/><circle cx="70" cy="327" r="4.9" fill="#fff" opacity="0.35"/><circle cx="377" cy="458" r="2.6" fill="#fff" opacity="0.47"/></g>
  <path d="M0 596 C80 558 128 616 202 584 C281 550 332 618 418 582 C464 563 492 570 512 586 V768 H0Z" fill="#312e81" opacity=".22"/>
  <ellipse cx="256" cy="664" rx="154" ry="36" fill="#312e81" opacity=".3"/>
  <g transform="translate(0 84)"><path d="M316 492 C426 508 425 604 334 594 C391 562 368 528 302 536" fill="none" stroke="#8b5cf6" stroke-width="34" stroke-linecap="round" opacity=".72"/><path d="M178 196 L133 114 L221 170 Z" fill="#8b5cf6" opacity=".8"/><path d="M334 196 L379 114 L291 170 Z" fill="#8b5cf6" opacity=".8"/><path d="M151 500 C116 338 160 190 256 170 C352 190 396 338 361 500 C320 466 291 532 256 490 C221 532 192 466 151 500Z" fill="url(#body804)" filter="url(#shadow804)"/>
    <circle cx="213" cy="318" r="17" fill="#101827"/><circle cx="299" cy="318" r="17" fill="#101827"/>
    <circle cx="207" cy="312" r="5" fill="#fff" opacity=".75"/><circle cx="293" cy="312" r="5" fill="#fff" opacity=".75"/>
    <path d="M206 410 Q256 442 306 410" stroke="#312e81" stroke-width="12" fill="none" stroke-linecap="round" opacity=".72"/>
    <path d="M188 560 C228 600 288 600 326 560" stroke="#fff" stroke-width="12" stroke-linecap="round" opacity=".18" fill="none"/>
  </g>
  <path d="M72 128 C168 68 334 66 440 128" stroke="#fff" stroke-width="16" stroke-linecap="round" opacity=".16"/>
  <path d="M60 678 C164 722 348 718 452 662" stroke="#fff" stroke-width="14" stroke-linecap="round" opacity=".16"/>
</svg>