<svg xmlns="http://www.w3.org/2000/svg" viewBox="0 0 512 768" role="img" aria-label="逆时仓鼠 unique portrait">
  <defs>
    <linearGradient id="bg805" x1="0" y1="0" x2="1" y2="1"><stop offset="0" stop-color="#e9d5ff"/><stop offset=".55" stop-color="#8b5cf6"/><stop offset="1" stop-color="#80305d"/></linearGradient>
    <radialGradient id="body805" cx=".35" cy=".24" r=".78"><stop offset="0" stop-color="#fff" stop-opacity=".88"/><stop offset=".18" stop-color="#e9d5ff"/><stop offset=".68" stop-color="#8b5cf6"/><stop offset="1" stop-color="#80305d"/></radialGradient>
    <filter id="shadow805" x="-30%" y="-30%" width="160%" height="160%"><feDropShadow dx="0" dy="10" stdDeviation="9" flood-color="#80305d" flood-opacity=".36"/></filter>
  </defs>
  <rect width="512" height="768" rx="48" fill="url(#bg805)"/>
  <rect x="24" y="24" width="464" height="720" rx="40" fill="#fff" opacity=".08"/>
  <g opacity=".46"><circle cx="71" cy="104" r="1.7" fill="#fff" opacity="0.55"/><circle cx="378" cy="534" r="4.6" fill="#fff" opacity="0.44"/><circle cx="209" cy="201" r="2.2" fill="#fff" opacity="0.54"/><circle cx="420" cy="167" r="2.5" fill="#fff" opacity="0.48"/><circle cx="303" cy="536" r="3.4" fill="#fff" opacity="0.31"/><circle cx="73" cy="136" r="3.5" fill="#fff" opacity="0.41"/><circle cx="137" cy="158" r="1.9" fill="#fff" opacity="0.64"/><circle cx="284" cy="523" r="3.6" fill="#fff" opacity="0.42"/><circle cx="69" cy="438" r="1.3" fill="#fff" opacity="0.54"/><circle cx="341" cy="433" r="2.1" fill="#fff" opacity="0.56"/><circle cx="354" cy="64" r="4.5" fill="#fff" opacity="0.53"/><circle cx="85" cy="431" r="3.2" fill="#fff" opacity="0.22"/><circle cx="319" cy="92" r="4.8" fill="#fff" opacity="0.38"/><circle cx="365" cy="435" r="3.0" fill="#fff" opacity="0.62"/><circle cx="115" cy="353" r="1.8" fill="#fff" opacity="0.34"/></g>
  <path d="M0 596 C80 558 128 616 202 584 C281 550 332 618 418 582 C464 563 492 570 512 586 V768 H0Z" fill="#80305d" opacity=".22"/>
  <ellipse cx="256" cy="664" rx="154" ry="36" fill="#80305d" opacity=".3"/>
  <g transform="translate(0 84)"><path d="M151 500 C116 338 160 190 256 170 C352 190 396 338 361 500 C320 466 291 532 256 490 C221 532 192 466 151 500Z" fill="url(#body805)" filter="url(#shadow805)"/>
    <circle cx="217" cy="329" r="17" fill="#101827"/><circle cx="295" cy="329" r="17" fill="#101827"/>
    <circle cx="211" cy="323" r="5" fill="#fff" opacity=".75"/><circle cx="289" cy="323" r="5" fill="#fff" opacity=".75"/>
    <path d="M206 410 Q256 442 306 410" stroke="#80305d" stroke-width="12" fill="none" stroke-linecap="round" opacity=".72"/>
    <path d="M188 560 C228 600 288 600 326 560" stroke="#fff" stroke-width="12" stroke-linecap="round" opacity=".18" fill="none"/>
  </g>
  <path d="M72 128 C168 68 334 66 440 128" stroke="#fff" stroke-width="16" stroke-linecap="round" opacity=".16"/>
  <path d="M60 678 C164 722 348 718 452 662" stroke="#fff" stroke-width="14" stroke-linecap="round" opacity=".16"/>
</svg>