<svg xmlns="http://www.w3.org/2000/svg" viewBox="0 0 512 768" role="img" aria-label="钟摆灵 unique portrait">
  <defs>
    <linearGradient id="bg807" x1="0" y1="0" x2="1" y2="1"><stop offset="0" stop-color="#e9d5ff"/><stop offset=".55" stop-color="#8b5cf6"/><stop offset="1" stop-color="#211a3a"/></linearGradient>
    <radialGradient id="body807" cx=".35" cy=".24" r=".78"><stop offset="0" stop-color="#fff" stop-opacity=".88"/><stop offset=".18" stop-color="#e9d5ff"/><stop offset=".68" stop-color="#8b5cf6"/><stop offset="1" stop-color="#211a3a"/></radialGradient>
    <filter id="shadow807" x="-30%" y="-30%" width="160%" height="160%"><feDropShadow dx="0" dy="10" stdDeviation="9" flood-color="#211a3a" flood-opacity=".36"/></filter>
  </defs>
  <rect width="512" height="768" rx="48" fill="url(#bg807)"/>
  <rect x="24" y="24" width="464" height="720" rx="40" fill="#fff" opacity=".08"/>
  <g opacity=".46"><circle cx="443" cy="594" r="4.9" fill="#fff" opacity="0.58"/><circle cx="366" cy="349" r="4.0" fill="#fff" opacity="0.56"/><circle cx="274" cy="341" r="4.9" fill="#fff" opacity="0.50"/><circle cx="155" cy="181" r="2.2" fill="#fff" opacity="0.64"/><circle cx="73" cy="213" r="2.0" fill="#fff" opacity="0.31"/><circle cx="339" cy="286" r="1.8" fill="#fff" opacity="0.33"/><circle cx="144" cy="629" r="3.8" fill="#fff" opacity="0.25"/><circle cx="135" cy="491" r="3.7" fill="#fff" opacity="0.35"/><circle cx="217" cy="555" r="1.5" fill="#fff" opacity="0.23"/><circle cx="381" cy="435" r="4.5" fill="#fff" opacity="0.55"/><circle cx="79" cy="170" r="1.9" fill="#fff" opacity="0.40"/><circle cx="137" cy="294" r="4.5" fill="#fff" opacity="0.47"/><circle cx="331" cy="126" r="4.6" fill="#fff" opacity="0.33"/><circle cx="240" cy="156" r="3.6" fill="#fff" opacity="0.57"/><circle cx="201" cy="483" r="4.2" fill="#fff" opacity="0.53"/><circle cx="173" cy="285" r="3.2" fill="#fff" opacity="0.27"/></g>
  <path d="M0 596 C80 558 128 616 202 584 C281 550 332 618 418 582 C464 563 492 570 512 586 V768 H0Z" fill="#211a3a" opacity=".22"/>
  <ellipse cx="256" cy="664" rx="154" ry="36" fill="#211a3a" opacity=".3"/>
  <g transform="translate(0 84)"><path d="M178 196 L133 114 L221 170 Z" fill="#5b4b8a" opacity=".8"/><path d="M334 196 L379 114 L291 170 Z" fill="#5b4b8a" opacity=".8"/><path d="M151 500 C116 338 160 190 256 170 C352 190 396 338 361 500 C320 466 291 532 256 490 C221 532 192 466 151 500Z" fill="url(#body807)" filter="url(#shadow807)"/>
    <circle cx="217" cy="323" r="17" fill="#211a3a"/><circle cx="295" cy="323" r="17" fill="#211a3a"/>
    <circle cx="211" cy="317" r="5" fill="#fff" opacity=".75"/><circle cx="289" cy="317" r="5" fill="#fff" opacity=".75"/>
    <path d="M206 410 Q256 442 306 410" stroke="#211a3a" stroke-width="12" fill="none" stroke-linecap="round" opacity=".72"/>
    <path d="M188 560 C228 600 288 600 326 560" stroke="#fff" stroke-width="12" stroke-linecap="round" opacity=".18" fill="none"/>
  </g>
  <path d="M72 128 C168 68 334 66 440 128" stroke="#fff" stroke-width="16" stroke-linecap="round" opacity=".16"/>
  <path d="M60 678 C164 722 348 718 452 662" stroke="#fff" stroke-width="14" stroke-linecap="round" opacity=".16"/>
</svg>