<svg xmlns="http://www.w3.org/2000/svg" viewBox="0 0 512 768" role="img" aria-label="末日钟魔 unique portrait">
  <defs>
    <linearGradient id="bg808" x1="0" y1="0" x2="1" y2="1"><stop offset="0" stop-color="#e9d5ff"/><stop offset=".55" stop-color="#8b5cf6"/><stop offset="1" stop-color="#211a3a"/></linearGradient>
    <radialGradient id="body808" cx=".35" cy=".24" r=".78"><stop offset="0" stop-color="#fff" stop-opacity=".88"/><stop offset=".18" stop-color="#e9d5ff"/><stop offset=".68" stop-color="#8b5cf6"/><stop offset="1" stop-color="#211a3a"/></radialGradient>
    <filter id="shadow808" x="-30%" y="-30%" width="160%" height="160%"><feDropShadow dx="0" dy="10" stdDeviation="9" flood-color="#211a3a" flood-opacity=".36"/></filter>
  </defs>
  <rect width="512" height="768" rx="48" fill="url(#bg808)"/>
  <rect x="24" y="24" width="464" height="720" rx="40" fill="#fff" opacity=".08"/>
  <g opacity=".46"><circle cx="468" cy="422" r="2.3" fill="#fff" opacity="0.23"/><circle cx="172" cy="453" r="3.3" fill="#fff" opacity="0.59"/><circle cx="132" cy="88" r="5.1" fill="#fff" opacity="0.38"/><circle cx="245" cy="345" r="4.5" fill="#fff" opacity="0.50"/><circle cx="207" cy="320" r="4.7" fill="#fff" opacity="0.55"/><circle cx="251" cy="619" r="3.2" fill="#fff" opacity="0.41"/><circle cx="319" cy="228" r="4.0" fill="#fff" opacity="0.29"/><circle cx="264" cy="346" r="1.8" fill="#fff" opacity="0.50"/><circle cx="459" cy="362" r="2.3" fill="#fff" opacity="0.62"/><circle cx="102" cy="577" r="4.6" fill="#fff" opacity="0.40"/><circle cx="169" cy="61" r="1.4" fill="#fff" opacity="0.63"/><circle cx="316" cy="159" r="3.9" fill="#fff" opacity="0.53"/></g>
  <path d="M0 596 C80 558 128 616 202 584 C281 550 332 618 418 582 C464 563 492 570 512 586 V768 H0Z" fill="#211a3a" opacity=".22"/>
  <ellipse cx="256" cy="664" rx="154" ry="36" fill="#211a3a" opacity=".3"/>
  <g transform="translate(0 84)"><circle cx="256" cy="357" r="128" fill="url(#body808)" filter="url(#shadow808)"/><circle cx="256" cy="357" r="70" fill="#c6b6ff" opacity=".26"/>
    <circle cx="216" cy="322" r="17" fill="#211a3a"/><circle cx="296" cy="322" r="17" fill="#211a3a"/>
    <circle cx="210" cy="316" r="5" fill="#fff" opacity=".75"/><circle cx="290" cy="316" r="5" fill="#fff" opacity=".75"/>
    <path d="M206 410 Q256 442 306 410" stroke="#211a3a" stroke-width="12" fill="none" stroke-linecap="round" opacity=".72"/>
    <path d="M188 560 C228 600 288 600 326 560" stroke="#fff" stroke-width="12" stroke-linecap="round" opacity=".18" fill="none"/>
  </g>
  <path d="M72 128 C168 68 334 66 440 128" stroke="#fff" stroke-width="16" stroke-linecap="round" opacity=".16"/>
  <path d="M60 678 C164 722 348 718 452 662" stroke="#fff" stroke-width="14" stroke-linecap="round" opacity=".16"/>
</svg>