<svg xmlns="http://www.w3.org/2000/svg" viewBox="0 0 512 768" role="img" aria-label="瞬迁猫 unique portrait">
  <defs>
    <linearGradient id="bg809" x1="0" y1="0" x2="1" y2="1"><stop offset="0" stop-color="#e9d5ff"/><stop offset=".55" stop-color="#8b5cf6"/><stop offset="1" stop-color="#312e81"/></linearGradient>
    <radialGradient id="body809" cx=".35" cy=".24" r=".78"><stop offset="0" stop-color="#fff" stop-opacity=".88"/><stop offset=".18" stop-color="#e9d5ff"/><stop offset=".68" stop-color="#8b5cf6"/><stop offset="1" stop-color="#312e81"/></radialGradient>
    <filter id="shadow809" x="-30%" y="-30%" width="160%" height="160%"><feDropShadow dx="0" dy="10" stdDeviation="9" flood-color="#312e81" flood-opacity=".36"/></filter>
  </defs>
  <rect width="512" height="768" rx="48" fill="url(#bg809)"/>
  <rect x="24" y="24" width="464" height="720" rx="40" fill="#fff" opacity=".08"/>
  <g opacity=".46"><circle cx="113" cy="105" r="3.3" fill="#fff" opacity="0.39"/><circle cx="176" cy="316" r="3.6" fill="#fff" opacity="0.56"/><circle cx="77" cy="395" r="2.0" fill="#fff" opacity="0.56"/><circle cx="118" cy="633" r="3.7" fill="#fff" opacity="0.64"/><circle cx="329" cy="369" r="3.8" fill="#fff" opacity="0.28"/><circle cx="251" cy="63" r="1.4" fill="#fff" opacity="0.43"/><circle cx="289" cy="379" r="1.2" fill="#fff" opacity="0.53"/><circle cx="440" cy="444" r="4.9" fill="#fff" opacity="0.61"/><circle cx="91" cy="294" r="4.1" fill="#fff" opacity="0.50"/><circle cx="347" cy="590" r="1.3" fill="#fff" opacity="0.58"/><circle cx="460" cy="489" r="3.1" fill="#fff" opacity="0.58"/><circle cx="417" cy="295" r="4.3" fill="#fff" opacity="0.59"/><circle cx="121" cy="433" r="5.1" fill="#fff" opacity="0.63"/><circle cx="409" cy="583" r="1.6" fill="#fff" opacity="0.50"/><circle cx="86" cy="309" r="4.3" fill="#fff" opacity="0.25"/><circle cx="266" cy="191" r="3.3" fill="#fff" opacity="0.40"/><circle cx="146" cy="74" r="3.3" fill="#fff" opacity="0.37"/><circle cx="282" cy="515" r="2.8" fill="#fff" opacity="0.29"/><circle cx="123" cy="149" r="3.1" fill="#fff" opacity="0.63"/></g>
  <path d="M0 596 C80 558 128 616 202 584 C281 550 332 618 418 582 C464 563 492 570 512 586 V768 H0Z" fill="#312e81" opacity=".22"/>
  <ellipse cx="256" cy="664" rx="154" ry="36" fill="#312e81" opacity=".3"/>
  <g transform="translate(0 84)"><path d="M316 492 C426 508 425 604 334 594 C391 562 368 528 302 536" fill="none" stroke="#8b5cf6" stroke-width="34" stroke-linecap="round" opacity=".72"/><path d="M178 196 L133 114 L221 170 Z" fill="#8b5cf6" opacity=".8"/><path d="M334 196 L379 114 L291 170 Z" fill="#8b5cf6" opacity=".8"/><path d="M151 500 C116 338 160 190 256 170 C352 190 396 338 361 500 C320 466 291 532 256 490 C221 532 192 466 151 500Z" fill="url(#body809)" filter="url(#shadow809)"/>
    <circle cx="215" cy="323" r="17" fill="#101827"/><circle cx="297" cy="323" r="17" fill="#101827"/>
    <circle cx="209" cy="317" r="5" fill="#fff" opacity=".75"/><circle cx="291" cy="317" r="5" fill="#fff" opacity=".75"/>
    <path d="M206 410 Q256 442 306 410" stroke="#312e81" stroke-width="12" fill="none" stroke-linecap="round" opacity=".72"/>
    <path d="M188 560 C228 600 288 600 326 560" stroke="#fff" stroke-width="12" stroke-linecap="round" opacity=".18" fill="none"/>
  </g>
  <path d="M72 128 C168 68 334 66 440 128" stroke="#fff" stroke-width="16" stroke-linecap="round" opacity=".16"/>
  <path d="M60 678 C164 722 348 718 452 662" stroke="#fff" stroke-width="14" stroke-linecap="round" opacity=".16"/>
</svg>