<svg xmlns="http://www.w3.org/2000/svg" viewBox="0 0 512 768" role="img" aria-label="纪元守卫 unique portrait">
  <defs>
    <linearGradient id="bg810" x1="0" y1="0" x2="1" y2="1"><stop offset="0" stop-color="#e9d5ff"/><stop offset=".55" stop-color="#8b5cf6"/><stop offset="1" stop-color="#344450"/></linearGradient>
    <radialGradient id="body810" cx=".35" cy=".24" r=".78"><stop offset="0" stop-color="#fff" stop-opacity=".88"/><stop offset=".18" stop-color="#e9d5ff"/><stop offset=".68" stop-color="#8b5cf6"/><stop offset="1" stop-color="#344450"/></radialGradient>
    <filter id="shadow810" x="-30%" y="-30%" width="160%" height="160%"><feDropShadow dx="0" dy="10" stdDeviation="9" flood-color="#344450" flood-opacity=".36"/></filter>
  </defs>
  <rect width="512" height="768" rx="48" fill="url(#bg810)"/>
  <rect x="24" y="24" width="464" height="720" rx="40" fill="#fff" opacity=".08"/>
  <g opacity=".46"><circle cx="262" cy="631" r="2.7" fill="#fff" opacity="0.46"/><circle cx="83" cy="469" r="3.3" fill="#fff" opacity="0.45"/><circle cx="446" cy="587" r="4.4" fill="#fff" opacity="0.46"/><circle cx="212" cy="121" r="3.4" fill="#fff" opacity="0.44"/><circle cx="401" cy="275" r="5.2" fill="#fff" opacity="0.60"/><circle cx="254" cy="347" r="2.0" fill="#fff" opacity="0.38"/><circle cx="381" cy="204" r="4.3" fill="#fff" opacity="0.50"/><circle cx="216" cy="544" r="3.6" fill="#fff" opacity="0.33"/><circle cx="208" cy="183" r="4.4" fill="#fff" opacity="0.60"/><circle cx="275" cy="263" r="2.8" fill="#fff" opacity="0.22"/></g>
  <path d="M0 596 C80 558 128 616 202 584 C281 550 332 618 418 582 C464 563 492 570 512 586 V768 H0Z" fill="#344450" opacity=".22"/>
  <ellipse cx="256" cy="664" rx="154" ry="36" fill="#344450" opacity=".3"/>
  <g transform="translate(0 84)"><path d="M178 196 L133 114 L221 170 Z" fill="#7a8b99" opacity=".8"/><path d="M334 196 L379 114 L291 170 Z" fill="#7a8b99" opacity=".8"/><path d="M151 500 C116 338 160 190 256 170 C352 190 396 338 361 500 C320 466 291 532 256 490 C221 532 192 466 151 500Z" fill="url(#body810)" filter="url(#shadow810)"/>
    <circle cx="212" cy="316" r="17" fill="#344450"/><circle cx="300" cy="316" r="17" fill="#344450"/>
    <circle cx="206" cy="310" r="5" fill="#fff" opacity=".75"/><circle cx="294" cy="310" r="5" fill="#fff" opacity=".75"/>
    <path d="M214 248 Q256 284 298 248" stroke="#d7e3ea" stroke-width="14" fill="none" stroke-linecap="round" opacity=".74"/>
    <path d="M188 560 C228 600 288 600 326 560" stroke="#fff" stroke-width="12" stroke-linecap="round" opacity=".18" fill="none"/>
  </g>
  <path d="M72 128 C168 68 334 66 440 128" stroke="#fff" stroke-width="16" stroke-linecap="round" opacity=".16"/>
  <path d="M60 678 C164 722 348 718 452 662" stroke="#fff" stroke-width="14" stroke-linecap="round" opacity=".16"/>
</svg>