<svg xmlns="http://www.w3.org/2000/svg" viewBox="0 0 512 768" role="img" aria-label="浑沌晶体 unique portrait">
  <defs>
    <linearGradient id="bg811" x1="0" y1="0" x2="1" y2="1"><stop offset="0" stop-color="#f0abfc"/><stop offset=".55" stop-color="#7e22ce"/><stop offset="1" stop-color="#1e102f"/></linearGradient>
    <radialGradient id="body811" cx=".35" cy=".24" r=".78"><stop offset="0" stop-color="#fff" stop-opacity=".88"/><stop offset=".18" stop-color="#f0abfc"/><stop offset=".68" stop-color="#7e22ce"/><stop offset="1" stop-color="#1e102f"/></radialGradient>
    <filter id="shadow811" x="-30%" y="-30%" width="160%" height="160%"><feDropShadow dx="0" dy="10" stdDeviation="9" flood-color="#1e102f" flood-opacity=".36"/></filter>
  </defs>
  <rect width="512" height="768" rx="48" fill="url(#bg811)"/>
  <rect x="24" y="24" width="464" height="720" rx="40" fill="#fff" opacity=".08"/>
  <g opacity=".46"><circle cx="364" cy="133" r="1.3" fill="#fff" opacity="0.44"/><circle cx="219" cy="271" r="3.2" fill="#fff" opacity="0.24"/><circle cx="83" cy="91" r="3.2" fill="#fff" opacity="0.30"/><circle cx="57" cy="69" r="4.7" fill="#fff" opacity="0.53"/><circle cx="166" cy="87" r="2.1" fill="#fff" opacity="0.39"/><circle cx="353" cy="404" r="2.2" fill="#fff" opacity="0.38"/><circle cx="380" cy="601" r="2.9" fill="#fff" opacity="0.62"/><circle cx="194" cy="499" r="1.3" fill="#fff" opacity="0.57"/><circle cx="346" cy="595" r="3.3" fill="#fff" opacity="0.26"/><circle cx="355" cy="291" r="1.9" fill="#fff" opacity="0.25"/><circle cx="215" cy="189" r="4.7" fill="#fff" opacity="0.59"/></g>
  <path d="M0 596 C80 558 128 616 202 584 C281 550 332 618 418 582 C464 563 492 570 512 586 V768 H0Z" fill="#1e102f" opacity=".22"/>
  <ellipse cx="256" cy="664" rx="154" ry="36" fill="#1e102f" opacity=".3"/>
  <g transform="translate(0 84)"><path d="M156 354 C66 314 56 218 150 238 C126 274 138 319 190 338 Z" fill="#7e22ce" opacity=".58"/><path d="M356 354 C446 314 456 218 362 238 C386 274 374 319 322 338 Z" fill="#7e22ce" opacity=".58"/><path d="M151 500 C116 338 160 190 256 170 C352 190 396 338 361 500 C320 466 291 532 256 490 C221 532 192 466 151 500Z" fill="url(#body811)" filter="url(#shadow811)"/>
    <circle cx="213" cy="317" r="17" fill="#101827"/><circle cx="299" cy="317" r="17" fill="#101827"/>
    <circle cx="207" cy="311" r="5" fill="#fff" opacity=".75"/><circle cx="293" cy="311" r="5" fill="#fff" opacity=".75"/>
    <path d="M206 410 Q256 442 306 410" stroke="#1e102f" stroke-width="12" fill="none" stroke-linecap="round" opacity=".72"/>
    <path d="M188 560 C228 600 288 600 326 560" stroke="#fff" stroke-width="12" stroke-linecap="round" opacity=".18" fill="none"/>
  </g>
  <path d="M72 128 C168 68 334 66 440 128" stroke="#fff" stroke-width="16" stroke-linecap="round" opacity=".16"/>
  <path d="M60 678 C164 722 348 718 452 662" stroke="#fff" stroke-width="14" stroke-linecap="round" opacity=".16"/>
</svg>