<svg xmlns="http://www.w3.org/2000/svg" viewBox="0 0 512 768" role="img" aria-label="畸变晶花 unique portrait">
  <defs>
    <linearGradient id="bg812" x1="0" y1="0" x2="1" y2="1"><stop offset="0" stop-color="#f0abfc"/><stop offset=".55" stop-color="#7e22ce"/><stop offset="1" stop-color="#3d195b"/></linearGradient>
    <radialGradient id="body812" cx=".35" cy=".24" r=".78"><stop offset="0" stop-color="#fff" stop-opacity=".88"/><stop offset=".18" stop-color="#f0abfc"/><stop offset=".68" stop-color="#7e22ce"/><stop offset="1" stop-color="#3d195b"/></radialGradient>
    <filter id="shadow812" x="-30%" y="-30%" width="160%" height="160%"><feDropShadow dx="0" dy="10" stdDeviation="9" flood-color="#3d195b" flood-opacity=".36"/></filter>
  </defs>
  <rect width="512" height="768" rx="48" fill="url(#bg812)"/>
  <rect x="24" y="24" width="464" height="720" rx="40" fill="#fff" opacity=".08"/>
  <g opacity=".46"><circle cx="173" cy="109" r="3.2" fill="#fff" opacity="0.51"/><circle cx="321" cy="136" r="1.3" fill="#fff" opacity="0.29"/><circle cx="342" cy="430" r="4.2" fill="#fff" opacity="0.30"/><circle cx="50" cy="360" r="1.6" fill="#fff" opacity="0.44"/><circle cx="284" cy="340" r="5.4" fill="#fff" opacity="0.61"/><circle cx="183" cy="120" r="1.5" fill="#fff" opacity="0.57"/><circle cx="182" cy="111" r="1.4" fill="#fff" opacity="0.34"/><circle cx="209" cy="443" r="4.4" fill="#fff" opacity="0.56"/><circle cx="188" cy="501" r="2.9" fill="#fff" opacity="0.36"/><circle cx="68" cy="146" r="1.5" fill="#fff" opacity="0.33"/><circle cx="305" cy="96" r="1.4" fill="#fff" opacity="0.48"/></g>
  <path d="M0 596 C80 558 128 616 202 584 C281 550 332 618 418 582 C464 563 492 570 512 586 V768 H0Z" fill="#3d195b" opacity=".22"/>
  <ellipse cx="256" cy="664" rx="154" ry="36" fill="#3d195b" opacity=".3"/>
  <g transform="translate(0 84)"><path d="M156 354 C66 314 56 218 150 238 C126 274 138 319 190 338 Z" fill="#8e44ad" opacity=".58"/><path d="M356 354 C446 314 456 218 362 238 C386 274 374 319 322 338 Z" fill="#8e44ad" opacity=".58"/><path d="M151 500 C116 338 160 190 256 170 C352 190 396 338 361 500 C320 466 291 532 256 490 C221 532 192 466 151 500Z" fill="url(#body812)" filter="url(#shadow812)"/>
    <circle cx="212" cy="333" r="17" fill="#101827"/><circle cx="300" cy="333" r="17" fill="#101827"/>
    <circle cx="206" cy="327" r="5" fill="#fff" opacity=".75"/><circle cx="294" cy="327" r="5" fill="#fff" opacity=".75"/>
    <path d="M206 410 Q256 442 306 410" stroke="#3d195b" stroke-width="12" fill="none" stroke-linecap="round" opacity=".72"/>
    <path d="M188 560 C228 600 288 600 326 560" stroke="#fff" stroke-width="12" stroke-linecap="round" opacity=".18" fill="none"/>
  </g>
  <path d="M72 128 C168 68 334 66 440 128" stroke="#fff" stroke-width="16" stroke-linecap="round" opacity=".16"/>
  <path d="M60 678 C164 722 348 718 452 662" stroke="#fff" stroke-width="14" stroke-linecap="round" opacity=".16"/>
</svg>