<svg xmlns="http://www.w3.org/2000/svg" viewBox="0 0 512 768" role="img" aria-label="虚妄魔神 unique portrait">
  <defs>
    <linearGradient id="bg813" x1="0" y1="0" x2="1" y2="1"><stop offset="0" stop-color="#f0abfc"/><stop offset=".55" stop-color="#7e22ce"/><stop offset="1" stop-color="#111827"/></linearGradient>
    <radialGradient id="body813" cx=".35" cy=".24" r=".78"><stop offset="0" stop-color="#fff" stop-opacity=".88"/><stop offset=".18" stop-color="#f0abfc"/><stop offset=".68" stop-color="#7e22ce"/><stop offset="1" stop-color="#111827"/></radialGradient>
    <filter id="shadow813" x="-30%" y="-30%" width="160%" height="160%"><feDropShadow dx="0" dy="10" stdDeviation="9" flood-color="#111827" flood-opacity=".36"/></filter>
  </defs>
  <rect width="512" height="768" rx="48" fill="url(#bg813)"/>
  <rect x="24" y="24" width="464" height="720" rx="40" fill="#fff" opacity=".08"/>
  <g opacity=".46"><circle cx="397" cy="248" r="4.2" fill="#fff" opacity="0.38"/><circle cx="140" cy="422" r="5.0" fill="#fff" opacity="0.52"/><circle cx="125" cy="526" r="4.1" fill="#fff" opacity="0.58"/><circle cx="322" cy="445" r="3.6" fill="#fff" opacity="0.49"/><circle cx="417" cy="511" r="5.2" fill="#fff" opacity="0.63"/><circle cx="127" cy="411" r="5.2" fill="#fff" opacity="0.46"/><circle cx="446" cy="268" r="1.2" fill="#fff" opacity="0.61"/><circle cx="152" cy="493" r="1.2" fill="#fff" opacity="0.58"/><circle cx="357" cy="199" r="2.4" fill="#fff" opacity="0.29"/><circle cx="250" cy="587" r="3.7" fill="#fff" opacity="0.46"/><circle cx="143" cy="380" r="4.1" fill="#fff" opacity="0.47"/></g>
  <path d="M0 596 C80 558 128 616 202 584 C281 550 332 618 418 582 C464 563 492 570 512 586 V768 H0Z" fill="#111827" opacity=".22"/>
  <ellipse cx="256" cy="664" rx="154" ry="36" fill="#111827" opacity=".3"/>
  <g transform="translate(0 84)"><path d="M156 354 C66 314 56 218 150 238 C126 274 138 319 190 338 Z" fill="#30343f" opacity=".58"/><path d="M356 354 C446 314 456 218 362 238 C386 274 374 319 322 338 Z" fill="#30343f" opacity=".58"/><path d="M151 500 C116 338 160 190 256 170 C352 190 396 338 361 500 C320 466 291 532 256 490 C221 532 192 466 151 500Z" fill="url(#body813)" filter="url(#shadow813)"/>
    <circle cx="210" cy="326" r="17" fill="#101827"/><circle cx="302" cy="326" r="17" fill="#101827"/>
    <circle cx="204" cy="320" r="5" fill="#fff" opacity=".75"/><circle cx="296" cy="320" r="5" fill="#fff" opacity=".75"/>
    <path d="M206 410 Q256 442 306 410" stroke="#111827" stroke-width="12" fill="none" stroke-linecap="round" opacity=".72"/>
    <path d="M188 560 C228 600 288 600 326 560" stroke="#fff" stroke-width="12" stroke-linecap="round" opacity=".18" fill="none"/>
  </g>
  <path d="M72 128 C168 68 334 66 440 128" stroke="#fff" stroke-width="16" stroke-linecap="round" opacity=".16"/>
  <path d="M60 678 C164 722 348 718 452 662" stroke="#fff" stroke-width="14" stroke-linecap="round" opacity=".16"/>
</svg>