<svg xmlns="http://www.w3.org/2000/svg" viewBox="0 0 512 768" role="img" aria-label="裂痕蜥 unique portrait">
  <defs>
    <linearGradient id="bg814" x1="0" y1="0" x2="1" y2="1"><stop offset="0" stop-color="#f0abfc"/><stop offset=".55" stop-color="#7e22ce"/><stop offset="1" stop-color="#5d3b1f"/></linearGradient>
    <radialGradient id="body814" cx=".35" cy=".24" r=".78"><stop offset="0" stop-color="#fff" stop-opacity=".88"/><stop offset=".18" stop-color="#f0abfc"/><stop offset=".68" stop-color="#7e22ce"/><stop offset="1" stop-color="#5d3b1f"/></radialGradient>
    <filter id="shadow814" x="-30%" y="-30%" width="160%" height="160%"><feDropShadow dx="0" dy="10" stdDeviation="9" flood-color="#5d3b1f" flood-opacity=".36"/></filter>
  </defs>
  <rect width="512" height="768" rx="48" fill="url(#bg814)"/>
  <rect x="24" y="24" width="464" height="720" rx="40" fill="#fff" opacity=".08"/>
  <g opacity=".46"><circle cx="246" cy="286" r="1.7" fill="#fff" opacity="0.63"/><circle cx="122" cy="594" r="1.2" fill="#fff" opacity="0.59"/><circle cx="251" cy="386" r="3.1" fill="#fff" opacity="0.63"/><circle cx="135" cy="558" r="2.9" fill="#fff" opacity="0.62"/><circle cx="97" cy="186" r="3.3" fill="#fff" opacity="0.45"/><circle cx="254" cy="338" r="4.4" fill="#fff" opacity="0.61"/><circle cx="380" cy="519" r="4.4" fill="#fff" opacity="0.39"/><circle cx="369" cy="297" r="1.4" fill="#fff" opacity="0.29"/><circle cx="352" cy="146" r="1.6" fill="#fff" opacity="0.63"/><circle cx="145" cy="274" r="3.5" fill="#fff" opacity="0.64"/><circle cx="366" cy="197" r="2.0" fill="#fff" opacity="0.43"/><circle cx="163" cy="407" r="1.3" fill="#fff" opacity="0.40"/><circle cx="308" cy="469" r="3.6" fill="#fff" opacity="0.37"/><circle cx="410" cy="295" r="4.4" fill="#fff" opacity="0.57"/><circle cx="365" cy="446" r="2.4" fill="#fff" opacity="0.36"/><circle cx="412" cy="87" r="3.6" fill="#fff" opacity="0.28"/><circle cx="319" cy="436" r="3.5" fill="#fff" opacity="0.56"/><circle cx="173" cy="258" r="4.3" fill="#fff" opacity="0.63"/><circle cx="67" cy="372" r="4.0" fill="#fff" opacity="0.56"/><circle cx="89" cy="489" r="4.3" fill="#fff" opacity="0.37"/><circle cx="355" cy="210" r="3.7" fill="#fff" opacity="0.36"/></g>
  <path d="M0 596 C80 558 128 616 202 584 C281 550 332 618 418 582 C464 563 492 570 512 586 V768 H0Z" fill="#5d3b1f" opacity=".22"/>
  <ellipse cx="256" cy="664" rx="154" ry="36" fill="#5d3b1f" opacity=".3"/>
  <g transform="translate(0 84)"><path d="M151 500 C116 338 160 190 256 170 C352 190 396 338 361 500 C320 466 291 532 256 490 C221 532 192 466 151 500Z" fill="url(#body814)" filter="url(#shadow814)"/>
    <circle cx="215" cy="323" r="17" fill="#101827"/><circle cx="297" cy="323" r="17" fill="#101827"/>
    <circle cx="209" cy="317" r="5" fill="#fff" opacity=".75"/><circle cx="291" cy="317" r="5" fill="#fff" opacity=".75"/>
    <path d="M206 410 Q256 442 306 410" stroke="#5d3b1f" stroke-width="12" fill="none" stroke-linecap="round" opacity=".72"/>
    <path d="M188 560 C228 600 288 600 326 560" stroke="#fff" stroke-width="12" stroke-linecap="round" opacity=".18" fill="none"/>
  </g>
  <path d="M72 128 C168 68 334 66 440 128" stroke="#fff" stroke-width="16" stroke-linecap="round" opacity=".16"/>
  <path d="M60 678 C164 722 348 718 452 662" stroke="#fff" stroke-width="14" stroke-linecap="round" opacity=".16"/>
</svg>