<svg xmlns="http://www.w3.org/2000/svg" viewBox="0 0 512 768" role="img" aria-label="深渊裂龙 unique portrait">
  <defs>
    <linearGradient id="bg815" x1="0" y1="0" x2="1" y2="1"><stop offset="0" stop-color="#f0abfc"/><stop offset=".55" stop-color="#7e22ce"/><stop offset="1" stop-color="#2b247a"/></linearGradient>
    <radialGradient id="body815" cx=".35" cy=".24" r=".78"><stop offset="0" stop-color="#fff" stop-opacity=".88"/><stop offset=".18" stop-color="#f0abfc"/><stop offset=".68" stop-color="#7e22ce"/><stop offset="1" stop-color="#2b247a"/></radialGradient>
    <filter id="shadow815" x="-30%" y="-30%" width="160%" height="160%"><feDropShadow dx="0" dy="10" stdDeviation="9" flood-color="#2b247a" flood-opacity=".36"/></filter>
  </defs>
  <rect width="512" height="768" rx="48" fill="url(#bg815)"/>
  <rect x="24" y="24" width="464" height="720" rx="40" fill="#fff" opacity=".08"/>
  <g opacity=".46"><circle cx="171" cy="617" r="2.1" fill="#fff" opacity="0.37"/><circle cx="448" cy="403" r="4.3" fill="#fff" opacity="0.28"/><circle cx="266" cy="303" r="2.3" fill="#fff" opacity="0.63"/><circle cx="360" cy="340" r="2.9" fill="#fff" opacity="0.62"/><circle cx="230" cy="469" r="4.6" fill="#fff" opacity="0.58"/><circle cx="363" cy="292" r="1.9" fill="#fff" opacity="0.38"/><circle cx="413" cy="407" r="2.7" fill="#fff" opacity="0.35"/><circle cx="428" cy="172" r="3.9" fill="#fff" opacity="0.63"/><circle cx="217" cy="597" r="4.5" fill="#fff" opacity="0.50"/><circle cx="323" cy="191" r="1.5" fill="#fff" opacity="0.54"/><circle cx="186" cy="373" r="3.1" fill="#fff" opacity="0.57"/><circle cx="421" cy="149" r="3.3" fill="#fff" opacity="0.46"/></g>
  <path d="M0 596 C80 558 128 616 202 584 C281 550 332 618 418 582 C464 563 492 570 512 586 V768 H0Z" fill="#2b247a" opacity=".22"/>
  <ellipse cx="256" cy="664" rx="154" ry="36" fill="#2b247a" opacity=".3"/>
  <g transform="translate(0 84)"><circle cx="256" cy="357" r="128" fill="url(#body815)" filter="url(#shadow815)"/><circle cx="256" cy="357" r="70" fill="#c4b5fd" opacity=".26"/>
    <circle cx="212" cy="338" r="17" fill="#2b247a"/><circle cx="300" cy="338" r="17" fill="#2b247a"/>
    <circle cx="206" cy="332" r="5" fill="#fff" opacity=".75"/><circle cx="294" cy="332" r="5" fill="#fff" opacity=".75"/>
    <path d="M206 410 Q256 442 306 410" stroke="#2b247a" stroke-width="12" fill="none" stroke-linecap="round" opacity=".72"/>
    <path d="M188 560 C228 600 288 600 326 560" stroke="#fff" stroke-width="12" stroke-linecap="round" opacity=".18" fill="none"/>
  </g>
  <path d="M72 128 C168 68 334 66 440 128" stroke="#fff" stroke-width="16" stroke-linecap="round" opacity=".16"/>
  <path d="M60 678 C164 722 348 718 452 662" stroke="#fff" stroke-width="14" stroke-linecap="round" opacity=".16"/>
</svg>