<svg xmlns="http://www.w3.org/2000/svg" viewBox="0 0 512 768" role="img" aria-label="混沌海蛇 unique portrait">
  <defs>
    <linearGradient id="bg816" x1="0" y1="0" x2="1" y2="1"><stop offset="0" stop-color="#f0abfc"/><stop offset=".55" stop-color="#7e22ce"/><stop offset="1" stop-color="#0a3d7a"/></linearGradient>
    <radialGradient id="body816" cx=".35" cy=".24" r=".78"><stop offset="0" stop-color="#fff" stop-opacity=".88"/><stop offset=".18" stop-color="#f0abfc"/><stop offset=".68" stop-color="#7e22ce"/><stop offset="1" stop-color="#0a3d7a"/></radialGradient>
    <filter id="shadow816" x="-30%" y="-30%" width="160%" height="160%"><feDropShadow dx="0" dy="10" stdDeviation="9" flood-color="#0a3d7a" flood-opacity=".36"/></filter>
  </defs>
  <rect width="512" height="768" rx="48" fill="url(#bg816)"/>
  <rect x="24" y="24" width="464" height="720" rx="40" fill="#fff" opacity=".08"/>
  <g opacity=".46"><circle cx="347" cy="604" r="2.9" fill="#fff" opacity="0.27"/><circle cx="412" cy="217" r="1.6" fill="#fff" opacity="0.33"/><circle cx="240" cy="129" r="3.1" fill="#fff" opacity="0.26"/><circle cx="427" cy="625" r="5.0" fill="#fff" opacity="0.53"/><circle cx="134" cy="349" r="1.9" fill="#fff" opacity="0.57"/><circle cx="154" cy="260" r="4.8" fill="#fff" opacity="0.53"/><circle cx="424" cy="484" r="1.9" fill="#fff" opacity="0.27"/><circle cx="258" cy="343" r="1.6" fill="#fff" opacity="0.30"/><circle cx="361" cy="314" r="1.5" fill="#fff" opacity="0.60"/><circle cx="386" cy="169" r="3.3" fill="#fff" opacity="0.59"/><circle cx="54" cy="172" r="1.4" fill="#fff" opacity="0.28"/><circle cx="133" cy="386" r="4.9" fill="#fff" opacity="0.46"/><circle cx="43" cy="115" r="3.0" fill="#fff" opacity="0.25"/><circle cx="281" cy="157" r="2.9" fill="#fff" opacity="0.59"/></g>
  <path d="M0 596 C80 558 128 616 202 584 C281 550 332 618 418 582 C464 563 492 570 512 586 V768 H0Z" fill="#0a3d7a" opacity=".22"/>
  <ellipse cx="256" cy="664" rx="154" ry="36" fill="#0a3d7a" opacity=".3"/>
  <g transform="translate(0 84)"><path d="M148 520 C118 346 156 196 256 164 C356 196 394 346 364 520 C326 488 292 532 256 496 C220 532 186 488 148 520Z" fill="url(#body816)" filter="url(#shadow816)"/>
    <circle cx="214" cy="318" r="17" fill="#0a3d7a"/><circle cx="298" cy="318" r="17" fill="#0a3d7a"/>
    <circle cx="208" cy="312" r="5" fill="#fff" opacity=".75"/><circle cx="292" cy="312" r="5" fill="#fff" opacity=".75"/>
    <path d="M214 248 Q256 284 298 248" stroke="#9be7ff" stroke-width="14" fill="none" stroke-linecap="round" opacity=".74"/>
    <path d="M188 560 C228 600 288 600 326 560" stroke="#fff" stroke-width="12" stroke-linecap="round" opacity=".18" fill="none"/>
  </g>
  <path d="M72 128 C168 68 334 66 440 128" stroke="#fff" stroke-width="16" stroke-linecap="round" opacity=".16"/>
  <path d="M60 678 C164 722 348 718 452 662" stroke="#fff" stroke-width="14" stroke-linecap="round" opacity=".16"/>
</svg>