<svg xmlns="http://www.w3.org/2000/svg" viewBox="0 0 512 768" role="img" aria-label="末世海蛇皇 unique portrait">
  <defs>
    <linearGradient id="bg817" x1="0" y1="0" x2="1" y2="1"><stop offset="0" stop-color="#f0abfc"/><stop offset=".55" stop-color="#7e22ce"/><stop offset="1" stop-color="#0a3d7a"/></linearGradient>
    <radialGradient id="body817" cx=".35" cy=".24" r=".78"><stop offset="0" stop-color="#fff" stop-opacity=".88"/><stop offset=".18" stop-color="#f0abfc"/><stop offset=".68" stop-color="#7e22ce"/><stop offset="1" stop-color="#0a3d7a"/></radialGradient>
    <filter id="shadow817" x="-30%" y="-30%" width="160%" height="160%"><feDropShadow dx="0" dy="10" stdDeviation="9" flood-color="#0a3d7a" flood-opacity=".36"/></filter>
  </defs>
  <rect width="512" height="768" rx="48" fill="url(#bg817)"/>
  <rect x="24" y="24" width="464" height="720" rx="40" fill="#fff" opacity=".08"/>
  <g opacity=".46"><circle cx="337" cy="202" r="4.5" fill="#fff" opacity="0.35"/><circle cx="398" cy="373" r="2.7" fill="#fff" opacity="0.41"/><circle cx="329" cy="429" r="3.9" fill="#fff" opacity="0.25"/><circle cx="324" cy="491" r="3.1" fill="#fff" opacity="0.36"/><circle cx="282" cy="80" r="2.2" fill="#fff" opacity="0.49"/><circle cx="191" cy="628" r="4.3" fill="#fff" opacity="0.29"/><circle cx="210" cy="295" r="3.8" fill="#fff" opacity="0.49"/><circle cx="159" cy="508" r="3.3" fill="#fff" opacity="0.59"/><circle cx="178" cy="498" r="2.9" fill="#fff" opacity="0.32"/><circle cx="170" cy="94" r="1.6" fill="#fff" opacity="0.24"/><circle cx="299" cy="208" r="2.0" fill="#fff" opacity="0.62"/><circle cx="292" cy="257" r="4.0" fill="#fff" opacity="0.63"/><circle cx="60" cy="92" r="1.6" fill="#fff" opacity="0.64"/><circle cx="279" cy="428" r="2.5" fill="#fff" opacity="0.32"/><circle cx="276" cy="539" r="2.3" fill="#fff" opacity="0.55"/><circle cx="443" cy="553" r="5.3" fill="#fff" opacity="0.59"/><circle cx="267" cy="408" r="3.9" fill="#fff" opacity="0.28"/><circle cx="194" cy="223" r="4.3" fill="#fff" opacity="0.46"/><circle cx="102" cy="257" r="3.3" fill="#fff" opacity="0.36"/><circle cx="232" cy="325" r="2.6" fill="#fff" opacity="0.31"/></g>
  <path d="M0 596 C80 558 128 616 202 584 C281 550 332 618 418 582 C464 563 492 570 512 586 V768 H0Z" fill="#0a3d7a" opacity=".22"/>
  <ellipse cx="256" cy="664" rx="154" ry="36" fill="#0a3d7a" opacity=".3"/>
  <g transform="translate(0 84)"><path d="M148 520 C118 346 156 196 256 164 C356 196 394 346 364 520 C326 488 292 532 256 496 C220 532 186 488 148 520Z" fill="url(#body817)" filter="url(#shadow817)"/>
    <circle cx="212" cy="320" r="17" fill="#0a3d7a"/><circle cx="300" cy="320" r="17" fill="#0a3d7a"/>
    <circle cx="206" cy="314" r="5" fill="#fff" opacity=".75"/><circle cx="294" cy="314" r="5" fill="#fff" opacity=".75"/>
    <path d="M206 410 Q256 442 306 410" stroke="#0a3d7a" stroke-width="12" fill="none" stroke-linecap="round" opacity=".72"/>
    <path d="M188 560 C228 600 288 600 326 560" stroke="#fff" stroke-width="12" stroke-linecap="round" opacity=".18" fill="none"/>
  </g>
  <path d="M72 128 C168 68 334 66 440 128" stroke="#fff" stroke-width="16" stroke-linecap="round" opacity=".16"/>
  <path d="M60 678 C164 722 348 718 452 662" stroke="#fff" stroke-width="14" stroke-linecap="round" opacity=".16"/>
</svg>