<svg xmlns="http://www.w3.org/2000/svg" viewBox="0 0 512 768" role="img" aria-label="噪声魔 unique portrait">
  <defs>
    <linearGradient id="bg818" x1="0" y1="0" x2="1" y2="1"><stop offset="0" stop-color="#f0abfc"/><stop offset=".55" stop-color="#7e22ce"/><stop offset="1" stop-color="#581c87"/></linearGradient>
    <radialGradient id="body818" cx=".35" cy=".24" r=".78"><stop offset="0" stop-color="#fff" stop-opacity=".88"/><stop offset=".18" stop-color="#f0abfc"/><stop offset=".68" stop-color="#7e22ce"/><stop offset="1" stop-color="#581c87"/></radialGradient>
    <filter id="shadow818" x="-30%" y="-30%" width="160%" height="160%"><feDropShadow dx="0" dy="10" stdDeviation="9" flood-color="#581c87" flood-opacity=".36"/></filter>
  </defs>
  <rect width="512" height="768" rx="48" fill="url(#bg818)"/>
  <rect x="24" y="24" width="464" height="720" rx="40" fill="#fff" opacity=".08"/>
  <g opacity=".46"><circle cx="275" cy="181" r="2.5" fill="#fff" opacity="0.41"/><circle cx="65" cy="380" r="3.4" fill="#fff" opacity="0.45"/><circle cx="439" cy="150" r="2.3" fill="#fff" opacity="0.62"/><circle cx="250" cy="383" r="1.9" fill="#fff" opacity="0.51"/><circle cx="128" cy="78" r="2.4" fill="#fff" opacity="0.43"/><circle cx="208" cy="94" r="4.6" fill="#fff" opacity="0.34"/><circle cx="125" cy="84" r="4.8" fill="#fff" opacity="0.23"/><circle cx="91" cy="386" r="3.7" fill="#fff" opacity="0.43"/><circle cx="444" cy="603" r="5.4" fill="#fff" opacity="0.49"/><circle cx="160" cy="160" r="3.6" fill="#fff" opacity="0.24"/><circle cx="72" cy="282" r="3.9" fill="#fff" opacity="0.29"/><circle cx="239" cy="557" r="2.6" fill="#fff" opacity="0.44"/><circle cx="115" cy="223" r="1.9" fill="#fff" opacity="0.43"/><circle cx="348" cy="142" r="4.5" fill="#fff" opacity="0.27"/><circle cx="269" cy="110" r="4.0" fill="#fff" opacity="0.28"/></g>
  <path d="M0 596 C80 558 128 616 202 584 C281 550 332 618 418 582 C464 563 492 570 512 586 V768 H0Z" fill="#581c87" opacity=".22"/>
  <ellipse cx="256" cy="664" rx="154" ry="36" fill="#581c87" opacity=".3"/>
  <g transform="translate(0 84)"><path d="M151 500 C116 338 160 190 256 170 C352 190 396 338 361 500 C320 466 291 532 256 490 C221 532 192 466 151 500Z" fill="url(#body818)" filter="url(#shadow818)"/>
    <circle cx="216" cy="325" r="17" fill="#101827"/><circle cx="296" cy="325" r="17" fill="#101827"/>
    <circle cx="210" cy="319" r="5" fill="#fff" opacity=".75"/><circle cx="290" cy="319" r="5" fill="#fff" opacity=".75"/>
    <path d="M206 410 Q256 442 306 410" stroke="#581c87" stroke-width="12" fill="none" stroke-linecap="round" opacity=".72"/>
    <path d="M188 560 C228 600 288 600 326 560" stroke="#fff" stroke-width="12" stroke-linecap="round" opacity=".18" fill="none"/>
  </g>
  <path d="M72 128 C168 68 334 66 440 128" stroke="#fff" stroke-width="16" stroke-linecap="round" opacity=".16"/>
  <path d="M60 678 C164 722 348 718 452 662" stroke="#fff" stroke-width="14" stroke-linecap="round" opacity=".16"/>
</svg>