<svg xmlns="http://www.w3.org/2000/svg" viewBox="0 0 512 768" role="img" aria-label="悖论贤者 unique portrait">
  <defs>
    <linearGradient id="bg819" x1="0" y1="0" x2="1" y2="1"><stop offset="0" stop-color="#f0abfc"/><stop offset=".55" stop-color="#7e22ce"/><stop offset="1" stop-color="#80305d"/></linearGradient>
    <radialGradient id="body819" cx=".35" cy=".24" r=".78"><stop offset="0" stop-color="#fff" stop-opacity=".88"/><stop offset=".18" stop-color="#f0abfc"/><stop offset=".68" stop-color="#7e22ce"/><stop offset="1" stop-color="#80305d"/></radialGradient>
    <filter id="shadow819" x="-30%" y="-30%" width="160%" height="160%"><feDropShadow dx="0" dy="10" stdDeviation="9" flood-color="#80305d" flood-opacity=".36"/></filter>
  </defs>
  <rect width="512" height="768" rx="48" fill="url(#bg819)"/>
  <rect x="24" y="24" width="464" height="720" rx="40" fill="#fff" opacity=".08"/>
  <g opacity=".46"><circle cx="136" cy="497" r="2.3" fill="#fff" opacity="0.34"/><circle cx="149" cy="175" r="3.1" fill="#fff" opacity="0.41"/><circle cx="338" cy="375" r="2.6" fill="#fff" opacity="0.39"/><circle cx="382" cy="308" r="4.4" fill="#fff" opacity="0.57"/><circle cx="55" cy="132" r="4.0" fill="#fff" opacity="0.37"/><circle cx="157" cy="493" r="4.7" fill="#fff" opacity="0.38"/><circle cx="203" cy="178" r="2.8" fill="#fff" opacity="0.45"/><circle cx="105" cy="476" r="3.9" fill="#fff" opacity="0.59"/><circle cx="261" cy="382" r="4.8" fill="#fff" opacity="0.57"/><circle cx="378" cy="78" r="2.1" fill="#fff" opacity="0.45"/><circle cx="315" cy="139" r="1.4" fill="#fff" opacity="0.23"/><circle cx="316" cy="550" r="3.3" fill="#fff" opacity="0.53"/><circle cx="464" cy="487" r="5.4" fill="#fff" opacity="0.57"/><circle cx="323" cy="503" r="4.9" fill="#fff" opacity="0.33"/><circle cx="341" cy="559" r="5.3" fill="#fff" opacity="0.33"/><circle cx="180" cy="322" r="2.3" fill="#fff" opacity="0.57"/><circle cx="187" cy="512" r="1.5" fill="#fff" opacity="0.36"/><circle cx="57" cy="612" r="4.8" fill="#fff" opacity="0.30"/><circle cx="153" cy="224" r="4.2" fill="#fff" opacity="0.57"/></g>
  <path d="M0 596 C80 558 128 616 202 584 C281 550 332 618 418 582 C464 563 492 570 512 586 V768 H0Z" fill="#80305d" opacity=".22"/>
  <ellipse cx="256" cy="664" rx="154" ry="36" fill="#80305d" opacity=".3"/>
  <g transform="translate(0 84)"><path d="M316 492 C426 508 425 604 334 594 C391 562 368 528 302 536" fill="none" stroke="#ff5fa2" stroke-width="34" stroke-linecap="round" opacity=".72"/><path d="M178 196 L133 114 L221 170 Z" fill="#ff5fa2" opacity=".8"/><path d="M334 196 L379 114 L291 170 Z" fill="#ff5fa2" opacity=".8"/><path d="M151 500 C116 338 160 190 256 170 C352 190 396 338 361 500 C320 466 291 532 256 490 C221 532 192 466 151 500Z" fill="url(#body819)" filter="url(#shadow819)"/>
    <circle cx="215" cy="336" r="17" fill="#101827"/><circle cx="297" cy="336" r="17" fill="#101827"/>
    <circle cx="209" cy="330" r="5" fill="#fff" opacity=".75"/><circle cx="291" cy="330" r="5" fill="#fff" opacity=".75"/>
    <path d="M206 410 Q256 442 306 410" stroke="#80305d" stroke-width="12" fill="none" stroke-linecap="round" opacity=".72"/>
    <path d="M188 560 C228 600 288 600 326 560" stroke="#fff" stroke-width="12" stroke-linecap="round" opacity=".18" fill="none"/>
  </g>
  <path d="M72 128 C168 68 334 66 440 128" stroke="#fff" stroke-width="16" stroke-linecap="round" opacity=".16"/>
  <path d="M60 678 C164 722 348 718 452 662" stroke="#fff" stroke-width="14" stroke-linecap="round" opacity=".16"/>
</svg>