<svg xmlns="http://www.w3.org/2000/svg" viewBox="0 0 512 768" role="img" aria-label="原初混沌 unique portrait">
  <defs>
    <linearGradient id="bg820" x1="0" y1="0" x2="1" y2="1"><stop offset="0" stop-color="#f0abfc"/><stop offset=".55" stop-color="#7e22ce"/><stop offset="1" stop-color="#7c2d12"/></linearGradient>
    <radialGradient id="body820" cx=".35" cy=".24" r=".78"><stop offset="0" stop-color="#fff" stop-opacity=".88"/><stop offset=".18" stop-color="#f0abfc"/><stop offset=".68" stop-color="#7e22ce"/><stop offset="1" stop-color="#7c2d12"/></radialGradient>
    <filter id="shadow820" x="-30%" y="-30%" width="160%" height="160%"><feDropShadow dx="0" dy="10" stdDeviation="9" flood-color="#7c2d12" flood-opacity=".36"/></filter>
  </defs>
  <rect width="512" height="768" rx="48" fill="url(#bg820)"/>
  <rect x="24" y="24" width="464" height="720" rx="40" fill="#fff" opacity=".08"/>
  <g opacity=".46"><circle cx="399" cy="73" r="4.8" fill="#fff" opacity="0.52"/><circle cx="414" cy="479" r="4.3" fill="#fff" opacity="0.47"/><circle cx="133" cy="394" r="1.9" fill="#fff" opacity="0.54"/><circle cx="404" cy="416" r="4.5" fill="#fff" opacity="0.61"/><circle cx="230" cy="445" r="2.9" fill="#fff" opacity="0.50"/><circle cx="398" cy="517" r="5.0" fill="#fff" opacity="0.39"/><circle cx="277" cy="382" r="2.5" fill="#fff" opacity="0.46"/><circle cx="148" cy="102" r="1.6" fill="#fff" opacity="0.44"/><circle cx="322" cy="126" r="4.5" fill="#fff" opacity="0.28"/><circle cx="459" cy="104" r="2.0" fill="#fff" opacity="0.50"/><circle cx="350" cy="122" r="4.5" fill="#fff" opacity="0.41"/><circle cx="307" cy="414" r="3.4" fill="#fff" opacity="0.23"/><circle cx="275" cy="390" r="3.7" fill="#fff" opacity="0.26"/><circle cx="170" cy="293" r="1.4" fill="#fff" opacity="0.41"/></g>
  <path d="M0 596 C80 558 128 616 202 584 C281 550 332 618 418 582 C464 563 492 570 512 586 V768 H0Z" fill="#7c2d12" opacity=".22"/>
  <ellipse cx="256" cy="664" rx="154" ry="36" fill="#7c2d12" opacity=".3"/>
  <g transform="translate(0 84)"><path d="M148 520 C118 346 156 196 256 164 C356 196 394 346 364 520 C326 488 292 532 256 496 C220 532 186 488 148 520Z" fill="url(#body820)" filter="url(#shadow820)"/>
    <circle cx="211" cy="339" r="17" fill="#7c2d12"/><circle cx="301" cy="339" r="17" fill="#7c2d12"/>
    <circle cx="205" cy="333" r="5" fill="#fff" opacity=".75"/><circle cx="295" cy="333" r="5" fill="#fff" opacity=".75"/>
    <path d="M214 248 Q256 284 298 248" stroke="#fff7ed" stroke-width="14" fill="none" stroke-linecap="round" opacity=".74"/>
    <path d="M188 560 C228 600 288 600 326 560" stroke="#fff" stroke-width="12" stroke-linecap="round" opacity=".18" fill="none"/>
  </g>
  <path d="M72 128 C168 68 334 66 440 128" stroke="#fff" stroke-width="16" stroke-linecap="round" opacity=".16"/>
  <path d="M60 678 C164 722 348 718 452 662" stroke="#fff" stroke-width="14" stroke-linecap="round" opacity=".16"/>
</svg>