<svg xmlns="http://www.w3.org/2000/svg" viewBox="0 0 512 768" role="img" aria-label="岩浆蝾螈 unique portrait">
  <defs>
    <linearGradient id="bg821" x1="0" y1="0" x2="1" y2="1"><stop offset="0" stop-color="#ffd166"/><stop offset=".55" stop-color="#ff6b35"/><stop offset="1" stop-color="#5d3b1f"/></linearGradient>
    <radialGradient id="body821" cx=".35" cy=".24" r=".78"><stop offset="0" stop-color="#fff" stop-opacity=".88"/><stop offset=".18" stop-color="#ffd166"/><stop offset=".68" stop-color="#ff6b35"/><stop offset="1" stop-color="#5d3b1f"/></radialGradient>
    <filter id="shadow821" x="-30%" y="-30%" width="160%" height="160%"><feDropShadow dx="0" dy="10" stdDeviation="9" flood-color="#5d3b1f" flood-opacity=".36"/></filter>
  </defs>
  <rect width="512" height="768" rx="48" fill="url(#bg821)"/>
  <rect x="24" y="24" width="464" height="720" rx="40" fill="#fff" opacity=".08"/>
  <g opacity=".46"><circle cx="146" cy="114" r="3.9" fill="#fff" opacity="0.28"/><circle cx="389" cy="365" r="3.5" fill="#fff" opacity="0.40"/><circle cx="191" cy="263" r="4.2" fill="#fff" opacity="0.26"/><circle cx="286" cy="82" r="3.6" fill="#fff" opacity="0.60"/><circle cx="219" cy="410" r="2.1" fill="#fff" opacity="0.24"/><circle cx="241" cy="75" r="2.2" fill="#fff" opacity="0.31"/><circle cx="225" cy="335" r="4.6" fill="#fff" opacity="0.26"/><circle cx="164" cy="575" r="2.6" fill="#fff" opacity="0.42"/><circle cx="149" cy="181" r="3.0" fill="#fff" opacity="0.36"/><circle cx="185" cy="450" r="3.2" fill="#fff" opacity="0.52"/><circle cx="186" cy="599" r="2.7" fill="#fff" opacity="0.45"/><circle cx="365" cy="255" r="2.3" fill="#fff" opacity="0.29"/></g>
  <path d="M0 596 C80 558 128 616 202 584 C281 550 332 618 418 582 C464 563 492 570 512 586 V768 H0Z" fill="#5d3b1f" opacity=".22"/>
  <ellipse cx="256" cy="664" rx="154" ry="36" fill="#5d3b1f" opacity=".3"/>
  <g transform="translate(0 84)"><circle cx="256" cy="357" r="128" fill="url(#body821)" filter="url(#shadow821)"/><circle cx="256" cy="357" r="70" fill="#edd3a3" opacity=".26"/>
    <circle cx="208" cy="338" r="17" fill="#5d3b1f"/><circle cx="304" cy="338" r="17" fill="#5d3b1f"/>
    <circle cx="202" cy="332" r="5" fill="#fff" opacity=".75"/><circle cx="298" cy="332" r="5" fill="#fff" opacity=".75"/>
    <path d="M206 410 Q256 442 306 410" stroke="#5d3b1f" stroke-width="12" fill="none" stroke-linecap="round" opacity=".72"/>
    <path d="M188 560 C228 600 288 600 326 560" stroke="#fff" stroke-width="12" stroke-linecap="round" opacity=".18" fill="none"/>
  </g>
  <path d="M72 128 C168 68 334 66 440 128" stroke="#fff" stroke-width="16" stroke-linecap="round" opacity=".16"/>
  <path d="M60 678 C164 722 348 718 452 662" stroke="#fff" stroke-width="14" stroke-linecap="round" opacity=".16"/>
</svg>