<svg xmlns="http://www.w3.org/2000/svg" viewBox="0 0 512 768" role="img" aria-label="烈焰地龙 unique portrait">
  <defs>
    <linearGradient id="bg822" x1="0" y1="0" x2="1" y2="1"><stop offset="0" stop-color="#ffd166"/><stop offset=".55" stop-color="#ff6b35"/><stop offset="1" stop-color="#5d3b1f"/></linearGradient>
    <radialGradient id="body822" cx=".35" cy=".24" r=".78"><stop offset="0" stop-color="#fff" stop-opacity=".88"/><stop offset=".18" stop-color="#ffd166"/><stop offset=".68" stop-color="#ff6b35"/><stop offset="1" stop-color="#5d3b1f"/></radialGradient>
    <filter id="shadow822" x="-30%" y="-30%" width="160%" height="160%"><feDropShadow dx="0" dy="10" stdDeviation="9" flood-color="#5d3b1f" flood-opacity=".36"/></filter>
  </defs>
  <rect width="512" height="768" rx="48" fill="url(#bg822)"/>
  <rect x="24" y="24" width="464" height="720" rx="40" fill="#fff" opacity=".08"/>
  <g opacity=".46"><circle cx="210" cy="557" r="5.3" fill="#fff" opacity="0.31"/><circle cx="400" cy="372" r="4.0" fill="#fff" opacity="0.30"/><circle cx="72" cy="222" r="2.9" fill="#fff" opacity="0.29"/><circle cx="201" cy="345" r="2.6" fill="#fff" opacity="0.29"/><circle cx="106" cy="587" r="4.4" fill="#fff" opacity="0.58"/><circle cx="296" cy="496" r="3.2" fill="#fff" opacity="0.50"/><circle cx="371" cy="330" r="4.5" fill="#fff" opacity="0.36"/><circle cx="267" cy="123" r="2.9" fill="#fff" opacity="0.42"/><circle cx="177" cy="432" r="2.6" fill="#fff" opacity="0.34"/><circle cx="259" cy="110" r="1.4" fill="#fff" opacity="0.47"/><circle cx="54" cy="445" r="5.2" fill="#fff" opacity="0.30"/><circle cx="133" cy="222" r="3.0" fill="#fff" opacity="0.32"/><circle cx="84" cy="146" r="5.1" fill="#fff" opacity="0.57"/><circle cx="246" cy="622" r="4.9" fill="#fff" opacity="0.50"/><circle cx="283" cy="91" r="2.8" fill="#fff" opacity="0.27"/><circle cx="104" cy="543" r="2.2" fill="#fff" opacity="0.31"/><circle cx="134" cy="485" r="2.4" fill="#fff" opacity="0.36"/><circle cx="110" cy="271" r="4.5" fill="#fff" opacity="0.26"/><circle cx="293" cy="587" r="2.3" fill="#fff" opacity="0.58"/><circle cx="66" cy="368" r="5.1" fill="#fff" opacity="0.27"/><circle cx="124" cy="217" r="1.3" fill="#fff" opacity="0.28"/></g>
  <path d="M0 596 C80 558 128 616 202 584 C281 550 332 618 418 582 C464 563 492 570 512 586 V768 H0Z" fill="#5d3b1f" opacity=".22"/>
  <ellipse cx="256" cy="664" rx="154" ry="36" fill="#5d3b1f" opacity=".3"/>
  <g transform="translate(0 84)"><path d="M151 500 C116 338 160 190 256 170 C352 190 396 338 361 500 C320 466 291 532 256 490 C221 532 192 466 151 500Z" fill="url(#body822)" filter="url(#shadow822)"/>
    <circle cx="217" cy="323" r="17" fill="#101827"/><circle cx="295" cy="323" r="17" fill="#101827"/>
    <circle cx="211" cy="317" r="5" fill="#fff" opacity=".75"/><circle cx="289" cy="317" r="5" fill="#fff" opacity=".75"/>
    <path d="M206 410 Q256 442 306 410" stroke="#5d3b1f" stroke-width="12" fill="none" stroke-linecap="round" opacity=".72"/>
    <path d="M188 560 C228 600 288 600 326 560" stroke="#fff" stroke-width="12" stroke-linecap="round" opacity=".18" fill="none"/>
  </g>
  <path d="M72 128 C168 68 334 66 440 128" stroke="#fff" stroke-width="16" stroke-linecap="round" opacity=".16"/>
  <path d="M60 678 C164 722 348 718 452 662" stroke="#fff" stroke-width="14" stroke-linecap="round" opacity=".16"/>
</svg>