<svg xmlns="http://www.w3.org/2000/svg" viewBox="0 0 512 768" role="img" aria-label="雷云雏鹰 unique portrait">
  <defs>
    <linearGradient id="bg823" x1="0" y1="0" x2="1" y2="1"><stop offset="0" stop-color="#fff176"/><stop offset=".55" stop-color="#f9c74f"/><stop offset="1" stop-color="#355c9c"/></linearGradient>
    <radialGradient id="body823" cx=".35" cy=".24" r=".78"><stop offset="0" stop-color="#fff" stop-opacity=".88"/><stop offset=".18" stop-color="#fff176"/><stop offset=".68" stop-color="#f9c74f"/><stop offset="1" stop-color="#355c9c"/></radialGradient>
    <filter id="shadow823" x="-30%" y="-30%" width="160%" height="160%"><feDropShadow dx="0" dy="10" stdDeviation="9" flood-color="#355c9c" flood-opacity=".36"/></filter>
  </defs>
  <rect width="512" height="768" rx="48" fill="url(#bg823)"/>
  <rect x="24" y="24" width="464" height="720" rx="40" fill="#fff" opacity=".08"/>
  <g opacity=".46"><circle cx="157" cy="593" r="2.8" fill="#fff" opacity="0.39"/><circle cx="270" cy="511" r="3.7" fill="#fff" opacity="0.39"/><circle cx="121" cy="615" r="3.1" fill="#fff" opacity="0.57"/><circle cx="308" cy="161" r="1.3" fill="#fff" opacity="0.44"/><circle cx="341" cy="368" r="1.9" fill="#fff" opacity="0.49"/><circle cx="177" cy="568" r="2.7" fill="#fff" opacity="0.51"/><circle cx="158" cy="276" r="4.8" fill="#fff" opacity="0.30"/><circle cx="61" cy="96" r="3.4" fill="#fff" opacity="0.47"/><circle cx="95" cy="433" r="2.8" fill="#fff" opacity="0.53"/><circle cx="240" cy="614" r="2.3" fill="#fff" opacity="0.44"/><circle cx="401" cy="550" r="3.2" fill="#fff" opacity="0.49"/><circle cx="55" cy="124" r="2.2" fill="#fff" opacity="0.47"/><circle cx="201" cy="219" r="1.5" fill="#fff" opacity="0.50"/><circle cx="163" cy="131" r="1.6" fill="#fff" opacity="0.58"/><circle cx="347" cy="80" r="3.0" fill="#fff" opacity="0.49"/><circle cx="398" cy="583" r="2.6" fill="#fff" opacity="0.41"/><circle cx="354" cy="257" r="2.2" fill="#fff" opacity="0.28"/></g>
  <path d="M0 596 C80 558 128 616 202 584 C281 550 332 618 418 582 C464 563 492 570 512 586 V768 H0Z" fill="#355c9c" opacity=".22"/>
  <ellipse cx="256" cy="664" rx="154" ry="36" fill="#355c9c" opacity=".3"/>
  <g transform="translate(0 84)"><path d="M156 354 C66 314 56 218 150 238 C126 274 138 319 190 338 Z" fill="#82aaff" opacity=".58"/><path d="M356 354 C446 314 456 218 362 238 C386 274 374 319 322 338 Z" fill="#82aaff" opacity=".58"/><path d="M151 500 C116 338 160 190 256 170 C352 190 396 338 361 500 C320 466 291 532 256 490 C221 532 192 466 151 500Z" fill="url(#body823)" filter="url(#shadow823)"/>
    <circle cx="208" cy="331" r="17" fill="#101827"/><circle cx="304" cy="331" r="17" fill="#101827"/>
    <circle cx="202" cy="325" r="5" fill="#fff" opacity=".75"/><circle cx="298" cy="325" r="5" fill="#fff" opacity=".75"/>
    <path d="M206 410 Q256 442 306 410" stroke="#355c9c" stroke-width="12" fill="none" stroke-linecap="round" opacity=".72"/>
    <path d="M188 560 C228 600 288 600 326 560" stroke="#fff" stroke-width="12" stroke-linecap="round" opacity=".18" fill="none"/>
  </g>
  <path d="M72 128 C168 68 334 66 440 128" stroke="#fff" stroke-width="16" stroke-linecap="round" opacity=".16"/>
  <path d="M60 678 C164 722 348 718 452 662" stroke="#fff" stroke-width="14" stroke-linecap="round" opacity=".16"/>
</svg>