<svg xmlns="http://www.w3.org/2000/svg" viewBox="0 0 512 768" role="img" aria-label="暴风雷鹫 unique portrait">
  <defs>
    <linearGradient id="bg824" x1="0" y1="0" x2="1" y2="1"><stop offset="0" stop-color="#fff176"/><stop offset=".55" stop-color="#f9c74f"/><stop offset="1" stop-color="#355c9c"/></linearGradient>
    <radialGradient id="body824" cx=".35" cy=".24" r=".78"><stop offset="0" stop-color="#fff" stop-opacity=".88"/><stop offset=".18" stop-color="#fff176"/><stop offset=".68" stop-color="#f9c74f"/><stop offset="1" stop-color="#355c9c"/></radialGradient>
    <filter id="shadow824" x="-30%" y="-30%" width="160%" height="160%"><feDropShadow dx="0" dy="10" stdDeviation="9" flood-color="#355c9c" flood-opacity=".36"/></filter>
  </defs>
  <rect width="512" height="768" rx="48" fill="url(#bg824)"/>
  <rect x="24" y="24" width="464" height="720" rx="40" fill="#fff" opacity=".08"/>
  <g opacity=".46"><circle cx="150" cy="577" r="1.8" fill="#fff" opacity="0.45"/><circle cx="100" cy="169" r="3.8" fill="#fff" opacity="0.23"/><circle cx="394" cy="373" r="5.1" fill="#fff" opacity="0.48"/><circle cx="275" cy="173" r="5.3" fill="#fff" opacity="0.25"/><circle cx="376" cy="516" r="3.1" fill="#fff" opacity="0.61"/><circle cx="348" cy="228" r="4.8" fill="#fff" opacity="0.42"/><circle cx="435" cy="196" r="2.3" fill="#fff" opacity="0.37"/><circle cx="449" cy="469" r="4.5" fill="#fff" opacity="0.22"/><circle cx="132" cy="301" r="4.6" fill="#fff" opacity="0.43"/><circle cx="190" cy="136" r="3.1" fill="#fff" opacity="0.36"/><circle cx="106" cy="575" r="4.5" fill="#fff" opacity="0.29"/><circle cx="264" cy="570" r="2.9" fill="#fff" opacity="0.45"/><circle cx="352" cy="357" r="2.3" fill="#fff" opacity="0.59"/></g>
  <path d="M0 596 C80 558 128 616 202 584 C281 550 332 618 418 582 C464 563 492 570 512 586 V768 H0Z" fill="#355c9c" opacity=".22"/>
  <ellipse cx="256" cy="664" rx="154" ry="36" fill="#355c9c" opacity=".3"/>
  <g transform="translate(0 84)"><path d="M316 492 C426 508 425 604 334 594 C391 562 368 528 302 536" fill="none" stroke="#82aaff" stroke-width="34" stroke-linecap="round" opacity=".72"/><path d="M178 196 L133 114 L221 170 Z" fill="#82aaff" opacity=".8"/><path d="M334 196 L379 114 L291 170 Z" fill="#82aaff" opacity=".8"/><path d="M151 500 C116 338 160 190 256 170 C352 190 396 338 361 500 C320 466 291 532 256 490 C221 532 192 466 151 500Z" fill="url(#body824)" filter="url(#shadow824)"/>
    <circle cx="210" cy="319" r="17" fill="#101827"/><circle cx="302" cy="319" r="17" fill="#101827"/>
    <circle cx="204" cy="313" r="5" fill="#fff" opacity=".75"/><circle cx="296" cy="313" r="5" fill="#fff" opacity=".75"/>
    <path d="M206 410 Q256 442 306 410" stroke="#355c9c" stroke-width="12" fill="none" stroke-linecap="round" opacity=".72"/>
    <path d="M188 560 C228 600 288 600 326 560" stroke="#fff" stroke-width="12" stroke-linecap="round" opacity=".18" fill="none"/>
  </g>
  <path d="M72 128 C168 68 334 66 440 128" stroke="#fff" stroke-width="16" stroke-linecap="round" opacity=".16"/>
  <path d="M60 678 C164 722 348 718 452 662" stroke="#fff" stroke-width="14" stroke-linecap="round" opacity=".16"/>
</svg>