<svg xmlns="http://www.w3.org/2000/svg" viewBox="0 0 512 768" role="img" aria-label="露水仙子 unique portrait">
  <defs>
    <linearGradient id="bg825" x1="0" y1="0" x2="1" y2="1"><stop offset="0" stop-color="#9be7ff"/><stop offset=".55" stop-color="#2f80ed"/><stop offset="1" stop-color="#8a2f68"/></linearGradient>
    <radialGradient id="body825" cx=".35" cy=".24" r=".78"><stop offset="0" stop-color="#fff" stop-opacity=".88"/><stop offset=".18" stop-color="#9be7ff"/><stop offset=".68" stop-color="#2f80ed"/><stop offset="1" stop-color="#8a2f68"/></radialGradient>
    <filter id="shadow825" x="-30%" y="-30%" width="160%" height="160%"><feDropShadow dx="0" dy="10" stdDeviation="9" flood-color="#8a2f68" flood-opacity=".36"/></filter>
  </defs>
  <rect width="512" height="768" rx="48" fill="url(#bg825)"/>
  <rect x="24" y="24" width="464" height="720" rx="40" fill="#fff" opacity=".08"/>
  <g opacity=".46"><circle cx="452" cy="246" r="1.3" fill="#fff" opacity="0.48"/><circle cx="312" cy="360" r="3.0" fill="#fff" opacity="0.29"/><circle cx="350" cy="595" r="5.3" fill="#fff" opacity="0.36"/><circle cx="326" cy="227" r="5.1" fill="#fff" opacity="0.55"/><circle cx="358" cy="632" r="4.6" fill="#fff" opacity="0.34"/><circle cx="258" cy="410" r="1.5" fill="#fff" opacity="0.37"/><circle cx="275" cy="607" r="4.2" fill="#fff" opacity="0.51"/><circle cx="194" cy="547" r="4.1" fill="#fff" opacity="0.43"/><circle cx="127" cy="333" r="4.2" fill="#fff" opacity="0.31"/><circle cx="139" cy="326" r="2.1" fill="#fff" opacity="0.41"/><circle cx="288" cy="106" r="3.6" fill="#fff" opacity="0.24"/></g>
  <path d="M0 596 C80 558 128 616 202 584 C281 550 332 618 418 582 C464 563 492 570 512 586 V768 H0Z" fill="#8a2f68" opacity=".22"/>
  <ellipse cx="256" cy="664" rx="154" ry="36" fill="#8a2f68" opacity=".3"/>
  <g transform="translate(0 84)"><path d="M156 354 C66 314 56 218 150 238 C126 274 138 319 190 338 Z" fill="#ff8bd6" opacity=".58"/><path d="M356 354 C446 314 456 218 362 238 C386 274 374 319 322 338 Z" fill="#ff8bd6" opacity=".58"/><path d="M151 500 C116 338 160 190 256 170 C352 190 396 338 361 500 C320 466 291 532 256 490 C221 532 192 466 151 500Z" fill="url(#body825)" filter="url(#shadow825)"/>
    <circle cx="211" cy="336" r="17" fill="#101827"/><circle cx="301" cy="336" r="17" fill="#101827"/>
    <circle cx="205" cy="330" r="5" fill="#fff" opacity=".75"/><circle cx="295" cy="330" r="5" fill="#fff" opacity=".75"/>
    <path d="M206 410 Q256 442 306 410" stroke="#8a2f68" stroke-width="12" fill="none" stroke-linecap="round" opacity=".72"/>
    <path d="M188 560 C228 600 288 600 326 560" stroke="#fff" stroke-width="12" stroke-linecap="round" opacity=".18" fill="none"/>
  </g>
  <path d="M72 128 C168 68 334 66 440 128" stroke="#fff" stroke-width="16" stroke-linecap="round" opacity=".16"/>
  <path d="M60 678 C164 722 348 718 452 662" stroke="#fff" stroke-width="14" stroke-linecap="round" opacity=".16"/>
</svg>