<svg xmlns="http://www.w3.org/2000/svg" viewBox="0 0 512 768" role="img" aria-label="虹光仙女 unique portrait">
  <defs>
    <linearGradient id="bg826" x1="0" y1="0" x2="1" y2="1"><stop offset="0" stop-color="#9be7ff"/><stop offset=".55" stop-color="#2f80ed"/><stop offset="1" stop-color="#8a2f68"/></linearGradient>
    <radialGradient id="body826" cx=".35" cy=".24" r=".78"><stop offset="0" stop-color="#fff" stop-opacity=".88"/><stop offset=".18" stop-color="#9be7ff"/><stop offset=".68" stop-color="#2f80ed"/><stop offset="1" stop-color="#8a2f68"/></radialGradient>
    <filter id="shadow826" x="-30%" y="-30%" width="160%" height="160%"><feDropShadow dx="0" dy="10" stdDeviation="9" flood-color="#8a2f68" flood-opacity=".36"/></filter>
  </defs>
  <rect width="512" height="768" rx="48" fill="url(#bg826)"/>
  <rect x="24" y="24" width="464" height="720" rx="40" fill="#fff" opacity=".08"/>
  <g opacity=".46"><circle cx="144" cy="212" r="4.1" fill="#fff" opacity="0.54"/><circle cx="464" cy="491" r="2.2" fill="#fff" opacity="0.22"/><circle cx="135" cy="291" r="4.0" fill="#fff" opacity="0.54"/><circle cx="168" cy="177" r="1.7" fill="#fff" opacity="0.30"/><circle cx="315" cy="369" r="1.6" fill="#fff" opacity="0.63"/><circle cx="455" cy="81" r="1.6" fill="#fff" opacity="0.35"/><circle cx="84" cy="317" r="3.2" fill="#fff" opacity="0.63"/><circle cx="58" cy="192" r="2.9" fill="#fff" opacity="0.46"/><circle cx="382" cy="282" r="1.8" fill="#fff" opacity="0.57"/><circle cx="326" cy="223" r="1.6" fill="#fff" opacity="0.39"/><circle cx="118" cy="509" r="4.1" fill="#fff" opacity="0.50"/><circle cx="335" cy="231" r="2.6" fill="#fff" opacity="0.47"/><circle cx="178" cy="573" r="1.5" fill="#fff" opacity="0.41"/><circle cx="296" cy="498" r="4.9" fill="#fff" opacity="0.49"/><circle cx="198" cy="192" r="1.2" fill="#fff" opacity="0.32"/><circle cx="156" cy="402" r="1.2" fill="#fff" opacity="0.53"/><circle cx="47" cy="438" r="3.2" fill="#fff" opacity="0.24"/><circle cx="391" cy="344" r="3.4" fill="#fff" opacity="0.33"/><circle cx="43" cy="237" r="4.1" fill="#fff" opacity="0.45"/><circle cx="377" cy="509" r="4.7" fill="#fff" opacity="0.48"/><circle cx="160" cy="421" r="4.3" fill="#fff" opacity="0.52"/></g>
  <path d="M0 596 C80 558 128 616 202 584 C281 550 332 618 418 582 C464 563 492 570 512 586 V768 H0Z" fill="#8a2f68" opacity=".22"/>
  <ellipse cx="256" cy="664" rx="154" ry="36" fill="#8a2f68" opacity=".3"/>
  <g transform="translate(0 84)"><path d="M151 500 C116 338 160 190 256 170 C352 190 396 338 361 500 C320 466 291 532 256 490 C221 532 192 466 151 500Z" fill="url(#body826)" filter="url(#shadow826)"/>
    <circle cx="212" cy="318" r="17" fill="#101827"/><circle cx="300" cy="318" r="17" fill="#101827"/>
    <circle cx="206" cy="312" r="5" fill="#fff" opacity=".75"/><circle cx="294" cy="312" r="5" fill="#fff" opacity=".75"/>
    <path d="M206 410 Q256 442 306 410" stroke="#8a2f68" stroke-width="12" fill="none" stroke-linecap="round" opacity=".72"/>
    <path d="M188 560 C228 600 288 600 326 560" stroke="#fff" stroke-width="12" stroke-linecap="round" opacity=".18" fill="none"/>
  </g>
  <path d="M72 128 C168 68 334 66 440 128" stroke="#fff" stroke-width="16" stroke-linecap="round" opacity=".16"/>
  <path d="M60 678 C164 722 348 718 452 662" stroke="#fff" stroke-width="14" stroke-linecap="round" opacity=".16"/>
</svg>