<svg xmlns="http://www.w3.org/2000/svg" viewBox="0 0 512 768" role="img" aria-label="寒铁矿蛾 unique portrait">
  <defs>
    <linearGradient id="bg827" x1="0" y1="0" x2="1" y2="1"><stop offset="0" stop-color="#e8fbff"/><stop offset=".55" stop-color="#7bdff2"/><stop offset="1" stop-color="#344450"/></linearGradient>
    <radialGradient id="body827" cx=".35" cy=".24" r=".78"><stop offset="0" stop-color="#fff" stop-opacity=".88"/><stop offset=".18" stop-color="#e8fbff"/><stop offset=".68" stop-color="#7bdff2"/><stop offset="1" stop-color="#344450"/></radialGradient>
    <filter id="shadow827" x="-30%" y="-30%" width="160%" height="160%"><feDropShadow dx="0" dy="10" stdDeviation="9" flood-color="#344450" flood-opacity=".36"/></filter>
  </defs>
  <rect width="512" height="768" rx="48" fill="url(#bg827)"/>
  <rect x="24" y="24" width="464" height="720" rx="40" fill="#fff" opacity=".08"/>
  <g opacity=".46"><circle cx="179" cy="470" r="4.1" fill="#fff" opacity="0.53"/><circle cx="276" cy="226" r="1.6" fill="#fff" opacity="0.29"/><circle cx="358" cy="171" r="2.3" fill="#fff" opacity="0.63"/><circle cx="191" cy="548" r="5.0" fill="#fff" opacity="0.45"/><circle cx="433" cy="387" r="2.0" fill="#fff" opacity="0.61"/><circle cx="69" cy="242" r="3.0" fill="#fff" opacity="0.58"/><circle cx="444" cy="250" r="3.4" fill="#fff" opacity="0.29"/><circle cx="292" cy="612" r="5.4" fill="#fff" opacity="0.57"/><circle cx="60" cy="228" r="3.5" fill="#fff" opacity="0.40"/><circle cx="293" cy="185" r="2.4" fill="#fff" opacity="0.49"/><circle cx="459" cy="382" r="3.4" fill="#fff" opacity="0.62"/><circle cx="63" cy="116" r="2.2" fill="#fff" opacity="0.24"/></g>
  <path d="M0 596 C80 558 128 616 202 584 C281 550 332 618 418 582 C464 563 492 570 512 586 V768 H0Z" fill="#344450" opacity=".22"/>
  <ellipse cx="256" cy="664" rx="154" ry="36" fill="#344450" opacity=".3"/>
  <g transform="translate(0 84)"><circle cx="256" cy="357" r="128" fill="url(#body827)" filter="url(#shadow827)"/><circle cx="256" cy="357" r="70" fill="#d7e3ea" opacity=".26"/>
    <circle cx="208" cy="317" r="17" fill="#344450"/><circle cx="304" cy="317" r="17" fill="#344450"/>
    <circle cx="202" cy="311" r="5" fill="#fff" opacity=".75"/><circle cx="298" cy="311" r="5" fill="#fff" opacity=".75"/>
    <path d="M206 410 Q256 442 306 410" stroke="#344450" stroke-width="12" fill="none" stroke-linecap="round" opacity=".72"/>
    <path d="M188 560 C228 600 288 600 326 560" stroke="#fff" stroke-width="12" stroke-linecap="round" opacity=".18" fill="none"/>
  </g>
  <path d="M72 128 C168 68 334 66 440 128" stroke="#fff" stroke-width="16" stroke-linecap="round" opacity=".16"/>
  <path d="M60 678 C164 722 348 718 452 662" stroke="#fff" stroke-width="14" stroke-linecap="round" opacity=".16"/>
</svg>