<svg xmlns="http://www.w3.org/2000/svg" viewBox="0 0 512 768" role="img" aria-label="冻晶铁鸟 unique portrait">
  <defs>
    <linearGradient id="bg828" x1="0" y1="0" x2="1" y2="1"><stop offset="0" stop-color="#e8fbff"/><stop offset=".55" stop-color="#7bdff2"/><stop offset="1" stop-color="#344450"/></linearGradient>
    <radialGradient id="body828" cx=".35" cy=".24" r=".78"><stop offset="0" stop-color="#fff" stop-opacity=".88"/><stop offset=".18" stop-color="#e8fbff"/><stop offset=".68" stop-color="#7bdff2"/><stop offset="1" stop-color="#344450"/></radialGradient>
    <filter id="shadow828" x="-30%" y="-30%" width="160%" height="160%"><feDropShadow dx="0" dy="10" stdDeviation="9" flood-color="#344450" flood-opacity=".36"/></filter>
  </defs>
  <rect width="512" height="768" rx="48" fill="url(#bg828)"/>
  <rect x="24" y="24" width="464" height="720" rx="40" fill="#fff" opacity=".08"/>
  <g opacity=".46"><circle cx="296" cy="179" r="4.3" fill="#fff" opacity="0.34"/><circle cx="279" cy="548" r="2.5" fill="#fff" opacity="0.60"/><circle cx="334" cy="302" r="3.9" fill="#fff" opacity="0.57"/><circle cx="228" cy="229" r="2.4" fill="#fff" opacity="0.47"/><circle cx="270" cy="393" r="3.9" fill="#fff" opacity="0.46"/><circle cx="124" cy="223" r="1.3" fill="#fff" opacity="0.58"/><circle cx="340" cy="260" r="1.9" fill="#fff" opacity="0.56"/><circle cx="319" cy="597" r="2.8" fill="#fff" opacity="0.41"/><circle cx="361" cy="153" r="5.1" fill="#fff" opacity="0.38"/><circle cx="116" cy="617" r="1.6" fill="#fff" opacity="0.54"/><circle cx="200" cy="514" r="5.3" fill="#fff" opacity="0.58"/><circle cx="135" cy="564" r="3.4" fill="#fff" opacity="0.59"/><circle cx="277" cy="566" r="1.9" fill="#fff" opacity="0.62"/><circle cx="369" cy="146" r="3.1" fill="#fff" opacity="0.59"/></g>
  <path d="M0 596 C80 558 128 616 202 584 C281 550 332 618 418 582 C464 563 492 570 512 586 V768 H0Z" fill="#344450" opacity=".22"/>
  <ellipse cx="256" cy="664" rx="154" ry="36" fill="#344450" opacity=".3"/>
  <g transform="translate(0 84)"><path d="M148 520 C118 346 156 196 256 164 C356 196 394 346 364 520 C326 488 292 532 256 496 C220 532 186 488 148 520Z" fill="url(#body828)" filter="url(#shadow828)"/>
    <circle cx="216" cy="320" r="17" fill="#344450"/><circle cx="296" cy="320" r="17" fill="#344450"/>
    <circle cx="210" cy="314" r="5" fill="#fff" opacity=".75"/><circle cx="290" cy="314" r="5" fill="#fff" opacity=".75"/>
    <path d="M214 248 Q256 284 298 248" stroke="#d7e3ea" stroke-width="14" fill="none" stroke-linecap="round" opacity=".74"/>
    <path d="M188 560 C228 600 288 600 326 560" stroke="#fff" stroke-width="12" stroke-linecap="round" opacity=".18" fill="none"/>
  </g>
  <path d="M72 128 C168 68 334 66 440 128" stroke="#fff" stroke-width="16" stroke-linecap="round" opacity=".16"/>
  <path d="M60 678 C164 722 348 718 452 662" stroke="#fff" stroke-width="14" stroke-linecap="round" opacity=".16"/>
</svg>