<svg xmlns="http://www.w3.org/2000/svg" viewBox="0 0 512 768" role="img" aria-label="菌丝幼芽 unique portrait">
  <defs>
    <linearGradient id="bg829" x1="0" y1="0" x2="1" y2="1"><stop offset="0" stop-color="#c8f7a1"/><stop offset=".55" stop-color="#36b56a"/><stop offset="1" stop-color="#3d195b"/></linearGradient>
    <radialGradient id="body829" cx=".35" cy=".24" r=".78"><stop offset="0" stop-color="#fff" stop-opacity=".88"/><stop offset=".18" stop-color="#c8f7a1"/><stop offset=".68" stop-color="#36b56a"/><stop offset="1" stop-color="#3d195b"/></radialGradient>
    <filter id="shadow829" x="-30%" y="-30%" width="160%" height="160%"><feDropShadow dx="0" dy="10" stdDeviation="9" flood-color="#3d195b" flood-opacity=".36"/></filter>
  </defs>
  <rect width="512" height="768" rx="48" fill="url(#bg829)"/>
  <rect x="24" y="24" width="464" height="720" rx="40" fill="#fff" opacity=".08"/>
  <g opacity=".46"><circle cx="438" cy="581" r="3.1" fill="#fff" opacity="0.31"/><circle cx="352" cy="99" r="4.1" fill="#fff" opacity="0.33"/><circle cx="361" cy="481" r="3.1" fill="#fff" opacity="0.22"/><circle cx="169" cy="112" r="1.2" fill="#fff" opacity="0.54"/><circle cx="369" cy="96" r="2.3" fill="#fff" opacity="0.30"/><circle cx="195" cy="223" r="2.1" fill="#fff" opacity="0.55"/><circle cx="339" cy="597" r="4.6" fill="#fff" opacity="0.38"/><circle cx="248" cy="405" r="5.1" fill="#fff" opacity="0.48"/><circle cx="186" cy="377" r="4.4" fill="#fff" opacity="0.56"/><circle cx="165" cy="105" r="1.6" fill="#fff" opacity="0.39"/><circle cx="447" cy="565" r="2.0" fill="#fff" opacity="0.51"/><circle cx="415" cy="294" r="2.2" fill="#fff" opacity="0.56"/><circle cx="337" cy="412" r="3.9" fill="#fff" opacity="0.32"/><circle cx="255" cy="63" r="3.1" fill="#fff" opacity="0.34"/><circle cx="249" cy="139" r="4.2" fill="#fff" opacity="0.44"/><circle cx="262" cy="247" r="1.7" fill="#fff" opacity="0.60"/><circle cx="134" cy="182" r="4.5" fill="#fff" opacity="0.62"/><circle cx="452" cy="101" r="2.3" fill="#fff" opacity="0.29"/><circle cx="336" cy="269" r="2.6" fill="#fff" opacity="0.54"/><circle cx="437" cy="122" r="1.4" fill="#fff" opacity="0.28"/></g>
  <path d="M0 596 C80 558 128 616 202 584 C281 550 332 618 418 582 C464 563 492 570 512 586 V768 H0Z" fill="#3d195b" opacity=".22"/>
  <ellipse cx="256" cy="664" rx="154" ry="36" fill="#3d195b" opacity=".3"/>
  <g transform="translate(0 84)"><path d="M148 520 C118 346 156 196 256 164 C356 196 394 346 364 520 C326 488 292 532 256 496 C220 532 186 488 148 520Z" fill="url(#body829)" filter="url(#shadow829)"/>
    <circle cx="208" cy="320" r="17" fill="#3d195b"/><circle cx="304" cy="320" r="17" fill="#3d195b"/>
    <circle cx="202" cy="314" r="5" fill="#fff" opacity=".75"/><circle cx="298" cy="314" r="5" fill="#fff" opacity=".75"/>
    <path d="M206 410 Q256 442 306 410" stroke="#3d195b" stroke-width="12" fill="none" stroke-linecap="round" opacity=".72"/>
    <path d="M188 560 C228 600 288 600 326 560" stroke="#fff" stroke-width="12" stroke-linecap="round" opacity=".18" fill="none"/>
  </g>
  <path d="M72 128 C168 68 334 66 440 128" stroke="#fff" stroke-width="16" stroke-linecap="round" opacity=".16"/>
  <path d="M60 678 C164 722 348 718 452 662" stroke="#fff" stroke-width="14" stroke-linecap="round" opacity=".16"/>
</svg>