<svg xmlns="http://www.w3.org/2000/svg" viewBox="0 0 512 768" role="img" aria-label="腐蚀菌王 unique portrait">
  <defs>
    <linearGradient id="bg830" x1="0" y1="0" x2="1" y2="1"><stop offset="0" stop-color="#c8f7a1"/><stop offset=".55" stop-color="#36b56a"/><stop offset="1" stop-color="#3d195b"/></linearGradient>
    <radialGradient id="body830" cx=".35" cy=".24" r=".78"><stop offset="0" stop-color="#fff" stop-opacity=".88"/><stop offset=".18" stop-color="#c8f7a1"/><stop offset=".68" stop-color="#36b56a"/><stop offset="1" stop-color="#3d195b"/></radialGradient>
    <filter id="shadow830" x="-30%" y="-30%" width="160%" height="160%"><feDropShadow dx="0" dy="10" stdDeviation="9" flood-color="#3d195b" flood-opacity=".36"/></filter>
  </defs>
  <rect width="512" height="768" rx="48" fill="url(#bg830)"/>
  <rect x="24" y="24" width="464" height="720" rx="40" fill="#fff" opacity=".08"/>
  <g opacity=".46"><circle cx="160" cy="428" r="2.9" fill="#fff" opacity="0.50"/><circle cx="165" cy="444" r="3.2" fill="#fff" opacity="0.44"/><circle cx="407" cy="327" r="4.9" fill="#fff" opacity="0.62"/><circle cx="423" cy="185" r="3.8" fill="#fff" opacity="0.50"/><circle cx="237" cy="86" r="1.5" fill="#fff" opacity="0.40"/><circle cx="216" cy="223" r="3.1" fill="#fff" opacity="0.38"/><circle cx="160" cy="387" r="1.5" fill="#fff" opacity="0.63"/><circle cx="294" cy="243" r="2.6" fill="#fff" opacity="0.45"/><circle cx="96" cy="180" r="2.9" fill="#fff" opacity="0.37"/><circle cx="205" cy="96" r="2.5" fill="#fff" opacity="0.37"/><circle cx="421" cy="401" r="4.6" fill="#fff" opacity="0.29"/><circle cx="382" cy="567" r="5.2" fill="#fff" opacity="0.61"/><circle cx="125" cy="528" r="3.3" fill="#fff" opacity="0.53"/><circle cx="223" cy="334" r="4.8" fill="#fff" opacity="0.26"/><circle cx="207" cy="628" r="1.3" fill="#fff" opacity="0.63"/><circle cx="91" cy="553" r="3.1" fill="#fff" opacity="0.58"/><circle cx="79" cy="378" r="1.8" fill="#fff" opacity="0.60"/><circle cx="179" cy="229" r="1.3" fill="#fff" opacity="0.36"/><circle cx="384" cy="518" r="2.5" fill="#fff" opacity="0.27"/><circle cx="121" cy="325" r="4.5" fill="#fff" opacity="0.37"/><circle cx="421" cy="526" r="1.8" fill="#fff" opacity="0.41"/></g>
  <path d="M0 596 C80 558 128 616 202 584 C281 550 332 618 418 582 C464 563 492 570 512 586 V768 H0Z" fill="#3d195b" opacity=".22"/>
  <ellipse cx="256" cy="664" rx="154" ry="36" fill="#3d195b" opacity=".3"/>
  <g transform="translate(0 84)"><path d="M151 500 C116 338 160 190 256 170 C352 190 396 338 361 500 C320 466 291 532 256 490 C221 532 192 466 151 500Z" fill="url(#body830)" filter="url(#shadow830)"/>
    <circle cx="214" cy="324" r="17" fill="#101827"/><circle cx="298" cy="324" r="17" fill="#101827"/>
    <circle cx="208" cy="318" r="5" fill="#fff" opacity=".75"/><circle cx="292" cy="318" r="5" fill="#fff" opacity=".75"/>
    <path d="M206 410 Q256 442 306 410" stroke="#3d195b" stroke-width="12" fill="none" stroke-linecap="round" opacity=".72"/>
    <path d="M188 560 C228 600 288 600 326 560" stroke="#fff" stroke-width="12" stroke-linecap="round" opacity=".18" fill="none"/>
  </g>
  <path d="M72 128 C168 68 334 66 440 128" stroke="#fff" stroke-width="16" stroke-linecap="round" opacity=".16"/>
  <path d="M60 678 C164 722 348 718 452 662" stroke="#fff" stroke-width="14" stroke-linecap="round" opacity=".16"/>
</svg>