<svg xmlns="http://www.w3.org/2000/svg" viewBox="0 0 512 768" role="img" aria-label="镜面剑士 unique portrait">
  <defs>
    <linearGradient id="bg831" x1="0" y1="0" x2="1" y2="1"><stop offset="0" stop-color="#d7e3ea"/><stop offset=".55" stop-color="#7a8b99"/><stop offset="1" stop-color="#80305d"/></linearGradient>
    <radialGradient id="body831" cx=".35" cy=".24" r=".78"><stop offset="0" stop-color="#fff" stop-opacity=".88"/><stop offset=".18" stop-color="#d7e3ea"/><stop offset=".68" stop-color="#7a8b99"/><stop offset="1" stop-color="#80305d"/></radialGradient>
    <filter id="shadow831" x="-30%" y="-30%" width="160%" height="160%"><feDropShadow dx="0" dy="10" stdDeviation="9" flood-color="#80305d" flood-opacity=".36"/></filter>
  </defs>
  <rect width="512" height="768" rx="48" fill="url(#bg831)"/>
  <rect x="24" y="24" width="464" height="720" rx="40" fill="#fff" opacity=".08"/>
  <g opacity=".46"><circle cx="174" cy="449" r="2.7" fill="#fff" opacity="0.56"/><circle cx="285" cy="315" r="3.9" fill="#fff" opacity="0.35"/><circle cx="354" cy="343" r="2.2" fill="#fff" opacity="0.37"/><circle cx="308" cy="289" r="5.3" fill="#fff" opacity="0.53"/><circle cx="329" cy="317" r="1.4" fill="#fff" opacity="0.59"/><circle cx="182" cy="424" r="1.9" fill="#fff" opacity="0.56"/><circle cx="139" cy="511" r="1.4" fill="#fff" opacity="0.48"/><circle cx="134" cy="527" r="2.0" fill="#fff" opacity="0.38"/><circle cx="350" cy="625" r="3.6" fill="#fff" opacity="0.38"/><circle cx="296" cy="332" r="5.0" fill="#fff" opacity="0.39"/><circle cx="186" cy="208" r="3.7" fill="#fff" opacity="0.51"/><circle cx="198" cy="475" r="2.5" fill="#fff" opacity="0.59"/><circle cx="469" cy="393" r="4.8" fill="#fff" opacity="0.34"/><circle cx="287" cy="498" r="4.5" fill="#fff" opacity="0.35"/><circle cx="448" cy="414" r="1.9" fill="#fff" opacity="0.51"/></g>
  <path d="M0 596 C80 558 128 616 202 584 C281 550 332 618 418 582 C464 563 492 570 512 586 V768 H0Z" fill="#80305d" opacity=".22"/>
  <ellipse cx="256" cy="664" rx="154" ry="36" fill="#80305d" opacity=".3"/>
  <g transform="translate(0 84)"><path d="M151 500 C116 338 160 190 256 170 C352 190 396 338 361 500 C320 466 291 532 256 490 C221 532 192 466 151 500Z" fill="url(#body831)" filter="url(#shadow831)"/>
    <circle cx="212" cy="334" r="17" fill="#101827"/><circle cx="300" cy="334" r="17" fill="#101827"/>
    <circle cx="206" cy="328" r="5" fill="#fff" opacity=".75"/><circle cx="294" cy="328" r="5" fill="#fff" opacity=".75"/>
    <path d="M206 410 Q256 442 306 410" stroke="#80305d" stroke-width="12" fill="none" stroke-linecap="round" opacity=".72"/>
    <path d="M188 560 C228 600 288 600 326 560" stroke="#fff" stroke-width="12" stroke-linecap="round" opacity=".18" fill="none"/>
  </g>
  <path d="M72 128 C168 68 334 66 440 128" stroke="#fff" stroke-width="16" stroke-linecap="round" opacity=".16"/>
  <path d="M60 678 C164 722 348 718 452 662" stroke="#fff" stroke-width="14" stroke-linecap="round" opacity=".16"/>
</svg>