<svg xmlns="http://www.w3.org/2000/svg" viewBox="0 0 512 768" role="img" aria-label="星尘凤凰 unique portrait">
  <defs>
    <linearGradient id="bg832" x1="0" y1="0" x2="1" y2="1"><stop offset="0" stop-color="#bae6fd"/><stop offset=".55" stop-color="#2563eb"/><stop offset="1" stop-color="#a92d1d"/></linearGradient>
    <radialGradient id="body832" cx=".35" cy=".24" r=".78"><stop offset="0" stop-color="#fff" stop-opacity=".88"/><stop offset=".18" stop-color="#bae6fd"/><stop offset=".68" stop-color="#2563eb"/><stop offset="1" stop-color="#a92d1d"/></radialGradient>
    <filter id="shadow832" x="-30%" y="-30%" width="160%" height="160%"><feDropShadow dx="0" dy="10" stdDeviation="9" flood-color="#a92d1d" flood-opacity=".36"/></filter>
  </defs>
  <rect width="512" height="768" rx="48" fill="url(#bg832)"/>
  <rect x="24" y="24" width="464" height="720" rx="40" fill="#fff" opacity=".08"/>
  <g opacity=".46"><circle cx="226" cy="394" r="2.3" fill="#fff" opacity="0.58"/><circle cx="290" cy="431" r="3.5" fill="#fff" opacity="0.55"/><circle cx="400" cy="545" r="2.2" fill="#fff" opacity="0.33"/><circle cx="338" cy="298" r="4.2" fill="#fff" opacity="0.33"/><circle cx="139" cy="256" r="3.2" fill="#fff" opacity="0.45"/><circle cx="56" cy="332" r="3.9" fill="#fff" opacity="0.41"/><circle cx="251" cy="612" r="1.8" fill="#fff" opacity="0.26"/><circle cx="266" cy="479" r="2.1" fill="#fff" opacity="0.60"/><circle cx="93" cy="177" r="3.8" fill="#fff" opacity="0.34"/><circle cx="80" cy="433" r="4.6" fill="#fff" opacity="0.43"/><circle cx="78" cy="553" r="5.2" fill="#fff" opacity="0.31"/><circle cx="385" cy="487" r="4.9" fill="#fff" opacity="0.27"/><circle cx="439" cy="262" r="3.2" fill="#fff" opacity="0.33"/><circle cx="306" cy="346" r="1.3" fill="#fff" opacity="0.42"/><circle cx="317" cy="458" r="2.2" fill="#fff" opacity="0.34"/><circle cx="341" cy="523" r="3.4" fill="#fff" opacity="0.27"/><circle cx="348" cy="251" r="2.0" fill="#fff" opacity="0.53"/><circle cx="276" cy="632" r="1.9" fill="#fff" opacity="0.43"/><circle cx="223" cy="527" r="5.0" fill="#fff" opacity="0.30"/></g>
  <path d="M0 596 C80 558 128 616 202 584 C281 550 332 618 418 582 C464 563 492 570 512 586 V768 H0Z" fill="#a92d1d" opacity=".22"/>
  <ellipse cx="256" cy="664" rx="154" ry="36" fill="#a92d1d" opacity=".3"/>
  <g transform="translate(0 84)"><path d="M316 492 C426 508 425 604 334 594 C391 562 368 528 302 536" fill="none" stroke="#ff6b35" stroke-width="34" stroke-linecap="round" opacity=".72"/><path d="M178 196 L133 114 L221 170 Z" fill="#ff6b35" opacity=".8"/><path d="M334 196 L379 114 L291 170 Z" fill="#ff6b35" opacity=".8"/><path d="M151 500 C116 338 160 190 256 170 C352 190 396 338 361 500 C320 466 291 532 256 490 C221 532 192 466 151 500Z" fill="url(#body832)" filter="url(#shadow832)"/>
    <circle cx="209" cy="324" r="17" fill="#101827"/><circle cx="303" cy="324" r="17" fill="#101827"/>
    <circle cx="203" cy="318" r="5" fill="#fff" opacity=".75"/><circle cx="297" cy="318" r="5" fill="#fff" opacity=".75"/>
    <path d="M206 410 Q256 442 306 410" stroke="#a92d1d" stroke-width="12" fill="none" stroke-linecap="round" opacity=".72"/>
    <path d="M188 560 C228 600 288 600 326 560" stroke="#fff" stroke-width="12" stroke-linecap="round" opacity=".18" fill="none"/>
  </g>
  <path d="M72 128 C168 68 334 66 440 128" stroke="#fff" stroke-width="16" stroke-linecap="round" opacity=".16"/>
  <path d="M60 678 C164 722 348 718 452 662" stroke="#fff" stroke-width="14" stroke-linecap="round" opacity=".16"/>
</svg>