<svg xmlns="http://www.w3.org/2000/svg" viewBox="0 0 512 768" role="img" aria-label="深渊鲛姬 unique portrait">
  <defs>
    <linearGradient id="bg833" x1="0" y1="0" x2="1" y2="1"><stop offset="0" stop-color="#9be7ff"/><stop offset=".55" stop-color="#2f80ed"/><stop offset="1" stop-color="#111827"/></linearGradient>
    <radialGradient id="body833" cx=".35" cy=".24" r=".78"><stop offset="0" stop-color="#fff" stop-opacity=".88"/><stop offset=".18" stop-color="#9be7ff"/><stop offset=".68" stop-color="#2f80ed"/><stop offset="1" stop-color="#111827"/></radialGradient>
    <filter id="shadow833" x="-30%" y="-30%" width="160%" height="160%"><feDropShadow dx="0" dy="10" stdDeviation="9" flood-color="#111827" flood-opacity=".36"/></filter>
  </defs>
  <rect width="512" height="768" rx="48" fill="url(#bg833)"/>
  <rect x="24" y="24" width="464" height="720" rx="40" fill="#fff" opacity=".08"/>
  <g opacity=".46"><circle cx="142" cy="169" r="5.1" fill="#fff" opacity="0.26"/><circle cx="111" cy="398" r="5.4" fill="#fff" opacity="0.38"/><circle cx="456" cy="542" r="3.0" fill="#fff" opacity="0.42"/><circle cx="317" cy="399" r="2.5" fill="#fff" opacity="0.31"/><circle cx="180" cy="239" r="1.4" fill="#fff" opacity="0.42"/><circle cx="184" cy="322" r="4.3" fill="#fff" opacity="0.37"/><circle cx="143" cy="354" r="1.7" fill="#fff" opacity="0.34"/><circle cx="100" cy="546" r="2.4" fill="#fff" opacity="0.53"/><circle cx="217" cy="461" r="4.4" fill="#fff" opacity="0.56"/><circle cx="267" cy="524" r="5.3" fill="#fff" opacity="0.49"/><circle cx="109" cy="288" r="4.2" fill="#fff" opacity="0.44"/><circle cx="242" cy="540" r="4.7" fill="#fff" opacity="0.52"/><circle cx="222" cy="311" r="3.3" fill="#fff" opacity="0.47"/><circle cx="173" cy="407" r="4.1" fill="#fff" opacity="0.58"/><circle cx="213" cy="173" r="4.3" fill="#fff" opacity="0.23"/><circle cx="363" cy="120" r="3.5" fill="#fff" opacity="0.61"/></g>
  <path d="M0 596 C80 558 128 616 202 584 C281 550 332 618 418 582 C464 563 492 570 512 586 V768 H0Z" fill="#111827" opacity=".22"/>
  <ellipse cx="256" cy="664" rx="154" ry="36" fill="#111827" opacity=".3"/>
  <g transform="translate(0 84)"><path d="M178 196 L133 114 L221 170 Z" fill="#30343f" opacity=".8"/><path d="M334 196 L379 114 L291 170 Z" fill="#30343f" opacity=".8"/><path d="M151 500 C116 338 160 190 256 170 C352 190 396 338 361 500 C320 466 291 532 256 490 C221 532 192 466 151 500Z" fill="url(#body833)" filter="url(#shadow833)"/>
    <circle cx="210" cy="339" r="17" fill="#111827"/><circle cx="302" cy="339" r="17" fill="#111827"/>
    <circle cx="204" cy="333" r="5" fill="#fff" opacity=".75"/><circle cx="296" cy="333" r="5" fill="#fff" opacity=".75"/>
    <path d="M206 410 Q256 442 306 410" stroke="#111827" stroke-width="12" fill="none" stroke-linecap="round" opacity=".72"/>
    <path d="M188 560 C228 600 288 600 326 560" stroke="#fff" stroke-width="12" stroke-linecap="round" opacity=".18" fill="none"/>
  </g>
  <path d="M72 128 C168 68 334 66 440 128" stroke="#fff" stroke-width="16" stroke-linecap="round" opacity=".16"/>
  <path d="M60 678 C164 722 348 718 452 662" stroke="#fff" stroke-width="14" stroke-linecap="round" opacity=".16"/>
</svg>