<svg xmlns="http://www.w3.org/2000/svg" viewBox="0 0 512 768" role="img" aria-label="雷霆战熊 unique portrait">
  <defs>
    <linearGradient id="bg834" x1="0" y1="0" x2="1" y2="1"><stop offset="0" stop-color="#fff176"/><stop offset=".55" stop-color="#f9c74f"/><stop offset="1" stop-color="#6d2b1f"/></linearGradient>
    <radialGradient id="body834" cx=".35" cy=".24" r=".78"><stop offset="0" stop-color="#fff" stop-opacity=".88"/><stop offset=".18" stop-color="#fff176"/><stop offset=".68" stop-color="#f9c74f"/><stop offset="1" stop-color="#6d2b1f"/></radialGradient>
    <filter id="shadow834" x="-30%" y="-30%" width="160%" height="160%"><feDropShadow dx="0" dy="10" stdDeviation="9" flood-color="#6d2b1f" flood-opacity=".36"/></filter>
  </defs>
  <rect width="512" height="768" rx="48" fill="url(#bg834)"/>
  <rect x="24" y="24" width="464" height="720" rx="40" fill="#fff" opacity=".08"/>
  <g opacity=".46"><circle cx="140" cy="418" r="3.0" fill="#fff" opacity="0.44"/><circle cx="385" cy="366" r="5.3" fill="#fff" opacity="0.30"/><circle cx="334" cy="411" r="4.5" fill="#fff" opacity="0.28"/><circle cx="310" cy="541" r="4.2" fill="#fff" opacity="0.32"/><circle cx="400" cy="220" r="4.4" fill="#fff" opacity="0.27"/><circle cx="454" cy="260" r="1.4" fill="#fff" opacity="0.46"/><circle cx="92" cy="402" r="4.9" fill="#fff" opacity="0.45"/><circle cx="388" cy="417" r="5.0" fill="#fff" opacity="0.41"/><circle cx="440" cy="502" r="2.6" fill="#fff" opacity="0.26"/><circle cx="160" cy="80" r="4.2" fill="#fff" opacity="0.33"/><circle cx="183" cy="83" r="5.3" fill="#fff" opacity="0.62"/><circle cx="173" cy="307" r="4.0" fill="#fff" opacity="0.27"/><circle cx="82" cy="95" r="4.8" fill="#fff" opacity="0.31"/><circle cx="201" cy="195" r="5.1" fill="#fff" opacity="0.43"/><circle cx="440" cy="150" r="1.9" fill="#fff" opacity="0.42"/><circle cx="156" cy="558" r="2.0" fill="#fff" opacity="0.37"/></g>
  <path d="M0 596 C80 558 128 616 202 584 C281 550 332 618 418 582 C464 563 492 570 512 586 V768 H0Z" fill="#6d2b1f" opacity=".22"/>
  <ellipse cx="256" cy="664" rx="154" ry="36" fill="#6d2b1f" opacity=".3"/>
  <g transform="translate(0 84)"><path d="M178 196 L133 114 L221 170 Z" fill="#d05a3b" opacity=".8"/><path d="M334 196 L379 114 L291 170 Z" fill="#d05a3b" opacity=".8"/><path d="M151 500 C116 338 160 190 256 170 C352 190 396 338 361 500 C320 466 291 532 256 490 C221 532 192 466 151 500Z" fill="url(#body834)" filter="url(#shadow834)"/>
    <circle cx="213" cy="318" r="17" fill="#6d2b1f"/><circle cx="299" cy="318" r="17" fill="#6d2b1f"/>
    <circle cx="207" cy="312" r="5" fill="#fff" opacity=".75"/><circle cx="293" cy="312" r="5" fill="#fff" opacity=".75"/>
    <path d="M206 410 Q256 442 306 410" stroke="#6d2b1f" stroke-width="12" fill="none" stroke-linecap="round" opacity=".72"/>
    <path d="M188 560 C228 600 288 600 326 560" stroke="#fff" stroke-width="12" stroke-linecap="round" opacity=".18" fill="none"/>
  </g>
  <path d="M72 128 C168 68 334 66 440 128" stroke="#fff" stroke-width="16" stroke-linecap="round" opacity=".16"/>
  <path d="M60 678 C164 722 348 718 452 662" stroke="#fff" stroke-width="14" stroke-linecap="round" opacity=".16"/>
</svg>