<svg xmlns="http://www.w3.org/2000/svg" viewBox="0 0 512 768" role="img" aria-label="极光冰马 unique portrait">
  <defs>
    <linearGradient id="bg835" x1="0" y1="0" x2="1" y2="1"><stop offset="0" stop-color="#e8fbff"/><stop offset=".55" stop-color="#7bdff2"/><stop offset="1" stop-color="#b88712"/></linearGradient>
    <radialGradient id="body835" cx=".35" cy=".24" r=".78"><stop offset="0" stop-color="#fff" stop-opacity=".88"/><stop offset=".18" stop-color="#e8fbff"/><stop offset=".68" stop-color="#7bdff2"/><stop offset="1" stop-color="#b88712"/></radialGradient>
    <filter id="shadow835" x="-30%" y="-30%" width="160%" height="160%"><feDropShadow dx="0" dy="10" stdDeviation="9" flood-color="#b88712" flood-opacity=".36"/></filter>
  </defs>
  <rect width="512" height="768" rx="48" fill="url(#bg835)"/>
  <rect x="24" y="24" width="464" height="720" rx="40" fill="#fff" opacity=".08"/>
  <g opacity=".46"><circle cx="147" cy="193" r="4.6" fill="#fff" opacity="0.44"/><circle cx="433" cy="156" r="1.9" fill="#fff" opacity="0.23"/><circle cx="185" cy="196" r="2.3" fill="#fff" opacity="0.44"/><circle cx="115" cy="434" r="4.0" fill="#fff" opacity="0.61"/><circle cx="128" cy="421" r="2.1" fill="#fff" opacity="0.27"/><circle cx="107" cy="103" r="3.2" fill="#fff" opacity="0.60"/><circle cx="176" cy="134" r="5.3" fill="#fff" opacity="0.28"/><circle cx="202" cy="164" r="4.1" fill="#fff" opacity="0.28"/><circle cx="430" cy="600" r="1.2" fill="#fff" opacity="0.60"/><circle cx="447" cy="77" r="3.5" fill="#fff" opacity="0.25"/><circle cx="186" cy="207" r="4.9" fill="#fff" opacity="0.54"/><circle cx="223" cy="66" r="4.7" fill="#fff" opacity="0.32"/></g>
  <path d="M0 596 C80 558 128 616 202 584 C281 550 332 618 418 582 C464 563 492 570 512 586 V768 H0Z" fill="#b88712" opacity=".22"/>
  <ellipse cx="256" cy="664" rx="154" ry="36" fill="#b88712" opacity=".3"/>
  <g transform="translate(0 84)"><circle cx="256" cy="357" r="128" fill="url(#body835)" filter="url(#shadow835)"/><circle cx="256" cy="357" r="70" fill="#fff7bf" opacity=".26"/>
    <circle cx="217" cy="337" r="17" fill="#b88712"/><circle cx="295" cy="337" r="17" fill="#b88712"/>
    <circle cx="211" cy="331" r="5" fill="#fff" opacity=".75"/><circle cx="289" cy="331" r="5" fill="#fff" opacity=".75"/>
    <path d="M206 410 Q256 442 306 410" stroke="#b88712" stroke-width="12" fill="none" stroke-linecap="round" opacity=".72"/>
    <path d="M188 560 C228 600 288 600 326 560" stroke="#fff" stroke-width="12" stroke-linecap="round" opacity=".18" fill="none"/>
  </g>
  <path d="M72 128 C168 68 334 66 440 128" stroke="#fff" stroke-width="16" stroke-linecap="round" opacity=".16"/>
  <path d="M60 678 C164 722 348 718 452 662" stroke="#fff" stroke-width="14" stroke-linecap="round" opacity=".16"/>
</svg>