<svg xmlns="http://www.w3.org/2000/svg" viewBox="0 0 512 768" role="img" aria-label="翡翠风蛇 unique portrait">
  <defs>
    <linearGradient id="bg836" x1="0" y1="0" x2="1" y2="1"><stop offset="0" stop-color="#dffcf7"/><stop offset=".55" stop-color="#5dd6c8"/><stop offset="1" stop-color="#145a32"/></linearGradient>
    <radialGradient id="body836" cx=".35" cy=".24" r=".78"><stop offset="0" stop-color="#fff" stop-opacity=".88"/><stop offset=".18" stop-color="#dffcf7"/><stop offset=".68" stop-color="#5dd6c8"/><stop offset="1" stop-color="#145a32"/></radialGradient>
    <filter id="shadow836" x="-30%" y="-30%" width="160%" height="160%"><feDropShadow dx="0" dy="10" stdDeviation="9" flood-color="#145a32" flood-opacity=".36"/></filter>
  </defs>
  <rect width="512" height="768" rx="48" fill="url(#bg836)"/>
  <rect x="24" y="24" width="464" height="720" rx="40" fill="#fff" opacity=".08"/>
  <g opacity=".46"><circle cx="389" cy="389" r="2.1" fill="#fff" opacity="0.49"/><circle cx="348" cy="229" r="3.2" fill="#fff" opacity="0.53"/><circle cx="120" cy="241" r="2.5" fill="#fff" opacity="0.58"/><circle cx="187" cy="185" r="5.0" fill="#fff" opacity="0.24"/><circle cx="66" cy="453" r="5.0" fill="#fff" opacity="0.42"/><circle cx="413" cy="498" r="5.4" fill="#fff" opacity="0.52"/><circle cx="152" cy="235" r="4.4" fill="#fff" opacity="0.44"/><circle cx="111" cy="231" r="2.5" fill="#fff" opacity="0.31"/><circle cx="96" cy="114" r="2.5" fill="#fff" opacity="0.62"/><circle cx="412" cy="271" r="4.4" fill="#fff" opacity="0.57"/><circle cx="152" cy="163" r="4.2" fill="#fff" opacity="0.24"/><circle cx="98" cy="71" r="2.6" fill="#fff" opacity="0.55"/><circle cx="451" cy="194" r="3.1" fill="#fff" opacity="0.47"/><circle cx="394" cy="581" r="3.1" fill="#fff" opacity="0.50"/><circle cx="339" cy="278" r="4.7" fill="#fff" opacity="0.45"/><circle cx="396" cy="320" r="3.7" fill="#fff" opacity="0.45"/></g>
  <path d="M0 596 C80 558 128 616 202 584 C281 550 332 618 418 582 C464 563 492 570 512 586 V768 H0Z" fill="#145a32" opacity=".22"/>
  <ellipse cx="256" cy="664" rx="154" ry="36" fill="#145a32" opacity=".3"/>
  <g transform="translate(0 84)"><path d="M178 196 L133 114 L221 170 Z" fill="#36b56a" opacity=".8"/><path d="M334 196 L379 114 L291 170 Z" fill="#36b56a" opacity=".8"/><path d="M151 500 C116 338 160 190 256 170 C352 190 396 338 361 500 C320 466 291 532 256 490 C221 532 192 466 151 500Z" fill="url(#body836)" filter="url(#shadow836)"/>
    <circle cx="211" cy="338" r="17" fill="#145a32"/><circle cx="301" cy="338" r="17" fill="#145a32"/>
    <circle cx="205" cy="332" r="5" fill="#fff" opacity=".75"/><circle cx="295" cy="332" r="5" fill="#fff" opacity=".75"/>
    <path d="M206 410 Q256 442 306 410" stroke="#145a32" stroke-width="12" fill="none" stroke-linecap="round" opacity=".72"/>
    <path d="M188 560 C228 600 288 600 326 560" stroke="#fff" stroke-width="12" stroke-linecap="round" opacity=".18" fill="none"/>
  </g>
  <path d="M72 128 C168 68 334 66 440 128" stroke="#fff" stroke-width="16" stroke-linecap="round" opacity=".16"/>
  <path d="M60 678 C164 722 348 718 452 662" stroke="#fff" stroke-width="14" stroke-linecap="round" opacity=".16"/>
</svg>