<svg xmlns="http://www.w3.org/2000/svg" viewBox="0 0 512 768" role="img" aria-label="音律花灵 unique portrait">
  <defs>
    <linearGradient id="bg837" x1="0" y1="0" x2="1" y2="1"><stop offset="0" stop-color="#fde68a"/><stop offset=".55" stop-color="#ec4899"/><stop offset="1" stop-color="#8a2f68"/></linearGradient>
    <radialGradient id="body837" cx=".35" cy=".24" r=".78"><stop offset="0" stop-color="#fff" stop-opacity=".88"/><stop offset=".18" stop-color="#fde68a"/><stop offset=".68" stop-color="#ec4899"/><stop offset="1" stop-color="#8a2f68"/></radialGradient>
    <filter id="shadow837" x="-30%" y="-30%" width="160%" height="160%"><feDropShadow dx="0" dy="10" stdDeviation="9" flood-color="#8a2f68" flood-opacity=".36"/></filter>
  </defs>
  <rect width="512" height="768" rx="48" fill="url(#bg837)"/>
  <rect x="24" y="24" width="464" height="720" rx="40" fill="#fff" opacity=".08"/>
  <g opacity=".46"><circle cx="137" cy="409" r="1.8" fill="#fff" opacity="0.55"/><circle cx="80" cy="173" r="5.1" fill="#fff" opacity="0.28"/><circle cx="303" cy="418" r="3.2" fill="#fff" opacity="0.38"/><circle cx="316" cy="367" r="2.0" fill="#fff" opacity="0.33"/><circle cx="322" cy="280" r="3.6" fill="#fff" opacity="0.54"/><circle cx="294" cy="489" r="1.3" fill="#fff" opacity="0.54"/><circle cx="267" cy="328" r="1.3" fill="#fff" opacity="0.63"/><circle cx="365" cy="421" r="4.6" fill="#fff" opacity="0.30"/><circle cx="245" cy="138" r="2.5" fill="#fff" opacity="0.28"/><circle cx="176" cy="81" r="3.3" fill="#fff" opacity="0.23"/><circle cx="433" cy="285" r="3.3" fill="#fff" opacity="0.24"/><circle cx="58" cy="410" r="1.3" fill="#fff" opacity="0.26"/><circle cx="116" cy="202" r="2.8" fill="#fff" opacity="0.30"/><circle cx="183" cy="109" r="4.2" fill="#fff" opacity="0.47"/><circle cx="302" cy="629" r="2.7" fill="#fff" opacity="0.58"/><circle cx="443" cy="145" r="1.4" fill="#fff" opacity="0.26"/><circle cx="431" cy="90" r="3.7" fill="#fff" opacity="0.48"/></g>
  <path d="M0 596 C80 558 128 616 202 584 C281 550 332 618 418 582 C464 563 492 570 512 586 V768 H0Z" fill="#8a2f68" opacity=".22"/>
  <ellipse cx="256" cy="664" rx="154" ry="36" fill="#8a2f68" opacity=".3"/>
  <g transform="translate(0 84)"><path d="M156 354 C66 314 56 218 150 238 C126 274 138 319 190 338 Z" fill="#ff8bd6" opacity=".58"/><path d="M356 354 C446 314 456 218 362 238 C386 274 374 319 322 338 Z" fill="#ff8bd6" opacity=".58"/><path d="M151 500 C116 338 160 190 256 170 C352 190 396 338 361 500 C320 466 291 532 256 490 C221 532 192 466 151 500Z" fill="url(#body837)" filter="url(#shadow837)"/>
    <circle cx="214" cy="328" r="17" fill="#101827"/><circle cx="298" cy="328" r="17" fill="#101827"/>
    <circle cx="208" cy="322" r="5" fill="#fff" opacity=".75"/><circle cx="292" cy="322" r="5" fill="#fff" opacity=".75"/>
    <path d="M206 410 Q256 442 306 410" stroke="#8a2f68" stroke-width="12" fill="none" stroke-linecap="round" opacity=".72"/>
    <path d="M188 560 C228 600 288 600 326 560" stroke="#fff" stroke-width="12" stroke-linecap="round" opacity=".18" fill="none"/>
  </g>
  <path d="M72 128 C168 68 334 66 440 128" stroke="#fff" stroke-width="16" stroke-linecap="round" opacity=".16"/>
  <path d="M60 678 C164 722 348 718 452 662" stroke="#fff" stroke-width="14" stroke-linecap="round" opacity=".16"/>
</svg>