<svg xmlns="http://www.w3.org/2000/svg" viewBox="0 0 512 768" role="img" aria-label="时光树精 unique portrait">
  <defs>
    <linearGradient id="bg839" x1="0" y1="0" x2="1" y2="1"><stop offset="0" stop-color="#e9d5ff"/><stop offset=".55" stop-color="#8b5cf6"/><stop offset="1" stop-color="#145a32"/></linearGradient>
    <radialGradient id="body839" cx=".35" cy=".24" r=".78"><stop offset="0" stop-color="#fff" stop-opacity=".88"/><stop offset=".18" stop-color="#e9d5ff"/><stop offset=".68" stop-color="#8b5cf6"/><stop offset="1" stop-color="#145a32"/></radialGradient>
    <filter id="shadow839" x="-30%" y="-30%" width="160%" height="160%"><feDropShadow dx="0" dy="10" stdDeviation="9" flood-color="#145a32" flood-opacity=".36"/></filter>
  </defs>
  <rect width="512" height="768" rx="48" fill="url(#bg839)"/>
  <rect x="24" y="24" width="464" height="720" rx="40" fill="#fff" opacity=".08"/>
  <g opacity=".46"><circle cx="392" cy="234" r="5.2" fill="#fff" opacity="0.62"/><circle cx="52" cy="508" r="1.7" fill="#fff" opacity="0.41"/><circle cx="285" cy="230" r="4.6" fill="#fff" opacity="0.31"/><circle cx="75" cy="222" r="3.4" fill="#fff" opacity="0.50"/><circle cx="139" cy="549" r="5.0" fill="#fff" opacity="0.51"/><circle cx="182" cy="146" r="5.0" fill="#fff" opacity="0.41"/><circle cx="53" cy="427" r="2.7" fill="#fff" opacity="0.48"/><circle cx="322" cy="372" r="5.0" fill="#fff" opacity="0.54"/><circle cx="194" cy="486" r="5.0" fill="#fff" opacity="0.41"/><circle cx="410" cy="620" r="5.2" fill="#fff" opacity="0.32"/><circle cx="97" cy="231" r="2.7" fill="#fff" opacity="0.27"/><circle cx="209" cy="195" r="2.1" fill="#fff" opacity="0.35"/><circle cx="182" cy="155" r="2.2" fill="#fff" opacity="0.28"/><circle cx="168" cy="168" r="4.3" fill="#fff" opacity="0.60"/><circle cx="383" cy="480" r="2.0" fill="#fff" opacity="0.51"/><circle cx="377" cy="212" r="3.2" fill="#fff" opacity="0.31"/><circle cx="415" cy="124" r="3.8" fill="#fff" opacity="0.49"/><circle cx="362" cy="463" r="4.2" fill="#fff" opacity="0.60"/></g>
  <path d="M0 596 C80 558 128 616 202 584 C281 550 332 618 418 582 C464 563 492 570 512 586 V768 H0Z" fill="#145a32" opacity=".22"/>
  <ellipse cx="256" cy="664" rx="154" ry="36" fill="#145a32" opacity=".3"/>
  <g transform="translate(0 84)"><circle cx="256" cy="357" r="128" fill="url(#body839)" filter="url(#shadow839)"/><circle cx="256" cy="357" r="70" fill="#c8f7a1" opacity=".26"/>
    <circle cx="209" cy="325" r="17" fill="#145a32"/><circle cx="303" cy="325" r="17" fill="#145a32"/>
    <circle cx="203" cy="319" r="5" fill="#fff" opacity=".75"/><circle cx="297" cy="319" r="5" fill="#fff" opacity=".75"/>
    <path d="M214 248 Q256 284 298 248" stroke="#c8f7a1" stroke-width="14" fill="none" stroke-linecap="round" opacity=".74"/>
    <path d="M188 560 C228 600 288 600 326 560" stroke="#fff" stroke-width="12" stroke-linecap="round" opacity=".18" fill="none"/>
  </g>
  <path d="M72 128 C168 68 334 66 440 128" stroke="#fff" stroke-width="16" stroke-linecap="round" opacity=".16"/>
  <path d="M60 678 C164 722 348 718 452 662" stroke="#fff" stroke-width="14" stroke-linecap="round" opacity=".16"/>
</svg>