<svg xmlns="http://www.w3.org/2000/svg" viewBox="0 0 512 768" role="img" aria-label="陆地狂鲨 original portrait">
  
  <defs>
    <linearGradient id="bgp84" x1="0" y1="0" x2="1" y2="1">
      <stop offset="0" stop-color="#b8ffe2"/>
      <stop offset=".55" stop-color="#22a889"/>
      <stop offset="1" stop-color="#1d506d"/>
    </linearGradient>
    <radialGradient id="body" cx=".36" cy=".25" r=".76">
      <stop offset="0" stop-color="#b8ffe2"/>
      <stop offset=".6" stop-color="#22a889"/>
      <stop offset="1" stop-color="#1d506d"/>
    </radialGradient>
    <radialGradient id="head" cx=".36" cy=".26" r=".72">
      <stop offset="0" stop-color="#ffffff" stop-opacity=".85"/>
      <stop offset=".2" stop-color="#b8ffe2"/>
      <stop offset=".72" stop-color="#22a889"/>
      <stop offset="1" stop-color="#1d506d"/>
    </radialGradient>
    <filter id="softShadow" x="-30%" y="-30%" width="160%" height="160%">
      <feDropShadow dx="0" dy="8" stdDeviation="8" flood-color="#1d506d" flood-opacity=".35"/>
    </filter>
  </defs>
  <rect width="512" height="768" rx="48" fill="url(#bgp84)"/>
  <rect x="24" y="24" width="464" height="720" rx="40" fill="#ffffff" opacity=".08"/>
  <g opacity=".42"><circle cx="72" cy="462" r="2.0" fill="#fff" opacity="0.63"/><circle cx="55" cy="269" r="1.8" fill="#fff" opacity="0.44"/><circle cx="14" cy="249" r="2.2" fill="#fff" opacity="0.45"/><circle cx="496" cy="690" r="1.3" fill="#fff" opacity="0.49"/><circle cx="132" cy="207" r="2.2" fill="#fff" opacity="0.62"/><circle cx="229" cy="686" r="2.7" fill="#fff" opacity="0.56"/><circle cx="263" cy="608" r="1.7" fill="#fff" opacity="0.64"/><circle cx="60" cy="316" r="2.1" fill="#fff" opacity="0.58"/><circle cx="331" cy="167" r="1.5" fill="#fff" opacity="0.57"/><circle cx="78" cy="192" r="1.2" fill="#fff" opacity="0.62"/><circle cx="217" cy="731" r="1.2" fill="#fff" opacity="0.40"/><circle cx="12" cy="263" r="1.8" fill="#fff" opacity="0.28"/><circle cx="190" cy="317" r="2.9" fill="#fff" opacity="0.66"/><circle cx="59" cy="735" r="3.0" fill="#fff" opacity="0.26"/><circle cx="467" cy="516" r="2.6" fill="#fff" opacity="0.26"/><circle cx="47" cy="40" r="1.5" fill="#fff" opacity="0.39"/><circle cx="500" cy="65" r="1.7" fill="#fff" opacity="0.56"/><circle cx="164" cy="208" r="1.9" fill="#fff" opacity="0.31"/><circle cx="180" cy="78" r="3.0" fill="#fff" opacity="0.68"/><circle cx="246" cy="277" r="1.1" fill="#fff" opacity="0.40"/><circle cx="475" cy="173" r="2.1" fill="#fff" opacity="0.68"/><circle cx="382" cy="5" r="2.1" fill="#fff" opacity="0.55"/><circle cx="220" cy="744" r="1.7" fill="#fff" opacity="0.33"/><circle cx="284" cy="400" r="1.5" fill="#fff" opacity="0.34"/><circle cx="445" cy="83" r="2.1" fill="#fff" opacity="0.56"/><circle cx="90" cy="518" r="1.0" fill="#fff" opacity="0.61"/><circle cx="338" cy="355" r="2.3" fill="#fff" opacity="0.27"/><circle cx="215" cy="64" r="1.8" fill="#fff" opacity="0.28"/></g>
  <path d="M0 585 C86 541 164 618 248 574 C338 526 407 595 512 548 V768 H0Z" fill="#22a889" opacity=".2"/><path d="M0 650 C105 610 180 690 282 638 C370 594 426 650 512 618 V768 H0Z" fill="#b8ffe2" opacity=".18"/>
  <ellipse cx="256" cy="662" rx="150" ry="34" fill="#1d506d" opacity=".28"/>
  <g transform="translate(0 122)">
    <path d="M110.45000000000002 326.9 L40.75000000000003 240.8 L44.85000000000002 413 Z" fill="#22a889" opacity=".86"/><ellipse cx="247.8" cy="322.8" rx="139.39999999999998" ry="88.14999999999999" fill="url(#body)" filter="url(#softShadow)"/><path d="M243.7 242.85 C288.8 136.25 358.5 173.15 342.1 263.35" fill="#22a889" opacity=".72"/><path d="M301.1 384.3 C338 458.1 411.79999999999995 413 362.6 359.7" fill="#b8ffe2" opacity=".8"/><circle cx="329.8" cy="292.05" r="14.349999999999998" fill="#101828"/><circle cx="335.95" cy="285.9" r="4.714999999999999" fill="#fff"/><circle cx="256" cy="210.05" r="14.349999999999998" fill="#b8ffe2" opacity=".9"/>
  </g>
  <path d="M74 126 C170 65 334 65 438 126" stroke="#fff" stroke-width="16" stroke-linecap="round" opacity=".16"/>
  <path d="M63 676 C162 718 344 718 449 662" stroke="#fff" stroke-width="14" stroke-linecap="round" opacity=".16"/>
</svg>