<svg xmlns="http://www.w3.org/2000/svg" viewBox="0 0 512 768" role="img" aria-label="混沌猫灵 unique portrait">
  <defs>
    <linearGradient id="bg840" x1="0" y1="0" x2="1" y2="1"><stop offset="0" stop-color="#f0abfc"/><stop offset=".55" stop-color="#7e22ce"/><stop offset="1" stop-color="#211a3a"/></linearGradient>
    <radialGradient id="body840" cx=".35" cy=".24" r=".78"><stop offset="0" stop-color="#fff" stop-opacity=".88"/><stop offset=".18" stop-color="#f0abfc"/><stop offset=".68" stop-color="#7e22ce"/><stop offset="1" stop-color="#211a3a"/></radialGradient>
    <filter id="shadow840" x="-30%" y="-30%" width="160%" height="160%"><feDropShadow dx="0" dy="10" stdDeviation="9" flood-color="#211a3a" flood-opacity=".36"/></filter>
  </defs>
  <rect width="512" height="768" rx="48" fill="url(#bg840)"/>
  <rect x="24" y="24" width="464" height="720" rx="40" fill="#fff" opacity=".08"/>
  <g opacity=".46"><circle cx="403" cy="444" r="2.9" fill="#fff" opacity="0.27"/><circle cx="78" cy="588" r="2.9" fill="#fff" opacity="0.35"/><circle cx="359" cy="634" r="5.3" fill="#fff" opacity="0.26"/><circle cx="211" cy="332" r="3.8" fill="#fff" opacity="0.51"/><circle cx="411" cy="462" r="1.3" fill="#fff" opacity="0.36"/><circle cx="292" cy="103" r="4.0" fill="#fff" opacity="0.61"/><circle cx="383" cy="536" r="5.1" fill="#fff" opacity="0.44"/><circle cx="203" cy="250" r="3.9" fill="#fff" opacity="0.58"/><circle cx="138" cy="102" r="1.8" fill="#fff" opacity="0.26"/><circle cx="293" cy="172" r="4.1" fill="#fff" opacity="0.37"/><circle cx="251" cy="380" r="3.8" fill="#fff" opacity="0.42"/><circle cx="84" cy="90" r="2.2" fill="#fff" opacity="0.27"/><circle cx="184" cy="275" r="2.0" fill="#fff" opacity="0.59"/></g>
  <path d="M0 596 C80 558 128 616 202 584 C281 550 332 618 418 582 C464 563 492 570 512 586 V768 H0Z" fill="#211a3a" opacity=".22"/>
  <ellipse cx="256" cy="664" rx="154" ry="36" fill="#211a3a" opacity=".3"/>
  <g transform="translate(0 84)"><path d="M316 492 C426 508 425 604 334 594 C391 562 368 528 302 536" fill="none" stroke="#5b4b8a" stroke-width="34" stroke-linecap="round" opacity=".72"/><path d="M178 196 L133 114 L221 170 Z" fill="#5b4b8a" opacity=".8"/><path d="M334 196 L379 114 L291 170 Z" fill="#5b4b8a" opacity=".8"/><path d="M151 500 C116 338 160 190 256 170 C352 190 396 338 361 500 C320 466 291 532 256 490 C221 532 192 466 151 500Z" fill="url(#body840)" filter="url(#shadow840)"/>
    <circle cx="216" cy="316" r="17" fill="#101827"/><circle cx="296" cy="316" r="17" fill="#101827"/>
    <circle cx="210" cy="310" r="5" fill="#fff" opacity=".75"/><circle cx="290" cy="310" r="5" fill="#fff" opacity=".75"/>
    <path d="M206 410 Q256 442 306 410" stroke="#211a3a" stroke-width="12" fill="none" stroke-linecap="round" opacity=".72"/>
    <path d="M188 560 C228 600 288 600 326 560" stroke="#fff" stroke-width="12" stroke-linecap="round" opacity=".18" fill="none"/>
  </g>
  <path d="M72 128 C168 68 334 66 440 128" stroke="#fff" stroke-width="16" stroke-linecap="round" opacity=".16"/>
  <path d="M60 678 C164 722 348 718 452 662" stroke="#fff" stroke-width="14" stroke-linecap="round" opacity=".16"/>
</svg>