<svg xmlns="http://www.w3.org/2000/svg" viewBox="0 0 512 768" role="img" aria-label="裂空飞鱼 unique portrait">
  <defs>
    <linearGradient id="bg841" x1="0" y1="0" x2="1" y2="1"><stop offset="0" stop-color="#d5efff"/><stop offset=".55" stop-color="#82aaff"/><stop offset="1" stop-color="#312e81"/></linearGradient>
    <radialGradient id="body841" cx=".35" cy=".24" r=".78"><stop offset="0" stop-color="#fff" stop-opacity=".88"/><stop offset=".18" stop-color="#d5efff"/><stop offset=".68" stop-color="#82aaff"/><stop offset="1" stop-color="#312e81"/></radialGradient>
    <filter id="shadow841" x="-30%" y="-30%" width="160%" height="160%"><feDropShadow dx="0" dy="10" stdDeviation="9" flood-color="#312e81" flood-opacity=".36"/></filter>
  </defs>
  <rect width="512" height="768" rx="48" fill="url(#bg841)"/>
  <rect x="24" y="24" width="464" height="720" rx="40" fill="#fff" opacity=".08"/>
  <g opacity=".46"><circle cx="361" cy="54" r="4.5" fill="#fff" opacity="0.39"/><circle cx="44" cy="152" r="4.5" fill="#fff" opacity="0.33"/><circle cx="213" cy="375" r="2.3" fill="#fff" opacity="0.26"/><circle cx="202" cy="509" r="3.8" fill="#fff" opacity="0.24"/><circle cx="429" cy="58" r="5.4" fill="#fff" opacity="0.28"/><circle cx="427" cy="240" r="3.2" fill="#fff" opacity="0.36"/><circle cx="117" cy="151" r="4.1" fill="#fff" opacity="0.52"/><circle cx="266" cy="475" r="2.3" fill="#fff" opacity="0.22"/><circle cx="43" cy="628" r="5.1" fill="#fff" opacity="0.61"/><circle cx="114" cy="587" r="2.8" fill="#fff" opacity="0.58"/><circle cx="406" cy="281" r="2.5" fill="#fff" opacity="0.23"/><circle cx="439" cy="607" r="5.2" fill="#fff" opacity="0.33"/><circle cx="398" cy="208" r="1.5" fill="#fff" opacity="0.32"/><circle cx="48" cy="175" r="1.5" fill="#fff" opacity="0.43"/></g>
  <path d="M0 596 C80 558 128 616 202 584 C281 550 332 618 418 582 C464 563 492 570 512 586 V768 H0Z" fill="#312e81" opacity=".22"/>
  <ellipse cx="256" cy="664" rx="154" ry="36" fill="#312e81" opacity=".3"/>
  <g transform="translate(0 84)"><path d="M148 520 C118 346 156 196 256 164 C356 196 394 346 364 520 C326 488 292 532 256 496 C220 532 186 488 148 520Z" fill="url(#body841)" filter="url(#shadow841)"/>
    <circle cx="217" cy="326" r="17" fill="#312e81"/><circle cx="295" cy="326" r="17" fill="#312e81"/>
    <circle cx="211" cy="320" r="5" fill="#fff" opacity=".75"/><circle cx="289" cy="320" r="5" fill="#fff" opacity=".75"/>
    <path d="M214 248 Q256 284 298 248" stroke="#e9d5ff" stroke-width="14" fill="none" stroke-linecap="round" opacity=".74"/>
    <path d="M188 560 C228 600 288 600 326 560" stroke="#fff" stroke-width="12" stroke-linecap="round" opacity=".18" fill="none"/>
  </g>
  <path d="M72 128 C168 68 334 66 440 128" stroke="#fff" stroke-width="16" stroke-linecap="round" opacity=".16"/>
  <path d="M60 678 C164 722 348 718 452 662" stroke="#fff" stroke-width="14" stroke-linecap="round" opacity=".16"/>
</svg>