<svg xmlns="http://www.w3.org/2000/svg" viewBox="0 0 512 768" role="img" aria-label="重力铁球 unique portrait">
  <defs>
    <linearGradient id="bg842" x1="0" y1="0" x2="1" y2="1"><stop offset="0" stop-color="#d7e3ea"/><stop offset=".55" stop-color="#7a8b99"/><stop offset="1" stop-color="#5d3b1f"/></linearGradient>
    <radialGradient id="body842" cx=".35" cy=".24" r=".78"><stop offset="0" stop-color="#fff" stop-opacity=".88"/><stop offset=".18" stop-color="#d7e3ea"/><stop offset=".68" stop-color="#7a8b99"/><stop offset="1" stop-color="#5d3b1f"/></radialGradient>
    <filter id="shadow842" x="-30%" y="-30%" width="160%" height="160%"><feDropShadow dx="0" dy="10" stdDeviation="9" flood-color="#5d3b1f" flood-opacity=".36"/></filter>
  </defs>
  <rect width="512" height="768" rx="48" fill="url(#bg842)"/>
  <rect x="24" y="24" width="464" height="720" rx="40" fill="#fff" opacity=".08"/>
  <g opacity=".46"><circle cx="88" cy="272" r="1.4" fill="#fff" opacity="0.52"/><circle cx="259" cy="487" r="3.4" fill="#fff" opacity="0.29"/><circle cx="429" cy="370" r="5.0" fill="#fff" opacity="0.26"/><circle cx="251" cy="497" r="3.9" fill="#fff" opacity="0.50"/><circle cx="43" cy="218" r="2.6" fill="#fff" opacity="0.24"/><circle cx="99" cy="421" r="1.4" fill="#fff" opacity="0.49"/><circle cx="277" cy="321" r="5.3" fill="#fff" opacity="0.59"/><circle cx="250" cy="450" r="4.5" fill="#fff" opacity="0.56"/><circle cx="257" cy="561" r="3.7" fill="#fff" opacity="0.63"/><circle cx="55" cy="347" r="3.7" fill="#fff" opacity="0.58"/><circle cx="92" cy="244" r="1.8" fill="#fff" opacity="0.50"/></g>
  <path d="M0 596 C80 558 128 616 202 584 C281 550 332 618 418 582 C464 563 492 570 512 586 V768 H0Z" fill="#5d3b1f" opacity=".22"/>
  <ellipse cx="256" cy="664" rx="154" ry="36" fill="#5d3b1f" opacity=".3"/>
  <g transform="translate(0 84)"><path d="M156 354 C66 314 56 218 150 238 C126 274 138 319 190 338 Z" fill="#b07d42" opacity=".58"/><path d="M356 354 C446 314 456 218 362 238 C386 274 374 319 322 338 Z" fill="#b07d42" opacity=".58"/><path d="M151 500 C116 338 160 190 256 170 C352 190 396 338 361 500 C320 466 291 532 256 490 C221 532 192 466 151 500Z" fill="url(#body842)" filter="url(#shadow842)"/>
    <circle cx="214" cy="331" r="17" fill="#101827"/><circle cx="298" cy="331" r="17" fill="#101827"/>
    <circle cx="208" cy="325" r="5" fill="#fff" opacity=".75"/><circle cx="292" cy="325" r="5" fill="#fff" opacity=".75"/>
    <path d="M206 410 Q256 442 306 410" stroke="#5d3b1f" stroke-width="12" fill="none" stroke-linecap="round" opacity=".72"/>
    <path d="M188 560 C228 600 288 600 326 560" stroke="#fff" stroke-width="12" stroke-linecap="round" opacity=".18" fill="none"/>
  </g>
  <path d="M72 128 C168 68 334 66 440 128" stroke="#fff" stroke-width="16" stroke-linecap="round" opacity=".16"/>
  <path d="M60 678 C164 722 348 718 452 662" stroke="#fff" stroke-width="14" stroke-linecap="round" opacity=".16"/>
</svg>