<svg xmlns="http://www.w3.org/2000/svg" viewBox="0 0 512 768" role="img" aria-label="幻影舞者 unique portrait">
  <defs>
    <linearGradient id="bg843" x1="0" y1="0" x2="1" y2="1"><stop offset="0" stop-color="#c6b6ff"/><stop offset=".55" stop-color="#5b4b8a"/><stop offset="1" stop-color="#8a2f68"/></linearGradient>
    <radialGradient id="body843" cx=".35" cy=".24" r=".78"><stop offset="0" stop-color="#fff" stop-opacity=".88"/><stop offset=".18" stop-color="#c6b6ff"/><stop offset=".68" stop-color="#5b4b8a"/><stop offset="1" stop-color="#8a2f68"/></radialGradient>
    <filter id="shadow843" x="-30%" y="-30%" width="160%" height="160%"><feDropShadow dx="0" dy="10" stdDeviation="9" flood-color="#8a2f68" flood-opacity=".36"/></filter>
  </defs>
  <rect width="512" height="768" rx="48" fill="url(#bg843)"/>
  <rect x="24" y="24" width="464" height="720" rx="40" fill="#fff" opacity=".08"/>
  <g opacity=".46"><circle cx="101" cy="492" r="2.1" fill="#fff" opacity="0.62"/><circle cx="322" cy="357" r="1.2" fill="#fff" opacity="0.40"/><circle cx="239" cy="465" r="1.7" fill="#fff" opacity="0.31"/><circle cx="169" cy="548" r="4.6" fill="#fff" opacity="0.52"/><circle cx="177" cy="73" r="1.5" fill="#fff" opacity="0.58"/><circle cx="438" cy="323" r="5.1" fill="#fff" opacity="0.28"/><circle cx="465" cy="109" r="2.3" fill="#fff" opacity="0.34"/><circle cx="361" cy="629" r="4.2" fill="#fff" opacity="0.28"/><circle cx="328" cy="580" r="3.8" fill="#fff" opacity="0.53"/><circle cx="454" cy="186" r="4.1" fill="#fff" opacity="0.29"/><circle cx="132" cy="186" r="5.0" fill="#fff" opacity="0.63"/><circle cx="43" cy="287" r="1.8" fill="#fff" opacity="0.57"/><circle cx="44" cy="412" r="1.5" fill="#fff" opacity="0.34"/></g>
  <path d="M0 596 C80 558 128 616 202 584 C281 550 332 618 418 582 C464 563 492 570 512 586 V768 H0Z" fill="#8a2f68" opacity=".22"/>
  <ellipse cx="256" cy="664" rx="154" ry="36" fill="#8a2f68" opacity=".3"/>
  <g transform="translate(0 84)"><path d="M316 492 C426 508 425 604 334 594 C391 562 368 528 302 536" fill="none" stroke="#ff8bd6" stroke-width="34" stroke-linecap="round" opacity=".72"/><path d="M178 196 L133 114 L221 170 Z" fill="#ff8bd6" opacity=".8"/><path d="M334 196 L379 114 L291 170 Z" fill="#ff8bd6" opacity=".8"/><path d="M151 500 C116 338 160 190 256 170 C352 190 396 338 361 500 C320 466 291 532 256 490 C221 532 192 466 151 500Z" fill="url(#body843)" filter="url(#shadow843)"/>
    <circle cx="208" cy="331" r="17" fill="#101827"/><circle cx="304" cy="331" r="17" fill="#101827"/>
    <circle cx="202" cy="325" r="5" fill="#fff" opacity=".75"/><circle cx="298" cy="325" r="5" fill="#fff" opacity=".75"/>
    <path d="M206 410 Q256 442 306 410" stroke="#8a2f68" stroke-width="12" fill="none" stroke-linecap="round" opacity=".72"/>
    <path d="M188 560 C228 600 288 600 326 560" stroke="#fff" stroke-width="12" stroke-linecap="round" opacity=".18" fill="none"/>
  </g>
  <path d="M72 128 C168 68 334 66 440 128" stroke="#fff" stroke-width="16" stroke-linecap="round" opacity=".16"/>
  <path d="M60 678 C164 722 348 718 452 662" stroke="#fff" stroke-width="14" stroke-linecap="round" opacity=".16"/>
</svg>