<svg xmlns="http://www.w3.org/2000/svg" viewBox="0 0 512 768" role="img" aria-label="旭日麒麟 unique portrait">
  <defs>
    <linearGradient id="bg844" x1="0" y1="0" x2="1" y2="1"><stop offset="0" stop-color="#fff7bf"/><stop offset=".55" stop-color="#f7d154"/><stop offset="1" stop-color="#a92d1d"/></linearGradient>
    <radialGradient id="body844" cx=".35" cy=".24" r=".78"><stop offset="0" stop-color="#fff" stop-opacity=".88"/><stop offset=".18" stop-color="#fff7bf"/><stop offset=".68" stop-color="#f7d154"/><stop offset="1" stop-color="#a92d1d"/></radialGradient>
    <filter id="shadow844" x="-30%" y="-30%" width="160%" height="160%"><feDropShadow dx="0" dy="10" stdDeviation="9" flood-color="#a92d1d" flood-opacity=".36"/></filter>
  </defs>
  <rect width="512" height="768" rx="48" fill="url(#bg844)"/>
  <rect x="24" y="24" width="464" height="720" rx="40" fill="#fff" opacity=".08"/>
  <g opacity=".46"><circle cx="263" cy="511" r="3.0" fill="#fff" opacity="0.56"/><circle cx="173" cy="546" r="1.9" fill="#fff" opacity="0.51"/><circle cx="469" cy="392" r="1.9" fill="#fff" opacity="0.50"/><circle cx="394" cy="407" r="4.4" fill="#fff" opacity="0.33"/><circle cx="411" cy="119" r="2.0" fill="#fff" opacity="0.48"/><circle cx="202" cy="282" r="1.3" fill="#fff" opacity="0.51"/><circle cx="76" cy="63" r="3.0" fill="#fff" opacity="0.26"/><circle cx="422" cy="161" r="1.9" fill="#fff" opacity="0.40"/><circle cx="132" cy="268" r="5.0" fill="#fff" opacity="0.32"/><circle cx="285" cy="465" r="2.6" fill="#fff" opacity="0.25"/><circle cx="113" cy="537" r="5.1" fill="#fff" opacity="0.29"/><circle cx="435" cy="146" r="1.8" fill="#fff" opacity="0.25"/><circle cx="96" cy="146" r="1.4" fill="#fff" opacity="0.45"/><circle cx="385" cy="454" r="3.4" fill="#fff" opacity="0.43"/><circle cx="432" cy="381" r="2.3" fill="#fff" opacity="0.28"/><circle cx="247" cy="470" r="5.2" fill="#fff" opacity="0.49"/><circle cx="184" cy="610" r="1.6" fill="#fff" opacity="0.52"/><circle cx="54" cy="495" r="2.5" fill="#fff" opacity="0.35"/><circle cx="88" cy="619" r="3.8" fill="#fff" opacity="0.57"/><circle cx="236" cy="398" r="1.4" fill="#fff" opacity="0.22"/></g>
  <path d="M0 596 C80 558 128 616 202 584 C281 550 332 618 418 582 C464 563 492 570 512 586 V768 H0Z" fill="#a92d1d" opacity=".22"/>
  <ellipse cx="256" cy="664" rx="154" ry="36" fill="#a92d1d" opacity=".3"/>
  <g transform="translate(0 84)"><path d="M148 520 C118 346 156 196 256 164 C356 196 394 346 364 520 C326 488 292 532 256 496 C220 532 186 488 148 520Z" fill="url(#body844)" filter="url(#shadow844)"/>
    <circle cx="208" cy="322" r="17" fill="#a92d1d"/><circle cx="304" cy="322" r="17" fill="#a92d1d"/>
    <circle cx="202" cy="316" r="5" fill="#fff" opacity=".75"/><circle cx="298" cy="316" r="5" fill="#fff" opacity=".75"/>
    <path d="M206 410 Q256 442 306 410" stroke="#a92d1d" stroke-width="12" fill="none" stroke-linecap="round" opacity=".72"/>
    <path d="M188 560 C228 600 288 600 326 560" stroke="#fff" stroke-width="12" stroke-linecap="round" opacity=".18" fill="none"/>
  </g>
  <path d="M72 128 C168 68 334 66 440 128" stroke="#fff" stroke-width="16" stroke-linecap="round" opacity=".16"/>
  <path d="M60 678 C164 722 348 718 452 662" stroke="#fff" stroke-width="14" stroke-linecap="round" opacity=".16"/>
</svg>