<svg xmlns="http://www.w3.org/2000/svg" viewBox="0 0 512 768" role="img" aria-label="深渊鲸灵 unique portrait">
  <defs>
    <linearGradient id="bg845" x1="0" y1="0" x2="1" y2="1"><stop offset="0" stop-color="#9be7ff"/><stop offset=".55" stop-color="#2f80ed"/><stop offset="1" stop-color="#211a3a"/></linearGradient>
    <radialGradient id="body845" cx=".35" cy=".24" r=".78"><stop offset="0" stop-color="#fff" stop-opacity=".88"/><stop offset=".18" stop-color="#9be7ff"/><stop offset=".68" stop-color="#2f80ed"/><stop offset="1" stop-color="#211a3a"/></radialGradient>
    <filter id="shadow845" x="-30%" y="-30%" width="160%" height="160%"><feDropShadow dx="0" dy="10" stdDeviation="9" flood-color="#211a3a" flood-opacity=".36"/></filter>
  </defs>
  <rect width="512" height="768" rx="48" fill="url(#bg845)"/>
  <rect x="24" y="24" width="464" height="720" rx="40" fill="#fff" opacity=".08"/>
  <g opacity=".46"><circle cx="119" cy="188" r="3.2" fill="#fff" opacity="0.40"/><circle cx="259" cy="518" r="4.6" fill="#fff" opacity="0.30"/><circle cx="369" cy="558" r="4.6" fill="#fff" opacity="0.36"/><circle cx="313" cy="124" r="4.9" fill="#fff" opacity="0.29"/><circle cx="209" cy="178" r="3.8" fill="#fff" opacity="0.27"/><circle cx="81" cy="141" r="3.1" fill="#fff" opacity="0.35"/><circle cx="408" cy="330" r="3.7" fill="#fff" opacity="0.41"/><circle cx="53" cy="340" r="4.6" fill="#fff" opacity="0.59"/><circle cx="181" cy="226" r="4.0" fill="#fff" opacity="0.40"/><circle cx="237" cy="202" r="2.9" fill="#fff" opacity="0.34"/><circle cx="451" cy="438" r="1.5" fill="#fff" opacity="0.49"/><circle cx="277" cy="418" r="5.3" fill="#fff" opacity="0.56"/><circle cx="371" cy="610" r="2.6" fill="#fff" opacity="0.38"/><circle cx="53" cy="589" r="2.1" fill="#fff" opacity="0.29"/><circle cx="163" cy="561" r="2.5" fill="#fff" opacity="0.29"/><circle cx="469" cy="86" r="1.7" fill="#fff" opacity="0.30"/><circle cx="259" cy="633" r="2.5" fill="#fff" opacity="0.37"/><circle cx="300" cy="464" r="1.7" fill="#fff" opacity="0.61"/><circle cx="314" cy="534" r="4.7" fill="#fff" opacity="0.47"/><circle cx="64" cy="138" r="3.0" fill="#fff" opacity="0.46"/></g>
  <path d="M0 596 C80 558 128 616 202 584 C281 550 332 618 418 582 C464 563 492 570 512 586 V768 H0Z" fill="#211a3a" opacity=".22"/>
  <ellipse cx="256" cy="664" rx="154" ry="36" fill="#211a3a" opacity=".3"/>
  <g transform="translate(0 84)"><path d="M148 520 C118 346 156 196 256 164 C356 196 394 346 364 520 C326 488 292 532 256 496 C220 532 186 488 148 520Z" fill="url(#body845)" filter="url(#shadow845)"/>
    <circle cx="209" cy="318" r="17" fill="#211a3a"/><circle cx="303" cy="318" r="17" fill="#211a3a"/>
    <circle cx="203" cy="312" r="5" fill="#fff" opacity=".75"/><circle cx="297" cy="312" r="5" fill="#fff" opacity=".75"/>
    <path d="M206 410 Q256 442 306 410" stroke="#211a3a" stroke-width="12" fill="none" stroke-linecap="round" opacity=".72"/>
    <path d="M188 560 C228 600 288 600 326 560" stroke="#fff" stroke-width="12" stroke-linecap="round" opacity=".18" fill="none"/>
  </g>
  <path d="M72 128 C168 68 334 66 440 128" stroke="#fff" stroke-width="16" stroke-linecap="round" opacity=".16"/>
  <path d="M60 678 C164 722 348 718 452 662" stroke="#fff" stroke-width="14" stroke-linecap="round" opacity=".16"/>
</svg>