<svg xmlns="http://www.w3.org/2000/svg" viewBox="0 0 512 768" role="img" aria-label="结晶花蜘蛛 unique portrait">
  <defs>
    <linearGradient id="bg846" x1="0" y1="0" x2="1" y2="1"><stop offset="0" stop-color="#d9f99d"/><stop offset=".55" stop-color="#84cc16"/><stop offset="1" stop-color="#2574a9"/></linearGradient>
    <radialGradient id="body846" cx=".35" cy=".24" r=".78"><stop offset="0" stop-color="#fff" stop-opacity=".88"/><stop offset=".18" stop-color="#d9f99d"/><stop offset=".68" stop-color="#84cc16"/><stop offset="1" stop-color="#2574a9"/></radialGradient>
    <filter id="shadow846" x="-30%" y="-30%" width="160%" height="160%"><feDropShadow dx="0" dy="10" stdDeviation="9" flood-color="#2574a9" flood-opacity=".36"/></filter>
  </defs>
  <rect width="512" height="768" rx="48" fill="url(#bg846)"/>
  <rect x="24" y="24" width="464" height="720" rx="40" fill="#fff" opacity=".08"/>
  <g opacity=".46"><circle cx="116" cy="515" r="4.1" fill="#fff" opacity="0.26"/><circle cx="185" cy="467" r="2.7" fill="#fff" opacity="0.60"/><circle cx="312" cy="132" r="2.1" fill="#fff" opacity="0.51"/><circle cx="443" cy="201" r="3.1" fill="#fff" opacity="0.42"/><circle cx="240" cy="103" r="1.4" fill="#fff" opacity="0.38"/><circle cx="140" cy="353" r="3.8" fill="#fff" opacity="0.47"/><circle cx="302" cy="633" r="1.9" fill="#fff" opacity="0.46"/><circle cx="445" cy="65" r="1.9" fill="#fff" opacity="0.23"/><circle cx="297" cy="248" r="1.7" fill="#fff" opacity="0.62"/><circle cx="329" cy="339" r="1.9" fill="#fff" opacity="0.61"/><circle cx="237" cy="165" r="1.4" fill="#fff" opacity="0.26"/><circle cx="97" cy="142" r="1.2" fill="#fff" opacity="0.55"/><circle cx="179" cy="151" r="1.9" fill="#fff" opacity="0.34"/><circle cx="51" cy="591" r="1.4" fill="#fff" opacity="0.29"/><circle cx="62" cy="275" r="4.7" fill="#fff" opacity="0.54"/><circle cx="73" cy="337" r="4.3" fill="#fff" opacity="0.32"/><circle cx="435" cy="452" r="3.5" fill="#fff" opacity="0.28"/></g>
  <path d="M0 596 C80 558 128 616 202 584 C281 550 332 618 418 582 C464 563 492 570 512 586 V768 H0Z" fill="#2574a9" opacity=".22"/>
  <ellipse cx="256" cy="664" rx="154" ry="36" fill="#2574a9" opacity=".3"/>
  <g transform="translate(0 84)"><path d="M156 354 C66 314 56 218 150 238 C126 274 138 319 190 338 Z" fill="#7bdff2" opacity=".58"/><path d="M356 354 C446 314 456 218 362 238 C386 274 374 319 322 338 Z" fill="#7bdff2" opacity=".58"/><path d="M151 500 C116 338 160 190 256 170 C352 190 396 338 361 500 C320 466 291 532 256 490 C221 532 192 466 151 500Z" fill="url(#body846)" filter="url(#shadow846)"/>
    <circle cx="215" cy="333" r="17" fill="#101827"/><circle cx="297" cy="333" r="17" fill="#101827"/>
    <circle cx="209" cy="327" r="5" fill="#fff" opacity=".75"/><circle cx="291" cy="327" r="5" fill="#fff" opacity=".75"/>
    <path d="M206 410 Q256 442 306 410" stroke="#2574a9" stroke-width="12" fill="none" stroke-linecap="round" opacity=".72"/>
    <path d="M188 560 C228 600 288 600 326 560" stroke="#fff" stroke-width="12" stroke-linecap="round" opacity=".18" fill="none"/>
  </g>
  <path d="M72 128 C168 68 334 66 440 128" stroke="#fff" stroke-width="16" stroke-linecap="round" opacity=".16"/>
  <path d="M60 678 C164 722 348 718 452 662" stroke="#fff" stroke-width="14" stroke-linecap="round" opacity=".16"/>
</svg>