<svg xmlns="http://www.w3.org/2000/svg" viewBox="0 0 512 768" role="img" aria-label="熔岩巨兽 unique portrait">
  <defs>
    <linearGradient id="bg847" x1="0" y1="0" x2="1" y2="1"><stop offset="0" stop-color="#ffd166"/><stop offset=".55" stop-color="#ff6b35"/><stop offset="1" stop-color="#4a3830"/></linearGradient>
    <radialGradient id="body847" cx=".35" cy=".24" r=".78"><stop offset="0" stop-color="#fff" stop-opacity=".88"/><stop offset=".18" stop-color="#ffd166"/><stop offset=".68" stop-color="#ff6b35"/><stop offset="1" stop-color="#4a3830"/></radialGradient>
    <filter id="shadow847" x="-30%" y="-30%" width="160%" height="160%"><feDropShadow dx="0" dy="10" stdDeviation="9" flood-color="#4a3830" flood-opacity=".36"/></filter>
  </defs>
  <rect width="512" height="768" rx="48" fill="url(#bg847)"/>
  <rect x="24" y="24" width="464" height="720" rx="40" fill="#fff" opacity=".08"/>
  <g opacity=".46"><circle cx="260" cy="232" r="3.8" fill="#fff" opacity="0.38"/><circle cx="327" cy="634" r="1.8" fill="#fff" opacity="0.59"/><circle cx="140" cy="552" r="3.5" fill="#fff" opacity="0.56"/><circle cx="219" cy="63" r="2.8" fill="#fff" opacity="0.38"/><circle cx="388" cy="526" r="4.7" fill="#fff" opacity="0.37"/><circle cx="89" cy="515" r="1.8" fill="#fff" opacity="0.60"/><circle cx="377" cy="510" r="3.1" fill="#fff" opacity="0.40"/><circle cx="259" cy="131" r="4.3" fill="#fff" opacity="0.30"/><circle cx="382" cy="517" r="1.3" fill="#fff" opacity="0.23"/><circle cx="314" cy="427" r="2.2" fill="#fff" opacity="0.36"/><circle cx="143" cy="333" r="2.3" fill="#fff" opacity="0.33"/></g>
  <path d="M0 596 C80 558 128 616 202 584 C281 550 332 618 418 582 C464 563 492 570 512 586 V768 H0Z" fill="#4a3830" opacity=".22"/>
  <ellipse cx="256" cy="664" rx="154" ry="36" fill="#4a3830" opacity=".3"/>
  <g transform="translate(0 84)"><path d="M156 354 C66 314 56 218 150 238 C126 274 138 319 190 338 Z" fill="#8d6e63" opacity=".58"/><path d="M356 354 C446 314 456 218 362 238 C386 274 374 319 322 338 Z" fill="#8d6e63" opacity=".58"/><path d="M151 500 C116 338 160 190 256 170 C352 190 396 338 361 500 C320 466 291 532 256 490 C221 532 192 466 151 500Z" fill="url(#body847)" filter="url(#shadow847)"/>
    <circle cx="209" cy="317" r="17" fill="#101827"/><circle cx="303" cy="317" r="17" fill="#101827"/>
    <circle cx="203" cy="311" r="5" fill="#fff" opacity=".75"/><circle cx="297" cy="311" r="5" fill="#fff" opacity=".75"/>
    <path d="M206 410 Q256 442 306 410" stroke="#4a3830" stroke-width="12" fill="none" stroke-linecap="round" opacity=".72"/>
    <path d="M188 560 C228 600 288 600 326 560" stroke="#fff" stroke-width="12" stroke-linecap="round" opacity=".18" fill="none"/>
  </g>
  <path d="M72 128 C168 68 334 66 440 128" stroke="#fff" stroke-width="16" stroke-linecap="round" opacity=".16"/>
  <path d="M60 678 C164 722 348 718 452 662" stroke="#fff" stroke-width="14" stroke-linecap="round" opacity=".16"/>
</svg>