<svg xmlns="http://www.w3.org/2000/svg" viewBox="0 0 512 768" role="img" aria-label="雷毒幼蜥 unique portrait">
  <defs>
    <linearGradient id="bg848" x1="0" y1="0" x2="1" y2="1"><stop offset="0" stop-color="#fff176"/><stop offset=".55" stop-color="#f9c74f"/><stop offset="1" stop-color="#0a3d7a"/></linearGradient>
    <radialGradient id="body848" cx=".35" cy=".24" r=".78"><stop offset="0" stop-color="#fff" stop-opacity=".88"/><stop offset=".18" stop-color="#fff176"/><stop offset=".68" stop-color="#f9c74f"/><stop offset="1" stop-color="#0a3d7a"/></radialGradient>
    <filter id="shadow848" x="-30%" y="-30%" width="160%" height="160%"><feDropShadow dx="0" dy="10" stdDeviation="9" flood-color="#0a3d7a" flood-opacity=".36"/></filter>
  </defs>
  <rect width="512" height="768" rx="48" fill="url(#bg848)"/>
  <rect x="24" y="24" width="464" height="720" rx="40" fill="#fff" opacity=".08"/>
  <g opacity=".46"><circle cx="88" cy="171" r="1.7" fill="#fff" opacity="0.28"/><circle cx="343" cy="173" r="2.4" fill="#fff" opacity="0.27"/><circle cx="75" cy="446" r="3.5" fill="#fff" opacity="0.26"/><circle cx="54" cy="495" r="3.5" fill="#fff" opacity="0.45"/><circle cx="206" cy="633" r="4.3" fill="#fff" opacity="0.26"/><circle cx="425" cy="318" r="1.6" fill="#fff" opacity="0.47"/><circle cx="404" cy="604" r="4.0" fill="#fff" opacity="0.56"/><circle cx="285" cy="528" r="4.7" fill="#fff" opacity="0.55"/><circle cx="145" cy="284" r="3.4" fill="#fff" opacity="0.22"/><circle cx="276" cy="269" r="3.7" fill="#fff" opacity="0.26"/><circle cx="114" cy="185" r="2.7" fill="#fff" opacity="0.30"/><circle cx="100" cy="215" r="4.0" fill="#fff" opacity="0.41"/><circle cx="327" cy="606" r="4.1" fill="#fff" opacity="0.59"/><circle cx="405" cy="199" r="5.3" fill="#fff" opacity="0.61"/><circle cx="396" cy="154" r="1.4" fill="#fff" opacity="0.34"/><circle cx="420" cy="289" r="2.6" fill="#fff" opacity="0.43"/><circle cx="68" cy="454" r="4.7" fill="#fff" opacity="0.42"/><circle cx="78" cy="126" r="3.0" fill="#fff" opacity="0.39"/><circle cx="278" cy="258" r="5.3" fill="#fff" opacity="0.39"/><circle cx="432" cy="215" r="3.4" fill="#fff" opacity="0.49"/><circle cx="349" cy="218" r="5.3" fill="#fff" opacity="0.57"/></g>
  <path d="M0 596 C80 558 128 616 202 584 C281 550 332 618 418 582 C464 563 492 570 512 586 V768 H0Z" fill="#0a3d7a" opacity=".22"/>
  <ellipse cx="256" cy="664" rx="154" ry="36" fill="#0a3d7a" opacity=".3"/>
  <g transform="translate(0 84)"><path d="M151 500 C116 338 160 190 256 170 C352 190 396 338 361 500 C320 466 291 532 256 490 C221 532 192 466 151 500Z" fill="url(#body848)" filter="url(#shadow848)"/>
    <circle cx="210" cy="327" r="17" fill="#101827"/><circle cx="302" cy="327" r="17" fill="#101827"/>
    <circle cx="204" cy="321" r="5" fill="#fff" opacity=".75"/><circle cx="296" cy="321" r="5" fill="#fff" opacity=".75"/>
    <path d="M206 410 Q256 442 306 410" stroke="#0a3d7a" stroke-width="12" fill="none" stroke-linecap="round" opacity=".72"/>
    <path d="M188 560 C228 600 288 600 326 560" stroke="#fff" stroke-width="12" stroke-linecap="round" opacity=".18" fill="none"/>
  </g>
  <path d="M72 128 C168 68 334 66 440 128" stroke="#fff" stroke-width="16" stroke-linecap="round" opacity=".16"/>
  <path d="M60 678 C164 722 348 718 452 662" stroke="#fff" stroke-width="14" stroke-linecap="round" opacity=".16"/>
</svg>