<svg xmlns="http://www.w3.org/2000/svg" viewBox="0 0 512 768" role="img" aria-label="紫雾狐仙 unique portrait">
  <defs>
    <linearGradient id="bg849" x1="0" y1="0" x2="1" y2="1"><stop offset="0" stop-color="#d9a7ff"/><stop offset=".55" stop-color="#8e44ad"/><stop offset="1" stop-color="#8a2f68"/></linearGradient>
    <radialGradient id="body849" cx=".35" cy=".24" r=".78"><stop offset="0" stop-color="#fff" stop-opacity=".88"/><stop offset=".18" stop-color="#d9a7ff"/><stop offset=".68" stop-color="#8e44ad"/><stop offset="1" stop-color="#8a2f68"/></radialGradient>
    <filter id="shadow849" x="-30%" y="-30%" width="160%" height="160%"><feDropShadow dx="0" dy="10" stdDeviation="9" flood-color="#8a2f68" flood-opacity=".36"/></filter>
  </defs>
  <rect width="512" height="768" rx="48" fill="url(#bg849)"/>
  <rect x="24" y="24" width="464" height="720" rx="40" fill="#fff" opacity=".08"/>
  <g opacity=".46"><circle cx="103" cy="141" r="3.9" fill="#fff" opacity="0.62"/><circle cx="432" cy="159" r="3.5" fill="#fff" opacity="0.46"/><circle cx="247" cy="269" r="4.2" fill="#fff" opacity="0.44"/><circle cx="238" cy="199" r="3.7" fill="#fff" opacity="0.37"/><circle cx="76" cy="357" r="3.4" fill="#fff" opacity="0.37"/><circle cx="258" cy="114" r="1.8" fill="#fff" opacity="0.22"/><circle cx="336" cy="335" r="1.3" fill="#fff" opacity="0.64"/><circle cx="57" cy="327" r="1.5" fill="#fff" opacity="0.55"/><circle cx="466" cy="156" r="1.9" fill="#fff" opacity="0.55"/><circle cx="176" cy="103" r="1.5" fill="#fff" opacity="0.48"/><circle cx="357" cy="462" r="3.3" fill="#fff" opacity="0.50"/><circle cx="215" cy="385" r="3.8" fill="#fff" opacity="0.59"/><circle cx="91" cy="63" r="2.2" fill="#fff" opacity="0.39"/><circle cx="345" cy="441" r="4.8" fill="#fff" opacity="0.32"/><circle cx="345" cy="192" r="1.7" fill="#fff" opacity="0.58"/><circle cx="69" cy="178" r="4.2" fill="#fff" opacity="0.47"/><circle cx="205" cy="384" r="4.3" fill="#fff" opacity="0.40"/><circle cx="102" cy="354" r="5.3" fill="#fff" opacity="0.23"/><circle cx="95" cy="454" r="2.7" fill="#fff" opacity="0.35"/></g>
  <path d="M0 596 C80 558 128 616 202 584 C281 550 332 618 418 582 C464 563 492 570 512 586 V768 H0Z" fill="#8a2f68" opacity=".22"/>
  <ellipse cx="256" cy="664" rx="154" ry="36" fill="#8a2f68" opacity=".3"/>
  <g transform="translate(0 84)"><path d="M316 492 C426 508 425 604 334 594 C391 562 368 528 302 536" fill="none" stroke="#ff8bd6" stroke-width="34" stroke-linecap="round" opacity=".72"/><path d="M178 196 L133 114 L221 170 Z" fill="#ff8bd6" opacity=".8"/><path d="M334 196 L379 114 L291 170 Z" fill="#ff8bd6" opacity=".8"/><path d="M151 500 C116 338 160 190 256 170 C352 190 396 338 361 500 C320 466 291 532 256 490 C221 532 192 466 151 500Z" fill="url(#body849)" filter="url(#shadow849)"/>
    <circle cx="209" cy="328" r="17" fill="#101827"/><circle cx="303" cy="328" r="17" fill="#101827"/>
    <circle cx="203" cy="322" r="5" fill="#fff" opacity=".75"/><circle cx="297" cy="322" r="5" fill="#fff" opacity=".75"/>
    <path d="M206 410 Q256 442 306 410" stroke="#8a2f68" stroke-width="12" fill="none" stroke-linecap="round" opacity=".72"/>
    <path d="M188 560 C228 600 288 600 326 560" stroke="#fff" stroke-width="12" stroke-linecap="round" opacity=".18" fill="none"/>
  </g>
  <path d="M72 128 C168 68 334 66 440 128" stroke="#fff" stroke-width="16" stroke-linecap="round" opacity=".16"/>
  <path d="M60 678 C164 722 348 718 452 662" stroke="#fff" stroke-width="14" stroke-linecap="round" opacity=".16"/>
</svg>