<svg xmlns="http://www.w3.org/2000/svg" viewBox="0 0 512 768" role="img" aria-label="古铜镜 original portrait">
  
  <defs>
    <linearGradient id="bgp85" x1="0" y1="0" x2="1" y2="1">
      <stop offset="0" stop-color="#e8edf2"/>
      <stop offset=".55" stop-color="#9aa8b7"/>
      <stop offset="1" stop-color="#536271"/>
    </linearGradient>
    <radialGradient id="body" cx=".36" cy=".25" r=".76">
      <stop offset="0" stop-color="#e8edf2"/>
      <stop offset=".6" stop-color="#9aa8b7"/>
      <stop offset="1" stop-color="#536271"/>
    </radialGradient>
    <radialGradient id="head" cx=".36" cy=".26" r=".72">
      <stop offset="0" stop-color="#ffffff" stop-opacity=".85"/>
      <stop offset=".2" stop-color="#e8edf2"/>
      <stop offset=".72" stop-color="#9aa8b7"/>
      <stop offset="1" stop-color="#536271"/>
    </radialGradient>
    <filter id="softShadow" x="-30%" y="-30%" width="160%" height="160%">
      <feDropShadow dx="0" dy="8" stdDeviation="8" flood-color="#536271" flood-opacity=".35"/>
    </filter>
  </defs>
  <rect width="512" height="768" rx="48" fill="url(#bgp85)"/>
  <rect x="24" y="24" width="464" height="720" rx="40" fill="#ffffff" opacity=".08"/>
  <g opacity=".42"><circle cx="462" cy="51" r="2.2" fill="#fff" opacity="0.51"/><circle cx="128" cy="178" r="2.5" fill="#fff" opacity="0.28"/><circle cx="485" cy="549" r="1.3" fill="#fff" opacity="0.34"/><circle cx="202" cy="283" r="1.8" fill="#fff" opacity="0.56"/><circle cx="127" cy="337" r="2.5" fill="#fff" opacity="0.42"/><circle cx="458" cy="267" r="1.6" fill="#fff" opacity="0.45"/><circle cx="258" cy="107" r="2.3" fill="#fff" opacity="0.62"/><circle cx="448" cy="603" r="1.2" fill="#fff" opacity="0.60"/><circle cx="2" cy="96" r="2.5" fill="#fff" opacity="0.55"/><circle cx="208" cy="397" r="2.6" fill="#fff" opacity="0.42"/><circle cx="132" cy="36" r="1.0" fill="#fff" opacity="0.53"/><circle cx="14" cy="203" r="2.5" fill="#fff" opacity="0.30"/><circle cx="421" cy="454" r="2.8" fill="#fff" opacity="0.64"/><circle cx="389" cy="512" r="3.1" fill="#fff" opacity="0.63"/><circle cx="129" cy="186" r="3.0" fill="#fff" opacity="0.52"/><circle cx="280" cy="51" r="2.2" fill="#fff" opacity="0.51"/><circle cx="289" cy="155" r="2.4" fill="#fff" opacity="0.59"/><circle cx="380" cy="411" r="2.5" fill="#fff" opacity="0.38"/><circle cx="406" cy="671" r="2.2" fill="#fff" opacity="0.51"/><circle cx="328" cy="699" r="1.8" fill="#fff" opacity="0.68"/><circle cx="159" cy="364" r="2.1" fill="#fff" opacity="0.43"/><circle cx="426" cy="301" r="2.6" fill="#fff" opacity="0.49"/><circle cx="254" cy="609" r="1.9" fill="#fff" opacity="0.26"/><circle cx="346" cy="82" r="2.5" fill="#fff" opacity="0.53"/><circle cx="186" cy="589" r="1.8" fill="#fff" opacity="0.54"/><circle cx="481" cy="595" r="2.6" fill="#fff" opacity="0.45"/><circle cx="371" cy="631" r="2.1" fill="#fff" opacity="0.67"/><circle cx="273" cy="689" r="2.2" fill="#fff" opacity="0.59"/></g>
  <path d="M24 680 L110 610 L186 666 L272 592 L356 674 L445 626 L512 704 V768 H0V704Z" fill="#536271" opacity=".18"/>
  <ellipse cx="256" cy="662" rx="150" ry="34" fill="#536271" opacity=".28"/>
  <g transform="translate(0 122)">
    <path d="M149.4 228.5 L219.1 156.75 H311.35 L376.95 242.85 L346.2 394.55 H163.75 Z" fill="url(#body)" filter="url(#softShadow)"/><path d="M198.60000000000002 179.3 L245.75 91.15 L280.6 171.10000000000002 Z" fill="#e8edf2"/><path d="M290.85 183.4 L344.15 113.70000000000002 L342.1 210.05 Z" fill="#9aa8b7"/><rect x="194.5" y="277.7" width="122.99999999999999" height="30.749999999999996" rx="14.349999999999998" fill="#536271" opacity=".38"/><circle cx="227.3" cy="292.05" r="10.25" fill="#e8edf2"/><circle cx="284.7" cy="292.05" r="10.25" fill="#e8edf2"/><path d="M215 201.85000000000002 Q256 224.4 297 201.85000000000002" stroke="#e8edf2" stroke-width="10.25" fill="none" stroke-linecap="round" opacity=".8"/>
  </g>
  <path d="M74 126 C170 65 334 65 438 126" stroke="#fff" stroke-width="16" stroke-linecap="round" opacity=".16"/>
  <path d="M63 676 C162 718 344 718 449 662" stroke="#fff" stroke-width="14" stroke-linecap="round" opacity=".16"/>
</svg>