<svg xmlns="http://www.w3.org/2000/svg" viewBox="0 0 512 768" role="img" aria-label="铁壁龟将 unique portrait">
  <defs>
    <linearGradient id="bg850" x1="0" y1="0" x2="1" y2="1"><stop offset="0" stop-color="#d7e3ea"/><stop offset=".55" stop-color="#7a8b99"/><stop offset="1" stop-color="#0a3d7a"/></linearGradient>
    <radialGradient id="body850" cx=".35" cy=".24" r=".78"><stop offset="0" stop-color="#fff" stop-opacity=".88"/><stop offset=".18" stop-color="#d7e3ea"/><stop offset=".68" stop-color="#7a8b99"/><stop offset="1" stop-color="#0a3d7a"/></radialGradient>
    <filter id="shadow850" x="-30%" y="-30%" width="160%" height="160%"><feDropShadow dx="0" dy="10" stdDeviation="9" flood-color="#0a3d7a" flood-opacity=".36"/></filter>
  </defs>
  <rect width="512" height="768" rx="48" fill="url(#bg850)"/>
  <rect x="24" y="24" width="464" height="720" rx="40" fill="#fff" opacity=".08"/>
  <g opacity=".46"><circle cx="418" cy="81" r="4.5" fill="#fff" opacity="0.40"/><circle cx="66" cy="514" r="3.0" fill="#fff" opacity="0.56"/><circle cx="207" cy="121" r="2.4" fill="#fff" opacity="0.62"/><circle cx="197" cy="604" r="1.4" fill="#fff" opacity="0.35"/><circle cx="272" cy="595" r="1.9" fill="#fff" opacity="0.53"/><circle cx="109" cy="568" r="4.6" fill="#fff" opacity="0.36"/><circle cx="315" cy="75" r="3.0" fill="#fff" opacity="0.61"/><circle cx="338" cy="407" r="5.2" fill="#fff" opacity="0.52"/><circle cx="231" cy="512" r="4.8" fill="#fff" opacity="0.26"/><circle cx="446" cy="600" r="4.7" fill="#fff" opacity="0.27"/><circle cx="350" cy="543" r="2.6" fill="#fff" opacity="0.33"/><circle cx="231" cy="632" r="3.6" fill="#fff" opacity="0.60"/><circle cx="59" cy="54" r="1.4" fill="#fff" opacity="0.40"/><circle cx="154" cy="576" r="4.1" fill="#fff" opacity="0.48"/><circle cx="69" cy="520" r="4.9" fill="#fff" opacity="0.49"/><circle cx="59" cy="108" r="1.7" fill="#fff" opacity="0.52"/><circle cx="387" cy="67" r="4.7" fill="#fff" opacity="0.32"/><circle cx="123" cy="194" r="4.6" fill="#fff" opacity="0.24"/><circle cx="338" cy="509" r="5.2" fill="#fff" opacity="0.39"/><circle cx="299" cy="151" r="4.6" fill="#fff" opacity="0.24"/><circle cx="112" cy="69" r="3.8" fill="#fff" opacity="0.26"/></g>
  <path d="M0 596 C80 558 128 616 202 584 C281 550 332 618 418 582 C464 563 492 570 512 586 V768 H0Z" fill="#0a3d7a" opacity=".22"/>
  <ellipse cx="256" cy="664" rx="154" ry="36" fill="#0a3d7a" opacity=".3"/>
  <g transform="translate(0 84)"><path d="M151 500 C116 338 160 190 256 170 C352 190 396 338 361 500 C320 466 291 532 256 490 C221 532 192 466 151 500Z" fill="url(#body850)" filter="url(#shadow850)"/>
    <circle cx="208" cy="316" r="17" fill="#101827"/><circle cx="304" cy="316" r="17" fill="#101827"/>
    <circle cx="202" cy="310" r="5" fill="#fff" opacity=".75"/><circle cx="298" cy="310" r="5" fill="#fff" opacity=".75"/>
    <path d="M206 410 Q256 442 306 410" stroke="#0a3d7a" stroke-width="12" fill="none" stroke-linecap="round" opacity=".72"/>
    <path d="M188 560 C228 600 288 600 326 560" stroke="#fff" stroke-width="12" stroke-linecap="round" opacity=".18" fill="none"/>
  </g>
  <path d="M72 128 C168 68 334 66 440 128" stroke="#fff" stroke-width="16" stroke-linecap="round" opacity=".16"/>
  <path d="M60 678 C164 722 348 718 452 662" stroke="#fff" stroke-width="14" stroke-linecap="round" opacity=".16"/>
</svg>