<svg xmlns="http://www.w3.org/2000/svg" viewBox="0 0 512 768" role="img" aria-label="时沙鼠 unique portrait">
  <defs>
    <linearGradient id="bg851" x1="0" y1="0" x2="1" y2="1"><stop offset="0" stop-color="#e9d5ff"/><stop offset=".55" stop-color="#8b5cf6"/><stop offset="1" stop-color="#5d3b1f"/></linearGradient>
    <radialGradient id="body851" cx=".35" cy=".24" r=".78"><stop offset="0" stop-color="#fff" stop-opacity=".88"/><stop offset=".18" stop-color="#e9d5ff"/><stop offset=".68" stop-color="#8b5cf6"/><stop offset="1" stop-color="#5d3b1f"/></radialGradient>
    <filter id="shadow851" x="-30%" y="-30%" width="160%" height="160%"><feDropShadow dx="0" dy="10" stdDeviation="9" flood-color="#5d3b1f" flood-opacity=".36"/></filter>
  </defs>
  <rect width="512" height="768" rx="48" fill="url(#bg851)"/>
  <rect x="24" y="24" width="464" height="720" rx="40" fill="#fff" opacity=".08"/>
  <g opacity=".46"><circle cx="265" cy="357" r="2.2" fill="#fff" opacity="0.58"/><circle cx="184" cy="478" r="2.2" fill="#fff" opacity="0.56"/><circle cx="179" cy="118" r="4.1" fill="#fff" opacity="0.62"/><circle cx="217" cy="439" r="5.0" fill="#fff" opacity="0.25"/><circle cx="239" cy="602" r="1.6" fill="#fff" opacity="0.37"/><circle cx="269" cy="385" r="3.1" fill="#fff" opacity="0.34"/><circle cx="210" cy="170" r="2.4" fill="#fff" opacity="0.53"/><circle cx="62" cy="186" r="1.2" fill="#fff" opacity="0.45"/><circle cx="467" cy="429" r="2.9" fill="#fff" opacity="0.23"/><circle cx="418" cy="246" r="4.1" fill="#fff" opacity="0.37"/><circle cx="276" cy="612" r="4.7" fill="#fff" opacity="0.52"/><circle cx="458" cy="352" r="4.1" fill="#fff" opacity="0.22"/><circle cx="386" cy="589" r="4.4" fill="#fff" opacity="0.41"/><circle cx="182" cy="365" r="1.4" fill="#fff" opacity="0.45"/><circle cx="381" cy="465" r="3.8" fill="#fff" opacity="0.55"/><circle cx="191" cy="354" r="2.6" fill="#fff" opacity="0.52"/><circle cx="287" cy="359" r="2.7" fill="#fff" opacity="0.52"/><circle cx="235" cy="184" r="1.3" fill="#fff" opacity="0.56"/></g>
  <path d="M0 596 C80 558 128 616 202 584 C281 550 332 618 418 582 C464 563 492 570 512 586 V768 H0Z" fill="#5d3b1f" opacity=".22"/>
  <ellipse cx="256" cy="664" rx="154" ry="36" fill="#5d3b1f" opacity=".3"/>
  <g transform="translate(0 84)"><circle cx="256" cy="357" r="128" fill="url(#body851)" filter="url(#shadow851)"/><circle cx="256" cy="357" r="70" fill="#edd3a3" opacity=".26"/>
    <circle cx="215" cy="331" r="17" fill="#5d3b1f"/><circle cx="297" cy="331" r="17" fill="#5d3b1f"/>
    <circle cx="209" cy="325" r="5" fill="#fff" opacity=".75"/><circle cx="291" cy="325" r="5" fill="#fff" opacity=".75"/>
    <path d="M214 248 Q256 284 298 248" stroke="#edd3a3" stroke-width="14" fill="none" stroke-linecap="round" opacity=".74"/>
    <path d="M188 560 C228 600 288 600 326 560" stroke="#fff" stroke-width="12" stroke-linecap="round" opacity=".18" fill="none"/>
  </g>
  <path d="M72 128 C168 68 334 66 440 128" stroke="#fff" stroke-width="16" stroke-linecap="round" opacity=".16"/>
  <path d="M60 678 C164 722 348 718 452 662" stroke="#fff" stroke-width="14" stroke-linecap="round" opacity=".16"/>
</svg>