<svg xmlns="http://www.w3.org/2000/svg" viewBox="0 0 512 768" role="img" aria-label="暗焰幼崽 unique portrait">
  <defs>
    <linearGradient id="bg854" x1="0" y1="0" x2="1" y2="1"><stop offset="0" stop-color="#f0abfc"/><stop offset=".55" stop-color="#7e22ce"/><stop offset="1" stop-color="#a92d1d"/></linearGradient>
    <radialGradient id="body854" cx=".35" cy=".24" r=".78"><stop offset="0" stop-color="#fff" stop-opacity=".88"/><stop offset=".18" stop-color="#f0abfc"/><stop offset=".68" stop-color="#7e22ce"/><stop offset="1" stop-color="#a92d1d"/></radialGradient>
    <filter id="shadow854" x="-30%" y="-30%" width="160%" height="160%"><feDropShadow dx="0" dy="10" stdDeviation="9" flood-color="#a92d1d" flood-opacity=".36"/></filter>
  </defs>
  <rect width="512" height="768" rx="48" fill="url(#bg854)"/>
  <rect x="24" y="24" width="464" height="720" rx="40" fill="#fff" opacity=".08"/>
  <g opacity=".46"><circle cx="150" cy="581" r="4.3" fill="#fff" opacity="0.38"/><circle cx="133" cy="597" r="4.6" fill="#fff" opacity="0.48"/><circle cx="90" cy="121" r="1.8" fill="#fff" opacity="0.23"/><circle cx="271" cy="574" r="1.8" fill="#fff" opacity="0.53"/><circle cx="373" cy="554" r="5.2" fill="#fff" opacity="0.60"/><circle cx="123" cy="245" r="2.0" fill="#fff" opacity="0.38"/><circle cx="283" cy="134" r="3.4" fill="#fff" opacity="0.26"/><circle cx="228" cy="85" r="2.8" fill="#fff" opacity="0.50"/><circle cx="337" cy="280" r="2.8" fill="#fff" opacity="0.37"/><circle cx="156" cy="307" r="4.7" fill="#fff" opacity="0.44"/><circle cx="222" cy="136" r="1.5" fill="#fff" opacity="0.35"/><circle cx="311" cy="173" r="2.6" fill="#fff" opacity="0.50"/><circle cx="227" cy="572" r="3.6" fill="#fff" opacity="0.52"/><circle cx="455" cy="182" r="2.5" fill="#fff" opacity="0.55"/><circle cx="116" cy="348" r="1.5" fill="#fff" opacity="0.22"/><circle cx="226" cy="408" r="2.2" fill="#fff" opacity="0.46"/><circle cx="361" cy="357" r="2.0" fill="#fff" opacity="0.57"/><circle cx="164" cy="83" r="3.0" fill="#fff" opacity="0.38"/></g>
  <path d="M0 596 C80 558 128 616 202 584 C281 550 332 618 418 582 C464 563 492 570 512 586 V768 H0Z" fill="#a92d1d" opacity=".22"/>
  <ellipse cx="256" cy="664" rx="154" ry="36" fill="#a92d1d" opacity=".3"/>
  <g transform="translate(0 84)"><circle cx="256" cy="357" r="128" fill="url(#body854)" filter="url(#shadow854)"/><circle cx="256" cy="357" r="70" fill="#ffd166" opacity=".26"/>
    <circle cx="217" cy="320" r="17" fill="#a92d1d"/><circle cx="295" cy="320" r="17" fill="#a92d1d"/>
    <circle cx="211" cy="314" r="5" fill="#fff" opacity=".75"/><circle cx="289" cy="314" r="5" fill="#fff" opacity=".75"/>
    <path d="M214 248 Q256 284 298 248" stroke="#ffd166" stroke-width="14" fill="none" stroke-linecap="round" opacity=".74"/>
    <path d="M188 560 C228 600 288 600 326 560" stroke="#fff" stroke-width="12" stroke-linecap="round" opacity=".18" fill="none"/>
  </g>
  <path d="M72 128 C168 68 334 66 440 128" stroke="#fff" stroke-width="16" stroke-linecap="round" opacity=".16"/>
  <path d="M60 678 C164 722 348 718 452 662" stroke="#fff" stroke-width="14" stroke-linecap="round" opacity=".16"/>
</svg>