<svg xmlns="http://www.w3.org/2000/svg" viewBox="0 0 512 768" role="img" aria-label="灭世炎魔 unique portrait">
  <defs>
    <linearGradient id="bg856" x1="0" y1="0" x2="1" y2="1"><stop offset="0" stop-color="#f0abfc"/><stop offset=".55" stop-color="#7e22ce"/><stop offset="1" stop-color="#a92d1d"/></linearGradient>
    <radialGradient id="body856" cx=".35" cy=".24" r=".78"><stop offset="0" stop-color="#fff" stop-opacity=".88"/><stop offset=".18" stop-color="#f0abfc"/><stop offset=".68" stop-color="#7e22ce"/><stop offset="1" stop-color="#a92d1d"/></radialGradient>
    <filter id="shadow856" x="-30%" y="-30%" width="160%" height="160%"><feDropShadow dx="0" dy="10" stdDeviation="9" flood-color="#a92d1d" flood-opacity=".36"/></filter>
  </defs>
  <rect width="512" height="768" rx="48" fill="url(#bg856)"/>
  <rect x="24" y="24" width="464" height="720" rx="40" fill="#fff" opacity=".08"/>
  <g opacity=".46"><circle cx="183" cy="86" r="3.2" fill="#fff" opacity="0.51"/><circle cx="395" cy="220" r="2.1" fill="#fff" opacity="0.22"/><circle cx="42" cy="269" r="4.3" fill="#fff" opacity="0.35"/><circle cx="157" cy="155" r="2.7" fill="#fff" opacity="0.38"/><circle cx="188" cy="347" r="2.0" fill="#fff" opacity="0.39"/><circle cx="269" cy="121" r="3.2" fill="#fff" opacity="0.62"/><circle cx="183" cy="464" r="3.8" fill="#fff" opacity="0.27"/><circle cx="227" cy="57" r="2.9" fill="#fff" opacity="0.27"/><circle cx="245" cy="58" r="3.8" fill="#fff" opacity="0.37"/><circle cx="219" cy="337" r="1.7" fill="#fff" opacity="0.30"/><circle cx="123" cy="138" r="2.6" fill="#fff" opacity="0.24"/><circle cx="433" cy="592" r="4.8" fill="#fff" opacity="0.49"/><circle cx="66" cy="205" r="3.3" fill="#fff" opacity="0.32"/><circle cx="351" cy="139" r="2.3" fill="#fff" opacity="0.34"/><circle cx="243" cy="381" r="4.9" fill="#fff" opacity="0.41"/><circle cx="57" cy="596" r="3.5" fill="#fff" opacity="0.60"/><circle cx="321" cy="219" r="2.3" fill="#fff" opacity="0.34"/><circle cx="182" cy="149" r="5.4" fill="#fff" opacity="0.58"/><circle cx="158" cy="170" r="3.3" fill="#fff" opacity="0.49"/></g>
  <path d="M0 596 C80 558 128 616 202 584 C281 550 332 618 418 582 C464 563 492 570 512 586 V768 H0Z" fill="#a92d1d" opacity=".22"/>
  <ellipse cx="256" cy="664" rx="154" ry="36" fill="#a92d1d" opacity=".3"/>
  <g transform="translate(0 84)"><path d="M316 492 C426 508 425 604 334 594 C391 562 368 528 302 536" fill="none" stroke="#ff6b35" stroke-width="34" stroke-linecap="round" opacity=".72"/><path d="M178 196 L133 114 L221 170 Z" fill="#ff6b35" opacity=".8"/><path d="M334 196 L379 114 L291 170 Z" fill="#ff6b35" opacity=".8"/><path d="M151 500 C116 338 160 190 256 170 C352 190 396 338 361 500 C320 466 291 532 256 490 C221 532 192 466 151 500Z" fill="url(#body856)" filter="url(#shadow856)"/>
    <circle cx="215" cy="319" r="17" fill="#101827"/><circle cx="297" cy="319" r="17" fill="#101827"/>
    <circle cx="209" cy="313" r="5" fill="#fff" opacity=".75"/><circle cx="291" cy="313" r="5" fill="#fff" opacity=".75"/>
    <path d="M206 410 Q256 442 306 410" stroke="#a92d1d" stroke-width="12" fill="none" stroke-linecap="round" opacity=".72"/>
    <path d="M188 560 C228 600 288 600 326 560" stroke="#fff" stroke-width="12" stroke-linecap="round" opacity=".18" fill="none"/>
  </g>
  <path d="M72 128 C168 68 334 66 440 128" stroke="#fff" stroke-width="16" stroke-linecap="round" opacity=".16"/>
  <path d="M60 678 C164 722 348 718 452 662" stroke="#fff" stroke-width="14" stroke-linecap="round" opacity=".16"/>
</svg>