<svg xmlns="http://www.w3.org/2000/svg" viewBox="0 0 512 768" role="img" aria-label="水晶蚕 unique portrait">
  <defs>
    <linearGradient id="bg857" x1="0" y1="0" x2="1" y2="1"><stop offset="0" stop-color="#d9f99d"/><stop offset=".55" stop-color="#84cc16"/><stop offset="1" stop-color="#b88712"/></linearGradient>
    <radialGradient id="body857" cx=".35" cy=".24" r=".78"><stop offset="0" stop-color="#fff" stop-opacity=".88"/><stop offset=".18" stop-color="#d9f99d"/><stop offset=".68" stop-color="#84cc16"/><stop offset="1" stop-color="#b88712"/></radialGradient>
    <filter id="shadow857" x="-30%" y="-30%" width="160%" height="160%"><feDropShadow dx="0" dy="10" stdDeviation="9" flood-color="#b88712" flood-opacity=".36"/></filter>
  </defs>
  <rect width="512" height="768" rx="48" fill="url(#bg857)"/>
  <rect x="24" y="24" width="464" height="720" rx="40" fill="#fff" opacity=".08"/>
  <g opacity=".46"><circle cx="52" cy="278" r="4.2" fill="#fff" opacity="0.58"/><circle cx="195" cy="439" r="3.5" fill="#fff" opacity="0.27"/><circle cx="459" cy="575" r="4.7" fill="#fff" opacity="0.35"/><circle cx="286" cy="86" r="4.2" fill="#fff" opacity="0.58"/><circle cx="236" cy="391" r="4.5" fill="#fff" opacity="0.54"/><circle cx="126" cy="576" r="5.1" fill="#fff" opacity="0.59"/><circle cx="387" cy="454" r="1.3" fill="#fff" opacity="0.43"/><circle cx="405" cy="128" r="3.7" fill="#fff" opacity="0.47"/><circle cx="152" cy="169" r="4.4" fill="#fff" opacity="0.58"/><circle cx="98" cy="579" r="4.6" fill="#fff" opacity="0.52"/><circle cx="401" cy="604" r="3.8" fill="#fff" opacity="0.60"/><circle cx="295" cy="174" r="2.5" fill="#fff" opacity="0.24"/><circle cx="366" cy="368" r="3.0" fill="#fff" opacity="0.30"/><circle cx="345" cy="178" r="3.6" fill="#fff" opacity="0.37"/><circle cx="138" cy="90" r="3.9" fill="#fff" opacity="0.32"/><circle cx="321" cy="192" r="4.2" fill="#fff" opacity="0.38"/></g>
  <path d="M0 596 C80 558 128 616 202 584 C281 550 332 618 418 582 C464 563 492 570 512 586 V768 H0Z" fill="#b88712" opacity=".22"/>
  <ellipse cx="256" cy="664" rx="154" ry="36" fill="#b88712" opacity=".3"/>
  <g transform="translate(0 84)"><path d="M178 196 L133 114 L221 170 Z" fill="#f7d154" opacity=".8"/><path d="M334 196 L379 114 L291 170 Z" fill="#f7d154" opacity=".8"/><path d="M151 500 C116 338 160 190 256 170 C352 190 396 338 361 500 C320 466 291 532 256 490 C221 532 192 466 151 500Z" fill="url(#body857)" filter="url(#shadow857)"/>
    <circle cx="213" cy="329" r="17" fill="#b88712"/><circle cx="299" cy="329" r="17" fill="#b88712"/>
    <circle cx="207" cy="323" r="5" fill="#fff" opacity=".75"/><circle cx="293" cy="323" r="5" fill="#fff" opacity=".75"/>
    <path d="M206 410 Q256 442 306 410" stroke="#b88712" stroke-width="12" fill="none" stroke-linecap="round" opacity=".72"/>
    <path d="M188 560 C228 600 288 600 326 560" stroke="#fff" stroke-width="12" stroke-linecap="round" opacity=".18" fill="none"/>
  </g>
  <path d="M72 128 C168 68 334 66 440 128" stroke="#fff" stroke-width="16" stroke-linecap="round" opacity=".16"/>
  <path d="M60 678 C164 722 348 718 452 662" stroke="#fff" stroke-width="14" stroke-linecap="round" opacity=".16"/>
</svg>