<svg xmlns="http://www.w3.org/2000/svg" viewBox="0 0 512 768" role="img" aria-label="彩茧 unique portrait">
  <defs>
    <linearGradient id="bg858" x1="0" y1="0" x2="1" y2="1"><stop offset="0" stop-color="#d9f99d"/><stop offset=".55" stop-color="#84cc16"/><stop offset="1" stop-color="#b88712"/></linearGradient>
    <radialGradient id="body858" cx=".35" cy=".24" r=".78"><stop offset="0" stop-color="#fff" stop-opacity=".88"/><stop offset=".18" stop-color="#d9f99d"/><stop offset=".68" stop-color="#84cc16"/><stop offset="1" stop-color="#b88712"/></radialGradient>
    <filter id="shadow858" x="-30%" y="-30%" width="160%" height="160%"><feDropShadow dx="0" dy="10" stdDeviation="9" flood-color="#b88712" flood-opacity=".36"/></filter>
  </defs>
  <rect width="512" height="768" rx="48" fill="url(#bg858)"/>
  <rect x="24" y="24" width="464" height="720" rx="40" fill="#fff" opacity=".08"/>
  <g opacity=".46"><circle cx="339" cy="502" r="3.8" fill="#fff" opacity="0.33"/><circle cx="356" cy="413" r="4.4" fill="#fff" opacity="0.43"/><circle cx="139" cy="403" r="2.4" fill="#fff" opacity="0.31"/><circle cx="315" cy="487" r="3.2" fill="#fff" opacity="0.57"/><circle cx="78" cy="129" r="3.3" fill="#fff" opacity="0.46"/><circle cx="143" cy="578" r="2.9" fill="#fff" opacity="0.27"/><circle cx="335" cy="572" r="4.8" fill="#fff" opacity="0.40"/><circle cx="98" cy="562" r="4.0" fill="#fff" opacity="0.52"/><circle cx="330" cy="284" r="3.7" fill="#fff" opacity="0.57"/><circle cx="273" cy="383" r="3.6" fill="#fff" opacity="0.39"/><circle cx="283" cy="480" r="1.9" fill="#fff" opacity="0.38"/><circle cx="199" cy="266" r="3.8" fill="#fff" opacity="0.57"/><circle cx="339" cy="167" r="3.9" fill="#fff" opacity="0.56"/><circle cx="49" cy="398" r="4.9" fill="#fff" opacity="0.39"/><circle cx="217" cy="527" r="3.8" fill="#fff" opacity="0.55"/><circle cx="369" cy="522" r="3.0" fill="#fff" opacity="0.53"/><circle cx="111" cy="226" r="1.7" fill="#fff" opacity="0.59"/><circle cx="104" cy="157" r="1.2" fill="#fff" opacity="0.57"/><circle cx="52" cy="629" r="4.9" fill="#fff" opacity="0.61"/><circle cx="174" cy="615" r="4.9" fill="#fff" opacity="0.31"/></g>
  <path d="M0 596 C80 558 128 616 202 584 C281 550 332 618 418 582 C464 563 492 570 512 586 V768 H0Z" fill="#b88712" opacity=".22"/>
  <ellipse cx="256" cy="664" rx="154" ry="36" fill="#b88712" opacity=".3"/>
  <g transform="translate(0 84)"><path d="M148 520 C118 346 156 196 256 164 C356 196 394 346 364 520 C326 488 292 532 256 496 C220 532 186 488 148 520Z" fill="url(#body858)" filter="url(#shadow858)"/>
    <circle cx="209" cy="332" r="17" fill="#b88712"/><circle cx="303" cy="332" r="17" fill="#b88712"/>
    <circle cx="203" cy="326" r="5" fill="#fff" opacity=".75"/><circle cx="297" cy="326" r="5" fill="#fff" opacity=".75"/>
    <path d="M206 410 Q256 442 306 410" stroke="#b88712" stroke-width="12" fill="none" stroke-linecap="round" opacity=".72"/>
    <path d="M188 560 C228 600 288 600 326 560" stroke="#fff" stroke-width="12" stroke-linecap="round" opacity=".18" fill="none"/>
  </g>
  <path d="M72 128 C168 68 334 66 440 128" stroke="#fff" stroke-width="16" stroke-linecap="round" opacity=".16"/>
  <path d="M60 678 C164 722 348 718 452 662" stroke="#fff" stroke-width="14" stroke-linecap="round" opacity=".16"/>
</svg>