<svg xmlns="http://www.w3.org/2000/svg" viewBox="0 0 512 768" role="img" aria-label="辉翼战虫 unique portrait">
  <defs>
    <linearGradient id="bg859" x1="0" y1="0" x2="1" y2="1"><stop offset="0" stop-color="#d9f99d"/><stop offset=".55" stop-color="#84cc16"/><stop offset="1" stop-color="#b88712"/></linearGradient>
    <radialGradient id="body859" cx=".35" cy=".24" r=".78"><stop offset="0" stop-color="#fff" stop-opacity=".88"/><stop offset=".18" stop-color="#d9f99d"/><stop offset=".68" stop-color="#84cc16"/><stop offset="1" stop-color="#b88712"/></radialGradient>
    <filter id="shadow859" x="-30%" y="-30%" width="160%" height="160%"><feDropShadow dx="0" dy="10" stdDeviation="9" flood-color="#b88712" flood-opacity=".36"/></filter>
  </defs>
  <rect width="512" height="768" rx="48" fill="url(#bg859)"/>
  <rect x="24" y="24" width="464" height="720" rx="40" fill="#fff" opacity=".08"/>
  <g opacity=".46"><circle cx="77" cy="630" r="5.0" fill="#fff" opacity="0.47"/><circle cx="207" cy="270" r="3.3" fill="#fff" opacity="0.27"/><circle cx="86" cy="474" r="1.9" fill="#fff" opacity="0.54"/><circle cx="347" cy="218" r="4.9" fill="#fff" opacity="0.39"/><circle cx="424" cy="202" r="2.7" fill="#fff" opacity="0.23"/><circle cx="225" cy="245" r="4.6" fill="#fff" opacity="0.41"/><circle cx="274" cy="67" r="4.4" fill="#fff" opacity="0.28"/><circle cx="185" cy="379" r="3.8" fill="#fff" opacity="0.55"/><circle cx="176" cy="569" r="1.5" fill="#fff" opacity="0.44"/><circle cx="123" cy="529" r="3.4" fill="#fff" opacity="0.26"/><circle cx="54" cy="528" r="5.0" fill="#fff" opacity="0.61"/><circle cx="119" cy="94" r="5.1" fill="#fff" opacity="0.50"/><circle cx="436" cy="347" r="4.1" fill="#fff" opacity="0.58"/></g>
  <path d="M0 596 C80 558 128 616 202 584 C281 550 332 618 418 582 C464 563 492 570 512 586 V768 H0Z" fill="#b88712" opacity=".22"/>
  <ellipse cx="256" cy="664" rx="154" ry="36" fill="#b88712" opacity=".3"/>
  <g transform="translate(0 84)"><path d="M316 492 C426 508 425 604 334 594 C391 562 368 528 302 536" fill="none" stroke="#f7d154" stroke-width="34" stroke-linecap="round" opacity=".72"/><path d="M178 196 L133 114 L221 170 Z" fill="#f7d154" opacity=".8"/><path d="M334 196 L379 114 L291 170 Z" fill="#f7d154" opacity=".8"/><path d="M151 500 C116 338 160 190 256 170 C352 190 396 338 361 500 C320 466 291 532 256 490 C221 532 192 466 151 500Z" fill="url(#body859)" filter="url(#shadow859)"/>
    <circle cx="217" cy="340" r="17" fill="#101827"/><circle cx="295" cy="340" r="17" fill="#101827"/>
    <circle cx="211" cy="334" r="5" fill="#fff" opacity=".75"/><circle cx="289" cy="334" r="5" fill="#fff" opacity=".75"/>
    <path d="M206 410 Q256 442 306 410" stroke="#b88712" stroke-width="12" fill="none" stroke-linecap="round" opacity=".72"/>
    <path d="M188 560 C228 600 288 600 326 560" stroke="#fff" stroke-width="12" stroke-linecap="round" opacity=".18" fill="none"/>
  </g>
  <path d="M72 128 C168 68 334 66 440 128" stroke="#fff" stroke-width="16" stroke-linecap="round" opacity=".16"/>
  <path d="M60 678 C164 722 348 718 452 662" stroke="#fff" stroke-width="14" stroke-linecap="round" opacity=".16"/>
</svg>