<svg xmlns="http://www.w3.org/2000/svg" viewBox="0 0 512 768" role="img" aria-label="暴风花灵 unique portrait">
  <defs>
    <linearGradient id="bg864" x1="0" y1="0" x2="1" y2="1"><stop offset="0" stop-color="#d5efff"/><stop offset=".55" stop-color="#82aaff"/><stop offset="1" stop-color="#8a2f68"/></linearGradient>
    <radialGradient id="body864" cx=".35" cy=".24" r=".78"><stop offset="0" stop-color="#fff" stop-opacity=".88"/><stop offset=".18" stop-color="#d5efff"/><stop offset=".68" stop-color="#82aaff"/><stop offset="1" stop-color="#8a2f68"/></radialGradient>
    <filter id="shadow864" x="-30%" y="-30%" width="160%" height="160%"><feDropShadow dx="0" dy="10" stdDeviation="9" flood-color="#8a2f68" flood-opacity=".36"/></filter>
  </defs>
  <rect width="512" height="768" rx="48" fill="url(#bg864)"/>
  <rect x="24" y="24" width="464" height="720" rx="40" fill="#fff" opacity=".08"/>
  <g opacity=".46"><circle cx="328" cy="594" r="1.9" fill="#fff" opacity="0.57"/><circle cx="468" cy="505" r="3.7" fill="#fff" opacity="0.45"/><circle cx="111" cy="496" r="2.2" fill="#fff" opacity="0.23"/><circle cx="76" cy="622" r="4.9" fill="#fff" opacity="0.35"/><circle cx="70" cy="400" r="4.4" fill="#fff" opacity="0.51"/><circle cx="281" cy="402" r="2.4" fill="#fff" opacity="0.37"/><circle cx="273" cy="134" r="3.2" fill="#fff" opacity="0.64"/><circle cx="227" cy="227" r="3.0" fill="#fff" opacity="0.29"/><circle cx="269" cy="175" r="1.8" fill="#fff" opacity="0.56"/><circle cx="241" cy="632" r="3.8" fill="#fff" opacity="0.62"/><circle cx="457" cy="246" r="4.1" fill="#fff" opacity="0.50"/></g>
  <path d="M0 596 C80 558 128 616 202 584 C281 550 332 618 418 582 C464 563 492 570 512 586 V768 H0Z" fill="#8a2f68" opacity=".22"/>
  <ellipse cx="256" cy="664" rx="154" ry="36" fill="#8a2f68" opacity=".3"/>
  <g transform="translate(0 84)"><path d="M156 354 C66 314 56 218 150 238 C126 274 138 319 190 338 Z" fill="#ff8bd6" opacity=".58"/><path d="M356 354 C446 314 456 218 362 238 C386 274 374 319 322 338 Z" fill="#ff8bd6" opacity=".58"/><path d="M151 500 C116 338 160 190 256 170 C352 190 396 338 361 500 C320 466 291 532 256 490 C221 532 192 466 151 500Z" fill="url(#body864)" filter="url(#shadow864)"/>
    <circle cx="214" cy="325" r="17" fill="#101827"/><circle cx="298" cy="325" r="17" fill="#101827"/>
    <circle cx="208" cy="319" r="5" fill="#fff" opacity=".75"/><circle cx="292" cy="319" r="5" fill="#fff" opacity=".75"/>
    <path d="M206 410 Q256 442 306 410" stroke="#8a2f68" stroke-width="12" fill="none" stroke-linecap="round" opacity=".72"/>
    <path d="M188 560 C228 600 288 600 326 560" stroke="#fff" stroke-width="12" stroke-linecap="round" opacity=".18" fill="none"/>
  </g>
  <path d="M72 128 C168 68 334 66 440 128" stroke="#fff" stroke-width="16" stroke-linecap="round" opacity=".16"/>
  <path d="M60 678 C164 722 348 718 452 662" stroke="#fff" stroke-width="14" stroke-linecap="round" opacity=".16"/>
</svg>