<svg xmlns="http://www.w3.org/2000/svg" viewBox="0 0 512 768" role="img" aria-label="天际掠鸟 unique portrait">
  <defs>
    <linearGradient id="bg865" x1="0" y1="0" x2="1" y2="1"><stop offset="0" stop-color="#d5efff"/><stop offset=".55" stop-color="#82aaff"/><stop offset="1" stop-color="#8a2f68"/></linearGradient>
    <radialGradient id="body865" cx=".35" cy=".24" r=".78"><stop offset="0" stop-color="#fff" stop-opacity=".88"/><stop offset=".18" stop-color="#d5efff"/><stop offset=".68" stop-color="#82aaff"/><stop offset="1" stop-color="#8a2f68"/></radialGradient>
    <filter id="shadow865" x="-30%" y="-30%" width="160%" height="160%"><feDropShadow dx="0" dy="10" stdDeviation="9" flood-color="#8a2f68" flood-opacity=".36"/></filter>
  </defs>
  <rect width="512" height="768" rx="48" fill="url(#bg865)"/>
  <rect x="24" y="24" width="464" height="720" rx="40" fill="#fff" opacity=".08"/>
  <g opacity=".46"><circle cx="410" cy="87" r="3.9" fill="#fff" opacity="0.37"/><circle cx="139" cy="176" r="1.5" fill="#fff" opacity="0.56"/><circle cx="304" cy="85" r="1.3" fill="#fff" opacity="0.30"/><circle cx="381" cy="445" r="1.9" fill="#fff" opacity="0.62"/><circle cx="441" cy="334" r="4.0" fill="#fff" opacity="0.58"/><circle cx="126" cy="608" r="4.1" fill="#fff" opacity="0.33"/><circle cx="162" cy="609" r="4.1" fill="#fff" opacity="0.44"/><circle cx="401" cy="444" r="5.3" fill="#fff" opacity="0.48"/><circle cx="398" cy="558" r="3.1" fill="#fff" opacity="0.32"/><circle cx="184" cy="177" r="1.8" fill="#fff" opacity="0.46"/><circle cx="271" cy="582" r="1.6" fill="#fff" opacity="0.63"/><circle cx="224" cy="353" r="5.4" fill="#fff" opacity="0.22"/><circle cx="136" cy="518" r="3.3" fill="#fff" opacity="0.24"/></g>
  <path d="M0 596 C80 558 128 616 202 584 C281 550 332 618 418 582 C464 563 492 570 512 586 V768 H0Z" fill="#8a2f68" opacity=".22"/>
  <ellipse cx="256" cy="664" rx="154" ry="36" fill="#8a2f68" opacity=".3"/>
  <g transform="translate(0 84)"><path d="M316 492 C426 508 425 604 334 594 C391 562 368 528 302 536" fill="none" stroke="#ff8bd6" stroke-width="34" stroke-linecap="round" opacity=".72"/><path d="M178 196 L133 114 L221 170 Z" fill="#ff8bd6" opacity=".8"/><path d="M334 196 L379 114 L291 170 Z" fill="#ff8bd6" opacity=".8"/><path d="M151 500 C116 338 160 190 256 170 C352 190 396 338 361 500 C320 466 291 532 256 490 C221 532 192 466 151 500Z" fill="url(#body865)" filter="url(#shadow865)"/>
    <circle cx="213" cy="320" r="17" fill="#101827"/><circle cx="299" cy="320" r="17" fill="#101827"/>
    <circle cx="207" cy="314" r="5" fill="#fff" opacity=".75"/><circle cx="293" cy="314" r="5" fill="#fff" opacity=".75"/>
    <path d="M206 410 Q256 442 306 410" stroke="#8a2f68" stroke-width="12" fill="none" stroke-linecap="round" opacity=".72"/>
    <path d="M188 560 C228 600 288 600 326 560" stroke="#fff" stroke-width="12" stroke-linecap="round" opacity=".18" fill="none"/>
  </g>
  <path d="M72 128 C168 68 334 66 440 128" stroke="#fff" stroke-width="16" stroke-linecap="round" opacity=".16"/>
  <path d="M60 678 C164 722 348 718 452 662" stroke="#fff" stroke-width="14" stroke-linecap="round" opacity=".16"/>
</svg>