<svg xmlns="http://www.w3.org/2000/svg" viewBox="0 0 512 768" role="img" aria-label="音符蝌蚪 unique portrait">
  <defs>
    <linearGradient id="bg866" x1="0" y1="0" x2="1" y2="1"><stop offset="0" stop-color="#fde68a"/><stop offset=".55" stop-color="#ec4899"/><stop offset="1" stop-color="#0a3d7a"/></linearGradient>
    <radialGradient id="body866" cx=".35" cy=".24" r=".78"><stop offset="0" stop-color="#fff" stop-opacity=".88"/><stop offset=".18" stop-color="#fde68a"/><stop offset=".68" stop-color="#ec4899"/><stop offset="1" stop-color="#0a3d7a"/></radialGradient>
    <filter id="shadow866" x="-30%" y="-30%" width="160%" height="160%"><feDropShadow dx="0" dy="10" stdDeviation="9" flood-color="#0a3d7a" flood-opacity=".36"/></filter>
  </defs>
  <rect width="512" height="768" rx="48" fill="url(#bg866)"/>
  <rect x="24" y="24" width="464" height="720" rx="40" fill="#fff" opacity=".08"/>
  <g opacity=".46"><circle cx="193" cy="481" r="1.7" fill="#fff" opacity="0.56"/><circle cx="76" cy="551" r="3.8" fill="#fff" opacity="0.29"/><circle cx="239" cy="283" r="4.4" fill="#fff" opacity="0.28"/><circle cx="272" cy="633" r="4.7" fill="#fff" opacity="0.48"/><circle cx="170" cy="267" r="5.1" fill="#fff" opacity="0.25"/><circle cx="268" cy="541" r="3.8" fill="#fff" opacity="0.58"/><circle cx="159" cy="573" r="3.1" fill="#fff" opacity="0.46"/><circle cx="462" cy="170" r="1.3" fill="#fff" opacity="0.48"/><circle cx="85" cy="368" r="2.8" fill="#fff" opacity="0.63"/><circle cx="410" cy="92" r="2.8" fill="#fff" opacity="0.34"/><circle cx="182" cy="477" r="4.9" fill="#fff" opacity="0.28"/><circle cx="235" cy="243" r="4.7" fill="#fff" opacity="0.61"/><circle cx="172" cy="337" r="3.6" fill="#fff" opacity="0.40"/><circle cx="337" cy="275" r="2.9" fill="#fff" opacity="0.59"/><circle cx="264" cy="165" r="2.3" fill="#fff" opacity="0.57"/><circle cx="75" cy="266" r="3.7" fill="#fff" opacity="0.28"/><circle cx="294" cy="502" r="1.6" fill="#fff" opacity="0.23"/><circle cx="376" cy="217" r="4.7" fill="#fff" opacity="0.40"/></g>
  <path d="M0 596 C80 558 128 616 202 584 C281 550 332 618 418 582 C464 563 492 570 512 586 V768 H0Z" fill="#0a3d7a" opacity=".22"/>
  <ellipse cx="256" cy="664" rx="154" ry="36" fill="#0a3d7a" opacity=".3"/>
  <g transform="translate(0 84)"><circle cx="256" cy="357" r="128" fill="url(#body866)" filter="url(#shadow866)"/><circle cx="256" cy="357" r="70" fill="#9be7ff" opacity=".26"/>
    <circle cx="212" cy="338" r="17" fill="#0a3d7a"/><circle cx="300" cy="338" r="17" fill="#0a3d7a"/>
    <circle cx="206" cy="332" r="5" fill="#fff" opacity=".75"/><circle cx="294" cy="332" r="5" fill="#fff" opacity=".75"/>
    <path d="M214 248 Q256 284 298 248" stroke="#9be7ff" stroke-width="14" fill="none" stroke-linecap="round" opacity=".74"/>
    <path d="M188 560 C228 600 288 600 326 560" stroke="#fff" stroke-width="12" stroke-linecap="round" opacity=".18" fill="none"/>
  </g>
  <path d="M72 128 C168 68 334 66 440 128" stroke="#fff" stroke-width="16" stroke-linecap="round" opacity=".16"/>
  <path d="M60 678 C164 722 348 718 452 662" stroke="#fff" stroke-width="14" stroke-linecap="round" opacity=".16"/>
</svg>