<svg xmlns="http://www.w3.org/2000/svg" viewBox="0 0 512 768" role="img" aria-label="旋律蛙 unique portrait">
  <defs>
    <linearGradient id="bg867" x1="0" y1="0" x2="1" y2="1"><stop offset="0" stop-color="#fde68a"/><stop offset=".55" stop-color="#ec4899"/><stop offset="1" stop-color="#0a3d7a"/></linearGradient>
    <radialGradient id="body867" cx=".35" cy=".24" r=".78"><stop offset="0" stop-color="#fff" stop-opacity=".88"/><stop offset=".18" stop-color="#fde68a"/><stop offset=".68" stop-color="#ec4899"/><stop offset="1" stop-color="#0a3d7a"/></radialGradient>
    <filter id="shadow867" x="-30%" y="-30%" width="160%" height="160%"><feDropShadow dx="0" dy="10" stdDeviation="9" flood-color="#0a3d7a" flood-opacity=".36"/></filter>
  </defs>
  <rect width="512" height="768" rx="48" fill="url(#bg867)"/>
  <rect x="24" y="24" width="464" height="720" rx="40" fill="#fff" opacity=".08"/>
  <g opacity=".46"><circle cx="269" cy="499" r="1.8" fill="#fff" opacity="0.44"/><circle cx="65" cy="544" r="3.7" fill="#fff" opacity="0.44"/><circle cx="364" cy="267" r="4.4" fill="#fff" opacity="0.27"/><circle cx="301" cy="629" r="1.6" fill="#fff" opacity="0.32"/><circle cx="230" cy="71" r="1.6" fill="#fff" opacity="0.26"/><circle cx="460" cy="600" r="5.3" fill="#fff" opacity="0.45"/><circle cx="212" cy="472" r="1.7" fill="#fff" opacity="0.32"/><circle cx="448" cy="151" r="4.7" fill="#fff" opacity="0.28"/><circle cx="227" cy="171" r="5.1" fill="#fff" opacity="0.33"/><circle cx="222" cy="351" r="2.3" fill="#fff" opacity="0.23"/><circle cx="426" cy="477" r="2.8" fill="#fff" opacity="0.23"/><circle cx="390" cy="398" r="3.0" fill="#fff" opacity="0.55"/><circle cx="347" cy="554" r="5.2" fill="#fff" opacity="0.54"/><circle cx="458" cy="233" r="5.4" fill="#fff" opacity="0.59"/><circle cx="191" cy="557" r="3.4" fill="#fff" opacity="0.61"/><circle cx="313" cy="500" r="3.0" fill="#fff" opacity="0.27"/><circle cx="224" cy="241" r="1.4" fill="#fff" opacity="0.62"/><circle cx="243" cy="500" r="5.0" fill="#fff" opacity="0.57"/><circle cx="295" cy="249" r="2.9" fill="#fff" opacity="0.24"/><circle cx="259" cy="431" r="4.5" fill="#fff" opacity="0.56"/><circle cx="457" cy="306" r="1.4" fill="#fff" opacity="0.63"/></g>
  <path d="M0 596 C80 558 128 616 202 584 C281 550 332 618 418 582 C464 563 492 570 512 586 V768 H0Z" fill="#0a3d7a" opacity=".22"/>
  <ellipse cx="256" cy="664" rx="154" ry="36" fill="#0a3d7a" opacity=".3"/>
  <g transform="translate(0 84)"><path d="M151 500 C116 338 160 190 256 170 C352 190 396 338 361 500 C320 466 291 532 256 490 C221 532 192 466 151 500Z" fill="url(#body867)" filter="url(#shadow867)"/>
    <circle cx="213" cy="336" r="17" fill="#101827"/><circle cx="299" cy="336" r="17" fill="#101827"/>
    <circle cx="207" cy="330" r="5" fill="#fff" opacity=".75"/><circle cx="293" cy="330" r="5" fill="#fff" opacity=".75"/>
    <path d="M206 410 Q256 442 306 410" stroke="#0a3d7a" stroke-width="12" fill="none" stroke-linecap="round" opacity=".72"/>
    <path d="M188 560 C228 600 288 600 326 560" stroke="#fff" stroke-width="12" stroke-linecap="round" opacity=".18" fill="none"/>
  </g>
  <path d="M72 128 C168 68 334 66 440 128" stroke="#fff" stroke-width="16" stroke-linecap="round" opacity=".16"/>
  <path d="M60 678 C164 722 348 718 452 662" stroke="#fff" stroke-width="14" stroke-linecap="round" opacity=".16"/>
</svg>