<svg xmlns="http://www.w3.org/2000/svg" viewBox="0 0 512 768" role="img" aria-label="交响泥蟾 unique portrait">
  <defs>
    <linearGradient id="bg868" x1="0" y1="0" x2="1" y2="1"><stop offset="0" stop-color="#fde68a"/><stop offset=".55" stop-color="#ec4899"/><stop offset="1" stop-color="#0a3d7a"/></linearGradient>
    <radialGradient id="body868" cx=".35" cy=".24" r=".78"><stop offset="0" stop-color="#fff" stop-opacity=".88"/><stop offset=".18" stop-color="#fde68a"/><stop offset=".68" stop-color="#ec4899"/><stop offset="1" stop-color="#0a3d7a"/></radialGradient>
    <filter id="shadow868" x="-30%" y="-30%" width="160%" height="160%"><feDropShadow dx="0" dy="10" stdDeviation="9" flood-color="#0a3d7a" flood-opacity=".36"/></filter>
  </defs>
  <rect width="512" height="768" rx="48" fill="url(#bg868)"/>
  <rect x="24" y="24" width="464" height="720" rx="40" fill="#fff" opacity=".08"/>
  <g opacity=".46"><circle cx="347" cy="546" r="4.2" fill="#fff" opacity="0.31"/><circle cx="116" cy="517" r="4.8" fill="#fff" opacity="0.42"/><circle cx="126" cy="348" r="2.0" fill="#fff" opacity="0.24"/><circle cx="187" cy="307" r="4.5" fill="#fff" opacity="0.52"/><circle cx="122" cy="358" r="2.4" fill="#fff" opacity="0.39"/><circle cx="58" cy="282" r="1.3" fill="#fff" opacity="0.41"/><circle cx="230" cy="537" r="2.9" fill="#fff" opacity="0.48"/><circle cx="448" cy="526" r="4.8" fill="#fff" opacity="0.40"/><circle cx="185" cy="223" r="2.6" fill="#fff" opacity="0.35"/><circle cx="420" cy="542" r="3.3" fill="#fff" opacity="0.64"/><circle cx="65" cy="331" r="4.8" fill="#fff" opacity="0.63"/></g>
  <path d="M0 596 C80 558 128 616 202 584 C281 550 332 618 418 582 C464 563 492 570 512 586 V768 H0Z" fill="#0a3d7a" opacity=".22"/>
  <ellipse cx="256" cy="664" rx="154" ry="36" fill="#0a3d7a" opacity=".3"/>
  <g transform="translate(0 84)"><path d="M156 354 C66 314 56 218 150 238 C126 274 138 319 190 338 Z" fill="#2f80ed" opacity=".58"/><path d="M356 354 C446 314 456 218 362 238 C386 274 374 319 322 338 Z" fill="#2f80ed" opacity=".58"/><path d="M151 500 C116 338 160 190 256 170 C352 190 396 338 361 500 C320 466 291 532 256 490 C221 532 192 466 151 500Z" fill="url(#body868)" filter="url(#shadow868)"/>
    <circle cx="208" cy="330" r="17" fill="#101827"/><circle cx="304" cy="330" r="17" fill="#101827"/>
    <circle cx="202" cy="324" r="5" fill="#fff" opacity=".75"/><circle cx="298" cy="324" r="5" fill="#fff" opacity=".75"/>
    <path d="M206 410 Q256 442 306 410" stroke="#0a3d7a" stroke-width="12" fill="none" stroke-linecap="round" opacity=".72"/>
    <path d="M188 560 C228 600 288 600 326 560" stroke="#fff" stroke-width="12" stroke-linecap="round" opacity=".18" fill="none"/>
  </g>
  <path d="M72 128 C168 68 334 66 440 128" stroke="#fff" stroke-width="16" stroke-linecap="round" opacity=".16"/>
  <path d="M60 678 C164 722 348 718 452 662" stroke="#fff" stroke-width="14" stroke-linecap="round" opacity=".16"/>
</svg>