<svg xmlns="http://www.w3.org/2000/svg" viewBox="0 0 512 768" role="img" aria-label="暗夜豹 unique portrait">
  <defs>
    <linearGradient id="bg869" x1="0" y1="0" x2="1" y2="1"><stop offset="0" stop-color="#8a8f98"/><stop offset=".55" stop-color="#30343f"/><stop offset="1" stop-color="#312e81"/></linearGradient>
    <radialGradient id="body869" cx=".35" cy=".24" r=".78"><stop offset="0" stop-color="#fff" stop-opacity=".88"/><stop offset=".18" stop-color="#8a8f98"/><stop offset=".68" stop-color="#30343f"/><stop offset="1" stop-color="#312e81"/></radialGradient>
    <filter id="shadow869" x="-30%" y="-30%" width="160%" height="160%"><feDropShadow dx="0" dy="10" stdDeviation="9" flood-color="#312e81" flood-opacity=".36"/></filter>
  </defs>
  <rect width="512" height="768" rx="48" fill="url(#bg869)"/>
  <rect x="24" y="24" width="464" height="720" rx="40" fill="#fff" opacity=".08"/>
  <g opacity=".46"><circle cx="375" cy="194" r="1.3" fill="#fff" opacity="0.53"/><circle cx="95" cy="106" r="4.3" fill="#fff" opacity="0.34"/><circle cx="403" cy="198" r="1.9" fill="#fff" opacity="0.49"/><circle cx="67" cy="183" r="3.2" fill="#fff" opacity="0.55"/><circle cx="267" cy="125" r="2.3" fill="#fff" opacity="0.50"/><circle cx="242" cy="230" r="3.0" fill="#fff" opacity="0.45"/><circle cx="436" cy="390" r="1.4" fill="#fff" opacity="0.48"/><circle cx="299" cy="289" r="4.0" fill="#fff" opacity="0.28"/><circle cx="144" cy="450" r="3.7" fill="#fff" opacity="0.59"/><circle cx="125" cy="347" r="1.8" fill="#fff" opacity="0.48"/><circle cx="316" cy="94" r="3.7" fill="#fff" opacity="0.26"/><circle cx="431" cy="315" r="4.3" fill="#fff" opacity="0.41"/><circle cx="296" cy="281" r="3.1" fill="#fff" opacity="0.24"/><circle cx="404" cy="85" r="5.4" fill="#fff" opacity="0.49"/><circle cx="220" cy="364" r="1.9" fill="#fff" opacity="0.34"/><circle cx="152" cy="93" r="2.6" fill="#fff" opacity="0.46"/><circle cx="61" cy="144" r="2.6" fill="#fff" opacity="0.61"/><circle cx="83" cy="275" r="2.4" fill="#fff" opacity="0.42"/><circle cx="299" cy="471" r="2.2" fill="#fff" opacity="0.47"/><circle cx="58" cy="181" r="3.7" fill="#fff" opacity="0.58"/><circle cx="389" cy="619" r="4.8" fill="#fff" opacity="0.39"/></g>
  <path d="M0 596 C80 558 128 616 202 584 C281 550 332 618 418 582 C464 563 492 570 512 586 V768 H0Z" fill="#312e81" opacity=".22"/>
  <ellipse cx="256" cy="664" rx="154" ry="36" fill="#312e81" opacity=".3"/>
  <g transform="translate(0 84)"><path d="M151 500 C116 338 160 190 256 170 C352 190 396 338 361 500 C320 466 291 532 256 490 C221 532 192 466 151 500Z" fill="url(#body869)" filter="url(#shadow869)"/>
    <circle cx="216" cy="335" r="17" fill="#101827"/><circle cx="296" cy="335" r="17" fill="#101827"/>
    <circle cx="210" cy="329" r="5" fill="#fff" opacity=".75"/><circle cx="290" cy="329" r="5" fill="#fff" opacity=".75"/>
    <path d="M206 410 Q256 442 306 410" stroke="#312e81" stroke-width="12" fill="none" stroke-linecap="round" opacity=".72"/>
    <path d="M188 560 C228 600 288 600 326 560" stroke="#fff" stroke-width="12" stroke-linecap="round" opacity=".18" fill="none"/>
  </g>
  <path d="M72 128 C168 68 334 66 440 128" stroke="#fff" stroke-width="16" stroke-linecap="round" opacity=".16"/>
  <path d="M60 678 C164 722 348 718 452 662" stroke="#fff" stroke-width="14" stroke-linecap="round" opacity=".16"/>
</svg>