<svg xmlns="http://www.w3.org/2000/svg" viewBox="0 0 512 768" role="img" aria-label="极昼鸾凤 unique portrait">
  <defs>
    <linearGradient id="bg870" x1="0" y1="0" x2="1" y2="1"><stop offset="0" stop-color="#fff7bf"/><stop offset=".55" stop-color="#f7d154"/><stop offset="1" stop-color="#312e81"/></linearGradient>
    <radialGradient id="body870" cx=".35" cy=".24" r=".78"><stop offset="0" stop-color="#fff" stop-opacity=".88"/><stop offset=".18" stop-color="#fff7bf"/><stop offset=".68" stop-color="#f7d154"/><stop offset="1" stop-color="#312e81"/></radialGradient>
    <filter id="shadow870" x="-30%" y="-30%" width="160%" height="160%"><feDropShadow dx="0" dy="10" stdDeviation="9" flood-color="#312e81" flood-opacity=".36"/></filter>
  </defs>
  <rect width="512" height="768" rx="48" fill="url(#bg870)"/>
  <rect x="24" y="24" width="464" height="720" rx="40" fill="#fff" opacity=".08"/>
  <g opacity=".46"><circle cx="185" cy="369" r="2.6" fill="#fff" opacity="0.33"/><circle cx="271" cy="236" r="2.9" fill="#fff" opacity="0.24"/><circle cx="230" cy="100" r="2.7" fill="#fff" opacity="0.27"/><circle cx="303" cy="471" r="2.0" fill="#fff" opacity="0.31"/><circle cx="196" cy="200" r="2.1" fill="#fff" opacity="0.39"/><circle cx="392" cy="557" r="4.2" fill="#fff" opacity="0.53"/><circle cx="214" cy="585" r="2.5" fill="#fff" opacity="0.32"/><circle cx="223" cy="504" r="2.3" fill="#fff" opacity="0.61"/><circle cx="125" cy="249" r="2.5" fill="#fff" opacity="0.57"/><circle cx="221" cy="76" r="3.5" fill="#fff" opacity="0.27"/><circle cx="142" cy="249" r="4.8" fill="#fff" opacity="0.26"/><circle cx="55" cy="478" r="5.0" fill="#fff" opacity="0.46"/><circle cx="54" cy="114" r="1.8" fill="#fff" opacity="0.32"/><circle cx="128" cy="191" r="4.9" fill="#fff" opacity="0.39"/><circle cx="389" cy="608" r="1.5" fill="#fff" opacity="0.33"/><circle cx="145" cy="516" r="1.7" fill="#fff" opacity="0.52"/></g>
  <path d="M0 596 C80 558 128 616 202 584 C281 550 332 618 418 582 C464 563 492 570 512 586 V768 H0Z" fill="#312e81" opacity=".22"/>
  <ellipse cx="256" cy="664" rx="154" ry="36" fill="#312e81" opacity=".3"/>
  <g transform="translate(0 84)"><path d="M178 196 L133 114 L221 170 Z" fill="#8b5cf6" opacity=".8"/><path d="M334 196 L379 114 L291 170 Z" fill="#8b5cf6" opacity=".8"/><path d="M151 500 C116 338 160 190 256 170 C352 190 396 338 361 500 C320 466 291 532 256 490 C221 532 192 466 151 500Z" fill="url(#body870)" filter="url(#shadow870)"/>
    <circle cx="212" cy="339" r="17" fill="#312e81"/><circle cx="300" cy="339" r="17" fill="#312e81"/>
    <circle cx="206" cy="333" r="5" fill="#fff" opacity=".75"/><circle cx="294" cy="333" r="5" fill="#fff" opacity=".75"/>
    <path d="M206 410 Q256 442 306 410" stroke="#312e81" stroke-width="12" fill="none" stroke-linecap="round" opacity=".72"/>
    <path d="M188 560 C228 600 288 600 326 560" stroke="#fff" stroke-width="12" stroke-linecap="round" opacity=".18" fill="none"/>
  </g>
  <path d="M72 128 C168 68 334 66 440 128" stroke="#fff" stroke-width="16" stroke-linecap="round" opacity=".16"/>
  <path d="M60 678 C164 722 348 718 452 662" stroke="#fff" stroke-width="14" stroke-linecap="round" opacity=".16"/>
</svg>