<svg xmlns="http://www.w3.org/2000/svg" viewBox="0 0 512 768" role="img" aria-label="霜月灵猫 unique portrait">
  <defs>
    <linearGradient id="bg871" x1="0" y1="0" x2="1" y2="1"><stop offset="0" stop-color="#e8fbff"/><stop offset=".55" stop-color="#7bdff2"/><stop offset="1" stop-color="#8a2f68"/></linearGradient>
    <radialGradient id="body871" cx=".35" cy=".24" r=".78"><stop offset="0" stop-color="#fff" stop-opacity=".88"/><stop offset=".18" stop-color="#e8fbff"/><stop offset=".68" stop-color="#7bdff2"/><stop offset="1" stop-color="#8a2f68"/></radialGradient>
    <filter id="shadow871" x="-30%" y="-30%" width="160%" height="160%"><feDropShadow dx="0" dy="10" stdDeviation="9" flood-color="#8a2f68" flood-opacity=".36"/></filter>
  </defs>
  <rect width="512" height="768" rx="48" fill="url(#bg871)"/>
  <rect x="24" y="24" width="464" height="720" rx="40" fill="#fff" opacity=".08"/>
  <g opacity=".46"><circle cx="141" cy="347" r="1.8" fill="#fff" opacity="0.52"/><circle cx="401" cy="458" r="3.9" fill="#fff" opacity="0.33"/><circle cx="158" cy="378" r="2.0" fill="#fff" opacity="0.27"/><circle cx="142" cy="98" r="5.2" fill="#fff" opacity="0.51"/><circle cx="179" cy="238" r="2.7" fill="#fff" opacity="0.63"/><circle cx="324" cy="330" r="2.2" fill="#fff" opacity="0.27"/><circle cx="58" cy="109" r="5.1" fill="#fff" opacity="0.41"/><circle cx="198" cy="591" r="5.3" fill="#fff" opacity="0.28"/><circle cx="232" cy="259" r="2.5" fill="#fff" opacity="0.62"/><circle cx="86" cy="588" r="3.0" fill="#fff" opacity="0.46"/><circle cx="449" cy="420" r="3.7" fill="#fff" opacity="0.31"/><circle cx="299" cy="214" r="2.3" fill="#fff" opacity="0.37"/><circle cx="358" cy="533" r="5.3" fill="#fff" opacity="0.35"/><circle cx="185" cy="134" r="4.6" fill="#fff" opacity="0.40"/><circle cx="279" cy="156" r="4.6" fill="#fff" opacity="0.42"/><circle cx="218" cy="268" r="2.2" fill="#fff" opacity="0.48"/><circle cx="322" cy="480" r="3.3" fill="#fff" opacity="0.50"/><circle cx="180" cy="219" r="3.9" fill="#fff" opacity="0.59"/><circle cx="233" cy="253" r="1.4" fill="#fff" opacity="0.37"/></g>
  <path d="M0 596 C80 558 128 616 202 584 C281 550 332 618 418 582 C464 563 492 570 512 586 V768 H0Z" fill="#8a2f68" opacity=".22"/>
  <ellipse cx="256" cy="664" rx="154" ry="36" fill="#8a2f68" opacity=".3"/>
  <g transform="translate(0 84)"><path d="M316 492 C426 508 425 604 334 594 C391 562 368 528 302 536" fill="none" stroke="#ff8bd6" stroke-width="34" stroke-linecap="round" opacity=".72"/><path d="M178 196 L133 114 L221 170 Z" fill="#ff8bd6" opacity=".8"/><path d="M334 196 L379 114 L291 170 Z" fill="#ff8bd6" opacity=".8"/><path d="M151 500 C116 338 160 190 256 170 C352 190 396 338 361 500 C320 466 291 532 256 490 C221 532 192 466 151 500Z" fill="url(#body871)" filter="url(#shadow871)"/>
    <circle cx="216" cy="320" r="17" fill="#101827"/><circle cx="296" cy="320" r="17" fill="#101827"/>
    <circle cx="210" cy="314" r="5" fill="#fff" opacity=".75"/><circle cx="290" cy="314" r="5" fill="#fff" opacity=".75"/>
    <path d="M206 410 Q256 442 306 410" stroke="#8a2f68" stroke-width="12" fill="none" stroke-linecap="round" opacity=".72"/>
    <path d="M188 560 C228 600 288 600 326 560" stroke="#fff" stroke-width="12" stroke-linecap="round" opacity=".18" fill="none"/>
  </g>
  <path d="M72 128 C168 68 334 66 440 128" stroke="#fff" stroke-width="16" stroke-linecap="round" opacity=".16"/>
  <path d="M60 678 C164 722 348 718 452 662" stroke="#fff" stroke-width="14" stroke-linecap="round" opacity=".16"/>
</svg>