<svg xmlns="http://www.w3.org/2000/svg" viewBox="0 0 512 768" role="img" aria-label="冰铁战猫 unique portrait">
  <defs>
    <linearGradient id="bg872" x1="0" y1="0" x2="1" y2="1"><stop offset="0" stop-color="#e8fbff"/><stop offset=".55" stop-color="#7bdff2"/><stop offset="1" stop-color="#8a2f68"/></linearGradient>
    <radialGradient id="body872" cx=".35" cy=".24" r=".78"><stop offset="0" stop-color="#fff" stop-opacity=".88"/><stop offset=".18" stop-color="#e8fbff"/><stop offset=".68" stop-color="#7bdff2"/><stop offset="1" stop-color="#8a2f68"/></radialGradient>
    <filter id="shadow872" x="-30%" y="-30%" width="160%" height="160%"><feDropShadow dx="0" dy="10" stdDeviation="9" flood-color="#8a2f68" flood-opacity=".36"/></filter>
  </defs>
  <rect width="512" height="768" rx="48" fill="url(#bg872)"/>
  <rect x="24" y="24" width="464" height="720" rx="40" fill="#fff" opacity=".08"/>
  <g opacity=".46"><circle cx="302" cy="71" r="2.3" fill="#fff" opacity="0.46"/><circle cx="236" cy="552" r="4.8" fill="#fff" opacity="0.28"/><circle cx="375" cy="68" r="2.1" fill="#fff" opacity="0.44"/><circle cx="266" cy="509" r="1.5" fill="#fff" opacity="0.38"/><circle cx="236" cy="82" r="3.9" fill="#fff" opacity="0.50"/><circle cx="94" cy="495" r="5.0" fill="#fff" opacity="0.48"/><circle cx="143" cy="220" r="2.8" fill="#fff" opacity="0.22"/><circle cx="99" cy="352" r="4.0" fill="#fff" opacity="0.26"/><circle cx="395" cy="74" r="2.5" fill="#fff" opacity="0.26"/><circle cx="240" cy="436" r="2.9" fill="#fff" opacity="0.46"/><circle cx="79" cy="88" r="3.5" fill="#fff" opacity="0.43"/><circle cx="228" cy="347" r="3.7" fill="#fff" opacity="0.41"/><circle cx="441" cy="579" r="2.9" fill="#fff" opacity="0.50"/><circle cx="464" cy="310" r="2.8" fill="#fff" opacity="0.51"/></g>
  <path d="M0 596 C80 558 128 616 202 584 C281 550 332 618 418 582 C464 563 492 570 512 586 V768 H0Z" fill="#8a2f68" opacity=".22"/>
  <ellipse cx="256" cy="664" rx="154" ry="36" fill="#8a2f68" opacity=".3"/>
  <g transform="translate(0 84)"><path d="M148 520 C118 346 156 196 256 164 C356 196 394 346 364 520 C326 488 292 532 256 496 C220 532 186 488 148 520Z" fill="url(#body872)" filter="url(#shadow872)"/>
    <circle cx="214" cy="317" r="17" fill="#8a2f68"/><circle cx="298" cy="317" r="17" fill="#8a2f68"/>
    <circle cx="208" cy="311" r="5" fill="#fff" opacity=".75"/><circle cx="292" cy="311" r="5" fill="#fff" opacity=".75"/>
    <path d="M214 248 Q256 284 298 248" stroke="#ffd6f3" stroke-width="14" fill="none" stroke-linecap="round" opacity=".74"/>
    <path d="M188 560 C228 600 288 600 326 560" stroke="#fff" stroke-width="12" stroke-linecap="round" opacity=".18" fill="none"/>
  </g>
  <path d="M72 128 C168 68 334 66 440 128" stroke="#fff" stroke-width="16" stroke-linecap="round" opacity=".16"/>
  <path d="M60 678 C164 722 348 718 452 662" stroke="#fff" stroke-width="14" stroke-linecap="round" opacity=".16"/>
</svg>