<svg xmlns="http://www.w3.org/2000/svg" viewBox="0 0 512 768" role="img" aria-label="彩虹蜂鸟 unique portrait">
  <defs>
    <linearGradient id="bg874" x1="0" y1="0" x2="1" y2="1"><stop offset="0" stop-color="#d5efff"/><stop offset=".55" stop-color="#82aaff"/><stop offset="1" stop-color="#b88712"/></linearGradient>
    <radialGradient id="body874" cx=".35" cy=".24" r=".78"><stop offset="0" stop-color="#fff" stop-opacity=".88"/><stop offset=".18" stop-color="#d5efff"/><stop offset=".68" stop-color="#82aaff"/><stop offset="1" stop-color="#b88712"/></radialGradient>
    <filter id="shadow874" x="-30%" y="-30%" width="160%" height="160%"><feDropShadow dx="0" dy="10" stdDeviation="9" flood-color="#b88712" flood-opacity=".36"/></filter>
  </defs>
  <rect width="512" height="768" rx="48" fill="url(#bg874)"/>
  <rect x="24" y="24" width="464" height="720" rx="40" fill="#fff" opacity=".08"/>
  <g opacity=".46"><circle cx="462" cy="412" r="2.5" fill="#fff" opacity="0.31"/><circle cx="365" cy="163" r="1.8" fill="#fff" opacity="0.55"/><circle cx="311" cy="616" r="2.8" fill="#fff" opacity="0.52"/><circle cx="77" cy="56" r="2.2" fill="#fff" opacity="0.51"/><circle cx="298" cy="120" r="2.9" fill="#fff" opacity="0.41"/><circle cx="175" cy="326" r="1.6" fill="#fff" opacity="0.32"/><circle cx="194" cy="281" r="4.8" fill="#fff" opacity="0.64"/><circle cx="48" cy="363" r="3.0" fill="#fff" opacity="0.52"/><circle cx="304" cy="138" r="3.9" fill="#fff" opacity="0.60"/><circle cx="402" cy="207" r="3.6" fill="#fff" opacity="0.29"/><circle cx="223" cy="355" r="1.6" fill="#fff" opacity="0.47"/><circle cx="375" cy="249" r="3.5" fill="#fff" opacity="0.37"/></g>
  <path d="M0 596 C80 558 128 616 202 584 C281 550 332 618 418 582 C464 563 492 570 512 586 V768 H0Z" fill="#b88712" opacity=".22"/>
  <ellipse cx="256" cy="664" rx="154" ry="36" fill="#b88712" opacity=".3"/>
  <g transform="translate(0 84)"><circle cx="256" cy="357" r="128" fill="url(#body874)" filter="url(#shadow874)"/><circle cx="256" cy="357" r="70" fill="#fff7bf" opacity=".26"/>
    <circle cx="210" cy="330" r="17" fill="#b88712"/><circle cx="302" cy="330" r="17" fill="#b88712"/>
    <circle cx="204" cy="324" r="5" fill="#fff" opacity=".75"/><circle cx="296" cy="324" r="5" fill="#fff" opacity=".75"/>
    <path d="M206 410 Q256 442 306 410" stroke="#b88712" stroke-width="12" fill="none" stroke-linecap="round" opacity=".72"/>
    <path d="M188 560 C228 600 288 600 326 560" stroke="#fff" stroke-width="12" stroke-linecap="round" opacity=".18" fill="none"/>
  </g>
  <path d="M72 128 C168 68 334 66 440 128" stroke="#fff" stroke-width="16" stroke-linecap="round" opacity=".16"/>
  <path d="M60 678 C164 722 348 718 452 662" stroke="#fff" stroke-width="14" stroke-linecap="round" opacity=".16"/>
</svg>