<svg xmlns="http://www.w3.org/2000/svg" viewBox="0 0 512 768" role="img" aria-label="珊瑚仙子 unique portrait">
  <defs>
    <linearGradient id="bg876" x1="0" y1="0" x2="1" y2="1"><stop offset="0" stop-color="#9be7ff"/><stop offset=".55" stop-color="#2f80ed"/><stop offset="1" stop-color="#166534"/></linearGradient>
    <radialGradient id="body876" cx=".35" cy=".24" r=".78"><stop offset="0" stop-color="#fff" stop-opacity=".88"/><stop offset=".18" stop-color="#9be7ff"/><stop offset=".68" stop-color="#2f80ed"/><stop offset="1" stop-color="#166534"/></radialGradient>
    <filter id="shadow876" x="-30%" y="-30%" width="160%" height="160%"><feDropShadow dx="0" dy="10" stdDeviation="9" flood-color="#166534" flood-opacity=".36"/></filter>
  </defs>
  <rect width="512" height="768" rx="48" fill="url(#bg876)"/>
  <rect x="24" y="24" width="464" height="720" rx="40" fill="#fff" opacity=".08"/>
  <g opacity=".46"><circle cx="224" cy="321" r="2.4" fill="#fff" opacity="0.25"/><circle cx="45" cy="68" r="2.5" fill="#fff" opacity="0.59"/><circle cx="117" cy="150" r="5.2" fill="#fff" opacity="0.40"/><circle cx="198" cy="629" r="3.2" fill="#fff" opacity="0.31"/><circle cx="245" cy="257" r="5.0" fill="#fff" opacity="0.56"/><circle cx="173" cy="593" r="4.7" fill="#fff" opacity="0.58"/><circle cx="236" cy="250" r="2.6" fill="#fff" opacity="0.25"/><circle cx="469" cy="322" r="3.6" fill="#fff" opacity="0.59"/><circle cx="259" cy="328" r="2.4" fill="#fff" opacity="0.24"/><circle cx="436" cy="595" r="1.7" fill="#fff" opacity="0.54"/></g>
  <path d="M0 596 C80 558 128 616 202 584 C281 550 332 618 418 582 C464 563 492 570 512 586 V768 H0Z" fill="#166534" opacity=".22"/>
  <ellipse cx="256" cy="664" rx="154" ry="36" fill="#166534" opacity=".3"/>
  <g transform="translate(0 84)"><path d="M178 196 L133 114 L221 170 Z" fill="#4ade80" opacity=".8"/><path d="M334 196 L379 114 L291 170 Z" fill="#4ade80" opacity=".8"/><path d="M151 500 C116 338 160 190 256 170 C352 190 396 338 361 500 C320 466 291 532 256 490 C221 532 192 466 151 500Z" fill="url(#body876)" filter="url(#shadow876)"/>
    <circle cx="212" cy="316" r="17" fill="#166534"/><circle cx="300" cy="316" r="17" fill="#166534"/>
    <circle cx="206" cy="310" r="5" fill="#fff" opacity=".75"/><circle cx="294" cy="310" r="5" fill="#fff" opacity=".75"/>
    <path d="M214 248 Q256 284 298 248" stroke="#d9ffe9" stroke-width="14" fill="none" stroke-linecap="round" opacity=".74"/>
    <path d="M188 560 C228 600 288 600 326 560" stroke="#fff" stroke-width="12" stroke-linecap="round" opacity=".18" fill="none"/>
  </g>
  <path d="M72 128 C168 68 334 66 440 128" stroke="#fff" stroke-width="16" stroke-linecap="round" opacity=".16"/>
  <path d="M60 678 C164 722 348 718 452 662" stroke="#fff" stroke-width="14" stroke-linecap="round" opacity=".16"/>
</svg>