<svg xmlns="http://www.w3.org/2000/svg" viewBox="0 0 512 768" role="img" aria-label="雷岩巨人 unique portrait">
  <defs>
    <linearGradient id="bg877" x1="0" y1="0" x2="1" y2="1"><stop offset="0" stop-color="#fff176"/><stop offset=".55" stop-color="#f9c74f"/><stop offset="1" stop-color="#4a3830"/></linearGradient>
    <radialGradient id="body877" cx=".35" cy=".24" r=".78"><stop offset="0" stop-color="#fff" stop-opacity=".88"/><stop offset=".18" stop-color="#fff176"/><stop offset=".68" stop-color="#f9c74f"/><stop offset="1" stop-color="#4a3830"/></radialGradient>
    <filter id="shadow877" x="-30%" y="-30%" width="160%" height="160%"><feDropShadow dx="0" dy="10" stdDeviation="9" flood-color="#4a3830" flood-opacity=".36"/></filter>
  </defs>
  <rect width="512" height="768" rx="48" fill="url(#bg877)"/>
  <rect x="24" y="24" width="464" height="720" rx="40" fill="#fff" opacity=".08"/>
  <g opacity=".46"><circle cx="56" cy="159" r="4.6" fill="#fff" opacity="0.43"/><circle cx="190" cy="352" r="1.2" fill="#fff" opacity="0.58"/><circle cx="402" cy="468" r="3.1" fill="#fff" opacity="0.31"/><circle cx="157" cy="319" r="3.3" fill="#fff" opacity="0.39"/><circle cx="204" cy="405" r="4.4" fill="#fff" opacity="0.55"/><circle cx="325" cy="588" r="3.8" fill="#fff" opacity="0.28"/><circle cx="254" cy="321" r="2.3" fill="#fff" opacity="0.39"/><circle cx="279" cy="253" r="2.6" fill="#fff" opacity="0.29"/><circle cx="274" cy="249" r="5.1" fill="#fff" opacity="0.50"/><circle cx="54" cy="452" r="2.8" fill="#fff" opacity="0.26"/><circle cx="457" cy="583" r="1.7" fill="#fff" opacity="0.27"/><circle cx="362" cy="370" r="2.8" fill="#fff" opacity="0.38"/><circle cx="173" cy="539" r="3.3" fill="#fff" opacity="0.51"/></g>
  <path d="M0 596 C80 558 128 616 202 584 C281 550 332 618 418 582 C464 563 492 570 512 586 V768 H0Z" fill="#4a3830" opacity=".22"/>
  <ellipse cx="256" cy="664" rx="154" ry="36" fill="#4a3830" opacity=".3"/>
  <g transform="translate(0 84)"><path d="M316 492 C426 508 425 604 334 594 C391 562 368 528 302 536" fill="none" stroke="#8d6e63" stroke-width="34" stroke-linecap="round" opacity=".72"/><path d="M178 196 L133 114 L221 170 Z" fill="#8d6e63" opacity=".8"/><path d="M334 196 L379 114 L291 170 Z" fill="#8d6e63" opacity=".8"/><path d="M151 500 C116 338 160 190 256 170 C352 190 396 338 361 500 C320 466 291 532 256 490 C221 532 192 466 151 500Z" fill="url(#body877)" filter="url(#shadow877)"/>
    <circle cx="216" cy="316" r="17" fill="#101827"/><circle cx="296" cy="316" r="17" fill="#101827"/>
    <circle cx="210" cy="310" r="5" fill="#fff" opacity=".75"/><circle cx="290" cy="310" r="5" fill="#fff" opacity=".75"/>
    <path d="M206 410 Q256 442 306 410" stroke="#4a3830" stroke-width="12" fill="none" stroke-linecap="round" opacity=".72"/>
    <path d="M188 560 C228 600 288 600 326 560" stroke="#fff" stroke-width="12" stroke-linecap="round" opacity=".18" fill="none"/>
  </g>
  <path d="M72 128 C168 68 334 66 440 128" stroke="#fff" stroke-width="16" stroke-linecap="round" opacity=".16"/>
  <path d="M60 678 C164 722 348 718 452 662" stroke="#fff" stroke-width="14" stroke-linecap="round" opacity=".16"/>
</svg>