<svg xmlns="http://www.w3.org/2000/svg" viewBox="0 0 512 768" role="img" aria-label="冥界花 unique portrait">
  <defs>
    <linearGradient id="bg878" x1="0" y1="0" x2="1" y2="1"><stop offset="0" stop-color="#c6b6ff"/><stop offset=".55" stop-color="#5b4b8a"/><stop offset="1" stop-color="#145a32"/></linearGradient>
    <radialGradient id="body878" cx=".35" cy=".24" r=".78"><stop offset="0" stop-color="#fff" stop-opacity=".88"/><stop offset=".18" stop-color="#c6b6ff"/><stop offset=".68" stop-color="#5b4b8a"/><stop offset="1" stop-color="#145a32"/></radialGradient>
    <filter id="shadow878" x="-30%" y="-30%" width="160%" height="160%"><feDropShadow dx="0" dy="10" stdDeviation="9" flood-color="#145a32" flood-opacity=".36"/></filter>
  </defs>
  <rect width="512" height="768" rx="48" fill="url(#bg878)"/>
  <rect x="24" y="24" width="464" height="720" rx="40" fill="#fff" opacity=".08"/>
  <g opacity=".46"><circle cx="271" cy="374" r="5.3" fill="#fff" opacity="0.41"/><circle cx="172" cy="486" r="4.7" fill="#fff" opacity="0.24"/><circle cx="228" cy="153" r="3.0" fill="#fff" opacity="0.23"/><circle cx="437" cy="156" r="2.7" fill="#fff" opacity="0.36"/><circle cx="394" cy="297" r="4.7" fill="#fff" opacity="0.25"/><circle cx="214" cy="63" r="3.4" fill="#fff" opacity="0.32"/><circle cx="300" cy="192" r="3.3" fill="#fff" opacity="0.28"/><circle cx="75" cy="426" r="1.3" fill="#fff" opacity="0.34"/><circle cx="339" cy="223" r="5.0" fill="#fff" opacity="0.35"/><circle cx="397" cy="59" r="2.1" fill="#fff" opacity="0.39"/><circle cx="377" cy="116" r="4.7" fill="#fff" opacity="0.62"/><circle cx="281" cy="556" r="4.0" fill="#fff" opacity="0.61"/><circle cx="78" cy="284" r="2.7" fill="#fff" opacity="0.58"/></g>
  <path d="M0 596 C80 558 128 616 202 584 C281 550 332 618 418 582 C464 563 492 570 512 586 V768 H0Z" fill="#145a32" opacity=".22"/>
  <ellipse cx="256" cy="664" rx="154" ry="36" fill="#145a32" opacity=".3"/>
  <g transform="translate(0 84)"><path d="M316 492 C426 508 425 604 334 594 C391 562 368 528 302 536" fill="none" stroke="#36b56a" stroke-width="34" stroke-linecap="round" opacity=".72"/><path d="M178 196 L133 114 L221 170 Z" fill="#36b56a" opacity=".8"/><path d="M334 196 L379 114 L291 170 Z" fill="#36b56a" opacity=".8"/><path d="M151 500 C116 338 160 190 256 170 C352 190 396 338 361 500 C320 466 291 532 256 490 C221 532 192 466 151 500Z" fill="url(#body878)" filter="url(#shadow878)"/>
    <circle cx="214" cy="338" r="17" fill="#101827"/><circle cx="298" cy="338" r="17" fill="#101827"/>
    <circle cx="208" cy="332" r="5" fill="#fff" opacity=".75"/><circle cx="292" cy="332" r="5" fill="#fff" opacity=".75"/>
    <path d="M206 410 Q256 442 306 410" stroke="#145a32" stroke-width="12" fill="none" stroke-linecap="round" opacity=".72"/>
    <path d="M188 560 C228 600 288 600 326 560" stroke="#fff" stroke-width="12" stroke-linecap="round" opacity=".18" fill="none"/>
  </g>
  <path d="M72 128 C168 68 334 66 440 128" stroke="#fff" stroke-width="16" stroke-linecap="round" opacity=".16"/>
  <path d="M60 678 C164 722 348 718 452 662" stroke="#fff" stroke-width="14" stroke-linecap="round" opacity=".16"/>
</svg>