<svg xmlns="http://www.w3.org/2000/svg" viewBox="0 0 512 768" role="img" aria-label="风暴鹰王 unique portrait">
  <defs>
    <linearGradient id="bg879" x1="0" y1="0" x2="1" y2="1"><stop offset="0" stop-color="#dffcf7"/><stop offset=".55" stop-color="#5dd6c8"/><stop offset="1" stop-color="#a76d00"/></linearGradient>
    <radialGradient id="body879" cx=".35" cy=".24" r=".78"><stop offset="0" stop-color="#fff" stop-opacity=".88"/><stop offset=".18" stop-color="#dffcf7"/><stop offset=".68" stop-color="#5dd6c8"/><stop offset="1" stop-color="#a76d00"/></radialGradient>
    <filter id="shadow879" x="-30%" y="-30%" width="160%" height="160%"><feDropShadow dx="0" dy="10" stdDeviation="9" flood-color="#a76d00" flood-opacity=".36"/></filter>
  </defs>
  <rect width="512" height="768" rx="48" fill="url(#bg879)"/>
  <rect x="24" y="24" width="464" height="720" rx="40" fill="#fff" opacity=".08"/>
  <g opacity=".46"><circle cx="418" cy="623" r="2.1" fill="#fff" opacity="0.30"/><circle cx="447" cy="549" r="4.3" fill="#fff" opacity="0.32"/><circle cx="334" cy="241" r="1.5" fill="#fff" opacity="0.33"/><circle cx="399" cy="203" r="1.3" fill="#fff" opacity="0.26"/><circle cx="320" cy="300" r="2.0" fill="#fff" opacity="0.42"/><circle cx="297" cy="592" r="2.4" fill="#fff" opacity="0.27"/><circle cx="232" cy="355" r="4.2" fill="#fff" opacity="0.55"/><circle cx="447" cy="140" r="2.3" fill="#fff" opacity="0.50"/><circle cx="178" cy="74" r="2.5" fill="#fff" opacity="0.49"/><circle cx="358" cy="303" r="3.8" fill="#fff" opacity="0.23"/><circle cx="358" cy="597" r="4.5" fill="#fff" opacity="0.61"/><circle cx="464" cy="467" r="2.5" fill="#fff" opacity="0.59"/><circle cx="342" cy="401" r="1.7" fill="#fff" opacity="0.53"/><circle cx="161" cy="343" r="4.1" fill="#fff" opacity="0.25"/><circle cx="100" cy="619" r="1.7" fill="#fff" opacity="0.24"/><circle cx="374" cy="435" r="5.0" fill="#fff" opacity="0.41"/><circle cx="337" cy="351" r="1.5" fill="#fff" opacity="0.52"/><circle cx="193" cy="252" r="2.9" fill="#fff" opacity="0.54"/><circle cx="166" cy="348" r="5.1" fill="#fff" opacity="0.47"/></g>
  <path d="M0 596 C80 558 128 616 202 584 C281 550 332 618 418 582 C464 563 492 570 512 586 V768 H0Z" fill="#a76d00" opacity=".22"/>
  <ellipse cx="256" cy="664" rx="154" ry="36" fill="#a76d00" opacity=".3"/>
  <g transform="translate(0 84)"><path d="M316 492 C426 508 425 604 334 594 C391 562 368 528 302 536" fill="none" stroke="#f9c74f" stroke-width="34" stroke-linecap="round" opacity=".72"/><path d="M178 196 L133 114 L221 170 Z" fill="#f9c74f" opacity=".8"/><path d="M334 196 L379 114 L291 170 Z" fill="#f9c74f" opacity=".8"/><path d="M151 500 C116 338 160 190 256 170 C352 190 396 338 361 500 C320 466 291 532 256 490 C221 532 192 466 151 500Z" fill="url(#body879)" filter="url(#shadow879)"/>
    <circle cx="211" cy="334" r="17" fill="#101827"/><circle cx="301" cy="334" r="17" fill="#101827"/>
    <circle cx="205" cy="328" r="5" fill="#fff" opacity=".75"/><circle cx="295" cy="328" r="5" fill="#fff" opacity=".75"/>
    <path d="M206 410 Q256 442 306 410" stroke="#a76d00" stroke-width="12" fill="none" stroke-linecap="round" opacity=".72"/>
    <path d="M188 560 C228 600 288 600 326 560" stroke="#fff" stroke-width="12" stroke-linecap="round" opacity=".18" fill="none"/>
  </g>
  <path d="M72 128 C168 68 334 66 440 128" stroke="#fff" stroke-width="16" stroke-linecap="round" opacity=".16"/>
  <path d="M60 678 C164 722 348 718 452 662" stroke="#fff" stroke-width="14" stroke-linecap="round" opacity=".16"/>
</svg>