<svg xmlns="http://www.w3.org/2000/svg" viewBox="0 0 512 768" role="img" aria-label="蒸汽机械兽 unique portrait">
  <defs>
    <linearGradient id="bg881" x1="0" y1="0" x2="1" y2="1"><stop offset="0" stop-color="#ffd166"/><stop offset=".55" stop-color="#ff6b35"/><stop offset="1" stop-color="#344450"/></linearGradient>
    <radialGradient id="body881" cx=".35" cy=".24" r=".78"><stop offset="0" stop-color="#fff" stop-opacity=".88"/><stop offset=".18" stop-color="#ffd166"/><stop offset=".68" stop-color="#ff6b35"/><stop offset="1" stop-color="#344450"/></radialGradient>
    <filter id="shadow881" x="-30%" y="-30%" width="160%" height="160%"><feDropShadow dx="0" dy="10" stdDeviation="9" flood-color="#344450" flood-opacity=".36"/></filter>
  </defs>
  <rect width="512" height="768" rx="48" fill="url(#bg881)"/>
  <rect x="24" y="24" width="464" height="720" rx="40" fill="#fff" opacity=".08"/>
  <g opacity=".46"><circle cx="387" cy="397" r="5.3" fill="#fff" opacity="0.41"/><circle cx="209" cy="380" r="2.9" fill="#fff" opacity="0.25"/><circle cx="337" cy="425" r="5.3" fill="#fff" opacity="0.55"/><circle cx="65" cy="512" r="4.9" fill="#fff" opacity="0.34"/><circle cx="440" cy="472" r="3.1" fill="#fff" opacity="0.61"/><circle cx="452" cy="295" r="2.3" fill="#fff" opacity="0.49"/><circle cx="336" cy="214" r="1.3" fill="#fff" opacity="0.57"/><circle cx="250" cy="529" r="4.8" fill="#fff" opacity="0.39"/><circle cx="112" cy="401" r="2.3" fill="#fff" opacity="0.54"/><circle cx="328" cy="370" r="2.0" fill="#fff" opacity="0.37"/><circle cx="59" cy="163" r="4.6" fill="#fff" opacity="0.63"/><circle cx="90" cy="356" r="3.2" fill="#fff" opacity="0.26"/><circle cx="219" cy="547" r="1.9" fill="#fff" opacity="0.36"/><circle cx="211" cy="398" r="2.0" fill="#fff" opacity="0.62"/><circle cx="89" cy="610" r="4.8" fill="#fff" opacity="0.47"/></g>
  <path d="M0 596 C80 558 128 616 202 584 C281 550 332 618 418 582 C464 563 492 570 512 586 V768 H0Z" fill="#344450" opacity=".22"/>
  <ellipse cx="256" cy="664" rx="154" ry="36" fill="#344450" opacity=".3"/>
  <g transform="translate(0 84)"><path d="M151 500 C116 338 160 190 256 170 C352 190 396 338 361 500 C320 466 291 532 256 490 C221 532 192 466 151 500Z" fill="url(#body881)" filter="url(#shadow881)"/>
    <circle cx="210" cy="320" r="17" fill="#101827"/><circle cx="302" cy="320" r="17" fill="#101827"/>
    <circle cx="204" cy="314" r="5" fill="#fff" opacity=".75"/><circle cx="296" cy="314" r="5" fill="#fff" opacity=".75"/>
    <path d="M206 410 Q256 442 306 410" stroke="#344450" stroke-width="12" fill="none" stroke-linecap="round" opacity=".72"/>
    <path d="M188 560 C228 600 288 600 326 560" stroke="#fff" stroke-width="12" stroke-linecap="round" opacity=".18" fill="none"/>
  </g>
  <path d="M72 128 C168 68 334 66 440 128" stroke="#fff" stroke-width="16" stroke-linecap="round" opacity=".16"/>
  <path d="M60 678 C164 722 348 718 452 662" stroke="#fff" stroke-width="14" stroke-linecap="round" opacity=".16"/>
</svg>