<svg xmlns="http://www.w3.org/2000/svg" viewBox="0 0 512 768" role="img" aria-label="量子灵鸟 unique portrait">
  <defs>
    <linearGradient id="bg882" x1="0" y1="0" x2="1" y2="1"><stop offset="0" stop-color="#ffd1dc"/><stop offset=".55" stop-color="#ff5fa2"/><stop offset="1" stop-color="#1e102f"/></linearGradient>
    <radialGradient id="body882" cx=".35" cy=".24" r=".78"><stop offset="0" stop-color="#fff" stop-opacity=".88"/><stop offset=".18" stop-color="#ffd1dc"/><stop offset=".68" stop-color="#ff5fa2"/><stop offset="1" stop-color="#1e102f"/></radialGradient>
    <filter id="shadow882" x="-30%" y="-30%" width="160%" height="160%"><feDropShadow dx="0" dy="10" stdDeviation="9" flood-color="#1e102f" flood-opacity=".36"/></filter>
  </defs>
  <rect width="512" height="768" rx="48" fill="url(#bg882)"/>
  <rect x="24" y="24" width="464" height="720" rx="40" fill="#fff" opacity=".08"/>
  <g opacity=".46"><circle cx="340" cy="455" r="1.8" fill="#fff" opacity="0.41"/><circle cx="329" cy="173" r="5.1" fill="#fff" opacity="0.52"/><circle cx="373" cy="109" r="1.8" fill="#fff" opacity="0.51"/><circle cx="292" cy="413" r="3.5" fill="#fff" opacity="0.60"/><circle cx="468" cy="141" r="2.0" fill="#fff" opacity="0.38"/><circle cx="392" cy="57" r="1.7" fill="#fff" opacity="0.48"/><circle cx="262" cy="421" r="4.2" fill="#fff" opacity="0.44"/><circle cx="55" cy="261" r="4.7" fill="#fff" opacity="0.32"/><circle cx="279" cy="423" r="4.3" fill="#fff" opacity="0.32"/><circle cx="429" cy="450" r="4.4" fill="#fff" opacity="0.57"/><circle cx="121" cy="290" r="3.8" fill="#fff" opacity="0.39"/><circle cx="57" cy="107" r="1.2" fill="#fff" opacity="0.48"/><circle cx="364" cy="453" r="3.2" fill="#fff" opacity="0.49"/><circle cx="170" cy="325" r="2.2" fill="#fff" opacity="0.50"/><circle cx="197" cy="67" r="3.7" fill="#fff" opacity="0.42"/><circle cx="87" cy="282" r="5.2" fill="#fff" opacity="0.34"/><circle cx="409" cy="297" r="3.3" fill="#fff" opacity="0.39"/><circle cx="139" cy="322" r="2.4" fill="#fff" opacity="0.59"/><circle cx="284" cy="144" r="1.8" fill="#fff" opacity="0.26"/></g>
  <path d="M0 596 C80 558 128 616 202 584 C281 550 332 618 418 582 C464 563 492 570 512 586 V768 H0Z" fill="#1e102f" opacity=".22"/>
  <ellipse cx="256" cy="664" rx="154" ry="36" fill="#1e102f" opacity=".3"/>
  <g transform="translate(0 84)"><path d="M316 492 C426 508 425 604 334 594 C391 562 368 528 302 536" fill="none" stroke="#7e22ce" stroke-width="34" stroke-linecap="round" opacity=".72"/><path d="M178 196 L133 114 L221 170 Z" fill="#7e22ce" opacity=".8"/><path d="M334 196 L379 114 L291 170 Z" fill="#7e22ce" opacity=".8"/><path d="M151 500 C116 338 160 190 256 170 C352 190 396 338 361 500 C320 466 291 532 256 490 C221 532 192 466 151 500Z" fill="url(#body882)" filter="url(#shadow882)"/>
    <circle cx="213" cy="326" r="17" fill="#101827"/><circle cx="299" cy="326" r="17" fill="#101827"/>
    <circle cx="207" cy="320" r="5" fill="#fff" opacity=".75"/><circle cx="293" cy="320" r="5" fill="#fff" opacity=".75"/>
    <path d="M206 410 Q256 442 306 410" stroke="#1e102f" stroke-width="12" fill="none" stroke-linecap="round" opacity=".72"/>
    <path d="M188 560 C228 600 288 600 326 560" stroke="#fff" stroke-width="12" stroke-linecap="round" opacity=".18" fill="none"/>
  </g>
  <path d="M72 128 C168 68 334 66 440 128" stroke="#fff" stroke-width="16" stroke-linecap="round" opacity=".16"/>
  <path d="M60 678 C164 722 348 718 452 662" stroke="#fff" stroke-width="14" stroke-linecap="round" opacity=".16"/>
</svg>