<svg xmlns="http://www.w3.org/2000/svg" viewBox="0 0 512 768" role="img" aria-label="荆棘玫瑰龙 unique portrait">
  <defs>
    <linearGradient id="bg883" x1="0" y1="0" x2="1" y2="1"><stop offset="0" stop-color="#c4b5fd"/><stop offset=".55" stop-color="#6d5dfc"/><stop offset="1" stop-color="#145a32"/></linearGradient>
    <radialGradient id="body883" cx=".35" cy=".24" r=".78"><stop offset="0" stop-color="#fff" stop-opacity=".88"/><stop offset=".18" stop-color="#c4b5fd"/><stop offset=".68" stop-color="#6d5dfc"/><stop offset="1" stop-color="#145a32"/></radialGradient>
    <filter id="shadow883" x="-30%" y="-30%" width="160%" height="160%"><feDropShadow dx="0" dy="10" stdDeviation="9" flood-color="#145a32" flood-opacity=".36"/></filter>
  </defs>
  <rect width="512" height="768" rx="48" fill="url(#bg883)"/>
  <rect x="24" y="24" width="464" height="720" rx="40" fill="#fff" opacity=".08"/>
  <g opacity=".46"><circle cx="371" cy="60" r="2.3" fill="#fff" opacity="0.23"/><circle cx="145" cy="395" r="5.3" fill="#fff" opacity="0.34"/><circle cx="361" cy="565" r="4.5" fill="#fff" opacity="0.41"/><circle cx="147" cy="579" r="1.3" fill="#fff" opacity="0.39"/><circle cx="193" cy="386" r="1.3" fill="#fff" opacity="0.29"/><circle cx="64" cy="309" r="2.1" fill="#fff" opacity="0.61"/><circle cx="122" cy="368" r="4.4" fill="#fff" opacity="0.31"/><circle cx="418" cy="60" r="5.0" fill="#fff" opacity="0.35"/><circle cx="252" cy="551" r="4.5" fill="#fff" opacity="0.58"/><circle cx="117" cy="275" r="3.2" fill="#fff" opacity="0.26"/><circle cx="218" cy="432" r="3.1" fill="#fff" opacity="0.48"/><circle cx="352" cy="577" r="5.4" fill="#fff" opacity="0.36"/><circle cx="376" cy="447" r="2.5" fill="#fff" opacity="0.25"/><circle cx="80" cy="355" r="5.0" fill="#fff" opacity="0.26"/><circle cx="231" cy="173" r="4.4" fill="#fff" opacity="0.29"/></g>
  <path d="M0 596 C80 558 128 616 202 584 C281 550 332 618 418 582 C464 563 492 570 512 586 V768 H0Z" fill="#145a32" opacity=".22"/>
  <ellipse cx="256" cy="664" rx="154" ry="36" fill="#145a32" opacity=".3"/>
  <g transform="translate(0 84)"><path d="M151 500 C116 338 160 190 256 170 C352 190 396 338 361 500 C320 466 291 532 256 490 C221 532 192 466 151 500Z" fill="url(#body883)" filter="url(#shadow883)"/>
    <circle cx="213" cy="318" r="17" fill="#101827"/><circle cx="299" cy="318" r="17" fill="#101827"/>
    <circle cx="207" cy="312" r="5" fill="#fff" opacity=".75"/><circle cx="293" cy="312" r="5" fill="#fff" opacity=".75"/>
    <path d="M206 410 Q256 442 306 410" stroke="#145a32" stroke-width="12" fill="none" stroke-linecap="round" opacity=".72"/>
    <path d="M188 560 C228 600 288 600 326 560" stroke="#fff" stroke-width="12" stroke-linecap="round" opacity=".18" fill="none"/>
  </g>
  <path d="M72 128 C168 68 334 66 440 128" stroke="#fff" stroke-width="16" stroke-linecap="round" opacity=".16"/>
  <path d="M60 678 C164 722 348 718 452 662" stroke="#fff" stroke-width="14" stroke-linecap="round" opacity=".16"/>
</svg>