<svg xmlns="http://www.w3.org/2000/svg" viewBox="0 0 512 768" role="img" aria-label="极寒机甲 unique portrait">
  <defs>
    <linearGradient id="bg884" x1="0" y1="0" x2="1" y2="1"><stop offset="0" stop-color="#e8fbff"/><stop offset=".55" stop-color="#7bdff2"/><stop offset="1" stop-color="#344450"/></linearGradient>
    <radialGradient id="body884" cx=".35" cy=".24" r=".78"><stop offset="0" stop-color="#fff" stop-opacity=".88"/><stop offset=".18" stop-color="#e8fbff"/><stop offset=".68" stop-color="#7bdff2"/><stop offset="1" stop-color="#344450"/></radialGradient>
    <filter id="shadow884" x="-30%" y="-30%" width="160%" height="160%"><feDropShadow dx="0" dy="10" stdDeviation="9" flood-color="#344450" flood-opacity=".36"/></filter>
  </defs>
  <rect width="512" height="768" rx="48" fill="url(#bg884)"/>
  <rect x="24" y="24" width="464" height="720" rx="40" fill="#fff" opacity=".08"/>
  <g opacity=".46"><circle cx="46" cy="180" r="1.5" fill="#fff" opacity="0.35"/><circle cx="250" cy="404" r="1.8" fill="#fff" opacity="0.24"/><circle cx="200" cy="150" r="2.5" fill="#fff" opacity="0.60"/><circle cx="423" cy="357" r="1.5" fill="#fff" opacity="0.62"/><circle cx="336" cy="69" r="3.0" fill="#fff" opacity="0.58"/><circle cx="186" cy="184" r="3.8" fill="#fff" opacity="0.26"/><circle cx="317" cy="453" r="1.3" fill="#fff" opacity="0.54"/><circle cx="400" cy="302" r="3.3" fill="#fff" opacity="0.30"/><circle cx="127" cy="306" r="2.0" fill="#fff" opacity="0.48"/><circle cx="330" cy="313" r="3.7" fill="#fff" opacity="0.43"/><circle cx="47" cy="612" r="4.9" fill="#fff" opacity="0.31"/><circle cx="444" cy="87" r="1.6" fill="#fff" opacity="0.59"/><circle cx="73" cy="490" r="2.2" fill="#fff" opacity="0.30"/><circle cx="146" cy="324" r="1.4" fill="#fff" opacity="0.43"/><circle cx="279" cy="83" r="2.7" fill="#fff" opacity="0.22"/><circle cx="218" cy="362" r="3.1" fill="#fff" opacity="0.50"/><circle cx="128" cy="451" r="4.5" fill="#fff" opacity="0.61"/><circle cx="391" cy="584" r="3.0" fill="#fff" opacity="0.36"/></g>
  <path d="M0 596 C80 558 128 616 202 584 C281 550 332 618 418 582 C464 563 492 570 512 586 V768 H0Z" fill="#344450" opacity=".22"/>
  <ellipse cx="256" cy="664" rx="154" ry="36" fill="#344450" opacity=".3"/>
  <g transform="translate(0 84)"><circle cx="256" cy="357" r="128" fill="url(#body884)" filter="url(#shadow884)"/><circle cx="256" cy="357" r="70" fill="#d7e3ea" opacity=".26"/>
    <circle cx="217" cy="319" r="17" fill="#344450"/><circle cx="295" cy="319" r="17" fill="#344450"/>
    <circle cx="211" cy="313" r="5" fill="#fff" opacity=".75"/><circle cx="289" cy="313" r="5" fill="#fff" opacity=".75"/>
    <path d="M214 248 Q256 284 298 248" stroke="#d7e3ea" stroke-width="14" fill="none" stroke-linecap="round" opacity=".74"/>
    <path d="M188 560 C228 600 288 600 326 560" stroke="#fff" stroke-width="12" stroke-linecap="round" opacity=".18" fill="none"/>
  </g>
  <path d="M72 128 C168 68 334 66 440 128" stroke="#fff" stroke-width="16" stroke-linecap="round" opacity=".16"/>
  <path d="M60 678 C164 722 348 718 452 662" stroke="#fff" stroke-width="14" stroke-linecap="round" opacity=".16"/>
</svg>