<svg xmlns="http://www.w3.org/2000/svg" viewBox="0 0 512 768" role="img" aria-label="苔藓巨熊 unique portrait">
  <defs>
    <linearGradient id="bg886" x1="0" y1="0" x2="1" y2="1"><stop offset="0" stop-color="#c8f7a1"/><stop offset=".55" stop-color="#36b56a"/><stop offset="1" stop-color="#5d3b1f"/></linearGradient>
    <radialGradient id="body886" cx=".35" cy=".24" r=".78"><stop offset="0" stop-color="#fff" stop-opacity=".88"/><stop offset=".18" stop-color="#c8f7a1"/><stop offset=".68" stop-color="#36b56a"/><stop offset="1" stop-color="#5d3b1f"/></radialGradient>
    <filter id="shadow886" x="-30%" y="-30%" width="160%" height="160%"><feDropShadow dx="0" dy="10" stdDeviation="9" flood-color="#5d3b1f" flood-opacity=".36"/></filter>
  </defs>
  <rect width="512" height="768" rx="48" fill="url(#bg886)"/>
  <rect x="24" y="24" width="464" height="720" rx="40" fill="#fff" opacity=".08"/>
  <g opacity=".46"><circle cx="430" cy="259" r="5.1" fill="#fff" opacity="0.36"/><circle cx="238" cy="525" r="1.7" fill="#fff" opacity="0.26"/><circle cx="136" cy="567" r="5.1" fill="#fff" opacity="0.28"/><circle cx="330" cy="188" r="1.4" fill="#fff" opacity="0.60"/><circle cx="348" cy="177" r="4.5" fill="#fff" opacity="0.39"/><circle cx="442" cy="482" r="4.9" fill="#fff" opacity="0.29"/><circle cx="400" cy="98" r="3.3" fill="#fff" opacity="0.54"/><circle cx="73" cy="484" r="3.4" fill="#fff" opacity="0.59"/><circle cx="124" cy="571" r="3.4" fill="#fff" opacity="0.49"/><circle cx="356" cy="69" r="2.7" fill="#fff" opacity="0.50"/><circle cx="371" cy="446" r="5.3" fill="#fff" opacity="0.39"/><circle cx="225" cy="271" r="3.1" fill="#fff" opacity="0.62"/><circle cx="185" cy="314" r="4.9" fill="#fff" opacity="0.45"/><circle cx="299" cy="352" r="5.3" fill="#fff" opacity="0.38"/><circle cx="164" cy="499" r="2.7" fill="#fff" opacity="0.29"/><circle cx="446" cy="64" r="1.7" fill="#fff" opacity="0.59"/><circle cx="155" cy="406" r="1.3" fill="#fff" opacity="0.32"/><circle cx="428" cy="209" r="2.3" fill="#fff" opacity="0.56"/><circle cx="95" cy="88" r="4.2" fill="#fff" opacity="0.40"/><circle cx="211" cy="565" r="2.4" fill="#fff" opacity="0.30"/><circle cx="318" cy="63" r="2.6" fill="#fff" opacity="0.23"/></g>
  <path d="M0 596 C80 558 128 616 202 584 C281 550 332 618 418 582 C464 563 492 570 512 586 V768 H0Z" fill="#5d3b1f" opacity=".22"/>
  <ellipse cx="256" cy="664" rx="154" ry="36" fill="#5d3b1f" opacity=".3"/>
  <g transform="translate(0 84)"><path d="M151 500 C116 338 160 190 256 170 C352 190 396 338 361 500 C320 466 291 532 256 490 C221 532 192 466 151 500Z" fill="url(#body886)" filter="url(#shadow886)"/>
    <circle cx="216" cy="324" r="17" fill="#101827"/><circle cx="296" cy="324" r="17" fill="#101827"/>
    <circle cx="210" cy="318" r="5" fill="#fff" opacity=".75"/><circle cx="290" cy="318" r="5" fill="#fff" opacity=".75"/>
    <path d="M206 410 Q256 442 306 410" stroke="#5d3b1f" stroke-width="12" fill="none" stroke-linecap="round" opacity=".72"/>
    <path d="M188 560 C228 600 288 600 326 560" stroke="#fff" stroke-width="12" stroke-linecap="round" opacity=".18" fill="none"/>
  </g>
  <path d="M72 128 C168 68 334 66 440 128" stroke="#fff" stroke-width="16" stroke-linecap="round" opacity=".16"/>
  <path d="M60 678 C164 722 348 718 452 662" stroke="#fff" stroke-width="14" stroke-linecap="round" opacity=".16"/>
</svg>