<svg xmlns="http://www.w3.org/2000/svg" viewBox="0 0 512 768" role="img" aria-label="幻梦灵鱼 unique portrait">
  <defs>
    <linearGradient id="bg887" x1="0" y1="0" x2="1" y2="1"><stop offset="0" stop-color="#ffd1dc"/><stop offset=".55" stop-color="#ff5fa2"/><stop offset="1" stop-color="#0a3d7a"/></linearGradient>
    <radialGradient id="body887" cx=".35" cy=".24" r=".78"><stop offset="0" stop-color="#fff" stop-opacity=".88"/><stop offset=".18" stop-color="#ffd1dc"/><stop offset=".68" stop-color="#ff5fa2"/><stop offset="1" stop-color="#0a3d7a"/></radialGradient>
    <filter id="shadow887" x="-30%" y="-30%" width="160%" height="160%"><feDropShadow dx="0" dy="10" stdDeviation="9" flood-color="#0a3d7a" flood-opacity=".36"/></filter>
  </defs>
  <rect width="512" height="768" rx="48" fill="url(#bg887)"/>
  <rect x="24" y="24" width="464" height="720" rx="40" fill="#fff" opacity=".08"/>
  <g opacity=".46"><circle cx="443" cy="88" r="3.1" fill="#fff" opacity="0.39"/><circle cx="365" cy="122" r="3.3" fill="#fff" opacity="0.41"/><circle cx="318" cy="138" r="4.5" fill="#fff" opacity="0.36"/><circle cx="240" cy="482" r="4.1" fill="#fff" opacity="0.54"/><circle cx="92" cy="396" r="3.1" fill="#fff" opacity="0.23"/><circle cx="189" cy="381" r="3.7" fill="#fff" opacity="0.47"/><circle cx="48" cy="57" r="2.9" fill="#fff" opacity="0.41"/><circle cx="228" cy="303" r="5.2" fill="#fff" opacity="0.22"/><circle cx="57" cy="211" r="4.4" fill="#fff" opacity="0.26"/><circle cx="194" cy="545" r="3.1" fill="#fff" opacity="0.48"/></g>
  <path d="M0 596 C80 558 128 616 202 584 C281 550 332 618 418 582 C464 563 492 570 512 586 V768 H0Z" fill="#0a3d7a" opacity=".22"/>
  <ellipse cx="256" cy="664" rx="154" ry="36" fill="#0a3d7a" opacity=".3"/>
  <g transform="translate(0 84)"><path d="M178 196 L133 114 L221 170 Z" fill="#2f80ed" opacity=".8"/><path d="M334 196 L379 114 L291 170 Z" fill="#2f80ed" opacity=".8"/><path d="M151 500 C116 338 160 190 256 170 C352 190 396 338 361 500 C320 466 291 532 256 490 C221 532 192 466 151 500Z" fill="url(#body887)" filter="url(#shadow887)"/>
    <circle cx="213" cy="338" r="17" fill="#0a3d7a"/><circle cx="299" cy="338" r="17" fill="#0a3d7a"/>
    <circle cx="207" cy="332" r="5" fill="#fff" opacity=".75"/><circle cx="293" cy="332" r="5" fill="#fff" opacity=".75"/>
    <path d="M214 248 Q256 284 298 248" stroke="#9be7ff" stroke-width="14" fill="none" stroke-linecap="round" opacity=".74"/>
    <path d="M188 560 C228 600 288 600 326 560" stroke="#fff" stroke-width="12" stroke-linecap="round" opacity=".18" fill="none"/>
  </g>
  <path d="M72 128 C168 68 334 66 440 128" stroke="#fff" stroke-width="16" stroke-linecap="round" opacity=".16"/>
  <path d="M60 678 C164 722 348 718 452 662" stroke="#fff" stroke-width="14" stroke-linecap="round" opacity=".16"/>
</svg>