<svg xmlns="http://www.w3.org/2000/svg" viewBox="0 0 512 768" role="img" aria-label="星辰海豚 unique portrait">
  <defs>
    <linearGradient id="bg888" x1="0" y1="0" x2="1" y2="1"><stop offset="0" stop-color="#bae6fd"/><stop offset=".55" stop-color="#2563eb"/><stop offset="1" stop-color="#0a3d7a"/></linearGradient>
    <radialGradient id="body888" cx=".35" cy=".24" r=".78"><stop offset="0" stop-color="#fff" stop-opacity=".88"/><stop offset=".18" stop-color="#bae6fd"/><stop offset=".68" stop-color="#2563eb"/><stop offset="1" stop-color="#0a3d7a"/></radialGradient>
    <filter id="shadow888" x="-30%" y="-30%" width="160%" height="160%"><feDropShadow dx="0" dy="10" stdDeviation="9" flood-color="#0a3d7a" flood-opacity=".36"/></filter>
  </defs>
  <rect width="512" height="768" rx="48" fill="url(#bg888)"/>
  <rect x="24" y="24" width="464" height="720" rx="40" fill="#fff" opacity=".08"/>
  <g opacity=".46"><circle cx="373" cy="300" r="1.7" fill="#fff" opacity="0.34"/><circle cx="65" cy="517" r="3.6" fill="#fff" opacity="0.47"/><circle cx="315" cy="491" r="4.8" fill="#fff" opacity="0.49"/><circle cx="403" cy="583" r="1.3" fill="#fff" opacity="0.36"/><circle cx="174" cy="87" r="4.3" fill="#fff" opacity="0.58"/><circle cx="227" cy="150" r="3.0" fill="#fff" opacity="0.35"/><circle cx="250" cy="352" r="4.9" fill="#fff" opacity="0.30"/><circle cx="112" cy="535" r="1.3" fill="#fff" opacity="0.44"/><circle cx="419" cy="328" r="4.9" fill="#fff" opacity="0.63"/><circle cx="332" cy="597" r="1.7" fill="#fff" opacity="0.38"/><circle cx="131" cy="156" r="5.1" fill="#fff" opacity="0.30"/><circle cx="151" cy="452" r="4.8" fill="#fff" opacity="0.64"/><circle cx="66" cy="462" r="3.5" fill="#fff" opacity="0.58"/><circle cx="454" cy="564" r="1.9" fill="#fff" opacity="0.30"/><circle cx="201" cy="236" r="1.7" fill="#fff" opacity="0.63"/><circle cx="383" cy="301" r="2.1" fill="#fff" opacity="0.31"/></g>
  <path d="M0 596 C80 558 128 616 202 584 C281 550 332 618 418 582 C464 563 492 570 512 586 V768 H0Z" fill="#0a3d7a" opacity=".22"/>
  <ellipse cx="256" cy="664" rx="154" ry="36" fill="#0a3d7a" opacity=".3"/>
  <g transform="translate(0 84)"><path d="M178 196 L133 114 L221 170 Z" fill="#2f80ed" opacity=".8"/><path d="M334 196 L379 114 L291 170 Z" fill="#2f80ed" opacity=".8"/><path d="M151 500 C116 338 160 190 256 170 C352 190 396 338 361 500 C320 466 291 532 256 490 C221 532 192 466 151 500Z" fill="url(#body888)" filter="url(#shadow888)"/>
    <circle cx="216" cy="326" r="17" fill="#0a3d7a"/><circle cx="296" cy="326" r="17" fill="#0a3d7a"/>
    <circle cx="210" cy="320" r="5" fill="#fff" opacity=".75"/><circle cx="290" cy="320" r="5" fill="#fff" opacity=".75"/>
    <path d="M206 410 Q256 442 306 410" stroke="#0a3d7a" stroke-width="12" fill="none" stroke-linecap="round" opacity=".72"/>
    <path d="M188 560 C228 600 288 600 326 560" stroke="#fff" stroke-width="12" stroke-linecap="round" opacity=".18" fill="none"/>
  </g>
  <path d="M72 128 C168 68 334 66 440 128" stroke="#fff" stroke-width="16" stroke-linecap="round" opacity=".16"/>
  <path d="M60 678 C164 722 348 718 452 662" stroke="#fff" stroke-width="14" stroke-linecap="round" opacity=".16"/>
</svg>