<svg xmlns="http://www.w3.org/2000/svg" viewBox="0 0 512 768" role="img" aria-label="混沌影刃 unique portrait">
  <defs>
    <linearGradient id="bg889" x1="0" y1="0" x2="1" y2="1"><stop offset="0" stop-color="#f0abfc"/><stop offset=".55" stop-color="#7e22ce"/><stop offset="1" stop-color="#344450"/></linearGradient>
    <radialGradient id="body889" cx=".35" cy=".24" r=".78"><stop offset="0" stop-color="#fff" stop-opacity=".88"/><stop offset=".18" stop-color="#f0abfc"/><stop offset=".68" stop-color="#7e22ce"/><stop offset="1" stop-color="#344450"/></radialGradient>
    <filter id="shadow889" x="-30%" y="-30%" width="160%" height="160%"><feDropShadow dx="0" dy="10" stdDeviation="9" flood-color="#344450" flood-opacity=".36"/></filter>
  </defs>
  <rect width="512" height="768" rx="48" fill="url(#bg889)"/>
  <rect x="24" y="24" width="464" height="720" rx="40" fill="#fff" opacity=".08"/>
  <g opacity=".46"><circle cx="406" cy="435" r="2.4" fill="#fff" opacity="0.51"/><circle cx="283" cy="479" r="3.6" fill="#fff" opacity="0.51"/><circle cx="411" cy="476" r="1.9" fill="#fff" opacity="0.25"/><circle cx="79" cy="225" r="2.4" fill="#fff" opacity="0.36"/><circle cx="120" cy="531" r="3.9" fill="#fff" opacity="0.63"/><circle cx="465" cy="222" r="4.6" fill="#fff" opacity="0.59"/><circle cx="262" cy="283" r="1.3" fill="#fff" opacity="0.38"/><circle cx="448" cy="342" r="2.1" fill="#fff" opacity="0.45"/><circle cx="388" cy="296" r="2.0" fill="#fff" opacity="0.35"/><circle cx="79" cy="93" r="1.8" fill="#fff" opacity="0.27"/><circle cx="406" cy="508" r="2.4" fill="#fff" opacity="0.49"/><circle cx="470" cy="548" r="4.1" fill="#fff" opacity="0.26"/></g>
  <path d="M0 596 C80 558 128 616 202 584 C281 550 332 618 418 582 C464 563 492 570 512 586 V768 H0Z" fill="#344450" opacity=".22"/>
  <ellipse cx="256" cy="664" rx="154" ry="36" fill="#344450" opacity=".3"/>
  <g transform="translate(0 84)"><circle cx="256" cy="357" r="128" fill="url(#body889)" filter="url(#shadow889)"/><circle cx="256" cy="357" r="70" fill="#d7e3ea" opacity=".26"/>
    <circle cx="216" cy="318" r="17" fill="#344450"/><circle cx="296" cy="318" r="17" fill="#344450"/>
    <circle cx="210" cy="312" r="5" fill="#fff" opacity=".75"/><circle cx="290" cy="312" r="5" fill="#fff" opacity=".75"/>
    <path d="M206 410 Q256 442 306 410" stroke="#344450" stroke-width="12" fill="none" stroke-linecap="round" opacity=".72"/>
    <path d="M188 560 C228 600 288 600 326 560" stroke="#fff" stroke-width="12" stroke-linecap="round" opacity=".18" fill="none"/>
  </g>
  <path d="M72 128 C168 68 334 66 440 128" stroke="#fff" stroke-width="16" stroke-linecap="round" opacity=".16"/>
  <path d="M60 678 C164 722 348 718 452 662" stroke="#fff" stroke-width="14" stroke-linecap="round" opacity=".16"/>
</svg>