<svg xmlns="http://www.w3.org/2000/svg" viewBox="0 0 512 768" role="img" aria-label="合金巨蟹 original portrait">
  
  <defs>
    <linearGradient id="bgp89" x1="0" y1="0" x2="1" y2="1">
      <stop offset="0" stop-color="#e8edf2"/>
      <stop offset=".55" stop-color="#9aa8b7"/>
      <stop offset="1" stop-color="#536271"/>
    </linearGradient>
    <radialGradient id="body" cx=".36" cy=".25" r=".76">
      <stop offset="0" stop-color="#e8edf2"/>
      <stop offset=".6" stop-color="#9aa8b7"/>
      <stop offset="1" stop-color="#536271"/>
    </radialGradient>
    <radialGradient id="head" cx=".36" cy=".26" r=".72">
      <stop offset="0" stop-color="#ffffff" stop-opacity=".85"/>
      <stop offset=".2" stop-color="#e8edf2"/>
      <stop offset=".72" stop-color="#9aa8b7"/>
      <stop offset="1" stop-color="#536271"/>
    </radialGradient>
    <filter id="softShadow" x="-30%" y="-30%" width="160%" height="160%">
      <feDropShadow dx="0" dy="8" stdDeviation="8" flood-color="#536271" flood-opacity=".35"/>
    </filter>
  </defs>
  <rect width="512" height="768" rx="48" fill="url(#bgp89)"/>
  <rect x="24" y="24" width="464" height="720" rx="40" fill="#ffffff" opacity=".08"/>
  <g opacity=".42"><circle cx="467" cy="664" r="1.2" fill="#fff" opacity="0.43"/><circle cx="277" cy="719" r="2.5" fill="#fff" opacity="0.57"/><circle cx="367" cy="143" r="1.0" fill="#fff" opacity="0.42"/><circle cx="22" cy="308" r="1.1" fill="#fff" opacity="0.44"/><circle cx="493" cy="107" r="1.5" fill="#fff" opacity="0.61"/><circle cx="62" cy="134" r="0.8" fill="#fff" opacity="0.25"/><circle cx="331" cy="721" r="2.7" fill="#fff" opacity="0.69"/><circle cx="9" cy="191" r="0.9" fill="#fff" opacity="0.52"/><circle cx="121" cy="186" r="3.1" fill="#fff" opacity="0.51"/><circle cx="114" cy="526" r="1.0" fill="#fff" opacity="0.66"/><circle cx="162" cy="698" r="0.8" fill="#fff" opacity="0.51"/><circle cx="17" cy="354" r="2.9" fill="#fff" opacity="0.52"/><circle cx="177" cy="604" r="2.4" fill="#fff" opacity="0.30"/><circle cx="434" cy="611" r="2.3" fill="#fff" opacity="0.26"/><circle cx="305" cy="278" r="1.3" fill="#fff" opacity="0.29"/><circle cx="18" cy="564" r="0.8" fill="#fff" opacity="0.33"/><circle cx="90" cy="630" r="2.5" fill="#fff" opacity="0.62"/><circle cx="355" cy="164" r="2.8" fill="#fff" opacity="0.40"/><circle cx="131" cy="610" r="1.5" fill="#fff" opacity="0.47"/><circle cx="494" cy="12" r="1.3" fill="#fff" opacity="0.42"/><circle cx="478" cy="18" r="1.7" fill="#fff" opacity="0.55"/><circle cx="440" cy="668" r="2.9" fill="#fff" opacity="0.70"/><circle cx="70" cy="654" r="3.1" fill="#fff" opacity="0.67"/><circle cx="493" cy="340" r="2.0" fill="#fff" opacity="0.69"/><circle cx="386" cy="672" r="1.9" fill="#fff" opacity="0.44"/><circle cx="286" cy="640" r="2.7" fill="#fff" opacity="0.42"/><circle cx="484" cy="326" r="2.5" fill="#fff" opacity="0.40"/><circle cx="20" cy="644" r="1.8" fill="#fff" opacity="0.32"/></g>
  <path d="M0 585 C86 541 164 618 248 574 C338 526 407 595 512 548 V768 H0Z" fill="#9aa8b7" opacity=".2"/><path d="M0 650 C105 610 180 690 282 638 C370 594 426 650 512 618 V768 H0Z" fill="#e8edf2" opacity=".18"/>
  <ellipse cx="256" cy="662" rx="150" ry="34" fill="#536271" opacity=".28"/>
  <g transform="translate(0 122)">
    <path d="M110.45000000000002 326.9 L40.75000000000003 240.8 L44.85000000000002 413 Z" fill="#9aa8b7" opacity=".86"/><ellipse cx="247.8" cy="322.8" rx="139.39999999999998" ry="88.14999999999999" fill="url(#body)" filter="url(#softShadow)"/><path d="M243.7 242.85 C288.8 136.25 358.5 173.15 342.1 263.35" fill="#9aa8b7" opacity=".72"/><path d="M301.1 384.3 C338 458.1 411.79999999999995 413 362.6 359.7" fill="#e8edf2" opacity=".8"/><circle cx="329.8" cy="292.05" r="14.349999999999998" fill="#101828"/><circle cx="335.95" cy="285.9" r="4.714999999999999" fill="#fff"/><circle cx="256" cy="210.05" r="14.349999999999998" fill="#e8edf2" opacity=".9"/>
  </g>
  <path d="M74 126 C170 65 334 65 438 126" stroke="#fff" stroke-width="16" stroke-linecap="round" opacity=".16"/>
  <path d="M63 676 C162 718 344 718 449 662" stroke="#fff" stroke-width="14" stroke-linecap="round" opacity=".16"/>
</svg>