<svg xmlns="http://www.w3.org/2000/svg" viewBox="0 0 512 768" role="img" aria-label="时空漂流者 unique portrait">
  <defs>
    <linearGradient id="bg890" x1="0" y1="0" x2="1" y2="1"><stop offset="0" stop-color="#e9d5ff"/><stop offset=".55" stop-color="#8b5cf6"/><stop offset="1" stop-color="#111827"/></linearGradient>
    <radialGradient id="body890" cx=".35" cy=".24" r=".78"><stop offset="0" stop-color="#fff" stop-opacity=".88"/><stop offset=".18" stop-color="#e9d5ff"/><stop offset=".68" stop-color="#8b5cf6"/><stop offset="1" stop-color="#111827"/></radialGradient>
    <filter id="shadow890" x="-30%" y="-30%" width="160%" height="160%"><feDropShadow dx="0" dy="10" stdDeviation="9" flood-color="#111827" flood-opacity=".36"/></filter>
  </defs>
  <rect width="512" height="768" rx="48" fill="url(#bg890)"/>
  <rect x="24" y="24" width="464" height="720" rx="40" fill="#fff" opacity=".08"/>
  <g opacity=".46"><circle cx="121" cy="609" r="4.1" fill="#fff" opacity="0.34"/><circle cx="267" cy="606" r="3.8" fill="#fff" opacity="0.48"/><circle cx="319" cy="407" r="5.3" fill="#fff" opacity="0.33"/><circle cx="456" cy="375" r="2.8" fill="#fff" opacity="0.34"/><circle cx="209" cy="487" r="2.6" fill="#fff" opacity="0.33"/><circle cx="394" cy="141" r="3.9" fill="#fff" opacity="0.42"/><circle cx="318" cy="374" r="4.4" fill="#fff" opacity="0.50"/><circle cx="127" cy="372" r="4.2" fill="#fff" opacity="0.60"/><circle cx="209" cy="629" r="5.3" fill="#fff" opacity="0.33"/><circle cx="123" cy="317" r="4.7" fill="#fff" opacity="0.43"/><circle cx="458" cy="167" r="4.2" fill="#fff" opacity="0.61"/><circle cx="334" cy="505" r="4.3" fill="#fff" opacity="0.60"/><circle cx="91" cy="430" r="3.6" fill="#fff" opacity="0.26"/><circle cx="383" cy="301" r="2.0" fill="#fff" opacity="0.24"/><circle cx="343" cy="293" r="5.3" fill="#fff" opacity="0.54"/></g>
  <path d="M0 596 C80 558 128 616 202 584 C281 550 332 618 418 582 C464 563 492 570 512 586 V768 H0Z" fill="#111827" opacity=".22"/>
  <ellipse cx="256" cy="664" rx="154" ry="36" fill="#111827" opacity=".3"/>
  <g transform="translate(0 84)"><path d="M151 500 C116 338 160 190 256 170 C352 190 396 338 361 500 C320 466 291 532 256 490 C221 532 192 466 151 500Z" fill="url(#body890)" filter="url(#shadow890)"/>
    <circle cx="210" cy="320" r="17" fill="#101827"/><circle cx="302" cy="320" r="17" fill="#101827"/>
    <circle cx="204" cy="314" r="5" fill="#fff" opacity=".75"/><circle cx="296" cy="314" r="5" fill="#fff" opacity=".75"/>
    <path d="M206 410 Q256 442 306 410" stroke="#111827" stroke-width="12" fill="none" stroke-linecap="round" opacity=".72"/>
    <path d="M188 560 C228 600 288 600 326 560" stroke="#fff" stroke-width="12" stroke-linecap="round" opacity=".18" fill="none"/>
  </g>
  <path d="M72 128 C168 68 334 66 440 128" stroke="#fff" stroke-width="16" stroke-linecap="round" opacity=".16"/>
  <path d="M60 678 C164 722 348 718 452 662" stroke="#fff" stroke-width="14" stroke-linecap="round" opacity=".16"/>
</svg>