<svg xmlns="http://www.w3.org/2000/svg" viewBox="0 0 512 768" role="img" aria-label="创世纪元兽 unique portrait">
  <defs>
    <linearGradient id="bg891" x1="0" y1="0" x2="1" y2="1"><stop offset="0" stop-color="#e9d5ff"/><stop offset=".55" stop-color="#8b5cf6"/><stop offset="1" stop-color="#7c2d12"/></linearGradient>
    <radialGradient id="body891" cx=".35" cy=".24" r=".78"><stop offset="0" stop-color="#fff" stop-opacity=".88"/><stop offset=".18" stop-color="#e9d5ff"/><stop offset=".68" stop-color="#8b5cf6"/><stop offset="1" stop-color="#7c2d12"/></radialGradient>
    <filter id="shadow891" x="-30%" y="-30%" width="160%" height="160%"><feDropShadow dx="0" dy="10" stdDeviation="9" flood-color="#7c2d12" flood-opacity=".36"/></filter>
  </defs>
  <rect width="512" height="768" rx="48" fill="url(#bg891)"/>
  <rect x="24" y="24" width="464" height="720" rx="40" fill="#fff" opacity=".08"/>
  <g opacity=".46"><circle cx="65" cy="165" r="4.1" fill="#fff" opacity="0.48"/><circle cx="359" cy="174" r="4.6" fill="#fff" opacity="0.42"/><circle cx="218" cy="280" r="4.7" fill="#fff" opacity="0.23"/><circle cx="326" cy="298" r="4.3" fill="#fff" opacity="0.34"/><circle cx="425" cy="627" r="1.8" fill="#fff" opacity="0.35"/><circle cx="99" cy="323" r="4.9" fill="#fff" opacity="0.63"/><circle cx="458" cy="441" r="5.3" fill="#fff" opacity="0.63"/><circle cx="222" cy="279" r="1.8" fill="#fff" opacity="0.30"/><circle cx="293" cy="579" r="4.7" fill="#fff" opacity="0.31"/><circle cx="201" cy="241" r="4.9" fill="#fff" opacity="0.36"/><circle cx="305" cy="154" r="4.4" fill="#fff" opacity="0.24"/><circle cx="464" cy="580" r="4.4" fill="#fff" opacity="0.35"/><circle cx="336" cy="295" r="5.0" fill="#fff" opacity="0.49"/><circle cx="146" cy="180" r="3.8" fill="#fff" opacity="0.25"/><circle cx="158" cy="413" r="3.1" fill="#fff" opacity="0.45"/><circle cx="306" cy="501" r="4.9" fill="#fff" opacity="0.43"/><circle cx="371" cy="251" r="3.9" fill="#fff" opacity="0.52"/><circle cx="159" cy="198" r="2.4" fill="#fff" opacity="0.27"/><circle cx="298" cy="347" r="2.3" fill="#fff" opacity="0.52"/></g>
  <path d="M0 596 C80 558 128 616 202 584 C281 550 332 618 418 582 C464 563 492 570 512 586 V768 H0Z" fill="#7c2d12" opacity=".22"/>
  <ellipse cx="256" cy="664" rx="154" ry="36" fill="#7c2d12" opacity=".3"/>
  <g transform="translate(0 84)"><path d="M316 492 C426 508 425 604 334 594 C391 562 368 528 302 536" fill="none" stroke="#f59e0b" stroke-width="34" stroke-linecap="round" opacity=".72"/><path d="M178 196 L133 114 L221 170 Z" fill="#f59e0b" opacity=".8"/><path d="M334 196 L379 114 L291 170 Z" fill="#f59e0b" opacity=".8"/><path d="M151 500 C116 338 160 190 256 170 C352 190 396 338 361 500 C320 466 291 532 256 490 C221 532 192 466 151 500Z" fill="url(#body891)" filter="url(#shadow891)"/>
    <circle cx="217" cy="326" r="17" fill="#101827"/><circle cx="295" cy="326" r="17" fill="#101827"/>
    <circle cx="211" cy="320" r="5" fill="#fff" opacity=".75"/><circle cx="289" cy="320" r="5" fill="#fff" opacity=".75"/>
    <path d="M206 410 Q256 442 306 410" stroke="#7c2d12" stroke-width="12" fill="none" stroke-linecap="round" opacity=".72"/>
    <path d="M188 560 C228 600 288 600 326 560" stroke="#fff" stroke-width="12" stroke-linecap="round" opacity=".18" fill="none"/>
  </g>
  <path d="M72 128 C168 68 334 66 440 128" stroke="#fff" stroke-width="16" stroke-linecap="round" opacity=".16"/>
  <path d="M60 678 C164 722 348 718 452 662" stroke="#fff" stroke-width="14" stroke-linecap="round" opacity=".16"/>
</svg>