<svg xmlns="http://www.w3.org/2000/svg" viewBox="0 0 512 768" role="img" aria-label="终焉混沌龙 unique portrait">
  <defs>
    <linearGradient id="bg892" x1="0" y1="0" x2="1" y2="1"><stop offset="0" stop-color="#f0abfc"/><stop offset=".55" stop-color="#7e22ce"/><stop offset="1" stop-color="#2b247a"/></linearGradient>
    <radialGradient id="body892" cx=".35" cy=".24" r=".78"><stop offset="0" stop-color="#fff" stop-opacity=".88"/><stop offset=".18" stop-color="#f0abfc"/><stop offset=".68" stop-color="#7e22ce"/><stop offset="1" stop-color="#2b247a"/></radialGradient>
    <filter id="shadow892" x="-30%" y="-30%" width="160%" height="160%"><feDropShadow dx="0" dy="10" stdDeviation="9" flood-color="#2b247a" flood-opacity=".36"/></filter>
  </defs>
  <rect width="512" height="768" rx="48" fill="url(#bg892)"/>
  <rect x="24" y="24" width="464" height="720" rx="40" fill="#fff" opacity=".08"/>
  <g opacity=".46"><circle cx="380" cy="599" r="3.5" fill="#fff" opacity="0.51"/><circle cx="158" cy="90" r="5.0" fill="#fff" opacity="0.33"/><circle cx="137" cy="505" r="1.2" fill="#fff" opacity="0.26"/><circle cx="58" cy="289" r="5.3" fill="#fff" opacity="0.38"/><circle cx="408" cy="612" r="1.5" fill="#fff" opacity="0.62"/><circle cx="80" cy="367" r="5.1" fill="#fff" opacity="0.56"/><circle cx="68" cy="578" r="4.6" fill="#fff" opacity="0.47"/><circle cx="110" cy="591" r="3.8" fill="#fff" opacity="0.57"/><circle cx="438" cy="352" r="4.5" fill="#fff" opacity="0.29"/><circle cx="300" cy="81" r="2.8" fill="#fff" opacity="0.22"/><circle cx="223" cy="295" r="4.9" fill="#fff" opacity="0.51"/><circle cx="91" cy="155" r="4.3" fill="#fff" opacity="0.43"/><circle cx="219" cy="558" r="1.7" fill="#fff" opacity="0.61"/><circle cx="351" cy="367" r="5.0" fill="#fff" opacity="0.57"/></g>
  <path d="M0 596 C80 558 128 616 202 584 C281 550 332 618 418 582 C464 563 492 570 512 586 V768 H0Z" fill="#2b247a" opacity=".22"/>
  <ellipse cx="256" cy="664" rx="154" ry="36" fill="#2b247a" opacity=".3"/>
  <g transform="translate(0 84)"><path d="M148 520 C118 346 156 196 256 164 C356 196 394 346 364 520 C326 488 292 532 256 496 C220 532 186 488 148 520Z" fill="url(#body892)" filter="url(#shadow892)"/>
    <circle cx="215" cy="327" r="17" fill="#2b247a"/><circle cx="297" cy="327" r="17" fill="#2b247a"/>
    <circle cx="209" cy="321" r="5" fill="#fff" opacity=".75"/><circle cx="291" cy="321" r="5" fill="#fff" opacity=".75"/>
    <path d="M214 248 Q256 284 298 248" stroke="#c4b5fd" stroke-width="14" fill="none" stroke-linecap="round" opacity=".74"/>
    <path d="M188 560 C228 600 288 600 326 560" stroke="#fff" stroke-width="12" stroke-linecap="round" opacity=".18" fill="none"/>
  </g>
  <path d="M72 128 C168 68 334 66 440 128" stroke="#fff" stroke-width="16" stroke-linecap="round" opacity=".16"/>
  <path d="M60 678 C164 722 348 718 452 662" stroke="#fff" stroke-width="14" stroke-linecap="round" opacity=".16"/>
</svg>