<svg xmlns="http://www.w3.org/2000/svg" viewBox="0 0 512 768" role="img" aria-label="雷光守望者 unique portrait">
  <defs>
    <linearGradient id="bg894" x1="0" y1="0" x2="1" y2="1"><stop offset="0" stop-color="#fff7bf"/><stop offset=".55" stop-color="#f7d154"/><stop offset="1" stop-color="#312e81"/></linearGradient>
    <radialGradient id="body894" cx=".35" cy=".24" r=".78"><stop offset="0" stop-color="#fff" stop-opacity=".88"/><stop offset=".18" stop-color="#fff7bf"/><stop offset=".68" stop-color="#f7d154"/><stop offset="1" stop-color="#312e81"/></radialGradient>
    <filter id="shadow894" x="-30%" y="-30%" width="160%" height="160%"><feDropShadow dx="0" dy="10" stdDeviation="9" flood-color="#312e81" flood-opacity=".36"/></filter>
  </defs>
  <rect width="512" height="768" rx="48" fill="url(#bg894)"/>
  <rect x="24" y="24" width="464" height="720" rx="40" fill="#fff" opacity=".08"/>
  <g opacity=".46"><circle cx="211" cy="385" r="2.6" fill="#fff" opacity="0.44"/><circle cx="434" cy="152" r="4.8" fill="#fff" opacity="0.59"/><circle cx="49" cy="458" r="3.0" fill="#fff" opacity="0.48"/><circle cx="251" cy="128" r="2.2" fill="#fff" opacity="0.47"/><circle cx="97" cy="451" r="3.9" fill="#fff" opacity="0.60"/><circle cx="130" cy="580" r="3.0" fill="#fff" opacity="0.28"/><circle cx="215" cy="392" r="3.7" fill="#fff" opacity="0.28"/><circle cx="360" cy="462" r="1.7" fill="#fff" opacity="0.29"/><circle cx="298" cy="224" r="1.8" fill="#fff" opacity="0.49"/><circle cx="319" cy="286" r="3.5" fill="#fff" opacity="0.44"/><circle cx="424" cy="244" r="3.2" fill="#fff" opacity="0.46"/><circle cx="432" cy="525" r="2.8" fill="#fff" opacity="0.41"/><circle cx="374" cy="300" r="2.7" fill="#fff" opacity="0.45"/><circle cx="154" cy="144" r="5.4" fill="#fff" opacity="0.36"/><circle cx="267" cy="323" r="3.6" fill="#fff" opacity="0.31"/><circle cx="161" cy="188" r="2.1" fill="#fff" opacity="0.27"/><circle cx="344" cy="227" r="4.2" fill="#fff" opacity="0.39"/><circle cx="313" cy="449" r="3.1" fill="#fff" opacity="0.37"/><circle cx="392" cy="217" r="3.9" fill="#fff" opacity="0.52"/></g>
  <path d="M0 596 C80 558 128 616 202 584 C281 550 332 618 418 582 C464 563 492 570 512 586 V768 H0Z" fill="#312e81" opacity=".22"/>
  <ellipse cx="256" cy="664" rx="154" ry="36" fill="#312e81" opacity=".3"/>
  <g transform="translate(0 84)"><path d="M316 492 C426 508 425 604 334 594 C391 562 368 528 302 536" fill="none" stroke="#8b5cf6" stroke-width="34" stroke-linecap="round" opacity=".72"/><path d="M178 196 L133 114 L221 170 Z" fill="#8b5cf6" opacity=".8"/><path d="M334 196 L379 114 L291 170 Z" fill="#8b5cf6" opacity=".8"/><path d="M151 500 C116 338 160 190 256 170 C352 190 396 338 361 500 C320 466 291 532 256 490 C221 532 192 466 151 500Z" fill="url(#body894)" filter="url(#shadow894)"/>
    <circle cx="209" cy="334" r="17" fill="#101827"/><circle cx="303" cy="334" r="17" fill="#101827"/>
    <circle cx="203" cy="328" r="5" fill="#fff" opacity=".75"/><circle cx="297" cy="328" r="5" fill="#fff" opacity=".75"/>
    <path d="M206 410 Q256 442 306 410" stroke="#312e81" stroke-width="12" fill="none" stroke-linecap="round" opacity=".72"/>
    <path d="M188 560 C228 600 288 600 326 560" stroke="#fff" stroke-width="12" stroke-linecap="round" opacity=".18" fill="none"/>
  </g>
  <path d="M72 128 C168 68 334 66 440 128" stroke="#fff" stroke-width="16" stroke-linecap="round" opacity=".16"/>
  <path d="M60 678 C164 722 348 718 452 662" stroke="#fff" stroke-width="14" stroke-linecap="round" opacity=".16"/>
</svg>