<svg xmlns="http://www.w3.org/2000/svg" viewBox="0 0 512 768" role="img" aria-label="混沌织梦师 unique portrait">
  <defs>
    <linearGradient id="bg895" x1="0" y1="0" x2="1" y2="1"><stop offset="0" stop-color="#f0abfc"/><stop offset=".55" stop-color="#7e22ce"/><stop offset="1" stop-color="#80305d"/></linearGradient>
    <radialGradient id="body895" cx=".35" cy=".24" r=".78"><stop offset="0" stop-color="#fff" stop-opacity=".88"/><stop offset=".18" stop-color="#f0abfc"/><stop offset=".68" stop-color="#7e22ce"/><stop offset="1" stop-color="#80305d"/></radialGradient>
    <filter id="shadow895" x="-30%" y="-30%" width="160%" height="160%"><feDropShadow dx="0" dy="10" stdDeviation="9" flood-color="#80305d" flood-opacity=".36"/></filter>
  </defs>
  <rect width="512" height="768" rx="48" fill="url(#bg895)"/>
  <rect x="24" y="24" width="464" height="720" rx="40" fill="#fff" opacity=".08"/>
  <g opacity=".46"><circle cx="141" cy="564" r="4.1" fill="#fff" opacity="0.46"/><circle cx="287" cy="240" r="1.5" fill="#fff" opacity="0.48"/><circle cx="308" cy="464" r="1.3" fill="#fff" opacity="0.60"/><circle cx="212" cy="260" r="3.6" fill="#fff" opacity="0.44"/><circle cx="342" cy="428" r="1.8" fill="#fff" opacity="0.39"/><circle cx="229" cy="365" r="3.7" fill="#fff" opacity="0.57"/><circle cx="372" cy="312" r="4.5" fill="#fff" opacity="0.62"/><circle cx="139" cy="204" r="4.1" fill="#fff" opacity="0.39"/><circle cx="265" cy="332" r="1.5" fill="#fff" opacity="0.49"/><circle cx="468" cy="106" r="2.4" fill="#fff" opacity="0.58"/><circle cx="395" cy="604" r="2.1" fill="#fff" opacity="0.51"/><circle cx="293" cy="214" r="3.0" fill="#fff" opacity="0.46"/></g>
  <path d="M0 596 C80 558 128 616 202 584 C281 550 332 618 418 582 C464 563 492 570 512 586 V768 H0Z" fill="#80305d" opacity=".22"/>
  <ellipse cx="256" cy="664" rx="154" ry="36" fill="#80305d" opacity=".3"/>
  <g transform="translate(0 84)"><circle cx="256" cy="357" r="128" fill="url(#body895)" filter="url(#shadow895)"/><circle cx="256" cy="357" r="70" fill="#ffd1dc" opacity=".26"/>
    <circle cx="211" cy="324" r="17" fill="#80305d"/><circle cx="301" cy="324" r="17" fill="#80305d"/>
    <circle cx="205" cy="318" r="5" fill="#fff" opacity=".75"/><circle cx="295" cy="318" r="5" fill="#fff" opacity=".75"/>
    <path d="M206 410 Q256 442 306 410" stroke="#80305d" stroke-width="12" fill="none" stroke-linecap="round" opacity=".72"/>
    <path d="M188 560 C228 600 288 600 326 560" stroke="#fff" stroke-width="12" stroke-linecap="round" opacity=".18" fill="none"/>
  </g>
  <path d="M72 128 C168 68 334 66 440 128" stroke="#fff" stroke-width="16" stroke-linecap="round" opacity=".16"/>
  <path d="M60 678 C164 722 348 718 452 662" stroke="#fff" stroke-width="14" stroke-linecap="round" opacity=".16"/>
</svg>