<svg xmlns="http://www.w3.org/2000/svg" viewBox="0 0 512 768" role="img" aria-label="时空裁决者 unique portrait">
  <defs>
    <linearGradient id="bg896" x1="0" y1="0" x2="1" y2="1"><stop offset="0" stop-color="#e9d5ff"/><stop offset=".55" stop-color="#8b5cf6"/><stop offset="1" stop-color="#344450"/></linearGradient>
    <radialGradient id="body896" cx=".35" cy=".24" r=".78"><stop offset="0" stop-color="#fff" stop-opacity=".88"/><stop offset=".18" stop-color="#e9d5ff"/><stop offset=".68" stop-color="#8b5cf6"/><stop offset="1" stop-color="#344450"/></radialGradient>
    <filter id="shadow896" x="-30%" y="-30%" width="160%" height="160%"><feDropShadow dx="0" dy="10" stdDeviation="9" flood-color="#344450" flood-opacity=".36"/></filter>
  </defs>
  <rect width="512" height="768" rx="48" fill="url(#bg896)"/>
  <rect x="24" y="24" width="464" height="720" rx="40" fill="#fff" opacity=".08"/>
  <g opacity=".46"><circle cx="406" cy="266" r="1.7" fill="#fff" opacity="0.32"/><circle cx="403" cy="514" r="1.3" fill="#fff" opacity="0.45"/><circle cx="437" cy="128" r="3.4" fill="#fff" opacity="0.53"/><circle cx="277" cy="569" r="4.0" fill="#fff" opacity="0.52"/><circle cx="90" cy="240" r="2.3" fill="#fff" opacity="0.38"/><circle cx="202" cy="582" r="4.9" fill="#fff" opacity="0.45"/><circle cx="277" cy="390" r="2.3" fill="#fff" opacity="0.29"/><circle cx="284" cy="333" r="4.6" fill="#fff" opacity="0.48"/><circle cx="106" cy="368" r="4.3" fill="#fff" opacity="0.57"/><circle cx="46" cy="528" r="3.1" fill="#fff" opacity="0.48"/><circle cx="219" cy="413" r="3.1" fill="#fff" opacity="0.64"/><circle cx="384" cy="410" r="4.6" fill="#fff" opacity="0.49"/><circle cx="63" cy="596" r="3.8" fill="#fff" opacity="0.22"/><circle cx="373" cy="455" r="4.8" fill="#fff" opacity="0.54"/><circle cx="213" cy="247" r="3.4" fill="#fff" opacity="0.42"/><circle cx="209" cy="500" r="5.0" fill="#fff" opacity="0.62"/><circle cx="298" cy="492" r="3.9" fill="#fff" opacity="0.55"/><circle cx="395" cy="371" r="2.9" fill="#fff" opacity="0.55"/><circle cx="194" cy="359" r="3.4" fill="#fff" opacity="0.29"/></g>
  <path d="M0 596 C80 558 128 616 202 584 C281 550 332 618 418 582 C464 563 492 570 512 586 V768 H0Z" fill="#344450" opacity=".22"/>
  <ellipse cx="256" cy="664" rx="154" ry="36" fill="#344450" opacity=".3"/>
  <g transform="translate(0 84)"><path d="M316 492 C426 508 425 604 334 594 C391 562 368 528 302 536" fill="none" stroke="#7a8b99" stroke-width="34" stroke-linecap="round" opacity=".72"/><path d="M178 196 L133 114 L221 170 Z" fill="#7a8b99" opacity=".8"/><path d="M334 196 L379 114 L291 170 Z" fill="#7a8b99" opacity=".8"/><path d="M151 500 C116 338 160 190 256 170 C352 190 396 338 361 500 C320 466 291 532 256 490 C221 532 192 466 151 500Z" fill="url(#body896)" filter="url(#shadow896)"/>
    <circle cx="211" cy="333" r="17" fill="#101827"/><circle cx="301" cy="333" r="17" fill="#101827"/>
    <circle cx="205" cy="327" r="5" fill="#fff" opacity=".75"/><circle cx="295" cy="327" r="5" fill="#fff" opacity=".75"/>
    <path d="M206 410 Q256 442 306 410" stroke="#344450" stroke-width="12" fill="none" stroke-linecap="round" opacity=".72"/>
    <path d="M188 560 C228 600 288 600 326 560" stroke="#fff" stroke-width="12" stroke-linecap="round" opacity=".18" fill="none"/>
  </g>
  <path d="M72 128 C168 68 334 66 440 128" stroke="#fff" stroke-width="16" stroke-linecap="round" opacity=".16"/>
  <path d="M60 678 C164 722 348 718 452 662" stroke="#fff" stroke-width="14" stroke-linecap="round" opacity=".16"/>
</svg>