<svg xmlns="http://www.w3.org/2000/svg" viewBox="0 0 512 768" role="img" aria-label="虹光凤凰 unique portrait">
  <defs>
    <linearGradient id="bg897" x1="0" y1="0" x2="1" y2="1"><stop offset="0" stop-color="#fff7bf"/><stop offset=".55" stop-color="#f7d154"/><stop offset="1" stop-color="#355c9c"/></linearGradient>
    <radialGradient id="body897" cx=".35" cy=".24" r=".78"><stop offset="0" stop-color="#fff" stop-opacity=".88"/><stop offset=".18" stop-color="#fff7bf"/><stop offset=".68" stop-color="#f7d154"/><stop offset="1" stop-color="#355c9c"/></radialGradient>
    <filter id="shadow897" x="-30%" y="-30%" width="160%" height="160%"><feDropShadow dx="0" dy="10" stdDeviation="9" flood-color="#355c9c" flood-opacity=".36"/></filter>
  </defs>
  <rect width="512" height="768" rx="48" fill="url(#bg897)"/>
  <rect x="24" y="24" width="464" height="720" rx="40" fill="#fff" opacity=".08"/>
  <g opacity=".46"><circle cx="50" cy="585" r="2.5" fill="#fff" opacity="0.50"/><circle cx="305" cy="375" r="1.5" fill="#fff" opacity="0.55"/><circle cx="275" cy="528" r="4.2" fill="#fff" opacity="0.56"/><circle cx="408" cy="197" r="3.0" fill="#fff" opacity="0.25"/><circle cx="165" cy="445" r="1.6" fill="#fff" opacity="0.41"/><circle cx="251" cy="488" r="1.3" fill="#fff" opacity="0.59"/><circle cx="365" cy="172" r="4.3" fill="#fff" opacity="0.57"/><circle cx="224" cy="180" r="5.2" fill="#fff" opacity="0.50"/><circle cx="358" cy="291" r="4.3" fill="#fff" opacity="0.62"/><circle cx="412" cy="367" r="2.8" fill="#fff" opacity="0.62"/></g>
  <path d="M0 596 C80 558 128 616 202 584 C281 550 332 618 418 582 C464 563 492 570 512 586 V768 H0Z" fill="#355c9c" opacity=".22"/>
  <ellipse cx="256" cy="664" rx="154" ry="36" fill="#355c9c" opacity=".3"/>
  <g transform="translate(0 84)"><path d="M178 196 L133 114 L221 170 Z" fill="#82aaff" opacity=".8"/><path d="M334 196 L379 114 L291 170 Z" fill="#82aaff" opacity=".8"/><path d="M151 500 C116 338 160 190 256 170 C352 190 396 338 361 500 C320 466 291 532 256 490 C221 532 192 466 151 500Z" fill="url(#body897)" filter="url(#shadow897)"/>
    <circle cx="211" cy="322" r="17" fill="#355c9c"/><circle cx="301" cy="322" r="17" fill="#355c9c"/>
    <circle cx="205" cy="316" r="5" fill="#fff" opacity=".75"/><circle cx="295" cy="316" r="5" fill="#fff" opacity=".75"/>
    <path d="M214 248 Q256 284 298 248" stroke="#d5efff" stroke-width="14" fill="none" stroke-linecap="round" opacity=".74"/>
    <path d="M188 560 C228 600 288 600 326 560" stroke="#fff" stroke-width="12" stroke-linecap="round" opacity=".18" fill="none"/>
  </g>
  <path d="M72 128 C168 68 334 66 440 128" stroke="#fff" stroke-width="16" stroke-linecap="round" opacity=".16"/>
  <path d="M60 678 C164 722 348 718 452 662" stroke="#fff" stroke-width="14" stroke-linecap="round" opacity=".16"/>
</svg>