<svg xmlns="http://www.w3.org/2000/svg" viewBox="0 0 512 768" role="img" aria-label="深渊吞噬者 unique portrait">
  <defs>
    <linearGradient id="bg898" x1="0" y1="0" x2="1" y2="1"><stop offset="0" stop-color="#f0abfc"/><stop offset=".55" stop-color="#7e22ce"/><stop offset="1" stop-color="#111827"/></linearGradient>
    <radialGradient id="body898" cx=".35" cy=".24" r=".78"><stop offset="0" stop-color="#fff" stop-opacity=".88"/><stop offset=".18" stop-color="#f0abfc"/><stop offset=".68" stop-color="#7e22ce"/><stop offset="1" stop-color="#111827"/></radialGradient>
    <filter id="shadow898" x="-30%" y="-30%" width="160%" height="160%"><feDropShadow dx="0" dy="10" stdDeviation="9" flood-color="#111827" flood-opacity=".36"/></filter>
  </defs>
  <rect width="512" height="768" rx="48" fill="url(#bg898)"/>
  <rect x="24" y="24" width="464" height="720" rx="40" fill="#fff" opacity=".08"/>
  <g opacity=".46"><circle cx="255" cy="506" r="1.3" fill="#fff" opacity="0.33"/><circle cx="195" cy="147" r="5.3" fill="#fff" opacity="0.49"/><circle cx="69" cy="327" r="5.3" fill="#fff" opacity="0.23"/><circle cx="443" cy="622" r="5.1" fill="#fff" opacity="0.54"/><circle cx="340" cy="286" r="3.1" fill="#fff" opacity="0.58"/><circle cx="285" cy="269" r="3.0" fill="#fff" opacity="0.28"/><circle cx="430" cy="203" r="3.9" fill="#fff" opacity="0.58"/><circle cx="223" cy="529" r="4.0" fill="#fff" opacity="0.53"/><circle cx="393" cy="597" r="3.6" fill="#fff" opacity="0.49"/><circle cx="175" cy="508" r="4.9" fill="#fff" opacity="0.40"/><circle cx="186" cy="288" r="2.4" fill="#fff" opacity="0.38"/><circle cx="155" cy="204" r="2.6" fill="#fff" opacity="0.33"/><circle cx="401" cy="550" r="4.8" fill="#fff" opacity="0.57"/><circle cx="319" cy="165" r="2.4" fill="#fff" opacity="0.36"/></g>
  <path d="M0 596 C80 558 128 616 202 584 C281 550 332 618 418 582 C464 563 492 570 512 586 V768 H0Z" fill="#111827" opacity=".22"/>
  <ellipse cx="256" cy="664" rx="154" ry="36" fill="#111827" opacity=".3"/>
  <g transform="translate(0 84)"><path d="M148 520 C118 346 156 196 256 164 C356 196 394 346 364 520 C326 488 292 532 256 496 C220 532 186 488 148 520Z" fill="url(#body898)" filter="url(#shadow898)"/>
    <circle cx="214" cy="320" r="17" fill="#111827"/><circle cx="298" cy="320" r="17" fill="#111827"/>
    <circle cx="208" cy="314" r="5" fill="#fff" opacity=".75"/><circle cx="292" cy="314" r="5" fill="#fff" opacity=".75"/>
    <path d="M214 248 Q256 284 298 248" stroke="#8a8f98" stroke-width="14" fill="none" stroke-linecap="round" opacity=".74"/>
    <path d="M188 560 C228 600 288 600 326 560" stroke="#fff" stroke-width="12" stroke-linecap="round" opacity=".18" fill="none"/>
  </g>
  <path d="M72 128 C168 68 334 66 440 128" stroke="#fff" stroke-width="16" stroke-linecap="round" opacity=".16"/>
  <path d="M60 678 C164 722 348 718 452 662" stroke="#fff" stroke-width="14" stroke-linecap="round" opacity=".16"/>
</svg>