<svg xmlns="http://www.w3.org/2000/svg" viewBox="0 0 512 768" role="img" aria-label="永劫时龙 unique portrait">
  <defs>
    <linearGradient id="bg899" x1="0" y1="0" x2="1" y2="1"><stop offset="0" stop-color="#e9d5ff"/><stop offset=".55" stop-color="#8b5cf6"/><stop offset="1" stop-color="#2b247a"/></linearGradient>
    <radialGradient id="body899" cx=".35" cy=".24" r=".78"><stop offset="0" stop-color="#fff" stop-opacity=".88"/><stop offset=".18" stop-color="#e9d5ff"/><stop offset=".68" stop-color="#8b5cf6"/><stop offset="1" stop-color="#2b247a"/></radialGradient>
    <filter id="shadow899" x="-30%" y="-30%" width="160%" height="160%"><feDropShadow dx="0" dy="10" stdDeviation="9" flood-color="#2b247a" flood-opacity=".36"/></filter>
  </defs>
  <rect width="512" height="768" rx="48" fill="url(#bg899)"/>
  <rect x="24" y="24" width="464" height="720" rx="40" fill="#fff" opacity=".08"/>
  <g opacity=".46"><circle cx="444" cy="453" r="4.9" fill="#fff" opacity="0.46"/><circle cx="44" cy="441" r="4.8" fill="#fff" opacity="0.29"/><circle cx="414" cy="134" r="4.3" fill="#fff" opacity="0.40"/><circle cx="463" cy="546" r="4.7" fill="#fff" opacity="0.37"/><circle cx="181" cy="516" r="2.9" fill="#fff" opacity="0.58"/><circle cx="236" cy="136" r="3.9" fill="#fff" opacity="0.28"/><circle cx="167" cy="562" r="3.2" fill="#fff" opacity="0.57"/><circle cx="154" cy="300" r="5.4" fill="#fff" opacity="0.49"/><circle cx="320" cy="289" r="4.4" fill="#fff" opacity="0.42"/><circle cx="390" cy="582" r="1.2" fill="#fff" opacity="0.40"/><circle cx="115" cy="61" r="2.0" fill="#fff" opacity="0.48"/><circle cx="435" cy="286" r="3.1" fill="#fff" opacity="0.24"/><circle cx="324" cy="96" r="1.7" fill="#fff" opacity="0.49"/><circle cx="231" cy="549" r="3.6" fill="#fff" opacity="0.40"/><circle cx="301" cy="397" r="4.9" fill="#fff" opacity="0.23"/></g>
  <path d="M0 596 C80 558 128 616 202 584 C281 550 332 618 418 582 C464 563 492 570 512 586 V768 H0Z" fill="#2b247a" opacity=".22"/>
  <ellipse cx="256" cy="664" rx="154" ry="36" fill="#2b247a" opacity=".3"/>
  <g transform="translate(0 84)"><path d="M151 500 C116 338 160 190 256 170 C352 190 396 338 361 500 C320 466 291 532 256 490 C221 532 192 466 151 500Z" fill="url(#body899)" filter="url(#shadow899)"/>
    <circle cx="214" cy="333" r="17" fill="#101827"/><circle cx="298" cy="333" r="17" fill="#101827"/>
    <circle cx="208" cy="327" r="5" fill="#fff" opacity=".75"/><circle cx="292" cy="327" r="5" fill="#fff" opacity=".75"/>
    <path d="M206 410 Q256 442 306 410" stroke="#2b247a" stroke-width="12" fill="none" stroke-linecap="round" opacity=".72"/>
    <path d="M188 560 C228 600 288 600 326 560" stroke="#fff" stroke-width="12" stroke-linecap="round" opacity=".18" fill="none"/>
  </g>
  <path d="M72 128 C168 68 334 66 440 128" stroke="#fff" stroke-width="16" stroke-linecap="round" opacity=".16"/>
  <path d="M60 678 C164 722 348 718 452 662" stroke="#fff" stroke-width="14" stroke-linecap="round" opacity=".16"/>
</svg>