<svg xmlns="http://www.w3.org/2000/svg" viewBox="0 0 512 768" role="img" aria-label="始源混沌神 unique portrait">
  <defs>
    <linearGradient id="bg900" x1="0" y1="0" x2="1" y2="1"><stop offset="0" stop-color="#f0abfc"/><stop offset=".55" stop-color="#7e22ce"/><stop offset="1" stop-color="#7c2d12"/></linearGradient>
    <radialGradient id="body900" cx=".35" cy=".24" r=".78"><stop offset="0" stop-color="#fff" stop-opacity=".88"/><stop offset=".18" stop-color="#f0abfc"/><stop offset=".68" stop-color="#7e22ce"/><stop offset="1" stop-color="#7c2d12"/></radialGradient>
    <filter id="shadow900" x="-30%" y="-30%" width="160%" height="160%"><feDropShadow dx="0" dy="10" stdDeviation="9" flood-color="#7c2d12" flood-opacity=".36"/></filter>
  </defs>
  <rect width="512" height="768" rx="48" fill="url(#bg900)"/>
  <rect x="24" y="24" width="464" height="720" rx="40" fill="#fff" opacity=".08"/>
  <g opacity=".46"><circle cx="452" cy="236" r="3.9" fill="#fff" opacity="0.32"/><circle cx="195" cy="299" r="4.9" fill="#fff" opacity="0.49"/><circle cx="86" cy="394" r="1.2" fill="#fff" opacity="0.32"/><circle cx="343" cy="578" r="4.0" fill="#fff" opacity="0.28"/><circle cx="236" cy="330" r="5.3" fill="#fff" opacity="0.44"/><circle cx="210" cy="385" r="3.3" fill="#fff" opacity="0.34"/><circle cx="279" cy="346" r="1.5" fill="#fff" opacity="0.39"/><circle cx="94" cy="133" r="4.0" fill="#fff" opacity="0.44"/><circle cx="464" cy="247" r="4.6" fill="#fff" opacity="0.57"/><circle cx="222" cy="171" r="4.3" fill="#fff" opacity="0.51"/><circle cx="149" cy="272" r="3.4" fill="#fff" opacity="0.37"/><circle cx="47" cy="142" r="3.5" fill="#fff" opacity="0.40"/><circle cx="339" cy="424" r="2.1" fill="#fff" opacity="0.61"/><circle cx="109" cy="197" r="3.6" fill="#fff" opacity="0.47"/><circle cx="420" cy="165" r="5.4" fill="#fff" opacity="0.54"/><circle cx="433" cy="536" r="5.2" fill="#fff" opacity="0.54"/></g>
  <path d="M0 596 C80 558 128 616 202 584 C281 550 332 618 418 582 C464 563 492 570 512 586 V768 H0Z" fill="#7c2d12" opacity=".22"/>
  <ellipse cx="256" cy="664" rx="154" ry="36" fill="#7c2d12" opacity=".3"/>
  <g transform="translate(0 84)"><path d="M178 196 L133 114 L221 170 Z" fill="#f59e0b" opacity=".8"/><path d="M334 196 L379 114 L291 170 Z" fill="#f59e0b" opacity=".8"/><path d="M151 500 C116 338 160 190 256 170 C352 190 396 338 361 500 C320 466 291 532 256 490 C221 532 192 466 151 500Z" fill="url(#body900)" filter="url(#shadow900)"/>
    <circle cx="211" cy="340" r="17" fill="#7c2d12"/><circle cx="301" cy="340" r="17" fill="#7c2d12"/>
    <circle cx="205" cy="334" r="5" fill="#fff" opacity=".75"/><circle cx="295" cy="334" r="5" fill="#fff" opacity=".75"/>
    <path d="M206 410 Q256 442 306 410" stroke="#7c2d12" stroke-width="12" fill="none" stroke-linecap="round" opacity=".72"/>
    <path d="M188 560 C228 600 288 600 326 560" stroke="#fff" stroke-width="12" stroke-linecap="round" opacity=".18" fill="none"/>
  </g>
  <path d="M72 128 C168 68 334 66 440 128" stroke="#fff" stroke-width="16" stroke-linecap="round" opacity=".16"/>
  <path d="M60 678 C164 722 348 718 452 662" stroke="#fff" stroke-width="14" stroke-linecap="round" opacity=".16"/>
</svg>