<svg xmlns="http://www.w3.org/2000/svg" viewBox="0 0 512 768" role="img" aria-label="雾鹿灵 unique portrait">
  <defs>
    <linearGradient id="bg901" x1="0" y1="0" x2="1" y2="1"><stop offset="0" stop-color="#9be7ff"/><stop offset=".55" stop-color="#2f80ed"/><stop offset="1" stop-color="#80305d"/></linearGradient>
    <radialGradient id="body901" cx=".35" cy=".24" r=".78"><stop offset="0" stop-color="#fff" stop-opacity=".88"/><stop offset=".18" stop-color="#9be7ff"/><stop offset=".68" stop-color="#2f80ed"/><stop offset="1" stop-color="#80305d"/></radialGradient>
    <filter id="shadow901" x="-30%" y="-30%" width="160%" height="160%"><feDropShadow dx="0" dy="10" stdDeviation="9" flood-color="#80305d" flood-opacity=".36"/></filter>
  </defs>
  <rect width="512" height="768" rx="48" fill="url(#bg901)"/>
  <rect x="24" y="24" width="464" height="720" rx="40" fill="#fff" opacity=".08"/>
  <g opacity=".46"><circle cx="147" cy="465" r="3.5" fill="#fff" opacity="0.28"/><circle cx="226" cy="325" r="2.0" fill="#fff" opacity="0.23"/><circle cx="61" cy="490" r="5.3" fill="#fff" opacity="0.43"/><circle cx="361" cy="533" r="2.8" fill="#fff" opacity="0.52"/><circle cx="176" cy="185" r="2.9" fill="#fff" opacity="0.45"/><circle cx="381" cy="488" r="3.3" fill="#fff" opacity="0.61"/><circle cx="400" cy="545" r="1.7" fill="#fff" opacity="0.26"/><circle cx="309" cy="293" r="4.4" fill="#fff" opacity="0.23"/><circle cx="287" cy="213" r="1.3" fill="#fff" opacity="0.30"/><circle cx="274" cy="298" r="4.1" fill="#fff" opacity="0.57"/><circle cx="415" cy="110" r="1.3" fill="#fff" opacity="0.27"/><circle cx="91" cy="453" r="2.8" fill="#fff" opacity="0.25"/><circle cx="330" cy="180" r="4.5" fill="#fff" opacity="0.57"/><circle cx="165" cy="335" r="1.4" fill="#fff" opacity="0.23"/><circle cx="286" cy="67" r="4.3" fill="#fff" opacity="0.51"/><circle cx="341" cy="519" r="3.9" fill="#fff" opacity="0.50"/><circle cx="197" cy="81" r="4.1" fill="#fff" opacity="0.39"/></g>
  <path d="M0 596 C80 558 128 616 202 584 C281 550 332 618 418 582 C464 563 492 570 512 586 V768 H0Z" fill="#80305d" opacity=".22"/>
  <ellipse cx="256" cy="664" rx="154" ry="36" fill="#80305d" opacity=".3"/>
  <g transform="translate(0 84)"><path d="M156 354 C66 314 56 218 150 238 C126 274 138 319 190 338 Z" fill="#ff5fa2" opacity=".58"/><path d="M356 354 C446 314 456 218 362 238 C386 274 374 319 322 338 Z" fill="#ff5fa2" opacity=".58"/><path d="M151 500 C116 338 160 190 256 170 C352 190 396 338 361 500 C320 466 291 532 256 490 C221 532 192 466 151 500Z" fill="url(#body901)" filter="url(#shadow901)"/>
    <circle cx="210" cy="332" r="17" fill="#101827"/><circle cx="302" cy="332" r="17" fill="#101827"/>
    <circle cx="204" cy="326" r="5" fill="#fff" opacity=".75"/><circle cx="296" cy="326" r="5" fill="#fff" opacity=".75"/>
    <path d="M206 410 Q256 442 306 410" stroke="#80305d" stroke-width="12" fill="none" stroke-linecap="round" opacity=".72"/>
    <path d="M188 560 C228 600 288 600 326 560" stroke="#fff" stroke-width="12" stroke-linecap="round" opacity=".18" fill="none"/>
  </g>
  <path d="M72 128 C168 68 334 66 440 128" stroke="#fff" stroke-width="16" stroke-linecap="round" opacity=".16"/>
  <path d="M60 678 C164 722 348 718 452 662" stroke="#fff" stroke-width="14" stroke-linecap="round" opacity=".16"/>
</svg>