<svg xmlns="http://www.w3.org/2000/svg" viewBox="0 0 512 768" role="img" aria-label="雾隐幼灵 unique portrait">
  <defs>
    <linearGradient id="bg902" x1="0" y1="0" x2="1" y2="1"><stop offset="0" stop-color="#c6b6ff"/><stop offset=".55" stop-color="#5b4b8a"/><stop offset="1" stop-color="#8a2f68"/></linearGradient>
    <radialGradient id="body902" cx=".35" cy=".24" r=".78"><stop offset="0" stop-color="#fff" stop-opacity=".88"/><stop offset=".18" stop-color="#c6b6ff"/><stop offset=".68" stop-color="#5b4b8a"/><stop offset="1" stop-color="#8a2f68"/></radialGradient>
    <filter id="shadow902" x="-30%" y="-30%" width="160%" height="160%"><feDropShadow dx="0" dy="10" stdDeviation="9" flood-color="#8a2f68" flood-opacity=".36"/></filter>
  </defs>
  <rect width="512" height="768" rx="48" fill="url(#bg902)"/>
  <rect x="24" y="24" width="464" height="720" rx="40" fill="#fff" opacity=".08"/>
  <g opacity=".46"><circle cx="175" cy="183" r="5.0" fill="#fff" opacity="0.54"/><circle cx="119" cy="605" r="4.8" fill="#fff" opacity="0.53"/><circle cx="404" cy="352" r="3.0" fill="#fff" opacity="0.59"/><circle cx="162" cy="115" r="2.5" fill="#fff" opacity="0.34"/><circle cx="205" cy="275" r="3.8" fill="#fff" opacity="0.29"/><circle cx="278" cy="526" r="4.6" fill="#fff" opacity="0.36"/><circle cx="162" cy="236" r="2.3" fill="#fff" opacity="0.49"/><circle cx="358" cy="271" r="1.2" fill="#fff" opacity="0.45"/><circle cx="290" cy="603" r="1.8" fill="#fff" opacity="0.38"/><circle cx="327" cy="160" r="1.8" fill="#fff" opacity="0.45"/><circle cx="96" cy="222" r="5.4" fill="#fff" opacity="0.59"/><circle cx="199" cy="164" r="4.9" fill="#fff" opacity="0.23"/><circle cx="193" cy="363" r="2.6" fill="#fff" opacity="0.26"/><circle cx="141" cy="352" r="3.8" fill="#fff" opacity="0.53"/><circle cx="109" cy="627" r="3.5" fill="#fff" opacity="0.49"/><circle cx="287" cy="629" r="4.7" fill="#fff" opacity="0.55"/><circle cx="193" cy="460" r="4.1" fill="#fff" opacity="0.26"/></g>
  <path d="M0 596 C80 558 128 616 202 584 C281 550 332 618 418 582 C464 563 492 570 512 586 V768 H0Z" fill="#8a2f68" opacity=".22"/>
  <ellipse cx="256" cy="664" rx="154" ry="36" fill="#8a2f68" opacity=".3"/>
  <g transform="translate(0 84)"><path d="M156 354 C66 314 56 218 150 238 C126 274 138 319 190 338 Z" fill="#ff8bd6" opacity=".58"/><path d="M356 354 C446 314 456 218 362 238 C386 274 374 319 322 338 Z" fill="#ff8bd6" opacity=".58"/><path d="M151 500 C116 338 160 190 256 170 C352 190 396 338 361 500 C320 466 291 532 256 490 C221 532 192 466 151 500Z" fill="url(#body902)" filter="url(#shadow902)"/>
    <circle cx="215" cy="322" r="17" fill="#101827"/><circle cx="297" cy="322" r="17" fill="#101827"/>
    <circle cx="209" cy="316" r="5" fill="#fff" opacity=".75"/><circle cx="291" cy="316" r="5" fill="#fff" opacity=".75"/>
    <path d="M206 410 Q256 442 306 410" stroke="#8a2f68" stroke-width="12" fill="none" stroke-linecap="round" opacity=".72"/>
    <path d="M188 560 C228 600 288 600 326 560" stroke="#fff" stroke-width="12" stroke-linecap="round" opacity=".18" fill="none"/>
  </g>
  <path d="M72 128 C168 68 334 66 440 128" stroke="#fff" stroke-width="16" stroke-linecap="round" opacity=".16"/>
  <path d="M60 678 C164 722 348 718 452 662" stroke="#fff" stroke-width="14" stroke-linecap="round" opacity=".16"/>
</svg>