<svg xmlns="http://www.w3.org/2000/svg" viewBox="0 0 512 768" role="img" aria-label="灾厄幼灵 unique portrait">
  <defs>
    <linearGradient id="bg903" x1="0" y1="0" x2="1" y2="1"><stop offset="0" stop-color="#ffd166"/><stop offset=".55" stop-color="#ff6b35"/><stop offset="1" stop-color="#80305d"/></linearGradient>
    <radialGradient id="body903" cx=".35" cy=".24" r=".78"><stop offset="0" stop-color="#fff" stop-opacity=".88"/><stop offset=".18" stop-color="#ffd166"/><stop offset=".68" stop-color="#ff6b35"/><stop offset="1" stop-color="#80305d"/></radialGradient>
    <filter id="shadow903" x="-30%" y="-30%" width="160%" height="160%"><feDropShadow dx="0" dy="10" stdDeviation="9" flood-color="#80305d" flood-opacity=".36"/></filter>
  </defs>
  <rect width="512" height="768" rx="48" fill="url(#bg903)"/>
  <rect x="24" y="24" width="464" height="720" rx="40" fill="#fff" opacity=".08"/>
  <g opacity=".46"><circle cx="91" cy="300" r="3.3" fill="#fff" opacity="0.22"/><circle cx="186" cy="523" r="2.7" fill="#fff" opacity="0.40"/><circle cx="138" cy="452" r="1.2" fill="#fff" opacity="0.45"/><circle cx="195" cy="318" r="2.5" fill="#fff" opacity="0.42"/><circle cx="138" cy="228" r="2.8" fill="#fff" opacity="0.39"/><circle cx="146" cy="228" r="1.8" fill="#fff" opacity="0.34"/><circle cx="361" cy="461" r="3.1" fill="#fff" opacity="0.24"/><circle cx="98" cy="484" r="1.8" fill="#fff" opacity="0.31"/><circle cx="419" cy="93" r="4.5" fill="#fff" opacity="0.42"/><circle cx="57" cy="214" r="2.1" fill="#fff" opacity="0.26"/><circle cx="51" cy="361" r="4.7" fill="#fff" opacity="0.35"/><circle cx="183" cy="193" r="4.8" fill="#fff" opacity="0.36"/><circle cx="201" cy="289" r="2.1" fill="#fff" opacity="0.34"/></g>
  <path d="M0 596 C80 558 128 616 202 584 C281 550 332 618 418 582 C464 563 492 570 512 586 V768 H0Z" fill="#80305d" opacity=".22"/>
  <ellipse cx="256" cy="664" rx="154" ry="36" fill="#80305d" opacity=".3"/>
  <g transform="translate(0 84)"><path d="M316 492 C426 508 425 604 334 594 C391 562 368 528 302 536" fill="none" stroke="#ff5fa2" stroke-width="34" stroke-linecap="round" opacity=".72"/><path d="M178 196 L133 114 L221 170 Z" fill="#ff5fa2" opacity=".8"/><path d="M334 196 L379 114 L291 170 Z" fill="#ff5fa2" opacity=".8"/><path d="M151 500 C116 338 160 190 256 170 C352 190 396 338 361 500 C320 466 291 532 256 490 C221 532 192 466 151 500Z" fill="url(#body903)" filter="url(#shadow903)"/>
    <circle cx="212" cy="326" r="17" fill="#101827"/><circle cx="300" cy="326" r="17" fill="#101827"/>
    <circle cx="206" cy="320" r="5" fill="#fff" opacity=".75"/><circle cx="294" cy="320" r="5" fill="#fff" opacity=".75"/>
    <path d="M206 410 Q256 442 306 410" stroke="#80305d" stroke-width="12" fill="none" stroke-linecap="round" opacity=".72"/>
    <path d="M188 560 C228 600 288 600 326 560" stroke="#fff" stroke-width="12" stroke-linecap="round" opacity=".18" fill="none"/>
  </g>
  <path d="M72 128 C168 68 334 66 440 128" stroke="#fff" stroke-width="16" stroke-linecap="round" opacity=".16"/>
  <path d="M60 678 C164 722 348 718 452 662" stroke="#fff" stroke-width="14" stroke-linecap="round" opacity=".16"/>
</svg>