<svg xmlns="http://www.w3.org/2000/svg" viewBox="0 0 512 768" role="img" aria-label="火焰神鸟 original portrait">
  
  <defs>
    <linearGradient id="bgp93" x1="0" y1="0" x2="1" y2="1">
      <stop offset="0" stop-color="#ffd166"/>
      <stop offset=".55" stop-color="#ff6b35"/>
      <stop offset="1" stop-color="#a92d1d"/>
    </linearGradient>
    <radialGradient id="body" cx=".36" cy=".25" r=".76">
      <stop offset="0" stop-color="#ffd166"/>
      <stop offset=".6" stop-color="#ff6b35"/>
      <stop offset="1" stop-color="#a92d1d"/>
    </radialGradient>
    <radialGradient id="head" cx=".36" cy=".26" r=".72">
      <stop offset="0" stop-color="#ffffff" stop-opacity=".85"/>
      <stop offset=".2" stop-color="#ffd166"/>
      <stop offset=".72" stop-color="#ff6b35"/>
      <stop offset="1" stop-color="#a92d1d"/>
    </radialGradient>
    <filter id="softShadow" x="-30%" y="-30%" width="160%" height="160%">
      <feDropShadow dx="0" dy="8" stdDeviation="8" flood-color="#a92d1d" flood-opacity=".35"/>
    </filter>
  </defs>
  <rect width="512" height="768" rx="48" fill="url(#bgp93)"/>
  <rect x="24" y="24" width="464" height="720" rx="40" fill="#ffffff" opacity=".08"/>
  <g opacity=".42"><circle cx="382" cy="98" r="1.9" fill="#fff" opacity="0.31"/><circle cx="249" cy="233" r="1.0" fill="#fff" opacity="0.25"/><circle cx="231" cy="407" r="2.8" fill="#fff" opacity="0.39"/><circle cx="426" cy="666" r="1.0" fill="#fff" opacity="0.59"/><circle cx="206" cy="460" r="1.8" fill="#fff" opacity="0.46"/><circle cx="483" cy="57" r="2.7" fill="#fff" opacity="0.28"/><circle cx="161" cy="371" r="2.5" fill="#fff" opacity="0.43"/><circle cx="378" cy="686" r="2.6" fill="#fff" opacity="0.27"/><circle cx="30" cy="334" r="2.6" fill="#fff" opacity="0.26"/><circle cx="71" cy="648" r="1.2" fill="#fff" opacity="0.62"/><circle cx="239" cy="69" r="1.0" fill="#fff" opacity="0.59"/><circle cx="103" cy="755" r="2.4" fill="#fff" opacity="0.53"/><circle cx="461" cy="627" r="2.7" fill="#fff" opacity="0.43"/><circle cx="175" cy="86" r="1.4" fill="#fff" opacity="0.25"/><circle cx="244" cy="157" r="2.3" fill="#fff" opacity="0.38"/><circle cx="245" cy="673" r="1.8" fill="#fff" opacity="0.61"/><circle cx="341" cy="487" r="1.2" fill="#fff" opacity="0.34"/><circle cx="425" cy="42" r="1.5" fill="#fff" opacity="0.64"/><circle cx="318" cy="335" r="1.2" fill="#fff" opacity="0.49"/><circle cx="298" cy="206" r="1.4" fill="#fff" opacity="0.44"/><circle cx="317" cy="5" r="1.9" fill="#fff" opacity="0.44"/><circle cx="301" cy="758" r="2.7" fill="#fff" opacity="0.51"/><circle cx="498" cy="391" r="1.4" fill="#fff" opacity="0.39"/><circle cx="112" cy="124" r="0.9" fill="#fff" opacity="0.26"/><circle cx="386" cy="664" r="2.6" fill="#fff" opacity="0.56"/><circle cx="85" cy="409" r="2.6" fill="#fff" opacity="0.52"/><circle cx="455" cy="687" r="3.2" fill="#fff" opacity="0.49"/><circle cx="490" cy="626" r="1.6" fill="#fff" opacity="0.69"/></g>
  <path d="M0 620 C92 590 171 620 259 600 C357 577 432 594 512 565 V768 H0Z" fill="#fff" opacity=".18"/>
  <ellipse cx="256" cy="662" rx="150" ry="34" fill="#a92d1d" opacity=".28"/>
  <g transform="translate(0 122)">
    <path d="M219.1 306.4 C65.35000000000002 187.5 67.4 392.5 206.8 400.7" fill="#ff6b35" opacity=".78"/><path d="M292.9 306.4 C446.65 187.5 444.6 392.5 305.2 400.7" fill="#ff6b35" opacity=".78"/><ellipse cx="256" cy="343.3" rx="86.1" ry="110.69999999999999" fill="url(#body)" filter="url(#softShadow)"/><circle cx="256" cy="228.5" r="77.89999999999999" fill="url(#head)"/><path d="M245.75 226.45 L331.85 249 L249.85 269.5 Z" fill="#ffd166"/><path d="M210.9 154.70000000000002 C239.6 89.10000000000002 280.6 109.60000000000002 260.1 167" fill="#a92d1d" opacity=".85"/><ellipse cx="223.2" cy="253.1" rx="14.349999999999998" ry="16.4" fill="#14213d"/><ellipse cx="288.8" cy="253.1" rx="14.349999999999998" ry="16.4" fill="#14213d"/><circle cx="229.35" cy="244.9" r="4.714999999999999" fill="#fff"/><circle cx="294.95" cy="244.9" r="4.714999999999999" fill="#fff"/><path d="M215 201.85000000000002 Q256 224.4 297 201.85000000000002" stroke="#ffd166" stroke-width="10.25" fill="none" stroke-linecap="round" opacity=".8"/>
  </g>
  <path d="M74 126 C170 65 334 65 438 126" stroke="#fff" stroke-width="16" stroke-linecap="round" opacity=".16"/>
  <path d="M63 676 C162 718 344 718 449 662" stroke="#fff" stroke-width="14" stroke-linecap="round" opacity=".16"/>
</svg>