<svg xmlns="http://www.w3.org/2000/svg" viewBox="0 0 512 768" role="img" aria-label="超能主宰 original portrait">
  
  <defs>
    <linearGradient id="bgp94" x1="0" y1="0" x2="1" y2="1">
      <stop offset="0" stop-color="#ffd0ec"/>
      <stop offset=".55" stop-color="#e056a7"/>
      <stop offset="1" stop-color="#6d327d"/>
    </linearGradient>
    <radialGradient id="body" cx=".36" cy=".25" r=".76">
      <stop offset="0" stop-color="#ffd0ec"/>
      <stop offset=".6" stop-color="#e056a7"/>
      <stop offset="1" stop-color="#6d327d"/>
    </radialGradient>
    <radialGradient id="head" cx=".36" cy=".26" r=".72">
      <stop offset="0" stop-color="#ffffff" stop-opacity=".85"/>
      <stop offset=".2" stop-color="#ffd0ec"/>
      <stop offset=".72" stop-color="#e056a7"/>
      <stop offset="1" stop-color="#6d327d"/>
    </radialGradient>
    <filter id="softShadow" x="-30%" y="-30%" width="160%" height="160%">
      <feDropShadow dx="0" dy="8" stdDeviation="8" flood-color="#6d327d" flood-opacity=".35"/>
    </filter>
  </defs>
  <rect width="512" height="768" rx="48" fill="url(#bgp94)"/>
  <rect x="24" y="24" width="464" height="720" rx="40" fill="#ffffff" opacity=".08"/>
  <g opacity=".42"><circle cx="61" cy="298" r="0.8" fill="#fff" opacity="0.63"/><circle cx="310" cy="482" r="1.0" fill="#fff" opacity="0.47"/><circle cx="9" cy="258" r="2.6" fill="#fff" opacity="0.60"/><circle cx="367" cy="735" r="1.7" fill="#fff" opacity="0.39"/><circle cx="383" cy="663" r="2.9" fill="#fff" opacity="0.57"/><circle cx="386" cy="322" r="1.5" fill="#fff" opacity="0.27"/><circle cx="474" cy="184" r="0.9" fill="#fff" opacity="0.62"/><circle cx="387" cy="235" r="1.3" fill="#fff" opacity="0.68"/><circle cx="307" cy="608" r="2.1" fill="#fff" opacity="0.49"/><circle cx="249" cy="732" r="0.8" fill="#fff" opacity="0.33"/><circle cx="284" cy="523" r="2.9" fill="#fff" opacity="0.58"/><circle cx="426" cy="638" r="1.6" fill="#fff" opacity="0.28"/><circle cx="234" cy="563" r="3.0" fill="#fff" opacity="0.46"/><circle cx="97" cy="651" r="3.1" fill="#fff" opacity="0.42"/><circle cx="423" cy="486" r="1.0" fill="#fff" opacity="0.34"/><circle cx="129" cy="225" r="1.3" fill="#fff" opacity="0.58"/><circle cx="48" cy="502" r="1.7" fill="#fff" opacity="0.47"/><circle cx="13" cy="431" r="2.0" fill="#fff" opacity="0.48"/><circle cx="288" cy="524" r="2.7" fill="#fff" opacity="0.51"/><circle cx="26" cy="278" r="1.9" fill="#fff" opacity="0.40"/><circle cx="449" cy="743" r="3.0" fill="#fff" opacity="0.55"/><circle cx="246" cy="697" r="1.8" fill="#fff" opacity="0.39"/><circle cx="301" cy="715" r="1.0" fill="#fff" opacity="0.45"/><circle cx="41" cy="95" r="2.3" fill="#fff" opacity="0.28"/><circle cx="485" cy="233" r="2.4" fill="#fff" opacity="0.42"/><circle cx="10" cy="553" r="2.6" fill="#fff" opacity="0.33"/><circle cx="65" cy="652" r="2.4" fill="#fff" opacity="0.33"/><circle cx="250" cy="472" r="2.4" fill="#fff" opacity="0.42"/></g>
  <path d="M38 684 C128 596 386 596 475 684 V768 H38Z" fill="#6d327d" opacity=".17"/>
  <ellipse cx="256" cy="662" rx="150" ry="34" fill="#6d327d" opacity=".28"/>
  <g transform="translate(0 122)">
    <ellipse cx="256" cy="359.7" rx="110.69999999999999" ry="100.44999999999999" fill="url(#body)" filter="url(#softShadow)"/><circle cx="256" cy="232.60000000000002" r="86.1" fill="url(#head)"/><path d="M149.4 322.8 C51.00000000000003 304.35 85.85000000000002 423.25 165.8 402.75" fill="#6d327d"/><path d="M362.6 322.8 C461 304.35 426.15 423.25 346.2 402.75" fill="#6d327d"/><path d="M200.65 148.55 H311.35 L331.85 195.7 Q256 224.4 180.15 195.7 Z" fill="#ffd0ec" opacity=".85"/><ellipse cx="223.2" cy="253.1" rx="14.349999999999998" ry="16.4" fill="#14213d"/><ellipse cx="288.8" cy="253.1" rx="14.349999999999998" ry="16.4" fill="#14213d"/><circle cx="229.35" cy="244.9" r="4.714999999999999" fill="#fff"/><circle cx="294.95" cy="244.9" r="4.714999999999999" fill="#fff"/><circle cx="256" cy="210.05" r="14.349999999999998" fill="#ffd0ec" opacity=".9"/>
  </g>
  <path d="M74 126 C170 65 334 65 438 126" stroke="#fff" stroke-width="16" stroke-linecap="round" opacity=".16"/>
  <path d="M63 676 C162 718 344 718 449 662" stroke="#fff" stroke-width="14" stroke-linecap="round" opacity=".16"/>
</svg>