<svg xmlns="http://www.w3.org/2000/svg" viewBox="0 0 512 768" role="img" aria-label="幻之基因 original portrait">
  
  <defs>
    <linearGradient id="bgp95" x1="0" y1="0" x2="1" y2="1">
      <stop offset="0" stop-color="#ffd0ec"/>
      <stop offset=".55" stop-color="#e056a7"/>
      <stop offset="1" stop-color="#6d327d"/>
    </linearGradient>
    <radialGradient id="body" cx=".36" cy=".25" r=".76">
      <stop offset="0" stop-color="#ffd0ec"/>
      <stop offset=".6" stop-color="#e056a7"/>
      <stop offset="1" stop-color="#6d327d"/>
    </radialGradient>
    <radialGradient id="head" cx=".36" cy=".26" r=".72">
      <stop offset="0" stop-color="#ffffff" stop-opacity=".85"/>
      <stop offset=".2" stop-color="#ffd0ec"/>
      <stop offset=".72" stop-color="#e056a7"/>
      <stop offset="1" stop-color="#6d327d"/>
    </radialGradient>
    <filter id="softShadow" x="-30%" y="-30%" width="160%" height="160%">
      <feDropShadow dx="0" dy="8" stdDeviation="8" flood-color="#6d327d" flood-opacity=".35"/>
    </filter>
  </defs>
  <rect width="512" height="768" rx="48" fill="url(#bgp95)"/>
  <rect x="24" y="24" width="464" height="720" rx="40" fill="#ffffff" opacity=".08"/>
  <g opacity=".42"><circle cx="7" cy="761" r="2.6" fill="#fff" opacity="0.49"/><circle cx="101" cy="79" r="2.8" fill="#fff" opacity="0.59"/><circle cx="367" cy="697" r="2.4" fill="#fff" opacity="0.56"/><circle cx="249" cy="405" r="2.2" fill="#fff" opacity="0.69"/><circle cx="289" cy="158" r="2.6" fill="#fff" opacity="0.50"/><circle cx="106" cy="58" r="3.1" fill="#fff" opacity="0.62"/><circle cx="391" cy="685" r="2.0" fill="#fff" opacity="0.56"/><circle cx="239" cy="321" r="1.0" fill="#fff" opacity="0.50"/><circle cx="135" cy="368" r="2.7" fill="#fff" opacity="0.42"/><circle cx="433" cy="367" r="1.4" fill="#fff" opacity="0.51"/><circle cx="219" cy="136" r="2.0" fill="#fff" opacity="0.59"/><circle cx="176" cy="660" r="2.0" fill="#fff" opacity="0.59"/><circle cx="312" cy="451" r="1.8" fill="#fff" opacity="0.45"/><circle cx="149" cy="269" r="3.2" fill="#fff" opacity="0.48"/><circle cx="142" cy="284" r="1.7" fill="#fff" opacity="0.42"/><circle cx="130" cy="406" r="2.9" fill="#fff" opacity="0.43"/><circle cx="490" cy="159" r="2.7" fill="#fff" opacity="0.55"/><circle cx="468" cy="549" r="3.0" fill="#fff" opacity="0.35"/><circle cx="461" cy="94" r="0.9" fill="#fff" opacity="0.66"/><circle cx="235" cy="752" r="2.9" fill="#fff" opacity="0.30"/><circle cx="74" cy="185" r="1.4" fill="#fff" opacity="0.48"/><circle cx="449" cy="256" r="1.2" fill="#fff" opacity="0.64"/><circle cx="295" cy="478" r="2.8" fill="#fff" opacity="0.47"/><circle cx="498" cy="560" r="2.4" fill="#fff" opacity="0.51"/><circle cx="230" cy="290" r="1.0" fill="#fff" opacity="0.67"/><circle cx="428" cy="70" r="1.5" fill="#fff" opacity="0.52"/><circle cx="348" cy="517" r="1.5" fill="#fff" opacity="0.32"/><circle cx="465" cy="594" r="0.9" fill="#fff" opacity="0.26"/></g>
  <circle cx="256" cy="294" r="199" fill="#ffd0ec" opacity=".12"/><circle cx="256" cy="294" r="157" fill="#fff" opacity=".1"/>
  <ellipse cx="256" cy="662" rx="150" ry="34" fill="#6d327d" opacity=".28"/>
  <g transform="translate(0 122)">
    <ellipse cx="256" cy="339.2" rx="100.44999999999999" ry="112.74999999999999" fill="url(#body)" filter="url(#softShadow)"/><circle cx="256" cy="226.45" r="79.94999999999999" fill="url(#head)"/><ellipse cx="256" cy="214.15" rx="139.39999999999998" ry="36.9" fill="none" stroke="#ffd0ec" stroke-width="14.349999999999998" opacity=".75" transform="rotate(-12 256 214.15)"/><path d="M256 103.45000000000002 L276.5 154.70000000000002 L333.9 156.75 L286.75 187.5 L303.15 242.85 L256 208 L208.85 242.85 L225.25 187.5 L178.10000000000002 156.75 L235.5 154.70000000000002 Z" fill="#e056a7"/><ellipse cx="223.2" cy="253.1" rx="14.349999999999998" ry="16.4" fill="#14213d"/><ellipse cx="288.8" cy="253.1" rx="14.349999999999998" ry="16.4" fill="#14213d"/><circle cx="229.35" cy="244.9" r="4.714999999999999" fill="#fff"/><circle cx="294.95" cy="244.9" r="4.714999999999999" fill="#fff"/><path d="M256 183.4 L278.55 212.10000000000002 L256 242.85 L233.45 212.10000000000002 Z" fill="#ffd0ec" opacity=".92"/>
  </g>
  <path d="M74 126 C170 65 334 65 438 126" stroke="#fff" stroke-width="16" stroke-linecap="round" opacity=".16"/>
  <path d="M63 676 C162 718 344 718 449 662" stroke="#fff" stroke-width="14" stroke-linecap="round" opacity=".16"/>
</svg>