<svg xmlns="http://www.w3.org/2000/svg" viewBox="0 0 512 768" role="img" aria-label="海神洛奇 original portrait">
  
  <defs>
    <linearGradient id="bgp96" x1="0" y1="0" x2="1" y2="1">
      <stop offset="0" stop-color="#d9edff"/>
      <stop offset=".55" stop-color="#82b7ff"/>
      <stop offset="1" stop-color="#4260ad"/>
    </linearGradient>
    <radialGradient id="body" cx=".36" cy=".25" r=".76">
      <stop offset="0" stop-color="#d9edff"/>
      <stop offset=".6" stop-color="#82b7ff"/>
      <stop offset="1" stop-color="#4260ad"/>
    </radialGradient>
    <radialGradient id="head" cx=".36" cy=".26" r=".72">
      <stop offset="0" stop-color="#ffffff" stop-opacity=".85"/>
      <stop offset=".2" stop-color="#d9edff"/>
      <stop offset=".72" stop-color="#82b7ff"/>
      <stop offset="1" stop-color="#4260ad"/>
    </radialGradient>
    <filter id="softShadow" x="-30%" y="-30%" width="160%" height="160%">
      <feDropShadow dx="0" dy="8" stdDeviation="8" flood-color="#4260ad" flood-opacity=".35"/>
    </filter>
  </defs>
  <rect width="512" height="768" rx="48" fill="url(#bgp96)"/>
  <rect x="24" y="24" width="464" height="720" rx="40" fill="#ffffff" opacity=".08"/>
  <g opacity=".42"><circle cx="271" cy="725" r="1.5" fill="#fff" opacity="0.43"/><circle cx="9" cy="24" r="1.9" fill="#fff" opacity="0.66"/><circle cx="486" cy="733" r="1.8" fill="#fff" opacity="0.43"/><circle cx="351" cy="256" r="1.6" fill="#fff" opacity="0.66"/><circle cx="123" cy="102" r="3.0" fill="#fff" opacity="0.64"/><circle cx="236" cy="605" r="1.9" fill="#fff" opacity="0.38"/><circle cx="42" cy="445" r="2.3" fill="#fff" opacity="0.34"/><circle cx="36" cy="726" r="1.2" fill="#fff" opacity="0.38"/><circle cx="229" cy="248" r="2.5" fill="#fff" opacity="0.54"/><circle cx="387" cy="292" r="1.8" fill="#fff" opacity="0.50"/><circle cx="346" cy="332" r="2.4" fill="#fff" opacity="0.52"/><circle cx="505" cy="613" r="2.9" fill="#fff" opacity="0.32"/><circle cx="381" cy="492" r="1.0" fill="#fff" opacity="0.60"/><circle cx="40" cy="367" r="2.3" fill="#fff" opacity="0.35"/><circle cx="322" cy="752" r="2.3" fill="#fff" opacity="0.43"/><circle cx="68" cy="213" r="2.4" fill="#fff" opacity="0.68"/><circle cx="185" cy="498" r="2.9" fill="#fff" opacity="0.49"/><circle cx="296" cy="390" r="2.8" fill="#fff" opacity="0.65"/><circle cx="499" cy="548" r="1.8" fill="#fff" opacity="0.33"/><circle cx="247" cy="370" r="0.9" fill="#fff" opacity="0.35"/><circle cx="511" cy="461" r="1.2" fill="#fff" opacity="0.67"/><circle cx="466" cy="443" r="2.3" fill="#fff" opacity="0.45"/><circle cx="166" cy="192" r="2.0" fill="#fff" opacity="0.48"/><circle cx="299" cy="737" r="2.4" fill="#fff" opacity="0.42"/><circle cx="480" cy="749" r="2.6" fill="#fff" opacity="0.36"/><circle cx="114" cy="390" r="2.6" fill="#fff" opacity="0.65"/><circle cx="230" cy="294" r="2.1" fill="#fff" opacity="0.41"/><circle cx="117" cy="498" r="3.1" fill="#fff" opacity="0.30"/></g>
  <path d="M0 585 C86 541 164 618 248 574 C338 526 407 595 512 548 V768 H0Z" fill="#82b7ff" opacity=".2"/><path d="M0 650 C105 610 180 690 282 638 C370 594 426 650 512 618 V768 H0Z" fill="#d9edff" opacity=".18"/>
  <ellipse cx="256" cy="662" rx="150" ry="34" fill="#4260ad" opacity=".28"/>
  <g transform="translate(0 122)">
    <path d="M110.45000000000002 326.9 L40.75000000000003 240.8 L44.85000000000002 413 Z" fill="#82b7ff" opacity=".86"/><ellipse cx="247.8" cy="322.8" rx="139.39999999999998" ry="88.14999999999999" fill="url(#body)" filter="url(#softShadow)"/><path d="M243.7 242.85 C288.8 136.25 358.5 173.15 342.1 263.35" fill="#82b7ff" opacity=".72"/><path d="M301.1 384.3 C338 458.1 411.79999999999995 413 362.6 359.7" fill="#d9edff" opacity=".8"/><circle cx="329.8" cy="292.05" r="14.349999999999998" fill="#101828"/><circle cx="335.95" cy="285.9" r="4.714999999999999" fill="#fff"/><circle cx="256" cy="210.05" r="14.349999999999998" fill="#d9edff" opacity=".9"/>
  </g>
  <path d="M74 126 C170 65 334 65 438 126" stroke="#fff" stroke-width="16" stroke-linecap="round" opacity=".16"/>
  <path d="M63 676 C162 718 344 718 449 662" stroke="#fff" stroke-width="14" stroke-linecap="round" opacity=".16"/>
</svg>