<svg xmlns="http://www.w3.org/2000/svg" viewBox="0 0 512 768" role="img" aria-label="彩虹凤王 original portrait">
  
  <defs>
    <linearGradient id="bgp97" x1="0" y1="0" x2="1" y2="1">
      <stop offset="0" stop-color="#ffd166"/>
      <stop offset=".55" stop-color="#ff6b35"/>
      <stop offset="1" stop-color="#a92d1d"/>
    </linearGradient>
    <radialGradient id="body" cx=".36" cy=".25" r=".76">
      <stop offset="0" stop-color="#ffd166"/>
      <stop offset=".6" stop-color="#ff6b35"/>
      <stop offset="1" stop-color="#a92d1d"/>
    </radialGradient>
    <radialGradient id="head" cx=".36" cy=".26" r=".72">
      <stop offset="0" stop-color="#ffffff" stop-opacity=".85"/>
      <stop offset=".2" stop-color="#ffd166"/>
      <stop offset=".72" stop-color="#ff6b35"/>
      <stop offset="1" stop-color="#a92d1d"/>
    </radialGradient>
    <filter id="softShadow" x="-30%" y="-30%" width="160%" height="160%">
      <feDropShadow dx="0" dy="8" stdDeviation="8" flood-color="#a92d1d" flood-opacity=".35"/>
    </filter>
  </defs>
  <rect width="512" height="768" rx="48" fill="url(#bgp97)"/>
  <rect x="24" y="24" width="464" height="720" rx="40" fill="#ffffff" opacity=".08"/>
  <g opacity=".42"><circle cx="223" cy="15" r="1.9" fill="#fff" opacity="0.30"/><circle cx="449" cy="381" r="2.2" fill="#fff" opacity="0.28"/><circle cx="261" cy="396" r="1.9" fill="#fff" opacity="0.29"/><circle cx="112" cy="211" r="1.8" fill="#fff" opacity="0.35"/><circle cx="150" cy="86" r="2.6" fill="#fff" opacity="0.41"/><circle cx="191" cy="160" r="1.7" fill="#fff" opacity="0.57"/><circle cx="28" cy="214" r="3.1" fill="#fff" opacity="0.29"/><circle cx="26" cy="220" r="2.4" fill="#fff" opacity="0.53"/><circle cx="397" cy="372" r="2.7" fill="#fff" opacity="0.28"/><circle cx="158" cy="509" r="1.8" fill="#fff" opacity="0.62"/><circle cx="169" cy="45" r="1.4" fill="#fff" opacity="0.66"/><circle cx="162" cy="665" r="2.8" fill="#fff" opacity="0.43"/><circle cx="213" cy="618" r="1.3" fill="#fff" opacity="0.67"/><circle cx="140" cy="677" r="3.0" fill="#fff" opacity="0.47"/><circle cx="116" cy="709" r="1.7" fill="#fff" opacity="0.39"/><circle cx="274" cy="594" r="2.4" fill="#fff" opacity="0.63"/><circle cx="347" cy="496" r="2.7" fill="#fff" opacity="0.70"/><circle cx="475" cy="129" r="2.8" fill="#fff" opacity="0.29"/><circle cx="117" cy="4" r="1.2" fill="#fff" opacity="0.42"/><circle cx="457" cy="212" r="1.8" fill="#fff" opacity="0.43"/><circle cx="486" cy="58" r="1.1" fill="#fff" opacity="0.67"/><circle cx="203" cy="207" r="1.8" fill="#fff" opacity="0.67"/><circle cx="171" cy="78" r="2.4" fill="#fff" opacity="0.41"/><circle cx="391" cy="416" r="1.0" fill="#fff" opacity="0.61"/><circle cx="333" cy="667" r="2.4" fill="#fff" opacity="0.58"/><circle cx="138" cy="513" r="2.8" fill="#fff" opacity="0.39"/><circle cx="279" cy="89" r="2.4" fill="#fff" opacity="0.38"/><circle cx="169" cy="741" r="1.5" fill="#fff" opacity="0.28"/></g>
  <path d="M0 620 C92 590 171 620 259 600 C357 577 432 594 512 565 V768 H0Z" fill="#fff" opacity=".18"/>
  <ellipse cx="256" cy="662" rx="150" ry="34" fill="#a92d1d" opacity=".28"/>
  <g transform="translate(0 122)">
    <path d="M219.1 306.4 C65.35000000000002 187.5 67.4 392.5 206.8 400.7" fill="#ff6b35" opacity=".78"/><path d="M292.9 306.4 C446.65 187.5 444.6 392.5 305.2 400.7" fill="#ff6b35" opacity=".78"/><ellipse cx="256" cy="343.3" rx="86.1" ry="110.69999999999999" fill="url(#body)" filter="url(#softShadow)"/><circle cx="256" cy="228.5" r="77.89999999999999" fill="url(#head)"/><path d="M245.75 226.45 L331.85 249 L249.85 269.5 Z" fill="#ffd166"/><path d="M210.9 154.70000000000002 C239.6 89.10000000000002 280.6 109.60000000000002 260.1 167" fill="#a92d1d" opacity=".85"/><ellipse cx="223.2" cy="253.1" rx="14.349999999999998" ry="16.4" fill="#14213d"/><ellipse cx="288.8" cy="253.1" rx="14.349999999999998" ry="16.4" fill="#14213d"/><circle cx="229.35" cy="244.9" r="4.714999999999999" fill="#fff"/><circle cx="294.95" cy="244.9" r="4.714999999999999" fill="#fff"/><path d="M256 183.4 L278.55 212.10000000000002 L256 242.85 L233.45 212.10000000000002 Z" fill="#ffd166" opacity=".92"/>
  </g>
  <path d="M74 126 C170 65 334 65 438 126" stroke="#fff" stroke-width="16" stroke-linecap="round" opacity=".16"/>
  <path d="M63 676 C162 718 344 718 449 662" stroke="#fff" stroke-width="14" stroke-linecap="round" opacity=".16"/>
</svg>