<svg xmlns="http://www.w3.org/2000/svg" viewBox="0 0 512 768" role="img" aria-label="大地之神 original portrait">
  
  <defs>
    <linearGradient id="bgp99" x1="0" y1="0" x2="1" y2="1">
      <stop offset="0" stop-color="#e9c68f"/>
      <stop offset=".55" stop-color="#a0713d"/>
      <stop offset="1" stop-color="#5a3b22"/>
    </linearGradient>
    <radialGradient id="body" cx=".36" cy=".25" r=".76">
      <stop offset="0" stop-color="#e9c68f"/>
      <stop offset=".6" stop-color="#a0713d"/>
      <stop offset="1" stop-color="#5a3b22"/>
    </radialGradient>
    <radialGradient id="head" cx=".36" cy=".26" r=".72">
      <stop offset="0" stop-color="#ffffff" stop-opacity=".85"/>
      <stop offset=".2" stop-color="#e9c68f"/>
      <stop offset=".72" stop-color="#a0713d"/>
      <stop offset="1" stop-color="#5a3b22"/>
    </radialGradient>
    <filter id="softShadow" x="-30%" y="-30%" width="160%" height="160%">
      <feDropShadow dx="0" dy="8" stdDeviation="8" flood-color="#5a3b22" flood-opacity=".35"/>
    </filter>
  </defs>
  <rect width="512" height="768" rx="48" fill="url(#bgp99)"/>
  <rect x="24" y="24" width="464" height="720" rx="40" fill="#ffffff" opacity=".08"/>
  <g opacity=".42"><circle cx="396" cy="444" r="1.0" fill="#fff" opacity="0.31"/><circle cx="469" cy="348" r="2.4" fill="#fff" opacity="0.64"/><circle cx="72" cy="528" r="3.1" fill="#fff" opacity="0.62"/><circle cx="30" cy="428" r="2.2" fill="#fff" opacity="0.57"/><circle cx="242" cy="6" r="2.9" fill="#fff" opacity="0.58"/><circle cx="498" cy="317" r="1.6" fill="#fff" opacity="0.45"/><circle cx="430" cy="473" r="2.7" fill="#fff" opacity="0.59"/><circle cx="477" cy="371" r="1.7" fill="#fff" opacity="0.41"/><circle cx="116" cy="439" r="1.2" fill="#fff" opacity="0.46"/><circle cx="310" cy="718" r="3.0" fill="#fff" opacity="0.32"/><circle cx="436" cy="213" r="2.3" fill="#fff" opacity="0.66"/><circle cx="213" cy="375" r="1.3" fill="#fff" opacity="0.49"/><circle cx="478" cy="616" r="1.6" fill="#fff" opacity="0.69"/><circle cx="104" cy="469" r="3.1" fill="#fff" opacity="0.46"/><circle cx="370" cy="572" r="2.0" fill="#fff" opacity="0.26"/><circle cx="431" cy="582" r="3.0" fill="#fff" opacity="0.41"/><circle cx="459" cy="715" r="2.2" fill="#fff" opacity="0.41"/><circle cx="468" cy="645" r="1.4" fill="#fff" opacity="0.62"/><circle cx="278" cy="398" r="3.1" fill="#fff" opacity="0.65"/><circle cx="195" cy="378" r="1.2" fill="#fff" opacity="0.55"/><circle cx="222" cy="736" r="2.1" fill="#fff" opacity="0.60"/><circle cx="190" cy="355" r="1.5" fill="#fff" opacity="0.25"/><circle cx="499" cy="553" r="1.1" fill="#fff" opacity="0.43"/><circle cx="52" cy="756" r="2.7" fill="#fff" opacity="0.25"/><circle cx="387" cy="687" r="2.0" fill="#fff" opacity="0.25"/><circle cx="80" cy="595" r="2.4" fill="#fff" opacity="0.47"/><circle cx="429" cy="57" r="1.6" fill="#fff" opacity="0.37"/><circle cx="220" cy="367" r="1.1" fill="#fff" opacity="0.27"/></g>
  <circle cx="256" cy="294" r="192" fill="#e9c68f" opacity=".12"/><circle cx="256" cy="294" r="150" fill="#fff" opacity=".1"/>
  <ellipse cx="256" cy="662" rx="150" ry="34" fill="#5a3b22" opacity=".28"/>
  <g transform="translate(0 122)">
    <ellipse cx="256" cy="339.2" rx="100.44999999999999" ry="112.74999999999999" fill="url(#body)" filter="url(#softShadow)"/><circle cx="256" cy="226.45" r="79.94999999999999" fill="url(#head)"/><ellipse cx="256" cy="214.15" rx="139.39999999999998" ry="36.9" fill="none" stroke="#e9c68f" stroke-width="14.349999999999998" opacity=".75" transform="rotate(-12 256 214.15)"/><path d="M256 103.45000000000002 L276.5 154.70000000000002 L333.9 156.75 L286.75 187.5 L303.15 242.85 L256 208 L208.85 242.85 L225.25 187.5 L178.10000000000002 156.75 L235.5 154.70000000000002 Z" fill="#a0713d"/><ellipse cx="223.2" cy="253.1" rx="14.349999999999998" ry="16.4" fill="#14213d"/><ellipse cx="288.8" cy="253.1" rx="14.349999999999998" ry="16.4" fill="#14213d"/><circle cx="229.35" cy="244.9" r="4.714999999999999" fill="#fff"/><circle cx="294.95" cy="244.9" r="4.714999999999999" fill="#fff"/><path d="M215 201.85000000000002 Q256 224.4 297 201.85000000000002" stroke="#e9c68f" stroke-width="10.25" fill="none" stroke-linecap="round" opacity=".8"/>
  </g>
  <path d="M74 126 C170 65 334 65 438 126" stroke="#fff" stroke-width="16" stroke-linecap="round" opacity=".16"/>
  <path d="M63 676 C162 718 344 718 449 662" stroke="#fff" stroke-width="14" stroke-linecap="round" opacity=".16"/>
</svg>