<?xml version="1.0" encoding="UTF-8"?>
<svg xmlns="http://www.w3.org/2000/svg" viewBox="0 0 512 512" role="img" aria-label="崔琰 portrait">
  <defs>
    <radialGradient id="bg" cx="50%" cy="34%" r="72%">
      <stop offset="0%" stop-color="#9fc7ff"/>
      <stop offset="46%" stop-color="#1d6fd1"/>
      <stop offset="100%" stop-color="#0f4c9a"/>
    </radialGradient>
    <linearGradient id="robe" x1="0%" y1="0%" x2="100%" y2="100%">
      <stop offset="0%" stop-color="#1f5fae"/>
      <stop offset="100%" stop-color="#0f4c9a"/>
    </linearGradient>
    <filter id="softShadow" x="-20%" y="-20%" width="140%" height="150%">
      <feDropShadow dx="0" dy="16" stdDeviation="16" flood-color="#000" flood-opacity="0.32"/>
    </filter>
    <clipPath id="round">
      <circle cx="256" cy="256" r="246"/>
    </clipPath>
  </defs>
  <rect width="512" height="512" fill="#10131b"/>
  <g clip-path="url(#round)">
    <rect width="512" height="512" fill="url(#bg)"/>
    <circle cx="114" cy="94" r="118" fill="#fff" opacity="0.08"/>
    <circle cx="354" cy="438" r="164" fill="#000" opacity="0.14"/>
    <path d="M40 132 C140 86 244 102 472 52" stroke="#fff" stroke-width="18" opacity="0.08" fill="none"/>
    <path d="M28 398 C168 330 286 348 492 286" stroke="#000" stroke-width="22" opacity="0.1" fill="none"/>
    <g opacity="0.48">
      <path d="M416 98 l8 20 21 2 -16 14 5 21 -18 -11 -18 11 5 -21 -16 -14 21 -2Z" fill="#dce7ff"/>
      <circle cx="84" cy="288" r="5" fill="#dce7ff"/>
      <circle cx="444" cy="244" r="4" fill="#dce7ff"/>
    </g>
    <ellipse cx="256" cy="548" rx="190" ry="196" fill="url(#robe)" filter="url(#softShadow)"/>
    <path d="M117 514 C164 410 198 360 256 348 C314 360 348 410 395 514Z" fill="#1f5fae"/>
    <path d="M164 418 Q256 388 348 418 L334 512 H178Z" fill="#9bb7d9" opacity="0.72"/>
    <path d="M182 432 L256 496 L330 432" stroke="#d7e8ff" stroke-width="12" stroke-linecap="round" stroke-linejoin="round" opacity="0.7"/>
    <path d="M153 398 Q200 430 172 512 H128 Q146 424 202 382Z" fill="#000" opacity="0.16"/>
    <path d="M359 398 Q312 430 340 512 H384 Q366 424 310 382Z" fill="#000" opacity="0.16"/>
    <path d="M210 334 Q256 366 302 334 V390 Q256 426 210 390Z" fill="#f2cda1"/>
    <g filter="url(#softShadow)">

      <path d="M158 204 Q171 104 256 90 Q341 104 354 204 Q308 151 256 153 Q204 151 158 204Z" fill="#3a2a22"/>
      <path d="M184 152 Q226 112 256 116 Q290 116 328 152 Q299 139 256 139 Q213 139 184 152Z" fill="#d7e8ff" opacity="0.24"/>


      <ellipse cx="258" cy="228" rx="68" ry="84" fill="#f2cda1"/>
      <path d="M200 218 Q256 242 316 216 Q314 284 256 324 Q198 284 200 218Z" fill="#fff" opacity="0.06"/>
      <ellipse cx="196" cy="238" rx="17" ry="26" fill="#f2cda1" opacity="0.88"/>
      <ellipse cx="320" cy="238" rx="17" ry="26" fill="#f2cda1" opacity="0.88"/>
      <path d="M202 210.9038919005543 Q226 196.9038919005543 246 210.9038919005543" stroke="#3a2a22" stroke-width="7" stroke-linecap="round" fill="none"/>
      <path d="M266 209.0961080994457 Q288 195.0961080994457 312 209.0961080994457" stroke="#3a2a22" stroke-width="7" stroke-linecap="round" fill="none"/>
      <path d="M210 234 Q226 224 242 234" stroke="#111827" stroke-width="5" stroke-linecap="round" fill="none"/>
      <path d="M270 234 Q288 224 306 234" stroke="#111827" stroke-width="5" stroke-linecap="round" fill="none"/>
      <path d="M254 236 Q242 270 260 274" stroke="#a56b50" stroke-width="5" stroke-linecap="round" fill="none" opacity="0.55"/>


      <path d="M220 286 C238 274 246 274 256 286 C266 274 276 274 292 286 C278 302 266 304 256 296 C246 304 233 302 220 286Z" fill="#3a2a22" opacity="0.88"/>
      <path d="M230 306 Q256 360 282 306 Q274 384 256 416 Q238 384 230 306Z" fill="#3a2a22" opacity="0.82"/>

    </g>
    <circle cx="256" cy="256" r="246" fill="none" stroke="#b9c7e7" stroke-width="8" opacity="0.64"/>
    <circle cx="256" cy="256" r="232" fill="none" stroke="#fff" stroke-width="2" opacity="0.16"/>
  </g>
</svg>