<svg xmlns="http://www.w3.org/2000/svg" viewBox="0 0 256 256" role="img" aria-label="忍蛙 original avatar">
  
  <defs>
    <linearGradient id="bga109" x1="0" y1="0" x2="1" y2="1">
      <stop offset="0" stop-color="#9ee8ff"/>
      <stop offset=".55" stop-color="#2397d5"/>
      <stop offset="1" stop-color="#0b4f8f"/>
    </linearGradient>
    <radialGradient id="body" cx=".36" cy=".25" r=".76">
      <stop offset="0" stop-color="#9ee8ff"/>
      <stop offset=".6" stop-color="#2397d5"/>
      <stop offset="1" stop-color="#0b4f8f"/>
    </radialGradient>
    <radialGradient id="head" cx=".36" cy=".26" r=".72">
      <stop offset="0" stop-color="#ffffff" stop-opacity=".85"/>
      <stop offset=".2" stop-color="#9ee8ff"/>
      <stop offset=".72" stop-color="#2397d5"/>
      <stop offset="1" stop-color="#0b4f8f"/>
    </radialGradient>
    <filter id="softShadow" x="-30%" y="-30%" width="160%" height="160%">
      <feDropShadow dx="0" dy="8" stdDeviation="8" flood-color="#0b4f8f" flood-opacity=".35"/>
    </filter>
  </defs>
  <rect width="256" height="256" rx="64" fill="url(#bga109)"/>
  <circle cx="128" cy="128" r="107" fill="#fff" opacity=".12"/>
  <circle cx="128" cy="128" r="98" fill="#ffffff" opacity=".18"/>
  <g opacity=".35"><circle cx="185" cy="160" r="3.0" fill="#fff" opacity="0.61"/><circle cx="33" cy="241" r="1.2" fill="#fff" opacity="0.70"/><circle cx="42" cy="145" r="2.5" fill="#fff" opacity="0.34"/><circle cx="77" cy="122" r="2.0" fill="#fff" opacity="0.51"/><circle cx="76" cy="53" r="3.0" fill="#fff" opacity="0.36"/><circle cx="148" cy="106" r="3.1" fill="#fff" opacity="0.68"/><circle cx="82" cy="155" r="1.8" fill="#fff" opacity="0.47"/><circle cx="210" cy="205" r="2.3" fill="#fff" opacity="0.56"/><circle cx="219" cy="53" r="1.2" fill="#fff" opacity="0.31"/><circle cx="145" cy="194" r="2.1" fill="#fff" opacity="0.28"/></g>
  <g transform="rotate(-4 128 128)">
    <path d="M57 143 L23 101 L25 185 Z" fill="#2397d5" opacity=".86"/><ellipse cx="124" cy="141" rx="68" ry="43" fill="url(#body)" filter="url(#softShadow)"/><path d="M122 102 C144 50 178 68 170 112" fill="#2397d5" opacity=".72"/><path d="M150 171 C168 207 204 185 180 159" fill="#9ee8ff" opacity=".8"/><circle cx="164" cy="126" r="7" fill="#101828"/><circle cx="167" cy="123" r="2.3" fill="#fff"/><path d="M128 73 L139 87 L128 102 L117 87 Z" fill="#9ee8ff" opacity=".92"/>
  </g>
  <path d="M42 198 C82 222 171 226 216 184" stroke="#fff" stroke-width="11" stroke-linecap="round" opacity=".22"/>
</svg>