<svg xmlns="http://www.w3.org/2000/svg" viewBox="0 0 256 256" role="img" aria-label="炼狱魔狼 original avatar">
  
  <defs>
    <linearGradient id="bga13" x1="0" y1="0" x2="1" y2="1">
      <stop offset="0" stop-color="#ffd166"/>
      <stop offset=".55" stop-color="#ff6b35"/>
      <stop offset="1" stop-color="#a92d1d"/>
    </linearGradient>
    <radialGradient id="body" cx=".36" cy=".25" r=".76">
      <stop offset="0" stop-color="#ffd166"/>
      <stop offset=".6" stop-color="#ff6b35"/>
      <stop offset="1" stop-color="#a92d1d"/>
    </radialGradient>
    <radialGradient id="head" cx=".36" cy=".26" r=".72">
      <stop offset="0" stop-color="#ffffff" stop-opacity=".85"/>
      <stop offset=".2" stop-color="#ffd166"/>
      <stop offset=".72" stop-color="#ff6b35"/>
      <stop offset="1" stop-color="#a92d1d"/>
    </radialGradient>
    <filter id="softShadow" x="-30%" y="-30%" width="160%" height="160%">
      <feDropShadow dx="0" dy="8" stdDeviation="8" flood-color="#a92d1d" flood-opacity=".35"/>
    </filter>
  </defs>
  <rect width="256" height="256" rx="64" fill="url(#bga13)"/>
  <circle cx="128" cy="128" r="107" fill="#fff" opacity=".12"/>
  <circle cx="128" cy="128" r="98" fill="#ffffff" opacity=".18"/>
  <g opacity=".35"><circle cx="247" cy="142" r="1.7" fill="#fff" opacity="0.64"/><circle cx="239" cy="126" r="1.8" fill="#fff" opacity="0.25"/><circle cx="164" cy="191" r="1.6" fill="#fff" opacity="0.50"/><circle cx="17" cy="151" r="2.4" fill="#fff" opacity="0.40"/><circle cx="72" cy="152" r="1.6" fill="#fff" opacity="0.32"/><circle cx="201" cy="227" r="0.9" fill="#fff" opacity="0.64"/><circle cx="39" cy="43" r="2.4" fill="#fff" opacity="0.49"/><circle cx="177" cy="62" r="1.7" fill="#fff" opacity="0.64"/><circle cx="22" cy="30" r="1.0" fill="#fff" opacity="0.43"/><circle cx="158" cy="173" r="2.5" fill="#fff" opacity="0.40"/></g>
  <g transform="rotate(-3 128 128)">
    <path d="M76 196 C52 132 85 60 132 59 C188 57 208 129 175 196 C158 179 144 207 128 188 C111 207 95 179 76 196Z" fill="url(#body)" filter="url(#softShadow)"/><circle cx="110" cy="107" r="8" fill="#1b1638"/><circle cx="146" cy="107" r="8" fill="#1b1638"/><path d="M120 136 Q128 145 140 135" stroke="#1b1638" stroke-width="5" fill="none" stroke-linecap="round"/><path d="M65 143 C23 128 44 82 70 100" fill="#ff6b35" opacity=".35"/><path d="M191 143 C233 128 212 82 186 100" fill="#ff6b35" opacity=".35"/><path d="M108 82 Q128 93 148 82" stroke="#ffd166" stroke-width="5" fill="none" stroke-linecap="round" opacity=".8"/>
  </g>
  <path d="M42 198 C82 222 171 226 216 184" stroke="#fff" stroke-width="11" stroke-linecap="round" opacity=".22"/>
</svg>