<svg xmlns="http://www.w3.org/2000/svg" viewBox="0 0 256 256" role="img" aria-label="多边兽 original avatar">
  
  <defs>
    <linearGradient id="bga131" x1="0" y1="0" x2="1" y2="1">
      <stop offset="0" stop-color="#f4e8d8"/>
      <stop offset=".55" stop-color="#b78f68"/>
      <stop offset="1" stop-color="#6d4f3f"/>
    </linearGradient>
    <radialGradient id="body" cx=".36" cy=".25" r=".76">
      <stop offset="0" stop-color="#f4e8d8"/>
      <stop offset=".6" stop-color="#b78f68"/>
      <stop offset="1" stop-color="#6d4f3f"/>
    </radialGradient>
    <radialGradient id="head" cx=".36" cy=".26" r=".72">
      <stop offset="0" stop-color="#ffffff" stop-opacity=".85"/>
      <stop offset=".2" stop-color="#f4e8d8"/>
      <stop offset=".72" stop-color="#b78f68"/>
      <stop offset="1" stop-color="#6d4f3f"/>
    </radialGradient>
    <filter id="softShadow" x="-30%" y="-30%" width="160%" height="160%">
      <feDropShadow dx="0" dy="8" stdDeviation="8" flood-color="#6d4f3f" flood-opacity=".35"/>
    </filter>
  </defs>
  <rect width="256" height="256" rx="64" fill="url(#bga131)"/>
  <circle cx="128" cy="128" r="112" fill="#fff" opacity=".12"/>
  <circle cx="128" cy="128" r="103" fill="#ffffff" opacity=".18"/>
  <g opacity=".35"><circle cx="107" cy="183" r="2.6" fill="#fff" opacity="0.54"/><circle cx="138" cy="244" r="0.8" fill="#fff" opacity="0.27"/><circle cx="17" cy="21" r="1.5" fill="#fff" opacity="0.38"/><circle cx="215" cy="190" r="3.0" fill="#fff" opacity="0.46"/><circle cx="131" cy="255" r="1.0" fill="#fff" opacity="0.29"/><circle cx="117" cy="201" r="1.8" fill="#fff" opacity="0.44"/><circle cx="130" cy="34" r="2.5" fill="#fff" opacity="0.52"/><circle cx="37" cy="70" r="3.1" fill="#fff" opacity="0.59"/><circle cx="171" cy="67" r="3.0" fill="#fff" opacity="0.62"/><circle cx="80" cy="30" r="3.2" fill="#fff" opacity="0.65"/></g>
  <g transform="rotate(4 128 128)">
    <path d="M175 153 C219 141 208 92 172 112" stroke="#b78f68" stroke-width="14" fill="none" stroke-linecap="round" opacity=".76"/><ellipse cx="128" cy="156" rx="53" ry="50" fill="url(#body)" filter="url(#softShadow)"/><path d="M93 87 L70 40 L116 69 Z" fill="#b78f68"/><path d="M163 87 L186 40 L140 69 Z" fill="#b78f68"/><circle cx="128" cy="98" r="45" fill="url(#head)"/><ellipse cx="111" cy="106" rx="8" ry="10" fill="#182033"/><ellipse cx="145" cy="106" rx="8" ry="10" fill="#182033"/><ellipse cx="112" cy="107" rx="7" ry="8" fill="#14213d"/><ellipse cx="144" cy="107" rx="7" ry="8" fill="#14213d"/><circle cx="115" cy="103" r="2.3" fill="#fff"/><circle cx="147" cy="103" r="2.3" fill="#fff"/><path d="M108 82 Q128 93 148 82" stroke="#f4e8d8" stroke-width="5" fill="none" stroke-linecap="round" opacity=".8"/>
  </g>
  <path d="M42 198 C82 222 171 226 216 184" stroke="#fff" stroke-width="11" stroke-linecap="round" opacity=".22"/>
</svg>