<svg xmlns="http://www.w3.org/2000/svg" viewBox="0 0 256 256" role="img" aria-label="菊石兽 original avatar">
  
  <defs>
    <linearGradient id="bga133" x1="0" y1="0" x2="1" y2="1">
      <stop offset="0" stop-color="#ddd0b2"/>
      <stop offset=".55" stop-color="#8d7a5f"/>
      <stop offset="1" stop-color="#514438"/>
    </linearGradient>
    <radialGradient id="body" cx=".36" cy=".25" r=".76">
      <stop offset="0" stop-color="#ddd0b2"/>
      <stop offset=".6" stop-color="#8d7a5f"/>
      <stop offset="1" stop-color="#514438"/>
    </radialGradient>
    <radialGradient id="head" cx=".36" cy=".26" r=".72">
      <stop offset="0" stop-color="#ffffff" stop-opacity=".85"/>
      <stop offset=".2" stop-color="#ddd0b2"/>
      <stop offset=".72" stop-color="#8d7a5f"/>
      <stop offset="1" stop-color="#514438"/>
    </radialGradient>
    <filter id="softShadow" x="-30%" y="-30%" width="160%" height="160%">
      <feDropShadow dx="0" dy="8" stdDeviation="8" flood-color="#514438" flood-opacity=".35"/>
    </filter>
  </defs>
  <rect width="256" height="256" rx="64" fill="url(#bga133)"/>
  <circle cx="128" cy="128" r="111" fill="#fff" opacity=".12"/>
  <circle cx="128" cy="128" r="102" fill="#ffffff" opacity=".18"/>
  <g opacity=".35"><circle cx="64" cy="64" r="1.3" fill="#fff" opacity="0.41"/><circle cx="44" cy="113" r="1.2" fill="#fff" opacity="0.31"/><circle cx="15" cy="231" r="3.1" fill="#fff" opacity="0.28"/><circle cx="54" cy="79" r="3.1" fill="#fff" opacity="0.42"/><circle cx="101" cy="49" r="3.1" fill="#fff" opacity="0.37"/><circle cx="109" cy="253" r="2.1" fill="#fff" opacity="0.50"/><circle cx="23" cy="112" r="1.9" fill="#fff" opacity="0.65"/><circle cx="221" cy="134" r="2.0" fill="#fff" opacity="0.64"/><circle cx="232" cy="142" r="2.0" fill="#fff" opacity="0.36"/><circle cx="255" cy="42" r="1.4" fill="#fff" opacity="0.34"/></g>
  <g transform="rotate(-1 128 128)">
    <path d="M76 95 L110 60 H155 L187 102 L172 176 H83 Z" fill="url(#body)" filter="url(#softShadow)"/><path d="M100 71 L123 28 L140 67 Z" fill="#ddd0b2"/><path d="M145 73 L171 39 L170 86 Z" fill="#8d7a5f"/><rect x="98" y="119" width="60" height="15" rx="7" fill="#514438" opacity=".38"/><circle cx="114" cy="126" r="5" fill="#ddd0b2"/><circle cx="142" cy="126" r="5" fill="#ddd0b2"/><path d="M128 73 L139 87 L128 102 L117 87 Z" fill="#ddd0b2" opacity=".92"/>
  </g>
  <path d="M42 198 C82 222 171 226 216 184" stroke="#fff" stroke-width="11" stroke-linecap="round" opacity=".22"/>
</svg>