<svg xmlns="http://www.w3.org/2000/svg" viewBox="0 0 256 256" role="img" aria-label="多刺菊石兽 original avatar">
  
  <defs>
    <linearGradient id="bga134" x1="0" y1="0" x2="1" y2="1">
      <stop offset="0" stop-color="#ddd0b2"/>
      <stop offset=".55" stop-color="#8d7a5f"/>
      <stop offset="1" stop-color="#514438"/>
    </linearGradient>
    <radialGradient id="body" cx=".36" cy=".25" r=".76">
      <stop offset="0" stop-color="#ddd0b2"/>
      <stop offset=".6" stop-color="#8d7a5f"/>
      <stop offset="1" stop-color="#514438"/>
    </radialGradient>
    <radialGradient id="head" cx=".36" cy=".26" r=".72">
      <stop offset="0" stop-color="#ffffff" stop-opacity=".85"/>
      <stop offset=".2" stop-color="#ddd0b2"/>
      <stop offset=".72" stop-color="#8d7a5f"/>
      <stop offset="1" stop-color="#514438"/>
    </radialGradient>
    <filter id="softShadow" x="-30%" y="-30%" width="160%" height="160%">
      <feDropShadow dx="0" dy="8" stdDeviation="8" flood-color="#514438" flood-opacity=".35"/>
    </filter>
  </defs>
  <rect width="256" height="256" rx="64" fill="url(#bga134)"/>
  <circle cx="128" cy="128" r="112" fill="#fff" opacity=".12"/>
  <circle cx="128" cy="128" r="103" fill="#ffffff" opacity=".18"/>
  <g opacity=".35"><circle cx="109" cy="217" r="2.9" fill="#fff" opacity="0.53"/><circle cx="33" cy="182" r="2.1" fill="#fff" opacity="0.62"/><circle cx="29" cy="58" r="2.8" fill="#fff" opacity="0.27"/><circle cx="96" cy="120" r="1.3" fill="#fff" opacity="0.63"/><circle cx="135" cy="110" r="2.5" fill="#fff" opacity="0.47"/><circle cx="197" cy="3" r="0.8" fill="#fff" opacity="0.39"/><circle cx="54" cy="126" r="2.0" fill="#fff" opacity="0.36"/><circle cx="245" cy="28" r="2.0" fill="#fff" opacity="0.30"/><circle cx="150" cy="174" r="2.3" fill="#fff" opacity="0.51"/><circle cx="250" cy="221" r="2.7" fill="#fff" opacity="0.51"/></g>
  <g transform="rotate(-3 128 128)">
    <path d="M76 95 L110 60 H155 L187 102 L172 176 H83 Z" fill="url(#body)" filter="url(#softShadow)"/><path d="M100 71 L123 28 L140 67 Z" fill="#ddd0b2"/><path d="M145 73 L171 39 L170 86 Z" fill="#8d7a5f"/><rect x="98" y="119" width="60" height="15" rx="7" fill="#514438" opacity=".38"/><circle cx="114" cy="126" r="5" fill="#ddd0b2"/><circle cx="142" cy="126" r="5" fill="#ddd0b2"/><path d="M108 82 Q128 93 148 82" stroke="#ddd0b2" stroke-width="5" fill="none" stroke-linecap="round" opacity=".8"/>
  </g>
  <path d="M42 198 C82 222 171 226 216 184" stroke="#fff" stroke-width="11" stroke-linecap="round" opacity=".22"/>
</svg>