<svg xmlns="http://www.w3.org/2000/svg" viewBox="0 0 256 256" role="img" aria-label="班基拉斯 original avatar">
  
  <defs>
    <linearGradient id="bga139" x1="0" y1="0" x2="1" y2="1">
      <stop offset="0" stop-color="#ddd0b2"/>
      <stop offset=".55" stop-color="#8d7a5f"/>
      <stop offset="1" stop-color="#514438"/>
    </linearGradient>
    <radialGradient id="body" cx=".36" cy=".25" r=".76">
      <stop offset="0" stop-color="#ddd0b2"/>
      <stop offset=".6" stop-color="#8d7a5f"/>
      <stop offset="1" stop-color="#514438"/>
    </radialGradient>
    <radialGradient id="head" cx=".36" cy=".26" r=".72">
      <stop offset="0" stop-color="#ffffff" stop-opacity=".85"/>
      <stop offset=".2" stop-color="#ddd0b2"/>
      <stop offset=".72" stop-color="#8d7a5f"/>
      <stop offset="1" stop-color="#514438"/>
    </radialGradient>
    <filter id="softShadow" x="-30%" y="-30%" width="160%" height="160%">
      <feDropShadow dx="0" dy="8" stdDeviation="8" flood-color="#514438" flood-opacity=".35"/>
    </filter>
  </defs>
  <rect width="256" height="256" rx="64" fill="url(#bga139)"/>
  <circle cx="128" cy="128" r="112" fill="#fff" opacity=".12"/>
  <circle cx="128" cy="128" r="103" fill="#ffffff" opacity=".18"/>
  <g opacity=".35"><circle cx="255" cy="73" r="2.2" fill="#fff" opacity="0.32"/><circle cx="216" cy="176" r="1.6" fill="#fff" opacity="0.54"/><circle cx="247" cy="134" r="1.7" fill="#fff" opacity="0.53"/><circle cx="189" cy="93" r="0.9" fill="#fff" opacity="0.36"/><circle cx="42" cy="108" r="2.4" fill="#fff" opacity="0.33"/><circle cx="99" cy="142" r="2.1" fill="#fff" opacity="0.49"/><circle cx="42" cy="18" r="2.9" fill="#fff" opacity="0.28"/><circle cx="174" cy="114" r="3.1" fill="#fff" opacity="0.49"/><circle cx="226" cy="213" r="1.3" fill="#fff" opacity="0.54"/><circle cx="196" cy="61" r="2.9" fill="#fff" opacity="0.62"/></g>
  <g transform="rotate(-1 128 128)">
    <path d="M76 95 L110 60 H155 L187 102 L172 176 H83 Z" fill="url(#body)" filter="url(#softShadow)"/><path d="M100 71 L123 28 L140 67 Z" fill="#ddd0b2"/><path d="M145 73 L171 39 L170 86 Z" fill="#8d7a5f"/><rect x="98" y="119" width="60" height="15" rx="7" fill="#514438" opacity=".38"/><circle cx="114" cy="126" r="5" fill="#ddd0b2"/><circle cx="142" cy="126" r="5" fill="#ddd0b2"/><path d="M108 82 Q128 93 148 82" stroke="#ddd0b2" stroke-width="5" fill="none" stroke-linecap="round" opacity=".8"/>
  </g>
  <path d="M42 198 C82 222 171 226 216 184" stroke="#fff" stroke-width="11" stroke-linecap="round" opacity=".22"/>
</svg>