<svg xmlns="http://www.w3.org/2000/svg" viewBox="0 0 256 256" role="img" aria-label="时空之神 original avatar">
  
  <defs>
    <linearGradient id="bga142" x1="0" y1="0" x2="1" y2="1">
      <stop offset="0" stop-color="#b8ffe2"/>
      <stop offset=".55" stop-color="#22a889"/>
      <stop offset="1" stop-color="#1d506d"/>
    </linearGradient>
    <radialGradient id="body" cx=".36" cy=".25" r=".76">
      <stop offset="0" stop-color="#b8ffe2"/>
      <stop offset=".6" stop-color="#22a889"/>
      <stop offset="1" stop-color="#1d506d"/>
    </radialGradient>
    <radialGradient id="head" cx=".36" cy=".26" r=".72">
      <stop offset="0" stop-color="#ffffff" stop-opacity=".85"/>
      <stop offset=".2" stop-color="#b8ffe2"/>
      <stop offset=".72" stop-color="#22a889"/>
      <stop offset="1" stop-color="#1d506d"/>
    </radialGradient>
    <filter id="softShadow" x="-30%" y="-30%" width="160%" height="160%">
      <feDropShadow dx="0" dy="8" stdDeviation="8" flood-color="#1d506d" flood-opacity=".35"/>
    </filter>
  </defs>
  <rect width="256" height="256" rx="64" fill="url(#bga142)"/>
  <circle cx="128" cy="128" r="112" fill="#fff" opacity=".12"/>
  <circle cx="128" cy="128" r="103" fill="#ffffff" opacity=".18"/>
  <g opacity=".35"><circle cx="248" cy="64" r="1.0" fill="#fff" opacity="0.46"/><circle cx="31" cy="239" r="2.3" fill="#fff" opacity="0.34"/><circle cx="217" cy="109" r="2.1" fill="#fff" opacity="0.39"/><circle cx="241" cy="113" r="1.8" fill="#fff" opacity="0.43"/><circle cx="22" cy="1" r="2.3" fill="#fff" opacity="0.63"/><circle cx="170" cy="246" r="2.0" fill="#fff" opacity="0.51"/><circle cx="51" cy="1" r="2.4" fill="#fff" opacity="0.39"/><circle cx="216" cy="78" r="1.7" fill="#fff" opacity="0.38"/><circle cx="223" cy="89" r="0.9" fill="#fff" opacity="0.50"/><circle cx="95" cy="76" r="3.1" fill="#fff" opacity="0.57"/></g>
  <g transform="rotate(1 128 128)">
    <ellipse cx="128" cy="149" rx="49" ry="55" fill="url(#body)" filter="url(#softShadow)"/><circle cx="128" cy="94" r="39" fill="url(#head)"/><ellipse cx="128" cy="88" rx="68" ry="18" fill="none" stroke="#b8ffe2" stroke-width="7" opacity=".75" transform="rotate(-12 128 88)"/><path d="M128 34 L138 59 L166 60 L143 75 L151 102 L128 85 L105 102 L113 75 L90 60 L118 59 Z" fill="#22a889"/><ellipse cx="112" cy="107" rx="7" ry="8" fill="#14213d"/><ellipse cx="144" cy="107" rx="7" ry="8" fill="#14213d"/><circle cx="115" cy="103" r="2.3" fill="#fff"/><circle cx="147" cy="103" r="2.3" fill="#fff"/><circle cx="128" cy="86" r="7" fill="#b8ffe2" opacity=".9"/>
  </g>
  <path d="M42 198 C82 222 171 226 216 184" stroke="#fff" stroke-width="11" stroke-linecap="round" opacity=".22"/>
</svg>