<svg xmlns="http://www.w3.org/2000/svg" viewBox="0 0 256 256" role="img" aria-label="冥王龙 original avatar">
  
  <defs>
    <linearGradient id="bga144" x1="0" y1="0" x2="1" y2="1">
      <stop offset="0" stop-color="#d5c6ff"/>
      <stop offset=".55" stop-color="#7367b8"/>
      <stop offset="1" stop-color="#2d2357"/>
    </linearGradient>
    <radialGradient id="body" cx=".36" cy=".25" r=".76">
      <stop offset="0" stop-color="#d5c6ff"/>
      <stop offset=".6" stop-color="#7367b8"/>
      <stop offset="1" stop-color="#2d2357"/>
    </radialGradient>
    <radialGradient id="head" cx=".36" cy=".26" r=".72">
      <stop offset="0" stop-color="#ffffff" stop-opacity=".85"/>
      <stop offset=".2" stop-color="#d5c6ff"/>
      <stop offset=".72" stop-color="#7367b8"/>
      <stop offset="1" stop-color="#2d2357"/>
    </radialGradient>
    <filter id="softShadow" x="-30%" y="-30%" width="160%" height="160%">
      <feDropShadow dx="0" dy="8" stdDeviation="8" flood-color="#2d2357" flood-opacity=".35"/>
    </filter>
  </defs>
  <rect width="256" height="256" rx="64" fill="url(#bga144)"/>
  <circle cx="128" cy="128" r="108" fill="#fff" opacity=".12"/>
  <circle cx="128" cy="128" r="99" fill="#ffffff" opacity=".18"/>
  <g opacity=".35"><circle cx="56" cy="73" r="1.2" fill="#fff" opacity="0.69"/><circle cx="117" cy="232" r="0.9" fill="#fff" opacity="0.65"/><circle cx="57" cy="156" r="2.3" fill="#fff" opacity="0.31"/><circle cx="244" cy="11" r="2.6" fill="#fff" opacity="0.33"/><circle cx="255" cy="71" r="2.0" fill="#fff" opacity="0.68"/><circle cx="149" cy="128" r="2.2" fill="#fff" opacity="0.64"/><circle cx="189" cy="59" r="1.0" fill="#fff" opacity="0.67"/><circle cx="194" cy="156" r="2.3" fill="#fff" opacity="0.69"/><circle cx="3" cy="57" r="1.6" fill="#fff" opacity="0.32"/><circle cx="134" cy="122" r="1.0" fill="#fff" opacity="0.26"/></g>
  <g transform="rotate(4 128 128)">
    <path d="M56 153 C82 93 146 69 193 107 C162 105 138 123 124 167" fill="#2d2357" opacity=".45"/><ellipse cx="128" cy="147" rx="54" ry="45" fill="url(#body)" filter="url(#softShadow)"/><path d="M85 107 L110 47 L125 103 Z" fill="#7367b8"/><path d="M171 107 L146 47 L131 103 Z" fill="#7367b8"/><ellipse cx="128" cy="114" rx="47" ry="42" fill="url(#head)"/><path d="M77 126 Q46 129 34 107" stroke="#d5c6ff" stroke-width="5" fill="none" stroke-linecap="round" opacity=".85"/><path d="M179 126 Q210 129 222 107" stroke="#d5c6ff" stroke-width="5" fill="none" stroke-linecap="round" opacity=".85"/><ellipse cx="112" cy="107" rx="7" ry="8" fill="#14213d"/><ellipse cx="144" cy="107" rx="7" ry="8" fill="#14213d"/><circle cx="115" cy="103" r="2.3" fill="#fff"/><circle cx="147" cy="103" r="2.3" fill="#fff"/><path d="M108 82 Q128 93 148 82" stroke="#d5c6ff" stroke-width="5" fill="none" stroke-linecap="round" opacity=".8"/>
  </g>
  <path d="M42 198 C82 222 171 226 216 184" stroke="#fff" stroke-width="11" stroke-linecap="round" opacity=".22"/>
</svg>