<svg xmlns="http://www.w3.org/2000/svg" viewBox="0 0 256 256" role="img" aria-label="梦幻 original avatar">
  
  <defs>
    <linearGradient id="bga151" x1="0" y1="0" x2="1" y2="1">
      <stop offset="0" stop-color="#ffd0ec"/>
      <stop offset=".55" stop-color="#e056a7"/>
      <stop offset="1" stop-color="#6d327d"/>
    </linearGradient>
    <radialGradient id="body" cx=".36" cy=".25" r=".76">
      <stop offset="0" stop-color="#ffd0ec"/>
      <stop offset=".6" stop-color="#e056a7"/>
      <stop offset="1" stop-color="#6d327d"/>
    </radialGradient>
    <radialGradient id="head" cx=".36" cy=".26" r=".72">
      <stop offset="0" stop-color="#ffffff" stop-opacity=".85"/>
      <stop offset=".2" stop-color="#ffd0ec"/>
      <stop offset=".72" stop-color="#e056a7"/>
      <stop offset="1" stop-color="#6d327d"/>
    </radialGradient>
    <filter id="softShadow" x="-30%" y="-30%" width="160%" height="160%">
      <feDropShadow dx="0" dy="8" stdDeviation="8" flood-color="#6d327d" flood-opacity=".35"/>
    </filter>
  </defs>
  <rect width="256" height="256" rx="64" fill="url(#bga151)"/>
  <circle cx="128" cy="128" r="109" fill="#fff" opacity=".12"/>
  <circle cx="128" cy="128" r="100" fill="#ffffff" opacity=".18"/>
  <g opacity=".35"><circle cx="60" cy="169" r="1.7" fill="#fff" opacity="0.38"/><circle cx="78" cy="228" r="1.7" fill="#fff" opacity="0.52"/><circle cx="148" cy="5" r="2.5" fill="#fff" opacity="0.32"/><circle cx="29" cy="13" r="0.9" fill="#fff" opacity="0.47"/><circle cx="97" cy="227" r="1.1" fill="#fff" opacity="0.50"/><circle cx="102" cy="180" r="2.1" fill="#fff" opacity="0.67"/><circle cx="121" cy="136" r="0.8" fill="#fff" opacity="0.44"/><circle cx="43" cy="89" r="2.2" fill="#fff" opacity="0.53"/><circle cx="200" cy="29" r="1.2" fill="#fff" opacity="0.46"/><circle cx="86" cy="56" r="3.2" fill="#fff" opacity="0.65"/></g>
  <g transform="rotate(3 128 128)">
    <path d="M76 196 C52 132 85 60 132 59 C188 57 208 129 175 196 C158 179 144 207 128 188 C111 207 95 179 76 196Z" fill="url(#body)" filter="url(#softShadow)"/><circle cx="110" cy="107" r="8" fill="#1b1638"/><circle cx="146" cy="107" r="8" fill="#1b1638"/><path d="M120 136 Q128 145 140 135" stroke="#1b1638" stroke-width="5" fill="none" stroke-linecap="round"/><path d="M65 143 C23 128 44 82 70 100" fill="#e056a7" opacity=".35"/><path d="M191 143 C233 128 212 82 186 100" fill="#e056a7" opacity=".35"/><path d="M128 73 L139 87 L128 102 L117 87 Z" fill="#ffd0ec" opacity=".92"/>
  </g>
  <path d="M42 198 C82 222 171 226 216 184" stroke="#fff" stroke-width="11" stroke-linecap="round" opacity=".22"/>
</svg>