<svg xmlns="http://www.w3.org/2000/svg" viewBox="0 0 256 256" role="img" aria-label="草苗龟 original avatar">
  
  <defs>
    <linearGradient id="bga152" x1="0" y1="0" x2="1" y2="1">
      <stop offset="0" stop-color="#c7f7a4"/>
      <stop offset=".55" stop-color="#43b957"/>
      <stop offset="1" stop-color="#1f6f43"/>
    </linearGradient>
    <radialGradient id="body" cx=".36" cy=".25" r=".76">
      <stop offset="0" stop-color="#c7f7a4"/>
      <stop offset=".6" stop-color="#43b957"/>
      <stop offset="1" stop-color="#1f6f43"/>
    </radialGradient>
    <radialGradient id="head" cx=".36" cy=".26" r=".72">
      <stop offset="0" stop-color="#ffffff" stop-opacity=".85"/>
      <stop offset=".2" stop-color="#c7f7a4"/>
      <stop offset=".72" stop-color="#43b957"/>
      <stop offset="1" stop-color="#1f6f43"/>
    </radialGradient>
    <filter id="softShadow" x="-30%" y="-30%" width="160%" height="160%">
      <feDropShadow dx="0" dy="8" stdDeviation="8" flood-color="#1f6f43" flood-opacity=".35"/>
    </filter>
  </defs>
  <rect width="256" height="256" rx="64" fill="url(#bga152)"/>
  <circle cx="128" cy="128" r="110" fill="#fff" opacity=".12"/>
  <circle cx="128" cy="128" r="101" fill="#ffffff" opacity=".18"/>
  <g opacity=".35"><circle cx="19" cy="191" r="3.0" fill="#fff" opacity="0.44"/><circle cx="208" cy="134" r="1.2" fill="#fff" opacity="0.47"/><circle cx="248" cy="35" r="1.8" fill="#fff" opacity="0.70"/><circle cx="159" cy="217" r="1.0" fill="#fff" opacity="0.36"/><circle cx="152" cy="232" r="1.7" fill="#fff" opacity="0.65"/><circle cx="194" cy="216" r="2.0" fill="#fff" opacity="0.53"/><circle cx="177" cy="32" r="2.5" fill="#fff" opacity="0.64"/><circle cx="236" cy="109" r="0.9" fill="#fff" opacity="0.44"/><circle cx="240" cy="83" r="2.4" fill="#fff" opacity="0.34"/><circle cx="235" cy="193" r="3.0" fill="#fff" opacity="0.65"/></g>
  <g transform="rotate(1 128 128)">
    <path d="M57 143 L23 101 L25 185 Z" fill="#43b957" opacity=".86"/><ellipse cx="124" cy="141" rx="68" ry="43" fill="url(#body)" filter="url(#softShadow)"/><path d="M122 102 C144 50 178 68 170 112" fill="#43b957" opacity=".72"/><path d="M150 171 C168 207 204 185 180 159" fill="#c7f7a4" opacity=".8"/><circle cx="164" cy="126" r="7" fill="#101828"/><circle cx="167" cy="123" r="2.3" fill="#fff"/><path d="M128 73 L139 87 L128 102 L117 87 Z" fill="#c7f7a4" opacity=".92"/>
  </g>
  <path d="M42 198 C82 222 171 226 216 184" stroke="#fff" stroke-width="11" stroke-linecap="round" opacity=".22"/>
</svg>