<svg xmlns="http://www.w3.org/2000/svg" viewBox="0 0 256 256" role="img" aria-label="土台龟 original avatar">
  
  <defs>
    <linearGradient id="bga154" x1="0" y1="0" x2="1" y2="1">
      <stop offset="0" stop-color="#e9c68f"/>
      <stop offset=".55" stop-color="#a0713d"/>
      <stop offset="1" stop-color="#5a3b22"/>
    </linearGradient>
    <radialGradient id="body" cx=".36" cy=".25" r=".76">
      <stop offset="0" stop-color="#e9c68f"/>
      <stop offset=".6" stop-color="#a0713d"/>
      <stop offset="1" stop-color="#5a3b22"/>
    </radialGradient>
    <radialGradient id="head" cx=".36" cy=".26" r=".72">
      <stop offset="0" stop-color="#ffffff" stop-opacity=".85"/>
      <stop offset=".2" stop-color="#e9c68f"/>
      <stop offset=".72" stop-color="#a0713d"/>
      <stop offset="1" stop-color="#5a3b22"/>
    </radialGradient>
    <filter id="softShadow" x="-30%" y="-30%" width="160%" height="160%">
      <feDropShadow dx="0" dy="8" stdDeviation="8" flood-color="#5a3b22" flood-opacity=".35"/>
    </filter>
  </defs>
  <rect width="256" height="256" rx="64" fill="url(#bga154)"/>
  <circle cx="128" cy="128" r="106" fill="#fff" opacity=".12"/>
  <circle cx="128" cy="128" r="97" fill="#ffffff" opacity=".18"/>
  <g opacity=".35"><circle cx="127" cy="243" r="1.1" fill="#fff" opacity="0.38"/><circle cx="103" cy="23" r="1.2" fill="#fff" opacity="0.56"/><circle cx="206" cy="161" r="2.9" fill="#fff" opacity="0.55"/><circle cx="103" cy="253" r="3.0" fill="#fff" opacity="0.47"/><circle cx="230" cy="51" r="1.5" fill="#fff" opacity="0.52"/><circle cx="207" cy="103" r="2.4" fill="#fff" opacity="0.59"/><circle cx="9" cy="89" r="3.0" fill="#fff" opacity="0.41"/><circle cx="128" cy="164" r="1.3" fill="#fff" opacity="0.67"/><circle cx="166" cy="89" r="1.5" fill="#fff" opacity="0.35"/><circle cx="92" cy="224" r="1.2" fill="#fff" opacity="0.29"/></g>
  <g transform="rotate(2 128 128)">
    <path d="M57 143 L23 101 L25 185 Z" fill="#a0713d" opacity=".86"/><ellipse cx="124" cy="141" rx="68" ry="43" fill="url(#body)" filter="url(#softShadow)"/><path d="M122 102 C144 50 178 68 170 112" fill="#a0713d" opacity=".72"/><path d="M150 171 C168 207 204 185 180 159" fill="#e9c68f" opacity=".8"/><circle cx="164" cy="126" r="7" fill="#101828"/><circle cx="167" cy="123" r="2.3" fill="#fff"/><path d="M108 82 Q128 93 148 82" stroke="#e9c68f" stroke-width="5" fill="none" stroke-linecap="round" opacity=".8"/>
  </g>
  <path d="M42 198 C82 222 171 226 216 184" stroke="#fff" stroke-width="11" stroke-linecap="round" opacity=".22"/>
</svg>