<svg xmlns="http://www.w3.org/2000/svg" viewBox="0 0 256 256" role="img" aria-label="波加曼 original avatar">
  
  <defs>
    <linearGradient id="bga158" x1="0" y1="0" x2="1" y2="1">
      <stop offset="0" stop-color="#9ee8ff"/>
      <stop offset=".55" stop-color="#2397d5"/>
      <stop offset="1" stop-color="#0b4f8f"/>
    </linearGradient>
    <radialGradient id="body" cx=".36" cy=".25" r=".76">
      <stop offset="0" stop-color="#9ee8ff"/>
      <stop offset=".6" stop-color="#2397d5"/>
      <stop offset="1" stop-color="#0b4f8f"/>
    </radialGradient>
    <radialGradient id="head" cx=".36" cy=".26" r=".72">
      <stop offset="0" stop-color="#ffffff" stop-opacity=".85"/>
      <stop offset=".2" stop-color="#9ee8ff"/>
      <stop offset=".72" stop-color="#2397d5"/>
      <stop offset="1" stop-color="#0b4f8f"/>
    </radialGradient>
    <filter id="softShadow" x="-30%" y="-30%" width="160%" height="160%">
      <feDropShadow dx="0" dy="8" stdDeviation="8" flood-color="#0b4f8f" flood-opacity=".35"/>
    </filter>
  </defs>
  <rect width="256" height="256" rx="64" fill="url(#bga158)"/>
  <circle cx="128" cy="128" r="113" fill="#fff" opacity=".12"/>
  <circle cx="128" cy="128" r="104" fill="#ffffff" opacity=".18"/>
  <g opacity=".35"><circle cx="199" cy="78" r="3.2" fill="#fff" opacity="0.64"/><circle cx="204" cy="34" r="2.1" fill="#fff" opacity="0.62"/><circle cx="99" cy="92" r="2.2" fill="#fff" opacity="0.64"/><circle cx="196" cy="150" r="1.1" fill="#fff" opacity="0.63"/><circle cx="151" cy="40" r="2.9" fill="#fff" opacity="0.30"/><circle cx="34" cy="153" r="1.2" fill="#fff" opacity="0.37"/><circle cx="89" cy="141" r="2.7" fill="#fff" opacity="0.57"/><circle cx="150" cy="154" r="2.2" fill="#fff" opacity="0.31"/><circle cx="17" cy="36" r="2.9" fill="#fff" opacity="0.46"/><circle cx="142" cy="88" r="2.0" fill="#fff" opacity="0.61"/></g>
  <g transform="rotate(3 128 128)">
    <path d="M57 143 L23 101 L25 185 Z" fill="#2397d5" opacity=".86"/><ellipse cx="124" cy="141" rx="68" ry="43" fill="url(#body)" filter="url(#softShadow)"/><path d="M122 102 C144 50 178 68 170 112" fill="#2397d5" opacity=".72"/><path d="M150 171 C168 207 204 185 180 159" fill="#9ee8ff" opacity=".8"/><circle cx="164" cy="126" r="7" fill="#101828"/><circle cx="167" cy="123" r="2.3" fill="#fff"/><circle cx="128" cy="86" r="7" fill="#9ee8ff" opacity=".9"/>
  </g>
  <path d="M42 198 C82 222 171 226 216 184" stroke="#fff" stroke-width="11" stroke-linecap="round" opacity=".22"/>
</svg>