<svg xmlns="http://www.w3.org/2000/svg" viewBox="0 0 256 256" role="img" aria-label="波皇子 original avatar">
  
  <defs>
    <linearGradient id="bga159" x1="0" y1="0" x2="1" y2="1">
      <stop offset="0" stop-color="#9ee8ff"/>
      <stop offset=".55" stop-color="#2397d5"/>
      <stop offset="1" stop-color="#0b4f8f"/>
    </linearGradient>
    <radialGradient id="body" cx=".36" cy=".25" r=".76">
      <stop offset="0" stop-color="#9ee8ff"/>
      <stop offset=".6" stop-color="#2397d5"/>
      <stop offset="1" stop-color="#0b4f8f"/>
    </radialGradient>
    <radialGradient id="head" cx=".36" cy=".26" r=".72">
      <stop offset="0" stop-color="#ffffff" stop-opacity=".85"/>
      <stop offset=".2" stop-color="#9ee8ff"/>
      <stop offset=".72" stop-color="#2397d5"/>
      <stop offset="1" stop-color="#0b4f8f"/>
    </radialGradient>
    <filter id="softShadow" x="-30%" y="-30%" width="160%" height="160%">
      <feDropShadow dx="0" dy="8" stdDeviation="8" flood-color="#0b4f8f" flood-opacity=".35"/>
    </filter>
  </defs>
  <rect width="256" height="256" rx="64" fill="url(#bga159)"/>
  <circle cx="128" cy="128" r="108" fill="#fff" opacity=".12"/>
  <circle cx="128" cy="128" r="99" fill="#ffffff" opacity=".18"/>
  <g opacity=".35"><circle cx="254" cy="76" r="3.1" fill="#fff" opacity="0.28"/><circle cx="198" cy="211" r="1.9" fill="#fff" opacity="0.51"/><circle cx="122" cy="188" r="2.5" fill="#fff" opacity="0.49"/><circle cx="54" cy="168" r="1.8" fill="#fff" opacity="0.42"/><circle cx="220" cy="35" r="2.7" fill="#fff" opacity="0.58"/><circle cx="230" cy="229" r="2.3" fill="#fff" opacity="0.41"/><circle cx="124" cy="230" r="2.0" fill="#fff" opacity="0.28"/><circle cx="156" cy="9" r="2.8" fill="#fff" opacity="0.64"/><circle cx="146" cy="64" r="1.7" fill="#fff" opacity="0.41"/><circle cx="229" cy="64" r="1.5" fill="#fff" opacity="0.64"/></g>
  <g transform="rotate(4 128 128)">
    <ellipse cx="128" cy="159" rx="54" ry="49" fill="url(#body)" filter="url(#softShadow)"/><circle cx="128" cy="97" r="42" fill="url(#head)"/><path d="M76 141 C28 132 45 190 84 180" fill="#0b4f8f"/><path d="M180 141 C228 132 211 190 172 180" fill="#0b4f8f"/><path d="M101 56 H155 L165 79 Q128 93 91 79 Z" fill="#9ee8ff" opacity=".85"/><ellipse cx="112" cy="107" rx="7" ry="8" fill="#14213d"/><ellipse cx="144" cy="107" rx="7" ry="8" fill="#14213d"/><circle cx="115" cy="103" r="2.3" fill="#fff"/><circle cx="147" cy="103" r="2.3" fill="#fff"/><path d="M128 73 L139 87 L128 102 L117 87 Z" fill="#9ee8ff" opacity=".92"/>
  </g>
  <path d="M42 198 C82 222 171 226 216 184" stroke="#fff" stroke-width="11" stroke-linecap="round" opacity=".22"/>
</svg>