<svg xmlns="http://www.w3.org/2000/svg" viewBox="0 0 256 256" role="img" aria-label="帝王拿波 original avatar">
  
  <defs>
    <linearGradient id="bga160" x1="0" y1="0" x2="1" y2="1">
      <stop offset="0" stop-color="#e8edf2"/>
      <stop offset=".55" stop-color="#9aa8b7"/>
      <stop offset="1" stop-color="#536271"/>
    </linearGradient>
    <radialGradient id="body" cx=".36" cy=".25" r=".76">
      <stop offset="0" stop-color="#e8edf2"/>
      <stop offset=".6" stop-color="#9aa8b7"/>
      <stop offset="1" stop-color="#536271"/>
    </radialGradient>
    <radialGradient id="head" cx=".36" cy=".26" r=".72">
      <stop offset="0" stop-color="#ffffff" stop-opacity=".85"/>
      <stop offset=".2" stop-color="#e8edf2"/>
      <stop offset=".72" stop-color="#9aa8b7"/>
      <stop offset="1" stop-color="#536271"/>
    </radialGradient>
    <filter id="softShadow" x="-30%" y="-30%" width="160%" height="160%">
      <feDropShadow dx="0" dy="8" stdDeviation="8" flood-color="#536271" flood-opacity=".35"/>
    </filter>
  </defs>
  <rect width="256" height="256" rx="64" fill="url(#bga160)"/>
  <circle cx="128" cy="128" r="113" fill="#fff" opacity=".12"/>
  <circle cx="128" cy="128" r="104" fill="#ffffff" opacity=".18"/>
  <g opacity=".35"><circle cx="51" cy="58" r="1.0" fill="#fff" opacity="0.58"/><circle cx="21" cy="17" r="0.9" fill="#fff" opacity="0.31"/><circle cx="66" cy="150" r="1.0" fill="#fff" opacity="0.70"/><circle cx="53" cy="9" r="2.8" fill="#fff" opacity="0.39"/><circle cx="94" cy="187" r="1.8" fill="#fff" opacity="0.47"/><circle cx="48" cy="29" r="1.7" fill="#fff" opacity="0.51"/><circle cx="138" cy="232" r="2.4" fill="#fff" opacity="0.49"/><circle cx="242" cy="187" r="2.7" fill="#fff" opacity="0.64"/><circle cx="15" cy="186" r="2.6" fill="#fff" opacity="0.36"/><circle cx="105" cy="237" r="1.4" fill="#fff" opacity="0.33"/></g>
  <g transform="rotate(-3 128 128)">
    <ellipse cx="128" cy="159" rx="54" ry="49" fill="url(#body)" filter="url(#softShadow)"/><circle cx="128" cy="97" r="42" fill="url(#head)"/><path d="M76 141 C28 132 45 190 84 180" fill="#536271"/><path d="M180 141 C228 132 211 190 172 180" fill="#536271"/><path d="M101 56 H155 L165 79 Q128 93 91 79 Z" fill="#e8edf2" opacity=".85"/><ellipse cx="112" cy="107" rx="7" ry="8" fill="#14213d"/><ellipse cx="144" cy="107" rx="7" ry="8" fill="#14213d"/><circle cx="115" cy="103" r="2.3" fill="#fff"/><circle cx="147" cy="103" r="2.3" fill="#fff"/><circle cx="128" cy="86" r="7" fill="#e8edf2" opacity=".9"/>
  </g>
  <path d="M42 198 C82 222 171 226 216 184" stroke="#fff" stroke-width="11" stroke-linecap="round" opacity=".22"/>
</svg>