<svg xmlns="http://www.w3.org/2000/svg" viewBox="0 0 256 256" role="img" aria-label="路卡利欧 original avatar">
  
  <defs>
    <linearGradient id="bga183" x1="0" y1="0" x2="1" y2="1">
      <stop offset="0" stop-color="#ffc0a6"/>
      <stop offset=".55" stop-color="#d95f3d"/>
      <stop offset="1" stop-color="#7a271d"/>
    </linearGradient>
    <radialGradient id="body" cx=".36" cy=".25" r=".76">
      <stop offset="0" stop-color="#ffc0a6"/>
      <stop offset=".6" stop-color="#d95f3d"/>
      <stop offset="1" stop-color="#7a271d"/>
    </radialGradient>
    <radialGradient id="head" cx=".36" cy=".26" r=".72">
      <stop offset="0" stop-color="#ffffff" stop-opacity=".85"/>
      <stop offset=".2" stop-color="#ffc0a6"/>
      <stop offset=".72" stop-color="#d95f3d"/>
      <stop offset="1" stop-color="#7a271d"/>
    </radialGradient>
    <filter id="softShadow" x="-30%" y="-30%" width="160%" height="160%">
      <feDropShadow dx="0" dy="8" stdDeviation="8" flood-color="#7a271d" flood-opacity=".35"/>
    </filter>
  </defs>
  <rect width="256" height="256" rx="64" fill="url(#bga183)"/>
  <circle cx="128" cy="128" r="110" fill="#fff" opacity=".12"/>
  <circle cx="128" cy="128" r="101" fill="#ffffff" opacity=".18"/>
  <g opacity=".35"><circle cx="125" cy="25" r="1.6" fill="#fff" opacity="0.47"/><circle cx="102" cy="233" r="1.9" fill="#fff" opacity="0.63"/><circle cx="47" cy="67" r="0.8" fill="#fff" opacity="0.39"/><circle cx="139" cy="69" r="2.5" fill="#fff" opacity="0.30"/><circle cx="201" cy="3" r="1.4" fill="#fff" opacity="0.50"/><circle cx="217" cy="132" r="2.8" fill="#fff" opacity="0.68"/><circle cx="231" cy="115" r="2.7" fill="#fff" opacity="0.26"/><circle cx="31" cy="58" r="2.3" fill="#fff" opacity="0.38"/><circle cx="13" cy="203" r="2.1" fill="#fff" opacity="0.68"/><circle cx="18" cy="44" r="2.6" fill="#fff" opacity="0.53"/></g>
  <g transform="rotate(1 128 128)">
    <ellipse cx="128" cy="159" rx="54" ry="49" fill="url(#body)" filter="url(#softShadow)"/><circle cx="128" cy="97" r="42" fill="url(#head)"/><path d="M76 141 C28 132 45 190 84 180" fill="#7a271d"/><path d="M180 141 C228 132 211 190 172 180" fill="#7a271d"/><path d="M101 56 H155 L165 79 Q128 93 91 79 Z" fill="#ffc0a6" opacity=".85"/><ellipse cx="112" cy="107" rx="7" ry="8" fill="#14213d"/><ellipse cx="144" cy="107" rx="7" ry="8" fill="#14213d"/><circle cx="115" cy="103" r="2.3" fill="#fff"/><circle cx="147" cy="103" r="2.3" fill="#fff"/><path d="M108 82 Q128 93 148 82" stroke="#ffc0a6" stroke-width="5" fill="none" stroke-linecap="round" opacity=".8"/>
  </g>
  <path d="M42 198 C82 222 171 226 216 184" stroke="#fff" stroke-width="11" stroke-linecap="round" opacity=".22"/>
</svg>