<svg xmlns="http://www.w3.org/2000/svg" viewBox="0 0 256 256" role="img" aria-label="龙王蝎 original avatar">
  
  <defs>
    <linearGradient id="bga185" x1="0" y1="0" x2="1" y2="1">
      <stop offset="0" stop-color="#efb2ff"/>
      <stop offset=".55" stop-color="#9b5de5"/>
      <stop offset="1" stop-color="#4f2378"/>
    </linearGradient>
    <radialGradient id="body" cx=".36" cy=".25" r=".76">
      <stop offset="0" stop-color="#efb2ff"/>
      <stop offset=".6" stop-color="#9b5de5"/>
      <stop offset="1" stop-color="#4f2378"/>
    </radialGradient>
    <radialGradient id="head" cx=".36" cy=".26" r=".72">
      <stop offset="0" stop-color="#ffffff" stop-opacity=".85"/>
      <stop offset=".2" stop-color="#efb2ff"/>
      <stop offset=".72" stop-color="#9b5de5"/>
      <stop offset="1" stop-color="#4f2378"/>
    </radialGradient>
    <filter id="softShadow" x="-30%" y="-30%" width="160%" height="160%">
      <feDropShadow dx="0" dy="8" stdDeviation="8" flood-color="#4f2378" flood-opacity=".35"/>
    </filter>
  </defs>
  <rect width="256" height="256" rx="64" fill="url(#bga185)"/>
  <circle cx="128" cy="128" r="108" fill="#fff" opacity=".12"/>
  <circle cx="128" cy="128" r="99" fill="#ffffff" opacity=".18"/>
  <g opacity=".35"><circle cx="62" cy="192" r="0.8" fill="#fff" opacity="0.65"/><circle cx="39" cy="198" r="2.5" fill="#fff" opacity="0.47"/><circle cx="249" cy="61" r="1.1" fill="#fff" opacity="0.36"/><circle cx="159" cy="72" r="2.4" fill="#fff" opacity="0.62"/><circle cx="151" cy="32" r="1.0" fill="#fff" opacity="0.27"/><circle cx="152" cy="82" r="2.8" fill="#fff" opacity="0.63"/><circle cx="196" cy="184" r="1.3" fill="#fff" opacity="0.42"/><circle cx="173" cy="241" r="2.0" fill="#fff" opacity="0.26"/><circle cx="33" cy="44" r="2.9" fill="#fff" opacity="0.63"/><circle cx="244" cy="208" r="3.2" fill="#fff" opacity="0.57"/></g>
  <g transform="rotate(4 128 128)">
    <path d="M56 153 C82 93 146 69 193 107 C162 105 138 123 124 167" fill="#4f2378" opacity=".45"/><ellipse cx="128" cy="147" rx="54" ry="45" fill="url(#body)" filter="url(#softShadow)"/><path d="M85 107 L110 47 L125 103 Z" fill="#9b5de5"/><path d="M171 107 L146 47 L131 103 Z" fill="#9b5de5"/><ellipse cx="128" cy="114" rx="47" ry="42" fill="url(#head)"/><path d="M77 126 Q46 129 34 107" stroke="#efb2ff" stroke-width="5" fill="none" stroke-linecap="round" opacity=".85"/><path d="M179 126 Q210 129 222 107" stroke="#efb2ff" stroke-width="5" fill="none" stroke-linecap="round" opacity=".85"/><ellipse cx="112" cy="107" rx="7" ry="8" fill="#14213d"/><ellipse cx="144" cy="107" rx="7" ry="8" fill="#14213d"/><circle cx="115" cy="103" r="2.3" fill="#fff"/><circle cx="147" cy="103" r="2.3" fill="#fff"/><path d="M108 82 Q128 93 148 82" stroke="#efb2ff" stroke-width="5" fill="none" stroke-linecap="round" opacity=".8"/>
  </g>
  <path d="M42 198 C82 222 171 226 216 184" stroke="#fff" stroke-width="11" stroke-linecap="round" opacity=".22"/>
</svg>