<svg xmlns="http://www.w3.org/2000/svg" viewBox="0 0 256 256" role="img" aria-label="毒骷蛙 original avatar">
  
  <defs>
    <linearGradient id="bga186" x1="0" y1="0" x2="1" y2="1">
      <stop offset="0" stop-color="#ffc0a6"/>
      <stop offset=".55" stop-color="#d95f3d"/>
      <stop offset="1" stop-color="#7a271d"/>
    </linearGradient>
    <radialGradient id="body" cx=".36" cy=".25" r=".76">
      <stop offset="0" stop-color="#ffc0a6"/>
      <stop offset=".6" stop-color="#d95f3d"/>
      <stop offset="1" stop-color="#7a271d"/>
    </radialGradient>
    <radialGradient id="head" cx=".36" cy=".26" r=".72">
      <stop offset="0" stop-color="#ffffff" stop-opacity=".85"/>
      <stop offset=".2" stop-color="#ffc0a6"/>
      <stop offset=".72" stop-color="#d95f3d"/>
      <stop offset="1" stop-color="#7a271d"/>
    </radialGradient>
    <filter id="softShadow" x="-30%" y="-30%" width="160%" height="160%">
      <feDropShadow dx="0" dy="8" stdDeviation="8" flood-color="#7a271d" flood-opacity=".35"/>
    </filter>
  </defs>
  <rect width="256" height="256" rx="64" fill="url(#bga186)"/>
  <circle cx="128" cy="128" r="108" fill="#fff" opacity=".12"/>
  <circle cx="128" cy="128" r="99" fill="#ffffff" opacity=".18"/>
  <g opacity=".35"><circle cx="119" cy="160" r="0.8" fill="#fff" opacity="0.53"/><circle cx="240" cy="93" r="1.0" fill="#fff" opacity="0.36"/><circle cx="165" cy="86" r="1.3" fill="#fff" opacity="0.37"/><circle cx="138" cy="103" r="1.3" fill="#fff" opacity="0.57"/><circle cx="23" cy="61" r="1.0" fill="#fff" opacity="0.25"/><circle cx="206" cy="155" r="1.1" fill="#fff" opacity="0.62"/><circle cx="76" cy="230" r="2.9" fill="#fff" opacity="0.52"/><circle cx="90" cy="226" r="1.9" fill="#fff" opacity="0.41"/><circle cx="27" cy="148" r="2.2" fill="#fff" opacity="0.28"/><circle cx="156" cy="134" r="2.9" fill="#fff" opacity="0.63"/></g>
  <g transform="rotate(-4 128 128)">
    <path d="M57 143 L23 101 L25 185 Z" fill="#d95f3d" opacity=".86"/><ellipse cx="124" cy="141" rx="68" ry="43" fill="url(#body)" filter="url(#softShadow)"/><path d="M122 102 C144 50 178 68 170 112" fill="#d95f3d" opacity=".72"/><path d="M150 171 C168 207 204 185 180 159" fill="#ffc0a6" opacity=".8"/><circle cx="164" cy="126" r="7" fill="#101828"/><circle cx="167" cy="123" r="2.3" fill="#fff"/><path d="M128 73 L139 87 L128 102 L117 87 Z" fill="#ffc0a6" opacity=".92"/>
  </g>
  <path d="M42 198 C82 222 171 226 216 184" stroke="#fff" stroke-width="11" stroke-linecap="round" opacity=".22"/>
</svg>