<svg xmlns="http://www.w3.org/2000/svg" viewBox="0 0 256 256" role="img" aria-label="玛狃拉 original avatar">
  
  <defs>
    <linearGradient id="bga188" x1="0" y1="0" x2="1" y2="1">
      <stop offset="0" stop-color="#d7fbff"/>
      <stop offset=".55" stop-color="#71d6e8"/>
      <stop offset="1" stop-color="#318aa3"/>
    </linearGradient>
    <radialGradient id="body" cx=".36" cy=".25" r=".76">
      <stop offset="0" stop-color="#d7fbff"/>
      <stop offset=".6" stop-color="#71d6e8"/>
      <stop offset="1" stop-color="#318aa3"/>
    </radialGradient>
    <radialGradient id="head" cx=".36" cy=".26" r=".72">
      <stop offset="0" stop-color="#ffffff" stop-opacity=".85"/>
      <stop offset=".2" stop-color="#d7fbff"/>
      <stop offset=".72" stop-color="#71d6e8"/>
      <stop offset="1" stop-color="#318aa3"/>
    </radialGradient>
    <filter id="softShadow" x="-30%" y="-30%" width="160%" height="160%">
      <feDropShadow dx="0" dy="8" stdDeviation="8" flood-color="#318aa3" flood-opacity=".35"/>
    </filter>
  </defs>
  <rect width="256" height="256" rx="64" fill="url(#bga188)"/>
  <circle cx="128" cy="128" r="113" fill="#fff" opacity=".12"/>
  <circle cx="128" cy="128" r="104" fill="#ffffff" opacity=".18"/>
  <g opacity=".35"><circle cx="106" cy="94" r="2.0" fill="#fff" opacity="0.50"/><circle cx="81" cy="242" r="3.2" fill="#fff" opacity="0.32"/><circle cx="136" cy="197" r="1.2" fill="#fff" opacity="0.70"/><circle cx="200" cy="41" r="1.3" fill="#fff" opacity="0.51"/><circle cx="212" cy="208" r="2.7" fill="#fff" opacity="0.29"/><circle cx="142" cy="168" r="2.9" fill="#fff" opacity="0.33"/><circle cx="237" cy="177" r="1.7" fill="#fff" opacity="0.46"/><circle cx="191" cy="150" r="1.0" fill="#fff" opacity="0.64"/><circle cx="152" cy="148" r="1.1" fill="#fff" opacity="0.53"/><circle cx="183" cy="255" r="2.4" fill="#fff" opacity="0.58"/></g>
  <g transform="rotate(-3 128 128)">
    <path d="M57 143 L23 101 L25 185 Z" fill="#71d6e8" opacity=".86"/><ellipse cx="124" cy="141" rx="68" ry="43" fill="url(#body)" filter="url(#softShadow)"/><path d="M122 102 C144 50 178 68 170 112" fill="#71d6e8" opacity=".72"/><path d="M150 171 C168 207 204 185 180 159" fill="#d7fbff" opacity=".8"/><circle cx="164" cy="126" r="7" fill="#101828"/><circle cx="167" cy="123" r="2.3" fill="#fff"/><path d="M128 73 L139 87 L128 102 L117 87 Z" fill="#d7fbff" opacity=".92"/>
  </g>
  <path d="M42 198 C82 222 171 226 216 184" stroke="#fff" stroke-width="11" stroke-linecap="round" opacity=".22"/>
</svg>