<svg xmlns="http://www.w3.org/2000/svg" viewBox="0 0 256 256" role="img" aria-label="叶伊布 original avatar">
  
  <defs>
    <linearGradient id="bga196" x1="0" y1="0" x2="1" y2="1">
      <stop offset="0" stop-color="#c7f7a4"/>
      <stop offset=".55" stop-color="#43b957"/>
      <stop offset="1" stop-color="#1f6f43"/>
    </linearGradient>
    <radialGradient id="body" cx=".36" cy=".25" r=".76">
      <stop offset="0" stop-color="#c7f7a4"/>
      <stop offset=".6" stop-color="#43b957"/>
      <stop offset="1" stop-color="#1f6f43"/>
    </radialGradient>
    <radialGradient id="head" cx=".36" cy=".26" r=".72">
      <stop offset="0" stop-color="#ffffff" stop-opacity=".85"/>
      <stop offset=".2" stop-color="#c7f7a4"/>
      <stop offset=".72" stop-color="#43b957"/>
      <stop offset="1" stop-color="#1f6f43"/>
    </radialGradient>
    <filter id="softShadow" x="-30%" y="-30%" width="160%" height="160%">
      <feDropShadow dx="0" dy="8" stdDeviation="8" flood-color="#1f6f43" flood-opacity=".35"/>
    </filter>
  </defs>
  <rect width="256" height="256" rx="64" fill="url(#bga196)"/>
  <circle cx="128" cy="128" r="112" fill="#fff" opacity=".12"/>
  <circle cx="128" cy="128" r="103" fill="#ffffff" opacity=".18"/>
  <g opacity=".35"><circle cx="58" cy="199" r="3.1" fill="#fff" opacity="0.46"/><circle cx="160" cy="183" r="2.0" fill="#fff" opacity="0.44"/><circle cx="251" cy="66" r="2.4" fill="#fff" opacity="0.50"/><circle cx="240" cy="1" r="3.2" fill="#fff" opacity="0.55"/><circle cx="194" cy="200" r="0.9" fill="#fff" opacity="0.25"/><circle cx="130" cy="10" r="2.4" fill="#fff" opacity="0.62"/><circle cx="67" cy="219" r="2.0" fill="#fff" opacity="0.30"/><circle cx="199" cy="81" r="2.2" fill="#fff" opacity="0.26"/><circle cx="60" cy="13" r="3.1" fill="#fff" opacity="0.65"/><circle cx="239" cy="218" r="2.5" fill="#fff" opacity="0.69"/></g>
  <g transform="rotate(4 128 128)">
    <path d="M116 179 C66 167 44 113 100 118" fill="#43b957" opacity=".82"/><path d="M140 179 C190 167 212 113 156 118" fill="#43b957" opacity=".82"/><ellipse cx="128" cy="149" rx="48" ry="57" fill="url(#body)" filter="url(#softShadow)"/><path d="M128 51 C86 69 82 110 128 106 C174 110 170 69 128 51Z" fill="#c7f7a4"/><circle cx="128" cy="107" r="38" fill="url(#head)"/><ellipse cx="112" cy="107" rx="7" ry="8" fill="#14213d"/><ellipse cx="144" cy="107" rx="7" ry="8" fill="#14213d"/><circle cx="115" cy="103" r="2.3" fill="#fff"/><circle cx="147" cy="103" r="2.3" fill="#fff"/><circle cx="128" cy="86" r="7" fill="#c7f7a4" opacity=".9"/>
  </g>
  <path d="M42 198 C82 222 171 226 216 184" stroke="#fff" stroke-width="11" stroke-linecap="round" opacity=".22"/>
</svg>