<svg xmlns="http://www.w3.org/2000/svg" viewBox="0 0 256 256" role="img" aria-label="天蝎王 original avatar">
  
  <defs>
    <linearGradient id="bga198" x1="0" y1="0" x2="1" y2="1">
      <stop offset="0" stop-color="#e9c68f"/>
      <stop offset=".55" stop-color="#a0713d"/>
      <stop offset="1" stop-color="#5a3b22"/>
    </linearGradient>
    <radialGradient id="body" cx=".36" cy=".25" r=".76">
      <stop offset="0" stop-color="#e9c68f"/>
      <stop offset=".6" stop-color="#a0713d"/>
      <stop offset="1" stop-color="#5a3b22"/>
    </radialGradient>
    <radialGradient id="head" cx=".36" cy=".26" r=".72">
      <stop offset="0" stop-color="#ffffff" stop-opacity=".85"/>
      <stop offset=".2" stop-color="#e9c68f"/>
      <stop offset=".72" stop-color="#a0713d"/>
      <stop offset="1" stop-color="#5a3b22"/>
    </radialGradient>
    <filter id="softShadow" x="-30%" y="-30%" width="160%" height="160%">
      <feDropShadow dx="0" dy="8" stdDeviation="8" flood-color="#5a3b22" flood-opacity=".35"/>
    </filter>
  </defs>
  <rect width="256" height="256" rx="64" fill="url(#bga198)"/>
  <circle cx="128" cy="128" r="107" fill="#fff" opacity=".12"/>
  <circle cx="128" cy="128" r="98" fill="#ffffff" opacity=".18"/>
  <g opacity=".35"><circle cx="158" cy="82" r="1.4" fill="#fff" opacity="0.25"/><circle cx="104" cy="114" r="2.5" fill="#fff" opacity="0.66"/><circle cx="32" cy="166" r="3.0" fill="#fff" opacity="0.38"/><circle cx="107" cy="173" r="1.5" fill="#fff" opacity="0.49"/><circle cx="131" cy="62" r="1.8" fill="#fff" opacity="0.30"/><circle cx="168" cy="0" r="1.0" fill="#fff" opacity="0.39"/><circle cx="59" cy="32" r="3.0" fill="#fff" opacity="0.56"/><circle cx="99" cy="250" r="2.2" fill="#fff" opacity="0.39"/><circle cx="217" cy="116" r="3.0" fill="#fff" opacity="0.30"/><circle cx="54" cy="108" r="3.0" fill="#fff" opacity="0.68"/></g>
  <g transform="rotate(-1 128 128)">
    <ellipse cx="90" cy="109" rx="34" ry="49" fill="#e9c68f" opacity=".55"/><ellipse cx="166" cy="109" rx="34" ry="49" fill="#e9c68f" opacity=".55"/><ellipse cx="128" cy="145" rx="32" ry="60" fill="url(#body)" filter="url(#softShadow)"/><circle cx="128" cy="88" r="34" fill="url(#head)"/><path d="M110 62 Q88 29 61 41" stroke="#5a3b22" stroke-width="5" fill="none" stroke-linecap="round"/><path d="M146 62 Q168 29 195 41" stroke="#5a3b22" stroke-width="5" fill="none" stroke-linecap="round"/><path d="M100 141 H156 M104 167 H152" stroke="#5a3b22" stroke-width="4" opacity=".35"/><ellipse cx="112" cy="107" rx="7" ry="8" fill="#14213d"/><ellipse cx="144" cy="107" rx="7" ry="8" fill="#14213d"/><circle cx="115" cy="103" r="2.3" fill="#fff"/><circle cx="147" cy="103" r="2.3" fill="#fff"/><path d="M128 73 L139 87 L128 102 L117 87 Z" fill="#e9c68f" opacity=".92"/>
  </g>
  <path d="M42 198 C82 222 171 226 216 184" stroke="#fff" stroke-width="11" stroke-linecap="round" opacity=".22"/>
</svg>