<svg xmlns="http://www.w3.org/2000/svg" viewBox="0 0 256 256" role="img" aria-label="象牙猪 original avatar">
  
  <defs>
    <linearGradient id="bga199" x1="0" y1="0" x2="1" y2="1">
      <stop offset="0" stop-color="#d7fbff"/>
      <stop offset=".55" stop-color="#71d6e8"/>
      <stop offset="1" stop-color="#318aa3"/>
    </linearGradient>
    <radialGradient id="body" cx=".36" cy=".25" r=".76">
      <stop offset="0" stop-color="#d7fbff"/>
      <stop offset=".6" stop-color="#71d6e8"/>
      <stop offset="1" stop-color="#318aa3"/>
    </radialGradient>
    <radialGradient id="head" cx=".36" cy=".26" r=".72">
      <stop offset="0" stop-color="#ffffff" stop-opacity=".85"/>
      <stop offset=".2" stop-color="#d7fbff"/>
      <stop offset=".72" stop-color="#71d6e8"/>
      <stop offset="1" stop-color="#318aa3"/>
    </radialGradient>
    <filter id="softShadow" x="-30%" y="-30%" width="160%" height="160%">
      <feDropShadow dx="0" dy="8" stdDeviation="8" flood-color="#318aa3" flood-opacity=".35"/>
    </filter>
  </defs>
  <rect width="256" height="256" rx="64" fill="url(#bga199)"/>
  <circle cx="128" cy="128" r="110" fill="#fff" opacity=".12"/>
  <circle cx="128" cy="128" r="101" fill="#ffffff" opacity=".18"/>
  <g opacity=".35"><circle cx="112" cy="47" r="2.2" fill="#fff" opacity="0.40"/><circle cx="201" cy="60" r="1.5" fill="#fff" opacity="0.47"/><circle cx="129" cy="90" r="1.6" fill="#fff" opacity="0.56"/><circle cx="28" cy="33" r="2.5" fill="#fff" opacity="0.59"/><circle cx="18" cy="70" r="2.8" fill="#fff" opacity="0.27"/><circle cx="54" cy="56" r="2.0" fill="#fff" opacity="0.40"/><circle cx="221" cy="36" r="2.1" fill="#fff" opacity="0.43"/><circle cx="139" cy="13" r="2.5" fill="#fff" opacity="0.61"/><circle cx="219" cy="163" r="1.3" fill="#fff" opacity="0.48"/><circle cx="103" cy="232" r="1.4" fill="#fff" opacity="0.30"/></g>
  <g transform="rotate(-4 128 128)">
    <path d="M175 153 C219 141 208 92 172 112" stroke="#71d6e8" stroke-width="14" fill="none" stroke-linecap="round" opacity=".76"/><ellipse cx="128" cy="156" rx="53" ry="50" fill="url(#body)" filter="url(#softShadow)"/><path d="M93 87 L70 40 L116 69 Z" fill="#71d6e8"/><path d="M163 87 L186 40 L140 69 Z" fill="#71d6e8"/><circle cx="128" cy="98" r="45" fill="url(#head)"/><ellipse cx="111" cy="106" rx="8" ry="10" fill="#182033"/><ellipse cx="145" cy="106" rx="8" ry="10" fill="#182033"/><ellipse cx="112" cy="107" rx="7" ry="8" fill="#14213d"/><ellipse cx="144" cy="107" rx="7" ry="8" fill="#14213d"/><circle cx="115" cy="103" r="2.3" fill="#fff"/><circle cx="147" cy="103" r="2.3" fill="#fff"/><circle cx="128" cy="86" r="7" fill="#d7fbff" opacity=".9"/>
  </g>
  <path d="M42 198 C82 222 171 226 216 184" stroke="#fff" stroke-width="11" stroke-linecap="round" opacity=".22"/>
</svg>