<svg xmlns="http://www.w3.org/2000/svg" viewBox="0 0 256 256" role="img" aria-label="熔岩巨像 original avatar">
  
  <defs>
    <linearGradient id="bga202" x1="0" y1="0" x2="1" y2="1">
      <stop offset="0" stop-color="#ffd166"/>
      <stop offset=".55" stop-color="#ff6b35"/>
      <stop offset="1" stop-color="#a92d1d"/>
    </linearGradient>
    <radialGradient id="body" cx=".36" cy=".25" r=".76">
      <stop offset="0" stop-color="#ffd166"/>
      <stop offset=".6" stop-color="#ff6b35"/>
      <stop offset="1" stop-color="#a92d1d"/>
    </radialGradient>
    <radialGradient id="head" cx=".36" cy=".26" r=".72">
      <stop offset="0" stop-color="#ffffff" stop-opacity=".85"/>
      <stop offset=".2" stop-color="#ffd166"/>
      <stop offset=".72" stop-color="#ff6b35"/>
      <stop offset="1" stop-color="#a92d1d"/>
    </radialGradient>
    <filter id="softShadow" x="-30%" y="-30%" width="160%" height="160%">
      <feDropShadow dx="0" dy="8" stdDeviation="8" flood-color="#a92d1d" flood-opacity=".35"/>
    </filter>
  </defs>
  <rect width="256" height="256" rx="64" fill="url(#bga202)"/>
  <circle cx="128" cy="128" r="106" fill="#fff" opacity=".12"/>
  <circle cx="128" cy="128" r="97" fill="#ffffff" opacity=".18"/>
  <g opacity=".35"><circle cx="52" cy="40" r="1.2" fill="#fff" opacity="0.52"/><circle cx="66" cy="19" r="1.5" fill="#fff" opacity="0.36"/><circle cx="79" cy="163" r="2.9" fill="#fff" opacity="0.49"/><circle cx="4" cy="220" r="2.2" fill="#fff" opacity="0.70"/><circle cx="59" cy="139" r="1.2" fill="#fff" opacity="0.41"/><circle cx="102" cy="165" r="1.8" fill="#fff" opacity="0.64"/><circle cx="29" cy="215" r="1.2" fill="#fff" opacity="0.68"/><circle cx="1" cy="192" r="1.7" fill="#fff" opacity="0.27"/><circle cx="82" cy="28" r="1.5" fill="#fff" opacity="0.48"/><circle cx="125" cy="254" r="2.0" fill="#fff" opacity="0.69"/></g>
  <g transform="rotate(-3 128 128)">
    <path d="M76 95 L110 60 H155 L187 102 L172 176 H83 Z" fill="url(#body)" filter="url(#softShadow)"/><path d="M100 71 L123 28 L140 67 Z" fill="#ffd166"/><path d="M145 73 L171 39 L170 86 Z" fill="#ff6b35"/><rect x="98" y="119" width="60" height="15" rx="7" fill="#a92d1d" opacity=".38"/><circle cx="114" cy="126" r="5" fill="#ffd166"/><circle cx="142" cy="126" r="5" fill="#ffd166"/><path d="M128 73 L139 87 L128 102 L117 87 Z" fill="#ffd166" opacity=".92"/>
  </g>
  <path d="M42 198 C82 222 171 226 216 184" stroke="#fff" stroke-width="11" stroke-linecap="round" opacity=".22"/>
</svg>