<svg xmlns="http://www.w3.org/2000/svg" viewBox="0 0 256 256" role="img" aria-label="雷电法王 original avatar">
  
  <defs>
    <linearGradient id="bga210" x1="0" y1="0" x2="1" y2="1">
      <stop offset="0" stop-color="#fff27a"/>
      <stop offset=".55" stop-color="#f9c80e"/>
      <stop offset="1" stop-color="#7a5200"/>
    </linearGradient>
    <radialGradient id="body" cx=".36" cy=".25" r=".76">
      <stop offset="0" stop-color="#fff27a"/>
      <stop offset=".6" stop-color="#f9c80e"/>
      <stop offset="1" stop-color="#7a5200"/>
    </radialGradient>
    <radialGradient id="head" cx=".36" cy=".26" r=".72">
      <stop offset="0" stop-color="#ffffff" stop-opacity=".85"/>
      <stop offset=".2" stop-color="#fff27a"/>
      <stop offset=".72" stop-color="#f9c80e"/>
      <stop offset="1" stop-color="#7a5200"/>
    </radialGradient>
    <filter id="softShadow" x="-30%" y="-30%" width="160%" height="160%">
      <feDropShadow dx="0" dy="8" stdDeviation="8" flood-color="#7a5200" flood-opacity=".35"/>
    </filter>
  </defs>
  <rect width="256" height="256" rx="64" fill="url(#bga210)"/>
  <circle cx="128" cy="128" r="110" fill="#fff" opacity=".12"/>
  <circle cx="128" cy="128" r="101" fill="#ffffff" opacity=".18"/>
  <g opacity=".35"><circle cx="44" cy="205" r="3.1" fill="#fff" opacity="0.35"/><circle cx="177" cy="154" r="2.3" fill="#fff" opacity="0.46"/><circle cx="76" cy="73" r="0.8" fill="#fff" opacity="0.43"/><circle cx="74" cy="49" r="2.7" fill="#fff" opacity="0.43"/><circle cx="14" cy="71" r="1.8" fill="#fff" opacity="0.49"/><circle cx="251" cy="240" r="2.2" fill="#fff" opacity="0.55"/><circle cx="11" cy="112" r="1.7" fill="#fff" opacity="0.58"/><circle cx="89" cy="6" r="1.4" fill="#fff" opacity="0.37"/><circle cx="65" cy="254" r="2.7" fill="#fff" opacity="0.60"/><circle cx="203" cy="132" r="1.4" fill="#fff" opacity="0.33"/></g>
  <g transform="rotate(-3 128 128)">
    <ellipse cx="128" cy="159" rx="54" ry="49" fill="url(#body)" filter="url(#softShadow)"/><circle cx="128" cy="97" r="42" fill="url(#head)"/><path d="M76 141 C28 132 45 190 84 180" fill="#7a5200"/><path d="M180 141 C228 132 211 190 172 180" fill="#7a5200"/><path d="M101 56 H155 L165 79 Q128 93 91 79 Z" fill="#fff27a" opacity=".85"/><ellipse cx="112" cy="107" rx="7" ry="8" fill="#14213d"/><ellipse cx="144" cy="107" rx="7" ry="8" fill="#14213d"/><circle cx="115" cy="103" r="2.3" fill="#fff"/><circle cx="147" cy="103" r="2.3" fill="#fff"/><path d="M128 73 L139 87 L128 102 L117 87 Z" fill="#fff27a" opacity=".92"/>
  </g>
  <path d="M42 198 C82 222 171 226 216 184" stroke="#fff" stroke-width="11" stroke-linecap="round" opacity=".22"/>
</svg>