<svg xmlns="http://www.w3.org/2000/svg" viewBox="0 0 256 256" role="img" aria-label="格斗大师 original avatar">
  
  <defs>
    <linearGradient id="bga214" x1="0" y1="0" x2="1" y2="1">
      <stop offset="0" stop-color="#ffc0a6"/>
      <stop offset=".55" stop-color="#d95f3d"/>
      <stop offset="1" stop-color="#7a271d"/>
    </linearGradient>
    <radialGradient id="body" cx=".36" cy=".25" r=".76">
      <stop offset="0" stop-color="#ffc0a6"/>
      <stop offset=".6" stop-color="#d95f3d"/>
      <stop offset="1" stop-color="#7a271d"/>
    </radialGradient>
    <radialGradient id="head" cx=".36" cy=".26" r=".72">
      <stop offset="0" stop-color="#ffffff" stop-opacity=".85"/>
      <stop offset=".2" stop-color="#ffc0a6"/>
      <stop offset=".72" stop-color="#d95f3d"/>
      <stop offset="1" stop-color="#7a271d"/>
    </radialGradient>
    <filter id="softShadow" x="-30%" y="-30%" width="160%" height="160%">
      <feDropShadow dx="0" dy="8" stdDeviation="8" flood-color="#7a271d" flood-opacity=".35"/>
    </filter>
  </defs>
  <rect width="256" height="256" rx="64" fill="url(#bga214)"/>
  <circle cx="128" cy="128" r="110" fill="#fff" opacity=".12"/>
  <circle cx="128" cy="128" r="101" fill="#ffffff" opacity=".18"/>
  <g opacity=".35"><circle cx="252" cy="194" r="2.5" fill="#fff" opacity="0.70"/><circle cx="46" cy="186" r="1.4" fill="#fff" opacity="0.44"/><circle cx="68" cy="148" r="0.9" fill="#fff" opacity="0.36"/><circle cx="13" cy="162" r="2.5" fill="#fff" opacity="0.68"/><circle cx="36" cy="35" r="2.4" fill="#fff" opacity="0.37"/><circle cx="89" cy="244" r="1.8" fill="#fff" opacity="0.32"/><circle cx="95" cy="215" r="2.7" fill="#fff" opacity="0.54"/><circle cx="109" cy="34" r="2.6" fill="#fff" opacity="0.38"/><circle cx="252" cy="5" r="1.0" fill="#fff" opacity="0.34"/><circle cx="256" cy="228" r="2.0" fill="#fff" opacity="0.53"/></g>
  <g transform="rotate(-4 128 128)">
    <ellipse cx="128" cy="159" rx="54" ry="49" fill="url(#body)" filter="url(#softShadow)"/><circle cx="128" cy="97" r="42" fill="url(#head)"/><path d="M76 141 C28 132 45 190 84 180" fill="#7a271d"/><path d="M180 141 C228 132 211 190 172 180" fill="#7a271d"/><path d="M101 56 H155 L165 79 Q128 93 91 79 Z" fill="#ffc0a6" opacity=".85"/><ellipse cx="112" cy="107" rx="7" ry="8" fill="#14213d"/><ellipse cx="144" cy="107" rx="7" ry="8" fill="#14213d"/><circle cx="115" cy="103" r="2.3" fill="#fff"/><circle cx="147" cy="103" r="2.3" fill="#fff"/><circle cx="128" cy="86" r="7" fill="#ffc0a6" opacity=".9"/>
  </g>
  <path d="M42 198 C82 222 171 226 216 184" stroke="#fff" stroke-width="11" stroke-linecap="round" opacity=".22"/>
</svg>