<svg xmlns="http://www.w3.org/2000/svg" viewBox="0 0 256 256" role="img" aria-label="岩石巨人 original avatar">
  
  <defs>
    <linearGradient id="bga225" x1="0" y1="0" x2="1" y2="1">
      <stop offset="0" stop-color="#ddd0b2"/>
      <stop offset=".55" stop-color="#8d7a5f"/>
      <stop offset="1" stop-color="#514438"/>
    </linearGradient>
    <radialGradient id="body" cx=".36" cy=".25" r=".76">
      <stop offset="0" stop-color="#ddd0b2"/>
      <stop offset=".6" stop-color="#8d7a5f"/>
      <stop offset="1" stop-color="#514438"/>
    </radialGradient>
    <radialGradient id="head" cx=".36" cy=".26" r=".72">
      <stop offset="0" stop-color="#ffffff" stop-opacity=".85"/>
      <stop offset=".2" stop-color="#ddd0b2"/>
      <stop offset=".72" stop-color="#8d7a5f"/>
      <stop offset="1" stop-color="#514438"/>
    </radialGradient>
    <filter id="softShadow" x="-30%" y="-30%" width="160%" height="160%">
      <feDropShadow dx="0" dy="8" stdDeviation="8" flood-color="#514438" flood-opacity=".35"/>
    </filter>
  </defs>
  <rect width="256" height="256" rx="64" fill="url(#bga225)"/>
  <circle cx="128" cy="128" r="113" fill="#fff" opacity=".12"/>
  <circle cx="128" cy="128" r="104" fill="#ffffff" opacity=".18"/>
  <g opacity=".35"><circle cx="202" cy="85" r="2.8" fill="#fff" opacity="0.38"/><circle cx="164" cy="142" r="2.6" fill="#fff" opacity="0.42"/><circle cx="113" cy="105" r="2.5" fill="#fff" opacity="0.40"/><circle cx="102" cy="251" r="1.1" fill="#fff" opacity="0.35"/><circle cx="213" cy="106" r="1.8" fill="#fff" opacity="0.57"/><circle cx="151" cy="20" r="1.4" fill="#fff" opacity="0.45"/><circle cx="43" cy="81" r="1.2" fill="#fff" opacity="0.38"/><circle cx="63" cy="181" r="2.4" fill="#fff" opacity="0.47"/><circle cx="184" cy="237" r="2.3" fill="#fff" opacity="0.56"/><circle cx="28" cy="167" r="1.6" fill="#fff" opacity="0.57"/></g>
  <g transform="rotate(-2 128 128)">
    <path d="M76 95 L110 60 H155 L187 102 L172 176 H83 Z" fill="url(#body)" filter="url(#softShadow)"/><path d="M100 71 L123 28 L140 67 Z" fill="#ddd0b2"/><path d="M145 73 L171 39 L170 86 Z" fill="#8d7a5f"/><rect x="98" y="119" width="60" height="15" rx="7" fill="#514438" opacity=".38"/><circle cx="114" cy="126" r="5" fill="#ddd0b2"/><circle cx="142" cy="126" r="5" fill="#ddd0b2"/><path d="M108 82 Q128 93 148 82" stroke="#ddd0b2" stroke-width="5" fill="none" stroke-linecap="round" opacity=".8"/>
  </g>
  <path d="M42 198 C82 222 171 226 216 184" stroke="#fff" stroke-width="11" stroke-linecap="round" opacity=".22"/>
</svg>