<svg xmlns="http://www.w3.org/2000/svg" viewBox="0 0 256 256" role="img" aria-label="毒液怪 original avatar">
  
  <defs>
    <linearGradient id="bga238" x1="0" y1="0" x2="1" y2="1">
      <stop offset="0" stop-color="#efb2ff"/>
      <stop offset=".55" stop-color="#9b5de5"/>
      <stop offset="1" stop-color="#4f2378"/>
    </linearGradient>
    <radialGradient id="body" cx=".36" cy=".25" r=".76">
      <stop offset="0" stop-color="#efb2ff"/>
      <stop offset=".6" stop-color="#9b5de5"/>
      <stop offset="1" stop-color="#4f2378"/>
    </radialGradient>
    <radialGradient id="head" cx=".36" cy=".26" r=".72">
      <stop offset="0" stop-color="#ffffff" stop-opacity=".85"/>
      <stop offset=".2" stop-color="#efb2ff"/>
      <stop offset=".72" stop-color="#9b5de5"/>
      <stop offset="1" stop-color="#4f2378"/>
    </radialGradient>
    <filter id="softShadow" x="-30%" y="-30%" width="160%" height="160%">
      <feDropShadow dx="0" dy="8" stdDeviation="8" flood-color="#4f2378" flood-opacity=".35"/>
    </filter>
  </defs>
  <rect width="256" height="256" rx="64" fill="url(#bga238)"/>
  <circle cx="128" cy="128" r="111" fill="#fff" opacity=".12"/>
  <circle cx="128" cy="128" r="102" fill="#ffffff" opacity=".18"/>
  <g opacity=".35"><circle cx="227" cy="7" r="1.5" fill="#fff" opacity="0.32"/><circle cx="155" cy="159" r="3.1" fill="#fff" opacity="0.59"/><circle cx="241" cy="146" r="2.4" fill="#fff" opacity="0.28"/><circle cx="38" cy="212" r="1.9" fill="#fff" opacity="0.63"/><circle cx="32" cy="88" r="3.0" fill="#fff" opacity="0.56"/><circle cx="135" cy="155" r="2.7" fill="#fff" opacity="0.41"/><circle cx="20" cy="187" r="2.1" fill="#fff" opacity="0.26"/><circle cx="46" cy="16" r="1.1" fill="#fff" opacity="0.68"/><circle cx="154" cy="85" r="2.0" fill="#fff" opacity="0.38"/><circle cx="249" cy="188" r="2.8" fill="#fff" opacity="0.27"/></g>
  <g transform="rotate(4 128 128)">
    <path d="M175 153 C219 141 208 92 172 112" stroke="#9b5de5" stroke-width="14" fill="none" stroke-linecap="round" opacity=".76"/><ellipse cx="128" cy="156" rx="53" ry="50" fill="url(#body)" filter="url(#softShadow)"/><path d="M93 87 L70 40 L116 69 Z" fill="#9b5de5"/><path d="M163 87 L186 40 L140 69 Z" fill="#9b5de5"/><circle cx="128" cy="98" r="45" fill="url(#head)"/><ellipse cx="111" cy="106" rx="8" ry="10" fill="#182033"/><ellipse cx="145" cy="106" rx="8" ry="10" fill="#182033"/><ellipse cx="112" cy="107" rx="7" ry="8" fill="#14213d"/><ellipse cx="144" cy="107" rx="7" ry="8" fill="#14213d"/><circle cx="115" cy="103" r="2.3" fill="#fff"/><circle cx="147" cy="103" r="2.3" fill="#fff"/><circle cx="128" cy="86" r="7" fill="#efb2ff" opacity=".9"/>
  </g>
  <path d="M42 198 C82 222 171 226 216 184" stroke="#fff" stroke-width="11" stroke-linecap="round" opacity=".22"/>
</svg>