<svg xmlns="http://www.w3.org/2000/svg" viewBox="0 0 256 256" role="img" aria-label="死亡之翼 original avatar">
  
  <defs>
    <linearGradient id="bga265" x1="0" y1="0" x2="1" y2="1">
      <stop offset="0" stop-color="#d5c6ff"/>
      <stop offset=".55" stop-color="#7367b8"/>
      <stop offset="1" stop-color="#2d2357"/>
    </linearGradient>
    <radialGradient id="body" cx=".36" cy=".25" r=".76">
      <stop offset="0" stop-color="#d5c6ff"/>
      <stop offset=".6" stop-color="#7367b8"/>
      <stop offset="1" stop-color="#2d2357"/>
    </radialGradient>
    <radialGradient id="head" cx=".36" cy=".26" r=".72">
      <stop offset="0" stop-color="#ffffff" stop-opacity=".85"/>
      <stop offset=".2" stop-color="#d5c6ff"/>
      <stop offset=".72" stop-color="#7367b8"/>
      <stop offset="1" stop-color="#2d2357"/>
    </radialGradient>
    <filter id="softShadow" x="-30%" y="-30%" width="160%" height="160%">
      <feDropShadow dx="0" dy="8" stdDeviation="8" flood-color="#2d2357" flood-opacity=".35"/>
    </filter>
  </defs>
  <rect width="256" height="256" rx="64" fill="url(#bga265)"/>
  <circle cx="128" cy="128" r="106" fill="#fff" opacity=".12"/>
  <circle cx="128" cy="128" r="97" fill="#ffffff" opacity=".18"/>
  <g opacity=".35"><circle cx="27" cy="69" r="3.0" fill="#fff" opacity="0.58"/><circle cx="5" cy="65" r="3.1" fill="#fff" opacity="0.37"/><circle cx="224" cy="203" r="0.9" fill="#fff" opacity="0.67"/><circle cx="252" cy="116" r="1.9" fill="#fff" opacity="0.26"/><circle cx="222" cy="218" r="2.6" fill="#fff" opacity="0.65"/><circle cx="9" cy="174" r="2.2" fill="#fff" opacity="0.40"/><circle cx="149" cy="122" r="0.8" fill="#fff" opacity="0.45"/><circle cx="250" cy="73" r="3.0" fill="#fff" opacity="0.49"/><circle cx="85" cy="65" r="3.1" fill="#fff" opacity="0.26"/><circle cx="4" cy="242" r="2.7" fill="#fff" opacity="0.41"/></g>
  <g transform="rotate(4 128 128)">
    <path d="M110 133 C35 75 36 175 104 179" fill="#7367b8" opacity=".78"/><path d="M146 133 C221 75 220 175 152 179" fill="#7367b8" opacity=".78"/><ellipse cx="128" cy="151" rx="42" ry="54" fill="url(#body)" filter="url(#softShadow)"/><circle cx="128" cy="95" r="38" fill="url(#head)"/><path d="M123 94 L165 105 L125 115 Z" fill="#d5c6ff"/><path d="M106 59 C120 27 140 37 130 65" fill="#2d2357" opacity=".85"/><ellipse cx="112" cy="107" rx="7" ry="8" fill="#14213d"/><ellipse cx="144" cy="107" rx="7" ry="8" fill="#14213d"/><circle cx="115" cy="103" r="2.3" fill="#fff"/><circle cx="147" cy="103" r="2.3" fill="#fff"/><path d="M128 73 L139 87 L128 102 L117 87 Z" fill="#d5c6ff" opacity=".92"/>
  </g>
  <path d="M42 198 C82 222 171 226 216 184" stroke="#fff" stroke-width="11" stroke-linecap="round" opacity=".22"/>
</svg>