<svg xmlns="http://www.w3.org/2000/svg" viewBox="0 0 256 256" role="img" aria-label="熔岩魔神 original avatar">
  
  <defs>
    <linearGradient id="bga275" x1="0" y1="0" x2="1" y2="1">
      <stop offset="0" stop-color="#ffd166"/>
      <stop offset=".55" stop-color="#ff6b35"/>
      <stop offset="1" stop-color="#a92d1d"/>
    </linearGradient>
    <radialGradient id="body" cx=".36" cy=".25" r=".76">
      <stop offset="0" stop-color="#ffd166"/>
      <stop offset=".6" stop-color="#ff6b35"/>
      <stop offset="1" stop-color="#a92d1d"/>
    </radialGradient>
    <radialGradient id="head" cx=".36" cy=".26" r=".72">
      <stop offset="0" stop-color="#ffffff" stop-opacity=".85"/>
      <stop offset=".2" stop-color="#ffd166"/>
      <stop offset=".72" stop-color="#ff6b35"/>
      <stop offset="1" stop-color="#a92d1d"/>
    </radialGradient>
    <filter id="softShadow" x="-30%" y="-30%" width="160%" height="160%">
      <feDropShadow dx="0" dy="8" stdDeviation="8" flood-color="#a92d1d" flood-opacity=".35"/>
    </filter>
  </defs>
  <rect width="256" height="256" rx="64" fill="url(#bga275)"/>
  <circle cx="128" cy="128" r="111" fill="#fff" opacity=".12"/>
  <circle cx="128" cy="128" r="102" fill="#ffffff" opacity=".18"/>
  <g opacity=".35"><circle cx="217" cy="125" r="1.4" fill="#fff" opacity="0.27"/><circle cx="170" cy="101" r="2.4" fill="#fff" opacity="0.43"/><circle cx="142" cy="193" r="2.6" fill="#fff" opacity="0.29"/><circle cx="227" cy="111" r="1.8" fill="#fff" opacity="0.50"/><circle cx="223" cy="70" r="2.8" fill="#fff" opacity="0.32"/><circle cx="129" cy="204" r="1.2" fill="#fff" opacity="0.42"/><circle cx="161" cy="154" r="2.8" fill="#fff" opacity="0.59"/><circle cx="248" cy="89" r="1.4" fill="#fff" opacity="0.29"/><circle cx="144" cy="190" r="2.0" fill="#fff" opacity="0.28"/><circle cx="74" cy="216" r="2.2" fill="#fff" opacity="0.38"/></g>
  <g transform="rotate(5 128 128)">
    <path d="M76 95 L110 60 H155 L187 102 L172 176 H83 Z" fill="url(#body)" filter="url(#softShadow)"/><path d="M100 71 L123 28 L140 67 Z" fill="#ffd166"/><path d="M145 73 L171 39 L170 86 Z" fill="#ff6b35"/><rect x="98" y="119" width="60" height="15" rx="7" fill="#a92d1d" opacity=".38"/><circle cx="114" cy="126" r="5" fill="#ffd166"/><circle cx="142" cy="126" r="5" fill="#ffd166"/><path d="M108 82 Q128 93 148 82" stroke="#ffd166" stroke-width="5" fill="none" stroke-linecap="round" opacity=".8"/>
  </g>
  <path d="M42 198 C82 222 171 226 216 184" stroke="#fff" stroke-width="11" stroke-linecap="round" opacity=".22"/>
</svg>