<svg xmlns="http://www.w3.org/2000/svg" viewBox="0 0 256 256" role="img" aria-label="剧毒母皇 original avatar">
  
  <defs>
    <linearGradient id="bga277" x1="0" y1="0" x2="1" y2="1">
      <stop offset="0" stop-color="#efb2ff"/>
      <stop offset=".55" stop-color="#9b5de5"/>
      <stop offset="1" stop-color="#4f2378"/>
    </linearGradient>
    <radialGradient id="body" cx=".36" cy=".25" r=".76">
      <stop offset="0" stop-color="#efb2ff"/>
      <stop offset=".6" stop-color="#9b5de5"/>
      <stop offset="1" stop-color="#4f2378"/>
    </radialGradient>
    <radialGradient id="head" cx=".36" cy=".26" r=".72">
      <stop offset="0" stop-color="#ffffff" stop-opacity=".85"/>
      <stop offset=".2" stop-color="#efb2ff"/>
      <stop offset=".72" stop-color="#9b5de5"/>
      <stop offset="1" stop-color="#4f2378"/>
    </radialGradient>
    <filter id="softShadow" x="-30%" y="-30%" width="160%" height="160%">
      <feDropShadow dx="0" dy="8" stdDeviation="8" flood-color="#4f2378" flood-opacity=".35"/>
    </filter>
  </defs>
  <rect width="256" height="256" rx="64" fill="url(#bga277)"/>
  <circle cx="128" cy="128" r="111" fill="#fff" opacity=".12"/>
  <circle cx="128" cy="128" r="102" fill="#ffffff" opacity=".18"/>
  <g opacity=".35"><circle cx="38" cy="29" r="0.9" fill="#fff" opacity="0.63"/><circle cx="192" cy="15" r="1.7" fill="#fff" opacity="0.66"/><circle cx="240" cy="161" r="2.9" fill="#fff" opacity="0.58"/><circle cx="95" cy="87" r="3.0" fill="#fff" opacity="0.50"/><circle cx="11" cy="10" r="2.7" fill="#fff" opacity="0.67"/><circle cx="165" cy="62" r="1.4" fill="#fff" opacity="0.63"/><circle cx="248" cy="7" r="3.1" fill="#fff" opacity="0.51"/><circle cx="25" cy="195" r="1.2" fill="#fff" opacity="0.50"/><circle cx="136" cy="37" r="1.6" fill="#fff" opacity="0.69"/><circle cx="33" cy="78" r="2.0" fill="#fff" opacity="0.41"/></g>
  <g transform="rotate(4 128 128)">
    <ellipse cx="128" cy="159" rx="54" ry="49" fill="url(#body)" filter="url(#softShadow)"/><circle cx="128" cy="97" r="42" fill="url(#head)"/><path d="M76 141 C28 132 45 190 84 180" fill="#4f2378"/><path d="M180 141 C228 132 211 190 172 180" fill="#4f2378"/><path d="M101 56 H155 L165 79 Q128 93 91 79 Z" fill="#efb2ff" opacity=".85"/><ellipse cx="112" cy="107" rx="7" ry="8" fill="#14213d"/><ellipse cx="144" cy="107" rx="7" ry="8" fill="#14213d"/><circle cx="115" cy="103" r="2.3" fill="#fff"/><circle cx="147" cy="103" r="2.3" fill="#fff"/><circle cx="128" cy="86" r="7" fill="#efb2ff" opacity=".9"/>
  </g>
  <path d="M42 198 C82 222 171 226 216 184" stroke="#fff" stroke-width="11" stroke-linecap="round" opacity=".22"/>
</svg>