<svg xmlns="http://www.w3.org/2000/svg" viewBox="0 0 256 256" role="img" aria-label="永恒要塞 original avatar">
  
  <defs>
    <linearGradient id="bga289" x1="0" y1="0" x2="1" y2="1">
      <stop offset="0" stop-color="#e8edf2"/>
      <stop offset=".55" stop-color="#9aa8b7"/>
      <stop offset="1" stop-color="#536271"/>
    </linearGradient>
    <radialGradient id="body" cx=".36" cy=".25" r=".76">
      <stop offset="0" stop-color="#e8edf2"/>
      <stop offset=".6" stop-color="#9aa8b7"/>
      <stop offset="1" stop-color="#536271"/>
    </radialGradient>
    <radialGradient id="head" cx=".36" cy=".26" r=".72">
      <stop offset="0" stop-color="#ffffff" stop-opacity=".85"/>
      <stop offset=".2" stop-color="#e8edf2"/>
      <stop offset=".72" stop-color="#9aa8b7"/>
      <stop offset="1" stop-color="#536271"/>
    </radialGradient>
    <filter id="softShadow" x="-30%" y="-30%" width="160%" height="160%">
      <feDropShadow dx="0" dy="8" stdDeviation="8" flood-color="#536271" flood-opacity=".35"/>
    </filter>
  </defs>
  <rect width="256" height="256" rx="64" fill="url(#bga289)"/>
  <circle cx="128" cy="128" r="113" fill="#fff" opacity=".12"/>
  <circle cx="128" cy="128" r="104" fill="#ffffff" opacity=".18"/>
  <g opacity=".35"><circle cx="211" cy="70" r="2.0" fill="#fff" opacity="0.29"/><circle cx="101" cy="74" r="2.3" fill="#fff" opacity="0.43"/><circle cx="48" cy="121" r="3.0" fill="#fff" opacity="0.67"/><circle cx="139" cy="34" r="0.9" fill="#fff" opacity="0.43"/><circle cx="49" cy="100" r="1.3" fill="#fff" opacity="0.57"/><circle cx="153" cy="53" r="3.0" fill="#fff" opacity="0.51"/><circle cx="146" cy="155" r="1.4" fill="#fff" opacity="0.68"/><circle cx="181" cy="146" r="2.2" fill="#fff" opacity="0.63"/><circle cx="80" cy="33" r="1.4" fill="#fff" opacity="0.61"/><circle cx="135" cy="84" r="2.5" fill="#fff" opacity="0.68"/></g>
  <g transform="rotate(-5 128 128)">
    <path d="M76 95 L110 60 H155 L187 102 L172 176 H83 Z" fill="url(#body)" filter="url(#softShadow)"/><path d="M100 71 L123 28 L140 67 Z" fill="#e8edf2"/><path d="M145 73 L171 39 L170 86 Z" fill="#9aa8b7"/><rect x="98" y="119" width="60" height="15" rx="7" fill="#536271" opacity=".38"/><circle cx="114" cy="126" r="5" fill="#e8edf2"/><circle cx="142" cy="126" r="5" fill="#e8edf2"/><path d="M128 73 L139 87 L128 102 L117 87 Z" fill="#e8edf2" opacity=".92"/>
  </g>
  <path d="M42 198 C82 222 171 226 216 184" stroke="#fff" stroke-width="11" stroke-linecap="round" opacity=".22"/>
</svg>