<svg xmlns="http://www.w3.org/2000/svg" viewBox="0 0 256 256" role="img" aria-label="念力鸭皇 original avatar">
  
  <defs>
    <linearGradient id="bga29" x1="0" y1="0" x2="1" y2="1">
      <stop offset="0" stop-color="#ffd0ec"/>
      <stop offset=".55" stop-color="#e056a7"/>
      <stop offset="1" stop-color="#6d327d"/>
    </linearGradient>
    <radialGradient id="body" cx=".36" cy=".25" r=".76">
      <stop offset="0" stop-color="#ffd0ec"/>
      <stop offset=".6" stop-color="#e056a7"/>
      <stop offset="1" stop-color="#6d327d"/>
    </radialGradient>
    <radialGradient id="head" cx=".36" cy=".26" r=".72">
      <stop offset="0" stop-color="#ffffff" stop-opacity=".85"/>
      <stop offset=".2" stop-color="#ffd0ec"/>
      <stop offset=".72" stop-color="#e056a7"/>
      <stop offset="1" stop-color="#6d327d"/>
    </radialGradient>
    <filter id="softShadow" x="-30%" y="-30%" width="160%" height="160%">
      <feDropShadow dx="0" dy="8" stdDeviation="8" flood-color="#6d327d" flood-opacity=".35"/>
    </filter>
  </defs>
  <rect width="256" height="256" rx="64" fill="url(#bga29)"/>
  <circle cx="128" cy="128" r="111" fill="#fff" opacity=".12"/>
  <circle cx="128" cy="128" r="102" fill="#ffffff" opacity=".18"/>
  <g opacity=".35"><circle cx="42" cy="182" r="1.3" fill="#fff" opacity="0.58"/><circle cx="8" cy="58" r="1.3" fill="#fff" opacity="0.31"/><circle cx="236" cy="106" r="1.9" fill="#fff" opacity="0.63"/><circle cx="141" cy="27" r="1.0" fill="#fff" opacity="0.25"/><circle cx="195" cy="45" r="2.3" fill="#fff" opacity="0.55"/><circle cx="61" cy="246" r="2.4" fill="#fff" opacity="0.26"/><circle cx="241" cy="194" r="3.2" fill="#fff" opacity="0.46"/><circle cx="196" cy="10" r="1.8" fill="#fff" opacity="0.55"/><circle cx="209" cy="88" r="1.8" fill="#fff" opacity="0.53"/><circle cx="213" cy="179" r="2.7" fill="#fff" opacity="0.47"/></g>
  <g transform="rotate(1 128 128)">
    <ellipse cx="128" cy="159" rx="54" ry="49" fill="url(#body)" filter="url(#softShadow)"/><circle cx="128" cy="97" r="42" fill="url(#head)"/><path d="M76 141 C28 132 45 190 84 180" fill="#6d327d"/><path d="M180 141 C228 132 211 190 172 180" fill="#6d327d"/><path d="M101 56 H155 L165 79 Q128 93 91 79 Z" fill="#ffd0ec" opacity=".85"/><ellipse cx="112" cy="107" rx="7" ry="8" fill="#14213d"/><ellipse cx="144" cy="107" rx="7" ry="8" fill="#14213d"/><circle cx="115" cy="103" r="2.3" fill="#fff"/><circle cx="147" cy="103" r="2.3" fill="#fff"/><path d="M108 82 Q128 93 148 82" stroke="#ffd0ec" stroke-width="5" fill="none" stroke-linecap="round" opacity=".8"/>
  </g>
  <path d="M42 198 C82 222 171 226 216 184" stroke="#fff" stroke-width="11" stroke-linecap="round" opacity=".22"/>
</svg>