<svg xmlns="http://www.w3.org/2000/svg" viewBox="0 0 256 256" role="img" aria-label="脑波水母 original avatar">
  
  <defs>
    <linearGradient id="bga290" x1="0" y1="0" x2="1" y2="1">
      <stop offset="0" stop-color="#fff27a"/>
      <stop offset=".55" stop-color="#f9c80e"/>
      <stop offset="1" stop-color="#7a5200"/>
    </linearGradient>
    <radialGradient id="body" cx=".36" cy=".25" r=".76">
      <stop offset="0" stop-color="#fff27a"/>
      <stop offset=".6" stop-color="#f9c80e"/>
      <stop offset="1" stop-color="#7a5200"/>
    </radialGradient>
    <radialGradient id="head" cx=".36" cy=".26" r=".72">
      <stop offset="0" stop-color="#ffffff" stop-opacity=".85"/>
      <stop offset=".2" stop-color="#fff27a"/>
      <stop offset=".72" stop-color="#f9c80e"/>
      <stop offset="1" stop-color="#7a5200"/>
    </radialGradient>
    <filter id="softShadow" x="-30%" y="-30%" width="160%" height="160%">
      <feDropShadow dx="0" dy="8" stdDeviation="8" flood-color="#7a5200" flood-opacity=".35"/>
    </filter>
  </defs>
  <rect width="256" height="256" rx="64" fill="url(#bga290)"/>
  <circle cx="128" cy="128" r="111" fill="#fff" opacity=".12"/>
  <circle cx="128" cy="128" r="102" fill="#ffffff" opacity=".18"/>
  <g opacity=".35"><circle cx="23" cy="103" r="2.4" fill="#fff" opacity="0.32"/><circle cx="107" cy="126" r="1.8" fill="#fff" opacity="0.62"/><circle cx="142" cy="86" r="2.9" fill="#fff" opacity="0.52"/><circle cx="144" cy="177" r="2.2" fill="#fff" opacity="0.60"/><circle cx="175" cy="230" r="0.9" fill="#fff" opacity="0.57"/><circle cx="4" cy="109" r="2.8" fill="#fff" opacity="0.62"/><circle cx="166" cy="183" r="1.1" fill="#fff" opacity="0.26"/><circle cx="220" cy="237" r="1.2" fill="#fff" opacity="0.38"/><circle cx="37" cy="25" r="2.0" fill="#fff" opacity="0.29"/><circle cx="165" cy="245" r="1.8" fill="#fff" opacity="0.57"/></g>
  <g transform="rotate(4 128 128)">
    <path d="M57 143 L23 101 L25 185 Z" fill="#f9c80e" opacity=".86"/><ellipse cx="124" cy="141" rx="68" ry="43" fill="url(#body)" filter="url(#softShadow)"/><path d="M122 102 C144 50 178 68 170 112" fill="#f9c80e" opacity=".72"/><path d="M150 171 C168 207 204 185 180 159" fill="#fff27a" opacity=".8"/><circle cx="164" cy="126" r="7" fill="#101828"/><circle cx="167" cy="123" r="2.3" fill="#fff"/><path d="M108 82 Q128 93 148 82" stroke="#fff27a" stroke-width="5" fill="none" stroke-linecap="round" opacity=".8"/>
  </g>
  <path d="M42 198 C82 222 171 226 216 184" stroke="#fff" stroke-width="11" stroke-linecap="round" opacity=".22"/>
</svg>