<svg xmlns="http://www.w3.org/2000/svg" viewBox="0 0 256 256" role="img" aria-label="瘟疫领主 original avatar">
  
  <defs>
    <linearGradient id="bga295" x1="0" y1="0" x2="1" y2="1">
      <stop offset="0" stop-color="#efb2ff"/>
      <stop offset=".55" stop-color="#9b5de5"/>
      <stop offset="1" stop-color="#4f2378"/>
    </linearGradient>
    <radialGradient id="body" cx=".36" cy=".25" r=".76">
      <stop offset="0" stop-color="#efb2ff"/>
      <stop offset=".6" stop-color="#9b5de5"/>
      <stop offset="1" stop-color="#4f2378"/>
    </radialGradient>
    <radialGradient id="head" cx=".36" cy=".26" r=".72">
      <stop offset="0" stop-color="#ffffff" stop-opacity=".85"/>
      <stop offset=".2" stop-color="#efb2ff"/>
      <stop offset=".72" stop-color="#9b5de5"/>
      <stop offset="1" stop-color="#4f2378"/>
    </radialGradient>
    <filter id="softShadow" x="-30%" y="-30%" width="160%" height="160%">
      <feDropShadow dx="0" dy="8" stdDeviation="8" flood-color="#4f2378" flood-opacity=".35"/>
    </filter>
  </defs>
  <rect width="256" height="256" rx="64" fill="url(#bga295)"/>
  <circle cx="128" cy="128" r="112" fill="#fff" opacity=".12"/>
  <circle cx="128" cy="128" r="103" fill="#ffffff" opacity=".18"/>
  <g opacity=".35"><circle cx="149" cy="242" r="1.1" fill="#fff" opacity="0.26"/><circle cx="93" cy="21" r="2.3" fill="#fff" opacity="0.26"/><circle cx="83" cy="190" r="3.2" fill="#fff" opacity="0.25"/><circle cx="106" cy="124" r="1.4" fill="#fff" opacity="0.46"/><circle cx="202" cy="250" r="2.1" fill="#fff" opacity="0.57"/><circle cx="160" cy="89" r="1.5" fill="#fff" opacity="0.45"/><circle cx="63" cy="231" r="1.9" fill="#fff" opacity="0.39"/><circle cx="237" cy="181" r="2.3" fill="#fff" opacity="0.32"/><circle cx="220" cy="79" r="2.2" fill="#fff" opacity="0.42"/><circle cx="16" cy="198" r="1.9" fill="#fff" opacity="0.68"/></g>
  <g transform="rotate(4 128 128)">
    <ellipse cx="128" cy="159" rx="54" ry="49" fill="url(#body)" filter="url(#softShadow)"/><circle cx="128" cy="97" r="42" fill="url(#head)"/><path d="M76 141 C28 132 45 190 84 180" fill="#4f2378"/><path d="M180 141 C228 132 211 190 172 180" fill="#4f2378"/><path d="M101 56 H155 L165 79 Q128 93 91 79 Z" fill="#efb2ff" opacity=".85"/><ellipse cx="112" cy="107" rx="7" ry="8" fill="#14213d"/><ellipse cx="144" cy="107" rx="7" ry="8" fill="#14213d"/><circle cx="115" cy="103" r="2.3" fill="#fff"/><circle cx="147" cy="103" r="2.3" fill="#fff"/><path d="M128 73 L139 87 L128 102 L117 87 Z" fill="#efb2ff" opacity=".92"/>
  </g>
  <path d="M42 198 C82 222 171 226 216 184" stroke="#fff" stroke-width="11" stroke-linecap="round" opacity=".22"/>
</svg>