<svg xmlns="http://www.w3.org/2000/svg" viewBox="0 0 256 256" role="img" aria-label="远古巨蔓藤 original avatar">
  
  <defs>
    <linearGradient id="bga301" x1="0" y1="0" x2="1" y2="1">
      <stop offset="0" stop-color="#c7f7a4"/>
      <stop offset=".55" stop-color="#43b957"/>
      <stop offset="1" stop-color="#1f6f43"/>
    </linearGradient>
    <radialGradient id="body" cx=".36" cy=".25" r=".76">
      <stop offset="0" stop-color="#c7f7a4"/>
      <stop offset=".6" stop-color="#43b957"/>
      <stop offset="1" stop-color="#1f6f43"/>
    </radialGradient>
    <radialGradient id="head" cx=".36" cy=".26" r=".72">
      <stop offset="0" stop-color="#ffffff" stop-opacity=".85"/>
      <stop offset=".2" stop-color="#c7f7a4"/>
      <stop offset=".72" stop-color="#43b957"/>
      <stop offset="1" stop-color="#1f6f43"/>
    </radialGradient>
    <filter id="softShadow" x="-30%" y="-30%" width="160%" height="160%">
      <feDropShadow dx="0" dy="8" stdDeviation="8" flood-color="#1f6f43" flood-opacity=".35"/>
    </filter>
  </defs>
  <rect width="256" height="256" rx="64" fill="url(#bga301)"/>
  <circle cx="128" cy="128" r="113" fill="#fff" opacity=".12"/>
  <circle cx="128" cy="128" r="104" fill="#ffffff" opacity=".18"/>
  <g opacity=".35"><circle cx="91" cy="104" r="1.1" fill="#fff" opacity="0.47"/><circle cx="56" cy="44" r="1.8" fill="#fff" opacity="0.32"/><circle cx="241" cy="210" r="1.8" fill="#fff" opacity="0.35"/><circle cx="236" cy="150" r="2.4" fill="#fff" opacity="0.52"/><circle cx="25" cy="205" r="1.1" fill="#fff" opacity="0.69"/><circle cx="40" cy="122" r="3.1" fill="#fff" opacity="0.42"/><circle cx="138" cy="79" r="1.8" fill="#fff" opacity="0.62"/><circle cx="77" cy="241" r="1.7" fill="#fff" opacity="0.36"/><circle cx="141" cy="188" r="2.5" fill="#fff" opacity="0.50"/><circle cx="144" cy="248" r="1.5" fill="#fff" opacity="0.67"/></g>
  <g transform="rotate(4 128 128)">
    <path d="M116 179 C66 167 44 113 100 118" fill="#43b957" opacity=".82"/><path d="M140 179 C190 167 212 113 156 118" fill="#43b957" opacity=".82"/><ellipse cx="128" cy="149" rx="48" ry="57" fill="url(#body)" filter="url(#softShadow)"/><path d="M128 51 C86 69 82 110 128 106 C174 110 170 69 128 51Z" fill="#c7f7a4"/><circle cx="128" cy="107" r="38" fill="url(#head)"/><ellipse cx="112" cy="107" rx="7" ry="8" fill="#14213d"/><ellipse cx="144" cy="107" rx="7" ry="8" fill="#14213d"/><circle cx="115" cy="103" r="2.3" fill="#fff"/><circle cx="147" cy="103" r="2.3" fill="#fff"/><path d="M128 73 L139 87 L128 102 L117 87 Z" fill="#c7f7a4" opacity=".92"/>
  </g>
  <path d="M42 198 C82 222 171 226 216 184" stroke="#fff" stroke-width="11" stroke-linecap="round" opacity=".22"/>
</svg>