<svg xmlns="http://www.w3.org/2000/svg" viewBox="0 0 256 256" role="img" aria-label="皇家狮鹫 original avatar">
  
  <defs>
    <linearGradient id="bga307" x1="0" y1="0" x2="1" y2="1">
      <stop offset="0" stop-color="#f4e8d8"/>
      <stop offset=".55" stop-color="#b78f68"/>
      <stop offset="1" stop-color="#6d4f3f"/>
    </linearGradient>
    <radialGradient id="body" cx=".36" cy=".25" r=".76">
      <stop offset="0" stop-color="#f4e8d8"/>
      <stop offset=".6" stop-color="#b78f68"/>
      <stop offset="1" stop-color="#6d4f3f"/>
    </radialGradient>
    <radialGradient id="head" cx=".36" cy=".26" r=".72">
      <stop offset="0" stop-color="#ffffff" stop-opacity=".85"/>
      <stop offset=".2" stop-color="#f4e8d8"/>
      <stop offset=".72" stop-color="#b78f68"/>
      <stop offset="1" stop-color="#6d4f3f"/>
    </radialGradient>
    <filter id="softShadow" x="-30%" y="-30%" width="160%" height="160%">
      <feDropShadow dx="0" dy="8" stdDeviation="8" flood-color="#6d4f3f" flood-opacity=".35"/>
    </filter>
  </defs>
  <rect width="256" height="256" rx="64" fill="url(#bga307)"/>
  <circle cx="128" cy="128" r="111" fill="#fff" opacity=".12"/>
  <circle cx="128" cy="128" r="102" fill="#ffffff" opacity=".18"/>
  <g opacity=".35"><circle cx="76" cy="109" r="2.9" fill="#fff" opacity="0.55"/><circle cx="132" cy="24" r="1.3" fill="#fff" opacity="0.55"/><circle cx="113" cy="105" r="2.5" fill="#fff" opacity="0.38"/><circle cx="2" cy="230" r="3.1" fill="#fff" opacity="0.63"/><circle cx="219" cy="130" r="1.9" fill="#fff" opacity="0.38"/><circle cx="100" cy="35" r="2.4" fill="#fff" opacity="0.41"/><circle cx="240" cy="248" r="1.8" fill="#fff" opacity="0.35"/><circle cx="199" cy="161" r="0.9" fill="#fff" opacity="0.51"/><circle cx="199" cy="34" r="1.0" fill="#fff" opacity="0.25"/><circle cx="102" cy="186" r="0.9" fill="#fff" opacity="0.38"/></g>
  <g transform="rotate(3 128 128)">
    <ellipse cx="128" cy="159" rx="54" ry="49" fill="url(#body)" filter="url(#softShadow)"/><circle cx="128" cy="97" r="42" fill="url(#head)"/><path d="M76 141 C28 132 45 190 84 180" fill="#6d4f3f"/><path d="M180 141 C228 132 211 190 172 180" fill="#6d4f3f"/><path d="M101 56 H155 L165 79 Q128 93 91 79 Z" fill="#f4e8d8" opacity=".85"/><ellipse cx="112" cy="107" rx="7" ry="8" fill="#14213d"/><ellipse cx="144" cy="107" rx="7" ry="8" fill="#14213d"/><circle cx="115" cy="103" r="2.3" fill="#fff"/><circle cx="147" cy="103" r="2.3" fill="#fff"/><path d="M108 82 Q128 93 148 82" stroke="#f4e8d8" stroke-width="5" fill="none" stroke-linecap="round" opacity=".8"/>
  </g>
  <path d="M42 198 C82 222 171 226 216 184" stroke="#fff" stroke-width="11" stroke-linecap="round" opacity=".22"/>
</svg>