<svg xmlns="http://www.w3.org/2000/svg" viewBox="0 0 256 256" role="img" aria-label="巫毒人偶王 original avatar">
  
  <defs>
    <linearGradient id="bga309" x1="0" y1="0" x2="1" y2="1">
      <stop offset="0" stop-color="#d5c6ff"/>
      <stop offset=".55" stop-color="#7367b8"/>
      <stop offset="1" stop-color="#2d2357"/>
    </linearGradient>
    <radialGradient id="body" cx=".36" cy=".25" r=".76">
      <stop offset="0" stop-color="#d5c6ff"/>
      <stop offset=".6" stop-color="#7367b8"/>
      <stop offset="1" stop-color="#2d2357"/>
    </radialGradient>
    <radialGradient id="head" cx=".36" cy=".26" r=".72">
      <stop offset="0" stop-color="#ffffff" stop-opacity=".85"/>
      <stop offset=".2" stop-color="#d5c6ff"/>
      <stop offset=".72" stop-color="#7367b8"/>
      <stop offset="1" stop-color="#2d2357"/>
    </radialGradient>
    <filter id="softShadow" x="-30%" y="-30%" width="160%" height="160%">
      <feDropShadow dx="0" dy="8" stdDeviation="8" flood-color="#2d2357" flood-opacity=".35"/>
    </filter>
  </defs>
  <rect width="256" height="256" rx="64" fill="url(#bga309)"/>
  <circle cx="128" cy="128" r="108" fill="#fff" opacity=".12"/>
  <circle cx="128" cy="128" r="99" fill="#ffffff" opacity=".18"/>
  <g opacity=".35"><circle cx="60" cy="101" r="1.2" fill="#fff" opacity="0.51"/><circle cx="182" cy="169" r="2.6" fill="#fff" opacity="0.25"/><circle cx="21" cy="172" r="2.8" fill="#fff" opacity="0.58"/><circle cx="150" cy="192" r="0.9" fill="#fff" opacity="0.33"/><circle cx="192" cy="58" r="1.7" fill="#fff" opacity="0.68"/><circle cx="95" cy="8" r="2.4" fill="#fff" opacity="0.29"/><circle cx="26" cy="9" r="2.9" fill="#fff" opacity="0.40"/><circle cx="137" cy="17" r="1.8" fill="#fff" opacity="0.27"/><circle cx="11" cy="27" r="1.4" fill="#fff" opacity="0.58"/><circle cx="248" cy="123" r="2.5" fill="#fff" opacity="0.56"/></g>
  <g transform="rotate(1 128 128)">
    <ellipse cx="128" cy="159" rx="54" ry="49" fill="url(#body)" filter="url(#softShadow)"/><circle cx="128" cy="97" r="42" fill="url(#head)"/><path d="M76 141 C28 132 45 190 84 180" fill="#2d2357"/><path d="M180 141 C228 132 211 190 172 180" fill="#2d2357"/><path d="M101 56 H155 L165 79 Q128 93 91 79 Z" fill="#d5c6ff" opacity=".85"/><ellipse cx="112" cy="107" rx="7" ry="8" fill="#14213d"/><ellipse cx="144" cy="107" rx="7" ry="8" fill="#14213d"/><circle cx="115" cy="103" r="2.3" fill="#fff"/><circle cx="147" cy="103" r="2.3" fill="#fff"/><path d="M108 82 Q128 93 148 82" stroke="#d5c6ff" stroke-width="5" fill="none" stroke-linecap="round" opacity=".8"/>
  </g>
  <path d="M42 198 C82 222 171 226 216 184" stroke="#fff" stroke-width="11" stroke-linecap="round" opacity=".22"/>
</svg>