<svg xmlns="http://www.w3.org/2000/svg" viewBox="0 0 256 256" role="img" aria-label="静电球 original avatar">
  
  <defs>
    <linearGradient id="bga31" x1="0" y1="0" x2="1" y2="1">
      <stop offset="0" stop-color="#fff27a"/>
      <stop offset=".55" stop-color="#f9c80e"/>
      <stop offset="1" stop-color="#7a5200"/>
    </linearGradient>
    <radialGradient id="body" cx=".36" cy=".25" r=".76">
      <stop offset="0" stop-color="#fff27a"/>
      <stop offset=".6" stop-color="#f9c80e"/>
      <stop offset="1" stop-color="#7a5200"/>
    </radialGradient>
    <radialGradient id="head" cx=".36" cy=".26" r=".72">
      <stop offset="0" stop-color="#ffffff" stop-opacity=".85"/>
      <stop offset=".2" stop-color="#fff27a"/>
      <stop offset=".72" stop-color="#f9c80e"/>
      <stop offset="1" stop-color="#7a5200"/>
    </radialGradient>
    <filter id="softShadow" x="-30%" y="-30%" width="160%" height="160%">
      <feDropShadow dx="0" dy="8" stdDeviation="8" flood-color="#7a5200" flood-opacity=".35"/>
    </filter>
  </defs>
  <rect width="256" height="256" rx="64" fill="url(#bga31)"/>
  <circle cx="128" cy="128" r="112" fill="#fff" opacity=".12"/>
  <circle cx="128" cy="128" r="103" fill="#ffffff" opacity=".18"/>
  <g opacity=".35"><circle cx="242" cy="155" r="2.5" fill="#fff" opacity="0.64"/><circle cx="255" cy="226" r="2.0" fill="#fff" opacity="0.43"/><circle cx="21" cy="172" r="1.9" fill="#fff" opacity="0.63"/><circle cx="104" cy="91" r="0.9" fill="#fff" opacity="0.49"/><circle cx="93" cy="5" r="2.5" fill="#fff" opacity="0.55"/><circle cx="68" cy="127" r="1.4" fill="#fff" opacity="0.36"/><circle cx="133" cy="184" r="0.9" fill="#fff" opacity="0.37"/><circle cx="188" cy="196" r="1.6" fill="#fff" opacity="0.69"/><circle cx="245" cy="49" r="3.0" fill="#fff" opacity="0.65"/><circle cx="67" cy="104" r="2.3" fill="#fff" opacity="0.51"/></g>
  <g transform="rotate(-3 128 128)">
    <path d="M175 153 C219 141 208 92 172 112" stroke="#f9c80e" stroke-width="14" fill="none" stroke-linecap="round" opacity=".76"/><ellipse cx="128" cy="156" rx="53" ry="50" fill="url(#body)" filter="url(#softShadow)"/><path d="M93 87 L70 40 L116 69 Z" fill="#f9c80e"/><path d="M163 87 L186 40 L140 69 Z" fill="#f9c80e"/><circle cx="128" cy="98" r="45" fill="url(#head)"/><ellipse cx="111" cy="106" rx="8" ry="10" fill="#182033"/><ellipse cx="145" cy="106" rx="8" ry="10" fill="#182033"/><ellipse cx="112" cy="107" rx="7" ry="8" fill="#14213d"/><ellipse cx="144" cy="107" rx="7" ry="8" fill="#14213d"/><circle cx="115" cy="103" r="2.3" fill="#fff"/><circle cx="147" cy="103" r="2.3" fill="#fff"/><path d="M128 73 L139 87 L128 102 L117 87 Z" fill="#fff27a" opacity=".92"/>
  </g>
  <path d="M42 198 C82 222 171 226 216 184" stroke="#fff" stroke-width="11" stroke-linecap="round" opacity=".22"/>
</svg>