<svg xmlns="http://www.w3.org/2000/svg" viewBox="0 0 256 256" role="img" aria-label="吸血魔蝠 original avatar">
  
  <defs>
    <linearGradient id="bga317" x1="0" y1="0" x2="1" y2="1">
      <stop offset="0" stop-color="#efb2ff"/>
      <stop offset=".55" stop-color="#9b5de5"/>
      <stop offset="1" stop-color="#4f2378"/>
    </linearGradient>
    <radialGradient id="body" cx=".36" cy=".25" r=".76">
      <stop offset="0" stop-color="#efb2ff"/>
      <stop offset=".6" stop-color="#9b5de5"/>
      <stop offset="1" stop-color="#4f2378"/>
    </radialGradient>
    <radialGradient id="head" cx=".36" cy=".26" r=".72">
      <stop offset="0" stop-color="#ffffff" stop-opacity=".85"/>
      <stop offset=".2" stop-color="#efb2ff"/>
      <stop offset=".72" stop-color="#9b5de5"/>
      <stop offset="1" stop-color="#4f2378"/>
    </radialGradient>
    <filter id="softShadow" x="-30%" y="-30%" width="160%" height="160%">
      <feDropShadow dx="0" dy="8" stdDeviation="8" flood-color="#4f2378" flood-opacity=".35"/>
    </filter>
  </defs>
  <rect width="256" height="256" rx="64" fill="url(#bga317)"/>
  <circle cx="128" cy="128" r="107" fill="#fff" opacity=".12"/>
  <circle cx="128" cy="128" r="98" fill="#ffffff" opacity=".18"/>
  <g opacity=".35"><circle cx="165" cy="240" r="2.3" fill="#fff" opacity="0.45"/><circle cx="150" cy="55" r="0.8" fill="#fff" opacity="0.35"/><circle cx="212" cy="234" r="1.0" fill="#fff" opacity="0.29"/><circle cx="243" cy="197" r="2.7" fill="#fff" opacity="0.46"/><circle cx="247" cy="110" r="3.2" fill="#fff" opacity="0.31"/><circle cx="122" cy="22" r="1.7" fill="#fff" opacity="0.68"/><circle cx="84" cy="80" r="2.9" fill="#fff" opacity="0.39"/><circle cx="120" cy="170" r="1.1" fill="#fff" opacity="0.64"/><circle cx="162" cy="18" r="2.1" fill="#fff" opacity="0.40"/><circle cx="24" cy="122" r="1.2" fill="#fff" opacity="0.53"/></g>
  <g transform="rotate(-2 128 128)">
    <path d="M110 133 C35 75 36 175 104 179" fill="#9b5de5" opacity=".78"/><path d="M146 133 C221 75 220 175 152 179" fill="#9b5de5" opacity=".78"/><ellipse cx="128" cy="151" rx="42" ry="54" fill="url(#body)" filter="url(#softShadow)"/><circle cx="128" cy="95" r="38" fill="url(#head)"/><path d="M123 94 L165 105 L125 115 Z" fill="#efb2ff"/><path d="M106 59 C120 27 140 37 130 65" fill="#4f2378" opacity=".85"/><ellipse cx="112" cy="107" rx="7" ry="8" fill="#14213d"/><ellipse cx="144" cy="107" rx="7" ry="8" fill="#14213d"/><circle cx="115" cy="103" r="2.3" fill="#fff"/><circle cx="147" cy="103" r="2.3" fill="#fff"/><circle cx="128" cy="86" r="7" fill="#efb2ff" opacity=".9"/>
  </g>
  <path d="M42 198 C82 222 171 226 216 184" stroke="#fff" stroke-width="11" stroke-linecap="round" opacity=".22"/>
</svg>