<svg xmlns="http://www.w3.org/2000/svg" viewBox="0 0 256 256" role="img" aria-label="闪电猫 original avatar">
  
  <defs>
    <linearGradient id="bga32" x1="0" y1="0" x2="1" y2="1">
      <stop offset="0" stop-color="#fff27a"/>
      <stop offset=".55" stop-color="#f9c80e"/>
      <stop offset="1" stop-color="#7a5200"/>
    </linearGradient>
    <radialGradient id="body" cx=".36" cy=".25" r=".76">
      <stop offset="0" stop-color="#fff27a"/>
      <stop offset=".6" stop-color="#f9c80e"/>
      <stop offset="1" stop-color="#7a5200"/>
    </radialGradient>
    <radialGradient id="head" cx=".36" cy=".26" r=".72">
      <stop offset="0" stop-color="#ffffff" stop-opacity=".85"/>
      <stop offset=".2" stop-color="#fff27a"/>
      <stop offset=".72" stop-color="#f9c80e"/>
      <stop offset="1" stop-color="#7a5200"/>
    </radialGradient>
    <filter id="softShadow" x="-30%" y="-30%" width="160%" height="160%">
      <feDropShadow dx="0" dy="8" stdDeviation="8" flood-color="#7a5200" flood-opacity=".35"/>
    </filter>
  </defs>
  <rect width="256" height="256" rx="64" fill="url(#bga32)"/>
  <circle cx="128" cy="128" r="106" fill="#fff" opacity=".12"/>
  <circle cx="128" cy="128" r="97" fill="#ffffff" opacity=".18"/>
  <g opacity=".35"><circle cx="47" cy="38" r="1.6" fill="#fff" opacity="0.59"/><circle cx="43" cy="8" r="1.1" fill="#fff" opacity="0.45"/><circle cx="232" cy="76" r="0.9" fill="#fff" opacity="0.39"/><circle cx="4" cy="138" r="2.2" fill="#fff" opacity="0.69"/><circle cx="8" cy="151" r="3.0" fill="#fff" opacity="0.34"/><circle cx="185" cy="254" r="1.3" fill="#fff" opacity="0.36"/><circle cx="32" cy="183" r="2.7" fill="#fff" opacity="0.28"/><circle cx="161" cy="146" r="2.9" fill="#fff" opacity="0.32"/><circle cx="208" cy="160" r="2.2" fill="#fff" opacity="0.44"/><circle cx="80" cy="22" r="2.2" fill="#fff" opacity="0.27"/></g>
  <g transform="rotate(2 128 128)">
    <path d="M81 153 C37 141 48 92 84 112" stroke="#f9c80e" stroke-width="14" fill="none" stroke-linecap="round" opacity=".76"/><ellipse cx="128" cy="156" rx="53" ry="50" fill="url(#body)" filter="url(#softShadow)"/><path d="M93 87 L70 40 L116 69 Z" fill="#f9c80e"/><path d="M163 87 L186 40 L140 69 Z" fill="#f9c80e"/><circle cx="128" cy="98" r="45" fill="url(#head)"/><ellipse cx="111" cy="106" rx="8" ry="10" fill="#182033"/><ellipse cx="145" cy="106" rx="8" ry="10" fill="#182033"/><ellipse cx="112" cy="107" rx="7" ry="8" fill="#14213d"/><ellipse cx="144" cy="107" rx="7" ry="8" fill="#14213d"/><circle cx="115" cy="103" r="2.3" fill="#fff"/><circle cx="147" cy="103" r="2.3" fill="#fff"/><path d="M108 82 Q128 93 148 82" stroke="#fff27a" stroke-width="5" fill="none" stroke-linecap="round" opacity=".8"/>
  </g>
  <path d="M42 198 C82 222 171 226 216 184" stroke="#fff" stroke-width="11" stroke-linecap="round" opacity=".22"/>
</svg>