<svg xmlns="http://www.w3.org/2000/svg" viewBox="0 0 256 256" role="img" aria-label="赛博主脑 original avatar">
  
  <defs>
    <linearGradient id="bga324" x1="0" y1="0" x2="1" y2="1">
      <stop offset="0" stop-color="#f4e8d8"/>
      <stop offset=".55" stop-color="#b78f68"/>
      <stop offset="1" stop-color="#6d4f3f"/>
    </linearGradient>
    <radialGradient id="body" cx=".36" cy=".25" r=".76">
      <stop offset="0" stop-color="#f4e8d8"/>
      <stop offset=".6" stop-color="#b78f68"/>
      <stop offset="1" stop-color="#6d4f3f"/>
    </radialGradient>
    <radialGradient id="head" cx=".36" cy=".26" r=".72">
      <stop offset="0" stop-color="#ffffff" stop-opacity=".85"/>
      <stop offset=".2" stop-color="#f4e8d8"/>
      <stop offset=".72" stop-color="#b78f68"/>
      <stop offset="1" stop-color="#6d4f3f"/>
    </radialGradient>
    <filter id="softShadow" x="-30%" y="-30%" width="160%" height="160%">
      <feDropShadow dx="0" dy="8" stdDeviation="8" flood-color="#6d4f3f" flood-opacity=".35"/>
    </filter>
  </defs>
  <rect width="256" height="256" rx="64" fill="url(#bga324)"/>
  <circle cx="128" cy="128" r="107" fill="#fff" opacity=".12"/>
  <circle cx="128" cy="128" r="98" fill="#ffffff" opacity=".18"/>
  <g opacity=".35"><circle cx="90" cy="241" r="3.2" fill="#fff" opacity="0.56"/><circle cx="100" cy="47" r="2.1" fill="#fff" opacity="0.32"/><circle cx="36" cy="122" r="2.5" fill="#fff" opacity="0.29"/><circle cx="127" cy="107" r="2.4" fill="#fff" opacity="0.40"/><circle cx="210" cy="50" r="2.0" fill="#fff" opacity="0.30"/><circle cx="183" cy="96" r="1.4" fill="#fff" opacity="0.36"/><circle cx="132" cy="211" r="1.0" fill="#fff" opacity="0.42"/><circle cx="202" cy="135" r="2.6" fill="#fff" opacity="0.51"/><circle cx="67" cy="211" r="1.8" fill="#fff" opacity="0.54"/><circle cx="196" cy="87" r="1.6" fill="#fff" opacity="0.47"/></g>
  <g transform="rotate(4 128 128)">
    <ellipse cx="128" cy="159" rx="54" ry="49" fill="url(#body)" filter="url(#softShadow)"/><circle cx="128" cy="97" r="42" fill="url(#head)"/><path d="M76 141 C28 132 45 190 84 180" fill="#6d4f3f"/><path d="M180 141 C228 132 211 190 172 180" fill="#6d4f3f"/><path d="M101 56 H155 L165 79 Q128 93 91 79 Z" fill="#f4e8d8" opacity=".85"/><ellipse cx="112" cy="107" rx="7" ry="8" fill="#14213d"/><ellipse cx="144" cy="107" rx="7" ry="8" fill="#14213d"/><circle cx="115" cy="103" r="2.3" fill="#fff"/><circle cx="147" cy="103" r="2.3" fill="#fff"/><path d="M108 82 Q128 93 148 82" stroke="#f4e8d8" stroke-width="5" fill="none" stroke-linecap="round" opacity=".8"/>
  </g>
  <path d="M42 198 C82 222 171 226 216 184" stroke="#fff" stroke-width="11" stroke-linecap="round" opacity=".22"/>
</svg>