<svg xmlns="http://www.w3.org/2000/svg" viewBox="0 0 256 256" role="img" aria-label="深海克拉肯 original avatar">
  
  <defs>
    <linearGradient id="bga325" x1="0" y1="0" x2="1" y2="1">
      <stop offset="0" stop-color="#ddd0b2"/>
      <stop offset=".55" stop-color="#8d7a5f"/>
      <stop offset="1" stop-color="#514438"/>
    </linearGradient>
    <radialGradient id="body" cx=".36" cy=".25" r=".76">
      <stop offset="0" stop-color="#ddd0b2"/>
      <stop offset=".6" stop-color="#8d7a5f"/>
      <stop offset="1" stop-color="#514438"/>
    </radialGradient>
    <radialGradient id="head" cx=".36" cy=".26" r=".72">
      <stop offset="0" stop-color="#ffffff" stop-opacity=".85"/>
      <stop offset=".2" stop-color="#ddd0b2"/>
      <stop offset=".72" stop-color="#8d7a5f"/>
      <stop offset="1" stop-color="#514438"/>
    </radialGradient>
    <filter id="softShadow" x="-30%" y="-30%" width="160%" height="160%">
      <feDropShadow dx="0" dy="8" stdDeviation="8" flood-color="#514438" flood-opacity=".35"/>
    </filter>
  </defs>
  <rect width="256" height="256" rx="64" fill="url(#bga325)"/>
  <circle cx="128" cy="128" r="112" fill="#fff" opacity=".12"/>
  <circle cx="128" cy="128" r="103" fill="#ffffff" opacity=".18"/>
  <g opacity=".35"><circle cx="45" cy="174" r="2.9" fill="#fff" opacity="0.55"/><circle cx="97" cy="205" r="1.0" fill="#fff" opacity="0.30"/><circle cx="252" cy="179" r="0.9" fill="#fff" opacity="0.40"/><circle cx="173" cy="6" r="1.5" fill="#fff" opacity="0.48"/><circle cx="81" cy="37" r="1.5" fill="#fff" opacity="0.50"/><circle cx="176" cy="72" r="2.3" fill="#fff" opacity="0.70"/><circle cx="163" cy="35" r="2.2" fill="#fff" opacity="0.54"/><circle cx="57" cy="243" r="2.8" fill="#fff" opacity="0.33"/><circle cx="10" cy="124" r="2.3" fill="#fff" opacity="0.66"/><circle cx="241" cy="95" r="3.1" fill="#fff" opacity="0.67"/></g>
  <g transform="rotate(4 128 128)">
    <path d="M57 143 L23 101 L25 185 Z" fill="#8d7a5f" opacity=".86"/><ellipse cx="124" cy="141" rx="68" ry="43" fill="url(#body)" filter="url(#softShadow)"/><path d="M122 102 C144 50 178 68 170 112" fill="#8d7a5f" opacity=".72"/><path d="M150 171 C168 207 204 185 180 159" fill="#ddd0b2" opacity=".8"/><circle cx="164" cy="126" r="7" fill="#101828"/><circle cx="167" cy="123" r="2.3" fill="#fff"/><circle cx="128" cy="86" r="7" fill="#ddd0b2" opacity=".9"/>
  </g>
  <path d="M42 198 C82 222 171 226 216 184" stroke="#fff" stroke-width="11" stroke-linecap="round" opacity=".22"/>
</svg>