<svg xmlns="http://www.w3.org/2000/svg" viewBox="0 0 256 256" role="img" aria-label="四臂修罗 original avatar">
  
  <defs>
    <linearGradient id="bga330" x1="0" y1="0" x2="1" y2="1">
      <stop offset="0" stop-color="#f4e8d8"/>
      <stop offset=".55" stop-color="#b78f68"/>
      <stop offset="1" stop-color="#6d4f3f"/>
    </linearGradient>
    <radialGradient id="body" cx=".36" cy=".25" r=".76">
      <stop offset="0" stop-color="#f4e8d8"/>
      <stop offset=".6" stop-color="#b78f68"/>
      <stop offset="1" stop-color="#6d4f3f"/>
    </radialGradient>
    <radialGradient id="head" cx=".36" cy=".26" r=".72">
      <stop offset="0" stop-color="#ffffff" stop-opacity=".85"/>
      <stop offset=".2" stop-color="#f4e8d8"/>
      <stop offset=".72" stop-color="#b78f68"/>
      <stop offset="1" stop-color="#6d4f3f"/>
    </radialGradient>
    <filter id="softShadow" x="-30%" y="-30%" width="160%" height="160%">
      <feDropShadow dx="0" dy="8" stdDeviation="8" flood-color="#6d4f3f" flood-opacity=".35"/>
    </filter>
  </defs>
  <rect width="256" height="256" rx="64" fill="url(#bga330)"/>
  <circle cx="128" cy="128" r="107" fill="#fff" opacity=".12"/>
  <circle cx="128" cy="128" r="98" fill="#ffffff" opacity=".18"/>
  <g opacity=".35"><circle cx="87" cy="164" r="1.8" fill="#fff" opacity="0.47"/><circle cx="107" cy="5" r="3.1" fill="#fff" opacity="0.53"/><circle cx="202" cy="63" r="1.9" fill="#fff" opacity="0.30"/><circle cx="233" cy="234" r="2.3" fill="#fff" opacity="0.52"/><circle cx="178" cy="229" r="2.2" fill="#fff" opacity="0.50"/><circle cx="74" cy="68" r="1.3" fill="#fff" opacity="0.56"/><circle cx="96" cy="216" r="3.1" fill="#fff" opacity="0.56"/><circle cx="169" cy="132" r="2.6" fill="#fff" opacity="0.26"/><circle cx="11" cy="135" r="2.3" fill="#fff" opacity="0.69"/><circle cx="21" cy="35" r="2.3" fill="#fff" opacity="0.46"/></g>
  <g transform="rotate(3 128 128)">
    <path d="M81 153 C37 141 48 92 84 112" stroke="#b78f68" stroke-width="14" fill="none" stroke-linecap="round" opacity=".76"/><ellipse cx="128" cy="156" rx="53" ry="50" fill="url(#body)" filter="url(#softShadow)"/><path d="M93 87 L70 40 L116 69 Z" fill="#b78f68"/><path d="M163 87 L186 40 L140 69 Z" fill="#b78f68"/><circle cx="128" cy="98" r="45" fill="url(#head)"/><ellipse cx="111" cy="106" rx="8" ry="10" fill="#182033"/><ellipse cx="145" cy="106" rx="8" ry="10" fill="#182033"/><ellipse cx="112" cy="107" rx="7" ry="8" fill="#14213d"/><ellipse cx="144" cy="107" rx="7" ry="8" fill="#14213d"/><circle cx="115" cy="103" r="2.3" fill="#fff"/><circle cx="147" cy="103" r="2.3" fill="#fff"/><path d="M128 73 L139 87 L128 102 L117 87 Z" fill="#f4e8d8" opacity=".92"/>
  </g>
  <path d="M42 198 C82 222 171 226 216 184" stroke="#fff" stroke-width="11" stroke-linecap="round" opacity=".22"/>
</svg>