<svg xmlns="http://www.w3.org/2000/svg" viewBox="0 0 256 256" role="img" aria-label="预言猫 original avatar">
  
  <defs>
    <linearGradient id="bga348" x1="0" y1="0" x2="1" y2="1">
      <stop offset="0" stop-color="#ffd0ec"/>
      <stop offset=".55" stop-color="#e056a7"/>
      <stop offset="1" stop-color="#6d327d"/>
    </linearGradient>
    <radialGradient id="body" cx=".36" cy=".25" r=".76">
      <stop offset="0" stop-color="#ffd0ec"/>
      <stop offset=".6" stop-color="#e056a7"/>
      <stop offset="1" stop-color="#6d327d"/>
    </radialGradient>
    <radialGradient id="head" cx=".36" cy=".26" r=".72">
      <stop offset="0" stop-color="#ffffff" stop-opacity=".85"/>
      <stop offset=".2" stop-color="#ffd0ec"/>
      <stop offset=".72" stop-color="#e056a7"/>
      <stop offset="1" stop-color="#6d327d"/>
    </radialGradient>
    <filter id="softShadow" x="-30%" y="-30%" width="160%" height="160%">
      <feDropShadow dx="0" dy="8" stdDeviation="8" flood-color="#6d327d" flood-opacity=".35"/>
    </filter>
  </defs>
  <rect width="256" height="256" rx="64" fill="url(#bga348)"/>
  <circle cx="128" cy="128" r="107" fill="#fff" opacity=".12"/>
  <circle cx="128" cy="128" r="98" fill="#ffffff" opacity=".18"/>
  <g opacity=".35"><circle cx="144" cy="81" r="3.1" fill="#fff" opacity="0.37"/><circle cx="12" cy="4" r="2.3" fill="#fff" opacity="0.42"/><circle cx="49" cy="186" r="2.2" fill="#fff" opacity="0.29"/><circle cx="201" cy="142" r="1.2" fill="#fff" opacity="0.33"/><circle cx="153" cy="247" r="0.8" fill="#fff" opacity="0.41"/><circle cx="243" cy="118" r="1.1" fill="#fff" opacity="0.38"/><circle cx="131" cy="184" r="1.9" fill="#fff" opacity="0.50"/><circle cx="195" cy="237" r="1.5" fill="#fff" opacity="0.36"/><circle cx="255" cy="179" r="2.2" fill="#fff" opacity="0.54"/><circle cx="13" cy="7" r="1.7" fill="#fff" opacity="0.32"/></g>
  <g transform="rotate(-2 128 128)">
    <path d="M81 153 C37 141 48 92 84 112" stroke="#e056a7" stroke-width="14" fill="none" stroke-linecap="round" opacity=".76"/><ellipse cx="128" cy="156" rx="53" ry="50" fill="url(#body)" filter="url(#softShadow)"/><path d="M93 87 L70 40 L116 69 Z" fill="#e056a7"/><path d="M163 87 L186 40 L140 69 Z" fill="#e056a7"/><circle cx="128" cy="98" r="45" fill="url(#head)"/><ellipse cx="111" cy="106" rx="8" ry="10" fill="#182033"/><ellipse cx="145" cy="106" rx="8" ry="10" fill="#182033"/><ellipse cx="112" cy="107" rx="7" ry="8" fill="#14213d"/><ellipse cx="144" cy="107" rx="7" ry="8" fill="#14213d"/><circle cx="115" cy="103" r="2.3" fill="#fff"/><circle cx="147" cy="103" r="2.3" fill="#fff"/><path d="M128 73 L139 87 L128 102 L117 87 Z" fill="#ffd0ec" opacity=".92"/>
  </g>
  <path d="M42 198 C82 222 171 226 216 184" stroke="#fff" stroke-width="11" stroke-linecap="round" opacity=".22"/>
</svg>