<svg xmlns="http://www.w3.org/2000/svg" viewBox="0 0 256 256" role="img" aria-label="磁暴塔 original avatar">
  
  <defs>
    <linearGradient id="bga35" x1="0" y1="0" x2="1" y2="1">
      <stop offset="0" stop-color="#fff27a"/>
      <stop offset=".55" stop-color="#f9c80e"/>
      <stop offset="1" stop-color="#7a5200"/>
    </linearGradient>
    <radialGradient id="body" cx=".36" cy=".25" r=".76">
      <stop offset="0" stop-color="#fff27a"/>
      <stop offset=".6" stop-color="#f9c80e"/>
      <stop offset="1" stop-color="#7a5200"/>
    </radialGradient>
    <radialGradient id="head" cx=".36" cy=".26" r=".72">
      <stop offset="0" stop-color="#ffffff" stop-opacity=".85"/>
      <stop offset=".2" stop-color="#fff27a"/>
      <stop offset=".72" stop-color="#f9c80e"/>
      <stop offset="1" stop-color="#7a5200"/>
    </radialGradient>
    <filter id="softShadow" x="-30%" y="-30%" width="160%" height="160%">
      <feDropShadow dx="0" dy="8" stdDeviation="8" flood-color="#7a5200" flood-opacity=".35"/>
    </filter>
  </defs>
  <rect width="256" height="256" rx="64" fill="url(#bga35)"/>
  <circle cx="128" cy="128" r="113" fill="#fff" opacity=".12"/>
  <circle cx="128" cy="128" r="104" fill="#ffffff" opacity=".18"/>
  <g opacity=".35"><circle cx="90" cy="45" r="2.1" fill="#fff" opacity="0.65"/><circle cx="13" cy="148" r="2.8" fill="#fff" opacity="0.64"/><circle cx="244" cy="151" r="3.2" fill="#fff" opacity="0.52"/><circle cx="167" cy="146" r="2.0" fill="#fff" opacity="0.39"/><circle cx="32" cy="110" r="2.0" fill="#fff" opacity="0.60"/><circle cx="204" cy="130" r="1.3" fill="#fff" opacity="0.39"/><circle cx="149" cy="28" r="2.0" fill="#fff" opacity="0.54"/><circle cx="94" cy="192" r="1.2" fill="#fff" opacity="0.42"/><circle cx="212" cy="77" r="2.1" fill="#fff" opacity="0.64"/><circle cx="187" cy="0" r="1.3" fill="#fff" opacity="0.55"/></g>
  <g transform="rotate(-3 128 128)">
    <path d="M76 95 L110 60 H155 L187 102 L172 176 H83 Z" fill="url(#body)" filter="url(#softShadow)"/><path d="M100 71 L123 28 L140 67 Z" fill="#fff27a"/><path d="M145 73 L171 39 L170 86 Z" fill="#f9c80e"/><rect x="98" y="119" width="60" height="15" rx="7" fill="#7a5200" opacity=".38"/><circle cx="114" cy="126" r="5" fill="#fff27a"/><circle cx="142" cy="126" r="5" fill="#fff27a"/><path d="M128 73 L139 87 L128 102 L117 87 Z" fill="#fff27a" opacity=".92"/>
  </g>
  <path d="M42 198 C82 222 171 226 216 184" stroke="#fff" stroke-width="11" stroke-linecap="round" opacity=".22"/>
</svg>