<svg xmlns="http://www.w3.org/2000/svg" viewBox="0 0 256 256" role="img" aria-label="史前霸主 original avatar">
  
  <defs>
    <linearGradient id="bga355" x1="0" y1="0" x2="1" y2="1">
      <stop offset="0" stop-color="#d9f67f"/>
      <stop offset=".55" stop-color="#86bd2d"/>
      <stop offset="1" stop-color="#3f6c1b"/>
    </linearGradient>
    <radialGradient id="body" cx=".36" cy=".25" r=".76">
      <stop offset="0" stop-color="#d9f67f"/>
      <stop offset=".6" stop-color="#86bd2d"/>
      <stop offset="1" stop-color="#3f6c1b"/>
    </radialGradient>
    <radialGradient id="head" cx=".36" cy=".26" r=".72">
      <stop offset="0" stop-color="#ffffff" stop-opacity=".85"/>
      <stop offset=".2" stop-color="#d9f67f"/>
      <stop offset=".72" stop-color="#86bd2d"/>
      <stop offset="1" stop-color="#3f6c1b"/>
    </radialGradient>
    <filter id="softShadow" x="-30%" y="-30%" width="160%" height="160%">
      <feDropShadow dx="0" dy="8" stdDeviation="8" flood-color="#3f6c1b" flood-opacity=".35"/>
    </filter>
  </defs>
  <rect width="256" height="256" rx="64" fill="url(#bga355)"/>
  <circle cx="128" cy="128" r="110" fill="#fff" opacity=".12"/>
  <circle cx="128" cy="128" r="101" fill="#ffffff" opacity=".18"/>
  <g opacity=".35"><circle cx="98" cy="143" r="1.1" fill="#fff" opacity="0.36"/><circle cx="153" cy="180" r="2.7" fill="#fff" opacity="0.60"/><circle cx="51" cy="12" r="1.8" fill="#fff" opacity="0.62"/><circle cx="206" cy="39" r="1.2" fill="#fff" opacity="0.66"/><circle cx="161" cy="151" r="1.2" fill="#fff" opacity="0.41"/><circle cx="24" cy="37" r="2.7" fill="#fff" opacity="0.38"/><circle cx="24" cy="104" r="2.3" fill="#fff" opacity="0.52"/><circle cx="144" cy="219" r="1.6" fill="#fff" opacity="0.25"/><circle cx="114" cy="167" r="1.9" fill="#fff" opacity="0.67"/><circle cx="243" cy="244" r="2.6" fill="#fff" opacity="0.60"/></g>
  <g transform="rotate(1 128 128)">
    <ellipse cx="128" cy="159" rx="54" ry="49" fill="url(#body)" filter="url(#softShadow)"/><circle cx="128" cy="97" r="42" fill="url(#head)"/><path d="M76 141 C28 132 45 190 84 180" fill="#3f6c1b"/><path d="M180 141 C228 132 211 190 172 180" fill="#3f6c1b"/><path d="M101 56 H155 L165 79 Q128 93 91 79 Z" fill="#d9f67f" opacity=".85"/><ellipse cx="112" cy="107" rx="7" ry="8" fill="#14213d"/><ellipse cx="144" cy="107" rx="7" ry="8" fill="#14213d"/><circle cx="115" cy="103" r="2.3" fill="#fff"/><circle cx="147" cy="103" r="2.3" fill="#fff"/><path d="M108 82 Q128 93 148 82" stroke="#d9f67f" stroke-width="5" fill="none" stroke-linecap="round" opacity=".8"/>
  </g>
  <path d="M42 198 C82 222 171 226 216 184" stroke="#fff" stroke-width="11" stroke-linecap="round" opacity=".22"/>
</svg>