<svg xmlns="http://www.w3.org/2000/svg" viewBox="0 0 256 256" role="img" aria-label="暴食君王 original avatar">
  
  <defs>
    <linearGradient id="bga358" x1="0" y1="0" x2="1" y2="1">
      <stop offset="0" stop-color="#f4e8d8"/>
      <stop offset=".55" stop-color="#b78f68"/>
      <stop offset="1" stop-color="#6d4f3f"/>
    </linearGradient>
    <radialGradient id="body" cx=".36" cy=".25" r=".76">
      <stop offset="0" stop-color="#f4e8d8"/>
      <stop offset=".6" stop-color="#b78f68"/>
      <stop offset="1" stop-color="#6d4f3f"/>
    </radialGradient>
    <radialGradient id="head" cx=".36" cy=".26" r=".72">
      <stop offset="0" stop-color="#ffffff" stop-opacity=".85"/>
      <stop offset=".2" stop-color="#f4e8d8"/>
      <stop offset=".72" stop-color="#b78f68"/>
      <stop offset="1" stop-color="#6d4f3f"/>
    </radialGradient>
    <filter id="softShadow" x="-30%" y="-30%" width="160%" height="160%">
      <feDropShadow dx="0" dy="8" stdDeviation="8" flood-color="#6d4f3f" flood-opacity=".35"/>
    </filter>
  </defs>
  <rect width="256" height="256" rx="64" fill="url(#bga358)"/>
  <circle cx="128" cy="128" r="111" fill="#fff" opacity=".12"/>
  <circle cx="128" cy="128" r="102" fill="#ffffff" opacity=".18"/>
  <g opacity=".35"><circle cx="122" cy="51" r="1.3" fill="#fff" opacity="0.68"/><circle cx="127" cy="17" r="2.6" fill="#fff" opacity="0.52"/><circle cx="168" cy="20" r="1.5" fill="#fff" opacity="0.28"/><circle cx="185" cy="169" r="2.9" fill="#fff" opacity="0.31"/><circle cx="132" cy="225" r="2.0" fill="#fff" opacity="0.67"/><circle cx="102" cy="90" r="1.0" fill="#fff" opacity="0.63"/><circle cx="175" cy="54" r="2.7" fill="#fff" opacity="0.35"/><circle cx="166" cy="28" r="1.0" fill="#fff" opacity="0.44"/><circle cx="77" cy="119" r="2.2" fill="#fff" opacity="0.47"/><circle cx="51" cy="64" r="2.2" fill="#fff" opacity="0.61"/></g>
  <g transform="rotate(5 128 128)">
    <ellipse cx="128" cy="159" rx="54" ry="49" fill="url(#body)" filter="url(#softShadow)"/><circle cx="128" cy="97" r="42" fill="url(#head)"/><path d="M76 141 C28 132 45 190 84 180" fill="#6d4f3f"/><path d="M180 141 C228 132 211 190 172 180" fill="#6d4f3f"/><path d="M101 56 H155 L165 79 Q128 93 91 79 Z" fill="#f4e8d8" opacity=".85"/><ellipse cx="112" cy="107" rx="7" ry="8" fill="#14213d"/><ellipse cx="144" cy="107" rx="7" ry="8" fill="#14213d"/><circle cx="115" cy="103" r="2.3" fill="#fff"/><circle cx="147" cy="103" r="2.3" fill="#fff"/><circle cx="128" cy="86" r="7" fill="#f4e8d8" opacity=".9"/>
  </g>
  <path d="M42 198 C82 222 171 226 216 184" stroke="#fff" stroke-width="11" stroke-linecap="round" opacity=".22"/>
</svg>