<svg xmlns="http://www.w3.org/2000/svg" viewBox="0 0 256 256" role="img" aria-label="古文明遗物 original avatar">
  
  <defs>
    <linearGradient id="bga361" x1="0" y1="0" x2="1" y2="1">
      <stop offset="0" stop-color="#e8edf2"/>
      <stop offset=".55" stop-color="#9aa8b7"/>
      <stop offset="1" stop-color="#536271"/>
    </linearGradient>
    <radialGradient id="body" cx=".36" cy=".25" r=".76">
      <stop offset="0" stop-color="#e8edf2"/>
      <stop offset=".6" stop-color="#9aa8b7"/>
      <stop offset="1" stop-color="#536271"/>
    </radialGradient>
    <radialGradient id="head" cx=".36" cy=".26" r=".72">
      <stop offset="0" stop-color="#ffffff" stop-opacity=".85"/>
      <stop offset=".2" stop-color="#e8edf2"/>
      <stop offset=".72" stop-color="#9aa8b7"/>
      <stop offset="1" stop-color="#536271"/>
    </radialGradient>
    <filter id="softShadow" x="-30%" y="-30%" width="160%" height="160%">
      <feDropShadow dx="0" dy="8" stdDeviation="8" flood-color="#536271" flood-opacity=".35"/>
    </filter>
  </defs>
  <rect width="256" height="256" rx="64" fill="url(#bga361)"/>
  <circle cx="128" cy="128" r="109" fill="#fff" opacity=".12"/>
  <circle cx="128" cy="128" r="100" fill="#ffffff" opacity=".18"/>
  <g opacity=".35"><circle cx="55" cy="204" r="2.6" fill="#fff" opacity="0.49"/><circle cx="111" cy="185" r="2.5" fill="#fff" opacity="0.37"/><circle cx="81" cy="35" r="0.9" fill="#fff" opacity="0.38"/><circle cx="210" cy="43" r="1.0" fill="#fff" opacity="0.51"/><circle cx="63" cy="71" r="0.9" fill="#fff" opacity="0.42"/><circle cx="254" cy="178" r="2.7" fill="#fff" opacity="0.63"/><circle cx="184" cy="70" r="1.3" fill="#fff" opacity="0.31"/><circle cx="78" cy="224" r="1.0" fill="#fff" opacity="0.38"/><circle cx="58" cy="214" r="2.5" fill="#fff" opacity="0.46"/><circle cx="74" cy="211" r="1.3" fill="#fff" opacity="0.66"/></g>
  <g transform="rotate(-2 128 128)">
    <path d="M76 95 L110 60 H155 L187 102 L172 176 H83 Z" fill="url(#body)" filter="url(#softShadow)"/><path d="M100 71 L123 28 L140 67 Z" fill="#e8edf2"/><path d="M145 73 L171 39 L170 86 Z" fill="#9aa8b7"/><rect x="98" y="119" width="60" height="15" rx="7" fill="#536271" opacity=".38"/><circle cx="114" cy="126" r="5" fill="#e8edf2"/><circle cx="142" cy="126" r="5" fill="#e8edf2"/><path d="M108 82 Q128 93 148 82" stroke="#e8edf2" stroke-width="5" fill="none" stroke-linecap="round" opacity=".8"/>
  </g>
  <path d="M42 198 C82 222 171 226 216 184" stroke="#fff" stroke-width="11" stroke-linecap="round" opacity=".22"/>
</svg>