<svg xmlns="http://www.w3.org/2000/svg" viewBox="0 0 256 256" role="img" aria-label="鹦鹉螺神 original avatar">
  
  <defs>
    <linearGradient id="bga365" x1="0" y1="0" x2="1" y2="1">
      <stop offset="0" stop-color="#ddd0b2"/>
      <stop offset=".55" stop-color="#8d7a5f"/>
      <stop offset="1" stop-color="#514438"/>
    </linearGradient>
    <radialGradient id="body" cx=".36" cy=".25" r=".76">
      <stop offset="0" stop-color="#ddd0b2"/>
      <stop offset=".6" stop-color="#8d7a5f"/>
      <stop offset="1" stop-color="#514438"/>
    </radialGradient>
    <radialGradient id="head" cx=".36" cy=".26" r=".72">
      <stop offset="0" stop-color="#ffffff" stop-opacity=".85"/>
      <stop offset=".2" stop-color="#ddd0b2"/>
      <stop offset=".72" stop-color="#8d7a5f"/>
      <stop offset="1" stop-color="#514438"/>
    </radialGradient>
    <filter id="softShadow" x="-30%" y="-30%" width="160%" height="160%">
      <feDropShadow dx="0" dy="8" stdDeviation="8" flood-color="#514438" flood-opacity=".35"/>
    </filter>
  </defs>
  <rect width="256" height="256" rx="64" fill="url(#bga365)"/>
  <circle cx="128" cy="128" r="108" fill="#fff" opacity=".12"/>
  <circle cx="128" cy="128" r="99" fill="#ffffff" opacity=".18"/>
  <g opacity=".35"><circle cx="169" cy="167" r="2.5" fill="#fff" opacity="0.37"/><circle cx="62" cy="96" r="1.1" fill="#fff" opacity="0.63"/><circle cx="142" cy="39" r="2.6" fill="#fff" opacity="0.39"/><circle cx="122" cy="236" r="1.1" fill="#fff" opacity="0.54"/><circle cx="210" cy="91" r="2.6" fill="#fff" opacity="0.70"/><circle cx="101" cy="207" r="1.6" fill="#fff" opacity="0.54"/><circle cx="166" cy="97" r="2.4" fill="#fff" opacity="0.34"/><circle cx="252" cy="206" r="2.5" fill="#fff" opacity="0.54"/><circle cx="51" cy="243" r="1.9" fill="#fff" opacity="0.51"/><circle cx="205" cy="181" r="1.8" fill="#fff" opacity="0.30"/></g>
  <g transform="rotate(-2 128 128)">
    <path d="M57 143 L23 101 L25 185 Z" fill="#8d7a5f" opacity=".86"/><ellipse cx="124" cy="141" rx="68" ry="43" fill="url(#body)" filter="url(#softShadow)"/><path d="M122 102 C144 50 178 68 170 112" fill="#8d7a5f" opacity=".72"/><path d="M150 171 C168 207 204 185 180 159" fill="#ddd0b2" opacity=".8"/><circle cx="164" cy="126" r="7" fill="#101828"/><circle cx="167" cy="123" r="2.3" fill="#fff"/><path d="M128 73 L139 87 L128 102 L117 87 Z" fill="#ddd0b2" opacity=".92"/>
  </g>
  <path d="M42 198 C82 222 171 226 216 184" stroke="#fff" stroke-width="11" stroke-linecap="round" opacity=".22"/>
</svg>