<svg xmlns="http://www.w3.org/2000/svg" viewBox="0 0 256 256" role="img" aria-label="冰雪女王 original avatar">
  
  <defs>
    <linearGradient id="bga371" x1="0" y1="0" x2="1" y2="1">
      <stop offset="0" stop-color="#d7fbff"/>
      <stop offset=".55" stop-color="#71d6e8"/>
      <stop offset="1" stop-color="#318aa3"/>
    </linearGradient>
    <radialGradient id="body" cx=".36" cy=".25" r=".76">
      <stop offset="0" stop-color="#d7fbff"/>
      <stop offset=".6" stop-color="#71d6e8"/>
      <stop offset="1" stop-color="#318aa3"/>
    </radialGradient>
    <radialGradient id="head" cx=".36" cy=".26" r=".72">
      <stop offset="0" stop-color="#ffffff" stop-opacity=".85"/>
      <stop offset=".2" stop-color="#d7fbff"/>
      <stop offset=".72" stop-color="#71d6e8"/>
      <stop offset="1" stop-color="#318aa3"/>
    </radialGradient>
    <filter id="softShadow" x="-30%" y="-30%" width="160%" height="160%">
      <feDropShadow dx="0" dy="8" stdDeviation="8" flood-color="#318aa3" flood-opacity=".35"/>
    </filter>
  </defs>
  <rect width="256" height="256" rx="64" fill="url(#bga371)"/>
  <circle cx="128" cy="128" r="107" fill="#fff" opacity=".12"/>
  <circle cx="128" cy="128" r="98" fill="#ffffff" opacity=".18"/>
  <g opacity=".35"><circle cx="181" cy="189" r="2.9" fill="#fff" opacity="0.68"/><circle cx="118" cy="180" r="1.5" fill="#fff" opacity="0.68"/><circle cx="3" cy="90" r="1.0" fill="#fff" opacity="0.45"/><circle cx="139" cy="185" r="2.0" fill="#fff" opacity="0.54"/><circle cx="138" cy="94" r="2.4" fill="#fff" opacity="0.59"/><circle cx="193" cy="85" r="2.4" fill="#fff" opacity="0.38"/><circle cx="111" cy="186" r="1.3" fill="#fff" opacity="0.68"/><circle cx="227" cy="27" r="2.2" fill="#fff" opacity="0.68"/><circle cx="16" cy="251" r="1.4" fill="#fff" opacity="0.41"/><circle cx="226" cy="240" r="1.5" fill="#fff" opacity="0.63"/></g>
  <g transform="rotate(2 128 128)">
    <ellipse cx="128" cy="159" rx="54" ry="49" fill="url(#body)" filter="url(#softShadow)"/><circle cx="128" cy="97" r="42" fill="url(#head)"/><path d="M76 141 C28 132 45 190 84 180" fill="#318aa3"/><path d="M180 141 C228 132 211 190 172 180" fill="#318aa3"/><path d="M101 56 H155 L165 79 Q128 93 91 79 Z" fill="#d7fbff" opacity=".85"/><ellipse cx="112" cy="107" rx="7" ry="8" fill="#14213d"/><ellipse cx="144" cy="107" rx="7" ry="8" fill="#14213d"/><circle cx="115" cy="103" r="2.3" fill="#fff"/><circle cx="147" cy="103" r="2.3" fill="#fff"/><path d="M128 73 L139 87 L128 102 L117 87 Z" fill="#d7fbff" opacity=".92"/>
  </g>
  <path d="M42 198 C82 222 171 226 216 184" stroke="#fff" stroke-width="11" stroke-linecap="round" opacity=".22"/>
</svg>