<svg xmlns="http://www.w3.org/2000/svg" viewBox="0 0 256 256" role="img" aria-label="雷雨君主 original avatar">
  
  <defs>
    <linearGradient id="bga385" x1="0" y1="0" x2="1" y2="1">
      <stop offset="0" stop-color="#fff27a"/>
      <stop offset=".55" stop-color="#f9c80e"/>
      <stop offset="1" stop-color="#7a5200"/>
    </linearGradient>
    <radialGradient id="body" cx=".36" cy=".25" r=".76">
      <stop offset="0" stop-color="#fff27a"/>
      <stop offset=".6" stop-color="#f9c80e"/>
      <stop offset="1" stop-color="#7a5200"/>
    </radialGradient>
    <radialGradient id="head" cx=".36" cy=".26" r=".72">
      <stop offset="0" stop-color="#ffffff" stop-opacity=".85"/>
      <stop offset=".2" stop-color="#fff27a"/>
      <stop offset=".72" stop-color="#f9c80e"/>
      <stop offset="1" stop-color="#7a5200"/>
    </radialGradient>
    <filter id="softShadow" x="-30%" y="-30%" width="160%" height="160%">
      <feDropShadow dx="0" dy="8" stdDeviation="8" flood-color="#7a5200" flood-opacity=".35"/>
    </filter>
  </defs>
  <rect width="256" height="256" rx="64" fill="url(#bga385)"/>
  <circle cx="128" cy="128" r="112" fill="#fff" opacity=".12"/>
  <circle cx="128" cy="128" r="103" fill="#ffffff" opacity=".18"/>
  <g opacity=".35"><circle cx="172" cy="29" r="2.6" fill="#fff" opacity="0.27"/><circle cx="129" cy="135" r="3.0" fill="#fff" opacity="0.63"/><circle cx="116" cy="82" r="1.6" fill="#fff" opacity="0.51"/><circle cx="156" cy="131" r="3.0" fill="#fff" opacity="0.47"/><circle cx="25" cy="27" r="2.7" fill="#fff" opacity="0.34"/><circle cx="132" cy="148" r="2.7" fill="#fff" opacity="0.51"/><circle cx="213" cy="233" r="1.1" fill="#fff" opacity="0.30"/><circle cx="2" cy="157" r="2.6" fill="#fff" opacity="0.54"/><circle cx="46" cy="104" r="3.0" fill="#fff" opacity="0.62"/><circle cx="88" cy="210" r="2.2" fill="#fff" opacity="0.48"/></g>
  <g transform="rotate(0 128 128)">
    <ellipse cx="128" cy="159" rx="54" ry="49" fill="url(#body)" filter="url(#softShadow)"/><circle cx="128" cy="97" r="42" fill="url(#head)"/><path d="M76 141 C28 132 45 190 84 180" fill="#7a5200"/><path d="M180 141 C228 132 211 190 172 180" fill="#7a5200"/><path d="M101 56 H155 L165 79 Q128 93 91 79 Z" fill="#fff27a" opacity=".85"/><ellipse cx="112" cy="107" rx="7" ry="8" fill="#14213d"/><ellipse cx="144" cy="107" rx="7" ry="8" fill="#14213d"/><circle cx="115" cy="103" r="2.3" fill="#fff"/><circle cx="147" cy="103" r="2.3" fill="#fff"/><path d="M128 73 L139 87 L128 102 L117 87 Z" fill="#fff27a" opacity=".92"/>
  </g>
  <path d="M42 198 C82 222 171 226 216 184" stroke="#fff" stroke-width="11" stroke-linecap="round" opacity=".22"/>
</svg>