<svg xmlns="http://www.w3.org/2000/svg" viewBox="0 0 256 256" role="img" aria-label="激流之灵 original avatar">
  
  <defs>
    <linearGradient id="bga409" x1="0" y1="0" x2="1" y2="1">
      <stop offset="0" stop-color="#9ee8ff"/>
      <stop offset=".55" stop-color="#2397d5"/>
      <stop offset="1" stop-color="#0b4f8f"/>
    </linearGradient>
    <radialGradient id="body" cx=".36" cy=".25" r=".76">
      <stop offset="0" stop-color="#9ee8ff"/>
      <stop offset=".6" stop-color="#2397d5"/>
      <stop offset="1" stop-color="#0b4f8f"/>
    </radialGradient>
    <radialGradient id="head" cx=".36" cy=".26" r=".72">
      <stop offset="0" stop-color="#ffffff" stop-opacity=".85"/>
      <stop offset=".2" stop-color="#9ee8ff"/>
      <stop offset=".72" stop-color="#2397d5"/>
      <stop offset="1" stop-color="#0b4f8f"/>
    </radialGradient>
    <filter id="softShadow" x="-30%" y="-30%" width="160%" height="160%">
      <feDropShadow dx="0" dy="8" stdDeviation="8" flood-color="#0b4f8f" flood-opacity=".35"/>
    </filter>
  </defs>
  <rect width="256" height="256" rx="64" fill="url(#bga409)"/>
  <circle cx="128" cy="128" r="107" fill="#fff" opacity=".12"/>
  <circle cx="128" cy="128" r="98" fill="#ffffff" opacity=".18"/>
  <g opacity=".35"><circle cx="212" cy="74" r="2.1" fill="#fff" opacity="0.60"/><circle cx="117" cy="50" r="1.8" fill="#fff" opacity="0.64"/><circle cx="206" cy="223" r="2.5" fill="#fff" opacity="0.56"/><circle cx="86" cy="198" r="1.8" fill="#fff" opacity="0.56"/><circle cx="199" cy="230" r="2.9" fill="#fff" opacity="0.52"/><circle cx="125" cy="198" r="1.2" fill="#fff" opacity="0.62"/><circle cx="3" cy="215" r="2.9" fill="#fff" opacity="0.55"/><circle cx="112" cy="105" r="2.1" fill="#fff" opacity="0.67"/><circle cx="32" cy="153" r="0.8" fill="#fff" opacity="0.61"/><circle cx="101" cy="95" r="1.8" fill="#fff" opacity="0.69"/></g>
  <g transform="rotate(-4 128 128)">
    <path d="M76 196 C52 132 85 60 132 59 C188 57 208 129 175 196 C158 179 144 207 128 188 C111 207 95 179 76 196Z" fill="url(#body)" filter="url(#softShadow)"/><circle cx="110" cy="107" r="8" fill="#1b1638"/><circle cx="146" cy="107" r="8" fill="#1b1638"/><path d="M120 136 Q128 145 140 135" stroke="#1b1638" stroke-width="5" fill="none" stroke-linecap="round"/><path d="M65 143 C23 128 44 82 70 100" fill="#2397d5" opacity=".35"/><path d="M191 143 C233 128 212 82 186 100" fill="#2397d5" opacity=".35"/><path d="M108 82 Q128 93 148 82" stroke="#9ee8ff" stroke-width="5" fill="none" stroke-linecap="round" opacity=".8"/>
  </g>
  <path d="M42 198 C82 222 171 226 216 184" stroke="#fff" stroke-width="11" stroke-linecap="round" opacity=".22"/>
</svg>