<svg xmlns="http://www.w3.org/2000/svg" viewBox="0 0 256 256" role="img" aria-label="熔岩铠甲 original avatar">
  
  <defs>
    <linearGradient id="bga425" x1="0" y1="0" x2="1" y2="1">
      <stop offset="0" stop-color="#ffd166"/>
      <stop offset=".55" stop-color="#ff6b35"/>
      <stop offset="1" stop-color="#a92d1d"/>
    </linearGradient>
    <radialGradient id="body" cx=".36" cy=".25" r=".76">
      <stop offset="0" stop-color="#ffd166"/>
      <stop offset=".6" stop-color="#ff6b35"/>
      <stop offset="1" stop-color="#a92d1d"/>
    </radialGradient>
    <radialGradient id="head" cx=".36" cy=".26" r=".72">
      <stop offset="0" stop-color="#ffffff" stop-opacity=".85"/>
      <stop offset=".2" stop-color="#ffd166"/>
      <stop offset=".72" stop-color="#ff6b35"/>
      <stop offset="1" stop-color="#a92d1d"/>
    </radialGradient>
    <filter id="softShadow" x="-30%" y="-30%" width="160%" height="160%">
      <feDropShadow dx="0" dy="8" stdDeviation="8" flood-color="#a92d1d" flood-opacity=".35"/>
    </filter>
  </defs>
  <rect width="256" height="256" rx="64" fill="url(#bga425)"/>
  <circle cx="128" cy="128" r="112" fill="#fff" opacity=".12"/>
  <circle cx="128" cy="128" r="103" fill="#ffffff" opacity=".18"/>
  <g opacity=".35"><circle cx="179" cy="69" r="3.0" fill="#fff" opacity="0.41"/><circle cx="0" cy="146" r="2.7" fill="#fff" opacity="0.55"/><circle cx="217" cy="252" r="2.0" fill="#fff" opacity="0.34"/><circle cx="203" cy="225" r="1.3" fill="#fff" opacity="0.39"/><circle cx="98" cy="114" r="1.2" fill="#fff" opacity="0.49"/><circle cx="150" cy="196" r="1.0" fill="#fff" opacity="0.51"/><circle cx="102" cy="76" r="2.9" fill="#fff" opacity="0.42"/><circle cx="95" cy="129" r="1.0" fill="#fff" opacity="0.41"/><circle cx="144" cy="14" r="2.8" fill="#fff" opacity="0.60"/><circle cx="13" cy="27" r="2.8" fill="#fff" opacity="0.52"/></g>
  <g transform="rotate(-4 128 128)">
    <ellipse cx="90" cy="109" rx="34" ry="49" fill="#ffd166" opacity=".55"/><ellipse cx="166" cy="109" rx="34" ry="49" fill="#ffd166" opacity=".55"/><ellipse cx="128" cy="145" rx="32" ry="60" fill="url(#body)" filter="url(#softShadow)"/><circle cx="128" cy="88" r="34" fill="url(#head)"/><path d="M110 62 Q88 29 61 41" stroke="#a92d1d" stroke-width="5" fill="none" stroke-linecap="round"/><path d="M146 62 Q168 29 195 41" stroke="#a92d1d" stroke-width="5" fill="none" stroke-linecap="round"/><path d="M100 141 H156 M104 167 H152" stroke="#a92d1d" stroke-width="4" opacity=".35"/><ellipse cx="112" cy="107" rx="7" ry="8" fill="#14213d"/><ellipse cx="144" cy="107" rx="7" ry="8" fill="#14213d"/><circle cx="115" cy="103" r="2.3" fill="#fff"/><circle cx="147" cy="103" r="2.3" fill="#fff"/><path d="M128 73 L139 87 L128 102 L117 87 Z" fill="#ffd166" opacity=".92"/>
  </g>
  <path d="M42 198 C82 222 171 226 216 184" stroke="#fff" stroke-width="11" stroke-linecap="round" opacity=".22"/>
</svg>