<svg xmlns="http://www.w3.org/2000/svg" viewBox="0 0 256 256" role="img" aria-label="虚无之主 original avatar">
  
  <defs>
    <linearGradient id="bga434" x1="0" y1="0" x2="1" y2="1">
      <stop offset="0" stop-color="#9ba0bb"/>
      <stop offset=".55" stop-color="#4a4b68"/>
      <stop offset="1" stop-color="#171728"/>
    </linearGradient>
    <radialGradient id="body" cx=".36" cy=".25" r=".76">
      <stop offset="0" stop-color="#9ba0bb"/>
      <stop offset=".6" stop-color="#4a4b68"/>
      <stop offset="1" stop-color="#171728"/>
    </radialGradient>
    <radialGradient id="head" cx=".36" cy=".26" r=".72">
      <stop offset="0" stop-color="#ffffff" stop-opacity=".85"/>
      <stop offset=".2" stop-color="#9ba0bb"/>
      <stop offset=".72" stop-color="#4a4b68"/>
      <stop offset="1" stop-color="#171728"/>
    </radialGradient>
    <filter id="softShadow" x="-30%" y="-30%" width="160%" height="160%">
      <feDropShadow dx="0" dy="8" stdDeviation="8" flood-color="#171728" flood-opacity=".35"/>
    </filter>
  </defs>
  <rect width="256" height="256" rx="64" fill="url(#bga434)"/>
  <circle cx="128" cy="128" r="108" fill="#fff" opacity=".12"/>
  <circle cx="128" cy="128" r="99" fill="#ffffff" opacity=".18"/>
  <g opacity=".35"><circle cx="245" cy="202" r="2.2" fill="#fff" opacity="0.45"/><circle cx="135" cy="105" r="3.1" fill="#fff" opacity="0.52"/><circle cx="242" cy="97" r="2.1" fill="#fff" opacity="0.40"/><circle cx="88" cy="255" r="2.2" fill="#fff" opacity="0.69"/><circle cx="25" cy="190" r="2.4" fill="#fff" opacity="0.36"/><circle cx="171" cy="109" r="1.7" fill="#fff" opacity="0.65"/><circle cx="177" cy="16" r="2.7" fill="#fff" opacity="0.42"/><circle cx="28" cy="142" r="2.3" fill="#fff" opacity="0.32"/><circle cx="108" cy="161" r="1.3" fill="#fff" opacity="0.68"/><circle cx="134" cy="245" r="2.3" fill="#fff" opacity="0.27"/></g>
  <g transform="rotate(0 128 128)">
    <ellipse cx="128" cy="149" rx="49" ry="55" fill="url(#body)" filter="url(#softShadow)"/><circle cx="128" cy="94" r="39" fill="url(#head)"/><ellipse cx="128" cy="88" rx="68" ry="18" fill="none" stroke="#9ba0bb" stroke-width="7" opacity=".75" transform="rotate(-12 128 88)"/><path d="M128 34 L138 59 L166 60 L143 75 L151 102 L128 85 L105 102 L113 75 L90 60 L118 59 Z" fill="#4a4b68"/><ellipse cx="112" cy="107" rx="7" ry="8" fill="#14213d"/><ellipse cx="144" cy="107" rx="7" ry="8" fill="#14213d"/><circle cx="115" cy="103" r="2.3" fill="#fff"/><circle cx="147" cy="103" r="2.3" fill="#fff"/><path d="M128 73 L139 87 L128 102 L117 87 Z" fill="#9ba0bb" opacity=".92"/>
  </g>
  <path d="M42 198 C82 222 171 226 216 184" stroke="#fff" stroke-width="11" stroke-linecap="round" opacity=".22"/>
</svg>