<svg xmlns="http://www.w3.org/2000/svg" viewBox="0 0 256 256" role="img" aria-label="彩翼天蛾 original avatar">
  
  <defs>
    <linearGradient id="bga440" x1="0" y1="0" x2="1" y2="1">
      <stop offset="0" stop-color="#d9f67f"/>
      <stop offset=".55" stop-color="#86bd2d"/>
      <stop offset="1" stop-color="#3f6c1b"/>
    </linearGradient>
    <radialGradient id="body" cx=".36" cy=".25" r=".76">
      <stop offset="0" stop-color="#d9f67f"/>
      <stop offset=".6" stop-color="#86bd2d"/>
      <stop offset="1" stop-color="#3f6c1b"/>
    </radialGradient>
    <radialGradient id="head" cx=".36" cy=".26" r=".72">
      <stop offset="0" stop-color="#ffffff" stop-opacity=".85"/>
      <stop offset=".2" stop-color="#d9f67f"/>
      <stop offset=".72" stop-color="#86bd2d"/>
      <stop offset="1" stop-color="#3f6c1b"/>
    </radialGradient>
    <filter id="softShadow" x="-30%" y="-30%" width="160%" height="160%">
      <feDropShadow dx="0" dy="8" stdDeviation="8" flood-color="#3f6c1b" flood-opacity=".35"/>
    </filter>
  </defs>
  <rect width="256" height="256" rx="64" fill="url(#bga440)"/>
  <circle cx="128" cy="128" r="113" fill="#fff" opacity=".12"/>
  <circle cx="128" cy="128" r="104" fill="#ffffff" opacity=".18"/>
  <g opacity=".35"><circle cx="51" cy="136" r="0.9" fill="#fff" opacity="0.68"/><circle cx="202" cy="255" r="1.4" fill="#fff" opacity="0.27"/><circle cx="18" cy="118" r="3.0" fill="#fff" opacity="0.59"/><circle cx="215" cy="194" r="2.5" fill="#fff" opacity="0.41"/><circle cx="167" cy="160" r="1.8" fill="#fff" opacity="0.40"/><circle cx="168" cy="104" r="1.9" fill="#fff" opacity="0.58"/><circle cx="28" cy="66" r="2.1" fill="#fff" opacity="0.35"/><circle cx="130" cy="242" r="2.6" fill="#fff" opacity="0.57"/><circle cx="188" cy="72" r="2.2" fill="#fff" opacity="0.29"/><circle cx="142" cy="176" r="2.7" fill="#fff" opacity="0.33"/></g>
  <g transform="rotate(-5 128 128)">
    <path d="M110 133 C35 75 36 175 104 179" fill="#86bd2d" opacity=".78"/><path d="M146 133 C221 75 220 175 152 179" fill="#86bd2d" opacity=".78"/><ellipse cx="128" cy="151" rx="42" ry="54" fill="url(#body)" filter="url(#softShadow)"/><circle cx="128" cy="95" r="38" fill="url(#head)"/><path d="M123 94 L165 105 L125 115 Z" fill="#d9f67f"/><path d="M106 59 C120 27 140 37 130 65" fill="#3f6c1b" opacity=".85"/><ellipse cx="112" cy="107" rx="7" ry="8" fill="#14213d"/><ellipse cx="144" cy="107" rx="7" ry="8" fill="#14213d"/><circle cx="115" cy="103" r="2.3" fill="#fff"/><circle cx="147" cy="103" r="2.3" fill="#fff"/><path d="M128 73 L139 87 L128 102 L117 87 Z" fill="#d9f67f" opacity=".92"/>
  </g>
  <path d="M42 198 C82 222 171 226 216 184" stroke="#fff" stroke-width="11" stroke-linecap="round" opacity=".22"/>
</svg>