<svg xmlns="http://www.w3.org/2000/svg" viewBox="0 0 256 256" role="img" aria-label="花瓣仙 original avatar">
  
  <defs>
    <linearGradient id="bga445" x1="0" y1="0" x2="1" y2="1">
      <stop offset="0" stop-color="#ffd7f3"/>
      <stop offset=".55" stop-color="#f47ac2"/>
      <stop offset="1" stop-color="#8e3b89"/>
    </linearGradient>
    <radialGradient id="body" cx=".36" cy=".25" r=".76">
      <stop offset="0" stop-color="#ffd7f3"/>
      <stop offset=".6" stop-color="#f47ac2"/>
      <stop offset="1" stop-color="#8e3b89"/>
    </radialGradient>
    <radialGradient id="head" cx=".36" cy=".26" r=".72">
      <stop offset="0" stop-color="#ffffff" stop-opacity=".85"/>
      <stop offset=".2" stop-color="#ffd7f3"/>
      <stop offset=".72" stop-color="#f47ac2"/>
      <stop offset="1" stop-color="#8e3b89"/>
    </radialGradient>
    <filter id="softShadow" x="-30%" y="-30%" width="160%" height="160%">
      <feDropShadow dx="0" dy="8" stdDeviation="8" flood-color="#8e3b89" flood-opacity=".35"/>
    </filter>
  </defs>
  <rect width="256" height="256" rx="64" fill="url(#bga445)"/>
  <circle cx="128" cy="128" r="107" fill="#fff" opacity=".12"/>
  <circle cx="128" cy="128" r="98" fill="#ffffff" opacity=".18"/>
  <g opacity=".35"><circle cx="173" cy="176" r="2.5" fill="#fff" opacity="0.38"/><circle cx="85" cy="114" r="3.1" fill="#fff" opacity="0.69"/><circle cx="37" cy="39" r="1.1" fill="#fff" opacity="0.29"/><circle cx="194" cy="112" r="1.4" fill="#fff" opacity="0.58"/><circle cx="204" cy="9" r="1.0" fill="#fff" opacity="0.58"/><circle cx="158" cy="137" r="1.3" fill="#fff" opacity="0.33"/><circle cx="226" cy="142" r="2.4" fill="#fff" opacity="0.69"/><circle cx="102" cy="186" r="0.9" fill="#fff" opacity="0.38"/><circle cx="174" cy="39" r="0.8" fill="#fff" opacity="0.56"/><circle cx="11" cy="221" r="2.4" fill="#fff" opacity="0.61"/></g>
  <g transform="rotate(-1 128 128)">
    <path d="M116 179 C66 167 44 113 100 118" fill="#f47ac2" opacity=".82"/><path d="M140 179 C190 167 212 113 156 118" fill="#f47ac2" opacity=".82"/><ellipse cx="128" cy="149" rx="48" ry="57" fill="url(#body)" filter="url(#softShadow)"/><path d="M128 51 C86 69 82 110 128 106 C174 110 170 69 128 51Z" fill="#ffd7f3"/><circle cx="128" cy="107" r="38" fill="url(#head)"/><ellipse cx="112" cy="107" rx="7" ry="8" fill="#14213d"/><ellipse cx="144" cy="107" rx="7" ry="8" fill="#14213d"/><circle cx="115" cy="103" r="2.3" fill="#fff"/><circle cx="147" cy="103" r="2.3" fill="#fff"/><path d="M128 73 L139 87 L128 102 L117 87 Z" fill="#ffd7f3" opacity=".92"/>
  </g>
  <path d="M42 198 C82 222 171 226 216 184" stroke="#fff" stroke-width="11" stroke-linecap="round" opacity=".22"/>
</svg>