<svg xmlns="http://www.w3.org/2000/svg" viewBox="0 0 256 256" role="img" aria-label="百花女王 original avatar">
  
  <defs>
    <linearGradient id="bga446" x1="0" y1="0" x2="1" y2="1">
      <stop offset="0" stop-color="#ffd7f3"/>
      <stop offset=".55" stop-color="#f47ac2"/>
      <stop offset="1" stop-color="#8e3b89"/>
    </linearGradient>
    <radialGradient id="body" cx=".36" cy=".25" r=".76">
      <stop offset="0" stop-color="#ffd7f3"/>
      <stop offset=".6" stop-color="#f47ac2"/>
      <stop offset="1" stop-color="#8e3b89"/>
    </radialGradient>
    <radialGradient id="head" cx=".36" cy=".26" r=".72">
      <stop offset="0" stop-color="#ffffff" stop-opacity=".85"/>
      <stop offset=".2" stop-color="#ffd7f3"/>
      <stop offset=".72" stop-color="#f47ac2"/>
      <stop offset="1" stop-color="#8e3b89"/>
    </radialGradient>
    <filter id="softShadow" x="-30%" y="-30%" width="160%" height="160%">
      <feDropShadow dx="0" dy="8" stdDeviation="8" flood-color="#8e3b89" flood-opacity=".35"/>
    </filter>
  </defs>
  <rect width="256" height="256" rx="64" fill="url(#bga446)"/>
  <circle cx="128" cy="128" r="108" fill="#fff" opacity=".12"/>
  <circle cx="128" cy="128" r="99" fill="#ffffff" opacity=".18"/>
  <g opacity=".35"><circle cx="61" cy="57" r="2.1" fill="#fff" opacity="0.67"/><circle cx="235" cy="217" r="2.2" fill="#fff" opacity="0.56"/><circle cx="177" cy="95" r="1.5" fill="#fff" opacity="0.27"/><circle cx="4" cy="61" r="1.6" fill="#fff" opacity="0.49"/><circle cx="7" cy="10" r="2.2" fill="#fff" opacity="0.35"/><circle cx="216" cy="21" r="3.1" fill="#fff" opacity="0.57"/><circle cx="100" cy="218" r="3.0" fill="#fff" opacity="0.52"/><circle cx="200" cy="151" r="1.9" fill="#fff" opacity="0.28"/><circle cx="16" cy="181" r="1.4" fill="#fff" opacity="0.28"/><circle cx="44" cy="87" r="2.0" fill="#fff" opacity="0.44"/></g>
  <g transform="rotate(-1 128 128)">
    <path d="M116 179 C66 167 44 113 100 118" fill="#f47ac2" opacity=".82"/><path d="M140 179 C190 167 212 113 156 118" fill="#f47ac2" opacity=".82"/><ellipse cx="128" cy="149" rx="48" ry="57" fill="url(#body)" filter="url(#softShadow)"/><path d="M128 51 C86 69 82 110 128 106 C174 110 170 69 128 51Z" fill="#ffd7f3"/><circle cx="128" cy="107" r="38" fill="url(#head)"/><ellipse cx="112" cy="107" rx="7" ry="8" fill="#14213d"/><ellipse cx="144" cy="107" rx="7" ry="8" fill="#14213d"/><circle cx="115" cy="103" r="2.3" fill="#fff"/><circle cx="147" cy="103" r="2.3" fill="#fff"/><path d="M108 82 Q128 93 148 82" stroke="#ffd7f3" stroke-width="5" fill="none" stroke-linecap="round" opacity=".8"/>
  </g>
  <path d="M42 198 C82 222 171 226 216 184" stroke="#fff" stroke-width="11" stroke-linecap="round" opacity=".22"/>
</svg>