<svg xmlns="http://www.w3.org/2000/svg" viewBox="0 0 256 256" role="img" aria-label="掘地鼠 original avatar">
  
  <defs>
    <linearGradient id="bga453" x1="0" y1="0" x2="1" y2="1">
      <stop offset="0" stop-color="#e9c68f"/>
      <stop offset=".55" stop-color="#a0713d"/>
      <stop offset="1" stop-color="#5a3b22"/>
    </linearGradient>
    <radialGradient id="body" cx=".36" cy=".25" r=".76">
      <stop offset="0" stop-color="#e9c68f"/>
      <stop offset=".6" stop-color="#a0713d"/>
      <stop offset="1" stop-color="#5a3b22"/>
    </radialGradient>
    <radialGradient id="head" cx=".36" cy=".26" r=".72">
      <stop offset="0" stop-color="#ffffff" stop-opacity=".85"/>
      <stop offset=".2" stop-color="#e9c68f"/>
      <stop offset=".72" stop-color="#a0713d"/>
      <stop offset="1" stop-color="#5a3b22"/>
    </radialGradient>
    <filter id="softShadow" x="-30%" y="-30%" width="160%" height="160%">
      <feDropShadow dx="0" dy="8" stdDeviation="8" flood-color="#5a3b22" flood-opacity=".35"/>
    </filter>
  </defs>
  <rect width="256" height="256" rx="64" fill="url(#bga453)"/>
  <circle cx="128" cy="128" r="111" fill="#fff" opacity=".12"/>
  <circle cx="128" cy="128" r="102" fill="#ffffff" opacity=".18"/>
  <g opacity=".35"><circle cx="65" cy="167" r="2.8" fill="#fff" opacity="0.42"/><circle cx="54" cy="127" r="1.3" fill="#fff" opacity="0.70"/><circle cx="224" cy="114" r="1.1" fill="#fff" opacity="0.39"/><circle cx="6" cy="193" r="2.2" fill="#fff" opacity="0.31"/><circle cx="11" cy="52" r="1.7" fill="#fff" opacity="0.58"/><circle cx="116" cy="91" r="1.4" fill="#fff" opacity="0.65"/><circle cx="14" cy="67" r="2.4" fill="#fff" opacity="0.46"/><circle cx="125" cy="118" r="2.9" fill="#fff" opacity="0.40"/><circle cx="164" cy="186" r="2.9" fill="#fff" opacity="0.30"/><circle cx="212" cy="51" r="1.4" fill="#fff" opacity="0.32"/></g>
  <g transform="rotate(3 128 128)">
    <path d="M81 153 C37 141 48 92 84 112" stroke="#a0713d" stroke-width="14" fill="none" stroke-linecap="round" opacity=".76"/><ellipse cx="128" cy="156" rx="53" ry="50" fill="url(#body)" filter="url(#softShadow)"/><path d="M93 87 L70 40 L116 69 Z" fill="#a0713d"/><path d="M163 87 L186 40 L140 69 Z" fill="#a0713d"/><circle cx="128" cy="98" r="45" fill="url(#head)"/><ellipse cx="111" cy="106" rx="8" ry="10" fill="#182033"/><ellipse cx="145" cy="106" rx="8" ry="10" fill="#182033"/><ellipse cx="112" cy="107" rx="7" ry="8" fill="#14213d"/><ellipse cx="144" cy="107" rx="7" ry="8" fill="#14213d"/><circle cx="115" cy="103" r="2.3" fill="#fff"/><circle cx="147" cy="103" r="2.3" fill="#fff"/><path d="M108 82 Q128 93 148 82" stroke="#e9c68f" stroke-width="5" fill="none" stroke-linecap="round" opacity=".8"/>
  </g>
  <path d="M42 198 C82 222 171 226 216 184" stroke="#fff" stroke-width="11" stroke-linecap="round" opacity=".22"/>
</svg>