<svg xmlns="http://www.w3.org/2000/svg" viewBox="0 0 256 256" role="img" aria-label="暗鸦领主 original avatar">
  
  <defs>
    <linearGradient id="bga463" x1="0" y1="0" x2="1" y2="1">
      <stop offset="0" stop-color="#9ba0bb"/>
      <stop offset=".55" stop-color="#4a4b68"/>
      <stop offset="1" stop-color="#171728"/>
    </linearGradient>
    <radialGradient id="body" cx=".36" cy=".25" r=".76">
      <stop offset="0" stop-color="#9ba0bb"/>
      <stop offset=".6" stop-color="#4a4b68"/>
      <stop offset="1" stop-color="#171728"/>
    </radialGradient>
    <radialGradient id="head" cx=".36" cy=".26" r=".72">
      <stop offset="0" stop-color="#ffffff" stop-opacity=".85"/>
      <stop offset=".2" stop-color="#9ba0bb"/>
      <stop offset=".72" stop-color="#4a4b68"/>
      <stop offset="1" stop-color="#171728"/>
    </radialGradient>
    <filter id="softShadow" x="-30%" y="-30%" width="160%" height="160%">
      <feDropShadow dx="0" dy="8" stdDeviation="8" flood-color="#171728" flood-opacity=".35"/>
    </filter>
  </defs>
  <rect width="256" height="256" rx="64" fill="url(#bga463)"/>
  <circle cx="128" cy="128" r="107" fill="#fff" opacity=".12"/>
  <circle cx="128" cy="128" r="98" fill="#ffffff" opacity=".18"/>
  <g opacity=".35"><circle cx="58" cy="150" r="2.7" fill="#fff" opacity="0.52"/><circle cx="237" cy="35" r="2.3" fill="#fff" opacity="0.52"/><circle cx="81" cy="31" r="3.0" fill="#fff" opacity="0.70"/><circle cx="133" cy="157" r="2.3" fill="#fff" opacity="0.67"/><circle cx="231" cy="71" r="1.2" fill="#fff" opacity="0.66"/><circle cx="21" cy="162" r="1.3" fill="#fff" opacity="0.32"/><circle cx="58" cy="170" r="2.6" fill="#fff" opacity="0.30"/><circle cx="140" cy="127" r="2.9" fill="#fff" opacity="0.48"/><circle cx="66" cy="106" r="1.3" fill="#fff" opacity="0.69"/><circle cx="66" cy="242" r="2.2" fill="#fff" opacity="0.27"/></g>
  <g transform="rotate(-2 128 128)">
    <path d="M110 133 C35 75 36 175 104 179" fill="#4a4b68" opacity=".78"/><path d="M146 133 C221 75 220 175 152 179" fill="#4a4b68" opacity=".78"/><ellipse cx="128" cy="151" rx="42" ry="54" fill="url(#body)" filter="url(#softShadow)"/><circle cx="128" cy="95" r="38" fill="url(#head)"/><path d="M123 94 L165 105 L125 115 Z" fill="#9ba0bb"/><path d="M106 59 C120 27 140 37 130 65" fill="#171728" opacity=".85"/><ellipse cx="112" cy="107" rx="7" ry="8" fill="#14213d"/><ellipse cx="144" cy="107" rx="7" ry="8" fill="#14213d"/><circle cx="115" cy="103" r="2.3" fill="#fff"/><circle cx="147" cy="103" r="2.3" fill="#fff"/><path d="M108 82 Q128 93 148 82" stroke="#9ba0bb" stroke-width="5" fill="none" stroke-linecap="round" opacity=".8"/>
  </g>
  <path d="M42 198 C82 222 171 226 216 184" stroke="#fff" stroke-width="11" stroke-linecap="round" opacity=".22"/>
</svg>