<svg xmlns="http://www.w3.org/2000/svg" viewBox="0 0 256 256" role="img" aria-label="黄金甲虫 original avatar">
  
  <defs>
    <linearGradient id="bga473" x1="0" y1="0" x2="1" y2="1">
      <stop offset="0" stop-color="#d9f67f"/>
      <stop offset=".55" stop-color="#86bd2d"/>
      <stop offset="1" stop-color="#3f6c1b"/>
    </linearGradient>
    <radialGradient id="body" cx=".36" cy=".25" r=".76">
      <stop offset="0" stop-color="#d9f67f"/>
      <stop offset=".6" stop-color="#86bd2d"/>
      <stop offset="1" stop-color="#3f6c1b"/>
    </radialGradient>
    <radialGradient id="head" cx=".36" cy=".26" r=".72">
      <stop offset="0" stop-color="#ffffff" stop-opacity=".85"/>
      <stop offset=".2" stop-color="#d9f67f"/>
      <stop offset=".72" stop-color="#86bd2d"/>
      <stop offset="1" stop-color="#3f6c1b"/>
    </radialGradient>
    <filter id="softShadow" x="-30%" y="-30%" width="160%" height="160%">
      <feDropShadow dx="0" dy="8" stdDeviation="8" flood-color="#3f6c1b" flood-opacity=".35"/>
    </filter>
  </defs>
  <rect width="256" height="256" rx="64" fill="url(#bga473)"/>
  <circle cx="128" cy="128" r="111" fill="#fff" opacity=".12"/>
  <circle cx="128" cy="128" r="102" fill="#ffffff" opacity=".18"/>
  <g opacity=".35"><circle cx="206" cy="236" r="2.7" fill="#fff" opacity="0.47"/><circle cx="46" cy="77" r="2.8" fill="#fff" opacity="0.58"/><circle cx="221" cy="63" r="2.0" fill="#fff" opacity="0.39"/><circle cx="85" cy="144" r="2.6" fill="#fff" opacity="0.45"/><circle cx="220" cy="172" r="1.6" fill="#fff" opacity="0.30"/><circle cx="199" cy="108" r="2.4" fill="#fff" opacity="0.48"/><circle cx="69" cy="248" r="1.3" fill="#fff" opacity="0.67"/><circle cx="181" cy="178" r="0.9" fill="#fff" opacity="0.37"/><circle cx="203" cy="4" r="2.1" fill="#fff" opacity="0.49"/><circle cx="222" cy="37" r="1.7" fill="#fff" opacity="0.59"/></g>
  <g transform="rotate(-4 128 128)">
    <ellipse cx="90" cy="109" rx="34" ry="49" fill="#d9f67f" opacity=".55"/><ellipse cx="166" cy="109" rx="34" ry="49" fill="#d9f67f" opacity=".55"/><ellipse cx="128" cy="145" rx="32" ry="60" fill="url(#body)" filter="url(#softShadow)"/><circle cx="128" cy="88" r="34" fill="url(#head)"/><path d="M110 62 Q88 29 61 41" stroke="#3f6c1b" stroke-width="5" fill="none" stroke-linecap="round"/><path d="M146 62 Q168 29 195 41" stroke="#3f6c1b" stroke-width="5" fill="none" stroke-linecap="round"/><path d="M100 141 H156 M104 167 H152" stroke="#3f6c1b" stroke-width="4" opacity=".35"/><ellipse cx="112" cy="107" rx="7" ry="8" fill="#14213d"/><ellipse cx="144" cy="107" rx="7" ry="8" fill="#14213d"/><circle cx="115" cy="103" r="2.3" fill="#fff"/><circle cx="147" cy="103" r="2.3" fill="#fff"/><path d="M128 73 L139 87 L128 102 L117 87 Z" fill="#d9f67f" opacity=".92"/>
  </g>
  <path d="M42 198 C82 222 171 226 216 184" stroke="#fff" stroke-width="11" stroke-linecap="round" opacity=".22"/>
</svg>