<svg xmlns="http://www.w3.org/2000/svg" viewBox="0 0 256 256" role="img" aria-label="糖果精灵 original avatar">
  
  <defs>
    <linearGradient id="bga474" x1="0" y1="0" x2="1" y2="1">
      <stop offset="0" stop-color="#ffd7f3"/>
      <stop offset=".55" stop-color="#f47ac2"/>
      <stop offset="1" stop-color="#8e3b89"/>
    </linearGradient>
    <radialGradient id="body" cx=".36" cy=".25" r=".76">
      <stop offset="0" stop-color="#ffd7f3"/>
      <stop offset=".6" stop-color="#f47ac2"/>
      <stop offset="1" stop-color="#8e3b89"/>
    </radialGradient>
    <radialGradient id="head" cx=".36" cy=".26" r=".72">
      <stop offset="0" stop-color="#ffffff" stop-opacity=".85"/>
      <stop offset=".2" stop-color="#ffd7f3"/>
      <stop offset=".72" stop-color="#f47ac2"/>
      <stop offset="1" stop-color="#8e3b89"/>
    </radialGradient>
    <filter id="softShadow" x="-30%" y="-30%" width="160%" height="160%">
      <feDropShadow dx="0" dy="8" stdDeviation="8" flood-color="#8e3b89" flood-opacity=".35"/>
    </filter>
  </defs>
  <rect width="256" height="256" rx="64" fill="url(#bga474)"/>
  <circle cx="128" cy="128" r="109" fill="#fff" opacity=".12"/>
  <circle cx="128" cy="128" r="100" fill="#ffffff" opacity=".18"/>
  <g opacity=".35"><circle cx="142" cy="100" r="1.5" fill="#fff" opacity="0.65"/><circle cx="147" cy="73" r="2.1" fill="#fff" opacity="0.69"/><circle cx="170" cy="215" r="2.8" fill="#fff" opacity="0.69"/><circle cx="23" cy="39" r="1.3" fill="#fff" opacity="0.35"/><circle cx="102" cy="102" r="1.1" fill="#fff" opacity="0.63"/><circle cx="151" cy="203" r="3.1" fill="#fff" opacity="0.47"/><circle cx="197" cy="203" r="3.1" fill="#fff" opacity="0.59"/><circle cx="4" cy="209" r="1.8" fill="#fff" opacity="0.60"/><circle cx="73" cy="83" r="2.2" fill="#fff" opacity="0.44"/><circle cx="106" cy="179" r="1.4" fill="#fff" opacity="0.59"/></g>
  <g transform="rotate(3 128 128)">
    <path d="M116 179 C66 167 44 113 100 118" fill="#f47ac2" opacity=".82"/><path d="M140 179 C190 167 212 113 156 118" fill="#f47ac2" opacity=".82"/><ellipse cx="128" cy="149" rx="48" ry="57" fill="url(#body)" filter="url(#softShadow)"/><path d="M128 51 C86 69 82 110 128 106 C174 110 170 69 128 51Z" fill="#ffd7f3"/><circle cx="128" cy="107" r="38" fill="url(#head)"/><ellipse cx="112" cy="107" rx="7" ry="8" fill="#14213d"/><ellipse cx="144" cy="107" rx="7" ry="8" fill="#14213d"/><circle cx="115" cy="103" r="2.3" fill="#fff"/><circle cx="147" cy="103" r="2.3" fill="#fff"/><path d="M128 73 L139 87 L128 102 L117 87 Z" fill="#ffd7f3" opacity=".92"/>
  </g>
  <path d="M42 198 C82 222 171 226 216 184" stroke="#fff" stroke-width="11" stroke-linecap="round" opacity=".22"/>
</svg>