<svg xmlns="http://www.w3.org/2000/svg" viewBox="0 0 256 256" role="img" aria-label="铁皮人 original avatar">
  
  <defs>
    <linearGradient id="bga476" x1="0" y1="0" x2="1" y2="1">
      <stop offset="0" stop-color="#e8edf2"/>
      <stop offset=".55" stop-color="#9aa8b7"/>
      <stop offset="1" stop-color="#536271"/>
    </linearGradient>
    <radialGradient id="body" cx=".36" cy=".25" r=".76">
      <stop offset="0" stop-color="#e8edf2"/>
      <stop offset=".6" stop-color="#9aa8b7"/>
      <stop offset="1" stop-color="#536271"/>
    </radialGradient>
    <radialGradient id="head" cx=".36" cy=".26" r=".72">
      <stop offset="0" stop-color="#ffffff" stop-opacity=".85"/>
      <stop offset=".2" stop-color="#e8edf2"/>
      <stop offset=".72" stop-color="#9aa8b7"/>
      <stop offset="1" stop-color="#536271"/>
    </radialGradient>
    <filter id="softShadow" x="-30%" y="-30%" width="160%" height="160%">
      <feDropShadow dx="0" dy="8" stdDeviation="8" flood-color="#536271" flood-opacity=".35"/>
    </filter>
  </defs>
  <rect width="256" height="256" rx="64" fill="url(#bga476)"/>
  <circle cx="128" cy="128" r="108" fill="#fff" opacity=".12"/>
  <circle cx="128" cy="128" r="99" fill="#ffffff" opacity=".18"/>
  <g opacity=".35"><circle cx="56" cy="157" r="1.6" fill="#fff" opacity="0.36"/><circle cx="16" cy="78" r="1.0" fill="#fff" opacity="0.62"/><circle cx="23" cy="137" r="1.0" fill="#fff" opacity="0.57"/><circle cx="8" cy="58" r="1.5" fill="#fff" opacity="0.64"/><circle cx="56" cy="97" r="2.2" fill="#fff" opacity="0.31"/><circle cx="250" cy="40" r="1.3" fill="#fff" opacity="0.65"/><circle cx="60" cy="49" r="1.4" fill="#fff" opacity="0.66"/><circle cx="136" cy="119" r="1.9" fill="#fff" opacity="0.43"/><circle cx="222" cy="22" r="1.8" fill="#fff" opacity="0.59"/><circle cx="13" cy="245" r="2.3" fill="#fff" opacity="0.39"/></g>
  <g transform="rotate(-1 128 128)">
    <path d="M76 95 L110 60 H155 L187 102 L172 176 H83 Z" fill="url(#body)" filter="url(#softShadow)"/><path d="M100 71 L123 28 L140 67 Z" fill="#e8edf2"/><path d="M145 73 L171 39 L170 86 Z" fill="#9aa8b7"/><rect x="98" y="119" width="60" height="15" rx="7" fill="#536271" opacity=".38"/><circle cx="114" cy="126" r="5" fill="#e8edf2"/><circle cx="142" cy="126" r="5" fill="#e8edf2"/><path d="M108 82 Q128 93 148 82" stroke="#e8edf2" stroke-width="5" fill="none" stroke-linecap="round" opacity=".8"/>
  </g>
  <path d="M42 198 C82 222 171 226 216 184" stroke="#fff" stroke-width="11" stroke-linecap="round" opacity=".22"/>
</svg>