<svg xmlns="http://www.w3.org/2000/svg" viewBox="0 0 256 256" role="img" aria-label="暗黑龙神 original avatar">
  
  <defs>
    <linearGradient id="bga480" x1="0" y1="0" x2="1" y2="1">
      <stop offset="0" stop-color="#9ba0bb"/>
      <stop offset=".55" stop-color="#4a4b68"/>
      <stop offset="1" stop-color="#171728"/>
    </linearGradient>
    <radialGradient id="body" cx=".36" cy=".25" r=".76">
      <stop offset="0" stop-color="#9ba0bb"/>
      <stop offset=".6" stop-color="#4a4b68"/>
      <stop offset="1" stop-color="#171728"/>
    </radialGradient>
    <radialGradient id="head" cx=".36" cy=".26" r=".72">
      <stop offset="0" stop-color="#ffffff" stop-opacity=".85"/>
      <stop offset=".2" stop-color="#9ba0bb"/>
      <stop offset=".72" stop-color="#4a4b68"/>
      <stop offset="1" stop-color="#171728"/>
    </radialGradient>
    <filter id="softShadow" x="-30%" y="-30%" width="160%" height="160%">
      <feDropShadow dx="0" dy="8" stdDeviation="8" flood-color="#171728" flood-opacity=".35"/>
    </filter>
  </defs>
  <rect width="256" height="256" rx="64" fill="url(#bga480)"/>
  <circle cx="128" cy="128" r="107" fill="#fff" opacity=".12"/>
  <circle cx="128" cy="128" r="98" fill="#ffffff" opacity=".18"/>
  <g opacity=".35"><circle cx="154" cy="244" r="2.0" fill="#fff" opacity="0.38"/><circle cx="61" cy="202" r="1.2" fill="#fff" opacity="0.46"/><circle cx="120" cy="111" r="2.9" fill="#fff" opacity="0.56"/><circle cx="149" cy="141" r="3.1" fill="#fff" opacity="0.40"/><circle cx="47" cy="233" r="1.5" fill="#fff" opacity="0.67"/><circle cx="35" cy="93" r="1.2" fill="#fff" opacity="0.35"/><circle cx="179" cy="177" r="1.5" fill="#fff" opacity="0.27"/><circle cx="164" cy="200" r="1.3" fill="#fff" opacity="0.54"/><circle cx="37" cy="237" r="1.0" fill="#fff" opacity="0.43"/><circle cx="61" cy="21" r="1.4" fill="#fff" opacity="0.41"/></g>
  <g transform="rotate(4 128 128)">
    <path d="M56 153 C82 93 146 69 193 107 C162 105 138 123 124 167" fill="#171728" opacity=".45"/><ellipse cx="128" cy="147" rx="54" ry="45" fill="url(#body)" filter="url(#softShadow)"/><path d="M85 107 L110 47 L125 103 Z" fill="#4a4b68"/><path d="M171 107 L146 47 L131 103 Z" fill="#4a4b68"/><ellipse cx="128" cy="114" rx="47" ry="42" fill="url(#head)"/><path d="M77 126 Q46 129 34 107" stroke="#9ba0bb" stroke-width="5" fill="none" stroke-linecap="round" opacity=".85"/><path d="M179 126 Q210 129 222 107" stroke="#9ba0bb" stroke-width="5" fill="none" stroke-linecap="round" opacity=".85"/><ellipse cx="112" cy="107" rx="7" ry="8" fill="#14213d"/><ellipse cx="144" cy="107" rx="7" ry="8" fill="#14213d"/><circle cx="115" cy="103" r="2.3" fill="#fff"/><circle cx="147" cy="103" r="2.3" fill="#fff"/><circle cx="128" cy="86" r="7" fill="#9ba0bb" opacity=".9"/>
  </g>
  <path d="M42 198 C82 222 171 226 216 184" stroke="#fff" stroke-width="11" stroke-linecap="round" opacity=".22"/>
</svg>