<svg xmlns="http://www.w3.org/2000/svg" viewBox="0 0 256 256" role="img" aria-label="光明凤凰 original avatar">
  
  <defs>
    <linearGradient id="bga481" x1="0" y1="0" x2="1" y2="1">
      <stop offset="0" stop-color="#ffd7f3"/>
      <stop offset=".55" stop-color="#f47ac2"/>
      <stop offset="1" stop-color="#8e3b89"/>
    </linearGradient>
    <radialGradient id="body" cx=".36" cy=".25" r=".76">
      <stop offset="0" stop-color="#ffd7f3"/>
      <stop offset=".6" stop-color="#f47ac2"/>
      <stop offset="1" stop-color="#8e3b89"/>
    </radialGradient>
    <radialGradient id="head" cx=".36" cy=".26" r=".72">
      <stop offset="0" stop-color="#ffffff" stop-opacity=".85"/>
      <stop offset=".2" stop-color="#ffd7f3"/>
      <stop offset=".72" stop-color="#f47ac2"/>
      <stop offset="1" stop-color="#8e3b89"/>
    </radialGradient>
    <filter id="softShadow" x="-30%" y="-30%" width="160%" height="160%">
      <feDropShadow dx="0" dy="8" stdDeviation="8" flood-color="#8e3b89" flood-opacity=".35"/>
    </filter>
  </defs>
  <rect width="256" height="256" rx="64" fill="url(#bga481)"/>
  <circle cx="128" cy="128" r="112" fill="#fff" opacity=".12"/>
  <circle cx="128" cy="128" r="103" fill="#ffffff" opacity=".18"/>
  <g opacity=".35"><circle cx="129" cy="242" r="2.7" fill="#fff" opacity="0.64"/><circle cx="11" cy="93" r="1.6" fill="#fff" opacity="0.26"/><circle cx="198" cy="247" r="2.9" fill="#fff" opacity="0.47"/><circle cx="125" cy="220" r="2.0" fill="#fff" opacity="0.51"/><circle cx="202" cy="225" r="1.0" fill="#fff" opacity="0.53"/><circle cx="76" cy="211" r="2.1" fill="#fff" opacity="0.67"/><circle cx="60" cy="119" r="1.2" fill="#fff" opacity="0.47"/><circle cx="169" cy="255" r="1.7" fill="#fff" opacity="0.60"/><circle cx="162" cy="182" r="0.8" fill="#fff" opacity="0.33"/><circle cx="217" cy="214" r="0.9" fill="#fff" opacity="0.70"/></g>
  <g transform="rotate(5 128 128)">
    <path d="M110 133 C35 75 36 175 104 179" fill="#f47ac2" opacity=".78"/><path d="M146 133 C221 75 220 175 152 179" fill="#f47ac2" opacity=".78"/><ellipse cx="128" cy="151" rx="42" ry="54" fill="url(#body)" filter="url(#softShadow)"/><circle cx="128" cy="95" r="38" fill="url(#head)"/><path d="M123 94 L165 105 L125 115 Z" fill="#ffd7f3"/><path d="M106 59 C120 27 140 37 130 65" fill="#8e3b89" opacity=".85"/><ellipse cx="112" cy="107" rx="7" ry="8" fill="#14213d"/><ellipse cx="144" cy="107" rx="7" ry="8" fill="#14213d"/><circle cx="115" cy="103" r="2.3" fill="#fff"/><circle cx="147" cy="103" r="2.3" fill="#fff"/><path d="M128 73 L139 87 L128 102 L117 87 Z" fill="#ffd7f3" opacity=".92"/>
  </g>
  <path d="M42 198 C82 222 171 226 216 184" stroke="#fff" stroke-width="11" stroke-linecap="round" opacity=".22"/>
</svg>