<svg xmlns="http://www.w3.org/2000/svg" viewBox="0 0 256 256" role="img" aria-label="冰霜女帝 original avatar">
  
  <defs>
    <linearGradient id="bga489" x1="0" y1="0" x2="1" y2="1">
      <stop offset="0" stop-color="#d7fbff"/>
      <stop offset=".55" stop-color="#71d6e8"/>
      <stop offset="1" stop-color="#318aa3"/>
    </linearGradient>
    <radialGradient id="body" cx=".36" cy=".25" r=".76">
      <stop offset="0" stop-color="#d7fbff"/>
      <stop offset=".6" stop-color="#71d6e8"/>
      <stop offset="1" stop-color="#318aa3"/>
    </radialGradient>
    <radialGradient id="head" cx=".36" cy=".26" r=".72">
      <stop offset="0" stop-color="#ffffff" stop-opacity=".85"/>
      <stop offset=".2" stop-color="#d7fbff"/>
      <stop offset=".72" stop-color="#71d6e8"/>
      <stop offset="1" stop-color="#318aa3"/>
    </radialGradient>
    <filter id="softShadow" x="-30%" y="-30%" width="160%" height="160%">
      <feDropShadow dx="0" dy="8" stdDeviation="8" flood-color="#318aa3" flood-opacity=".35"/>
    </filter>
  </defs>
  <rect width="256" height="256" rx="64" fill="url(#bga489)"/>
  <circle cx="128" cy="128" r="109" fill="#fff" opacity=".12"/>
  <circle cx="128" cy="128" r="100" fill="#ffffff" opacity=".18"/>
  <g opacity=".35"><circle cx="187" cy="52" r="0.8" fill="#fff" opacity="0.49"/><circle cx="29" cy="199" r="1.5" fill="#fff" opacity="0.27"/><circle cx="97" cy="155" r="3.0" fill="#fff" opacity="0.44"/><circle cx="229" cy="141" r="1.8" fill="#fff" opacity="0.69"/><circle cx="184" cy="151" r="0.8" fill="#fff" opacity="0.58"/><circle cx="205" cy="32" r="1.2" fill="#fff" opacity="0.44"/><circle cx="79" cy="178" r="1.9" fill="#fff" opacity="0.43"/><circle cx="175" cy="201" r="1.0" fill="#fff" opacity="0.69"/><circle cx="33" cy="147" r="1.8" fill="#fff" opacity="0.66"/><circle cx="78" cy="20" r="3.0" fill="#fff" opacity="0.46"/></g>
  <g transform="rotate(0 128 128)">
    <path d="M57 143 L23 101 L25 185 Z" fill="#71d6e8" opacity=".86"/><ellipse cx="124" cy="141" rx="68" ry="43" fill="url(#body)" filter="url(#softShadow)"/><path d="M122 102 C144 50 178 68 170 112" fill="#71d6e8" opacity=".72"/><path d="M150 171 C168 207 204 185 180 159" fill="#d7fbff" opacity=".8"/><circle cx="164" cy="126" r="7" fill="#101828"/><circle cx="167" cy="123" r="2.3" fill="#fff"/><path d="M108 82 Q128 93 148 82" stroke="#d7fbff" stroke-width="5" fill="none" stroke-linecap="round" opacity=".8"/>
  </g>
  <path d="M42 198 C82 222 171 226 216 184" stroke="#fff" stroke-width="11" stroke-linecap="round" opacity=".22"/>
</svg>