<svg xmlns="http://www.w3.org/2000/svg" viewBox="0 0 256 256" role="img" aria-label="治愈天使 original avatar">
  
  <defs>
    <linearGradient id="bga49" x1="0" y1="0" x2="1" y2="1">
      <stop offset="0" stop-color="#ffd7f3"/>
      <stop offset=".55" stop-color="#f47ac2"/>
      <stop offset="1" stop-color="#8e3b89"/>
    </linearGradient>
    <radialGradient id="body" cx=".36" cy=".25" r=".76">
      <stop offset="0" stop-color="#ffd7f3"/>
      <stop offset=".6" stop-color="#f47ac2"/>
      <stop offset="1" stop-color="#8e3b89"/>
    </radialGradient>
    <radialGradient id="head" cx=".36" cy=".26" r=".72">
      <stop offset="0" stop-color="#ffffff" stop-opacity=".85"/>
      <stop offset=".2" stop-color="#ffd7f3"/>
      <stop offset=".72" stop-color="#f47ac2"/>
      <stop offset="1" stop-color="#8e3b89"/>
    </radialGradient>
    <filter id="softShadow" x="-30%" y="-30%" width="160%" height="160%">
      <feDropShadow dx="0" dy="8" stdDeviation="8" flood-color="#8e3b89" flood-opacity=".35"/>
    </filter>
  </defs>
  <rect width="256" height="256" rx="64" fill="url(#bga49)"/>
  <circle cx="128" cy="128" r="112" fill="#fff" opacity=".12"/>
  <circle cx="128" cy="128" r="103" fill="#ffffff" opacity=".18"/>
  <g opacity=".35"><circle cx="250" cy="135" r="1.8" fill="#fff" opacity="0.43"/><circle cx="28" cy="173" r="2.3" fill="#fff" opacity="0.65"/><circle cx="254" cy="111" r="1.8" fill="#fff" opacity="0.54"/><circle cx="242" cy="103" r="2.3" fill="#fff" opacity="0.36"/><circle cx="176" cy="183" r="1.9" fill="#fff" opacity="0.64"/><circle cx="25" cy="20" r="1.2" fill="#fff" opacity="0.36"/><circle cx="35" cy="101" r="1.6" fill="#fff" opacity="0.50"/><circle cx="71" cy="81" r="1.8" fill="#fff" opacity="0.65"/><circle cx="134" cy="204" r="1.7" fill="#fff" opacity="0.35"/><circle cx="5" cy="237" r="3.0" fill="#fff" opacity="0.65"/></g>
  <g transform="rotate(4 128 128)">
    <ellipse cx="128" cy="149" rx="49" ry="55" fill="url(#body)" filter="url(#softShadow)"/><circle cx="128" cy="94" r="39" fill="url(#head)"/><ellipse cx="128" cy="88" rx="68" ry="18" fill="none" stroke="#ffd7f3" stroke-width="7" opacity=".75" transform="rotate(-12 128 88)"/><path d="M128 34 L138 59 L166 60 L143 75 L151 102 L128 85 L105 102 L113 75 L90 60 L118 59 Z" fill="#f47ac2"/><ellipse cx="112" cy="107" rx="7" ry="8" fill="#14213d"/><ellipse cx="144" cy="107" rx="7" ry="8" fill="#14213d"/><circle cx="115" cy="103" r="2.3" fill="#fff"/><circle cx="147" cy="103" r="2.3" fill="#fff"/><path d="M128 73 L139 87 L128 102 L117 87 Z" fill="#ffd7f3" opacity=".92"/>
  </g>
  <path d="M42 198 C82 222 171 226 216 184" stroke="#fff" stroke-width="11" stroke-linecap="round" opacity=".22"/>
</svg>