<svg xmlns="http://www.w3.org/2000/svg" viewBox="0 0 256 256" role="img" aria-label="熔岩蜥蜴 original avatar">
  
  <defs>
    <linearGradient id="bga496" x1="0" y1="0" x2="1" y2="1">
      <stop offset="0" stop-color="#ffd166"/>
      <stop offset=".55" stop-color="#ff6b35"/>
      <stop offset="1" stop-color="#a92d1d"/>
    </linearGradient>
    <radialGradient id="body" cx=".36" cy=".25" r=".76">
      <stop offset="0" stop-color="#ffd166"/>
      <stop offset=".6" stop-color="#ff6b35"/>
      <stop offset="1" stop-color="#a92d1d"/>
    </radialGradient>
    <radialGradient id="head" cx=".36" cy=".26" r=".72">
      <stop offset="0" stop-color="#ffffff" stop-opacity=".85"/>
      <stop offset=".2" stop-color="#ffd166"/>
      <stop offset=".72" stop-color="#ff6b35"/>
      <stop offset="1" stop-color="#a92d1d"/>
    </radialGradient>
    <filter id="softShadow" x="-30%" y="-30%" width="160%" height="160%">
      <feDropShadow dx="0" dy="8" stdDeviation="8" flood-color="#a92d1d" flood-opacity=".35"/>
    </filter>
  </defs>
  <rect width="256" height="256" rx="64" fill="url(#bga496)"/>
  <circle cx="128" cy="128" r="111" fill="#fff" opacity=".12"/>
  <circle cx="128" cy="128" r="102" fill="#ffffff" opacity=".18"/>
  <g opacity=".35"><circle cx="242" cy="40" r="3.1" fill="#fff" opacity="0.44"/><circle cx="107" cy="214" r="1.5" fill="#fff" opacity="0.35"/><circle cx="132" cy="13" r="3.0" fill="#fff" opacity="0.44"/><circle cx="45" cy="249" r="2.0" fill="#fff" opacity="0.39"/><circle cx="118" cy="220" r="2.9" fill="#fff" opacity="0.67"/><circle cx="205" cy="77" r="2.1" fill="#fff" opacity="0.68"/><circle cx="219" cy="230" r="2.7" fill="#fff" opacity="0.62"/><circle cx="155" cy="239" r="1.7" fill="#fff" opacity="0.42"/><circle cx="193" cy="253" r="3.2" fill="#fff" opacity="0.52"/><circle cx="39" cy="156" r="2.8" fill="#fff" opacity="0.68"/></g>
  <g transform="rotate(0 128 128)">
    <path d="M56 153 C82 93 146 69 193 107 C162 105 138 123 124 167" fill="#a92d1d" opacity=".45"/><ellipse cx="128" cy="147" rx="54" ry="45" fill="url(#body)" filter="url(#softShadow)"/><path d="M85 107 L110 47 L125 103 Z" fill="#ff6b35"/><path d="M171 107 L146 47 L131 103 Z" fill="#ff6b35"/><ellipse cx="128" cy="114" rx="47" ry="42" fill="url(#head)"/><path d="M77 126 Q46 129 34 107" stroke="#ffd166" stroke-width="5" fill="none" stroke-linecap="round" opacity=".85"/><path d="M179 126 Q210 129 222 107" stroke="#ffd166" stroke-width="5" fill="none" stroke-linecap="round" opacity=".85"/><ellipse cx="112" cy="107" rx="7" ry="8" fill="#14213d"/><ellipse cx="144" cy="107" rx="7" ry="8" fill="#14213d"/><circle cx="115" cy="103" r="2.3" fill="#fff"/><circle cx="147" cy="103" r="2.3" fill="#fff"/><path d="M128 73 L139 87 L128 102 L117 87 Z" fill="#ffd166" opacity=".92"/>
  </g>
  <path d="M42 198 C82 222 171 226 216 184" stroke="#fff" stroke-width="11" stroke-linecap="round" opacity=".22"/>
</svg>