<svg xmlns="http://www.w3.org/2000/svg" viewBox="0 0 256 256" role="img" aria-label="暴风王兔 original avatar">
  
  <defs>
    <linearGradient id="bga503" x1="0" y1="0" x2="1" y2="1">
      <stop offset="0" stop-color="#d6fff8"/>
      <stop offset=".55" stop-color="#55c8b8"/>
      <stop offset="1" stop-color="#257173"/>
    </linearGradient>
    <radialGradient id="body" cx=".36" cy=".25" r=".76">
      <stop offset="0" stop-color="#d6fff8"/>
      <stop offset=".6" stop-color="#55c8b8"/>
      <stop offset="1" stop-color="#257173"/>
    </radialGradient>
    <radialGradient id="head" cx=".36" cy=".26" r=".72">
      <stop offset="0" stop-color="#ffffff" stop-opacity=".85"/>
      <stop offset=".2" stop-color="#d6fff8"/>
      <stop offset=".72" stop-color="#55c8b8"/>
      <stop offset="1" stop-color="#257173"/>
    </radialGradient>
    <filter id="softShadow" x="-30%" y="-30%" width="160%" height="160%">
      <feDropShadow dx="0" dy="8" stdDeviation="8" flood-color="#257173" flood-opacity=".35"/>
    </filter>
  </defs>
  <rect width="256" height="256" rx="64" fill="url(#bga503)"/>
  <circle cx="128" cy="128" r="113" fill="#fff" opacity=".12"/>
  <circle cx="128" cy="128" r="104" fill="#ffffff" opacity=".18"/>
  <g opacity=".35"><circle cx="8" cy="249" r="1.7" fill="#fff" opacity="0.54"/><circle cx="149" cy="227" r="1.4" fill="#fff" opacity="0.54"/><circle cx="1" cy="50" r="1.4" fill="#fff" opacity="0.46"/><circle cx="14" cy="63" r="1.0" fill="#fff" opacity="0.44"/><circle cx="56" cy="256" r="2.4" fill="#fff" opacity="0.55"/><circle cx="178" cy="175" r="2.3" fill="#fff" opacity="0.38"/><circle cx="26" cy="162" r="2.5" fill="#fff" opacity="0.31"/><circle cx="98" cy="171" r="1.9" fill="#fff" opacity="0.32"/><circle cx="177" cy="65" r="3.0" fill="#fff" opacity="0.44"/><circle cx="211" cy="197" r="1.7" fill="#fff" opacity="0.26"/></g>
  <g transform="rotate(3 128 128)">
    <ellipse cx="128" cy="159" rx="54" ry="49" fill="url(#body)" filter="url(#softShadow)"/><circle cx="128" cy="97" r="42" fill="url(#head)"/><path d="M76 141 C28 132 45 190 84 180" fill="#257173"/><path d="M180 141 C228 132 211 190 172 180" fill="#257173"/><path d="M101 56 H155 L165 79 Q128 93 91 79 Z" fill="#d6fff8" opacity=".85"/><ellipse cx="112" cy="107" rx="7" ry="8" fill="#14213d"/><ellipse cx="144" cy="107" rx="7" ry="8" fill="#14213d"/><circle cx="115" cy="103" r="2.3" fill="#fff"/><circle cx="147" cy="103" r="2.3" fill="#fff"/><circle cx="128" cy="86" r="7" fill="#d6fff8" opacity=".9"/>
  </g>
  <path d="M42 198 C82 222 171 226 216 184" stroke="#fff" stroke-width="11" stroke-linecap="round" opacity=".22"/>
</svg>