<svg xmlns="http://www.w3.org/2000/svg" viewBox="0 0 256 256" role="img" aria-label="风铃鸟 original avatar">
  
  <defs>
    <linearGradient id="bga504" x1="0" y1="0" x2="1" y2="1">
      <stop offset="0" stop-color="#d6fff8"/>
      <stop offset=".55" stop-color="#55c8b8"/>
      <stop offset="1" stop-color="#257173"/>
    </linearGradient>
    <radialGradient id="body" cx=".36" cy=".25" r=".76">
      <stop offset="0" stop-color="#d6fff8"/>
      <stop offset=".6" stop-color="#55c8b8"/>
      <stop offset="1" stop-color="#257173"/>
    </radialGradient>
    <radialGradient id="head" cx=".36" cy=".26" r=".72">
      <stop offset="0" stop-color="#ffffff" stop-opacity=".85"/>
      <stop offset=".2" stop-color="#d6fff8"/>
      <stop offset=".72" stop-color="#55c8b8"/>
      <stop offset="1" stop-color="#257173"/>
    </radialGradient>
    <filter id="softShadow" x="-30%" y="-30%" width="160%" height="160%">
      <feDropShadow dx="0" dy="8" stdDeviation="8" flood-color="#257173" flood-opacity=".35"/>
    </filter>
  </defs>
  <rect width="256" height="256" rx="64" fill="url(#bga504)"/>
  <circle cx="128" cy="128" r="106" fill="#fff" opacity=".12"/>
  <circle cx="128" cy="128" r="97" fill="#ffffff" opacity=".18"/>
  <g opacity=".35"><circle cx="2" cy="79" r="0.9" fill="#fff" opacity="0.51"/><circle cx="63" cy="62" r="2.3" fill="#fff" opacity="0.52"/><circle cx="4" cy="21" r="2.2" fill="#fff" opacity="0.45"/><circle cx="234" cy="92" r="2.7" fill="#fff" opacity="0.51"/><circle cx="251" cy="240" r="3.0" fill="#fff" opacity="0.69"/><circle cx="43" cy="242" r="3.0" fill="#fff" opacity="0.65"/><circle cx="133" cy="194" r="1.2" fill="#fff" opacity="0.25"/><circle cx="62" cy="211" r="1.1" fill="#fff" opacity="0.59"/><circle cx="29" cy="157" r="0.9" fill="#fff" opacity="0.37"/><circle cx="227" cy="243" r="2.5" fill="#fff" opacity="0.47"/></g>
  <g transform="rotate(-5 128 128)">
    <path d="M110 133 C35 75 36 175 104 179" fill="#55c8b8" opacity=".78"/><path d="M146 133 C221 75 220 175 152 179" fill="#55c8b8" opacity=".78"/><ellipse cx="128" cy="151" rx="42" ry="54" fill="url(#body)" filter="url(#softShadow)"/><circle cx="128" cy="95" r="38" fill="url(#head)"/><path d="M123 94 L165 105 L125 115 Z" fill="#d6fff8"/><path d="M106 59 C120 27 140 37 130 65" fill="#257173" opacity=".85"/><ellipse cx="112" cy="107" rx="7" ry="8" fill="#14213d"/><ellipse cx="144" cy="107" rx="7" ry="8" fill="#14213d"/><circle cx="115" cy="103" r="2.3" fill="#fff"/><circle cx="147" cy="103" r="2.3" fill="#fff"/><circle cx="128" cy="86" r="7" fill="#d6fff8" opacity=".9"/>
  </g>
  <path d="M42 198 C82 222 171 226 216 184" stroke="#fff" stroke-width="11" stroke-linecap="round" opacity=".22"/>
</svg>