<svg xmlns="http://www.w3.org/2000/svg" viewBox="0 0 256 256" role="img" aria-label="疾风隼 original avatar">
  
  <defs>
    <linearGradient id="bga505" x1="0" y1="0" x2="1" y2="1">
      <stop offset="0" stop-color="#d6fff8"/>
      <stop offset=".55" stop-color="#55c8b8"/>
      <stop offset="1" stop-color="#257173"/>
    </linearGradient>
    <radialGradient id="body" cx=".36" cy=".25" r=".76">
      <stop offset="0" stop-color="#d6fff8"/>
      <stop offset=".6" stop-color="#55c8b8"/>
      <stop offset="1" stop-color="#257173"/>
    </radialGradient>
    <radialGradient id="head" cx=".36" cy=".26" r=".72">
      <stop offset="0" stop-color="#ffffff" stop-opacity=".85"/>
      <stop offset=".2" stop-color="#d6fff8"/>
      <stop offset=".72" stop-color="#55c8b8"/>
      <stop offset="1" stop-color="#257173"/>
    </radialGradient>
    <filter id="softShadow" x="-30%" y="-30%" width="160%" height="160%">
      <feDropShadow dx="0" dy="8" stdDeviation="8" flood-color="#257173" flood-opacity=".35"/>
    </filter>
  </defs>
  <rect width="256" height="256" rx="64" fill="url(#bga505)"/>
  <circle cx="128" cy="128" r="108" fill="#fff" opacity=".12"/>
  <circle cx="128" cy="128" r="99" fill="#ffffff" opacity=".18"/>
  <g opacity=".35"><circle cx="226" cy="7" r="2.6" fill="#fff" opacity="0.69"/><circle cx="32" cy="172" r="0.9" fill="#fff" opacity="0.47"/><circle cx="254" cy="204" r="1.7" fill="#fff" opacity="0.60"/><circle cx="227" cy="209" r="2.9" fill="#fff" opacity="0.66"/><circle cx="124" cy="189" r="2.0" fill="#fff" opacity="0.57"/><circle cx="218" cy="196" r="1.5" fill="#fff" opacity="0.62"/><circle cx="165" cy="182" r="1.3" fill="#fff" opacity="0.28"/><circle cx="248" cy="103" r="1.6" fill="#fff" opacity="0.38"/><circle cx="64" cy="35" r="1.1" fill="#fff" opacity="0.29"/><circle cx="150" cy="98" r="2.4" fill="#fff" opacity="0.51"/></g>
  <g transform="rotate(-3 128 128)">
    <path d="M110 133 C35 75 36 175 104 179" fill="#55c8b8" opacity=".78"/><path d="M146 133 C221 75 220 175 152 179" fill="#55c8b8" opacity=".78"/><ellipse cx="128" cy="151" rx="42" ry="54" fill="url(#body)" filter="url(#softShadow)"/><circle cx="128" cy="95" r="38" fill="url(#head)"/><path d="M123 94 L165 105 L125 115 Z" fill="#d6fff8"/><path d="M106 59 C120 27 140 37 130 65" fill="#257173" opacity=".85"/><ellipse cx="112" cy="107" rx="7" ry="8" fill="#14213d"/><ellipse cx="144" cy="107" rx="7" ry="8" fill="#14213d"/><circle cx="115" cy="103" r="2.3" fill="#fff"/><circle cx="147" cy="103" r="2.3" fill="#fff"/><path d="M128 73 L139 87 L128 102 L117 87 Z" fill="#d6fff8" opacity=".92"/>
  </g>
  <path d="M42 198 C82 222 171 226 216 184" stroke="#fff" stroke-width="11" stroke-linecap="round" opacity=".22"/>
</svg>