<svg xmlns="http://www.w3.org/2000/svg" viewBox="0 0 256 256" role="img" aria-label="浮空水母 original avatar">
  
  <defs>
    <linearGradient id="bga507" x1="0" y1="0" x2="1" y2="1">
      <stop offset="0" stop-color="#d6fff8"/>
      <stop offset=".55" stop-color="#55c8b8"/>
      <stop offset="1" stop-color="#257173"/>
    </linearGradient>
    <radialGradient id="body" cx=".36" cy=".25" r=".76">
      <stop offset="0" stop-color="#d6fff8"/>
      <stop offset=".6" stop-color="#55c8b8"/>
      <stop offset="1" stop-color="#257173"/>
    </radialGradient>
    <radialGradient id="head" cx=".36" cy=".26" r=".72">
      <stop offset="0" stop-color="#ffffff" stop-opacity=".85"/>
      <stop offset=".2" stop-color="#d6fff8"/>
      <stop offset=".72" stop-color="#55c8b8"/>
      <stop offset="1" stop-color="#257173"/>
    </radialGradient>
    <filter id="softShadow" x="-30%" y="-30%" width="160%" height="160%">
      <feDropShadow dx="0" dy="8" stdDeviation="8" flood-color="#257173" flood-opacity=".35"/>
    </filter>
  </defs>
  <rect width="256" height="256" rx="64" fill="url(#bga507)"/>
  <circle cx="128" cy="128" r="112" fill="#fff" opacity=".12"/>
  <circle cx="128" cy="128" r="103" fill="#ffffff" opacity=".18"/>
  <g opacity=".35"><circle cx="82" cy="113" r="2.0" fill="#fff" opacity="0.59"/><circle cx="182" cy="222" r="1.1" fill="#fff" opacity="0.52"/><circle cx="41" cy="88" r="3.0" fill="#fff" opacity="0.31"/><circle cx="4" cy="82" r="1.4" fill="#fff" opacity="0.37"/><circle cx="90" cy="164" r="2.8" fill="#fff" opacity="0.30"/><circle cx="221" cy="190" r="1.0" fill="#fff" opacity="0.62"/><circle cx="94" cy="46" r="2.9" fill="#fff" opacity="0.28"/><circle cx="92" cy="81" r="0.9" fill="#fff" opacity="0.38"/><circle cx="158" cy="48" r="2.5" fill="#fff" opacity="0.28"/><circle cx="156" cy="234" r="1.3" fill="#fff" opacity="0.47"/></g>
  <g transform="rotate(-2 128 128)">
    <path d="M57 143 L23 101 L25 185 Z" fill="#55c8b8" opacity=".86"/><ellipse cx="124" cy="141" rx="68" ry="43" fill="url(#body)" filter="url(#softShadow)"/><path d="M122 102 C144 50 178 68 170 112" fill="#55c8b8" opacity=".72"/><path d="M150 171 C168 207 204 185 180 159" fill="#d6fff8" opacity=".8"/><circle cx="164" cy="126" r="7" fill="#101828"/><circle cx="167" cy="123" r="2.3" fill="#fff"/><path d="M128 73 L139 87 L128 102 L117 87 Z" fill="#d6fff8" opacity=".92"/>
  </g>
  <path d="M42 198 C82 222 171 226 216 184" stroke="#fff" stroke-width="11" stroke-linecap="round" opacity=".22"/>
</svg>