<svg xmlns="http://www.w3.org/2000/svg" viewBox="0 0 256 256" role="img" aria-label="风暴水母 original avatar">
  
  <defs>
    <linearGradient id="bga508" x1="0" y1="0" x2="1" y2="1">
      <stop offset="0" stop-color="#d6fff8"/>
      <stop offset=".55" stop-color="#55c8b8"/>
      <stop offset="1" stop-color="#257173"/>
    </linearGradient>
    <radialGradient id="body" cx=".36" cy=".25" r=".76">
      <stop offset="0" stop-color="#d6fff8"/>
      <stop offset=".6" stop-color="#55c8b8"/>
      <stop offset="1" stop-color="#257173"/>
    </radialGradient>
    <radialGradient id="head" cx=".36" cy=".26" r=".72">
      <stop offset="0" stop-color="#ffffff" stop-opacity=".85"/>
      <stop offset=".2" stop-color="#d6fff8"/>
      <stop offset=".72" stop-color="#55c8b8"/>
      <stop offset="1" stop-color="#257173"/>
    </radialGradient>
    <filter id="softShadow" x="-30%" y="-30%" width="160%" height="160%">
      <feDropShadow dx="0" dy="8" stdDeviation="8" flood-color="#257173" flood-opacity=".35"/>
    </filter>
  </defs>
  <rect width="256" height="256" rx="64" fill="url(#bga508)"/>
  <circle cx="128" cy="128" r="112" fill="#fff" opacity=".12"/>
  <circle cx="128" cy="128" r="103" fill="#ffffff" opacity=".18"/>
  <g opacity=".35"><circle cx="39" cy="66" r="2.1" fill="#fff" opacity="0.57"/><circle cx="125" cy="202" r="2.5" fill="#fff" opacity="0.64"/><circle cx="77" cy="109" r="2.3" fill="#fff" opacity="0.25"/><circle cx="83" cy="31" r="2.9" fill="#fff" opacity="0.40"/><circle cx="74" cy="251" r="2.3" fill="#fff" opacity="0.30"/><circle cx="217" cy="232" r="2.6" fill="#fff" opacity="0.50"/><circle cx="249" cy="253" r="1.0" fill="#fff" opacity="0.45"/><circle cx="177" cy="80" r="2.2" fill="#fff" opacity="0.26"/><circle cx="67" cy="204" r="1.0" fill="#fff" opacity="0.69"/><circle cx="176" cy="48" r="2.9" fill="#fff" opacity="0.54"/></g>
  <g transform="rotate(1 128 128)">
    <path d="M57 143 L23 101 L25 185 Z" fill="#55c8b8" opacity=".86"/><ellipse cx="124" cy="141" rx="68" ry="43" fill="url(#body)" filter="url(#softShadow)"/><path d="M122 102 C144 50 178 68 170 112" fill="#55c8b8" opacity=".72"/><path d="M150 171 C168 207 204 185 180 159" fill="#d6fff8" opacity=".8"/><circle cx="164" cy="126" r="7" fill="#101828"/><circle cx="167" cy="123" r="2.3" fill="#fff"/><path d="M108 82 Q128 93 148 82" stroke="#d6fff8" stroke-width="5" fill="none" stroke-linecap="round" opacity=".8"/>
  </g>
  <path d="M42 198 C82 222 171 226 216 184" stroke="#fff" stroke-width="11" stroke-linecap="round" opacity=".22"/>
</svg>