<svg xmlns="http://www.w3.org/2000/svg" viewBox="0 0 256 256" role="img" aria-label="蒲公英精 original avatar">
  
  <defs>
    <linearGradient id="bga509" x1="0" y1="0" x2="1" y2="1">
      <stop offset="0" stop-color="#d6fff8"/>
      <stop offset=".55" stop-color="#55c8b8"/>
      <stop offset="1" stop-color="#257173"/>
    </linearGradient>
    <radialGradient id="body" cx=".36" cy=".25" r=".76">
      <stop offset="0" stop-color="#d6fff8"/>
      <stop offset=".6" stop-color="#55c8b8"/>
      <stop offset="1" stop-color="#257173"/>
    </radialGradient>
    <radialGradient id="head" cx=".36" cy=".26" r=".72">
      <stop offset="0" stop-color="#ffffff" stop-opacity=".85"/>
      <stop offset=".2" stop-color="#d6fff8"/>
      <stop offset=".72" stop-color="#55c8b8"/>
      <stop offset="1" stop-color="#257173"/>
    </radialGradient>
    <filter id="softShadow" x="-30%" y="-30%" width="160%" height="160%">
      <feDropShadow dx="0" dy="8" stdDeviation="8" flood-color="#257173" flood-opacity=".35"/>
    </filter>
  </defs>
  <rect width="256" height="256" rx="64" fill="url(#bga509)"/>
  <circle cx="128" cy="128" r="107" fill="#fff" opacity=".12"/>
  <circle cx="128" cy="128" r="98" fill="#ffffff" opacity=".18"/>
  <g opacity=".35"><circle cx="222" cy="178" r="1.8" fill="#fff" opacity="0.70"/><circle cx="182" cy="39" r="1.8" fill="#fff" opacity="0.62"/><circle cx="109" cy="18" r="1.2" fill="#fff" opacity="0.34"/><circle cx="150" cy="151" r="1.9" fill="#fff" opacity="0.69"/><circle cx="188" cy="224" r="2.8" fill="#fff" opacity="0.26"/><circle cx="174" cy="51" r="1.1" fill="#fff" opacity="0.53"/><circle cx="133" cy="195" r="1.7" fill="#fff" opacity="0.29"/><circle cx="189" cy="196" r="1.8" fill="#fff" opacity="0.30"/><circle cx="211" cy="183" r="1.0" fill="#fff" opacity="0.52"/><circle cx="239" cy="7" r="2.4" fill="#fff" opacity="0.52"/></g>
  <g transform="rotate(-2 128 128)">
    <path d="M110 133 C35 75 36 175 104 179" fill="#55c8b8" opacity=".78"/><path d="M146 133 C221 75 220 175 152 179" fill="#55c8b8" opacity=".78"/><ellipse cx="128" cy="151" rx="42" ry="54" fill="url(#body)" filter="url(#softShadow)"/><circle cx="128" cy="95" r="38" fill="url(#head)"/><path d="M123 94 L165 105 L125 115 Z" fill="#d6fff8"/><path d="M106 59 C120 27 140 37 130 65" fill="#257173" opacity=".85"/><ellipse cx="112" cy="107" rx="7" ry="8" fill="#14213d"/><ellipse cx="144" cy="107" rx="7" ry="8" fill="#14213d"/><circle cx="115" cy="103" r="2.3" fill="#fff"/><circle cx="147" cy="103" r="2.3" fill="#fff"/><circle cx="128" cy="86" r="7" fill="#d6fff8" opacity=".9"/>
  </g>
  <path d="M42 198 C82 222 171 226 216 184" stroke="#fff" stroke-width="11" stroke-linecap="round" opacity=".22"/>
</svg>