<svg xmlns="http://www.w3.org/2000/svg" viewBox="0 0 256 256" role="img" aria-label="风花仙子 original avatar">
  
  <defs>
    <linearGradient id="bga510" x1="0" y1="0" x2="1" y2="1">
      <stop offset="0" stop-color="#d6fff8"/>
      <stop offset=".55" stop-color="#55c8b8"/>
      <stop offset="1" stop-color="#257173"/>
    </linearGradient>
    <radialGradient id="body" cx=".36" cy=".25" r=".76">
      <stop offset="0" stop-color="#d6fff8"/>
      <stop offset=".6" stop-color="#55c8b8"/>
      <stop offset="1" stop-color="#257173"/>
    </radialGradient>
    <radialGradient id="head" cx=".36" cy=".26" r=".72">
      <stop offset="0" stop-color="#ffffff" stop-opacity=".85"/>
      <stop offset=".2" stop-color="#d6fff8"/>
      <stop offset=".72" stop-color="#55c8b8"/>
      <stop offset="1" stop-color="#257173"/>
    </radialGradient>
    <filter id="softShadow" x="-30%" y="-30%" width="160%" height="160%">
      <feDropShadow dx="0" dy="8" stdDeviation="8" flood-color="#257173" flood-opacity=".35"/>
    </filter>
  </defs>
  <rect width="256" height="256" rx="64" fill="url(#bga510)"/>
  <circle cx="128" cy="128" r="113" fill="#fff" opacity=".12"/>
  <circle cx="128" cy="128" r="104" fill="#ffffff" opacity=".18"/>
  <g opacity=".35"><circle cx="56" cy="79" r="0.9" fill="#fff" opacity="0.55"/><circle cx="47" cy="145" r="1.9" fill="#fff" opacity="0.50"/><circle cx="193" cy="215" r="2.2" fill="#fff" opacity="0.50"/><circle cx="219" cy="39" r="2.6" fill="#fff" opacity="0.49"/><circle cx="41" cy="192" r="2.9" fill="#fff" opacity="0.35"/><circle cx="95" cy="88" r="1.3" fill="#fff" opacity="0.62"/><circle cx="58" cy="140" r="1.7" fill="#fff" opacity="0.55"/><circle cx="225" cy="126" r="3.0" fill="#fff" opacity="0.69"/><circle cx="222" cy="233" r="1.2" fill="#fff" opacity="0.38"/><circle cx="103" cy="162" r="2.0" fill="#fff" opacity="0.50"/></g>
  <g transform="rotate(1 128 128)">
    <path d="M116 179 C66 167 44 113 100 118" fill="#55c8b8" opacity=".82"/><path d="M140 179 C190 167 212 113 156 118" fill="#55c8b8" opacity=".82"/><ellipse cx="128" cy="149" rx="48" ry="57" fill="url(#body)" filter="url(#softShadow)"/><path d="M128 51 C86 69 82 110 128 106 C174 110 170 69 128 51Z" fill="#d6fff8"/><circle cx="128" cy="107" r="38" fill="url(#head)"/><ellipse cx="112" cy="107" rx="7" ry="8" fill="#14213d"/><ellipse cx="144" cy="107" rx="7" ry="8" fill="#14213d"/><circle cx="115" cy="103" r="2.3" fill="#fff"/><circle cx="147" cy="103" r="2.3" fill="#fff"/><path d="M108 82 Q128 93 148 82" stroke="#d6fff8" stroke-width="5" fill="none" stroke-linecap="round" opacity=".8"/>
  </g>
  <path d="M42 198 C82 222 171 226 216 184" stroke="#fff" stroke-width="11" stroke-linecap="round" opacity=".22"/>
</svg>