<svg xmlns="http://www.w3.org/2000/svg" viewBox="0 0 256 256" role="img" aria-label="龙卷蛇 original avatar">
  
  <defs>
    <linearGradient id="bga511" x1="0" y1="0" x2="1" y2="1">
      <stop offset="0" stop-color="#d6fff8"/>
      <stop offset=".55" stop-color="#55c8b8"/>
      <stop offset="1" stop-color="#257173"/>
    </linearGradient>
    <radialGradient id="body" cx=".36" cy=".25" r=".76">
      <stop offset="0" stop-color="#d6fff8"/>
      <stop offset=".6" stop-color="#55c8b8"/>
      <stop offset="1" stop-color="#257173"/>
    </radialGradient>
    <radialGradient id="head" cx=".36" cy=".26" r=".72">
      <stop offset="0" stop-color="#ffffff" stop-opacity=".85"/>
      <stop offset=".2" stop-color="#d6fff8"/>
      <stop offset=".72" stop-color="#55c8b8"/>
      <stop offset="1" stop-color="#257173"/>
    </radialGradient>
    <filter id="softShadow" x="-30%" y="-30%" width="160%" height="160%">
      <feDropShadow dx="0" dy="8" stdDeviation="8" flood-color="#257173" flood-opacity=".35"/>
    </filter>
  </defs>
  <rect width="256" height="256" rx="64" fill="url(#bga511)"/>
  <circle cx="128" cy="128" r="107" fill="#fff" opacity=".12"/>
  <circle cx="128" cy="128" r="98" fill="#ffffff" opacity=".18"/>
  <g opacity=".35"><circle cx="93" cy="194" r="2.3" fill="#fff" opacity="0.41"/><circle cx="174" cy="152" r="1.5" fill="#fff" opacity="0.48"/><circle cx="160" cy="198" r="2.6" fill="#fff" opacity="0.64"/><circle cx="97" cy="188" r="2.2" fill="#fff" opacity="0.45"/><circle cx="40" cy="41" r="2.9" fill="#fff" opacity="0.36"/><circle cx="204" cy="163" r="2.7" fill="#fff" opacity="0.29"/><circle cx="78" cy="151" r="2.1" fill="#fff" opacity="0.53"/><circle cx="186" cy="222" r="1.2" fill="#fff" opacity="0.37"/><circle cx="191" cy="82" r="2.4" fill="#fff" opacity="0.68"/><circle cx="49" cy="212" r="2.8" fill="#fff" opacity="0.34"/></g>
  <g transform="rotate(0 128 128)">
    <path d="M56 153 C82 93 146 69 193 107 C162 105 138 123 124 167" fill="#257173" opacity=".45"/><ellipse cx="128" cy="147" rx="54" ry="45" fill="url(#body)" filter="url(#softShadow)"/><path d="M85 107 L110 47 L125 103 Z" fill="#55c8b8"/><path d="M171 107 L146 47 L131 103 Z" fill="#55c8b8"/><ellipse cx="128" cy="114" rx="47" ry="42" fill="url(#head)"/><path d="M77 126 Q46 129 34 107" stroke="#d6fff8" stroke-width="5" fill="none" stroke-linecap="round" opacity=".85"/><path d="M179 126 Q210 129 222 107" stroke="#d6fff8" stroke-width="5" fill="none" stroke-linecap="round" opacity=".85"/><ellipse cx="112" cy="107" rx="7" ry="8" fill="#14213d"/><ellipse cx="144" cy="107" rx="7" ry="8" fill="#14213d"/><circle cx="115" cy="103" r="2.3" fill="#fff"/><circle cx="147" cy="103" r="2.3" fill="#fff"/><path d="M128 73 L139 87 L128 102 L117 87 Z" fill="#d6fff8" opacity=".92"/>
  </g>
  <path d="M42 198 C82 222 171 226 216 184" stroke="#fff" stroke-width="11" stroke-linecap="round" opacity=".22"/>
</svg>