<svg xmlns="http://www.w3.org/2000/svg" viewBox="0 0 256 256" role="img" aria-label="太阳狮 original avatar">
  
  <defs>
    <linearGradient id="bga521" x1="0" y1="0" x2="1" y2="1">
      <stop offset="0" stop-color="#fffbe0"/>
      <stop offset=".55" stop-color="#f2cf62"/>
      <stop offset="1" stop-color="#80651c"/>
    </linearGradient>
    <radialGradient id="body" cx=".36" cy=".25" r=".76">
      <stop offset="0" stop-color="#fffbe0"/>
      <stop offset=".6" stop-color="#f2cf62"/>
      <stop offset="1" stop-color="#80651c"/>
    </radialGradient>
    <radialGradient id="head" cx=".36" cy=".26" r=".72">
      <stop offset="0" stop-color="#ffffff" stop-opacity=".85"/>
      <stop offset=".2" stop-color="#fffbe0"/>
      <stop offset=".72" stop-color="#f2cf62"/>
      <stop offset="1" stop-color="#80651c"/>
    </radialGradient>
    <filter id="softShadow" x="-30%" y="-30%" width="160%" height="160%">
      <feDropShadow dx="0" dy="8" stdDeviation="8" flood-color="#80651c" flood-opacity=".35"/>
    </filter>
  </defs>
  <rect width="256" height="256" rx="64" fill="url(#bga521)"/>
  <circle cx="128" cy="128" r="106" fill="#fff" opacity=".12"/>
  <circle cx="128" cy="128" r="97" fill="#ffffff" opacity=".18"/>
  <g opacity=".35"><circle cx="1" cy="30" r="1.6" fill="#fff" opacity="0.50"/><circle cx="5" cy="95" r="2.8" fill="#fff" opacity="0.27"/><circle cx="211" cy="243" r="3.0" fill="#fff" opacity="0.61"/><circle cx="184" cy="112" r="3.0" fill="#fff" opacity="0.46"/><circle cx="177" cy="77" r="2.6" fill="#fff" opacity="0.33"/><circle cx="240" cy="64" r="3.1" fill="#fff" opacity="0.47"/><circle cx="8" cy="60" r="1.3" fill="#fff" opacity="0.58"/><circle cx="228" cy="143" r="2.0" fill="#fff" opacity="0.43"/><circle cx="48" cy="172" r="1.7" fill="#fff" opacity="0.56"/><circle cx="169" cy="235" r="1.7" fill="#fff" opacity="0.56"/></g>
  <g transform="rotate(4 128 128)">
    <path d="M81 153 C37 141 48 92 84 112" stroke="#f2cf62" stroke-width="14" fill="none" stroke-linecap="round" opacity=".76"/><ellipse cx="128" cy="156" rx="53" ry="50" fill="url(#body)" filter="url(#softShadow)"/><path d="M93 87 L70 40 L116 69 Z" fill="#f2cf62"/><path d="M163 87 L186 40 L140 69 Z" fill="#f2cf62"/><circle cx="128" cy="98" r="45" fill="url(#head)"/><ellipse cx="111" cy="106" rx="8" ry="10" fill="#182033"/><ellipse cx="145" cy="106" rx="8" ry="10" fill="#182033"/><ellipse cx="112" cy="107" rx="7" ry="8" fill="#14213d"/><ellipse cx="144" cy="107" rx="7" ry="8" fill="#14213d"/><circle cx="115" cy="103" r="2.3" fill="#fff"/><circle cx="147" cy="103" r="2.3" fill="#fff"/><circle cx="128" cy="86" r="7" fill="#fffbe0" opacity=".9"/>
  </g>
  <path d="M42 198 C82 222 171 226 216 184" stroke="#fff" stroke-width="11" stroke-linecap="round" opacity=".22"/>
</svg>