<svg xmlns="http://www.w3.org/2000/svg" viewBox="0 0 256 256" role="img" aria-label="虹光宝石 original avatar">
  
  <defs>
    <linearGradient id="bga523" x1="0" y1="0" x2="1" y2="1">
      <stop offset="0" stop-color="#fffbe0"/>
      <stop offset=".55" stop-color="#f2cf62"/>
      <stop offset="1" stop-color="#80651c"/>
    </linearGradient>
    <radialGradient id="body" cx=".36" cy=".25" r=".76">
      <stop offset="0" stop-color="#fffbe0"/>
      <stop offset=".6" stop-color="#f2cf62"/>
      <stop offset="1" stop-color="#80651c"/>
    </radialGradient>
    <radialGradient id="head" cx=".36" cy=".26" r=".72">
      <stop offset="0" stop-color="#ffffff" stop-opacity=".85"/>
      <stop offset=".2" stop-color="#fffbe0"/>
      <stop offset=".72" stop-color="#f2cf62"/>
      <stop offset="1" stop-color="#80651c"/>
    </radialGradient>
    <filter id="softShadow" x="-30%" y="-30%" width="160%" height="160%">
      <feDropShadow dx="0" dy="8" stdDeviation="8" flood-color="#80651c" flood-opacity=".35"/>
    </filter>
  </defs>
  <rect width="256" height="256" rx="64" fill="url(#bga523)"/>
  <circle cx="128" cy="128" r="109" fill="#fff" opacity=".12"/>
  <circle cx="128" cy="128" r="100" fill="#ffffff" opacity=".18"/>
  <g opacity=".35"><circle cx="201" cy="11" r="2.0" fill="#fff" opacity="0.48"/><circle cx="128" cy="63" r="2.2" fill="#fff" opacity="0.47"/><circle cx="248" cy="70" r="2.6" fill="#fff" opacity="0.66"/><circle cx="31" cy="209" r="2.9" fill="#fff" opacity="0.38"/><circle cx="35" cy="168" r="1.4" fill="#fff" opacity="0.54"/><circle cx="144" cy="114" r="1.0" fill="#fff" opacity="0.41"/><circle cx="65" cy="127" r="0.8" fill="#fff" opacity="0.34"/><circle cx="134" cy="85" r="0.8" fill="#fff" opacity="0.66"/><circle cx="66" cy="134" r="1.4" fill="#fff" opacity="0.39"/><circle cx="107" cy="112" r="2.7" fill="#fff" opacity="0.28"/></g>
  <g transform="rotate(3 128 128)">
    <path d="M76 95 L110 60 H155 L187 102 L172 176 H83 Z" fill="url(#body)" filter="url(#softShadow)"/><path d="M100 71 L123 28 L140 67 Z" fill="#fffbe0"/><path d="M145 73 L171 39 L170 86 Z" fill="#f2cf62"/><rect x="98" y="119" width="60" height="15" rx="7" fill="#80651c" opacity=".38"/><circle cx="114" cy="126" r="5" fill="#fffbe0"/><circle cx="142" cy="126" r="5" fill="#fffbe0"/><path d="M108 82 Q128 93 148 82" stroke="#fffbe0" stroke-width="5" fill="none" stroke-linecap="round" opacity=".8"/>
  </g>
  <path d="M42 198 C82 222 171 226 216 184" stroke="#fff" stroke-width="11" stroke-linecap="round" opacity=".22"/>
</svg>