<svg xmlns="http://www.w3.org/2000/svg" viewBox="0 0 256 256" role="img" aria-label="冥王狼 original avatar">
  
  <defs>
    <linearGradient id="bga533" x1="0" y1="0" x2="1" y2="1">
      <stop offset="0" stop-color="#9ba0bb"/>
      <stop offset=".55" stop-color="#4a4b68"/>
      <stop offset="1" stop-color="#171728"/>
    </linearGradient>
    <radialGradient id="body" cx=".36" cy=".25" r=".76">
      <stop offset="0" stop-color="#9ba0bb"/>
      <stop offset=".6" stop-color="#4a4b68"/>
      <stop offset="1" stop-color="#171728"/>
    </radialGradient>
    <radialGradient id="head" cx=".36" cy=".26" r=".72">
      <stop offset="0" stop-color="#ffffff" stop-opacity=".85"/>
      <stop offset=".2" stop-color="#9ba0bb"/>
      <stop offset=".72" stop-color="#4a4b68"/>
      <stop offset="1" stop-color="#171728"/>
    </radialGradient>
    <filter id="softShadow" x="-30%" y="-30%" width="160%" height="160%">
      <feDropShadow dx="0" dy="8" stdDeviation="8" flood-color="#171728" flood-opacity=".35"/>
    </filter>
  </defs>
  <rect width="256" height="256" rx="64" fill="url(#bga533)"/>
  <circle cx="128" cy="128" r="111" fill="#fff" opacity=".12"/>
  <circle cx="128" cy="128" r="102" fill="#ffffff" opacity=".18"/>
  <g opacity=".35"><circle cx="127" cy="186" r="2.7" fill="#fff" opacity="0.46"/><circle cx="21" cy="39" r="1.5" fill="#fff" opacity="0.29"/><circle cx="254" cy="156" r="1.3" fill="#fff" opacity="0.50"/><circle cx="176" cy="100" r="2.9" fill="#fff" opacity="0.50"/><circle cx="200" cy="126" r="1.1" fill="#fff" opacity="0.32"/><circle cx="71" cy="75" r="2.5" fill="#fff" opacity="0.27"/><circle cx="133" cy="58" r="1.3" fill="#fff" opacity="0.57"/><circle cx="84" cy="142" r="2.0" fill="#fff" opacity="0.43"/><circle cx="195" cy="65" r="2.1" fill="#fff" opacity="0.45"/><circle cx="98" cy="60" r="2.8" fill="#fff" opacity="0.26"/></g>
  <g transform="rotate(3 128 128)">
    <path d="M76 196 C52 132 85 60 132 59 C188 57 208 129 175 196 C158 179 144 207 128 188 C111 207 95 179 76 196Z" fill="url(#body)" filter="url(#softShadow)"/><circle cx="110" cy="107" r="8" fill="#1b1638"/><circle cx="146" cy="107" r="8" fill="#1b1638"/><path d="M120 136 Q128 145 140 135" stroke="#1b1638" stroke-width="5" fill="none" stroke-linecap="round"/><path d="M65 143 C23 128 44 82 70 100" fill="#4a4b68" opacity=".35"/><path d="M191 143 C233 128 212 82 186 100" fill="#4a4b68" opacity=".35"/><path d="M128 73 L139 87 L128 102 L117 87 Z" fill="#9ba0bb" opacity=".92"/>
  </g>
  <path d="M42 198 C82 222 171 226 216 184" stroke="#fff" stroke-width="11" stroke-linecap="round" opacity=".22"/>
</svg>