<svg xmlns="http://www.w3.org/2000/svg" viewBox="0 0 256 256" role="img" aria-label="飘飘魂 original avatar">
  
  <defs>
    <linearGradient id="bga54" x1="0" y1="0" x2="1" y2="1">
      <stop offset="0" stop-color="#d5c6ff"/>
      <stop offset=".55" stop-color="#7367b8"/>
      <stop offset="1" stop-color="#2d2357"/>
    </linearGradient>
    <radialGradient id="body" cx=".36" cy=".25" r=".76">
      <stop offset="0" stop-color="#d5c6ff"/>
      <stop offset=".6" stop-color="#7367b8"/>
      <stop offset="1" stop-color="#2d2357"/>
    </radialGradient>
    <radialGradient id="head" cx=".36" cy=".26" r=".72">
      <stop offset="0" stop-color="#ffffff" stop-opacity=".85"/>
      <stop offset=".2" stop-color="#d5c6ff"/>
      <stop offset=".72" stop-color="#7367b8"/>
      <stop offset="1" stop-color="#2d2357"/>
    </radialGradient>
    <filter id="softShadow" x="-30%" y="-30%" width="160%" height="160%">
      <feDropShadow dx="0" dy="8" stdDeviation="8" flood-color="#2d2357" flood-opacity=".35"/>
    </filter>
  </defs>
  <rect width="256" height="256" rx="64" fill="url(#bga54)"/>
  <circle cx="128" cy="128" r="108" fill="#fff" opacity=".12"/>
  <circle cx="128" cy="128" r="99" fill="#ffffff" opacity=".18"/>
  <g opacity=".35"><circle cx="160" cy="140" r="1.5" fill="#fff" opacity="0.59"/><circle cx="248" cy="249" r="1.1" fill="#fff" opacity="0.50"/><circle cx="125" cy="204" r="1.9" fill="#fff" opacity="0.38"/><circle cx="16" cy="122" r="1.5" fill="#fff" opacity="0.56"/><circle cx="26" cy="124" r="2.0" fill="#fff" opacity="0.34"/><circle cx="198" cy="169" r="2.9" fill="#fff" opacity="0.64"/><circle cx="206" cy="57" r="2.1" fill="#fff" opacity="0.37"/><circle cx="100" cy="20" r="2.2" fill="#fff" opacity="0.41"/><circle cx="28" cy="184" r="2.3" fill="#fff" opacity="0.50"/><circle cx="165" cy="206" r="3.2" fill="#fff" opacity="0.36"/></g>
  <g transform="rotate(0 128 128)">
    <path d="M76 196 C52 132 85 60 132 59 C188 57 208 129 175 196 C158 179 144 207 128 188 C111 207 95 179 76 196Z" fill="url(#body)" filter="url(#softShadow)"/><circle cx="110" cy="107" r="8" fill="#1b1638"/><circle cx="146" cy="107" r="8" fill="#1b1638"/><path d="M120 136 Q128 145 140 135" stroke="#1b1638" stroke-width="5" fill="none" stroke-linecap="round"/><path d="M65 143 C23 128 44 82 70 100" fill="#7367b8" opacity=".35"/><path d="M191 143 C233 128 212 82 186 100" fill="#7367b8" opacity=".35"/><path d="M128 73 L139 87 L128 102 L117 87 Z" fill="#d5c6ff" opacity=".92"/>
  </g>
  <path d="M42 198 C82 222 171 226 216 184" stroke="#fff" stroke-width="11" stroke-linecap="round" opacity=".22"/>
</svg>