<svg xmlns="http://www.w3.org/2000/svg" viewBox="0 0 256 256" role="img" aria-label="珊瑚精灵 original avatar">
  
  <defs>
    <linearGradient id="bga549" x1="0" y1="0" x2="1" y2="1">
      <stop offset="0" stop-color="#9ee8ff"/>
      <stop offset=".55" stop-color="#2397d5"/>
      <stop offset="1" stop-color="#0b4f8f"/>
    </linearGradient>
    <radialGradient id="body" cx=".36" cy=".25" r=".76">
      <stop offset="0" stop-color="#9ee8ff"/>
      <stop offset=".6" stop-color="#2397d5"/>
      <stop offset="1" stop-color="#0b4f8f"/>
    </radialGradient>
    <radialGradient id="head" cx=".36" cy=".26" r=".72">
      <stop offset="0" stop-color="#ffffff" stop-opacity=".85"/>
      <stop offset=".2" stop-color="#9ee8ff"/>
      <stop offset=".72" stop-color="#2397d5"/>
      <stop offset="1" stop-color="#0b4f8f"/>
    </radialGradient>
    <filter id="softShadow" x="-30%" y="-30%" width="160%" height="160%">
      <feDropShadow dx="0" dy="8" stdDeviation="8" flood-color="#0b4f8f" flood-opacity=".35"/>
    </filter>
  </defs>
  <rect width="256" height="256" rx="64" fill="url(#bga549)"/>
  <circle cx="128" cy="128" r="111" fill="#fff" opacity=".12"/>
  <circle cx="128" cy="128" r="102" fill="#ffffff" opacity=".18"/>
  <g opacity=".35"><circle cx="18" cy="213" r="1.4" fill="#fff" opacity="0.34"/><circle cx="43" cy="126" r="1.6" fill="#fff" opacity="0.57"/><circle cx="87" cy="240" r="1.6" fill="#fff" opacity="0.36"/><circle cx="131" cy="97" r="3.1" fill="#fff" opacity="0.66"/><circle cx="106" cy="37" r="2.8" fill="#fff" opacity="0.25"/><circle cx="208" cy="220" r="1.7" fill="#fff" opacity="0.43"/><circle cx="82" cy="243" r="2.5" fill="#fff" opacity="0.65"/><circle cx="99" cy="164" r="2.6" fill="#fff" opacity="0.26"/><circle cx="40" cy="206" r="0.8" fill="#fff" opacity="0.34"/><circle cx="140" cy="202" r="2.4" fill="#fff" opacity="0.67"/></g>
  <g transform="rotate(2 128 128)">
    <path d="M76 196 C52 132 85 60 132 59 C188 57 208 129 175 196 C158 179 144 207 128 188 C111 207 95 179 76 196Z" fill="url(#body)" filter="url(#softShadow)"/><circle cx="110" cy="107" r="8" fill="#1b1638"/><circle cx="146" cy="107" r="8" fill="#1b1638"/><path d="M120 136 Q128 145 140 135" stroke="#1b1638" stroke-width="5" fill="none" stroke-linecap="round"/><path d="M65 143 C23 128 44 82 70 100" fill="#2397d5" opacity=".35"/><path d="M191 143 C233 128 212 82 186 100" fill="#2397d5" opacity=".35"/><circle cx="128" cy="86" r="7" fill="#9ee8ff" opacity=".9"/>
  </g>
  <path d="M42 198 C82 222 171 226 216 184" stroke="#fff" stroke-width="11" stroke-linecap="round" opacity=".22"/>
</svg>