<svg xmlns="http://www.w3.org/2000/svg" viewBox="0 0 256 256" role="img" aria-label="莲叶蛙 original avatar">
  
  <defs>
    <linearGradient id="bga558" x1="0" y1="0" x2="1" y2="1">
      <stop offset="0" stop-color="#c7f7a4"/>
      <stop offset=".55" stop-color="#43b957"/>
      <stop offset="1" stop-color="#1f6f43"/>
    </linearGradient>
    <radialGradient id="body" cx=".36" cy=".25" r=".76">
      <stop offset="0" stop-color="#c7f7a4"/>
      <stop offset=".6" stop-color="#43b957"/>
      <stop offset="1" stop-color="#1f6f43"/>
    </radialGradient>
    <radialGradient id="head" cx=".36" cy=".26" r=".72">
      <stop offset="0" stop-color="#ffffff" stop-opacity=".85"/>
      <stop offset=".2" stop-color="#c7f7a4"/>
      <stop offset=".72" stop-color="#43b957"/>
      <stop offset="1" stop-color="#1f6f43"/>
    </radialGradient>
    <filter id="softShadow" x="-30%" y="-30%" width="160%" height="160%">
      <feDropShadow dx="0" dy="8" stdDeviation="8" flood-color="#1f6f43" flood-opacity=".35"/>
    </filter>
  </defs>
  <rect width="256" height="256" rx="64" fill="url(#bga558)"/>
  <circle cx="128" cy="128" r="107" fill="#fff" opacity=".12"/>
  <circle cx="128" cy="128" r="98" fill="#ffffff" opacity=".18"/>
  <g opacity=".35"><circle cx="212" cy="180" r="1.8" fill="#fff" opacity="0.58"/><circle cx="147" cy="93" r="1.1" fill="#fff" opacity="0.38"/><circle cx="138" cy="138" r="1.5" fill="#fff" opacity="0.62"/><circle cx="139" cy="37" r="2.9" fill="#fff" opacity="0.63"/><circle cx="81" cy="143" r="2.5" fill="#fff" opacity="0.52"/><circle cx="115" cy="110" r="3.1" fill="#fff" opacity="0.26"/><circle cx="132" cy="240" r="1.6" fill="#fff" opacity="0.49"/><circle cx="106" cy="123" r="2.1" fill="#fff" opacity="0.28"/><circle cx="165" cy="106" r="1.3" fill="#fff" opacity="0.34"/><circle cx="189" cy="164" r="2.8" fill="#fff" opacity="0.54"/></g>
  <g transform="rotate(4 128 128)">
    <path d="M57 143 L23 101 L25 185 Z" fill="#43b957" opacity=".86"/><ellipse cx="124" cy="141" rx="68" ry="43" fill="url(#body)" filter="url(#softShadow)"/><path d="M122 102 C144 50 178 68 170 112" fill="#43b957" opacity=".72"/><path d="M150 171 C168 207 204 185 180 159" fill="#c7f7a4" opacity=".8"/><circle cx="164" cy="126" r="7" fill="#101828"/><circle cx="167" cy="123" r="2.3" fill="#fff"/><path d="M128 73 L139 87 L128 102 L117 87 Z" fill="#c7f7a4" opacity=".92"/>
  </g>
  <path d="M42 198 C82 222 171 226 216 184" stroke="#fff" stroke-width="11" stroke-linecap="round" opacity=".22"/>
</svg>