<svg xmlns="http://www.w3.org/2000/svg" viewBox="0 0 256 256" role="img" aria-label="电火花 original avatar">
  
  <defs>
    <linearGradient id="bga559" x1="0" y1="0" x2="1" y2="1">
      <stop offset="0" stop-color="#fff27a"/>
      <stop offset=".55" stop-color="#f9c80e"/>
      <stop offset="1" stop-color="#7a5200"/>
    </linearGradient>
    <radialGradient id="body" cx=".36" cy=".25" r=".76">
      <stop offset="0" stop-color="#fff27a"/>
      <stop offset=".6" stop-color="#f9c80e"/>
      <stop offset="1" stop-color="#7a5200"/>
    </radialGradient>
    <radialGradient id="head" cx=".36" cy=".26" r=".72">
      <stop offset="0" stop-color="#ffffff" stop-opacity=".85"/>
      <stop offset=".2" stop-color="#fff27a"/>
      <stop offset=".72" stop-color="#f9c80e"/>
      <stop offset="1" stop-color="#7a5200"/>
    </radialGradient>
    <filter id="softShadow" x="-30%" y="-30%" width="160%" height="160%">
      <feDropShadow dx="0" dy="8" stdDeviation="8" flood-color="#7a5200" flood-opacity=".35"/>
    </filter>
  </defs>
  <rect width="256" height="256" rx="64" fill="url(#bga559)"/>
  <circle cx="128" cy="128" r="108" fill="#fff" opacity=".12"/>
  <circle cx="128" cy="128" r="99" fill="#ffffff" opacity=".18"/>
  <g opacity=".35"><circle cx="45" cy="78" r="1.4" fill="#fff" opacity="0.63"/><circle cx="191" cy="200" r="3.2" fill="#fff" opacity="0.30"/><circle cx="189" cy="104" r="2.6" fill="#fff" opacity="0.52"/><circle cx="88" cy="93" r="1.0" fill="#fff" opacity="0.31"/><circle cx="37" cy="152" r="2.2" fill="#fff" opacity="0.27"/><circle cx="240" cy="187" r="2.6" fill="#fff" opacity="0.65"/><circle cx="206" cy="145" r="1.7" fill="#fff" opacity="0.27"/><circle cx="189" cy="214" r="1.1" fill="#fff" opacity="0.33"/><circle cx="27" cy="191" r="1.3" fill="#fff" opacity="0.65"/><circle cx="205" cy="154" r="1.2" fill="#fff" opacity="0.66"/></g>
  <g transform="rotate(4 128 128)">
    <path d="M116 179 C66 167 44 113 100 118" fill="#f9c80e" opacity=".82"/><path d="M140 179 C190 167 212 113 156 118" fill="#f9c80e" opacity=".82"/><ellipse cx="128" cy="149" rx="48" ry="57" fill="url(#body)" filter="url(#softShadow)"/><path d="M128 51 C86 69 82 110 128 106 C174 110 170 69 128 51Z" fill="#fff27a"/><circle cx="128" cy="107" r="38" fill="url(#head)"/><ellipse cx="112" cy="107" rx="7" ry="8" fill="#14213d"/><ellipse cx="144" cy="107" rx="7" ry="8" fill="#14213d"/><circle cx="115" cy="103" r="2.3" fill="#fff"/><circle cx="147" cy="103" r="2.3" fill="#fff"/><path d="M128 73 L139 87 L128 102 L117 87 Z" fill="#fff27a" opacity=".92"/>
  </g>
  <path d="M42 198 C82 222 171 226 216 184" stroke="#fff" stroke-width="11" stroke-linecap="round" opacity=".22"/>
</svg>