<svg xmlns="http://www.w3.org/2000/svg" viewBox="0 0 256 256" role="img" aria-label="电磁章鱼 original avatar">
  
  <defs>
    <linearGradient id="bga561" x1="0" y1="0" x2="1" y2="1">
      <stop offset="0" stop-color="#fff27a"/>
      <stop offset=".55" stop-color="#f9c80e"/>
      <stop offset="1" stop-color="#7a5200"/>
    </linearGradient>
    <radialGradient id="body" cx=".36" cy=".25" r=".76">
      <stop offset="0" stop-color="#fff27a"/>
      <stop offset=".6" stop-color="#f9c80e"/>
      <stop offset="1" stop-color="#7a5200"/>
    </radialGradient>
    <radialGradient id="head" cx=".36" cy=".26" r=".72">
      <stop offset="0" stop-color="#ffffff" stop-opacity=".85"/>
      <stop offset=".2" stop-color="#fff27a"/>
      <stop offset=".72" stop-color="#f9c80e"/>
      <stop offset="1" stop-color="#7a5200"/>
    </radialGradient>
    <filter id="softShadow" x="-30%" y="-30%" width="160%" height="160%">
      <feDropShadow dx="0" dy="8" stdDeviation="8" flood-color="#7a5200" flood-opacity=".35"/>
    </filter>
  </defs>
  <rect width="256" height="256" rx="64" fill="url(#bga561)"/>
  <circle cx="128" cy="128" r="112" fill="#fff" opacity=".12"/>
  <circle cx="128" cy="128" r="103" fill="#ffffff" opacity=".18"/>
  <g opacity=".35"><circle cx="28" cy="168" r="2.8" fill="#fff" opacity="0.38"/><circle cx="9" cy="253" r="2.7" fill="#fff" opacity="0.47"/><circle cx="10" cy="181" r="1.5" fill="#fff" opacity="0.46"/><circle cx="111" cy="141" r="1.8" fill="#fff" opacity="0.52"/><circle cx="113" cy="172" r="1.8" fill="#fff" opacity="0.58"/><circle cx="35" cy="218" r="2.0" fill="#fff" opacity="0.55"/><circle cx="94" cy="8" r="3.0" fill="#fff" opacity="0.45"/><circle cx="199" cy="110" r="2.5" fill="#fff" opacity="0.51"/><circle cx="75" cy="229" r="1.3" fill="#fff" opacity="0.44"/><circle cx="35" cy="245" r="3.1" fill="#fff" opacity="0.49"/></g>
  <g transform="rotate(-4 128 128)">
    <path d="M57 143 L23 101 L25 185 Z" fill="#f9c80e" opacity=".86"/><ellipse cx="124" cy="141" rx="68" ry="43" fill="url(#body)" filter="url(#softShadow)"/><path d="M122 102 C144 50 178 68 170 112" fill="#f9c80e" opacity=".72"/><path d="M150 171 C168 207 204 185 180 159" fill="#fff27a" opacity=".8"/><circle cx="164" cy="126" r="7" fill="#101828"/><circle cx="167" cy="123" r="2.3" fill="#fff"/><circle cx="128" cy="86" r="7" fill="#fff27a" opacity=".9"/>
  </g>
  <path d="M42 198 C82 222 171 226 216 184" stroke="#fff" stroke-width="11" stroke-linecap="round" opacity=".22"/>
</svg>