<svg xmlns="http://www.w3.org/2000/svg" viewBox="0 0 256 256" role="img" aria-label="电浆兽 original avatar">
  
  <defs>
    <linearGradient id="bga563" x1="0" y1="0" x2="1" y2="1">
      <stop offset="0" stop-color="#fff27a"/>
      <stop offset=".55" stop-color="#f9c80e"/>
      <stop offset="1" stop-color="#7a5200"/>
    </linearGradient>
    <radialGradient id="body" cx=".36" cy=".25" r=".76">
      <stop offset="0" stop-color="#fff27a"/>
      <stop offset=".6" stop-color="#f9c80e"/>
      <stop offset="1" stop-color="#7a5200"/>
    </radialGradient>
    <radialGradient id="head" cx=".36" cy=".26" r=".72">
      <stop offset="0" stop-color="#ffffff" stop-opacity=".85"/>
      <stop offset=".2" stop-color="#fff27a"/>
      <stop offset=".72" stop-color="#f9c80e"/>
      <stop offset="1" stop-color="#7a5200"/>
    </radialGradient>
    <filter id="softShadow" x="-30%" y="-30%" width="160%" height="160%">
      <feDropShadow dx="0" dy="8" stdDeviation="8" flood-color="#7a5200" flood-opacity=".35"/>
    </filter>
  </defs>
  <rect width="256" height="256" rx="64" fill="url(#bga563)"/>
  <circle cx="128" cy="128" r="109" fill="#fff" opacity=".12"/>
  <circle cx="128" cy="128" r="100" fill="#ffffff" opacity=".18"/>
  <g opacity=".35"><circle cx="25" cy="248" r="2.0" fill="#fff" opacity="0.43"/><circle cx="189" cy="55" r="2.3" fill="#fff" opacity="0.37"/><circle cx="245" cy="84" r="3.0" fill="#fff" opacity="0.67"/><circle cx="41" cy="158" r="0.9" fill="#fff" opacity="0.47"/><circle cx="89" cy="178" r="1.8" fill="#fff" opacity="0.41"/><circle cx="64" cy="161" r="1.6" fill="#fff" opacity="0.41"/><circle cx="41" cy="210" r="2.4" fill="#fff" opacity="0.25"/><circle cx="125" cy="118" r="1.8" fill="#fff" opacity="0.45"/><circle cx="9" cy="205" r="1.6" fill="#fff" opacity="0.36"/><circle cx="241" cy="223" r="1.9" fill="#fff" opacity="0.63"/></g>
  <g transform="rotate(3 128 128)">
    <path d="M175 153 C219 141 208 92 172 112" stroke="#f9c80e" stroke-width="14" fill="none" stroke-linecap="round" opacity=".76"/><ellipse cx="128" cy="156" rx="53" ry="50" fill="url(#body)" filter="url(#softShadow)"/><path d="M93 87 L70 40 L116 69 Z" fill="#f9c80e"/><path d="M163 87 L186 40 L140 69 Z" fill="#f9c80e"/><circle cx="128" cy="98" r="45" fill="url(#head)"/><ellipse cx="111" cy="106" rx="8" ry="10" fill="#182033"/><ellipse cx="145" cy="106" rx="8" ry="10" fill="#182033"/><ellipse cx="112" cy="107" rx="7" ry="8" fill="#14213d"/><ellipse cx="144" cy="107" rx="7" ry="8" fill="#14213d"/><circle cx="115" cy="103" r="2.3" fill="#fff"/><circle cx="147" cy="103" r="2.3" fill="#fff"/><path d="M128 73 L139 87 L128 102 L117 87 Z" fill="#fff27a" opacity=".92"/>
  </g>
  <path d="M42 198 C82 222 171 226 216 184" stroke="#fff" stroke-width="11" stroke-linecap="round" opacity=".22"/>
</svg>