<svg xmlns="http://www.w3.org/2000/svg" viewBox="0 0 256 256" role="img" aria-label="雪花精灵 original avatar">
  
  <defs>
    <linearGradient id="bga566" x1="0" y1="0" x2="1" y2="1">
      <stop offset="0" stop-color="#d7fbff"/>
      <stop offset=".55" stop-color="#71d6e8"/>
      <stop offset="1" stop-color="#318aa3"/>
    </linearGradient>
    <radialGradient id="body" cx=".36" cy=".25" r=".76">
      <stop offset="0" stop-color="#d7fbff"/>
      <stop offset=".6" stop-color="#71d6e8"/>
      <stop offset="1" stop-color="#318aa3"/>
    </radialGradient>
    <radialGradient id="head" cx=".36" cy=".26" r=".72">
      <stop offset="0" stop-color="#ffffff" stop-opacity=".85"/>
      <stop offset=".2" stop-color="#d7fbff"/>
      <stop offset=".72" stop-color="#71d6e8"/>
      <stop offset="1" stop-color="#318aa3"/>
    </radialGradient>
    <filter id="softShadow" x="-30%" y="-30%" width="160%" height="160%">
      <feDropShadow dx="0" dy="8" stdDeviation="8" flood-color="#318aa3" flood-opacity=".35"/>
    </filter>
  </defs>
  <rect width="256" height="256" rx="64" fill="url(#bga566)"/>
  <circle cx="128" cy="128" r="107" fill="#fff" opacity=".12"/>
  <circle cx="128" cy="128" r="98" fill="#ffffff" opacity=".18"/>
  <g opacity=".35"><circle cx="69" cy="140" r="2.0" fill="#fff" opacity="0.52"/><circle cx="135" cy="92" r="1.6" fill="#fff" opacity="0.55"/><circle cx="218" cy="104" r="1.3" fill="#fff" opacity="0.67"/><circle cx="93" cy="195" r="1.2" fill="#fff" opacity="0.32"/><circle cx="58" cy="46" r="1.3" fill="#fff" opacity="0.50"/><circle cx="216" cy="70" r="1.5" fill="#fff" opacity="0.70"/><circle cx="122" cy="53" r="1.9" fill="#fff" opacity="0.66"/><circle cx="195" cy="237" r="2.1" fill="#fff" opacity="0.29"/><circle cx="65" cy="248" r="1.6" fill="#fff" opacity="0.49"/><circle cx="40" cy="186" r="1.8" fill="#fff" opacity="0.67"/></g>
  <g transform="rotate(-1 128 128)">
    <path d="M116 179 C66 167 44 113 100 118" fill="#71d6e8" opacity=".82"/><path d="M140 179 C190 167 212 113 156 118" fill="#71d6e8" opacity=".82"/><ellipse cx="128" cy="149" rx="48" ry="57" fill="url(#body)" filter="url(#softShadow)"/><path d="M128 51 C86 69 82 110 128 106 C174 110 170 69 128 51Z" fill="#d7fbff"/><circle cx="128" cy="107" r="38" fill="url(#head)"/><ellipse cx="112" cy="107" rx="7" ry="8" fill="#14213d"/><ellipse cx="144" cy="107" rx="7" ry="8" fill="#14213d"/><circle cx="115" cy="103" r="2.3" fill="#fff"/><circle cx="147" cy="103" r="2.3" fill="#fff"/><path d="M128 73 L139 87 L128 102 L117 87 Z" fill="#d7fbff" opacity=".92"/>
  </g>
  <path d="M42 198 C82 222 171 226 216 184" stroke="#fff" stroke-width="11" stroke-linecap="round" opacity=".22"/>
</svg>