<svg xmlns="http://www.w3.org/2000/svg" viewBox="0 0 256 256" role="img" aria-label="毒菇 original avatar">
  
  <defs>
    <linearGradient id="bga574" x1="0" y1="0" x2="1" y2="1">
      <stop offset="0" stop-color="#efb2ff"/>
      <stop offset=".55" stop-color="#9b5de5"/>
      <stop offset="1" stop-color="#4f2378"/>
    </linearGradient>
    <radialGradient id="body" cx=".36" cy=".25" r=".76">
      <stop offset="0" stop-color="#efb2ff"/>
      <stop offset=".6" stop-color="#9b5de5"/>
      <stop offset="1" stop-color="#4f2378"/>
    </radialGradient>
    <radialGradient id="head" cx=".36" cy=".26" r=".72">
      <stop offset="0" stop-color="#ffffff" stop-opacity=".85"/>
      <stop offset=".2" stop-color="#efb2ff"/>
      <stop offset=".72" stop-color="#9b5de5"/>
      <stop offset="1" stop-color="#4f2378"/>
    </radialGradient>
    <filter id="softShadow" x="-30%" y="-30%" width="160%" height="160%">
      <feDropShadow dx="0" dy="8" stdDeviation="8" flood-color="#4f2378" flood-opacity=".35"/>
    </filter>
  </defs>
  <rect width="256" height="256" rx="64" fill="url(#bga574)"/>
  <circle cx="128" cy="128" r="110" fill="#fff" opacity=".12"/>
  <circle cx="128" cy="128" r="101" fill="#ffffff" opacity=".18"/>
  <g opacity=".35"><circle cx="36" cy="1" r="2.6" fill="#fff" opacity="0.66"/><circle cx="94" cy="2" r="2.2" fill="#fff" opacity="0.32"/><circle cx="67" cy="53" r="1.4" fill="#fff" opacity="0.48"/><circle cx="238" cy="206" r="1.4" fill="#fff" opacity="0.59"/><circle cx="200" cy="33" r="1.3" fill="#fff" opacity="0.52"/><circle cx="7" cy="46" r="2.5" fill="#fff" opacity="0.35"/><circle cx="175" cy="228" r="0.8" fill="#fff" opacity="0.68"/><circle cx="239" cy="106" r="1.5" fill="#fff" opacity="0.37"/><circle cx="32" cy="220" r="1.4" fill="#fff" opacity="0.42"/><circle cx="133" cy="1" r="2.8" fill="#fff" opacity="0.25"/></g>
  <g transform="rotate(-4 128 128)">
    <path d="M116 179 C66 167 44 113 100 118" fill="#9b5de5" opacity=".82"/><path d="M140 179 C190 167 212 113 156 118" fill="#9b5de5" opacity=".82"/><ellipse cx="128" cy="149" rx="48" ry="57" fill="url(#body)" filter="url(#softShadow)"/><path d="M128 51 C86 69 82 110 128 106 C174 110 170 69 128 51Z" fill="#efb2ff"/><circle cx="128" cy="107" r="38" fill="url(#head)"/><ellipse cx="112" cy="107" rx="7" ry="8" fill="#14213d"/><ellipse cx="144" cy="107" rx="7" ry="8" fill="#14213d"/><circle cx="115" cy="103" r="2.3" fill="#fff"/><circle cx="147" cy="103" r="2.3" fill="#fff"/><path d="M108 82 Q128 93 148 82" stroke="#efb2ff" stroke-width="5" fill="none" stroke-linecap="round" opacity=".8"/>
  </g>
  <path d="M42 198 C82 222 171 226 216 184" stroke="#fff" stroke-width="11" stroke-linecap="round" opacity=".22"/>
</svg>