<svg xmlns="http://www.w3.org/2000/svg" viewBox="0 0 256 256" role="img" aria-label="瘴气菇王 original avatar">
  
  <defs>
    <linearGradient id="bga575" x1="0" y1="0" x2="1" y2="1">
      <stop offset="0" stop-color="#efb2ff"/>
      <stop offset=".55" stop-color="#9b5de5"/>
      <stop offset="1" stop-color="#4f2378"/>
    </linearGradient>
    <radialGradient id="body" cx=".36" cy=".25" r=".76">
      <stop offset="0" stop-color="#efb2ff"/>
      <stop offset=".6" stop-color="#9b5de5"/>
      <stop offset="1" stop-color="#4f2378"/>
    </radialGradient>
    <radialGradient id="head" cx=".36" cy=".26" r=".72">
      <stop offset="0" stop-color="#ffffff" stop-opacity=".85"/>
      <stop offset=".2" stop-color="#efb2ff"/>
      <stop offset=".72" stop-color="#9b5de5"/>
      <stop offset="1" stop-color="#4f2378"/>
    </radialGradient>
    <filter id="softShadow" x="-30%" y="-30%" width="160%" height="160%">
      <feDropShadow dx="0" dy="8" stdDeviation="8" flood-color="#4f2378" flood-opacity=".35"/>
    </filter>
  </defs>
  <rect width="256" height="256" rx="64" fill="url(#bga575)"/>
  <circle cx="128" cy="128" r="109" fill="#fff" opacity=".12"/>
  <circle cx="128" cy="128" r="100" fill="#ffffff" opacity=".18"/>
  <g opacity=".35"><circle cx="90" cy="256" r="1.5" fill="#fff" opacity="0.36"/><circle cx="29" cy="79" r="2.2" fill="#fff" opacity="0.53"/><circle cx="30" cy="252" r="2.7" fill="#fff" opacity="0.62"/><circle cx="95" cy="186" r="2.1" fill="#fff" opacity="0.31"/><circle cx="39" cy="226" r="2.5" fill="#fff" opacity="0.53"/><circle cx="154" cy="225" r="1.6" fill="#fff" opacity="0.65"/><circle cx="145" cy="250" r="1.9" fill="#fff" opacity="0.56"/><circle cx="29" cy="93" r="2.7" fill="#fff" opacity="0.31"/><circle cx="5" cy="62" r="2.1" fill="#fff" opacity="0.65"/><circle cx="133" cy="62" r="1.2" fill="#fff" opacity="0.58"/></g>
  <g transform="rotate(3 128 128)">
    <path d="M116 179 C66 167 44 113 100 118" fill="#9b5de5" opacity=".82"/><path d="M140 179 C190 167 212 113 156 118" fill="#9b5de5" opacity=".82"/><ellipse cx="128" cy="149" rx="48" ry="57" fill="url(#body)" filter="url(#softShadow)"/><path d="M128 51 C86 69 82 110 128 106 C174 110 170 69 128 51Z" fill="#efb2ff"/><circle cx="128" cy="107" r="38" fill="url(#head)"/><ellipse cx="112" cy="107" rx="7" ry="8" fill="#14213d"/><ellipse cx="144" cy="107" rx="7" ry="8" fill="#14213d"/><circle cx="115" cy="103" r="2.3" fill="#fff"/><circle cx="147" cy="103" r="2.3" fill="#fff"/><circle cx="128" cy="86" r="7" fill="#efb2ff" opacity=".9"/>
  </g>
  <path d="M42 198 C82 222 171 226 216 184" stroke="#fff" stroke-width="11" stroke-linecap="round" opacity=".22"/>
</svg>