<svg xmlns="http://www.w3.org/2000/svg" viewBox="0 0 256 256" role="img" aria-label="毒刺海胆 original avatar">
  
  <defs>
    <linearGradient id="bga577" x1="0" y1="0" x2="1" y2="1">
      <stop offset="0" stop-color="#efb2ff"/>
      <stop offset=".55" stop-color="#9b5de5"/>
      <stop offset="1" stop-color="#4f2378"/>
    </linearGradient>
    <radialGradient id="body" cx=".36" cy=".25" r=".76">
      <stop offset="0" stop-color="#efb2ff"/>
      <stop offset=".6" stop-color="#9b5de5"/>
      <stop offset="1" stop-color="#4f2378"/>
    </radialGradient>
    <radialGradient id="head" cx=".36" cy=".26" r=".72">
      <stop offset="0" stop-color="#ffffff" stop-opacity=".85"/>
      <stop offset=".2" stop-color="#efb2ff"/>
      <stop offset=".72" stop-color="#9b5de5"/>
      <stop offset="1" stop-color="#4f2378"/>
    </radialGradient>
    <filter id="softShadow" x="-30%" y="-30%" width="160%" height="160%">
      <feDropShadow dx="0" dy="8" stdDeviation="8" flood-color="#4f2378" flood-opacity=".35"/>
    </filter>
  </defs>
  <rect width="256" height="256" rx="64" fill="url(#bga577)"/>
  <circle cx="128" cy="128" r="108" fill="#fff" opacity=".12"/>
  <circle cx="128" cy="128" r="99" fill="#ffffff" opacity=".18"/>
  <g opacity=".35"><circle cx="224" cy="244" r="2.6" fill="#fff" opacity="0.34"/><circle cx="65" cy="203" r="1.7" fill="#fff" opacity="0.31"/><circle cx="174" cy="246" r="1.4" fill="#fff" opacity="0.55"/><circle cx="69" cy="155" r="1.7" fill="#fff" opacity="0.43"/><circle cx="242" cy="47" r="2.1" fill="#fff" opacity="0.50"/><circle cx="159" cy="182" r="1.4" fill="#fff" opacity="0.62"/><circle cx="97" cy="170" r="1.9" fill="#fff" opacity="0.29"/><circle cx="55" cy="62" r="1.7" fill="#fff" opacity="0.42"/><circle cx="51" cy="34" r="2.9" fill="#fff" opacity="0.66"/><circle cx="110" cy="8" r="1.1" fill="#fff" opacity="0.66"/></g>
  <g transform="rotate(-2 128 128)">
    <path d="M57 143 L23 101 L25 185 Z" fill="#9b5de5" opacity=".86"/><ellipse cx="124" cy="141" rx="68" ry="43" fill="url(#body)" filter="url(#softShadow)"/><path d="M122 102 C144 50 178 68 170 112" fill="#9b5de5" opacity=".72"/><path d="M150 171 C168 207 204 185 180 159" fill="#efb2ff" opacity=".8"/><circle cx="164" cy="126" r="7" fill="#101828"/><circle cx="167" cy="123" r="2.3" fill="#fff"/><circle cx="128" cy="86" r="7" fill="#efb2ff" opacity=".9"/>
  </g>
  <path d="M42 198 C82 222 171 226 216 184" stroke="#fff" stroke-width="11" stroke-linecap="round" opacity=".22"/>
</svg>