<svg xmlns="http://www.w3.org/2000/svg" viewBox="0 0 256 256" role="img" aria-label="大地鲶鱼 original avatar">
  
  <defs>
    <linearGradient id="bga581" x1="0" y1="0" x2="1" y2="1">
      <stop offset="0" stop-color="#e9c68f"/>
      <stop offset=".55" stop-color="#a0713d"/>
      <stop offset="1" stop-color="#5a3b22"/>
    </linearGradient>
    <radialGradient id="body" cx=".36" cy=".25" r=".76">
      <stop offset="0" stop-color="#e9c68f"/>
      <stop offset=".6" stop-color="#a0713d"/>
      <stop offset="1" stop-color="#5a3b22"/>
    </radialGradient>
    <radialGradient id="head" cx=".36" cy=".26" r=".72">
      <stop offset="0" stop-color="#ffffff" stop-opacity=".85"/>
      <stop offset=".2" stop-color="#e9c68f"/>
      <stop offset=".72" stop-color="#a0713d"/>
      <stop offset="1" stop-color="#5a3b22"/>
    </radialGradient>
    <filter id="softShadow" x="-30%" y="-30%" width="160%" height="160%">
      <feDropShadow dx="0" dy="8" stdDeviation="8" flood-color="#5a3b22" flood-opacity=".35"/>
    </filter>
  </defs>
  <rect width="256" height="256" rx="64" fill="url(#bga581)"/>
  <circle cx="128" cy="128" r="112" fill="#fff" opacity=".12"/>
  <circle cx="128" cy="128" r="103" fill="#ffffff" opacity=".18"/>
  <g opacity=".35"><circle cx="189" cy="199" r="0.8" fill="#fff" opacity="0.58"/><circle cx="23" cy="238" r="2.3" fill="#fff" opacity="0.65"/><circle cx="209" cy="153" r="2.6" fill="#fff" opacity="0.39"/><circle cx="210" cy="200" r="0.9" fill="#fff" opacity="0.35"/><circle cx="151" cy="243" r="2.0" fill="#fff" opacity="0.37"/><circle cx="251" cy="15" r="2.0" fill="#fff" opacity="0.39"/><circle cx="80" cy="73" r="2.8" fill="#fff" opacity="0.69"/><circle cx="173" cy="191" r="3.0" fill="#fff" opacity="0.56"/><circle cx="3" cy="143" r="1.5" fill="#fff" opacity="0.55"/><circle cx="46" cy="57" r="1.1" fill="#fff" opacity="0.61"/></g>
  <g transform="rotate(4 128 128)">
    <path d="M57 143 L23 101 L25 185 Z" fill="#a0713d" opacity=".86"/><ellipse cx="124" cy="141" rx="68" ry="43" fill="url(#body)" filter="url(#softShadow)"/><path d="M122 102 C144 50 178 68 170 112" fill="#a0713d" opacity=".72"/><path d="M150 171 C168 207 204 185 180 159" fill="#e9c68f" opacity=".8"/><circle cx="164" cy="126" r="7" fill="#101828"/><circle cx="167" cy="123" r="2.3" fill="#fff"/><path d="M128 73 L139 87 L128 102 L117 87 Z" fill="#e9c68f" opacity=".92"/>
  </g>
  <path d="M42 198 C82 222 171 226 216 184" stroke="#fff" stroke-width="11" stroke-linecap="round" opacity=".22"/>
</svg>