<svg xmlns="http://www.w3.org/2000/svg" viewBox="0 0 256 256" role="img" aria-label="钻石独角仙 original avatar">
  
  <defs>
    <linearGradient id="bga589" x1="0" y1="0" x2="1" y2="1">
      <stop offset="0" stop-color="#d9f67f"/>
      <stop offset=".55" stop-color="#86bd2d"/>
      <stop offset="1" stop-color="#3f6c1b"/>
    </linearGradient>
    <radialGradient id="body" cx=".36" cy=".25" r=".76">
      <stop offset="0" stop-color="#d9f67f"/>
      <stop offset=".6" stop-color="#86bd2d"/>
      <stop offset="1" stop-color="#3f6c1b"/>
    </radialGradient>
    <radialGradient id="head" cx=".36" cy=".26" r=".72">
      <stop offset="0" stop-color="#ffffff" stop-opacity=".85"/>
      <stop offset=".2" stop-color="#d9f67f"/>
      <stop offset=".72" stop-color="#86bd2d"/>
      <stop offset="1" stop-color="#3f6c1b"/>
    </radialGradient>
    <filter id="softShadow" x="-30%" y="-30%" width="160%" height="160%">
      <feDropShadow dx="0" dy="8" stdDeviation="8" flood-color="#3f6c1b" flood-opacity=".35"/>
    </filter>
  </defs>
  <rect width="256" height="256" rx="64" fill="url(#bga589)"/>
  <circle cx="128" cy="128" r="108" fill="#fff" opacity=".12"/>
  <circle cx="128" cy="128" r="99" fill="#ffffff" opacity=".18"/>
  <g opacity=".35"><circle cx="246" cy="138" r="2.4" fill="#fff" opacity="0.39"/><circle cx="167" cy="8" r="1.4" fill="#fff" opacity="0.47"/><circle cx="108" cy="251" r="1.8" fill="#fff" opacity="0.66"/><circle cx="153" cy="54" r="2.0" fill="#fff" opacity="0.56"/><circle cx="245" cy="244" r="1.1" fill="#fff" opacity="0.61"/><circle cx="147" cy="201" r="2.8" fill="#fff" opacity="0.70"/><circle cx="14" cy="211" r="0.8" fill="#fff" opacity="0.37"/><circle cx="240" cy="13" r="2.2" fill="#fff" opacity="0.60"/><circle cx="14" cy="175" r="3.0" fill="#fff" opacity="0.44"/><circle cx="243" cy="162" r="1.2" fill="#fff" opacity="0.37"/></g>
  <g transform="rotate(5 128 128)">
    <path d="M76 95 L110 60 H155 L187 102 L172 176 H83 Z" fill="url(#body)" filter="url(#softShadow)"/><path d="M100 71 L123 28 L140 67 Z" fill="#d9f67f"/><path d="M145 73 L171 39 L170 86 Z" fill="#86bd2d"/><rect x="98" y="119" width="60" height="15" rx="7" fill="#3f6c1b" opacity=".38"/><circle cx="114" cy="126" r="5" fill="#d9f67f"/><circle cx="142" cy="126" r="5" fill="#d9f67f"/><circle cx="128" cy="86" r="7" fill="#d9f67f" opacity=".9"/>
  </g>
  <path d="M42 198 C82 222 171 226 216 184" stroke="#fff" stroke-width="11" stroke-linecap="round" opacity=".22"/>
</svg>