<svg xmlns="http://www.w3.org/2000/svg" viewBox="0 0 256 256" role="img" aria-label="机械天使 original avatar">
  
  <defs>
    <linearGradient id="bga600" x1="0" y1="0" x2="1" y2="1">
      <stop offset="0" stop-color="#e8edf2"/>
      <stop offset=".55" stop-color="#9aa8b7"/>
      <stop offset="1" stop-color="#536271"/>
    </linearGradient>
    <radialGradient id="body" cx=".36" cy=".25" r=".76">
      <stop offset="0" stop-color="#e8edf2"/>
      <stop offset=".6" stop-color="#9aa8b7"/>
      <stop offset="1" stop-color="#536271"/>
    </radialGradient>
    <radialGradient id="head" cx=".36" cy=".26" r=".72">
      <stop offset="0" stop-color="#ffffff" stop-opacity=".85"/>
      <stop offset=".2" stop-color="#e8edf2"/>
      <stop offset=".72" stop-color="#9aa8b7"/>
      <stop offset="1" stop-color="#536271"/>
    </radialGradient>
    <filter id="softShadow" x="-30%" y="-30%" width="160%" height="160%">
      <feDropShadow dx="0" dy="8" stdDeviation="8" flood-color="#536271" flood-opacity=".35"/>
    </filter>
  </defs>
  <rect width="256" height="256" rx="64" fill="url(#bga600)"/>
  <circle cx="128" cy="128" r="112" fill="#fff" opacity=".12"/>
  <circle cx="128" cy="128" r="103" fill="#ffffff" opacity=".18"/>
  <g opacity=".35"><circle cx="42" cy="42" r="1.9" fill="#fff" opacity="0.39"/><circle cx="172" cy="42" r="2.7" fill="#fff" opacity="0.48"/><circle cx="159" cy="133" r="2.6" fill="#fff" opacity="0.58"/><circle cx="53" cy="233" r="2.9" fill="#fff" opacity="0.60"/><circle cx="100" cy="247" r="2.4" fill="#fff" opacity="0.41"/><circle cx="17" cy="110" r="0.8" fill="#fff" opacity="0.46"/><circle cx="49" cy="241" r="1.7" fill="#fff" opacity="0.36"/><circle cx="125" cy="41" r="2.8" fill="#fff" opacity="0.54"/><circle cx="136" cy="213" r="2.1" fill="#fff" opacity="0.30"/><circle cx="163" cy="11" r="2.8" fill="#fff" opacity="0.30"/></g>
  <g transform="rotate(1 128 128)">
    <path d="M76 95 L110 60 H155 L187 102 L172 176 H83 Z" fill="url(#body)" filter="url(#softShadow)"/><path d="M100 71 L123 28 L140 67 Z" fill="#e8edf2"/><path d="M145 73 L171 39 L170 86 Z" fill="#9aa8b7"/><rect x="98" y="119" width="60" height="15" rx="7" fill="#536271" opacity=".38"/><circle cx="114" cy="126" r="5" fill="#e8edf2"/><circle cx="142" cy="126" r="5" fill="#e8edf2"/><path d="M108 82 Q128 93 148 82" stroke="#e8edf2" stroke-width="5" fill="none" stroke-linecap="round" opacity=".8"/>
  </g>
  <path d="M42 198 C82 222 171 226 216 184" stroke="#fff" stroke-width="11" stroke-linecap="round" opacity=".22"/>
</svg>