<svg xmlns="http://www.w3.org/2000/svg" viewBox="0 0 256 256" role="img" aria-label="冥渊魔王 original avatar">
  
  <defs>
    <linearGradient id="bga608" x1="0" y1="0" x2="1" y2="1">
      <stop offset="0" stop-color="#9ba0bb"/>
      <stop offset=".55" stop-color="#4a4b68"/>
      <stop offset="1" stop-color="#171728"/>
    </linearGradient>
    <radialGradient id="body" cx=".36" cy=".25" r=".76">
      <stop offset="0" stop-color="#9ba0bb"/>
      <stop offset=".6" stop-color="#4a4b68"/>
      <stop offset="1" stop-color="#171728"/>
    </radialGradient>
    <radialGradient id="head" cx=".36" cy=".26" r=".72">
      <stop offset="0" stop-color="#ffffff" stop-opacity=".85"/>
      <stop offset=".2" stop-color="#9ba0bb"/>
      <stop offset=".72" stop-color="#4a4b68"/>
      <stop offset="1" stop-color="#171728"/>
    </radialGradient>
    <filter id="softShadow" x="-30%" y="-30%" width="160%" height="160%">
      <feDropShadow dx="0" dy="8" stdDeviation="8" flood-color="#171728" flood-opacity=".35"/>
    </filter>
  </defs>
  <rect width="256" height="256" rx="64" fill="url(#bga608)"/>
  <circle cx="128" cy="128" r="108" fill="#fff" opacity=".12"/>
  <circle cx="128" cy="128" r="99" fill="#ffffff" opacity=".18"/>
  <g opacity=".35"><circle cx="16" cy="177" r="1.9" fill="#fff" opacity="0.28"/><circle cx="135" cy="243" r="2.3" fill="#fff" opacity="0.58"/><circle cx="24" cy="160" r="2.8" fill="#fff" opacity="0.63"/><circle cx="134" cy="149" r="2.2" fill="#fff" opacity="0.51"/><circle cx="130" cy="134" r="2.9" fill="#fff" opacity="0.52"/><circle cx="198" cy="162" r="0.9" fill="#fff" opacity="0.26"/><circle cx="12" cy="193" r="3.1" fill="#fff" opacity="0.65"/><circle cx="165" cy="161" r="1.1" fill="#fff" opacity="0.64"/><circle cx="57" cy="236" r="2.1" fill="#fff" opacity="0.58"/><circle cx="132" cy="129" r="2.5" fill="#fff" opacity="0.49"/></g>
  <g transform="rotate(-4 128 128)">
    <path d="M76 196 C52 132 85 60 132 59 C188 57 208 129 175 196 C158 179 144 207 128 188 C111 207 95 179 76 196Z" fill="url(#body)" filter="url(#softShadow)"/><circle cx="110" cy="107" r="8" fill="#1b1638"/><circle cx="146" cy="107" r="8" fill="#1b1638"/><path d="M120 136 Q128 145 140 135" stroke="#1b1638" stroke-width="5" fill="none" stroke-linecap="round"/><path d="M65 143 C23 128 44 82 70 100" fill="#4a4b68" opacity=".35"/><path d="M191 143 C233 128 212 82 186 100" fill="#4a4b68" opacity=".35"/><path d="M108 82 Q128 93 148 82" stroke="#9ba0bb" stroke-width="5" fill="none" stroke-linecap="round" opacity=".8"/>
  </g>
  <path d="M42 198 C82 222 171 226 216 184" stroke="#fff" stroke-width="11" stroke-linecap="round" opacity=".22"/>
</svg>