<svg xmlns="http://www.w3.org/2000/svg" viewBox="0 0 256 256" role="img" aria-label="拳棘仙人 original avatar">
  
  <defs>
    <linearGradient id="bga640" x1="0" y1="0" x2="1" y2="1">
      <stop offset="0" stop-color="#c7f7a4"/>
      <stop offset=".55" stop-color="#43b957"/>
      <stop offset="1" stop-color="#1f6f43"/>
    </linearGradient>
    <radialGradient id="body" cx=".36" cy=".25" r=".76">
      <stop offset="0" stop-color="#c7f7a4"/>
      <stop offset=".6" stop-color="#43b957"/>
      <stop offset="1" stop-color="#1f6f43"/>
    </radialGradient>
    <radialGradient id="head" cx=".36" cy=".26" r=".72">
      <stop offset="0" stop-color="#ffffff" stop-opacity=".85"/>
      <stop offset=".2" stop-color="#c7f7a4"/>
      <stop offset=".72" stop-color="#43b957"/>
      <stop offset="1" stop-color="#1f6f43"/>
    </radialGradient>
    <filter id="softShadow" x="-30%" y="-30%" width="160%" height="160%">
      <feDropShadow dx="0" dy="8" stdDeviation="8" flood-color="#1f6f43" flood-opacity=".35"/>
    </filter>
  </defs>
  <rect width="256" height="256" rx="64" fill="url(#bga640)"/>
  <circle cx="128" cy="128" r="112" fill="#fff" opacity=".12"/>
  <circle cx="128" cy="128" r="103" fill="#ffffff" opacity=".18"/>
  <g opacity=".35"><circle cx="45" cy="160" r="2.9" fill="#fff" opacity="0.64"/><circle cx="13" cy="118" r="2.5" fill="#fff" opacity="0.41"/><circle cx="74" cy="84" r="1.8" fill="#fff" opacity="0.29"/><circle cx="162" cy="244" r="1.7" fill="#fff" opacity="0.43"/><circle cx="253" cy="175" r="2.8" fill="#fff" opacity="0.27"/><circle cx="165" cy="12" r="1.3" fill="#fff" opacity="0.44"/><circle cx="173" cy="57" r="1.1" fill="#fff" opacity="0.58"/><circle cx="18" cy="107" r="0.8" fill="#fff" opacity="0.47"/><circle cx="70" cy="177" r="1.5" fill="#fff" opacity="0.32"/><circle cx="53" cy="208" r="1.2" fill="#fff" opacity="0.61"/></g>
  <g transform="rotate(2 128 128)">
    <ellipse cx="128" cy="159" rx="54" ry="49" fill="url(#body)" filter="url(#softShadow)"/><circle cx="128" cy="97" r="42" fill="url(#head)"/><path d="M76 141 C28 132 45 190 84 180" fill="#1f6f43"/><path d="M180 141 C228 132 211 190 172 180" fill="#1f6f43"/><path d="M101 56 H155 L165 79 Q128 93 91 79 Z" fill="#c7f7a4" opacity=".85"/><ellipse cx="112" cy="107" rx="7" ry="8" fill="#14213d"/><ellipse cx="144" cy="107" rx="7" ry="8" fill="#14213d"/><circle cx="115" cy="103" r="2.3" fill="#fff"/><circle cx="147" cy="103" r="2.3" fill="#fff"/><circle cx="128" cy="86" r="7" fill="#c7f7a4" opacity=".9"/>
  </g>
  <path d="M42 198 C82 222 171 226 216 184" stroke="#fff" stroke-width="11" stroke-linecap="round" opacity=".22"/>
</svg>