<svg xmlns="http://www.w3.org/2000/svg" viewBox="0 0 256 256" role="img" aria-label="荆棘女皇 original avatar">
  
  <defs>
    <linearGradient id="bga642" x1="0" y1="0" x2="1" y2="1">
      <stop offset="0" stop-color="#c7f7a4"/>
      <stop offset=".55" stop-color="#43b957"/>
      <stop offset="1" stop-color="#1f6f43"/>
    </linearGradient>
    <radialGradient id="body" cx=".36" cy=".25" r=".76">
      <stop offset="0" stop-color="#c7f7a4"/>
      <stop offset=".6" stop-color="#43b957"/>
      <stop offset="1" stop-color="#1f6f43"/>
    </radialGradient>
    <radialGradient id="head" cx=".36" cy=".26" r=".72">
      <stop offset="0" stop-color="#ffffff" stop-opacity=".85"/>
      <stop offset=".2" stop-color="#c7f7a4"/>
      <stop offset=".72" stop-color="#43b957"/>
      <stop offset="1" stop-color="#1f6f43"/>
    </radialGradient>
    <filter id="softShadow" x="-30%" y="-30%" width="160%" height="160%">
      <feDropShadow dx="0" dy="8" stdDeviation="8" flood-color="#1f6f43" flood-opacity=".35"/>
    </filter>
  </defs>
  <rect width="256" height="256" rx="64" fill="url(#bga642)"/>
  <circle cx="128" cy="128" r="109" fill="#fff" opacity=".12"/>
  <circle cx="128" cy="128" r="100" fill="#ffffff" opacity=".18"/>
  <g opacity=".35"><circle cx="214" cy="211" r="2.1" fill="#fff" opacity="0.50"/><circle cx="32" cy="20" r="2.4" fill="#fff" opacity="0.40"/><circle cx="54" cy="231" r="2.5" fill="#fff" opacity="0.27"/><circle cx="54" cy="31" r="2.7" fill="#fff" opacity="0.59"/><circle cx="170" cy="142" r="2.9" fill="#fff" opacity="0.25"/><circle cx="196" cy="140" r="0.9" fill="#fff" opacity="0.47"/><circle cx="188" cy="94" r="1.5" fill="#fff" opacity="0.38"/><circle cx="231" cy="235" r="1.4" fill="#fff" opacity="0.54"/><circle cx="20" cy="100" r="3.0" fill="#fff" opacity="0.65"/><circle cx="117" cy="62" r="1.6" fill="#fff" opacity="0.30"/></g>
  <g transform="rotate(3 128 128)">
    <ellipse cx="128" cy="159" rx="54" ry="49" fill="url(#body)" filter="url(#softShadow)"/><circle cx="128" cy="97" r="42" fill="url(#head)"/><path d="M76 141 C28 132 45 190 84 180" fill="#1f6f43"/><path d="M180 141 C228 132 211 190 172 180" fill="#1f6f43"/><path d="M101 56 H155 L165 79 Q128 93 91 79 Z" fill="#c7f7a4" opacity=".85"/><ellipse cx="112" cy="107" rx="7" ry="8" fill="#14213d"/><ellipse cx="144" cy="107" rx="7" ry="8" fill="#14213d"/><circle cx="115" cy="103" r="2.3" fill="#fff"/><circle cx="147" cy="103" r="2.3" fill="#fff"/><circle cx="128" cy="86" r="7" fill="#c7f7a4" opacity=".9"/>
  </g>
  <path d="M42 198 C82 222 171 226 216 184" stroke="#fff" stroke-width="11" stroke-linecap="round" opacity=".22"/>
</svg>