<svg xmlns="http://www.w3.org/2000/svg" viewBox="0 0 256 256" role="img" aria-label="浪花海豹 original avatar">
  
  <defs>
    <linearGradient id="bga643" x1="0" y1="0" x2="1" y2="1">
      <stop offset="0" stop-color="#9ee8ff"/>
      <stop offset=".55" stop-color="#2397d5"/>
      <stop offset="1" stop-color="#0b4f8f"/>
    </linearGradient>
    <radialGradient id="body" cx=".36" cy=".25" r=".76">
      <stop offset="0" stop-color="#9ee8ff"/>
      <stop offset=".6" stop-color="#2397d5"/>
      <stop offset="1" stop-color="#0b4f8f"/>
    </radialGradient>
    <radialGradient id="head" cx=".36" cy=".26" r=".72">
      <stop offset="0" stop-color="#ffffff" stop-opacity=".85"/>
      <stop offset=".2" stop-color="#9ee8ff"/>
      <stop offset=".72" stop-color="#2397d5"/>
      <stop offset="1" stop-color="#0b4f8f"/>
    </radialGradient>
    <filter id="softShadow" x="-30%" y="-30%" width="160%" height="160%">
      <feDropShadow dx="0" dy="8" stdDeviation="8" flood-color="#0b4f8f" flood-opacity=".35"/>
    </filter>
  </defs>
  <rect width="256" height="256" rx="64" fill="url(#bga643)"/>
  <circle cx="128" cy="128" r="109" fill="#fff" opacity=".12"/>
  <circle cx="128" cy="128" r="100" fill="#ffffff" opacity=".18"/>
  <g opacity=".35"><circle cx="210" cy="252" r="3.1" fill="#fff" opacity="0.42"/><circle cx="79" cy="187" r="2.4" fill="#fff" opacity="0.52"/><circle cx="209" cy="94" r="2.3" fill="#fff" opacity="0.46"/><circle cx="141" cy="1" r="1.9" fill="#fff" opacity="0.59"/><circle cx="236" cy="122" r="1.3" fill="#fff" opacity="0.45"/><circle cx="64" cy="194" r="2.7" fill="#fff" opacity="0.61"/><circle cx="133" cy="67" r="2.7" fill="#fff" opacity="0.29"/><circle cx="198" cy="152" r="1.2" fill="#fff" opacity="0.69"/><circle cx="4" cy="73" r="3.2" fill="#fff" opacity="0.27"/><circle cx="226" cy="223" r="1.5" fill="#fff" opacity="0.53"/></g>
  <g transform="rotate(0 128 128)">
    <path d="M57 143 L23 101 L25 185 Z" fill="#2397d5" opacity=".86"/><ellipse cx="124" cy="141" rx="68" ry="43" fill="url(#body)" filter="url(#softShadow)"/><path d="M122 102 C144 50 178 68 170 112" fill="#2397d5" opacity=".72"/><path d="M150 171 C168 207 204 185 180 159" fill="#9ee8ff" opacity=".8"/><circle cx="164" cy="126" r="7" fill="#101828"/><circle cx="167" cy="123" r="2.3" fill="#fff"/><path d="M128 73 L139 87 L128 102 L117 87 Z" fill="#9ee8ff" opacity=".92"/>
  </g>
  <path d="M42 198 C82 222 171 226 216 184" stroke="#fff" stroke-width="11" stroke-linecap="round" opacity=".22"/>
</svg>