<svg xmlns="http://www.w3.org/2000/svg" viewBox="0 0 256 256" role="img" aria-label="圣翼天使 original avatar">
  
  <defs>
    <linearGradient id="bga648" x1="0" y1="0" x2="1" y2="1">
      <stop offset="0" stop-color="#fffbe0"/>
      <stop offset=".55" stop-color="#f2cf62"/>
      <stop offset="1" stop-color="#80651c"/>
    </linearGradient>
    <radialGradient id="body" cx=".36" cy=".25" r=".76">
      <stop offset="0" stop-color="#fffbe0"/>
      <stop offset=".6" stop-color="#f2cf62"/>
      <stop offset="1" stop-color="#80651c"/>
    </radialGradient>
    <radialGradient id="head" cx=".36" cy=".26" r=".72">
      <stop offset="0" stop-color="#ffffff" stop-opacity=".85"/>
      <stop offset=".2" stop-color="#fffbe0"/>
      <stop offset=".72" stop-color="#f2cf62"/>
      <stop offset="1" stop-color="#80651c"/>
    </radialGradient>
    <filter id="softShadow" x="-30%" y="-30%" width="160%" height="160%">
      <feDropShadow dx="0" dy="8" stdDeviation="8" flood-color="#80651c" flood-opacity=".35"/>
    </filter>
  </defs>
  <rect width="256" height="256" rx="64" fill="url(#bga648)"/>
  <circle cx="128" cy="128" r="112" fill="#fff" opacity=".12"/>
  <circle cx="128" cy="128" r="103" fill="#ffffff" opacity=".18"/>
  <g opacity=".35"><circle cx="69" cy="37" r="1.5" fill="#fff" opacity="0.43"/><circle cx="149" cy="55" r="3.0" fill="#fff" opacity="0.66"/><circle cx="224" cy="59" r="2.0" fill="#fff" opacity="0.36"/><circle cx="47" cy="173" r="2.3" fill="#fff" opacity="0.29"/><circle cx="119" cy="159" r="0.9" fill="#fff" opacity="0.52"/><circle cx="100" cy="153" r="2.1" fill="#fff" opacity="0.35"/><circle cx="214" cy="99" r="2.4" fill="#fff" opacity="0.40"/><circle cx="120" cy="166" r="1.8" fill="#fff" opacity="0.53"/><circle cx="79" cy="136" r="1.1" fill="#fff" opacity="0.34"/><circle cx="65" cy="201" r="2.7" fill="#fff" opacity="0.53"/></g>
  <g transform="rotate(-1 128 128)">
    <path d="M110 133 C35 75 36 175 104 179" fill="#f2cf62" opacity=".78"/><path d="M146 133 C221 75 220 175 152 179" fill="#f2cf62" opacity=".78"/><ellipse cx="128" cy="151" rx="42" ry="54" fill="url(#body)" filter="url(#softShadow)"/><circle cx="128" cy="95" r="38" fill="url(#head)"/><path d="M123 94 L165 105 L125 115 Z" fill="#fffbe0"/><path d="M106 59 C120 27 140 37 130 65" fill="#80651c" opacity=".85"/><ellipse cx="112" cy="107" rx="7" ry="8" fill="#14213d"/><ellipse cx="144" cy="107" rx="7" ry="8" fill="#14213d"/><circle cx="115" cy="103" r="2.3" fill="#fff"/><circle cx="147" cy="103" r="2.3" fill="#fff"/><circle cx="128" cy="86" r="7" fill="#fffbe0" opacity=".9"/>
  </g>
  <path d="M42 198 C82 222 171 226 216 184" stroke="#fff" stroke-width="11" stroke-linecap="round" opacity=".22"/>
</svg>