<svg xmlns="http://www.w3.org/2000/svg" viewBox="0 0 256 256" role="img" aria-label="神圣光使 original avatar">
  
  <defs>
    <linearGradient id="bga649" x1="0" y1="0" x2="1" y2="1">
      <stop offset="0" stop-color="#fffbe0"/>
      <stop offset=".55" stop-color="#f2cf62"/>
      <stop offset="1" stop-color="#80651c"/>
    </linearGradient>
    <radialGradient id="body" cx=".36" cy=".25" r=".76">
      <stop offset="0" stop-color="#fffbe0"/>
      <stop offset=".6" stop-color="#f2cf62"/>
      <stop offset="1" stop-color="#80651c"/>
    </radialGradient>
    <radialGradient id="head" cx=".36" cy=".26" r=".72">
      <stop offset="0" stop-color="#ffffff" stop-opacity=".85"/>
      <stop offset=".2" stop-color="#fffbe0"/>
      <stop offset=".72" stop-color="#f2cf62"/>
      <stop offset="1" stop-color="#80651c"/>
    </radialGradient>
    <filter id="softShadow" x="-30%" y="-30%" width="160%" height="160%">
      <feDropShadow dx="0" dy="8" stdDeviation="8" flood-color="#80651c" flood-opacity=".35"/>
    </filter>
  </defs>
  <rect width="256" height="256" rx="64" fill="url(#bga649)"/>
  <circle cx="128" cy="128" r="110" fill="#fff" opacity=".12"/>
  <circle cx="128" cy="128" r="101" fill="#ffffff" opacity=".18"/>
  <g opacity=".35"><circle cx="43" cy="157" r="2.6" fill="#fff" opacity="0.49"/><circle cx="107" cy="125" r="1.1" fill="#fff" opacity="0.34"/><circle cx="38" cy="65" r="1.1" fill="#fff" opacity="0.30"/><circle cx="202" cy="40" r="2.0" fill="#fff" opacity="0.57"/><circle cx="67" cy="15" r="1.5" fill="#fff" opacity="0.32"/><circle cx="229" cy="88" r="3.0" fill="#fff" opacity="0.46"/><circle cx="255" cy="149" r="1.7" fill="#fff" opacity="0.50"/><circle cx="141" cy="76" r="2.7" fill="#fff" opacity="0.65"/><circle cx="239" cy="90" r="1.0" fill="#fff" opacity="0.34"/><circle cx="26" cy="144" r="2.2" fill="#fff" opacity="0.31"/></g>
  <g transform="rotate(1 128 128)">
    <ellipse cx="128" cy="149" rx="49" ry="55" fill="url(#body)" filter="url(#softShadow)"/><circle cx="128" cy="94" r="39" fill="url(#head)"/><ellipse cx="128" cy="88" rx="68" ry="18" fill="none" stroke="#fffbe0" stroke-width="7" opacity=".75" transform="rotate(-12 128 88)"/><path d="M128 34 L138 59 L166 60 L143 75 L151 102 L128 85 L105 102 L113 75 L90 60 L118 59 Z" fill="#f2cf62"/><ellipse cx="112" cy="107" rx="7" ry="8" fill="#14213d"/><ellipse cx="144" cy="107" rx="7" ry="8" fill="#14213d"/><circle cx="115" cy="103" r="2.3" fill="#fff"/><circle cx="147" cy="103" r="2.3" fill="#fff"/><circle cx="128" cy="86" r="7" fill="#fffbe0" opacity=".9"/>
  </g>
  <path d="M42 198 C82 222 171 226 216 184" stroke="#fff" stroke-width="11" stroke-linecap="round" opacity=".22"/>
</svg>