<svg xmlns="http://www.w3.org/2000/svg" viewBox="0 0 256 256" role="img" aria-label="毒丝幼虫 original avatar">
  
  <defs>
    <linearGradient id="bga655" x1="0" y1="0" x2="1" y2="1">
      <stop offset="0" stop-color="#efb2ff"/>
      <stop offset=".55" stop-color="#9b5de5"/>
      <stop offset="1" stop-color="#4f2378"/>
    </linearGradient>
    <radialGradient id="body" cx=".36" cy=".25" r=".76">
      <stop offset="0" stop-color="#efb2ff"/>
      <stop offset=".6" stop-color="#9b5de5"/>
      <stop offset="1" stop-color="#4f2378"/>
    </radialGradient>
    <radialGradient id="head" cx=".36" cy=".26" r=".72">
      <stop offset="0" stop-color="#ffffff" stop-opacity=".85"/>
      <stop offset=".2" stop-color="#efb2ff"/>
      <stop offset=".72" stop-color="#9b5de5"/>
      <stop offset="1" stop-color="#4f2378"/>
    </radialGradient>
    <filter id="softShadow" x="-30%" y="-30%" width="160%" height="160%">
      <feDropShadow dx="0" dy="8" stdDeviation="8" flood-color="#4f2378" flood-opacity=".35"/>
    </filter>
  </defs>
  <rect width="256" height="256" rx="64" fill="url(#bga655)"/>
  <circle cx="128" cy="128" r="108" fill="#fff" opacity=".12"/>
  <circle cx="128" cy="128" r="99" fill="#ffffff" opacity=".18"/>
  <g opacity=".35"><circle cx="164" cy="103" r="1.9" fill="#fff" opacity="0.61"/><circle cx="218" cy="94" r="3.1" fill="#fff" opacity="0.36"/><circle cx="134" cy="253" r="1.6" fill="#fff" opacity="0.41"/><circle cx="82" cy="150" r="2.4" fill="#fff" opacity="0.62"/><circle cx="167" cy="186" r="2.3" fill="#fff" opacity="0.55"/><circle cx="156" cy="210" r="1.4" fill="#fff" opacity="0.37"/><circle cx="20" cy="146" r="2.1" fill="#fff" opacity="0.40"/><circle cx="109" cy="73" r="0.9" fill="#fff" opacity="0.39"/><circle cx="225" cy="204" r="2.1" fill="#fff" opacity="0.60"/><circle cx="117" cy="196" r="2.8" fill="#fff" opacity="0.66"/></g>
  <g transform="rotate(4 128 128)">
    <ellipse cx="90" cy="109" rx="34" ry="49" fill="#efb2ff" opacity=".55"/><ellipse cx="166" cy="109" rx="34" ry="49" fill="#efb2ff" opacity=".55"/><ellipse cx="128" cy="145" rx="32" ry="60" fill="url(#body)" filter="url(#softShadow)"/><circle cx="128" cy="88" r="34" fill="url(#head)"/><path d="M110 62 Q88 29 61 41" stroke="#4f2378" stroke-width="5" fill="none" stroke-linecap="round"/><path d="M146 62 Q168 29 195 41" stroke="#4f2378" stroke-width="5" fill="none" stroke-linecap="round"/><path d="M100 141 H156 M104 167 H152" stroke="#4f2378" stroke-width="4" opacity=".35"/><ellipse cx="112" cy="107" rx="7" ry="8" fill="#14213d"/><ellipse cx="144" cy="107" rx="7" ry="8" fill="#14213d"/><circle cx="115" cy="103" r="2.3" fill="#fff"/><circle cx="147" cy="103" r="2.3" fill="#fff"/><circle cx="128" cy="86" r="7" fill="#efb2ff" opacity=".9"/>
  </g>
  <path d="M42 198 C82 222 171 226 216 184" stroke="#fff" stroke-width="11" stroke-linecap="round" opacity=".22"/>
</svg>