<svg xmlns="http://www.w3.org/2000/svg" viewBox="0 0 256 256" role="img" aria-label="风羽小鹰 original avatar">
  
  <defs>
    <linearGradient id="bga659" x1="0" y1="0" x2="1" y2="1">
      <stop offset="0" stop-color="#d9edff"/>
      <stop offset=".55" stop-color="#82b7ff"/>
      <stop offset="1" stop-color="#4260ad"/>
    </linearGradient>
    <radialGradient id="body" cx=".36" cy=".25" r=".76">
      <stop offset="0" stop-color="#d9edff"/>
      <stop offset=".6" stop-color="#82b7ff"/>
      <stop offset="1" stop-color="#4260ad"/>
    </radialGradient>
    <radialGradient id="head" cx=".36" cy=".26" r=".72">
      <stop offset="0" stop-color="#ffffff" stop-opacity=".85"/>
      <stop offset=".2" stop-color="#d9edff"/>
      <stop offset=".72" stop-color="#82b7ff"/>
      <stop offset="1" stop-color="#4260ad"/>
    </radialGradient>
    <filter id="softShadow" x="-30%" y="-30%" width="160%" height="160%">
      <feDropShadow dx="0" dy="8" stdDeviation="8" flood-color="#4260ad" flood-opacity=".35"/>
    </filter>
  </defs>
  <rect width="256" height="256" rx="64" fill="url(#bga659)"/>
  <circle cx="128" cy="128" r="107" fill="#fff" opacity=".12"/>
  <circle cx="128" cy="128" r="98" fill="#ffffff" opacity=".18"/>
  <g opacity=".35"><circle cx="51" cy="118" r="1.2" fill="#fff" opacity="0.60"/><circle cx="230" cy="143" r="2.3" fill="#fff" opacity="0.25"/><circle cx="183" cy="236" r="1.1" fill="#fff" opacity="0.43"/><circle cx="170" cy="194" r="1.8" fill="#fff" opacity="0.54"/><circle cx="56" cy="146" r="2.2" fill="#fff" opacity="0.34"/><circle cx="181" cy="185" r="1.5" fill="#fff" opacity="0.67"/><circle cx="94" cy="32" r="2.6" fill="#fff" opacity="0.30"/><circle cx="190" cy="165" r="3.1" fill="#fff" opacity="0.66"/><circle cx="61" cy="185" r="2.9" fill="#fff" opacity="0.29"/><circle cx="91" cy="62" r="2.0" fill="#fff" opacity="0.64"/></g>
  <g transform="rotate(-4 128 128)">
    <path d="M110 133 C35 75 36 175 104 179" fill="#82b7ff" opacity=".78"/><path d="M146 133 C221 75 220 175 152 179" fill="#82b7ff" opacity=".78"/><ellipse cx="128" cy="151" rx="42" ry="54" fill="url(#body)" filter="url(#softShadow)"/><circle cx="128" cy="95" r="38" fill="url(#head)"/><path d="M123 94 L165 105 L125 115 Z" fill="#d9edff"/><path d="M106 59 C120 27 140 37 130 65" fill="#4260ad" opacity=".85"/><ellipse cx="112" cy="107" rx="7" ry="8" fill="#14213d"/><ellipse cx="144" cy="107" rx="7" ry="8" fill="#14213d"/><circle cx="115" cy="103" r="2.3" fill="#fff"/><circle cx="147" cy="103" r="2.3" fill="#fff"/><path d="M128 73 L139 87 L128 102 L117 87 Z" fill="#d9edff" opacity=".92"/>
  </g>
  <path d="M42 198 C82 222 171 226 216 184" stroke="#fff" stroke-width="11" stroke-linecap="round" opacity=".22"/>
</svg>