<svg xmlns="http://www.w3.org/2000/svg" viewBox="0 0 256 256" role="img" aria-label="钻地鼠 original avatar">
  
  <defs>
    <linearGradient id="bga66" x1="0" y1="0" x2="1" y2="1">
      <stop offset="0" stop-color="#e9c68f"/>
      <stop offset=".55" stop-color="#a0713d"/>
      <stop offset="1" stop-color="#5a3b22"/>
    </linearGradient>
    <radialGradient id="body" cx=".36" cy=".25" r=".76">
      <stop offset="0" stop-color="#e9c68f"/>
      <stop offset=".6" stop-color="#a0713d"/>
      <stop offset="1" stop-color="#5a3b22"/>
    </radialGradient>
    <radialGradient id="head" cx=".36" cy=".26" r=".72">
      <stop offset="0" stop-color="#ffffff" stop-opacity=".85"/>
      <stop offset=".2" stop-color="#e9c68f"/>
      <stop offset=".72" stop-color="#a0713d"/>
      <stop offset="1" stop-color="#5a3b22"/>
    </radialGradient>
    <filter id="softShadow" x="-30%" y="-30%" width="160%" height="160%">
      <feDropShadow dx="0" dy="8" stdDeviation="8" flood-color="#5a3b22" flood-opacity=".35"/>
    </filter>
  </defs>
  <rect width="256" height="256" rx="64" fill="url(#bga66)"/>
  <circle cx="128" cy="128" r="113" fill="#fff" opacity=".12"/>
  <circle cx="128" cy="128" r="104" fill="#ffffff" opacity=".18"/>
  <g opacity=".35"><circle cx="97" cy="225" r="1.8" fill="#fff" opacity="0.54"/><circle cx="83" cy="34" r="2.4" fill="#fff" opacity="0.40"/><circle cx="147" cy="28" r="3.1" fill="#fff" opacity="0.47"/><circle cx="165" cy="57" r="2.6" fill="#fff" opacity="0.25"/><circle cx="127" cy="146" r="1.0" fill="#fff" opacity="0.68"/><circle cx="149" cy="82" r="2.1" fill="#fff" opacity="0.46"/><circle cx="9" cy="147" r="1.9" fill="#fff" opacity="0.48"/><circle cx="181" cy="86" r="2.7" fill="#fff" opacity="0.48"/><circle cx="233" cy="146" r="2.5" fill="#fff" opacity="0.62"/><circle cx="155" cy="230" r="0.8" fill="#fff" opacity="0.66"/></g>
  <g transform="rotate(1 128 128)">
    <path d="M76 95 L110 60 H155 L187 102 L172 176 H83 Z" fill="url(#body)" filter="url(#softShadow)"/><path d="M100 71 L123 28 L140 67 Z" fill="#e9c68f"/><path d="M145 73 L171 39 L170 86 Z" fill="#a0713d"/><rect x="98" y="119" width="60" height="15" rx="7" fill="#5a3b22" opacity=".38"/><circle cx="114" cy="126" r="5" fill="#e9c68f"/><circle cx="142" cy="126" r="5" fill="#e9c68f"/><circle cx="128" cy="86" r="7" fill="#e9c68f" opacity=".9"/>
  </g>
  <path d="M42 198 C82 222 171 226 216 184" stroke="#fff" stroke-width="11" stroke-linecap="round" opacity=".22"/>
</svg>