<svg xmlns="http://www.w3.org/2000/svg" viewBox="0 0 256 256" role="img" aria-label="烈焰幼狮 original avatar">
  
  <defs>
    <linearGradient id="bga667" x1="0" y1="0" x2="1" y2="1">
      <stop offset="0" stop-color="#ffc0a6"/>
      <stop offset=".55" stop-color="#d95f3d"/>
      <stop offset="1" stop-color="#7a271d"/>
    </linearGradient>
    <radialGradient id="body" cx=".36" cy=".25" r=".76">
      <stop offset="0" stop-color="#ffc0a6"/>
      <stop offset=".6" stop-color="#d95f3d"/>
      <stop offset="1" stop-color="#7a271d"/>
    </radialGradient>
    <radialGradient id="head" cx=".36" cy=".26" r=".72">
      <stop offset="0" stop-color="#ffffff" stop-opacity=".85"/>
      <stop offset=".2" stop-color="#ffc0a6"/>
      <stop offset=".72" stop-color="#d95f3d"/>
      <stop offset="1" stop-color="#7a271d"/>
    </radialGradient>
    <filter id="softShadow" x="-30%" y="-30%" width="160%" height="160%">
      <feDropShadow dx="0" dy="8" stdDeviation="8" flood-color="#7a271d" flood-opacity=".35"/>
    </filter>
  </defs>
  <rect width="256" height="256" rx="64" fill="url(#bga667)"/>
  <circle cx="128" cy="128" r="106" fill="#fff" opacity=".12"/>
  <circle cx="128" cy="128" r="97" fill="#ffffff" opacity=".18"/>
  <g opacity=".35"><circle cx="175" cy="114" r="2.9" fill="#fff" opacity="0.31"/><circle cx="165" cy="256" r="1.8" fill="#fff" opacity="0.53"/><circle cx="184" cy="9" r="2.4" fill="#fff" opacity="0.45"/><circle cx="244" cy="161" r="2.4" fill="#fff" opacity="0.61"/><circle cx="148" cy="79" r="1.8" fill="#fff" opacity="0.58"/><circle cx="126" cy="138" r="1.8" fill="#fff" opacity="0.64"/><circle cx="67" cy="31" r="2.4" fill="#fff" opacity="0.44"/><circle cx="239" cy="138" r="1.2" fill="#fff" opacity="0.58"/><circle cx="84" cy="145" r="1.6" fill="#fff" opacity="0.65"/><circle cx="15" cy="62" r="1.8" fill="#fff" opacity="0.35"/></g>
  <g transform="rotate(3 128 128)">
    <path d="M81 153 C37 141 48 92 84 112" stroke="#d95f3d" stroke-width="14" fill="none" stroke-linecap="round" opacity=".76"/><ellipse cx="128" cy="156" rx="53" ry="50" fill="url(#body)" filter="url(#softShadow)"/><path d="M93 87 L70 40 L116 69 Z" fill="#d95f3d"/><path d="M163 87 L186 40 L140 69 Z" fill="#d95f3d"/><circle cx="128" cy="98" r="45" fill="url(#head)"/><ellipse cx="111" cy="106" rx="8" ry="10" fill="#182033"/><ellipse cx="145" cy="106" rx="8" ry="10" fill="#182033"/><ellipse cx="112" cy="107" rx="7" ry="8" fill="#14213d"/><ellipse cx="144" cy="107" rx="7" ry="8" fill="#14213d"/><circle cx="115" cy="103" r="2.3" fill="#fff"/><circle cx="147" cy="103" r="2.3" fill="#fff"/><circle cx="128" cy="86" r="7" fill="#ffc0a6" opacity=".9"/>
  </g>
  <path d="M42 198 C82 222 171 226 216 184" stroke="#fff" stroke-width="11" stroke-linecap="round" opacity=".22"/>
</svg>