<svg xmlns="http://www.w3.org/2000/svg" viewBox="0 0 256 256" role="img" aria-label="三头地鼠 original avatar">
  
  <defs>
    <linearGradient id="bga67" x1="0" y1="0" x2="1" y2="1">
      <stop offset="0" stop-color="#e9c68f"/>
      <stop offset=".55" stop-color="#a0713d"/>
      <stop offset="1" stop-color="#5a3b22"/>
    </linearGradient>
    <radialGradient id="body" cx=".36" cy=".25" r=".76">
      <stop offset="0" stop-color="#e9c68f"/>
      <stop offset=".6" stop-color="#a0713d"/>
      <stop offset="1" stop-color="#5a3b22"/>
    </radialGradient>
    <radialGradient id="head" cx=".36" cy=".26" r=".72">
      <stop offset="0" stop-color="#ffffff" stop-opacity=".85"/>
      <stop offset=".2" stop-color="#e9c68f"/>
      <stop offset=".72" stop-color="#a0713d"/>
      <stop offset="1" stop-color="#5a3b22"/>
    </radialGradient>
    <filter id="softShadow" x="-30%" y="-30%" width="160%" height="160%">
      <feDropShadow dx="0" dy="8" stdDeviation="8" flood-color="#5a3b22" flood-opacity=".35"/>
    </filter>
  </defs>
  <rect width="256" height="256" rx="64" fill="url(#bga67)"/>
  <circle cx="128" cy="128" r="107" fill="#fff" opacity=".12"/>
  <circle cx="128" cy="128" r="98" fill="#ffffff" opacity=".18"/>
  <g opacity=".35"><circle cx="239" cy="222" r="3.0" fill="#fff" opacity="0.62"/><circle cx="51" cy="203" r="2.5" fill="#fff" opacity="0.53"/><circle cx="189" cy="221" r="1.4" fill="#fff" opacity="0.60"/><circle cx="31" cy="72" r="1.3" fill="#fff" opacity="0.51"/><circle cx="247" cy="2" r="1.0" fill="#fff" opacity="0.50"/><circle cx="224" cy="204" r="2.8" fill="#fff" opacity="0.25"/><circle cx="102" cy="137" r="2.2" fill="#fff" opacity="0.49"/><circle cx="165" cy="99" r="0.9" fill="#fff" opacity="0.59"/><circle cx="210" cy="195" r="2.5" fill="#fff" opacity="0.26"/><circle cx="21" cy="203" r="2.3" fill="#fff" opacity="0.51"/></g>
  <g transform="rotate(1 128 128)">
    <path d="M175 153 C219 141 208 92 172 112" stroke="#a0713d" stroke-width="14" fill="none" stroke-linecap="round" opacity=".76"/><ellipse cx="128" cy="156" rx="53" ry="50" fill="url(#body)" filter="url(#softShadow)"/><path d="M93 87 L70 40 L116 69 Z" fill="#a0713d"/><path d="M163 87 L186 40 L140 69 Z" fill="#a0713d"/><circle cx="128" cy="98" r="45" fill="url(#head)"/><ellipse cx="111" cy="106" rx="8" ry="10" fill="#182033"/><ellipse cx="145" cy="106" rx="8" ry="10" fill="#182033"/><ellipse cx="112" cy="107" rx="7" ry="8" fill="#14213d"/><ellipse cx="144" cy="107" rx="7" ry="8" fill="#14213d"/><circle cx="115" cy="103" r="2.3" fill="#fff"/><circle cx="147" cy="103" r="2.3" fill="#fff"/><path d="M128 73 L139 87 L128 102 L117 87 Z" fill="#e9c68f" opacity=".92"/>
  </g>
  <path d="M42 198 C82 222 171 226 216 184" stroke="#fff" stroke-width="11" stroke-linecap="round" opacity=".22"/>
</svg>