<svg xmlns="http://www.w3.org/2000/svg" viewBox="0 0 256 256" role="img" aria-label="星河贤者 original avatar">
  
  <defs>
    <linearGradient id="bga672" x1="0" y1="0" x2="1" y2="1">
      <stop offset="0" stop-color="#ffd0ec"/>
      <stop offset=".55" stop-color="#e056a7"/>
      <stop offset="1" stop-color="#6d327d"/>
    </linearGradient>
    <radialGradient id="body" cx=".36" cy=".25" r=".76">
      <stop offset="0" stop-color="#ffd0ec"/>
      <stop offset=".6" stop-color="#e056a7"/>
      <stop offset="1" stop-color="#6d327d"/>
    </radialGradient>
    <radialGradient id="head" cx=".36" cy=".26" r=".72">
      <stop offset="0" stop-color="#ffffff" stop-opacity=".85"/>
      <stop offset=".2" stop-color="#ffd0ec"/>
      <stop offset=".72" stop-color="#e056a7"/>
      <stop offset="1" stop-color="#6d327d"/>
    </radialGradient>
    <filter id="softShadow" x="-30%" y="-30%" width="160%" height="160%">
      <feDropShadow dx="0" dy="8" stdDeviation="8" flood-color="#6d327d" flood-opacity=".35"/>
    </filter>
  </defs>
  <rect width="256" height="256" rx="64" fill="url(#bga672)"/>
  <circle cx="128" cy="128" r="110" fill="#fff" opacity=".12"/>
  <circle cx="128" cy="128" r="101" fill="#ffffff" opacity=".18"/>
  <g opacity=".35"><circle cx="76" cy="176" r="1.2" fill="#fff" opacity="0.32"/><circle cx="121" cy="48" r="0.9" fill="#fff" opacity="0.47"/><circle cx="18" cy="169" r="2.6" fill="#fff" opacity="0.42"/><circle cx="146" cy="166" r="2.7" fill="#fff" opacity="0.39"/><circle cx="46" cy="122" r="2.6" fill="#fff" opacity="0.27"/><circle cx="130" cy="147" r="2.0" fill="#fff" opacity="0.64"/><circle cx="148" cy="150" r="2.1" fill="#fff" opacity="0.41"/><circle cx="29" cy="176" r="1.5" fill="#fff" opacity="0.43"/><circle cx="203" cy="135" r="1.9" fill="#fff" opacity="0.57"/><circle cx="31" cy="69" r="2.3" fill="#fff" opacity="0.37"/></g>
  <g transform="rotate(4 128 128)">
    <ellipse cx="128" cy="149" rx="49" ry="55" fill="url(#body)" filter="url(#softShadow)"/><circle cx="128" cy="94" r="39" fill="url(#head)"/><ellipse cx="128" cy="88" rx="68" ry="18" fill="none" stroke="#ffd0ec" stroke-width="7" opacity=".75" transform="rotate(-12 128 88)"/><path d="M128 34 L138 59 L166 60 L143 75 L151 102 L128 85 L105 102 L113 75 L90 60 L118 59 Z" fill="#e056a7"/><ellipse cx="112" cy="107" rx="7" ry="8" fill="#14213d"/><ellipse cx="144" cy="107" rx="7" ry="8" fill="#14213d"/><circle cx="115" cy="103" r="2.3" fill="#fff"/><circle cx="147" cy="103" r="2.3" fill="#fff"/><path d="M128 73 L139 87 L128 102 L117 87 Z" fill="#ffd0ec" opacity=".92"/>
  </g>
  <path d="M42 198 C82 222 171 226 216 184" stroke="#fff" stroke-width="11" stroke-linecap="round" opacity=".22"/>
</svg>