<svg xmlns="http://www.w3.org/2000/svg" viewBox="0 0 256 256" role="img" aria-label="腐蚀幼蛙 original avatar">
  
  <defs>
    <linearGradient id="bga673" x1="0" y1="0" x2="1" y2="1">
      <stop offset="0" stop-color="#efb2ff"/>
      <stop offset=".55" stop-color="#9b5de5"/>
      <stop offset="1" stop-color="#4f2378"/>
    </linearGradient>
    <radialGradient id="body" cx=".36" cy=".25" r=".76">
      <stop offset="0" stop-color="#efb2ff"/>
      <stop offset=".6" stop-color="#9b5de5"/>
      <stop offset="1" stop-color="#4f2378"/>
    </radialGradient>
    <radialGradient id="head" cx=".36" cy=".26" r=".72">
      <stop offset="0" stop-color="#ffffff" stop-opacity=".85"/>
      <stop offset=".2" stop-color="#efb2ff"/>
      <stop offset=".72" stop-color="#9b5de5"/>
      <stop offset="1" stop-color="#4f2378"/>
    </radialGradient>
    <filter id="softShadow" x="-30%" y="-30%" width="160%" height="160%">
      <feDropShadow dx="0" dy="8" stdDeviation="8" flood-color="#4f2378" flood-opacity=".35"/>
    </filter>
  </defs>
  <rect width="256" height="256" rx="64" fill="url(#bga673)"/>
  <circle cx="128" cy="128" r="112" fill="#fff" opacity=".12"/>
  <circle cx="128" cy="128" r="103" fill="#ffffff" opacity=".18"/>
  <g opacity=".35"><circle cx="183" cy="163" r="1.6" fill="#fff" opacity="0.58"/><circle cx="210" cy="12" r="2.0" fill="#fff" opacity="0.44"/><circle cx="52" cy="169" r="3.0" fill="#fff" opacity="0.58"/><circle cx="135" cy="221" r="2.3" fill="#fff" opacity="0.52"/><circle cx="68" cy="12" r="0.8" fill="#fff" opacity="0.63"/><circle cx="217" cy="63" r="1.8" fill="#fff" opacity="0.39"/><circle cx="248" cy="19" r="0.9" fill="#fff" opacity="0.47"/><circle cx="72" cy="93" r="1.1" fill="#fff" opacity="0.56"/><circle cx="136" cy="228" r="1.5" fill="#fff" opacity="0.44"/><circle cx="210" cy="1" r="1.3" fill="#fff" opacity="0.26"/></g>
  <g transform="rotate(1 128 128)">
    <path d="M57 143 L23 101 L25 185 Z" fill="#9b5de5" opacity=".86"/><ellipse cx="124" cy="141" rx="68" ry="43" fill="url(#body)" filter="url(#softShadow)"/><path d="M122 102 C144 50 178 68 170 112" fill="#9b5de5" opacity=".72"/><path d="M150 171 C168 207 204 185 180 159" fill="#efb2ff" opacity=".8"/><circle cx="164" cy="126" r="7" fill="#101828"/><circle cx="167" cy="123" r="2.3" fill="#fff"/><path d="M128 73 L139 87 L128 102 L117 87 Z" fill="#efb2ff" opacity=".92"/>
  </g>
  <path d="M42 198 C82 222 171 226 216 184" stroke="#fff" stroke-width="11" stroke-linecap="round" opacity=".22"/>
</svg>