<svg xmlns="http://www.w3.org/2000/svg" viewBox="0 0 256 256" role="img" aria-label="瘴毒巫蛙 original avatar">
  
  <defs>
    <linearGradient id="bga675" x1="0" y1="0" x2="1" y2="1">
      <stop offset="0" stop-color="#efb2ff"/>
      <stop offset=".55" stop-color="#9b5de5"/>
      <stop offset="1" stop-color="#4f2378"/>
    </linearGradient>
    <radialGradient id="body" cx=".36" cy=".25" r=".76">
      <stop offset="0" stop-color="#efb2ff"/>
      <stop offset=".6" stop-color="#9b5de5"/>
      <stop offset="1" stop-color="#4f2378"/>
    </radialGradient>
    <radialGradient id="head" cx=".36" cy=".26" r=".72">
      <stop offset="0" stop-color="#ffffff" stop-opacity=".85"/>
      <stop offset=".2" stop-color="#efb2ff"/>
      <stop offset=".72" stop-color="#9b5de5"/>
      <stop offset="1" stop-color="#4f2378"/>
    </radialGradient>
    <filter id="softShadow" x="-30%" y="-30%" width="160%" height="160%">
      <feDropShadow dx="0" dy="8" stdDeviation="8" flood-color="#4f2378" flood-opacity=".35"/>
    </filter>
  </defs>
  <rect width="256" height="256" rx="64" fill="url(#bga675)"/>
  <circle cx="128" cy="128" r="109" fill="#fff" opacity=".12"/>
  <circle cx="128" cy="128" r="100" fill="#ffffff" opacity=".18"/>
  <g opacity=".35"><circle cx="0" cy="78" r="2.7" fill="#fff" opacity="0.30"/><circle cx="81" cy="143" r="1.8" fill="#fff" opacity="0.39"/><circle cx="168" cy="239" r="1.0" fill="#fff" opacity="0.67"/><circle cx="217" cy="79" r="3.0" fill="#fff" opacity="0.62"/><circle cx="20" cy="157" r="1.5" fill="#fff" opacity="0.57"/><circle cx="111" cy="194" r="1.2" fill="#fff" opacity="0.46"/><circle cx="238" cy="82" r="2.5" fill="#fff" opacity="0.45"/><circle cx="167" cy="197" r="1.6" fill="#fff" opacity="0.66"/><circle cx="93" cy="188" r="1.6" fill="#fff" opacity="0.68"/><circle cx="95" cy="13" r="1.8" fill="#fff" opacity="0.32"/></g>
  <g transform="rotate(-4 128 128)">
    <path d="M57 143 L23 101 L25 185 Z" fill="#9b5de5" opacity=".86"/><ellipse cx="124" cy="141" rx="68" ry="43" fill="url(#body)" filter="url(#softShadow)"/><path d="M122 102 C144 50 178 68 170 112" fill="#9b5de5" opacity=".72"/><path d="M150 171 C168 207 204 185 180 159" fill="#efb2ff" opacity=".8"/><circle cx="164" cy="126" r="7" fill="#101828"/><circle cx="167" cy="123" r="2.3" fill="#fff"/><path d="M108 82 Q128 93 148 82" stroke="#efb2ff" stroke-width="5" fill="none" stroke-linecap="round" opacity=".8"/>
  </g>
  <path d="M42 198 C82 222 171 226 216 184" stroke="#fff" stroke-width="11" stroke-linecap="round" opacity=".22"/>
</svg>