<svg xmlns="http://www.w3.org/2000/svg" viewBox="0 0 256 256" role="img" aria-label="岩浆幼犬 original avatar">
  
  <defs>
    <linearGradient id="bga676" x1="0" y1="0" x2="1" y2="1">
      <stop offset="0" stop-color="#ffd166"/>
      <stop offset=".55" stop-color="#ff6b35"/>
      <stop offset="1" stop-color="#a92d1d"/>
    </linearGradient>
    <radialGradient id="body" cx=".36" cy=".25" r=".76">
      <stop offset="0" stop-color="#ffd166"/>
      <stop offset=".6" stop-color="#ff6b35"/>
      <stop offset="1" stop-color="#a92d1d"/>
    </radialGradient>
    <radialGradient id="head" cx=".36" cy=".26" r=".72">
      <stop offset="0" stop-color="#ffffff" stop-opacity=".85"/>
      <stop offset=".2" stop-color="#ffd166"/>
      <stop offset=".72" stop-color="#ff6b35"/>
      <stop offset="1" stop-color="#a92d1d"/>
    </radialGradient>
    <filter id="softShadow" x="-30%" y="-30%" width="160%" height="160%">
      <feDropShadow dx="0" dy="8" stdDeviation="8" flood-color="#a92d1d" flood-opacity=".35"/>
    </filter>
  </defs>
  <rect width="256" height="256" rx="64" fill="url(#bga676)"/>
  <circle cx="128" cy="128" r="108" fill="#fff" opacity=".12"/>
  <circle cx="128" cy="128" r="99" fill="#ffffff" opacity=".18"/>
  <g opacity=".35"><circle cx="224" cy="173" r="0.8" fill="#fff" opacity="0.27"/><circle cx="21" cy="16" r="1.6" fill="#fff" opacity="0.27"/><circle cx="253" cy="99" r="2.1" fill="#fff" opacity="0.34"/><circle cx="45" cy="1" r="2.2" fill="#fff" opacity="0.34"/><circle cx="233" cy="164" r="2.8" fill="#fff" opacity="0.62"/><circle cx="125" cy="114" r="2.4" fill="#fff" opacity="0.50"/><circle cx="111" cy="71" r="0.9" fill="#fff" opacity="0.40"/><circle cx="62" cy="141" r="2.7" fill="#fff" opacity="0.56"/><circle cx="25" cy="174" r="1.0" fill="#fff" opacity="0.67"/><circle cx="189" cy="244" r="2.8" fill="#fff" opacity="0.47"/></g>
  <g transform="rotate(2 128 128)">
    <path d="M76 95 L110 60 H155 L187 102 L172 176 H83 Z" fill="url(#body)" filter="url(#softShadow)"/><path d="M100 71 L123 28 L140 67 Z" fill="#ffd166"/><path d="M145 73 L171 39 L170 86 Z" fill="#ff6b35"/><rect x="98" y="119" width="60" height="15" rx="7" fill="#a92d1d" opacity=".38"/><circle cx="114" cy="126" r="5" fill="#ffd166"/><circle cx="142" cy="126" r="5" fill="#ffd166"/><path d="M128 73 L139 87 L128 102 L117 87 Z" fill="#ffd166" opacity=".92"/>
  </g>
  <path d="M42 198 C82 222 171 226 216 184" stroke="#fff" stroke-width="11" stroke-linecap="round" opacity=".22"/>
</svg>