<svg xmlns="http://www.w3.org/2000/svg" viewBox="0 0 256 256" role="img" aria-label="虹光宝石 original avatar">
  
  <defs>
    <linearGradient id="bga683" x1="0" y1="0" x2="1" y2="1">
      <stop offset="0" stop-color="#ffd7f3"/>
      <stop offset=".55" stop-color="#f47ac2"/>
      <stop offset="1" stop-color="#8e3b89"/>
    </linearGradient>
    <radialGradient id="body" cx=".36" cy=".25" r=".76">
      <stop offset="0" stop-color="#ffd7f3"/>
      <stop offset=".6" stop-color="#f47ac2"/>
      <stop offset="1" stop-color="#8e3b89"/>
    </radialGradient>
    <radialGradient id="head" cx=".36" cy=".26" r=".72">
      <stop offset="0" stop-color="#ffffff" stop-opacity=".85"/>
      <stop offset=".2" stop-color="#ffd7f3"/>
      <stop offset=".72" stop-color="#f47ac2"/>
      <stop offset="1" stop-color="#8e3b89"/>
    </radialGradient>
    <filter id="softShadow" x="-30%" y="-30%" width="160%" height="160%">
      <feDropShadow dx="0" dy="8" stdDeviation="8" flood-color="#8e3b89" flood-opacity=".35"/>
    </filter>
  </defs>
  <rect width="256" height="256" rx="64" fill="url(#bga683)"/>
  <circle cx="128" cy="128" r="112" fill="#fff" opacity=".12"/>
  <circle cx="128" cy="128" r="103" fill="#ffffff" opacity=".18"/>
  <g opacity=".35"><circle cx="95" cy="102" r="2.8" fill="#fff" opacity="0.29"/><circle cx="120" cy="197" r="3.0" fill="#fff" opacity="0.67"/><circle cx="228" cy="184" r="2.8" fill="#fff" opacity="0.35"/><circle cx="121" cy="73" r="2.3" fill="#fff" opacity="0.43"/><circle cx="28" cy="196" r="2.3" fill="#fff" opacity="0.45"/><circle cx="47" cy="122" r="2.8" fill="#fff" opacity="0.70"/><circle cx="129" cy="240" r="2.0" fill="#fff" opacity="0.52"/><circle cx="16" cy="89" r="1.5" fill="#fff" opacity="0.56"/><circle cx="75" cy="2" r="1.8" fill="#fff" opacity="0.53"/><circle cx="139" cy="215" r="2.2" fill="#fff" opacity="0.66"/></g>
  <g transform="rotate(-4 128 128)">
    <path d="M76 95 L110 60 H155 L187 102 L172 176 H83 Z" fill="url(#body)" filter="url(#softShadow)"/><path d="M100 71 L123 28 L140 67 Z" fill="#ffd7f3"/><path d="M145 73 L171 39 L170 86 Z" fill="#f47ac2"/><rect x="98" y="119" width="60" height="15" rx="7" fill="#8e3b89" opacity=".38"/><circle cx="114" cy="126" r="5" fill="#ffd7f3"/><circle cx="142" cy="126" r="5" fill="#ffd7f3"/><circle cx="128" cy="86" r="7" fill="#ffd7f3" opacity=".9"/>
  </g>
  <path d="M42 198 C82 222 171 226 216 184" stroke="#fff" stroke-width="11" stroke-linecap="round" opacity=".22"/>
</svg>