<svg xmlns="http://www.w3.org/2000/svg" viewBox="0 0 256 256" role="img" aria-label="月读银狼 original avatar">
  
  <defs>
    <linearGradient id="bga692" x1="0" y1="0" x2="1" y2="1">
      <stop offset="0" stop-color="#9ba0bb"/>
      <stop offset=".55" stop-color="#4a4b68"/>
      <stop offset="1" stop-color="#171728"/>
    </linearGradient>
    <radialGradient id="body" cx=".36" cy=".25" r=".76">
      <stop offset="0" stop-color="#9ba0bb"/>
      <stop offset=".6" stop-color="#4a4b68"/>
      <stop offset="1" stop-color="#171728"/>
    </radialGradient>
    <radialGradient id="head" cx=".36" cy=".26" r=".72">
      <stop offset="0" stop-color="#ffffff" stop-opacity=".85"/>
      <stop offset=".2" stop-color="#9ba0bb"/>
      <stop offset=".72" stop-color="#4a4b68"/>
      <stop offset="1" stop-color="#171728"/>
    </radialGradient>
    <filter id="softShadow" x="-30%" y="-30%" width="160%" height="160%">
      <feDropShadow dx="0" dy="8" stdDeviation="8" flood-color="#171728" flood-opacity=".35"/>
    </filter>
  </defs>
  <rect width="256" height="256" rx="64" fill="url(#bga692)"/>
  <circle cx="128" cy="128" r="110" fill="#fff" opacity=".12"/>
  <circle cx="128" cy="128" r="101" fill="#ffffff" opacity=".18"/>
  <g opacity=".35"><circle cx="243" cy="221" r="1.6" fill="#fff" opacity="0.69"/><circle cx="206" cy="57" r="1.0" fill="#fff" opacity="0.64"/><circle cx="117" cy="115" r="2.4" fill="#fff" opacity="0.48"/><circle cx="48" cy="17" r="2.0" fill="#fff" opacity="0.35"/><circle cx="124" cy="12" r="1.1" fill="#fff" opacity="0.63"/><circle cx="53" cy="200" r="0.9" fill="#fff" opacity="0.67"/><circle cx="52" cy="146" r="1.2" fill="#fff" opacity="0.34"/><circle cx="198" cy="119" r="3.1" fill="#fff" opacity="0.31"/><circle cx="243" cy="255" r="2.2" fill="#fff" opacity="0.36"/><circle cx="215" cy="101" r="1.8" fill="#fff" opacity="0.25"/></g>
  <g transform="rotate(-4 128 128)">
    <path d="M76 95 L110 60 H155 L187 102 L172 176 H83 Z" fill="url(#body)" filter="url(#softShadow)"/><path d="M100 71 L123 28 L140 67 Z" fill="#9ba0bb"/><path d="M145 73 L171 39 L170 86 Z" fill="#4a4b68"/><rect x="98" y="119" width="60" height="15" rx="7" fill="#171728" opacity=".38"/><circle cx="114" cy="126" r="5" fill="#9ba0bb"/><circle cx="142" cy="126" r="5" fill="#9ba0bb"/><path d="M108 82 Q128 93 148 82" stroke="#9ba0bb" stroke-width="5" fill="none" stroke-linecap="round" opacity=".8"/>
  </g>
  <path d="M42 198 C82 222 171 226 216 184" stroke="#fff" stroke-width="11" stroke-linecap="round" opacity=".22"/>
</svg>