<svg xmlns="http://www.w3.org/2000/svg" viewBox="0 0 256 256" role="img" aria-label="波导狗 original avatar">
  
  <defs>
    <linearGradient id="bga70" x1="0" y1="0" x2="1" y2="1">
      <stop offset="0" stop-color="#ffc0a6"/>
      <stop offset=".55" stop-color="#d95f3d"/>
      <stop offset="1" stop-color="#7a271d"/>
    </linearGradient>
    <radialGradient id="body" cx=".36" cy=".25" r=".76">
      <stop offset="0" stop-color="#ffc0a6"/>
      <stop offset=".6" stop-color="#d95f3d"/>
      <stop offset="1" stop-color="#7a271d"/>
    </radialGradient>
    <radialGradient id="head" cx=".36" cy=".26" r=".72">
      <stop offset="0" stop-color="#ffffff" stop-opacity=".85"/>
      <stop offset=".2" stop-color="#ffc0a6"/>
      <stop offset=".72" stop-color="#d95f3d"/>
      <stop offset="1" stop-color="#7a271d"/>
    </radialGradient>
    <filter id="softShadow" x="-30%" y="-30%" width="160%" height="160%">
      <feDropShadow dx="0" dy="8" stdDeviation="8" flood-color="#7a271d" flood-opacity=".35"/>
    </filter>
  </defs>
  <rect width="256" height="256" rx="64" fill="url(#bga70)"/>
  <circle cx="128" cy="128" r="110" fill="#fff" opacity=".12"/>
  <circle cx="128" cy="128" r="101" fill="#ffffff" opacity=".18"/>
  <g opacity=".35"><circle cx="15" cy="60" r="2.0" fill="#fff" opacity="0.66"/><circle cx="250" cy="32" r="2.1" fill="#fff" opacity="0.64"/><circle cx="97" cy="252" r="1.0" fill="#fff" opacity="0.41"/><circle cx="75" cy="203" r="1.4" fill="#fff" opacity="0.68"/><circle cx="67" cy="72" r="2.5" fill="#fff" opacity="0.66"/><circle cx="153" cy="243" r="1.8" fill="#fff" opacity="0.39"/><circle cx="106" cy="216" r="1.7" fill="#fff" opacity="0.68"/><circle cx="178" cy="33" r="0.9" fill="#fff" opacity="0.50"/><circle cx="89" cy="200" r="1.5" fill="#fff" opacity="0.55"/><circle cx="149" cy="24" r="1.4" fill="#fff" opacity="0.37"/></g>
  <g transform="rotate(-5 128 128)">
    <path d="M175 153 C219 141 208 92 172 112" stroke="#d95f3d" stroke-width="14" fill="none" stroke-linecap="round" opacity=".76"/><ellipse cx="128" cy="156" rx="53" ry="50" fill="url(#body)" filter="url(#softShadow)"/><path d="M93 87 L70 40 L116 69 Z" fill="#d95f3d"/><path d="M163 87 L186 40 L140 69 Z" fill="#d95f3d"/><circle cx="128" cy="98" r="45" fill="url(#head)"/><ellipse cx="111" cy="106" rx="8" ry="10" fill="#182033"/><ellipse cx="145" cy="106" rx="8" ry="10" fill="#182033"/><ellipse cx="112" cy="107" rx="7" ry="8" fill="#14213d"/><ellipse cx="144" cy="107" rx="7" ry="8" fill="#14213d"/><circle cx="115" cy="103" r="2.3" fill="#fff"/><circle cx="147" cy="103" r="2.3" fill="#fff"/><path d="M128 73 L139 87 L128 102 L117 87 Z" fill="#ffc0a6" opacity=".92"/>
  </g>
  <path d="M42 198 C82 222 171 226 216 184" stroke="#fff" stroke-width="11" stroke-linecap="round" opacity=".22"/>
</svg>