<svg xmlns="http://www.w3.org/2000/svg" viewBox="0 0 256 256" role="img" aria-label="宇宙意志 original avatar">
  
  <defs>
    <linearGradient id="bga700" x1="0" y1="0" x2="1" y2="1">
      <stop offset="0" stop-color="#fff0a6"/>
      <stop offset=".55" stop-color="#d9a441"/>
      <stop offset="1" stop-color="#754d12"/>
    </linearGradient>
    <radialGradient id="body" cx=".36" cy=".25" r=".76">
      <stop offset="0" stop-color="#fff0a6"/>
      <stop offset=".6" stop-color="#d9a441"/>
      <stop offset="1" stop-color="#754d12"/>
    </radialGradient>
    <radialGradient id="head" cx=".36" cy=".26" r=".72">
      <stop offset="0" stop-color="#ffffff" stop-opacity=".85"/>
      <stop offset=".2" stop-color="#fff0a6"/>
      <stop offset=".72" stop-color="#d9a441"/>
      <stop offset="1" stop-color="#754d12"/>
    </radialGradient>
    <filter id="softShadow" x="-30%" y="-30%" width="160%" height="160%">
      <feDropShadow dx="0" dy="8" stdDeviation="8" flood-color="#754d12" flood-opacity=".35"/>
    </filter>
  </defs>
  <rect width="256" height="256" rx="64" fill="url(#bga700)"/>
  <circle cx="128" cy="128" r="113" fill="#fff" opacity=".12"/>
  <circle cx="128" cy="128" r="104" fill="#ffffff" opacity=".18"/>
  <g opacity=".35"><circle cx="205" cy="236" r="3.0" fill="#fff" opacity="0.69"/><circle cx="221" cy="110" r="2.2" fill="#fff" opacity="0.28"/><circle cx="31" cy="42" r="2.6" fill="#fff" opacity="0.63"/><circle cx="71" cy="13" r="2.1" fill="#fff" opacity="0.63"/><circle cx="48" cy="197" r="1.0" fill="#fff" opacity="0.51"/><circle cx="162" cy="29" r="1.8" fill="#fff" opacity="0.67"/><circle cx="208" cy="91" r="1.3" fill="#fff" opacity="0.46"/><circle cx="27" cy="52" r="2.9" fill="#fff" opacity="0.59"/><circle cx="216" cy="12" r="1.2" fill="#fff" opacity="0.32"/><circle cx="217" cy="188" r="0.9" fill="#fff" opacity="0.57"/></g>
  <g transform="rotate(-4 128 128)">
    <ellipse cx="128" cy="149" rx="49" ry="55" fill="url(#body)" filter="url(#softShadow)"/><circle cx="128" cy="94" r="39" fill="url(#head)"/><ellipse cx="128" cy="88" rx="68" ry="18" fill="none" stroke="#fff0a6" stroke-width="7" opacity=".75" transform="rotate(-12 128 88)"/><path d="M128 34 L138 59 L166 60 L143 75 L151 102 L128 85 L105 102 L113 75 L90 60 L118 59 Z" fill="#d9a441"/><ellipse cx="112" cy="107" rx="7" ry="8" fill="#14213d"/><ellipse cx="144" cy="107" rx="7" ry="8" fill="#14213d"/><circle cx="115" cy="103" r="2.3" fill="#fff"/><circle cx="147" cy="103" r="2.3" fill="#fff"/><path d="M128 73 L139 87 L128 102 L117 87 Z" fill="#fff0a6" opacity=".92"/>
  </g>
  <path d="M42 198 C82 222 171 226 216 184" stroke="#fff" stroke-width="11" stroke-linecap="round" opacity=".22"/>
</svg>