<svg xmlns="http://www.w3.org/2000/svg" viewBox="0 0 256 256" role="img" aria-label="锁钥灵妖 original avatar">
  
  <defs>
    <linearGradient id="bga707" x1="0" y1="0" x2="1" y2="1">
      <stop offset="0" stop-color="#e8edf2"/>
      <stop offset=".55" stop-color="#9aa8b7"/>
      <stop offset="1" stop-color="#536271"/>
    </linearGradient>
    <radialGradient id="body" cx=".36" cy=".25" r=".76">
      <stop offset="0" stop-color="#e8edf2"/>
      <stop offset=".6" stop-color="#9aa8b7"/>
      <stop offset="1" stop-color="#536271"/>
    </radialGradient>
    <radialGradient id="head" cx=".36" cy=".26" r=".72">
      <stop offset="0" stop-color="#ffffff" stop-opacity=".85"/>
      <stop offset=".2" stop-color="#e8edf2"/>
      <stop offset=".72" stop-color="#9aa8b7"/>
      <stop offset="1" stop-color="#536271"/>
    </radialGradient>
    <filter id="softShadow" x="-30%" y="-30%" width="160%" height="160%">
      <feDropShadow dx="0" dy="8" stdDeviation="8" flood-color="#536271" flood-opacity=".35"/>
    </filter>
  </defs>
  <rect width="256" height="256" rx="64" fill="url(#bga707)"/>
  <circle cx="128" cy="128" r="112" fill="#fff" opacity=".12"/>
  <circle cx="128" cy="128" r="103" fill="#ffffff" opacity=".18"/>
  <g opacity=".35"><circle cx="242" cy="148" r="3.0" fill="#fff" opacity="0.65"/><circle cx="9" cy="173" r="1.9" fill="#fff" opacity="0.42"/><circle cx="143" cy="36" r="1.5" fill="#fff" opacity="0.39"/><circle cx="105" cy="103" r="1.0" fill="#fff" opacity="0.33"/><circle cx="121" cy="1" r="2.3" fill="#fff" opacity="0.40"/><circle cx="56" cy="128" r="2.9" fill="#fff" opacity="0.56"/><circle cx="17" cy="47" r="1.8" fill="#fff" opacity="0.26"/><circle cx="141" cy="219" r="1.3" fill="#fff" opacity="0.53"/><circle cx="162" cy="240" r="3.1" fill="#fff" opacity="0.32"/><circle cx="196" cy="173" r="1.1" fill="#fff" opacity="0.64"/></g>
  <g transform="rotate(2 128 128)">
    <path d="M76 196 C52 132 85 60 132 59 C188 57 208 129 175 196 C158 179 144 207 128 188 C111 207 95 179 76 196Z" fill="url(#body)" filter="url(#softShadow)"/><circle cx="110" cy="107" r="8" fill="#1b1638"/><circle cx="146" cy="107" r="8" fill="#1b1638"/><path d="M120 136 Q128 145 140 135" stroke="#1b1638" stroke-width="5" fill="none" stroke-linecap="round"/><path d="M65 143 C23 128 44 82 70 100" fill="#f47ac2" opacity=".35"/><path d="M191 143 C233 128 212 82 186 100" fill="#f47ac2" opacity=".35"/><path d="M108 82 Q128 93 148 82" stroke="#e8edf2" stroke-width="5" fill="none" stroke-linecap="round" opacity=".8"/>
  </g>
  <path d="M42 198 C82 222 171 226 216 184" stroke="#fff" stroke-width="11" stroke-linecap="round" opacity=".22"/>
</svg>