<svg xmlns="http://www.w3.org/2000/svg" viewBox="0 0 256 256" role="img" aria-label="霜翅冰蛾 original avatar">
  
  <defs>
    <linearGradient id="bga712" x1="0" y1="0" x2="1" y2="1">
      <stop offset="0" stop-color="#d7fbff"/>
      <stop offset=".55" stop-color="#71d6e8"/>
      <stop offset="1" stop-color="#318aa3"/>
    </linearGradient>
    <radialGradient id="body" cx=".36" cy=".25" r=".76">
      <stop offset="0" stop-color="#d7fbff"/>
      <stop offset=".6" stop-color="#71d6e8"/>
      <stop offset="1" stop-color="#318aa3"/>
    </radialGradient>
    <radialGradient id="head" cx=".36" cy=".26" r=".72">
      <stop offset="0" stop-color="#ffffff" stop-opacity=".85"/>
      <stop offset=".2" stop-color="#d7fbff"/>
      <stop offset=".72" stop-color="#71d6e8"/>
      <stop offset="1" stop-color="#318aa3"/>
    </radialGradient>
    <filter id="softShadow" x="-30%" y="-30%" width="160%" height="160%">
      <feDropShadow dx="0" dy="8" stdDeviation="8" flood-color="#318aa3" flood-opacity=".35"/>
    </filter>
  </defs>
  <rect width="256" height="256" rx="64" fill="url(#bga712)"/>
  <circle cx="128" cy="128" r="111" fill="#fff" opacity=".12"/>
  <circle cx="128" cy="128" r="102" fill="#ffffff" opacity=".18"/>
  <g opacity=".35"><circle cx="189" cy="20" r="1.4" fill="#fff" opacity="0.57"/><circle cx="7" cy="218" r="2.8" fill="#fff" opacity="0.59"/><circle cx="24" cy="238" r="1.2" fill="#fff" opacity="0.64"/><circle cx="10" cy="205" r="2.3" fill="#fff" opacity="0.34"/><circle cx="212" cy="208" r="2.2" fill="#fff" opacity="0.51"/><circle cx="154" cy="93" r="3.1" fill="#fff" opacity="0.55"/><circle cx="168" cy="67" r="2.7" fill="#fff" opacity="0.39"/><circle cx="162" cy="9" r="2.0" fill="#fff" opacity="0.55"/><circle cx="98" cy="73" r="2.4" fill="#fff" opacity="0.58"/><circle cx="12" cy="103" r="2.4" fill="#fff" opacity="0.36"/></g>
  <g transform="rotate(1 128 128)">
    <ellipse cx="90" cy="109" rx="34" ry="49" fill="#d7fbff" opacity=".55"/><ellipse cx="166" cy="109" rx="34" ry="49" fill="#d7fbff" opacity=".55"/><ellipse cx="128" cy="145" rx="32" ry="60" fill="url(#body)" filter="url(#softShadow)"/><circle cx="128" cy="88" r="34" fill="url(#head)"/><path d="M110 62 Q88 29 61 41" stroke="#514438" stroke-width="5" fill="none" stroke-linecap="round"/><path d="M146 62 Q168 29 195 41" stroke="#514438" stroke-width="5" fill="none" stroke-linecap="round"/><path d="M100 141 H156 M104 167 H152" stroke="#318aa3" stroke-width="4" opacity=".35"/><ellipse cx="112" cy="107" rx="7" ry="8" fill="#14213d"/><ellipse cx="144" cy="107" rx="7" ry="8" fill="#14213d"/><circle cx="115" cy="103" r="2.3" fill="#fff"/><circle cx="147" cy="103" r="2.3" fill="#fff"/><path d="M128 73 L139 87 L128 102 L117 87 Z" fill="#d7fbff" opacity=".92"/>
  </g>
  <path d="M42 198 C82 222 171 226 216 184" stroke="#fff" stroke-width="11" stroke-linecap="round" opacity=".22"/>
</svg>