<svg xmlns="http://www.w3.org/2000/svg" viewBox="0 0 256 256" role="img" aria-label="暗翼蝠卒 original avatar">
  
  <defs>
    <linearGradient id="bga714" x1="0" y1="0" x2="1" y2="1">
      <stop offset="0" stop-color="#d9edff"/>
      <stop offset=".55" stop-color="#82b7ff"/>
      <stop offset="1" stop-color="#4260ad"/>
    </linearGradient>
    <radialGradient id="body" cx=".36" cy=".25" r=".76">
      <stop offset="0" stop-color="#d9edff"/>
      <stop offset=".6" stop-color="#82b7ff"/>
      <stop offset="1" stop-color="#4260ad"/>
    </radialGradient>
    <radialGradient id="head" cx=".36" cy=".26" r=".72">
      <stop offset="0" stop-color="#ffffff" stop-opacity=".85"/>
      <stop offset=".2" stop-color="#d9edff"/>
      <stop offset=".72" stop-color="#82b7ff"/>
      <stop offset="1" stop-color="#4260ad"/>
    </radialGradient>
    <filter id="softShadow" x="-30%" y="-30%" width="160%" height="160%">
      <feDropShadow dx="0" dy="8" stdDeviation="8" flood-color="#4260ad" flood-opacity=".35"/>
    </filter>
  </defs>
  <rect width="256" height="256" rx="64" fill="url(#bga714)"/>
  <circle cx="128" cy="128" r="110" fill="#fff" opacity=".12"/>
  <circle cx="128" cy="128" r="101" fill="#ffffff" opacity=".18"/>
  <g opacity=".35"><circle cx="232" cy="197" r="2.9" fill="#fff" opacity="0.35"/><circle cx="175" cy="86" r="1.1" fill="#fff" opacity="0.50"/><circle cx="83" cy="165" r="2.1" fill="#fff" opacity="0.34"/><circle cx="113" cy="167" r="3.0" fill="#fff" opacity="0.68"/><circle cx="149" cy="173" r="1.7" fill="#fff" opacity="0.35"/><circle cx="194" cy="157" r="1.9" fill="#fff" opacity="0.65"/><circle cx="78" cy="97" r="2.9" fill="#fff" opacity="0.70"/><circle cx="135" cy="120" r="2.0" fill="#fff" opacity="0.53"/><circle cx="34" cy="175" r="1.9" fill="#fff" opacity="0.27"/><circle cx="254" cy="198" r="2.4" fill="#fff" opacity="0.33"/></g>
  <g transform="rotate(5 128 128)">
    <path d="M110 133 C35 75 36 175 104 179" fill="#8b7ef4" opacity=".78"/><path d="M146 133 C221 75 220 175 152 179" fill="#8b7ef4" opacity=".78"/><ellipse cx="128" cy="151" rx="42" ry="54" fill="url(#body)" filter="url(#softShadow)"/><circle cx="128" cy="95" r="38" fill="url(#head)"/><path d="M123 94 L165 105 L125 115 Z" fill="#d9edff"/><path d="M106 59 C120 27 140 37 130 65" fill="#342d78" opacity=".85"/><ellipse cx="112" cy="107" rx="7" ry="8" fill="#14213d"/><ellipse cx="144" cy="107" rx="7" ry="8" fill="#14213d"/><circle cx="115" cy="103" r="2.3" fill="#fff"/><circle cx="147" cy="103" r="2.3" fill="#fff"/><circle cx="128" cy="86" r="7" fill="#d9edff" opacity=".9"/>
  </g>
  <path d="M42 198 C82 222 171 226 216 184" stroke="#fff" stroke-width="11" stroke-linecap="round" opacity=".22"/>
</svg>