<svg xmlns="http://www.w3.org/2000/svg" viewBox="0 0 256 256" role="img" aria-label="灵机仙姬 original avatar">
  
  <defs>
    <linearGradient id="bga719" x1="0" y1="0" x2="1" y2="1">
      <stop offset="0" stop-color="#ddd0b2"/>
      <stop offset=".55" stop-color="#8d7a5f"/>
      <stop offset="1" stop-color="#514438"/>
    </linearGradient>
    <radialGradient id="body" cx=".36" cy=".25" r=".76">
      <stop offset="0" stop-color="#ddd0b2"/>
      <stop offset=".6" stop-color="#8d7a5f"/>
      <stop offset="1" stop-color="#514438"/>
    </radialGradient>
    <radialGradient id="head" cx=".36" cy=".26" r=".72">
      <stop offset="0" stop-color="#ffffff" stop-opacity=".85"/>
      <stop offset=".2" stop-color="#ddd0b2"/>
      <stop offset=".72" stop-color="#8d7a5f"/>
      <stop offset="1" stop-color="#514438"/>
    </radialGradient>
    <filter id="softShadow" x="-30%" y="-30%" width="160%" height="160%">
      <feDropShadow dx="0" dy="8" stdDeviation="8" flood-color="#514438" flood-opacity=".35"/>
    </filter>
  </defs>
  <rect width="256" height="256" rx="64" fill="url(#bga719)"/>
  <circle cx="128" cy="128" r="108" fill="#fff" opacity=".12"/>
  <circle cx="128" cy="128" r="99" fill="#ffffff" opacity=".18"/>
  <g opacity=".35"><circle cx="122" cy="245" r="2.5" fill="#fff" opacity="0.29"/><circle cx="68" cy="102" r="1.9" fill="#fff" opacity="0.35"/><circle cx="249" cy="34" r="1.1" fill="#fff" opacity="0.26"/><circle cx="214" cy="228" r="1.5" fill="#fff" opacity="0.35"/><circle cx="57" cy="162" r="2.8" fill="#fff" opacity="0.35"/><circle cx="221" cy="243" r="2.1" fill="#fff" opacity="0.40"/><circle cx="118" cy="125" r="1.5" fill="#fff" opacity="0.35"/><circle cx="195" cy="44" r="1.2" fill="#fff" opacity="0.38"/><circle cx="228" cy="204" r="0.9" fill="#fff" opacity="0.63"/><circle cx="193" cy="160" r="1.1" fill="#fff" opacity="0.48"/></g>
  <g transform="rotate(-2 128 128)">
    <path d="M76 196 C52 132 85 60 132 59 C188 57 208 129 175 196 C158 179 144 207 128 188 C111 207 95 179 76 196Z" fill="url(#body)" filter="url(#softShadow)"/><circle cx="110" cy="107" r="8" fill="#1b1638"/><circle cx="146" cy="107" r="8" fill="#1b1638"/><path d="M120 136 Q128 145 140 135" stroke="#1b1638" stroke-width="5" fill="none" stroke-linecap="round"/><path d="M65 143 C23 128 44 82 70 100" fill="#f47ac2" opacity=".35"/><path d="M191 143 C233 128 212 82 186 100" fill="#f47ac2" opacity=".35"/><path d="M108 82 Q128 93 148 82" stroke="#ddd0b2" stroke-width="5" fill="none" stroke-linecap="round" opacity=".8"/>
  </g>
  <path d="M42 198 C82 222 171 226 216 184" stroke="#fff" stroke-width="11" stroke-linecap="round" opacity=".22"/>
</svg>