<svg xmlns="http://www.w3.org/2000/svg" viewBox="0 0 256 256" role="img" aria-label="沸泉火兽 original avatar">
  
  <defs>
    <linearGradient id="bga721" x1="0" y1="0" x2="1" y2="1">
      <stop offset="0" stop-color="#ffd166"/>
      <stop offset=".55" stop-color="#ff6b35"/>
      <stop offset="1" stop-color="#a92d1d"/>
    </linearGradient>
    <radialGradient id="body" cx=".36" cy=".25" r=".76">
      <stop offset="0" stop-color="#ffd166"/>
      <stop offset=".6" stop-color="#ff6b35"/>
      <stop offset="1" stop-color="#a92d1d"/>
    </radialGradient>
    <radialGradient id="head" cx=".36" cy=".26" r=".72">
      <stop offset="0" stop-color="#ffffff" stop-opacity=".85"/>
      <stop offset=".2" stop-color="#ffd166"/>
      <stop offset=".72" stop-color="#ff6b35"/>
      <stop offset="1" stop-color="#a92d1d"/>
    </radialGradient>
    <filter id="softShadow" x="-30%" y="-30%" width="160%" height="160%">
      <feDropShadow dx="0" dy="8" stdDeviation="8" flood-color="#a92d1d" flood-opacity=".35"/>
    </filter>
  </defs>
  <rect width="256" height="256" rx="64" fill="url(#bga721)"/>
  <circle cx="128" cy="128" r="113" fill="#fff" opacity=".12"/>
  <circle cx="128" cy="128" r="104" fill="#ffffff" opacity=".18"/>
  <g opacity=".35"><circle cx="117" cy="33" r="1.8" fill="#fff" opacity="0.70"/><circle cx="60" cy="88" r="2.7" fill="#fff" opacity="0.38"/><circle cx="250" cy="58" r="2.4" fill="#fff" opacity="0.35"/><circle cx="155" cy="220" r="0.9" fill="#fff" opacity="0.28"/><circle cx="243" cy="238" r="2.8" fill="#fff" opacity="0.31"/><circle cx="228" cy="34" r="2.3" fill="#fff" opacity="0.50"/><circle cx="71" cy="224" r="1.4" fill="#fff" opacity="0.64"/><circle cx="140" cy="75" r="1.2" fill="#fff" opacity="0.33"/><circle cx="134" cy="94" r="1.9" fill="#fff" opacity="0.49"/><circle cx="8" cy="120" r="2.9" fill="#fff" opacity="0.42"/></g>
  <g transform="rotate(-1 128 128)">
    <path d="M81 153 C37 141 48 92 84 112" stroke="#2397d5" stroke-width="14" fill="none" stroke-linecap="round" opacity=".76"/><ellipse cx="128" cy="156" rx="53" ry="50" fill="url(#body)" filter="url(#softShadow)"/><path d="M93 87 L70 40 L116 69 Z" fill="#2397d5"/><path d="M163 87 L186 40 L140 69 Z" fill="#2397d5"/><circle cx="128" cy="98" r="45" fill="url(#head)"/><ellipse cx="111" cy="106" rx="8" ry="10" fill="#182033"/><ellipse cx="145" cy="106" rx="8" ry="10" fill="#182033"/><ellipse cx="112" cy="107" rx="7" ry="8" fill="#14213d"/><ellipse cx="144" cy="107" rx="7" ry="8" fill="#14213d"/><circle cx="115" cy="103" r="2.3" fill="#fff"/><circle cx="147" cy="103" r="2.3" fill="#fff"/><path d="M128 73 L139 87 L128 102 L117 87 Z" fill="#ffd166" opacity=".92"/>
  </g>
  <path d="M42 198 C82 222 171 226 216 184" stroke="#fff" stroke-width="11" stroke-linecap="round" opacity=".22"/>
</svg>