<svg xmlns="http://www.w3.org/2000/svg" viewBox="0 0 256 256" role="img" aria-label="翠羽雏将 original avatar">
  
  <defs>
    <linearGradient id="bga722" x1="0" y1="0" x2="1" y2="1">
      <stop offset="0" stop-color="#c7f7a4"/>
      <stop offset=".55" stop-color="#43b957"/>
      <stop offset="1" stop-color="#1f6f43"/>
    </linearGradient>
    <radialGradient id="body" cx=".36" cy=".25" r=".76">
      <stop offset="0" stop-color="#c7f7a4"/>
      <stop offset=".6" stop-color="#43b957"/>
      <stop offset="1" stop-color="#1f6f43"/>
    </radialGradient>
    <radialGradient id="head" cx=".36" cy=".26" r=".72">
      <stop offset="0" stop-color="#ffffff" stop-opacity=".85"/>
      <stop offset=".2" stop-color="#c7f7a4"/>
      <stop offset=".72" stop-color="#43b957"/>
      <stop offset="1" stop-color="#1f6f43"/>
    </radialGradient>
    <filter id="softShadow" x="-30%" y="-30%" width="160%" height="160%">
      <feDropShadow dx="0" dy="8" stdDeviation="8" flood-color="#1f6f43" flood-opacity=".35"/>
    </filter>
  </defs>
  <rect width="256" height="256" rx="64" fill="url(#bga722)"/>
  <circle cx="128" cy="128" r="108" fill="#fff" opacity=".12"/>
  <circle cx="128" cy="128" r="99" fill="#ffffff" opacity=".18"/>
  <g opacity=".35"><circle cx="159" cy="129" r="1.9" fill="#fff" opacity="0.65"/><circle cx="33" cy="15" r="2.6" fill="#fff" opacity="0.69"/><circle cx="29" cy="124" r="1.9" fill="#fff" opacity="0.51"/><circle cx="43" cy="191" r="0.9" fill="#fff" opacity="0.54"/><circle cx="71" cy="138" r="2.0" fill="#fff" opacity="0.43"/><circle cx="227" cy="13" r="2.5" fill="#fff" opacity="0.29"/><circle cx="106" cy="158" r="2.2" fill="#fff" opacity="0.58"/><circle cx="252" cy="179" r="2.6" fill="#fff" opacity="0.42"/><circle cx="208" cy="165" r="1.3" fill="#fff" opacity="0.25"/><circle cx="87" cy="248" r="1.1" fill="#fff" opacity="0.43"/></g>
  <g transform="rotate(3 128 128)">
    <path d="M110 133 C35 75 36 175 104 179" fill="#82b7ff" opacity=".78"/><path d="M146 133 C221 75 220 175 152 179" fill="#82b7ff" opacity=".78"/><ellipse cx="128" cy="151" rx="42" ry="54" fill="url(#body)" filter="url(#softShadow)"/><circle cx="128" cy="95" r="38" fill="url(#head)"/><path d="M123 94 L165 105 L125 115 Z" fill="#c7f7a4"/><path d="M106 59 C120 27 140 37 130 65" fill="#4260ad" opacity=".85"/><ellipse cx="112" cy="107" rx="7" ry="8" fill="#14213d"/><ellipse cx="144" cy="107" rx="7" ry="8" fill="#14213d"/><circle cx="115" cy="103" r="2.3" fill="#fff"/><circle cx="147" cy="103" r="2.3" fill="#fff"/><path d="M108 82 Q128 93 148 82" stroke="#c7f7a4" stroke-width="5" fill="none" stroke-linecap="round" opacity=".8"/>
  </g>
  <path d="M42 198 C82 222 171 226 216 184" stroke="#fff" stroke-width="11" stroke-linecap="round" opacity=".22"/>
</svg>