<svg xmlns="http://www.w3.org/2000/svg" viewBox="0 0 256 256" role="img" aria-label="炎猫幼卒 original avatar">
  
  <defs>
    <linearGradient id="bga725" x1="0" y1="0" x2="1" y2="1">
      <stop offset="0" stop-color="#ffd166"/>
      <stop offset=".55" stop-color="#ff6b35"/>
      <stop offset="1" stop-color="#a92d1d"/>
    </linearGradient>
    <radialGradient id="body" cx=".36" cy=".25" r=".76">
      <stop offset="0" stop-color="#ffd166"/>
      <stop offset=".6" stop-color="#ff6b35"/>
      <stop offset="1" stop-color="#a92d1d"/>
    </radialGradient>
    <radialGradient id="head" cx=".36" cy=".26" r=".72">
      <stop offset="0" stop-color="#ffffff" stop-opacity=".85"/>
      <stop offset=".2" stop-color="#ffd166"/>
      <stop offset=".72" stop-color="#ff6b35"/>
      <stop offset="1" stop-color="#a92d1d"/>
    </radialGradient>
    <filter id="softShadow" x="-30%" y="-30%" width="160%" height="160%">
      <feDropShadow dx="0" dy="8" stdDeviation="8" flood-color="#a92d1d" flood-opacity=".35"/>
    </filter>
  </defs>
  <rect width="256" height="256" rx="64" fill="url(#bga725)"/>
  <circle cx="128" cy="128" r="109" fill="#fff" opacity=".12"/>
  <circle cx="128" cy="128" r="100" fill="#ffffff" opacity=".18"/>
  <g opacity=".35"><circle cx="204" cy="122" r="2.4" fill="#fff" opacity="0.62"/><circle cx="218" cy="114" r="1.9" fill="#fff" opacity="0.43"/><circle cx="8" cy="142" r="2.7" fill="#fff" opacity="0.58"/><circle cx="224" cy="82" r="1.7" fill="#fff" opacity="0.28"/><circle cx="128" cy="156" r="1.1" fill="#fff" opacity="0.36"/><circle cx="71" cy="217" r="1.8" fill="#fff" opacity="0.65"/><circle cx="88" cy="108" r="1.9" fill="#fff" opacity="0.44"/><circle cx="137" cy="59" r="1.0" fill="#fff" opacity="0.25"/><circle cx="223" cy="15" r="1.1" fill="#fff" opacity="0.43"/><circle cx="216" cy="183" r="1.1" fill="#fff" opacity="0.28"/></g>
  <g transform="rotate(-4 128 128)">
    <path d="M175 153 C219 141 208 92 172 112" stroke="#b78f68" stroke-width="14" fill="none" stroke-linecap="round" opacity=".76"/><ellipse cx="128" cy="156" rx="53" ry="50" fill="url(#body)" filter="url(#softShadow)"/><path d="M93 87 L70 40 L116 69 Z" fill="#b78f68"/><path d="M163 87 L186 40 L140 69 Z" fill="#b78f68"/><circle cx="128" cy="98" r="45" fill="url(#head)"/><ellipse cx="111" cy="106" rx="8" ry="10" fill="#182033"/><ellipse cx="145" cy="106" rx="8" ry="10" fill="#182033"/><ellipse cx="112" cy="107" rx="7" ry="8" fill="#14213d"/><ellipse cx="144" cy="107" rx="7" ry="8" fill="#14213d"/><circle cx="115" cy="103" r="2.3" fill="#fff"/><circle cx="147" cy="103" r="2.3" fill="#fff"/><path d="M108 82 Q128 93 148 82" stroke="#ffd166" stroke-width="5" fill="none" stroke-linecap="round" opacity=".8"/>
  </g>
  <path d="M42 198 C82 222 171 226 216 184" stroke="#fff" stroke-width="11" stroke-linecap="round" opacity=".22"/>
</svg>