<svg xmlns="http://www.w3.org/2000/svg" viewBox="0 0 256 256" role="img" aria-label="拳蟹武卒 original avatar">
  
  <defs>
    <linearGradient id="bga739" x1="0" y1="0" x2="1" y2="1">
      <stop offset="0" stop-color="#ffc0a6"/>
      <stop offset=".55" stop-color="#d95f3d"/>
      <stop offset="1" stop-color="#7a271d"/>
    </linearGradient>
    <radialGradient id="body" cx=".36" cy=".25" r=".76">
      <stop offset="0" stop-color="#ffc0a6"/>
      <stop offset=".6" stop-color="#d95f3d"/>
      <stop offset="1" stop-color="#7a271d"/>
    </radialGradient>
    <radialGradient id="head" cx=".36" cy=".26" r=".72">
      <stop offset="0" stop-color="#ffffff" stop-opacity=".85"/>
      <stop offset=".2" stop-color="#ffc0a6"/>
      <stop offset=".72" stop-color="#d95f3d"/>
      <stop offset="1" stop-color="#7a271d"/>
    </radialGradient>
    <filter id="softShadow" x="-30%" y="-30%" width="160%" height="160%">
      <feDropShadow dx="0" dy="8" stdDeviation="8" flood-color="#7a271d" flood-opacity=".35"/>
    </filter>
  </defs>
  <rect width="256" height="256" rx="64" fill="url(#bga739)"/>
  <circle cx="128" cy="128" r="113" fill="#fff" opacity=".12"/>
  <circle cx="128" cy="128" r="104" fill="#ffffff" opacity=".18"/>
  <g opacity=".35"><circle cx="119" cy="197" r="1.9" fill="#fff" opacity="0.60"/><circle cx="195" cy="125" r="2.4" fill="#fff" opacity="0.61"/><circle cx="169" cy="150" r="2.5" fill="#fff" opacity="0.69"/><circle cx="251" cy="174" r="1.8" fill="#fff" opacity="0.31"/><circle cx="201" cy="75" r="1.9" fill="#fff" opacity="0.59"/><circle cx="122" cy="128" r="1.8" fill="#fff" opacity="0.62"/><circle cx="15" cy="162" r="2.9" fill="#fff" opacity="0.48"/><circle cx="128" cy="51" r="1.4" fill="#fff" opacity="0.40"/><circle cx="87" cy="152" r="0.9" fill="#fff" opacity="0.65"/><circle cx="253" cy="95" r="2.5" fill="#fff" opacity="0.35"/></g>
  <g transform="rotate(1 128 128)">
    <path d="M57 143 L23 101 L25 185 Z" fill="#2397d5" opacity=".86"/><ellipse cx="124" cy="141" rx="68" ry="43" fill="url(#body)" filter="url(#softShadow)"/><path d="M122 102 C144 50 178 68 170 112" fill="#2397d5" opacity=".72"/><path d="M150 171 C168 207 204 185 180 159" fill="#ffc0a6" opacity=".8"/><circle cx="164" cy="126" r="7" fill="#101828"/><circle cx="167" cy="123" r="2.3" fill="#fff"/><circle cx="128" cy="86" r="7" fill="#ffc0a6" opacity=".9"/>
  </g>
  <path d="M42 198 C82 222 171 226 216 184" stroke="#fff" stroke-width="11" stroke-linecap="round" opacity=".22"/>
</svg>