<svg xmlns="http://www.w3.org/2000/svg" viewBox="0 0 256 256" role="img" aria-label="雷棘海胆 original avatar">
  
  <defs>
    <linearGradient id="bga748" x1="0" y1="0" x2="1" y2="1">
      <stop offset="0" stop-color="#efb2ff"/>
      <stop offset=".55" stop-color="#9b5de5"/>
      <stop offset="1" stop-color="#4f2378"/>
    </linearGradient>
    <radialGradient id="body" cx=".36" cy=".25" r=".76">
      <stop offset="0" stop-color="#efb2ff"/>
      <stop offset=".6" stop-color="#9b5de5"/>
      <stop offset="1" stop-color="#4f2378"/>
    </radialGradient>
    <radialGradient id="head" cx=".36" cy=".26" r=".72">
      <stop offset="0" stop-color="#ffffff" stop-opacity=".85"/>
      <stop offset=".2" stop-color="#efb2ff"/>
      <stop offset=".72" stop-color="#9b5de5"/>
      <stop offset="1" stop-color="#4f2378"/>
    </radialGradient>
    <filter id="softShadow" x="-30%" y="-30%" width="160%" height="160%">
      <feDropShadow dx="0" dy="8" stdDeviation="8" flood-color="#4f2378" flood-opacity=".35"/>
    </filter>
  </defs>
  <rect width="256" height="256" rx="64" fill="url(#bga748)"/>
  <circle cx="128" cy="128" r="111" fill="#fff" opacity=".12"/>
  <circle cx="128" cy="128" r="102" fill="#ffffff" opacity=".18"/>
  <g opacity=".35"><circle cx="211" cy="25" r="3.2" fill="#fff" opacity="0.29"/><circle cx="67" cy="98" r="3.2" fill="#fff" opacity="0.67"/><circle cx="146" cy="68" r="2.0" fill="#fff" opacity="0.41"/><circle cx="231" cy="224" r="2.1" fill="#fff" opacity="0.67"/><circle cx="204" cy="100" r="1.8" fill="#fff" opacity="0.62"/><circle cx="147" cy="76" r="1.8" fill="#fff" opacity="0.29"/><circle cx="8" cy="121" r="2.7" fill="#fff" opacity="0.59"/><circle cx="128" cy="198" r="0.9" fill="#fff" opacity="0.47"/><circle cx="5" cy="49" r="3.0" fill="#fff" opacity="0.47"/><circle cx="64" cy="241" r="1.6" fill="#fff" opacity="0.54"/></g>
  <g transform="rotate(-5 128 128)">
    <path d="M57 143 L23 101 L25 185 Z" fill="#2397d5" opacity=".86"/><ellipse cx="124" cy="141" rx="68" ry="43" fill="url(#body)" filter="url(#softShadow)"/><path d="M122 102 C144 50 178 68 170 112" fill="#2397d5" opacity=".72"/><path d="M150 171 C168 207 204 185 180 159" fill="#efb2ff" opacity=".8"/><circle cx="164" cy="126" r="7" fill="#101828"/><circle cx="167" cy="123" r="2.3" fill="#fff"/><circle cx="128" cy="86" r="7" fill="#efb2ff" opacity=".9"/>
  </g>
  <path d="M42 198 C82 222 171 226 216 184" stroke="#fff" stroke-width="11" stroke-linecap="round" opacity=".22"/>
</svg>