<svg xmlns="http://www.w3.org/2000/svg" viewBox="0 0 256 256" role="img" aria-label="草刃螳卒 original avatar">
  
  <defs>
    <linearGradient id="bga753" x1="0" y1="0" x2="1" y2="1">
      <stop offset="0" stop-color="#c7f7a4"/>
      <stop offset=".55" stop-color="#43b957"/>
      <stop offset="1" stop-color="#1f6f43"/>
    </linearGradient>
    <radialGradient id="body" cx=".36" cy=".25" r=".76">
      <stop offset="0" stop-color="#c7f7a4"/>
      <stop offset=".6" stop-color="#43b957"/>
      <stop offset="1" stop-color="#1f6f43"/>
    </radialGradient>
    <radialGradient id="head" cx=".36" cy=".26" r=".72">
      <stop offset="0" stop-color="#ffffff" stop-opacity=".85"/>
      <stop offset=".2" stop-color="#c7f7a4"/>
      <stop offset=".72" stop-color="#43b957"/>
      <stop offset="1" stop-color="#1f6f43"/>
    </radialGradient>
    <filter id="softShadow" x="-30%" y="-30%" width="160%" height="160%">
      <feDropShadow dx="0" dy="8" stdDeviation="8" flood-color="#1f6f43" flood-opacity=".35"/>
    </filter>
  </defs>
  <rect width="256" height="256" rx="64" fill="url(#bga753)"/>
  <circle cx="128" cy="128" r="111" fill="#fff" opacity=".12"/>
  <circle cx="128" cy="128" r="102" fill="#ffffff" opacity=".18"/>
  <g opacity=".35"><circle cx="201" cy="232" r="1.1" fill="#fff" opacity="0.55"/><circle cx="78" cy="40" r="1.8" fill="#fff" opacity="0.32"/><circle cx="66" cy="239" r="2.3" fill="#fff" opacity="0.63"/><circle cx="164" cy="48" r="1.1" fill="#fff" opacity="0.69"/><circle cx="114" cy="135" r="1.4" fill="#fff" opacity="0.55"/><circle cx="113" cy="229" r="3.1" fill="#fff" opacity="0.47"/><circle cx="244" cy="239" r="1.0" fill="#fff" opacity="0.37"/><circle cx="177" cy="124" r="1.4" fill="#fff" opacity="0.66"/><circle cx="75" cy="211" r="1.3" fill="#fff" opacity="0.49"/><circle cx="74" cy="87" r="2.4" fill="#fff" opacity="0.43"/></g>
  <g transform="rotate(1 128 128)">
    <ellipse cx="90" cy="109" rx="34" ry="49" fill="#c7f7a4" opacity=".55"/><ellipse cx="166" cy="109" rx="34" ry="49" fill="#c7f7a4" opacity=".55"/><ellipse cx="128" cy="145" rx="32" ry="60" fill="url(#body)" filter="url(#softShadow)"/><circle cx="128" cy="88" r="34" fill="url(#head)"/><path d="M110 62 Q88 29 61 41" stroke="#3f6c1b" stroke-width="5" fill="none" stroke-linecap="round"/><path d="M146 62 Q168 29 195 41" stroke="#3f6c1b" stroke-width="5" fill="none" stroke-linecap="round"/><path d="M100 141 H156 M104 167 H152" stroke="#1f6f43" stroke-width="4" opacity=".35"/><ellipse cx="112" cy="107" rx="7" ry="8" fill="#14213d"/><ellipse cx="144" cy="107" rx="7" ry="8" fill="#14213d"/><circle cx="115" cy="103" r="2.3" fill="#fff"/><circle cx="147" cy="103" r="2.3" fill="#fff"/><path d="M108 82 Q128 93 148 82" stroke="#c7f7a4" stroke-width="5" fill="none" stroke-linecap="round" opacity=".8"/>
  </g>
  <path d="M42 198 C82 222 171 226 216 184" stroke="#fff" stroke-width="11" stroke-linecap="round" opacity=".22"/>
</svg>