<svg xmlns="http://www.w3.org/2000/svg" viewBox="0 0 256 256" role="img" aria-label="合璧异兽 original avatar">
  
  <defs>
    <linearGradient id="bga772" x1="0" y1="0" x2="1" y2="1">
      <stop offset="0" stop-color="#f4e8d8"/>
      <stop offset=".55" stop-color="#b78f68"/>
      <stop offset="1" stop-color="#6d4f3f"/>
    </linearGradient>
    <radialGradient id="body" cx=".36" cy=".25" r=".76">
      <stop offset="0" stop-color="#f4e8d8"/>
      <stop offset=".6" stop-color="#b78f68"/>
      <stop offset="1" stop-color="#6d4f3f"/>
    </radialGradient>
    <radialGradient id="head" cx=".36" cy=".26" r=".72">
      <stop offset="0" stop-color="#ffffff" stop-opacity=".85"/>
      <stop offset=".2" stop-color="#f4e8d8"/>
      <stop offset=".72" stop-color="#b78f68"/>
      <stop offset="1" stop-color="#6d4f3f"/>
    </radialGradient>
    <filter id="softShadow" x="-30%" y="-30%" width="160%" height="160%">
      <feDropShadow dx="0" dy="8" stdDeviation="8" flood-color="#6d4f3f" flood-opacity=".35"/>
    </filter>
  </defs>
  <rect width="256" height="256" rx="64" fill="url(#bga772)"/>
  <circle cx="128" cy="128" r="107" fill="#fff" opacity=".12"/>
  <circle cx="128" cy="128" r="98" fill="#ffffff" opacity=".18"/>
  <g opacity=".35"><circle cx="84" cy="195" r="1.9" fill="#fff" opacity="0.45"/><circle cx="25" cy="76" r="1.7" fill="#fff" opacity="0.64"/><circle cx="72" cy="224" r="1.2" fill="#fff" opacity="0.51"/><circle cx="58" cy="10" r="1.1" fill="#fff" opacity="0.35"/><circle cx="11" cy="7" r="3.1" fill="#fff" opacity="0.56"/><circle cx="187" cy="6" r="3.2" fill="#fff" opacity="0.51"/><circle cx="193" cy="23" r="2.7" fill="#fff" opacity="0.62"/><circle cx="169" cy="17" r="2.4" fill="#fff" opacity="0.66"/><circle cx="113" cy="245" r="2.2" fill="#fff" opacity="0.57"/><circle cx="25" cy="27" r="3.0" fill="#fff" opacity="0.54"/></g>
  <g transform="rotate(-4 128 128)">
    <path d="M81 153 C37 141 48 92 84 112" stroke="#9aa8b7" stroke-width="14" fill="none" stroke-linecap="round" opacity=".76"/><ellipse cx="128" cy="156" rx="53" ry="50" fill="url(#body)" filter="url(#softShadow)"/><path d="M93 87 L70 40 L116 69 Z" fill="#9aa8b7"/><path d="M163 87 L186 40 L140 69 Z" fill="#9aa8b7"/><circle cx="128" cy="98" r="45" fill="url(#head)"/><ellipse cx="111" cy="106" rx="8" ry="10" fill="#182033"/><ellipse cx="145" cy="106" rx="8" ry="10" fill="#182033"/><ellipse cx="112" cy="107" rx="7" ry="8" fill="#14213d"/><ellipse cx="144" cy="107" rx="7" ry="8" fill="#14213d"/><circle cx="115" cy="103" r="2.3" fill="#fff"/><circle cx="147" cy="103" r="2.3" fill="#fff"/><circle cx="128" cy="86" r="7" fill="#f4e8d8" opacity=".9"/>
  </g>
  <path d="M42 198 C82 222 171 226 216 184" stroke="#fff" stroke-width="11" stroke-linecap="round" opacity=".22"/>
</svg>