<svg xmlns="http://www.w3.org/2000/svg" viewBox="0 0 256 256" role="img" aria-label="陨星飞卫 original avatar">
  
  <defs>
    <linearGradient id="bga774" x1="0" y1="0" x2="1" y2="1">
      <stop offset="0" stop-color="#ddd0b2"/>
      <stop offset=".55" stop-color="#8d7a5f"/>
      <stop offset="1" stop-color="#514438"/>
    </linearGradient>
    <radialGradient id="body" cx=".36" cy=".25" r=".76">
      <stop offset="0" stop-color="#ddd0b2"/>
      <stop offset=".6" stop-color="#8d7a5f"/>
      <stop offset="1" stop-color="#514438"/>
    </radialGradient>
    <radialGradient id="head" cx=".36" cy=".26" r=".72">
      <stop offset="0" stop-color="#ffffff" stop-opacity=".85"/>
      <stop offset=".2" stop-color="#ddd0b2"/>
      <stop offset=".72" stop-color="#8d7a5f"/>
      <stop offset="1" stop-color="#514438"/>
    </radialGradient>
    <filter id="softShadow" x="-30%" y="-30%" width="160%" height="160%">
      <feDropShadow dx="0" dy="8" stdDeviation="8" flood-color="#514438" flood-opacity=".35"/>
    </filter>
  </defs>
  <rect width="256" height="256" rx="64" fill="url(#bga774)"/>
  <circle cx="128" cy="128" r="111" fill="#fff" opacity=".12"/>
  <circle cx="128" cy="128" r="102" fill="#ffffff" opacity=".18"/>
  <g opacity=".35"><circle cx="225" cy="98" r="1.1" fill="#fff" opacity="0.54"/><circle cx="248" cy="242" r="1.0" fill="#fff" opacity="0.35"/><circle cx="164" cy="123" r="1.3" fill="#fff" opacity="0.27"/><circle cx="119" cy="146" r="1.4" fill="#fff" opacity="0.49"/><circle cx="24" cy="92" r="1.5" fill="#fff" opacity="0.60"/><circle cx="20" cy="222" r="2.5" fill="#fff" opacity="0.40"/><circle cx="198" cy="222" r="1.6" fill="#fff" opacity="0.44"/><circle cx="78" cy="195" r="2.1" fill="#fff" opacity="0.54"/><circle cx="117" cy="19" r="2.3" fill="#fff" opacity="0.60"/><circle cx="155" cy="109" r="1.5" fill="#fff" opacity="0.69"/></g>
  <g transform="rotate(-3 128 128)">
    <path d="M110 133 C35 75 36 175 104 179" fill="#7276ef" opacity=".78"/><path d="M146 133 C221 75 220 175 152 179" fill="#7276ef" opacity=".78"/><ellipse cx="128" cy="151" rx="42" ry="54" fill="url(#body)" filter="url(#softShadow)"/><circle cx="128" cy="95" r="38" fill="url(#head)"/><path d="M123 94 L165 105 L125 115 Z" fill="#ddd0b2"/><path d="M106 59 C120 27 140 37 130 65" fill="#171b62" opacity=".85"/><ellipse cx="112" cy="107" rx="7" ry="8" fill="#14213d"/><ellipse cx="144" cy="107" rx="7" ry="8" fill="#14213d"/><circle cx="115" cy="103" r="2.3" fill="#fff"/><circle cx="147" cy="103" r="2.3" fill="#fff"/><circle cx="128" cy="86" r="7" fill="#ddd0b2" opacity=".9"/>
  </g>
  <path d="M42 198 C82 222 171 226 216 184" stroke="#fff" stroke-width="11" stroke-linecap="round" opacity=".22"/>
</svg>