<svg xmlns="http://www.w3.org/2000/svg" viewBox="0 0 256 256" role="img" aria-label="安眠仙熊 original avatar">
  
  <defs>
    <linearGradient id="bga775" x1="0" y1="0" x2="1" y2="1">
      <stop offset="0" stop-color="#f4e8d8"/>
      <stop offset=".55" stop-color="#b78f68"/>
      <stop offset="1" stop-color="#6d4f3f"/>
    </linearGradient>
    <radialGradient id="body" cx=".36" cy=".25" r=".76">
      <stop offset="0" stop-color="#f4e8d8"/>
      <stop offset=".6" stop-color="#b78f68"/>
      <stop offset="1" stop-color="#6d4f3f"/>
    </radialGradient>
    <radialGradient id="head" cx=".36" cy=".26" r=".72">
      <stop offset="0" stop-color="#ffffff" stop-opacity=".85"/>
      <stop offset=".2" stop-color="#f4e8d8"/>
      <stop offset=".72" stop-color="#b78f68"/>
      <stop offset="1" stop-color="#6d4f3f"/>
    </radialGradient>
    <filter id="softShadow" x="-30%" y="-30%" width="160%" height="160%">
      <feDropShadow dx="0" dy="8" stdDeviation="8" flood-color="#6d4f3f" flood-opacity=".35"/>
    </filter>
  </defs>
  <rect width="256" height="256" rx="64" fill="url(#bga775)"/>
  <circle cx="128" cy="128" r="113" fill="#fff" opacity=".12"/>
  <circle cx="128" cy="128" r="104" fill="#ffffff" opacity=".18"/>
  <g opacity=".35"><circle cx="242" cy="206" r="1.4" fill="#fff" opacity="0.41"/><circle cx="115" cy="13" r="3.1" fill="#fff" opacity="0.33"/><circle cx="172" cy="5" r="2.9" fill="#fff" opacity="0.53"/><circle cx="201" cy="127" r="2.5" fill="#fff" opacity="0.70"/><circle cx="73" cy="248" r="1.6" fill="#fff" opacity="0.56"/><circle cx="22" cy="13" r="3.2" fill="#fff" opacity="0.39"/><circle cx="228" cy="170" r="3.1" fill="#fff" opacity="0.56"/><circle cx="85" cy="38" r="2.6" fill="#fff" opacity="0.68"/><circle cx="3" cy="148" r="1.6" fill="#fff" opacity="0.26"/><circle cx="119" cy="233" r="2.5" fill="#fff" opacity="0.59"/></g>
  <g transform="rotate(0 128 128)">
    <path d="M175 153 C219 141 208 92 172 112" stroke="#43b957" stroke-width="14" fill="none" stroke-linecap="round" opacity=".76"/><ellipse cx="128" cy="156" rx="53" ry="50" fill="url(#body)" filter="url(#softShadow)"/><path d="M93 87 L70 40 L116 69 Z" fill="#43b957"/><path d="M163 87 L186 40 L140 69 Z" fill="#43b957"/><circle cx="128" cy="98" r="45" fill="url(#head)"/><ellipse cx="111" cy="106" rx="8" ry="10" fill="#182033"/><ellipse cx="145" cy="106" rx="8" ry="10" fill="#182033"/><ellipse cx="112" cy="107" rx="7" ry="8" fill="#14213d"/><ellipse cx="144" cy="107" rx="7" ry="8" fill="#14213d"/><circle cx="115" cy="103" r="2.3" fill="#fff"/><circle cx="147" cy="103" r="2.3" fill="#fff"/><path d="M108 82 Q128 93 148 82" stroke="#f4e8d8" stroke-width="5" fill="none" stroke-linecap="round" opacity=".8"/>
  </g>
  <path d="M42 198 C82 222 171 226 216 184" stroke="#fff" stroke-width="11" stroke-linecap="round" opacity=".22"/>
</svg>