<svg xmlns="http://www.w3.org/2000/svg" viewBox="0 0 256 256" role="img" aria-label="爆甲炮龟 original avatar">
  
  <defs>
    <linearGradient id="bga776" x1="0" y1="0" x2="1" y2="1">
      <stop offset="0" stop-color="#ffd166"/>
      <stop offset=".55" stop-color="#ff6b35"/>
      <stop offset="1" stop-color="#a92d1d"/>
    </linearGradient>
    <radialGradient id="body" cx=".36" cy=".25" r=".76">
      <stop offset="0" stop-color="#ffd166"/>
      <stop offset=".6" stop-color="#ff6b35"/>
      <stop offset="1" stop-color="#a92d1d"/>
    </radialGradient>
    <radialGradient id="head" cx=".36" cy=".26" r=".72">
      <stop offset="0" stop-color="#ffffff" stop-opacity=".85"/>
      <stop offset=".2" stop-color="#ffd166"/>
      <stop offset=".72" stop-color="#ff6b35"/>
      <stop offset="1" stop-color="#a92d1d"/>
    </radialGradient>
    <filter id="softShadow" x="-30%" y="-30%" width="160%" height="160%">
      <feDropShadow dx="0" dy="8" stdDeviation="8" flood-color="#a92d1d" flood-opacity=".35"/>
    </filter>
  </defs>
  <rect width="256" height="256" rx="64" fill="url(#bga776)"/>
  <circle cx="128" cy="128" r="106" fill="#fff" opacity=".12"/>
  <circle cx="128" cy="128" r="97" fill="#ffffff" opacity=".18"/>
  <g opacity=".35"><circle cx="88" cy="199" r="1.0" fill="#fff" opacity="0.63"/><circle cx="86" cy="214" r="2.5" fill="#fff" opacity="0.54"/><circle cx="199" cy="124" r="2.0" fill="#fff" opacity="0.57"/><circle cx="49" cy="120" r="2.3" fill="#fff" opacity="0.36"/><circle cx="184" cy="19" r="0.8" fill="#fff" opacity="0.37"/><circle cx="116" cy="130" r="2.4" fill="#fff" opacity="0.62"/><circle cx="232" cy="168" r="1.3" fill="#fff" opacity="0.68"/><circle cx="11" cy="52" r="3.1" fill="#fff" opacity="0.41"/><circle cx="216" cy="0" r="2.8" fill="#fff" opacity="0.49"/><circle cx="66" cy="226" r="2.6" fill="#fff" opacity="0.70"/></g>
  <g transform="rotate(0 128 128)">
    <path d="M57 143 L23 101 L25 185 Z" fill="#22a889" opacity=".86"/><ellipse cx="124" cy="141" rx="68" ry="43" fill="url(#body)" filter="url(#softShadow)"/><path d="M122 102 C144 50 178 68 170 112" fill="#22a889" opacity=".72"/><path d="M150 171 C168 207 204 185 180 159" fill="#ffd166" opacity=".8"/><circle cx="164" cy="126" r="7" fill="#101828"/><circle cx="167" cy="123" r="2.3" fill="#fff"/><circle cx="128" cy="86" r="7" fill="#ffd166" opacity=".9"/>
  </g>
  <path d="M42 198 C82 222 171 226 216 184" stroke="#fff" stroke-width="11" stroke-linecap="round" opacity=".22"/>
</svg>