<svg xmlns="http://www.w3.org/2000/svg" viewBox="0 0 256 256" role="img" aria-label="鳞甲幼龙 original avatar">
  
  <defs>
    <linearGradient id="bga782" x1="0" y1="0" x2="1" y2="1">
      <stop offset="0" stop-color="#b8ffe2"/>
      <stop offset=".55" stop-color="#22a889"/>
      <stop offset="1" stop-color="#1d506d"/>
    </linearGradient>
    <radialGradient id="body" cx=".36" cy=".25" r=".76">
      <stop offset="0" stop-color="#b8ffe2"/>
      <stop offset=".6" stop-color="#22a889"/>
      <stop offset="1" stop-color="#1d506d"/>
    </radialGradient>
    <radialGradient id="head" cx=".36" cy=".26" r=".72">
      <stop offset="0" stop-color="#ffffff" stop-opacity=".85"/>
      <stop offset=".2" stop-color="#b8ffe2"/>
      <stop offset=".72" stop-color="#22a889"/>
      <stop offset="1" stop-color="#1d506d"/>
    </radialGradient>
    <filter id="softShadow" x="-30%" y="-30%" width="160%" height="160%">
      <feDropShadow dx="0" dy="8" stdDeviation="8" flood-color="#1d506d" flood-opacity=".35"/>
    </filter>
  </defs>
  <rect width="256" height="256" rx="64" fill="url(#bga782)"/>
  <circle cx="128" cy="128" r="112" fill="#fff" opacity=".12"/>
  <circle cx="128" cy="128" r="103" fill="#ffffff" opacity=".18"/>
  <g opacity=".35"><circle cx="187" cy="152" r="1.0" fill="#fff" opacity="0.69"/><circle cx="160" cy="181" r="0.9" fill="#fff" opacity="0.25"/><circle cx="84" cy="89" r="2.7" fill="#fff" opacity="0.43"/><circle cx="142" cy="66" r="2.6" fill="#fff" opacity="0.30"/><circle cx="138" cy="135" r="1.4" fill="#fff" opacity="0.27"/><circle cx="142" cy="195" r="2.5" fill="#fff" opacity="0.67"/><circle cx="249" cy="95" r="1.5" fill="#fff" opacity="0.48"/><circle cx="229" cy="174" r="2.0" fill="#fff" opacity="0.32"/><circle cx="150" cy="190" r="1.0" fill="#fff" opacity="0.51"/><circle cx="165" cy="189" r="2.4" fill="#fff" opacity="0.50"/></g>
  <g transform="rotate(4 128 128)">
    <path d="M56 153 C82 93 146 69 193 107 C162 105 138 123 124 167" fill="#1d506d" opacity=".45"/><ellipse cx="128" cy="147" rx="54" ry="45" fill="url(#body)" filter="url(#softShadow)"/><path d="M85 107 L110 47 L125 103 Z" fill="#d95f3d"/><path d="M171 107 L146 47 L131 103 Z" fill="#d95f3d"/><ellipse cx="128" cy="114" rx="47" ry="42" fill="url(#head)"/><path d="M77 126 Q46 129 34 107" stroke="#b8ffe2" stroke-width="5" fill="none" stroke-linecap="round" opacity=".85"/><path d="M179 126 Q210 129 222 107" stroke="#b8ffe2" stroke-width="5" fill="none" stroke-linecap="round" opacity=".85"/><ellipse cx="112" cy="107" rx="7" ry="8" fill="#14213d"/><ellipse cx="144" cy="107" rx="7" ry="8" fill="#14213d"/><circle cx="115" cy="103" r="2.3" fill="#fff"/><circle cx="147" cy="103" r="2.3" fill="#fff"/><path d="M108 82 Q128 93 148 82" stroke="#b8ffe2" stroke-width="5" fill="none" stroke-linecap="round" opacity=".8"/>
  </g>
  <path d="M42 198 C82 222 171 226 216 184" stroke="#fff" stroke-width="11" stroke-linecap="round" opacity=".22"/>
</svg>