<svg xmlns="http://www.w3.org/2000/svg" viewBox="0 0 256 256" role="img" aria-label="星尘幼灵 original avatar">
  
  <defs>
    <linearGradient id="bga789" x1="0" y1="0" x2="1" y2="1">
      <stop offset="0" stop-color="#d9dcff"/>
      <stop offset=".55" stop-color="#7276ef"/>
      <stop offset="1" stop-color="#171b62"/>
    </linearGradient>
    <radialGradient id="body" cx=".36" cy=".25" r=".76">
      <stop offset="0" stop-color="#d9dcff"/>
      <stop offset=".6" stop-color="#7276ef"/>
      <stop offset="1" stop-color="#171b62"/>
    </radialGradient>
    <radialGradient id="head" cx=".36" cy=".26" r=".72">
      <stop offset="0" stop-color="#ffffff" stop-opacity=".85"/>
      <stop offset=".2" stop-color="#d9dcff"/>
      <stop offset=".72" stop-color="#7276ef"/>
      <stop offset="1" stop-color="#171b62"/>
    </radialGradient>
    <filter id="softShadow" x="-30%" y="-30%" width="160%" height="160%">
      <feDropShadow dx="0" dy="8" stdDeviation="8" flood-color="#171b62" flood-opacity=".35"/>
    </filter>
  </defs>
  <rect width="256" height="256" rx="64" fill="url(#bga789)"/>
  <circle cx="128" cy="128" r="111" fill="#fff" opacity=".12"/>
  <circle cx="128" cy="128" r="102" fill="#ffffff" opacity=".18"/>
  <g opacity=".35"><circle cx="13" cy="45" r="0.8" fill="#fff" opacity="0.45"/><circle cx="237" cy="93" r="3.1" fill="#fff" opacity="0.33"/><circle cx="82" cy="222" r="2.5" fill="#fff" opacity="0.52"/><circle cx="110" cy="224" r="1.3" fill="#fff" opacity="0.58"/><circle cx="130" cy="222" r="1.3" fill="#fff" opacity="0.53"/><circle cx="236" cy="141" r="1.1" fill="#fff" opacity="0.66"/><circle cx="220" cy="209" r="1.3" fill="#fff" opacity="0.61"/><circle cx="127" cy="81" r="2.7" fill="#fff" opacity="0.54"/><circle cx="110" cy="237" r="1.4" fill="#fff" opacity="0.62"/><circle cx="50" cy="144" r="2.4" fill="#fff" opacity="0.36"/></g>
  <g transform="rotate(-2 128 128)">
    <path d="M76 196 C52 132 85 60 132 59 C188 57 208 129 175 196 C158 179 144 207 128 188 C111 207 95 179 76 196Z" fill="url(#body)" filter="url(#softShadow)"/><circle cx="110" cy="107" r="8" fill="#1b1638"/><circle cx="146" cy="107" r="8" fill="#1b1638"/><path d="M120 136 Q128 145 140 135" stroke="#1b1638" stroke-width="5" fill="none" stroke-linecap="round"/><path d="M65 143 C23 128 44 82 70 100" fill="#f2cf62" opacity=".35"/><path d="M191 143 C233 128 212 82 186 100" fill="#f2cf62" opacity=".35"/><path d="M108 82 Q128 93 148 82" stroke="#d9dcff" stroke-width="5" fill="none" stroke-linecap="round" opacity=".8"/>
  </g>
  <path d="M42 198 C82 222 171 226 216 184" stroke="#fff" stroke-width="11" stroke-linecap="round" opacity=".22"/>
</svg>