<svg xmlns="http://www.w3.org/2000/svg" viewBox="0 0 256 256" role="img" aria-label="月华蝠灵 original avatar">
  
  <defs>
    <linearGradient id="bga792" x1="0" y1="0" x2="1" y2="1">
      <stop offset="0" stop-color="#d5c6ff"/>
      <stop offset=".55" stop-color="#7367b8"/>
      <stop offset="1" stop-color="#2d2357"/>
    </linearGradient>
    <radialGradient id="body" cx=".36" cy=".25" r=".76">
      <stop offset="0" stop-color="#d5c6ff"/>
      <stop offset=".6" stop-color="#7367b8"/>
      <stop offset="1" stop-color="#2d2357"/>
    </radialGradient>
    <radialGradient id="head" cx=".36" cy=".26" r=".72">
      <stop offset="0" stop-color="#ffffff" stop-opacity=".85"/>
      <stop offset=".2" stop-color="#d5c6ff"/>
      <stop offset=".72" stop-color="#7367b8"/>
      <stop offset="1" stop-color="#2d2357"/>
    </radialGradient>
    <filter id="softShadow" x="-30%" y="-30%" width="160%" height="160%">
      <feDropShadow dx="0" dy="8" stdDeviation="8" flood-color="#2d2357" flood-opacity=".35"/>
    </filter>
  </defs>
  <rect width="256" height="256" rx="64" fill="url(#bga792)"/>
  <circle cx="128" cy="128" r="111" fill="#fff" opacity=".12"/>
  <circle cx="128" cy="128" r="102" fill="#ffffff" opacity=".18"/>
  <g opacity=".35"><circle cx="23" cy="155" r="1.6" fill="#fff" opacity="0.36"/><circle cx="169" cy="86" r="3.0" fill="#fff" opacity="0.41"/><circle cx="172" cy="104" r="2.6" fill="#fff" opacity="0.30"/><circle cx="241" cy="56" r="1.8" fill="#fff" opacity="0.62"/><circle cx="180" cy="96" r="2.8" fill="#fff" opacity="0.43"/><circle cx="256" cy="132" r="1.5" fill="#fff" opacity="0.47"/><circle cx="183" cy="182" r="2.2" fill="#fff" opacity="0.66"/><circle cx="188" cy="127" r="2.2" fill="#fff" opacity="0.41"/><circle cx="94" cy="208" r="2.8" fill="#fff" opacity="0.65"/><circle cx="110" cy="43" r="1.5" fill="#fff" opacity="0.53"/></g>
  <g transform="rotate(-3 128 128)">
    <path d="M110 133 C35 75 36 175 104 179" fill="#7276ef" opacity=".78"/><path d="M146 133 C221 75 220 175 152 179" fill="#7276ef" opacity=".78"/><ellipse cx="128" cy="151" rx="42" ry="54" fill="url(#body)" filter="url(#softShadow)"/><circle cx="128" cy="95" r="38" fill="url(#head)"/><path d="M123 94 L165 105 L125 115 Z" fill="#d5c6ff"/><path d="M106 59 C120 27 140 37 130 65" fill="#171b62" opacity=".85"/><ellipse cx="112" cy="107" rx="7" ry="8" fill="#14213d"/><ellipse cx="144" cy="107" rx="7" ry="8" fill="#14213d"/><circle cx="115" cy="103" r="2.3" fill="#fff"/><circle cx="147" cy="103" r="2.3" fill="#fff"/><circle cx="128" cy="86" r="7" fill="#d5c6ff" opacity=".9"/>
  </g>
  <path d="M42 198 C82 222 171 226 216 184" stroke="#fff" stroke-width="11" stroke-linecap="round" opacity=".22"/>
</svg>