<svg xmlns="http://www.w3.org/2000/svg" viewBox="0 0 256 256" role="img" aria-label="利刃鲨 original avatar">
  
  <defs>
    <linearGradient id="bga83" x1="0" y1="0" x2="1" y2="1">
      <stop offset="0" stop-color="#b8ffe2"/>
      <stop offset=".55" stop-color="#22a889"/>
      <stop offset="1" stop-color="#1d506d"/>
    </linearGradient>
    <radialGradient id="body" cx=".36" cy=".25" r=".76">
      <stop offset="0" stop-color="#b8ffe2"/>
      <stop offset=".6" stop-color="#22a889"/>
      <stop offset="1" stop-color="#1d506d"/>
    </radialGradient>
    <radialGradient id="head" cx=".36" cy=".26" r=".72">
      <stop offset="0" stop-color="#ffffff" stop-opacity=".85"/>
      <stop offset=".2" stop-color="#b8ffe2"/>
      <stop offset=".72" stop-color="#22a889"/>
      <stop offset="1" stop-color="#1d506d"/>
    </radialGradient>
    <filter id="softShadow" x="-30%" y="-30%" width="160%" height="160%">
      <feDropShadow dx="0" dy="8" stdDeviation="8" flood-color="#1d506d" flood-opacity=".35"/>
    </filter>
  </defs>
  <rect width="256" height="256" rx="64" fill="url(#bga83)"/>
  <circle cx="128" cy="128" r="106" fill="#fff" opacity=".12"/>
  <circle cx="128" cy="128" r="97" fill="#ffffff" opacity=".18"/>
  <g opacity=".35"><circle cx="182" cy="152" r="2.7" fill="#fff" opacity="0.63"/><circle cx="67" cy="124" r="2.0" fill="#fff" opacity="0.46"/><circle cx="79" cy="60" r="2.9" fill="#fff" opacity="0.59"/><circle cx="221" cy="215" r="1.3" fill="#fff" opacity="0.52"/><circle cx="3" cy="158" r="1.1" fill="#fff" opacity="0.31"/><circle cx="180" cy="183" r="2.2" fill="#fff" opacity="0.67"/><circle cx="72" cy="140" r="2.2" fill="#fff" opacity="0.65"/><circle cx="10" cy="31" r="1.8" fill="#fff" opacity="0.30"/><circle cx="123" cy="84" r="2.5" fill="#fff" opacity="0.57"/><circle cx="139" cy="230" r="2.2" fill="#fff" opacity="0.63"/></g>
  <g transform="rotate(4 128 128)">
    <path d="M57 143 L23 101 L25 185 Z" fill="#22a889" opacity=".86"/><ellipse cx="124" cy="141" rx="68" ry="43" fill="url(#body)" filter="url(#softShadow)"/><path d="M122 102 C144 50 178 68 170 112" fill="#22a889" opacity=".72"/><path d="M150 171 C168 207 204 185 180 159" fill="#b8ffe2" opacity=".8"/><circle cx="164" cy="126" r="7" fill="#101828"/><circle cx="167" cy="123" r="2.3" fill="#fff"/><path d="M128 73 L139 87 L128 102 L117 87 Z" fill="#b8ffe2" opacity=".92"/>
  </g>
  <path d="M42 198 C82 222 171 226 216 184" stroke="#fff" stroke-width="11" stroke-linecap="round" opacity=".22"/>
</svg>