<svg xmlns="http://www.w3.org/2000/svg" viewBox="0 0 256 256" role="img" aria-label="陆地狂鲨 original avatar">
  
  <defs>
    <linearGradient id="bga84" x1="0" y1="0" x2="1" y2="1">
      <stop offset="0" stop-color="#b8ffe2"/>
      <stop offset=".55" stop-color="#22a889"/>
      <stop offset="1" stop-color="#1d506d"/>
    </linearGradient>
    <radialGradient id="body" cx=".36" cy=".25" r=".76">
      <stop offset="0" stop-color="#b8ffe2"/>
      <stop offset=".6" stop-color="#22a889"/>
      <stop offset="1" stop-color="#1d506d"/>
    </radialGradient>
    <radialGradient id="head" cx=".36" cy=".26" r=".72">
      <stop offset="0" stop-color="#ffffff" stop-opacity=".85"/>
      <stop offset=".2" stop-color="#b8ffe2"/>
      <stop offset=".72" stop-color="#22a889"/>
      <stop offset="1" stop-color="#1d506d"/>
    </radialGradient>
    <filter id="softShadow" x="-30%" y="-30%" width="160%" height="160%">
      <feDropShadow dx="0" dy="8" stdDeviation="8" flood-color="#1d506d" flood-opacity=".35"/>
    </filter>
  </defs>
  <rect width="256" height="256" rx="64" fill="url(#bga84)"/>
  <circle cx="128" cy="128" r="113" fill="#fff" opacity=".12"/>
  <circle cx="128" cy="128" r="104" fill="#ffffff" opacity=".18"/>
  <g opacity=".35"><circle cx="124" cy="104" r="1.4" fill="#fff" opacity="0.30"/><circle cx="109" cy="10" r="2.8" fill="#fff" opacity="0.63"/><circle cx="1" cy="33" r="1.5" fill="#fff" opacity="0.27"/><circle cx="91" cy="32" r="1.4" fill="#fff" opacity="0.63"/><circle cx="103" cy="99" r="2.8" fill="#fff" opacity="0.35"/><circle cx="250" cy="67" r="2.1" fill="#fff" opacity="0.28"/><circle cx="90" cy="80" r="1.8" fill="#fff" opacity="0.56"/><circle cx="25" cy="63" r="2.5" fill="#fff" opacity="0.45"/><circle cx="65" cy="30" r="3.1" fill="#fff" opacity="0.66"/><circle cx="250" cy="94" r="3.1" fill="#fff" opacity="0.59"/></g>
  <g transform="rotate(0 128 128)">
    <path d="M57 143 L23 101 L25 185 Z" fill="#22a889" opacity=".86"/><ellipse cx="124" cy="141" rx="68" ry="43" fill="url(#body)" filter="url(#softShadow)"/><path d="M122 102 C144 50 178 68 170 112" fill="#22a889" opacity=".72"/><path d="M150 171 C168 207 204 185 180 159" fill="#b8ffe2" opacity=".8"/><circle cx="164" cy="126" r="7" fill="#101828"/><circle cx="167" cy="123" r="2.3" fill="#fff"/><circle cx="128" cy="86" r="7" fill="#b8ffe2" opacity=".9"/>
  </g>
  <path d="M42 198 C82 222 171 226 216 184" stroke="#fff" stroke-width="11" stroke-linecap="round" opacity=".22"/>
</svg>