<svg xmlns="http://www.w3.org/2000/svg" viewBox="0 0 256 256" role="img" aria-label="古铜钟 original avatar">
  
  <defs>
    <linearGradient id="bga86" x1="0" y1="0" x2="1" y2="1">
      <stop offset="0" stop-color="#e8edf2"/>
      <stop offset=".55" stop-color="#9aa8b7"/>
      <stop offset="1" stop-color="#536271"/>
    </linearGradient>
    <radialGradient id="body" cx=".36" cy=".25" r=".76">
      <stop offset="0" stop-color="#e8edf2"/>
      <stop offset=".6" stop-color="#9aa8b7"/>
      <stop offset="1" stop-color="#536271"/>
    </radialGradient>
    <radialGradient id="head" cx=".36" cy=".26" r=".72">
      <stop offset="0" stop-color="#ffffff" stop-opacity=".85"/>
      <stop offset=".2" stop-color="#e8edf2"/>
      <stop offset=".72" stop-color="#9aa8b7"/>
      <stop offset="1" stop-color="#536271"/>
    </radialGradient>
    <filter id="softShadow" x="-30%" y="-30%" width="160%" height="160%">
      <feDropShadow dx="0" dy="8" stdDeviation="8" flood-color="#536271" flood-opacity=".35"/>
    </filter>
  </defs>
  <rect width="256" height="256" rx="64" fill="url(#bga86)"/>
  <circle cx="128" cy="128" r="111" fill="#fff" opacity=".12"/>
  <circle cx="128" cy="128" r="102" fill="#ffffff" opacity=".18"/>
  <g opacity=".35"><circle cx="110" cy="89" r="2.7" fill="#fff" opacity="0.63"/><circle cx="245" cy="153" r="1.3" fill="#fff" opacity="0.62"/><circle cx="111" cy="129" r="1.6" fill="#fff" opacity="0.56"/><circle cx="45" cy="162" r="1.1" fill="#fff" opacity="0.43"/><circle cx="5" cy="206" r="3.2" fill="#fff" opacity="0.67"/><circle cx="78" cy="59" r="3.1" fill="#fff" opacity="0.31"/><circle cx="199" cy="224" r="1.8" fill="#fff" opacity="0.34"/><circle cx="189" cy="41" r="2.1" fill="#fff" opacity="0.55"/><circle cx="153" cy="147" r="1.3" fill="#fff" opacity="0.48"/><circle cx="13" cy="46" r="2.5" fill="#fff" opacity="0.61"/></g>
  <g transform="rotate(-2 128 128)">
    <path d="M76 95 L110 60 H155 L187 102 L172 176 H83 Z" fill="url(#body)" filter="url(#softShadow)"/><path d="M100 71 L123 28 L140 67 Z" fill="#e8edf2"/><path d="M145 73 L171 39 L170 86 Z" fill="#9aa8b7"/><rect x="98" y="119" width="60" height="15" rx="7" fill="#536271" opacity=".38"/><circle cx="114" cy="126" r="5" fill="#e8edf2"/><circle cx="142" cy="126" r="5" fill="#e8edf2"/><path d="M128 73 L139 87 L128 102 L117 87 Z" fill="#e8edf2" opacity=".92"/>
  </g>
  <path d="M42 198 C82 222 171 226 216 184" stroke="#fff" stroke-width="11" stroke-linecap="round" opacity=".22"/>
</svg>