<svg xmlns="http://www.w3.org/2000/svg" viewBox="0 0 256 256" role="img" aria-label="合金巨蟹 original avatar">
  
  <defs>
    <linearGradient id="bga89" x1="0" y1="0" x2="1" y2="1">
      <stop offset="0" stop-color="#e8edf2"/>
      <stop offset=".55" stop-color="#9aa8b7"/>
      <stop offset="1" stop-color="#536271"/>
    </linearGradient>
    <radialGradient id="body" cx=".36" cy=".25" r=".76">
      <stop offset="0" stop-color="#e8edf2"/>
      <stop offset=".6" stop-color="#9aa8b7"/>
      <stop offset="1" stop-color="#536271"/>
    </radialGradient>
    <radialGradient id="head" cx=".36" cy=".26" r=".72">
      <stop offset="0" stop-color="#ffffff" stop-opacity=".85"/>
      <stop offset=".2" stop-color="#e8edf2"/>
      <stop offset=".72" stop-color="#9aa8b7"/>
      <stop offset="1" stop-color="#536271"/>
    </radialGradient>
    <filter id="softShadow" x="-30%" y="-30%" width="160%" height="160%">
      <feDropShadow dx="0" dy="8" stdDeviation="8" flood-color="#536271" flood-opacity=".35"/>
    </filter>
  </defs>
  <rect width="256" height="256" rx="64" fill="url(#bga89)"/>
  <circle cx="128" cy="128" r="106" fill="#fff" opacity=".12"/>
  <circle cx="128" cy="128" r="97" fill="#ffffff" opacity=".18"/>
  <g opacity=".35"><circle cx="49" cy="204" r="2.4" fill="#fff" opacity="0.35"/><circle cx="15" cy="61" r="1.0" fill="#fff" opacity="0.55"/><circle cx="165" cy="177" r="3.0" fill="#fff" opacity="0.45"/><circle cx="107" cy="73" r="1.0" fill="#fff" opacity="0.39"/><circle cx="100" cy="163" r="2.6" fill="#fff" opacity="0.59"/><circle cx="75" cy="141" r="1.3" fill="#fff" opacity="0.58"/><circle cx="68" cy="20" r="2.1" fill="#fff" opacity="0.43"/><circle cx="166" cy="194" r="2.6" fill="#fff" opacity="0.69"/><circle cx="167" cy="63" r="1.9" fill="#fff" opacity="0.28"/><circle cx="179" cy="198" r="2.1" fill="#fff" opacity="0.26"/></g>
  <g transform="rotate(2 128 128)">
    <path d="M57 143 L23 101 L25 185 Z" fill="#9aa8b7" opacity=".86"/><ellipse cx="124" cy="141" rx="68" ry="43" fill="url(#body)" filter="url(#softShadow)"/><path d="M122 102 C144 50 178 68 170 112" fill="#9aa8b7" opacity=".72"/><path d="M150 171 C168 207 204 185 180 159" fill="#e8edf2" opacity=".8"/><circle cx="164" cy="126" r="7" fill="#101828"/><circle cx="167" cy="123" r="2.3" fill="#fff"/><path d="M108 82 Q128 93 148 82" stroke="#e8edf2" stroke-width="5" fill="none" stroke-linecap="round" opacity=".8"/>
  </g>
  <path d="M42 198 C82 222 171 226 216 184" stroke="#fff" stroke-width="11" stroke-linecap="round" opacity=".22"/>
</svg>