<svg xmlns="http://www.w3.org/2000/svg" viewBox="0 0 256 256" role="img" aria-label="海神洛奇 original avatar">
  
  <defs>
    <linearGradient id="bga96" x1="0" y1="0" x2="1" y2="1">
      <stop offset="0" stop-color="#d9edff"/>
      <stop offset=".55" stop-color="#82b7ff"/>
      <stop offset="1" stop-color="#4260ad"/>
    </linearGradient>
    <radialGradient id="body" cx=".36" cy=".25" r=".76">
      <stop offset="0" stop-color="#d9edff"/>
      <stop offset=".6" stop-color="#82b7ff"/>
      <stop offset="1" stop-color="#4260ad"/>
    </radialGradient>
    <radialGradient id="head" cx=".36" cy=".26" r=".72">
      <stop offset="0" stop-color="#ffffff" stop-opacity=".85"/>
      <stop offset=".2" stop-color="#d9edff"/>
      <stop offset=".72" stop-color="#82b7ff"/>
      <stop offset="1" stop-color="#4260ad"/>
    </radialGradient>
    <filter id="softShadow" x="-30%" y="-30%" width="160%" height="160%">
      <feDropShadow dx="0" dy="8" stdDeviation="8" flood-color="#4260ad" flood-opacity=".35"/>
    </filter>
  </defs>
  <rect width="256" height="256" rx="64" fill="url(#bga96)"/>
  <circle cx="128" cy="128" r="107" fill="#fff" opacity=".12"/>
  <circle cx="128" cy="128" r="98" fill="#ffffff" opacity=".18"/>
  <g opacity=".35"><circle cx="126" cy="229" r="1.5" fill="#fff" opacity="0.53"/><circle cx="34" cy="151" r="2.9" fill="#fff" opacity="0.52"/><circle cx="255" cy="184" r="1.0" fill="#fff" opacity="0.39"/><circle cx="227" cy="42" r="1.9" fill="#fff" opacity="0.57"/><circle cx="166" cy="188" r="2.6" fill="#fff" opacity="0.36"/><circle cx="12" cy="228" r="1.1" fill="#fff" opacity="0.45"/><circle cx="129" cy="179" r="0.9" fill="#fff" opacity="0.61"/><circle cx="24" cy="110" r="1.7" fill="#fff" opacity="0.67"/><circle cx="77" cy="124" r="1.9" fill="#fff" opacity="0.26"/><circle cx="217" cy="63" r="3.2" fill="#fff" opacity="0.69"/></g>
  <g transform="rotate(0 128 128)">
    <path d="M57 143 L23 101 L25 185 Z" fill="#82b7ff" opacity=".86"/><ellipse cx="124" cy="141" rx="68" ry="43" fill="url(#body)" filter="url(#softShadow)"/><path d="M122 102 C144 50 178 68 170 112" fill="#82b7ff" opacity=".72"/><path d="M150 171 C168 207 204 185 180 159" fill="#d9edff" opacity=".8"/><circle cx="164" cy="126" r="7" fill="#101828"/><circle cx="167" cy="123" r="2.3" fill="#fff"/><path d="M108 82 Q128 93 148 82" stroke="#d9edff" stroke-width="5" fill="none" stroke-linecap="round" opacity=".8"/>
  </g>
  <path d="M42 198 C82 222 171 226 216 184" stroke="#fff" stroke-width="11" stroke-linecap="round" opacity=".22"/>
</svg>