<svg xmlns="http://www.w3.org/2000/svg" viewBox="0 0 256 256" role="img" aria-label="彩虹凤王 original avatar">
  
  <defs>
    <linearGradient id="bga97" x1="0" y1="0" x2="1" y2="1">
      <stop offset="0" stop-color="#ffd166"/>
      <stop offset=".55" stop-color="#ff6b35"/>
      <stop offset="1" stop-color="#a92d1d"/>
    </linearGradient>
    <radialGradient id="body" cx=".36" cy=".25" r=".76">
      <stop offset="0" stop-color="#ffd166"/>
      <stop offset=".6" stop-color="#ff6b35"/>
      <stop offset="1" stop-color="#a92d1d"/>
    </radialGradient>
    <radialGradient id="head" cx=".36" cy=".26" r=".72">
      <stop offset="0" stop-color="#ffffff" stop-opacity=".85"/>
      <stop offset=".2" stop-color="#ffd166"/>
      <stop offset=".72" stop-color="#ff6b35"/>
      <stop offset="1" stop-color="#a92d1d"/>
    </radialGradient>
    <filter id="softShadow" x="-30%" y="-30%" width="160%" height="160%">
      <feDropShadow dx="0" dy="8" stdDeviation="8" flood-color="#a92d1d" flood-opacity=".35"/>
    </filter>
  </defs>
  <rect width="256" height="256" rx="64" fill="url(#bga97)"/>
  <circle cx="128" cy="128" r="112" fill="#fff" opacity=".12"/>
  <circle cx="128" cy="128" r="103" fill="#ffffff" opacity=".18"/>
  <g opacity=".35"><circle cx="29" cy="39" r="1.8" fill="#fff" opacity="0.60"/><circle cx="80" cy="44" r="2.5" fill="#fff" opacity="0.43"/><circle cx="95" cy="33" r="1.8" fill="#fff" opacity="0.42"/><circle cx="28" cy="96" r="2.2" fill="#fff" opacity="0.52"/><circle cx="3" cy="67" r="1.9" fill="#fff" opacity="0.69"/><circle cx="26" cy="245" r="2.1" fill="#fff" opacity="0.54"/><circle cx="30" cy="196" r="2.6" fill="#fff" opacity="0.61"/><circle cx="9" cy="231" r="2.4" fill="#fff" opacity="0.31"/><circle cx="206" cy="174" r="2.6" fill="#fff" opacity="0.31"/><circle cx="46" cy="114" r="1.8" fill="#fff" opacity="0.57"/></g>
  <g transform="rotate(3 128 128)">
    <path d="M110 133 C35 75 36 175 104 179" fill="#ff6b35" opacity=".78"/><path d="M146 133 C221 75 220 175 152 179" fill="#ff6b35" opacity=".78"/><ellipse cx="128" cy="151" rx="42" ry="54" fill="url(#body)" filter="url(#softShadow)"/><circle cx="128" cy="95" r="38" fill="url(#head)"/><path d="M123 94 L165 105 L125 115 Z" fill="#ffd166"/><path d="M106 59 C120 27 140 37 130 65" fill="#a92d1d" opacity=".85"/><ellipse cx="112" cy="107" rx="7" ry="8" fill="#14213d"/><ellipse cx="144" cy="107" rx="7" ry="8" fill="#14213d"/><circle cx="115" cy="103" r="2.3" fill="#fff"/><circle cx="147" cy="103" r="2.3" fill="#fff"/><circle cx="128" cy="86" r="7" fill="#ffd166" opacity=".9"/>
  </g>
  <path d="M42 198 C82 222 171 226 216 184" stroke="#fff" stroke-width="11" stroke-linecap="round" opacity=".22"/>
</svg>