<svg xmlns="http://www.w3.org/2000/svg" viewBox="0 0 512 512" role="img" aria-label="…§¾uþ">
  <defs>
    <radialGradient id="bg" cx="40%" cy="20%" r="78%">
      <stop offset="0%" stop-color="#174fbf"/>
      <stop offset="56%" stop-color="#07152f"/>
      <stop offset="100%" stop-color="#030917"/>
    </radialGradient>
    <linearGradient id="top" x1="92" y1="72" x2="420" y2="246">
      <stop offset="0%" stop-color="#ff7a6c"/>
      <stop offset="100%" stop-color="#ff2f67"/>
    </linearGradient>
    <linearGradient id="bottom" x1="98" y1="270" x2="416" y2="444">
      <stop offset="0%" stop-color="#ffffff"/>
      <stop offset="100%" stop-color="#b8d8ff"/>
    </linearGradient>
    <radialGradient id="core" cx="50%" cy="42%" r="68%">
      <stop offset="0%" stop-color="#ffffff"/>
      <stop offset="48%" stop-color="#8fd8ff"/>
      <stop offset="100%" stop-color="#2f6df6"/>
    </radialGradient>
    <filter id="shadow" x="-20%" y="-20%" width="140%" height="140%">
      <feDropShadow dx="0" dy="18" stdDeviation="18" flood-color="#000b22" flood-opacity="0.45"/>
    </filter>
  </defs>
  <rect width="512" height="512" rx="112" fill="url(#bg)"/>
  <circle cx="256" cy="256" r="188" fill="#07152f" opacity="0.55"/>
  <g filter="url(#shadow)">
    <path d="M68 245a188 188 0 0 1 376 0H68Z" fill="url(#top)"/>
    <path d="M68 267a188 188 0 0 0 376 0H68Z" fill="url(#bottom)"/>
    <path d="M76 256h360" stroke="#07152f" stroke-width="38" stroke-linecap="round"/>
    <circle cx="256" cy="256" r="76" fill="#07152f"/>
    <circle cx="256" cy="256" r="46" fill="url(#core)"/>
    <circle cx="256" cy="256" r="22" fill="#ffffff" opacity="0.62"/>
  </g>
  <path d="M256 58l24 70 70 24-70 24-24 70-24-70-70-24 70-24 24-70Z" fill="#ffd54f"/>
  <path d="M120 86l16 42 42 16-42 16-16 42-16-42-42-16 42-16 16-42Z" fill="#9df7c7" opacity="0.9"/>
  <path d="M390 305l18 50 50 18-50 18-18 50-18-50-50-18 50-18 18-50Z" fill="#ffd54f" opacity="0.9"/>
</svg>
